<?xml version="1.0" standalone="no"?>
<!DOCTYPE svg PUBLIC "-//W3C//DTD SVG 1.1//EN" "http://www.w3.org/Graphics/SVG/1.1/DTD/svg11.dtd" >
<svg xmlns="http://www.w3.org/2000/svg" xmlns:xlink="http://www.w3.org/1999/xlink" version="1.1">
<metadata>
Created by FontForge 20170731 at Sun Aug 15 09:03:39 2021
 By Aleksey,,,
Copyright 2021 The Be Vietnam Pro Project Authors (https://github.com/bettergui/BeVietnamPro)
</metadata>
<defs>
<font id="BeVietnamPro-Bold" horiz-adv-x="0" >
  <font-face 
    font-family="Be Vietnam Pro"
    font-weight="700"
    font-stretch="normal"
    units-per-em="1000"
    panose-1="0 0 0 0 0 0 0 0 0 0"
    ascent="800"
    descent="-200"
    x-height="530"
    cap-height="740"
    bbox="-148 -263 1206 1223"
    underline-thickness="50"
    underline-position="-175"
    unicode-range="U+000D-2265"
  />
<missing-glyph horiz-adv-x="500" 
 />
    <glyph glyph-name="f_f.liga" unicode="ff" horiz-adv-x="786" 
d="M120 0v409h-84v121h84v42q0 29 8 63t28.5 65t57.5 50.5t95 19.5q32 0 52.5 -4.5l20.5 -4.5v-107l-12 2t-25 2q-41 0 -57 -24t-16 -62v-42h225v42q0 29 8 63t28.5 65t57.5 50.5t95 19.5q32 0 52.5 -4.5l20.5 -4.5v-107l-12 2t-25 2q-42 0 -57.5 -24t-15.5 -62v-42h107
v-121h-107v-409h-152v409h-225v-409h-152z" />
    <glyph glyph-name="f_f_i.liga" unicode="ffi" horiz-adv-x="1085" 
d="M937 602q-39 0 -64.5 25.5t-25.5 60.5q0 37 25.5 62.5t64.5 25.5t64.5 -25.5t25.5 -62.5q0 -35 -25.5 -60.5t-64.5 -25.5zM120 0v409h-84v121h84v42q0 29 8 63t28.5 65t57.5 50.5t95 19.5q32 0 52.5 -4.5l20.5 -4.5v-107l-12 2t-25 2q-41 0 -57 -24t-16 -62v-42h225v42
q0 29 8 63t28.5 65t57.5 50.5t95 19.5q32 0 52.5 -4.5l20.5 -4.5v-107l-12 2t-25 2q-42 0 -57.5 -24t-15.5 -62v-42h364v-530h-152v409h-212v-409h-152v409h-225v-409h-152z" />
    <glyph glyph-name="f_i.liga" unicode="fi" horiz-adv-x="708" 
d="M560 602q-39 0 -64.5 25.5t-25.5 60.5q0 37 25.5 62.5t64.5 25.5t64.5 -25.5t25.5 -62.5q0 -35 -25.5 -60.5t-64.5 -25.5zM120 0v409h-84v121h84v42q0 29 8 63t28.5 65t57.5 50.5t95 19.5q32 0 52.5 -4.5l20.5 -4.5v-107l-12 2t-25 2q-41 0 -57 -24t-16 -62v-42h364v-530
h-152v409h-212v-409h-152z" />
    <glyph glyph-name="colon_b_e_colon.liga" unicode="&#x3a;be&#x3a;" horiz-adv-x="878" 
d="M123 448l23 177h160q43 0 66.5 16.5t31 43t3.5 55.5q52 -15 81 -55.5t29 -95.5q0 -38 -16.5 -70.5t-55 -51.5t-105.5 -19h-217zM64 -10l36 267h229q68 0 106 25t49 64.5t-1 83.5q50 -11 89.5 -42.5t62.5 -77t23 -98.5q0 -61 -29.5 -111.5t-86.5 -80.5t-138 -30h-340z" />
    <glyph glyph-name="colon_d_d_colon.liga" unicode="&#x3a;dd&#x3a;" horiz-adv-x="640" 
d="M255 138q-61 0 -102.5 29.5t-62 76.5t-20.5 98t20.5 97.5t62 76.5t102.5 30q41 0 67.5 -13t39.5 -27t16 -19h7v89h-102v78h102v46h130v-46h65v-78h-65v-432h-130v52h-7q-3 -4 -16.5 -18.5t-39.5 -27t-67 -12.5zM294 242q47 0 70.5 31.5t23.5 68.5t-23.5 68.5t-70.5 31.5
q-46 0 -69.5 -31.5t-23.5 -68.5t23.5 -68.5t69.5 -31.5zM60 0v71h514v-71h-514z" />
    <glyph glyph-name="colon_s_t_a_r_colon.liga" unicode="&#x3a;star&#x3a;" horiz-adv-x="831" 
d="M215 51l47 231l-172 152l226 28l98 210l98 -208l228 -29l-171 -151l48 -232l-200 118z" />
    <glyph glyph-name=".notdef" horiz-adv-x="500" 
 />
    <glyph glyph-name=".null" 
 />
    <glyph glyph-name="nonmarkingreturn" horiz-adv-x="333" 
 />
    <glyph glyph-name="CR" unicode="&#xd;" horiz-adv-x="600" 
 />
    <glyph glyph-name="space" unicode=" " horiz-adv-x="230" 
 />
    <glyph glyph-name="exclam" unicode="!" horiz-adv-x="341" 
d="M106 219l-18 521h164l-21 -521h-125zM170 -9q-36 0 -58.5 24t-22.5 57t22.5 57t58.5 24q35 0 58 -24t23 -57q0 -34 -23 -57.5t-58 -23.5z" />
    <glyph glyph-name="quotedbl" unicode="&#x22;" horiz-adv-x="391" 
d="M229 515l10 225h126l-51 -225h-85zM60 515l10 225h126l-51 -225h-85z" />
    <glyph glyph-name="numbersign" unicode="#" horiz-adv-x="845" 
d="M153 0l36 175h-143l27 127h141l28 137h-140l27 127h138l35 174h127l-35 -174h138l35 174h126l-35 -174h141l-27 -127h-140l-27 -137h138l-27 -127h-137l-35 -175h-126l35 175h-138l-35 -175h-127zM341 302h137l28 137h-138z" />
    <glyph glyph-name="dollar" unicode="$" horiz-adv-x="649" 
d="M296 -96v86q-76 6 -124.5 32.5t-75.5 62t-39 70t-14.5 57l-2.5 22.5h146l2.5 -15.5t12.5 -37.5t32.5 -41t62.5 -27v208l-7 1q-40 9 -80.5 23t-74 37t-54 59t-20.5 90q0 65 31.5 111.5t85 73.5t119.5 33v85h80v-87q65 -7 107.5 -31.5t67.5 -56t37 -62t15.5 -50.5l3.5 -20
h-144l-2.5 12t-11 29.5t-26 34t-47.5 24.5v-193l13 -3q34 -8 73.5 -20.5t74 -35.5t56 -61.5t21.5 -96.5q0 -62 -29.5 -110.5t-83 -78.5t-125.5 -37v-87h-80zM202 537q0 -33 23 -52.5t71 -32.5v180q-44 -8 -69 -34t-25 -61zM471 214q0 37 -24.5 57t-70.5 32v-190q43 9 69 36
t26 65z" />
    <glyph glyph-name="percent" unicode="%" horiz-adv-x="871" 
d="M219 424q-52 0 -89.5 22.5t-58 59.5t-20.5 82q0 44 20 81t58 59t90 22q53 0 90.5 -22t57.5 -59t20 -81q0 -45 -20 -82t-58 -59.5t-90 -22.5zM167 0l415 740h121l-414 -740h-122zM219 514q31 0 50 21.5t19 51.5t-19 51t-50 21q-32 0 -51 -21t-19 -51t19 -51.5t51 -21.5z
M652 -10q-52 0 -90 22.5t-58 59.5t-20 81t20 81t58 59.5t90 22.5t89.5 -22.5t58 -59.5t20.5 -81t-20.5 -81t-58 -59.5t-89.5 -22.5zM651 80q32 0 51 21t19 52q0 30 -19 51t-51 21q-31 0 -50 -21t-19 -51q0 -31 19 -52t50 -21z" />
    <glyph glyph-name="ampersand" unicode="&#x26;" horiz-adv-x="763" 
d="M312 -10q-74 0 -134 26.5t-96 76t-36 119.5q0 67 35 115.5t101 86.5q-23 27 -43.5 64t-20.5 90q0 60 29 100.5t74.5 61t95.5 20.5t94 -19.5t72 -56.5t28 -92q0 -66 -39.5 -111t-98.5 -77l133 -144q12 33 19 75.5t7 95.5h121q0 -85 -15.5 -151.5t-42.5 -116.5l139 -151
h-186l-43 48q-41 -31 -90.5 -45.5t-102.5 -14.5zM244 574q0 -28 18 -53.5t39 -48.5q35 17 60 42.5t25 62.5q0 34 -21.5 51.5t-47.5 17.5q-28 0 -50.5 -18.5t-22.5 -53.5zM184 223q0 -49 37 -82t99 -33q28 0 55 7.5t50 24.5l-171 192q-33 -22 -51.5 -48.5t-18.5 -60.5z" />
    <glyph glyph-name="quotesingle" unicode="'" horiz-adv-x="222" 
d="M60 515l10 225h126l-51 -225h-85z" />
    <glyph glyph-name="parenleft" unicode="(" horiz-adv-x="453" 
d="M417 -225q-92 11 -162 58t-118 120.5t-72.5 163.5t-24.5 186t24.5 186t72.5 163.5t118 120.5t162 58v-138q-49 -9 -90 -44.5t-70.5 -89.5t-46 -120t-16.5 -136t16.5 -136t46 -120t70.5 -89.5t90 -44.5v-138z" />
    <glyph glyph-name="parenright" unicode=")" horiz-adv-x="453" 
d="M37 831q91 -11 161.5 -58t118 -120.5t72 -163.5t24.5 -186t-24.5 -186t-72 -163.5t-118 -120.5t-161.5 -58v138q49 9 89.5 44.5t70.5 89.5t46 120t16 136t-16 136t-46 120t-70.5 89.5t-89.5 44.5v138z" />
    <glyph glyph-name="asterisk" unicode="*" horiz-adv-x="513" 
d="M177 328l-88 63l85 112l-134 41l33 103l132 -47l-3 140h108l-3 -140l133 47l33 -103l-134 -41l85 -112l-88 -63l-80 114z" />
    <glyph glyph-name="plus" unicode="+" horiz-adv-x="652" 
d="M116 252v120h150v150h120v-150h150v-120h-150v-150h-120v150h-150z" />
    <glyph glyph-name="comma" unicode="," horiz-adv-x="346" 
d="M85 -145l82 136q-34 3 -56.5 27t-22.5 58q0 37 25 61t62 24t63 -24t26 -65q0 -23 -11 -49.5t-35.5 -64t-63.5 -92.5l-7 -11h-62z" />
    <glyph glyph-name="hyphen" unicode="-" horiz-adv-x="607" 
d="M116 252v120h375v-120h-375z" />
    <glyph glyph-name="period" unicode="." horiz-adv-x="335" 
d="M168 -10q-38 0 -62 25.5t-24 59.5q0 36 24 61t62 25q36 0 60.5 -25t24.5 -61q0 -35 -24.5 -60t-60.5 -25z" />
    <glyph glyph-name="slash" unicode="/" horiz-adv-x="541" 
d="M34 -181l348 1010h137l-348 -1010h-137z" />
    <glyph glyph-name="zero" unicode="0" horiz-adv-x="700" 
d="M350 -10q-74 0 -131.5 30t-97.5 82.5t-60.5 121.5t-20.5 146q0 78 20.5 147t60.5 121.5t97.5 82t131.5 29.5t131.5 -29.5t97.5 -82t60.5 -121.5t20.5 -147q0 -77 -20.5 -146t-60.5 -121.5t-97.5 -82.5t-131.5 -30zM350 127q66 0 108.5 61t42.5 182t-42.5 182t-108.5 61
t-108.5 -61t-42.5 -182t42.5 -182t108.5 -61z" />
    <glyph glyph-name="one" unicode="1" horiz-adv-x="431" 
d="M339 740v-740h-154v530l-143 -1v93l23 7q63 18 102 41t75 61l7 9h90z" />
    <glyph glyph-name="two" unicode="2" horiz-adv-x="664" 
d="M58 0v106l128 109q80 67 137 114t87 88t30 88q0 36 -17 60.5t-43.5 37t-55.5 12.5q-35 0 -58.5 -13t-37 -33.5t-19.5 -42.5t-6 -38h-148q0 42 16 87.5t49 85t85 64.5t124 25q73 0 133 -28.5t96.5 -81.5t36.5 -125q0 -68 -33.5 -123.5t-93.5 -108t-138 -113.5l-42 -35h317
v-135h-547z" />
    <glyph glyph-name="three" unicode="3" horiz-adv-x="680" 
d="M341 -10q-72 0 -121.5 18t-80.5 47t-48.5 61.5t-24 62t-6.5 48.5h146q0 -21 12 -46.5t40.5 -44.5t80.5 -19q54 0 89.5 28t35.5 75q0 42 -30.5 69.5t-86.5 27.5h-100v119h101q48 0 77 26.5t29 65.5q0 41 -33 68.5t-82 27.5q-46 0 -72.5 -20t-38 -47t-11.5 -47h-143
q0 18 6.5 48t23.5 63t47 62.5t76.5 48t113.5 18.5t127.5 -24.5t98.5 -71t38 -112.5q0 -45 -18 -77.5t-44 -53.5t-52 -30v-6q50 -18 88.5 -57.5t38.5 -106.5q0 -70 -38.5 -119.5t-101.5 -75.5t-137 -26z" />
    <glyph glyph-name="four" unicode="4" horiz-adv-x="720" 
d="M400 0v151l-358 1v134l322 454h191v-459h114v-130h-114v-151h-155zM194 281h206v293z" />
    <glyph glyph-name="five" unicode="5" horiz-adv-x="682" 
d="M341 -10q-75 0 -128 24t-86.5 61t-49 77.5t-15.5 74.5h143l3.5 -17t16.5 -39t40 -39t73 -17t76 19.5t45 49.5t15 63q0 34 -15 64.5t-44.5 50t-73.5 19.5q-34 0 -56 -10.5t-35 -24t-18.5 -24l-5.5 -10.5h-152l65 428h436v-134h-331l-26 -169h4q5 5 20.5 20t47.5 28.5
t85 13.5q80 0 136 -36t84.5 -92.5t28.5 -119.5q0 -49 -17.5 -95t-52.5 -83.5t-88 -60t-125 -22.5z" />
    <glyph glyph-name="six" unicode="6" horiz-adv-x="700" 
d="M362 -10q-77 0 -134 27.5t-94.5 75t-55.5 108t-18 126.5q0 73 22.5 147.5t71 137t124.5 100.5t184 38q44 0 76 -5.5l32 -5.5v-137l-16.5 2.5t-41.5 5.5t-50 3q-77 0 -129 -31t-79.5 -79t-32.5 -101q10 17 31 37.5t56.5 35.5t89.5 15q80 0 134 -34.5t81 -89.5t27 -115
q0 -48 -17.5 -94.5t-52 -84t-86.5 -60t-122 -22.5zM362 117q56 0 92 36t36 92q0 57 -36 92.5t-92 35.5q-55 0 -91.5 -35.5t-36.5 -92.5q0 -56 36.5 -92t91.5 -36z" />
    <glyph glyph-name="seven" unicode="7" horiz-adv-x="598" 
d="M155 0q5 115 34 212.5t69 175t79 133t65 85.5h-366v134h538v-110l-25.5 -28.5t-63.5 -82.5t-76.5 -131.5t-66.5 -175t-33 -212.5h-154z" />
    <glyph glyph-name="eight" unicode="8" horiz-adv-x="668" 
d="M333 -10q-76 0 -139.5 25.5t-102 73t-38.5 114.5q0 52 20 87t46 55.5t46.5 29l20.5 8.5v6l-17.5 8t-40 26t-39.5 48.5t-17 74.5q0 62 34.5 107.5t94 71t132.5 25.5q74 0 133.5 -25.5t94 -71t34.5 -106.5q0 -45 -17.5 -75.5t-40 -48.5t-40 -26l-17.5 -8v-6q1 0 21 -8.5
t46 -29t46 -55.5t20 -87q0 -67 -38 -114.5t-101.5 -73t-140.5 -25.5zM333 440q50 0 83.5 27.5t33.5 68.5q0 42 -33 69t-84 27q-50 0 -83 -27t-33 -69t33 -69t83 -27zM333 110q44 0 73.5 16.5t44 41.5t14.5 53q0 26 -14.5 50.5t-44 40.5t-73.5 16t-73 -16t-44 -40.5
t-15 -50.5q0 -28 15 -53t44.5 -41.5t72.5 -16.5z" />
    <glyph glyph-name="nine" unicode="9" horiz-adv-x="700" 
d="M338 750q77 0 134 -27.5t94 -75t55.5 -108t18.5 -126.5q0 -73 -23 -147.5t-71 -137t-124.5 -100.5t-183.5 -38q-44 0 -76 5.5l-32 5.5v137l16.5 -2.5t41.5 -5.5t50 -3q77 0 129 31t79.5 79t32.5 101q-10 -17 -31 -37.5t-56.5 -35.5t-90.5 -15q-79 0 -133 34.5t-81 89.5
t-27 115q0 48 17.5 94.5t52 84t86.5 60t122 22.5zM338 623q-56 0 -92 -36t-36 -92q0 -57 36 -92.5t92 -35.5q55 0 91 35.5t36 92.5q0 56 -36 92t-91 36z" />
    <glyph glyph-name="colon" unicode=":" horiz-adv-x="335" 
d="M168 369q-38 0 -62 25.5t-24 60.5t24 60t62 25q36 0 60.5 -25t24.5 -60t-24.5 -60.5t-60.5 -25.5zM168 -10q-38 0 -62 25.5t-24 59.5q0 36 24 61t62 25q36 0 60.5 -25t24.5 -61q0 -35 -24.5 -60t-60.5 -25z" />
    <glyph glyph-name="semicolon" unicode=";" horiz-adv-x="346" 
d="M173 369q-37 0 -61 25.5t-24 60.5t24 60t61 25t61.5 -25t24.5 -60t-24.5 -60.5t-61.5 -25.5zM85 -144l82 136q-34 3 -56.5 27t-22.5 58q0 36 25 60.5t62 24.5t63 -24t26 -65q0 -23 -11 -50t-35.5 -64.5t-63.5 -91.5l-7 -11h-62z" />
    <glyph glyph-name="less" unicode="&#x3c;" horiz-adv-x="573" 
d="M499 106l-425 189v88l425 189v-126l-258 -106l258 -108v-126z" />
    <glyph glyph-name="equal" unicode="=" horiz-adv-x="752" 
d="M116 356v124h520v-124h-520zM116 129v124h520v-124h-520z" />
    <glyph glyph-name="greater" unicode="&#x3e;" horiz-adv-x="573" 
d="M74 106v126l259 108l-259 106v126l425 -189v-88z" />
    <glyph glyph-name="question" unicode="?" horiz-adv-x="621" 
d="M231 215v33q0 45 18.5 77t45.5 56t54 45.5t45.5 45t18.5 54.5q0 41 -30.5 66t-74.5 25q-43 0 -76 -28.5t-33 -88.5h-147q0 85 37.5 140.5t97.5 82.5t127 27q68 0 126 -27t92.5 -76.5t34.5 -116.5q0 -50 -18.5 -85.5t-46 -61t-55 -46.5t-46.5 -42t-19 -47v-33h-151z
M307 -10q-36 0 -58.5 24t-22.5 57q0 34 22.5 57.5t58.5 23.5q35 0 58 -23.5t23 -57.5q0 -33 -23 -57t-58 -24z" />
    <glyph glyph-name="at" unicode="@" horiz-adv-x="1018" 
d="M523 -169q-122 0 -213 38.5t-151 104t-89.5 147.5t-29.5 168q0 87 30.5 170.5t90.5 150.5t149 106.5t206 39.5q93 0 176 -29t147.5 -85t101.5 -136.5t37 -183.5q0 -72 -21.5 -131t-65.5 -93t-111 -34q-50 0 -82.5 15.5t-50 35.5t-21.5 31h-9q-2 -4 -10.5 -17t-26 -28.5
t-44.5 -26t-66 -10.5q-64 0 -106.5 32.5t-63.5 83t-21 106.5q0 54 20.5 104t62 82t104.5 32q40 0 66 -11.5t40.5 -25.5t19.5 -22h5v51h127v-176q0 -38 5.5 -73t20 -57t42.5 -22q35 0 52 37t17 104q0 88 -28.5 151.5t-77.5 105t-111 61.5t-128 20q-87 0 -153.5 -30.5
t-111 -81.5t-66.5 -114.5t-22 -129.5t22 -128t66.5 -112t111.5 -79.5t158 -29.5q67 0 119.5 13.5t83 26.5l30.5 13l41 -102l-32 -15.5t-93 -31t-147 -15.5zM503 168q32 0 53 17t31.5 43.5t10.5 55.5q0 28 -10.5 54.5t-31.5 43.5t-53 17q-31 0 -52 -17t-32 -43t-11 -55
t11 -55.5t32 -43.5t52 -17z" />
    <glyph glyph-name="A" unicode="A" horiz-adv-x="769" 
d="M30 0l252 740h205l252 -740h-162l-47 145h-290l-48 -145h-162zM283 279h204l-102 309z" />
    <glyph glyph-name="B" unicode="B" horiz-adv-x="709" 
d="M68 0v740h342q72 0 121.5 -25t75.5 -66.5t26 -91.5q0 -49 -18 -81.5t-43.5 -52t-49.5 -26.5v-8q27 -6 60 -26t57 -57t24 -96q0 -52 -24.5 -100t-79 -79t-141.5 -31h-350zM384 611h-162v-172h162q52 0 76 25t24 61q0 35 -24 60.5t-76 25.5zM396 321h-174v-192h174
q59 0 85.5 28.5t26.5 68.5q0 39 -26.5 67t-85.5 28z" />
    <glyph glyph-name="C" unicode="C" horiz-adv-x="780" 
d="M407 -10q-92 0 -160.5 32.5t-114.5 87t-69 122.5t-23 139q0 70 23 138t69 122.5t114.5 86.5t160.5 32q77 0 131.5 -19.5t91 -50t59 -65t33.5 -65t14.5 -50l3.5 -19.5h-153l-3.5 13.5t-13.5 33t-29.5 38.5t-52 32.5t-80.5 13.5q-69 0 -115.5 -35.5t-70 -90.5t-23.5 -115
t23.5 -115.5t70 -91t115.5 -35.5q48 0 80.5 13t52 32.5t29.5 39t13.5 32.5l3.5 13h153l-3.5 -19.5t-14.5 -50t-33.5 -65t-59 -65t-91 -50t-131.5 -19.5z" />
    <glyph glyph-name="D" unicode="D" horiz-adv-x="751" 
d="M68 0v740h280q90 0 158.5 -31.5t113.5 -84.5t68 -119t23 -135t-23 -135t-68 -119t-113.5 -84.5t-158.5 -31.5h-280zM341 605h-119v-468h119q73 0 120.5 34t71 88t23.5 112t-23.5 111.5t-71 88t-120.5 34.5z" />
    <glyph glyph-name="E" unicode="E" horiz-adv-x="642" 
d="M68 0v740h510v-134h-356v-166h310v-129h-310v-177h361v-134h-515z" />
    <glyph glyph-name="F" unicode="F" horiz-adv-x="644" 
d="M68 0v740h517v-134h-363v-194h317v-129h-317v-283h-154z" />
    <glyph glyph-name="G" unicode="G" horiz-adv-x="790" 
d="M412 -10q-93 0 -163 32t-116.5 86.5t-69.5 122t-23 138.5t23.5 139t70 122.5t117.5 87t166 32.5q74 0 127.5 -18.5t89.5 -48t57.5 -62.5t33 -62.5t15 -48l3.5 -18.5h-153l-6 18t-24 42.5t-52.5 43t-90.5 18.5q-73 0 -121.5 -35.5t-73 -91t-24.5 -115.5q0 -62 25 -118.5
t73.5 -92t121.5 -35.5q80 0 126.5 41t55.5 111h-192v121h344v-57q0 -116 -44.5 -194.5t-121 -118t-174.5 -39.5z" />
    <glyph glyph-name="H" unicode="H" horiz-adv-x="732" 
d="M68 0v740h154v-295h288v295h154v-740h-154v311h-288v-311h-154z" />
    <glyph glyph-name="I" unicode="I" horiz-adv-x="290" 
d="M68 0v740h154v-740h-154z" />
    <glyph glyph-name="J" unicode="J" horiz-adv-x="491" 
d="M147 -10q-43 0 -75 4.5l-32 4.5v129l25 -2.5t54 -2.5q69 0 110 33t41 118v466h153v-469q0 -79 -28 -142.5t-88.5 -101t-159.5 -37.5z" />
    <glyph glyph-name="K" unicode="K" horiz-adv-x="716" 
d="M68 0v740h154v-313l265 313h190l-309 -355l320 -385h-197l-269 329v-329h-154z" />
    <glyph glyph-name="L" unicode="L" horiz-adv-x="643" 
d="M68 0v740h154v-606h362v-134h-516z" />
    <glyph glyph-name="M" unicode="M" horiz-adv-x="888" 
d="M68 0v740h208l169 -381l174 381h201v-740h-152v504l-152 -331h-143l-153 333v-506h-152z" />
    <glyph glyph-name="N" unicode="N" horiz-adv-x="749" 
d="M68 0v740h141l319 -472v472h153v-740h-143l-317 459v-459h-153z" />
    <glyph glyph-name="O" unicode="O" horiz-adv-x="828" 
d="M414 -10q-92 0 -162 32.5t-117.5 87t-71 122.5t-23.5 139t23.5 138.5t71 121.5t117.5 86.5t162 32.5q93 0 163 -32.5t117 -86.5t70.5 -121.5t23.5 -138.5t-23.5 -139t-70.5 -122.5t-117 -87t-163 -32.5zM414 129q70 0 118 35t72 90.5t24 116.5t-24 116t-72 90t-118 35
t-117.5 -35t-71.5 -90t-24 -116t24 -116.5t71.5 -90.5t117.5 -35z" />
    <glyph glyph-name="P" unicode="P" horiz-adv-x="679" 
d="M68 0v740h305q91 0 151.5 -36t91 -92.5t30.5 -117.5q0 -63 -30.5 -119.5t-91 -92.5t-151.5 -36h-151v-246h-154zM373 605h-151v-225h151q39 0 65 16.5t39.5 42t13.5 54.5q0 28 -13.5 54t-39.5 42t-65 16z" />
    <glyph glyph-name="Q" unicode="Q" horiz-adv-x="826" 
d="M414 -10q-92 0 -162 32.5t-117.5 87t-71 122.5t-23.5 139t23.5 138.5t71 121.5t117.5 86.5t162 32.5q93 0 163 -32.5t117 -86.5t70.5 -121.5t23.5 -138.5q0 -69 -22 -136t-67 -120l103 -115h-164l-33 37q-40 -22 -87.5 -34.5t-103.5 -12.5zM414 129q49 0 89 19l-113 124
l96 80l107 -119q35 61 35 138q0 61 -24 116t-72 90t-118 35t-117.5 -35t-71.5 -90t-24 -116t24 -116.5t71.5 -90.5t117.5 -35z" />
    <glyph glyph-name="R" unicode="R" horiz-adv-x="712" 
d="M68 0v740h300q82 0 140.5 -29t90 -80t31.5 -118q0 -73 -37 -127.5t-105 -79.5l161 -306h-171l-147 285h-109v-285h-154zM366 607h-144v-196h144q51 0 80 28t29 69q0 42 -29 70.5t-80 28.5z" />
    <glyph glyph-name="S" unicode="S" horiz-adv-x="666" 
d="M344 -10q-72 0 -122.5 17.5t-84 45t-53.5 58t-29.5 58t-12 45l-2.5 17.5h156l4.5 -17t19.5 -39.5t46 -39t84 -16.5q65 0 96 27.5t31 65.5q0 34 -23.5 54t-72.5 30l-99 19q-60 11 -111.5 35t-83.5 66.5t-32 109.5q0 68 34 118.5t95.5 78t144.5 27.5q78 0 129.5 -22.5
t82 -55t45 -65.5t19 -55l4.5 -22h-152l-3.5 14t-16.5 32t-39.5 32t-72.5 14q-63 0 -91 -27.5t-28 -59.5q0 -33 28 -51t73 -27l105 -21q60 -11 110 -37t79.5 -69.5t29.5 -107.5q0 -66 -33 -118.5t-97 -83t-157 -30.5z" />
    <glyph glyph-name="T" unicode="T" horiz-adv-x="686" 
d="M266 0v606h-227v134h608v-134h-227v-606h-154z" />
    <glyph glyph-name="U" unicode="U" horiz-adv-x="738" 
d="M369 -10q-81 0 -149.5 31t-110 96t-41.5 169v454h154v-454q0 -64 36 -107.5t111 -43.5t110.5 43.5t35.5 107.5v454h155v-454q0 -104 -41.5 -169t-110.5 -96t-149 -31z" />
    <glyph glyph-name="V" unicode="V" horiz-adv-x="745" 
d="M270 0l-252 740h162l193 -589l192 589h162l-252 -740h-205z" />
    <glyph glyph-name="W" unicode="W" horiz-adv-x="1057" 
d="M212 0l-184 740h154l131 -537l137 537h157l137 -536l130 536h155l-185 -740h-196l-120 471l-119 -471h-197z" />
    <glyph glyph-name="X" unicode="X" horiz-adv-x="769" 
d="M49 0l228 370l-227 370h183l151 -256l152 256h184l-231 -370l231 -370h-184l-152 257l-151 -257h-184z" />
    <glyph glyph-name="Y" unicode="Y" horiz-adv-x="718" 
d="M282 0v253l-260 487h169l168 -329l168 329h169l-260 -487v-253h-154z" />
    <glyph glyph-name="Z" unicode="Z" horiz-adv-x="667" 
d="M49 0v110l367 495h-367v135h567v-109l-368 -496h368v-135h-567z" />
    <glyph glyph-name="bracketleft" unicode="[" horiz-adv-x="504" 
d="M68 -213v1065h344v-130h-189v-804h189v-131h-344z" />
    <glyph glyph-name="backslash" unicode="\" horiz-adv-x="531" 
d="M497 -181h-137l-348 1010h136z" />
    <glyph glyph-name="bracketright" unicode="]" horiz-adv-x="504" 
d="M436 852v-1065h-344v131h189v804h-189v130h344z" />
    <glyph glyph-name="asciicircum" unicode="^" horiz-adv-x="612" 
d="M116 560l130 180h120l130 -180h-119l-71 104l-71 -104h-119z" />
    <glyph glyph-name="underscore" unicode="_" horiz-adv-x="736" 
d="M116 -102v102h503v-102h-503z" />
    <glyph glyph-name="grave" unicode="`" horiz-adv-x="288" 
d="M138 603l-109 181h141l80 -180z" />
    <glyph glyph-name="a" unicode="a" horiz-adv-x="658" 
d="M284 540q51 0 84 -16.5t50.5 -35.5t21.5 -26h8v68h152v-530h-152v68h-8q-4 -7 -21.5 -26t-50.5 -35.5t-84 -16.5q-59 0 -102.5 23.5t-72.5 63t-43.5 88.5t-14.5 100t14.5 100t43.5 88.5t72.5 63t102.5 23.5zM328 417q-41 0 -68.5 -22.5t-41 -57.5t-13.5 -72t13.5 -72
t41 -57.5t68.5 -22.5t68.5 22.5t41 57.5t13.5 72t-13.5 72t-41 57.5t-68.5 22.5z" />
    <glyph glyph-name="b" unicode="b" horiz-adv-x="668" 
d="M384 -10q-51 0 -84 16.5t-50.5 35.5t-22.5 26h-7v-68h-152v760h152v-298h7q5 7 22.5 26t50.5 35.5t84 16.5q59 0 102.5 -23.5t72.5 -63t43.5 -88.5t14.5 -100t-14.5 -100t-43.5 -88.5t-72.5 -63t-102.5 -23.5zM340 113q41 0 68.5 22.5t41 57.5t13.5 72t-13.5 72t-41 57.5
t-68.5 22.5t-68.5 -22.5t-41 -57.5t-13.5 -72t13.5 -72t41 -57.5t68.5 -22.5z" />
    <glyph glyph-name="c" unicode="c" horiz-adv-x="629" 
d="M327 -10q-70 0 -122 23.5t-86 62.5t-51 88.5t-17 100.5t17 100t51 88.5t86 63t122 23.5q71 0 117 -20.5t73.5 -51t40.5 -61t16.5 -51l3.5 -20.5h-142l-3.5 12.5t-14 29t-31.5 29t-56 12.5q-43 0 -71.5 -21.5t-42.5 -56.5t-14 -76t14 -76t42.5 -56.5t71.5 -21.5
q35 0 56 12.5t31.5 29t14 29l3.5 12.5h142l-3.5 -20.5t-16.5 -51t-40.5 -61t-73.5 -51t-117 -20.5z" />
    <glyph glyph-name="d" unicode="d" horiz-adv-x="668" 
d="M284 -10q-59 0 -102.5 23.5t-72.5 63t-43.5 88.5t-14.5 100t14.5 100t43.5 88.5t72.5 63t102.5 23.5q51 0 84 -16.5t50.5 -35.5t21.5 -26h8v298h152v-760h-152v68h-8q-4 -7 -21.5 -26t-50.5 -35.5t-84 -16.5zM328 113q41 0 68.5 22.5t41 57.5t13.5 72t-13.5 72t-41 57.5
t-68.5 22.5t-68.5 -22.5t-41 -57.5t-13.5 -72t13.5 -72t41 -57.5t68.5 -22.5z" />
    <glyph glyph-name="e" unicode="e" horiz-adv-x="618" 
d="M322 -10q-70 0 -121 23.5t-84 63t-49.5 88.5t-16.5 101q0 50 15.5 98.5t48 88.5t83 63.5t119.5 23.5q73 0 129.5 -32t88.5 -94.5t32 -151.5v-37h-363q3 -48 33.5 -83t84.5 -35q31 0 50.5 9.5t30.5 22t15 22.5l4 10h140l-4.5 -18.5t-18.5 -45.5t-40.5 -54t-69.5 -45
t-107 -18zM204 317h217q-3 55 -33 82t-74 27t-75 -28.5t-35 -80.5z" />
    <glyph glyph-name="f" unicode="f" horiz-adv-x="409" 
d="M120 0v409h-84v121h84v42q0 29 8 63t28.5 65t57.5 50.5t95 19.5q32 0 52.5 -4.5l20.5 -4.5v-107l-12 2t-25 2q-41 0 -57 -24t-16 -62v-42h107v-121h-107v-409h-152z" />
    <glyph glyph-name="g" unicode="g" horiz-adv-x="659" 
d="M330 -212q-74 0 -121.5 18t-75.5 45.5t-41 54.5t-16.5 45.5l-3.5 18.5h148l3.5 -9.5t14.5 -22t32.5 -22t57.5 -9.5q62 0 91.5 35t29.5 92v56h-7q-10 -16 -30 -35t-51 -32t-75 -13q-59 0 -103 22.5t-73.5 60.5t-44 85t-14.5 97q0 49 14.5 96.5t44 85.5t73.5 60.5t103 22.5
q44 0 75 -13.5t51.5 -32t29.5 -35.5h7v71h152v-496q0 -66 -29 -122t-89 -90t-153 -34zM328 130q42 0 69.5 21t41.5 54.5t14 69.5q0 37 -14 70t-41.5 54t-69.5 21q-41 0 -68.5 -21t-41.5 -54t-14 -70q0 -36 14 -69.5t41.5 -54.5t68.5 -21z" />
    <glyph glyph-name="h" unicode="h" horiz-adv-x="608" 
d="M68 0v760h152v-306h5q9 16 26.5 36t47 35t75.5 15q62 0 101 -28.5t57 -73t18 -93.5v-345h-152v319q0 38 -20.5 67t-65.5 29q-34 0 -54 -16t-29 -41t-9 -53v-305h-152z" />
    <glyph glyph-name="i" unicode="i" horiz-adv-x="296" 
d="M148 602q-40 0 -65 25.5t-25 60.5q0 37 25 62.5t65 25.5q38 0 64 -25.5t26 -62.5q0 -35 -26 -60.5t-64 -25.5zM72 0v530h152v-530h-152z" />
    <glyph glyph-name="j" unicode="j" horiz-adv-x="301" 
d="M153 602q-39 0 -64.5 25.5t-25.5 60.5q0 37 25.5 62.5t64.5 25.5t64.5 -25.5t25.5 -62.5q0 -35 -25.5 -60.5t-64.5 -25.5zM31 -205q-32 0 -52.5 3.5l-20.5 3.5v116l11 -1.5t24 -1.5q50 0 67 22t17 65v528h152v-532q0 -29 -7 -64t-27 -67t-59.5 -52t-104.5 -20z" />
    <glyph glyph-name="k" unicode="k" horiz-adv-x="599" 
d="M68 0v760h152v-438l175 208h173l-208 -242l217 -288h-179l-178 238v-238h-152z" />
    <glyph glyph-name="l" unicode="l" horiz-adv-x="288" 
d="M68 0v760h152v-760h-152z" />
    <glyph glyph-name="m" unicode="m" horiz-adv-x="896" 
d="M58 0v530h152v-72h5q17 29 51 55.5t93 26.5q60 0 96.5 -28t53.5 -69h2q13 23 34.5 45.5t54 37t76.5 14.5q55 0 91 -25t53.5 -65.5t17.5 -86.5v-363h-152v325q0 39 -19.5 64.5t-58.5 25.5q-30 0 -48.5 -15t-27 -38.5t-8.5 -48.5v-313h-152v325q0 39 -19.5 64.5t-58.5 25.5
q-30 0 -48.5 -15t-27 -38.5t-8.5 -48.5v-313h-152z" />
    <glyph glyph-name="n" unicode="n" horiz-adv-x="598" 
d="M58 0v530h152v-76h5q9 16 26.5 36t47 35t75.5 15q62 0 101 -28.5t57 -73t18 -93.5v-345h-152v319q0 38 -20.5 67t-65.5 29q-34 0 -54 -16t-29 -41t-9 -53v-305h-152z" />
    <glyph glyph-name="o" unicode="o" horiz-adv-x="658" 
d="M329 -10q-89 0 -151 38.5t-94.5 101t-32.5 135.5t32.5 135.5t94.5 101t151 38.5t151 -38.5t94.5 -101t32.5 -135.5t-32.5 -135.5t-94.5 -101t-151 -38.5zM329 114q40 0 67.5 21t42.5 55.5t15 74.5q0 41 -15 75t-42.5 55t-67.5 21t-68 -21t-42.5 -55t-14.5 -75
q0 -40 14.5 -74.5t42.5 -55.5t68 -21z" />
    <glyph glyph-name="p" unicode="p" horiz-adv-x="668" 
d="M68 -195v725h152v-68h7q5 7 22.5 26t50.5 35.5t84 16.5q59 0 102.5 -23.5t72.5 -63t43.5 -88.5t14.5 -100t-14.5 -100t-43.5 -88.5t-72.5 -63t-102.5 -23.5q-51 0 -84 16.5t-50.5 35.5t-22.5 26h-7v-263h-152zM217 265q0 -37 13.5 -72t41 -57.5t68.5 -22.5t68.5 22.5
t41 57.5t13.5 72t-13.5 72t-41 57.5t-68.5 22.5t-68.5 -22.5t-41 -57.5t-13.5 -72z" />
    <glyph glyph-name="q" unicode="q" horiz-adv-x="668" 
d="M448 -195v263h-8q-4 -7 -21.5 -26t-50.5 -35.5t-84 -16.5q-59 0 -102.5 23.5t-72.5 63t-43.5 88.5t-14.5 100t14.5 100t43.5 88.5t72.5 63t102.5 23.5q51 0 84 -16.5t50.5 -35.5t21.5 -26h8v68h152v-725h-152zM328 113q41 0 68.5 22.5t41 57.5t13.5 72t-13.5 72t-41 57.5
t-68.5 22.5t-68.5 -22.5t-41 -57.5t-13.5 -72t13.5 -72t41 -57.5t68.5 -22.5z" />
    <glyph glyph-name="r" unicode="r" horiz-adv-x="429" 
d="M58 0v530h151v-77h5q9 21 25 41t44 33t72 13q22 0 35 -2.5l13 -2.5v-150l-14.5 3t-37.5 3q-71 0 -106 -38.5t-35 -125.5v-227h-152z" />
    <glyph glyph-name="s" unicode="s" horiz-adv-x="537" 
d="M281 -10q-66 0 -109 18t-68.5 44.5t-38 53t-16 44.5l-3.5 18h141l3 -10t13.5 -23t30.5 -23t54 -10q42 0 57.5 17t15.5 34q0 36 -59 48l-72 14q-46 9 -86.5 26.5t-65 49t-24.5 81.5q0 48 25 86t71.5 60t111.5 22q61 0 101.5 -16.5t64.5 -41t36 -49t15.5 -41l3.5 -16.5
h-136l-6 13.5t-24.5 27t-56.5 13.5q-39 0 -54 -15.5t-15 -32.5q0 -20 17.5 -30t45.5 -16l69 -14q76 -15 125 -52.5t49 -108.5q0 -48 -25 -87t-73 -61.5t-118 -22.5z" />
    <glyph glyph-name="t" unicode="t" horiz-adv-x="438" 
d="M305 -10q-62 0 -99 18.5t-56 47t-25 60.5t-6 59v234h-90v121h90v131h152v-131h113v-121h-113v-230q0 -33 17.5 -51t58.5 -18q18 0 33 3l15 3v-117l-27 -4.5t-63 -4.5z" />
    <glyph glyph-name="u" unicode="u" horiz-adv-x="588" 
d="M223 -10q-56 0 -92.5 24t-54.5 64.5t-18 91.5v360h151v-330q0 -38 20 -61.5t59 -23.5q33 0 52.5 16t28.5 41t9 53v305h152v-530h-152v75h-6q-17 -31 -52.5 -58t-96.5 -27z" />
    <glyph glyph-name="v" unicode="v" horiz-adv-x="594" 
d="M217 0l-194 530h152l124 -359l119 359h153l-195 -530h-159z" />
    <glyph glyph-name="w" unicode="w" horiz-adv-x="884" 
d="M187 0l-164 530h152l95 -344l103 344h138l103 -344l95 344h152l-164 -530h-161l-94 310l-94 -310h-161z" />
    <glyph glyph-name="x" unicode="x" horiz-adv-x="608" 
d="M40 0l161 264l-161 266h158l105 -175l107 175h158l-167 -266l166 -264h-157l-107 175l-104 -175h-159z" />
    <glyph glyph-name="y" unicode="y" horiz-adv-x="597" 
d="M101 -195q-27 0 -43 2l-16 2v122l13.5 -1t33.5 -1q48 0 79 13.5t54 52.5l-196 535h152l123 -359l120 359h153l-190 -509q-26 -73 -62.5 -121t-89.5 -71.5t-131 -23.5z" />
    <glyph glyph-name="z" unicode="z" horiz-adv-x="521" 
d="M44 0v104l266 307h-256v119h438v-104l-266 -307h266v-119h-448z" />
    <glyph glyph-name="braceleft" unicode="{" horiz-adv-x="480" 
d="M332 -213q-97 0 -148.5 51.5t-51.5 148.5v206q0 62 -62 62h-44v129h44q62 0 62 63v206q0 96 51.5 147.5t148.5 51.5h108v-130h-90q-63 0 -63 -62v-213q0 -52 -16 -80.5t-64 -43.5v-6q48 -16 64 -45t16 -80v-212q0 -62 63 -62h90v-131h-108z" />
    <glyph glyph-name="bar" unicode="|" horiz-adv-x="434" 
d="M154 -244v1200h126v-1200h-126z" />
    <glyph glyph-name="braceright" unicode="}" horiz-adv-x="480" 
d="M148 852q97 0 148.5 -51.5t51.5 -147.5v-206q0 -63 62 -63h44v-129h-44q-62 0 -62 -62v-206q0 -97 -51.5 -148.5t-148.5 -51.5h-108v131h90q63 0 63 62v212q0 53 16 81t64 44v6q-48 16 -64 45t-16 79v213q0 62 -63 62h-90v130h108z" />
    <glyph glyph-name="asciitilde" unicode="~" horiz-adv-x="490" 
d="M320 314q-28 0 -48.5 9.5t-36 22t-29.5 21.5t-28 9q-18 0 -24.5 -15t-6.5 -41h-83q0 33 8.5 66.5t31.5 56.5t66 23q29 0 49.5 -9.5t36.5 -21.5t30 -21.5t28 -9.5q29 0 29 56h83q0 -33 -8.5 -66.5t-31 -56.5t-66.5 -23z" />
    <glyph glyph-name="uni00A0" unicode="&#xa0;" horiz-adv-x="230" 
 />
    <glyph glyph-name="exclamdown" unicode="&#xa1;" horiz-adv-x="341" 
d="M170 530q35 0 58 -24t23 -57q0 -34 -23 -58t-58 -24q-36 0 -58.5 24t-22.5 58q0 33 22.5 57t58.5 24zM88 -220l18 521h125l21 -521h-164z" />
    <glyph glyph-name="cent" unicode="&#xa2;" horiz-adv-x="629" 
d="M283 -95v88q-79 10 -130 51t-76.5 99.5t-25.5 121.5t25.5 121.5t76.5 99.5t130 51v88h80v-87q61 -6 100.5 -28t62.5 -51t34.5 -57.5t14.5 -47l3 -18.5h-142l-5 16.5t-20.5 35.5t-47.5 27v-300q32 8 47.5 27t20.5 35.5l5 16.5h142l-3 -18.5t-14.5 -47t-34.5 -57.5
t-62.5 -51t-100.5 -28v-87h-80zM203 265q0 -49 20 -89t60 -56v290q-40 -16 -60 -56t-20 -89z" />
    <glyph glyph-name="sterling" unicode="&#xa3;" horiz-adv-x="670" 
d="M78 0v128q66 7 104.5 40.5t38.5 82.5q0 17 -4.5 31.5t-12.5 29.5h-139v67h93q-19 27 -33.5 60.5t-14.5 80.5q0 70 37 122t104.5 80t158.5 28q42 0 77.5 -4.5t56.5 -9l21 -4.5v-133l-19.5 4.5t-51 9t-68.5 4.5q-75 0 -121 -27t-46 -81q0 -37 18.5 -67.5t37.5 -62.5h191
v-67h-161q6 -24 6 -48q0 -32 -11 -56.5t-26.5 -41.5t-28.5 -26.5t-18 -11.5h328v-128h-517z" />
    <glyph glyph-name="currency" unicode="&#xa4;" horiz-adv-x="667" 
d="M116 88l-66 66l88 89q-18 27 -28.5 60.5t-10.5 69.5q0 71 39 129l-88 88l66 65l88 -87q58 41 131 41q72 0 130 -40l87 86l65 -65l-86 -87q39 -58 39 -130q0 -37 -10.5 -70t-29.5 -61l87 -88l-65 -66l-88 88q-59 -38 -129 -38q-36 0 -69.5 10t-61.5 29zM335 243
q35 0 64.5 17.5t47 47t17.5 65.5q0 35 -17.5 64.5t-47 47t-64.5 17.5q-36 0 -65.5 -17.5t-47 -47t-17.5 -64.5q0 -36 17.5 -65.5t47 -47t65.5 -17.5z" />
    <glyph glyph-name="yen" unicode="&#xa5;" horiz-adv-x="718" 
d="M93 192v82h178l-39 74h-140v82h96l-166 310h169l168 -329l168 329h169l-166 -310h95v-82h-138l-40 -74h178v-82h-189v-192h-154v192h-189z" />
    <glyph glyph-name="brokenbar" unicode="&#xa6;" horiz-adv-x="434" 
d="M154 418v538h126v-538h-126zM154 -244v496h126v-496h-126z" />
    <glyph glyph-name="section" unicode="&#xa7;" horiz-adv-x="710" 
d="M368 -227q-74 0 -126.5 17.5t-86.5 45t-53.5 58.5t-29 58.5t-12 45l-2.5 17.5h156l4 -17.5t19 -40.5t47.5 -40.5t89.5 -17.5q65 0 96 28t31 65q0 38 -26 57t-71 28l-130 24q-61 11 -114.5 34.5t-86.5 64t-33 101.5q0 60 35 100t98 52v7q-48 30 -72.5 68.5t-24.5 92.5
q0 64 34 114t96 78.5t147 28.5q66 0 113.5 -16t78.5 -42t49.5 -54.5t28 -54t12 -42l2.5 -16.5h-152l-4 15t-17 34.5t-40.5 34.5t-74.5 15q-44 0 -70.5 -13.5t-39 -34.5t-12.5 -43q0 -37 30.5 -55.5t78.5 -28.5l105 -19q61 -12 114.5 -35t86.5 -63.5t33 -101.5
q0 -60 -35 -100t-98 -53v-6q51 -15 82.5 -57t31.5 -105q0 -65 -34.5 -116.5t-98.5 -81.5t-155 -30zM427 216q16 0 39 7t40.5 25t17.5 49q0 37 -31 57.5t-80 29.5l-126 23q-16 0 -38.5 -7t-40 -25t-17.5 -49q0 -38 31 -58t80 -29z" />
    <glyph glyph-name="dieresis" unicode="&#xa8;" horiz-adv-x="449" 
d="M354 591q-37 0 -61.5 24.5t-24.5 58.5q0 35 24.5 59t61.5 24t61.5 -24t24.5 -59q0 -34 -24.5 -58.5t-61.5 -24.5zM128 591q-38 0 -62 24.5t-24 58.5q0 35 24 59t62 24q37 0 61.5 -24t24.5 -59q0 -34 -24.5 -58.5t-61.5 -24.5z" />
    <glyph glyph-name="copyright" unicode="&#xa9;" horiz-adv-x="803" 
d="M402 -10q-90 0 -158 30.5t-113.5 82t-68 116t-22.5 131.5q0 68 22.5 132t68 115.5t113.5 82t158 30.5t157.5 -30.5t113 -82t68 -115.5t22.5 -132q0 -67 -22.5 -131.5t-68 -116t-113 -82t-157.5 -30.5zM402 81q67 0 117 22.5t83.5 61.5t50.5 87t17 98q0 51 -17 98.5
t-50.5 86.5t-83.5 61.5t-117 22.5t-117.5 -22.5t-84 -61.5t-50.5 -86.5t-17 -98.5q0 -50 17 -98t50.5 -87t84 -61.5t117.5 -22.5zM413 150q-69 0 -114 29.5t-67.5 75t-22.5 95.5t22.5 95.5t67.5 75t114 29.5q51 0 84 -15t53 -37.5t29 -44.5t12 -37l3 -15h-107l-5 14.5
t-21 28.5t-49 14q-46 0 -69 -32.5t-23 -75.5t23 -75.5t69 -32.5q33 0 49 14.5t21 28.5l5 14h107l-3 -15t-12 -37t-29 -44.5t-53 -37.5t-84 -15z" />
    <glyph glyph-name="ordfeminine" unicode="&#xaa;" horiz-adv-x="429" 
d="M252 449q-9 -13 -31.5 -27.5t-60.5 -14.5q-47 0 -78 25t-31 70q0 90 136 105l70 8v8q0 19 -11 31t-32 12q-20 0 -29.5 -8.5t-12 -17l-2.5 -8.5h-107l1.5 12t9 29.5t24 35t45.5 29.5t75 12q56 0 89.5 -19t48.5 -46.5t15 -54.5v-217h-114v36h-5zM162 511q0 -14 11.5 -22
t28.5 -8q23 0 39 15.5t16 42.5v10l-56 -7q-39 -5 -39 -31z" />
    <glyph glyph-name="guillemotleft" unicode="&#xab;" horiz-adv-x="739" 
d="M546 90l-216 219l216 220h159l-213 -221l213 -218h-159zM253 90l-216 219l216 220h159l-212 -221l212 -218h-159z" />
    <glyph glyph-name="logicalnot" unicode="&#xac;" horiz-adv-x="655" 
d="M80 410v120h495v-273h-119v153h-376z" />
    <glyph glyph-name="uni00AD" unicode="&#xad;" horiz-adv-x="600" 
d="M116 252v120h375v-120h-375z" />
    <glyph glyph-name="registered" unicode="&#xae;" horiz-adv-x="432" 
d="M216 381q-61 0 -102 26.5t-61.5 69t-20.5 88.5t20.5 88.5t61.5 69.5t102 27t102 -27t61.5 -69.5t20.5 -88.5t-20.5 -88.5t-61.5 -69t-102 -26.5zM216 421q47 0 78.5 21t47.5 54t16 69q0 37 -16 70t-47.5 54t-78.5 21q-48 0 -79.5 -21t-47 -54t-15.5 -70q0 -36 15.5 -69
t47 -54t79.5 -21zM139 470v193h85q35 0 56.5 -16.5t21.5 -48.5q0 -41 -35 -58l38 -70h-59l-33 62h-20v-62h-54zM223 617h-30v-42h30q24 0 24 21t-24 21z" />
    <glyph glyph-name="macron" unicode="&#xaf;" horiz-adv-x="376" 
d="M25 648v90h326v-90h-326z" />
    <glyph glyph-name="degree" unicode="&#xb0;" horiz-adv-x="471" 
d="M235 381q-51 0 -92.5 24.5t-66.5 66.5t-25 93t25 93t66.5 67t92.5 25t93 -25t67 -67t25 -93t-25 -93t-67 -66.5t-93 -24.5zM235 485q33 0 56.5 23.5t23.5 56.5q0 34 -23.5 57.5t-56.5 23.5t-56.5 -23.5t-23.5 -57.5q0 -33 23.5 -56.5t56.5 -23.5z" />
    <glyph glyph-name="plusminus" unicode="&#xb1;" horiz-adv-x="669" 
d="M274 156v150h-150v120h150v150h120v-150h150v-120h-150v-150h-120zM116 0v84h436v-84h-436z" />
    <glyph glyph-name="uni00B2" unicode="&#xb2;" horiz-adv-x="457" 
d="M57 408v83l95 71q52 40 87 67.5t35 60.5q0 22 -15.5 34t-36.5 12q-20 0 -36.5 -13.5t-16.5 -43.5h-114q0 55 24.5 90t63.5 52t83 17q48 0 86.5 -18t60.5 -49t22 -71q0 -56 -45 -100t-126 -91h174v-101h-341z" />
    <glyph glyph-name="uni00B3" unicode="&#xb3;" horiz-adv-x="472" 
d="M234 399q-55 0 -89.5 17.5t-53 42.5t-25 48t-6.5 35h113q0 -7 5 -18t18 -20t36 -9q29 0 42.5 13.5t13.5 30.5t-14 27.5t-36 10.5h-58v85h56q24 0 36.5 11.5t12.5 27.5q0 17 -13.5 28.5t-37.5 11.5q-32 0 -42.5 -17.5t-10.5 -29.5h-110q0 12 6.5 35.5t24 48.5t50 42
t85.5 17q44 0 82 -14t61 -41.5t23 -65.5q0 -30 -12.5 -49.5t-29.5 -30.5t-29 -14v-5q31 -8 54 -31t23 -61q0 -40 -23 -68t-63 -43t-89 -15z" />
    <glyph glyph-name="acute" unicode="&#xb4;" horiz-adv-x="288" 
d="M140 603l-112 1l80 180h141z" />
    <glyph glyph-name="uni00B5" unicode="&#xb5;" horiz-adv-x="640" 
d="M43 -197v727h152v-330q0 -38 20 -61.5t59 -23.5q33 0 52.5 16t28.5 41t9 53v305h152v-351q0 -30 14.5 -49t53.5 -19q14 0 23 2l9 2v-118l-21 -3.5t-49 -3.5q-68 0 -107.5 25t-55.5 60h-8l-5 -12.5t-18 -29.5t-36.5 -30t-60.5 -13q-31 0 -52 8.5t-31.5 17l-10.5 8.5l-4 -4
q22 -40 30 -77.5t8 -88.5v-51h-152z" />
    <glyph glyph-name="paragraph" unicode="&#xb6;" horiz-adv-x="567" 
d="M364 0h-93v311h-64q-68 0 -113 26.5t-67.5 70t-22.5 95.5t23 97t68.5 72.5t111.5 27.5h316v-700h-93v567h-66v-567z" />
    <glyph glyph-name="periodcentered" unicode="&#xb7;" horiz-adv-x="305" 
d="M164 287q-37 0 -61 25t-24 60q0 36 24 60.5t61 24.5t61.5 -24.5t24.5 -60.5q0 -35 -24.5 -60t-61.5 -25z" />
    <glyph glyph-name="cedilla" unicode="&#xb8;" horiz-adv-x="256" 
d="M73 -254q-28 0 -54.5 3.5l-26.5 3.5v81l12 -1.5t29 -3t32 -1.5q44 0 58.5 13.5t14.5 27.5t-11 23.5t-31 9.5q-22 0 -38.5 -9.5l-16.5 -9.5l-53 54l65 95h96l-45 -63q10 2 22 2q49 0 77 -30t28 -73q0 -30 -16.5 -58.5t-51.5 -46t-90 -17.5z" />
    <glyph glyph-name="uni00B9" unicode="&#xb9;" horiz-adv-x="336" 
d="M244 836v-428h-113v284h-89v68l13 4q42 13 68 27t50 39l5 6h66z" />
    <glyph glyph-name="ordmasculine" unicode="&#xba;" horiz-adv-x="457" 
d="M228 406q-56 0 -95.5 24t-60.5 63.5t-21 86.5q0 46 21 85t60.5 62.5t95.5 23.5t96 -23.5t61 -63t21 -84.5q0 -47 -21 -86.5t-61 -63.5t-96 -24zM228 500q30 0 47 23t17 57q0 32 -17 54.5t-47 22.5q-29 0 -46 -22.5t-17 -54.5q0 -33 17 -56.5t46 -23.5z" />
    <glyph glyph-name="guillemotright" unicode="&#xbb;" horiz-adv-x="739" 
d="M330 90l212 218l-212 221h158l217 -220l-217 -219h-158zM37 90l213 218l-213 221h159l216 -220l-216 -219h-159z" />
    <glyph glyph-name="onequarter" unicode="&#xbc;" horiz-adv-x="807" 
d="M180 704v-349h-100v228h-70v62l10 2q33 9 55.5 21.5t42.5 32.5l3 3h59zM149 0l421 700h112l-421 -700h-112zM717 1v68h-165v69l137 213h130v-205h49v-77h-49v-68h-102zM647 146h70v109z" />
    <glyph glyph-name="onehalf" unicode="&#xbd;" horiz-adv-x="802" 
d="M180 704v-349h-100v228h-70v62l10 2q33 9 55.5 21.5t42.5 32.5l3 3h59zM149 0l421 700h112l-421 -700h-112zM580 1v69l42 31q68 50 102 76.5t34 55.5q0 19 -12.5 28t-27.5 9q-17 0 -30 -11t-13 -36h-97q0 46 20.5 75.5t53 43.5t69.5 14q59 0 99.5 -32t40.5 -85
q0 -46 -34 -82.5t-101 -72.5h137v-83h-283z" />
    <glyph glyph-name="threequarters" unicode="&#xbe;" horiz-adv-x="826" 
d="M175 350q-46 0 -74 14t-42.5 34t-19.5 39t-5 29h93q0 -9 10 -23t37 -14q23 0 34 10.5t11 24.5q0 12 -9.5 22t-32.5 10h-40v70h40q20 0 30.5 10t10.5 23t-11 23t-32 10q-25 0 -34.5 -13.5t-9.5 -23.5h-90q0 11 5.5 29.5t19.5 38.5t40.5 33.5t68.5 13.5q37 0 68.5 -12
t50.5 -34.5t19 -53.5q0 -34 -20 -54t-37 -23v-4q20 -6 41 -22t21 -52q0 -47 -40.5 -76t-102.5 -29zM228 0l420 700h113l-422 -700h-111zM795 1v68h-164v69l136 213h131v-205h48v-77h-48v-68h-103zM726 146h69v109z" />
    <glyph glyph-name="questiondown" unicode="&#xbf;" horiz-adv-x="621" 
d="M313 539q35 0 58 -24.5t23 -57.5q0 -34 -23 -57.5t-58 -23.5t-58 23.5t-23 57.5q0 33 23 57.5t58 24.5zM306 -222q-69 0 -126.5 27t-92.5 76.5t-35 116.5q0 50 19 85.5t46.5 61t55 46.5t46 42t18.5 47v33h152v-33q0 -45 -18.5 -77t-45.5 -56t-54 -45.5t-45.5 -45
t-18.5 -54.5q0 -41 30.5 -66t74.5 -25q42 0 75.5 28.5t33.5 88.5h146q0 -85 -37.5 -140.5t-97 -82.5t-126.5 -27z" />
    <glyph glyph-name="Agrave" unicode="&#xc0;" horiz-adv-x="769" 
d="M331 813l-109 181h141l81 -180zM30 0l252 740h205l252 -740h-162l-48 145h-289l-48 -145h-162zM282 279h205l-102 309z" />
    <glyph glyph-name="Aacute" unicode="&#xc1;" horiz-adv-x="769" 
d="M442 813l-113 1l81 180h141zM30 0l252 740h205l252 -740h-162l-48 145h-289l-48 -145h-162zM282 279h205l-102 309z" />
    <glyph glyph-name="Acircumflex" unicode="&#xc2;" horiz-adv-x="769" 
d="M196 806l129 154h121l129 -154h-119l-71 85l-70 -85h-119zM30 0l252 740h205l252 -740h-162l-48 145h-289l-48 -145h-162zM282 279h205l-102 309z" />
    <glyph glyph-name="Atilde" unicode="&#xc3;" horiz-adv-x="769" 
d="M459 824q-27 0 -46.5 9.5t-34.5 21.5t-27.5 21.5t-26.5 9.5q-16 0 -22 -15t-6 -41h-81q0 33 7.5 67t29.5 57t63 23q28 0 47.5 -9.5t34.5 -21.5t27.5 -21t25.5 -9q28 0 28 55h81q0 -33 -8 -67t-29.5 -57t-62.5 -23zM30 0l252 740h205l252 -740h-162l-48 145h-289l-48 -145
h-162zM282 279h205l-102 309z" />
    <glyph glyph-name="Adieresis" unicode="&#xc4;" horiz-adv-x="769" 
d="M498 801q-38 0 -62 24.5t-24 58.5q0 35 24 59t62 24q37 0 61.5 -24t24.5 -59q0 -34 -24.5 -58.5t-61.5 -24.5zM271 801q-38 0 -62 24.5t-24 58.5q0 35 24 59t62 24q37 0 61.5 -24t24.5 -59q0 -34 -24.5 -58.5t-61.5 -24.5zM30 0l252 740h205l252 -740h-162l-48 145h-289
l-48 -145h-162zM282 279h205l-102 309z" />
    <glyph glyph-name="Aring" unicode="&#xc5;" horiz-adv-x="769" 
d="M385 798q-38 0 -69 18t-49 49t-18 68q0 38 18 68.5t49 49t69 18.5q37 0 68 -18.5t49.5 -49t18.5 -68.5q0 -37 -18.5 -68t-49.5 -49t-68 -18zM385 879q22 0 38 15.5t16 38.5t-16 38.5t-38 15.5q-23 0 -39 -15.5t-16 -38.5t16 -38.5t39 -15.5zM30 0l252 740h205l252 -740
h-162l-48 145h-289l-48 -145h-162zM282 279h205l-102 309z" />
    <glyph glyph-name="AE" unicode="&#xc6;" horiz-adv-x="1042" 
d="M30 0l336 740h612v-134h-356v-166h310v-129h-310v-177h361v-134h-515v145h-210l-66 -145h-162zM318 277h150v328z" />
    <glyph glyph-name="Ccedilla" unicode="&#xc7;" horiz-adv-x="780" 
d="M387 -261q-28 0 -55 3.5l-27 3.5v78l12.5 -1.5t29.5 -3t32 -1.5q43 0 58 14t15 28t-11 23t-31 9q-23 0 -39 -9.5l-16 -9.5l-53 54l45 67q-77 11 -134.5 46.5t-95.5 87.5t-57.5 115t-19.5 128q0 70 23 138t69 122.5t114.5 86.5t160.5 32q77 0 131.5 -19.5t91 -50t59 -65
t33.5 -65t14.5 -50l3.5 -19.5h-153l-3.5 13.5t-13.5 33t-29.5 38.5t-52 32.5t-80.5 13.5q-69 0 -115.5 -35.5t-70 -90.5t-23.5 -115t23.5 -115.5t70 -91t115.5 -35.5q48 0 80.5 13t52 32.5t29.5 39t13.5 32.5l3.5 13h153l-3.5 -18t-13.5 -47t-30 -62t-53 -63.5t-82 -51.5
t-118 -26l-27 -37q13 2 27 2q48 0 76.5 -27t28.5 -70q0 -31 -17 -58.5t-52 -44.5t-89 -17z" />
    <glyph glyph-name="Egrave" unicode="&#xc8;" horiz-adv-x="646" 
d="M277 813l-109 181h141l81 -180zM72 0v740h510v-134h-356v-166h310v-129h-310v-177h361v-134h-515z" />
    <glyph glyph-name="Eacute" unicode="&#xc9;" horiz-adv-x="646" 
d="M388 813l-113 1l81 180h141zM72 0v740h510v-134h-356v-166h310v-129h-310v-177h361v-134h-515z" />
    <glyph glyph-name="Ecircumflex" unicode="&#xca;" horiz-adv-x="646" 
d="M142 806l129 154h121l129 -154h-119l-71 85l-70 -85h-119zM72 0v740h510v-134h-356v-166h310v-129h-310v-177h361v-134h-515z" />
    <glyph glyph-name="Edieresis" unicode="&#xcb;" horiz-adv-x="646" 
d="M444 801q-38 0 -62 24.5t-24 58.5q0 35 24 59t62 24q37 0 61.5 -24t24.5 -59q0 -34 -24.5 -58.5t-61.5 -24.5zM217 801q-38 0 -62 24.5t-24 58.5q0 35 24 59t62 24q37 0 61.5 -24t24.5 -59q0 -34 -24.5 -58.5t-61.5 -24.5zM72 0v740h510v-134h-356v-166h310v-129h-310
v-177h361v-134h-515z" />
    <glyph glyph-name="Igrave" unicode="&#xcc;" horiz-adv-x="298" 
d="M96 813l-110 181h141l81 -180zM72 0v740h154v-740h-154z" />
    <glyph glyph-name="Iacute" unicode="&#xcd;" horiz-adv-x="298" 
d="M206 813l-112 1l80 180h142zM72 0v740h154v-740h-154z" />
    <glyph glyph-name="Icircumflex" unicode="&#xce;" horiz-adv-x="298" 
d="M-40 806l129 180h121l129 -180h-119l-70 104l-71 -104h-119zM72 0v740h154v-740h-154z" />
    <glyph glyph-name="Idieresis" unicode="&#xcf;" horiz-adv-x="298" 
d="M262 801q-38 0 -62 24.5t-24 58.5q0 35 24 59t62 24q37 0 61.5 -24t24.5 -59q0 -34 -24.5 -58.5t-61.5 -24.5zM36 801q-38 0 -62.5 24.5t-24.5 58.5q0 35 24.5 59t62.5 24q37 0 61.5 -24t24.5 -59q0 -34 -24.5 -58.5t-61.5 -24.5zM72 0v740h154v-740h-154z" />
    <glyph glyph-name="Eth" unicode="&#xd0;" horiz-adv-x="784" 
d="M102 0v308h-83v124h83v308h279q91 0 159 -31.5t113.5 -84.5t68 -119t22.5 -135t-22.5 -135t-68 -119t-113.5 -84.5t-159 -31.5h-279zM395 308h-139v-171h118q73 0 121 34t71 88t23 112t-23 111.5t-71 88t-121 34.5h-118v-173h139v-124z" />
    <glyph glyph-name="Ntilde" unicode="&#xd1;" horiz-adv-x="757" 
d="M449 824q-27 0 -46.5 9.5t-34 21.5t-27.5 21.5t-26 9.5q-16 0 -22.5 -15t-6.5 -41h-81q0 33 8 67t29.5 57t63.5 23q27 0 47 -9.5t35 -21.5t27.5 -21t25.5 -9q27 0 27 55h82q0 -33 -8 -67t-30 -57t-63 -23zM72 0v740h141l319 -472v472h153v-740h-143l-317 459v-459h-153z
" />
    <glyph glyph-name="Ograve" unicode="&#xd2;" horiz-adv-x="828" 
d="M361 823l-110 181h141l81 -180zM414 -10q-92 0 -162 32.5t-117.5 87t-71 122.5t-23.5 139t23.5 138.5t71 121.5t117.5 86.5t162 32.5q93 0 163 -32.5t117 -86.5t70.5 -121.5t23.5 -138.5t-23.5 -139t-70.5 -122.5t-117 -87t-163 -32.5zM414 129q70 0 118 35t72 90.5
t24 116.5t-24 116t-72 90t-118 35t-117.5 -35t-71.5 -90t-24 -116t24 -116.5t71.5 -90.5t117.5 -35z" />
    <glyph glyph-name="Oacute" unicode="&#xd3;" horiz-adv-x="828" 
d="M471 823l-112 1l80 180h142zM414 -10q-92 0 -162 32.5t-117.5 87t-71 122.5t-23.5 139t23.5 138.5t71 121.5t117.5 86.5t162 32.5q93 0 163 -32.5t117 -86.5t70.5 -121.5t23.5 -138.5t-23.5 -139t-70.5 -122.5t-117 -87t-163 -32.5zM414 129q70 0 118 35t72 90.5
t24 116.5t-24 116t-72 90t-118 35t-117.5 -35t-71.5 -90t-24 -116t24 -116.5t71.5 -90.5t117.5 -35z" />
    <glyph glyph-name="Ocircumflex" unicode="&#xd4;" horiz-adv-x="828" 
d="M225 816l129 154h121l129 -154h-119l-70 85l-71 -85h-119zM414 -10q-92 0 -162 32.5t-117.5 87t-71 122.5t-23.5 139t23.5 138.5t71 121.5t117.5 86.5t162 32.5q93 0 163 -32.5t117 -86.5t70.5 -121.5t23.5 -138.5t-23.5 -139t-70.5 -122.5t-117 -87t-163 -32.5zM414 129
q70 0 118 35t72 90.5t24 116.5t-24 116t-72 90t-118 35t-117.5 -35t-71.5 -90t-24 -116t24 -116.5t71.5 -90.5t117.5 -35z" />
    <glyph glyph-name="Otilde" unicode="&#xd5;" horiz-adv-x="828" 
d="M488 834q-27 0 -46.5 9.5t-34 21.5t-27.5 21.5t-26 9.5q-16 0 -22.5 -15t-6.5 -41h-81q0 33 8 67t29.5 57t63.5 23q27 0 47 -9.5t35 -21.5t27.5 -21t25.5 -9q27 0 27 55h82q0 -33 -8 -67t-30 -57t-63 -23zM414 -10q-92 0 -162 32.5t-117.5 87t-71 122.5t-23.5 139
t23.5 138.5t71 121.5t117.5 86.5t162 32.5q93 0 163 -32.5t117 -86.5t70.5 -121.5t23.5 -138.5t-23.5 -139t-70.5 -122.5t-117 -87t-163 -32.5zM414 129q70 0 118 35t72 90.5t24 116.5t-24 116t-72 90t-118 35t-117.5 -35t-71.5 -90t-24 -116t24 -116.5t71.5 -90.5
t117.5 -35z" />
    <glyph glyph-name="Odieresis" unicode="&#xd6;" horiz-adv-x="828" 
d="M527 811q-38 0 -62 24.5t-24 58.5q0 35 24 59t62 24q37 0 61.5 -24t24.5 -59q0 -34 -24.5 -58.5t-61.5 -24.5zM301 811q-38 0 -62.5 24.5t-24.5 58.5q0 35 24.5 59t62.5 24q37 0 61.5 -24t24.5 -59q0 -34 -24.5 -58.5t-61.5 -24.5zM414 -10q-92 0 -162 32.5t-117.5 87
t-71 122.5t-23.5 139t23.5 138.5t71 121.5t117.5 86.5t162 32.5q93 0 163 -32.5t117 -86.5t70.5 -121.5t23.5 -138.5t-23.5 -139t-70.5 -122.5t-117 -87t-163 -32.5zM414 129q70 0 118 35t72 90.5t24 116.5t-24 116t-72 90t-118 35t-117.5 -35t-71.5 -90t-24 -116t24 -116.5
t71.5 -90.5t117.5 -35z" />
    <glyph glyph-name="multiply" unicode="&#xd7;" horiz-adv-x="628" 
d="M209 115l-92 91l105 105l-106 106l93 93l106 -106l105 105l92 -91l-106 -106l106 -106l-92 -92l-106 106z" />
    <glyph glyph-name="Oslash" unicode="&#xd8;" horiz-adv-x="828" 
d="M89 -24l69 108q-58 55 -88 131t-30 156q0 71 23.5 138.5t71 121.5t117.5 86.5t162 32.5q43 0 81 -7.5t72 -20.5l26 41h145l-68 -107q59 -55 88.5 -130.5t29.5 -154.5q0 -71 -23.5 -139t-70.5 -122.5t-117 -87t-163 -32.5q-43 0 -81 7.5t-71 20.5l-28 -42h-145zM201 371
q0 -41 11 -80.5t32 -72.5l244 381q-34 13 -74 13q-70 0 -117.5 -35t-71.5 -90t-24 -116zM414 129q70 0 118 35t72 90.5t24 116.5q0 41 -11 80t-33 72l-244 -381q35 -13 74 -13z" />
    <glyph glyph-name="Ugrave" unicode="&#xd9;" horiz-adv-x="746" 
d="M318 813l-110 181h141l81 -180zM373 -10q-81 0 -149.5 31t-110 96t-41.5 169v454h154v-454q0 -64 36 -107.5t111 -43.5t110.5 43.5t35.5 107.5v454h155v-454q0 -104 -41.5 -169t-110.5 -96t-149 -31z" />
    <glyph glyph-name="Uacute" unicode="&#xda;" horiz-adv-x="746" 
d="M428 813l-112 1l80 180h141zM373 -10q-81 0 -149.5 31t-110 96t-41.5 169v454h154v-454q0 -64 36 -107.5t111 -43.5t110.5 43.5t35.5 107.5v454h155v-454q0 -104 -41.5 -169t-110.5 -96t-149 -31z" />
    <glyph glyph-name="Ucircumflex" unicode="&#xdb;" horiz-adv-x="746" 
d="M182 806l129 180h121l129 -180h-119l-70 104l-71 -104h-119zM373 -10q-81 0 -149.5 31t-110 96t-41.5 169v454h154v-454q0 -64 36 -107.5t111 -43.5t110.5 43.5t35.5 107.5v454h155v-454q0 -104 -41.5 -169t-110.5 -96t-149 -31z" />
    <glyph glyph-name="Udieresis" unicode="&#xdc;" horiz-adv-x="746" 
d="M484 801q-38 0 -62 24.5t-24 58.5q0 35 24 59t62 24q37 0 61.5 -24t24.5 -59q0 -34 -24.5 -58.5t-61.5 -24.5zM257 801q-37 0 -61.5 24.5t-24.5 58.5q0 35 24.5 59t61.5 24t61.5 -24t24.5 -59q0 -34 -24.5 -58.5t-61.5 -24.5zM373 -10q-81 0 -149.5 31t-110 96t-41.5 169
v454h154v-454q0 -64 36 -107.5t111 -43.5t110.5 43.5t35.5 107.5v454h155v-454q0 -104 -41.5 -169t-110.5 -96t-149 -31z" />
    <glyph glyph-name="Yacute" unicode="&#xdd;" horiz-adv-x="718" 
d="M417 812l-112 1l81 180h141zM282 0v253l-260 487h169l168 -329l168 329h169l-260 -487v-253h-154z" />
    <glyph glyph-name="Thorn" unicode="&#xde;" horiz-adv-x="679" 
d="M68 0v740h154v-123h151q91 0 151.5 -36t91 -92.5t30.5 -118.5t-30.5 -118.5t-91 -92.5t-151.5 -36h-151v-123h-154zM373 482h-151v-225h151q39 0 65 16.5t39.5 42t13.5 53.5q0 29 -13.5 54.5t-39.5 42t-65 16.5z" />
    <glyph glyph-name="germandbls" unicode="&#xdf;" horiz-adv-x="713" 
d="M353 762q72 0 133.5 -25t99.5 -71.5t38 -112.5q0 -46 -18.5 -80t-45.5 -55.5t-54 -30.5v-6l15 -4.5t36.5 -16t43 -31.5t36 -50.5t14.5 -74.5q0 -66 -36.5 -114t-100.5 -74t-145 -26q-37 0 -62.5 4l-25.5 4v125l24 -3t50 -3q73 0 107 32t34 76t-31.5 71t-89.5 27h-72v120
h62q50 0 78.5 27t28.5 67q0 43 -32.5 70.5t-83.5 27.5q-61 0 -98.5 -40.5t-37.5 -119.5v-476h-152v475q0 51 16 102t49.5 93t88 67.5t131.5 25.5z" />
    <glyph glyph-name="agrave" unicode="&#xe0;" horiz-adv-x="663" 
d="M278 603l-109 181h141l81 -180zM286 540q51 0 84 -16.5t50.5 -35.5t21.5 -26h8v68h152v-530h-152v68h-8q-4 -7 -21.5 -26t-50.5 -35.5t-84 -16.5q-59 0 -102.5 23.5t-72.5 63t-43.5 88.5t-14.5 100t14.5 100t43.5 88.5t72.5 63t102.5 23.5zM330 417q-41 0 -68.5 -22.5
t-41 -57.5t-13.5 -72t13.5 -72t41 -57.5t68.5 -22.5t68.5 22.5t41 57.5t13.5 72t-13.5 72t-41 57.5t-68.5 22.5z" />
    <glyph glyph-name="aacute" unicode="&#xe1;" horiz-adv-x="663" 
d="M389 603l-113 1l81 180h141zM286 540q51 0 84 -16.5t50.5 -35.5t21.5 -26h8v68h152v-530h-152v68h-8q-4 -7 -21.5 -26t-50.5 -35.5t-84 -16.5q-59 0 -102.5 23.5t-72.5 63t-43.5 88.5t-14.5 100t14.5 100t43.5 88.5t72.5 63t102.5 23.5zM330 417q-41 0 -68.5 -22.5
t-41 -57.5t-13.5 -72t13.5 -72t41 -57.5t68.5 -22.5t68.5 22.5t41 57.5t13.5 72t-13.5 72t-41 57.5t-68.5 22.5z" />
    <glyph glyph-name="acircumflex" unicode="&#xe2;" horiz-adv-x="663" 
d="M143 596l129 180h121l129 -180h-119l-71 104l-70 -104h-119zM286 540q51 0 84 -16.5t50.5 -35.5t21.5 -26h8v68h152v-530h-152v68h-8q-4 -7 -21.5 -26t-50.5 -35.5t-84 -16.5q-59 0 -102.5 23.5t-72.5 63t-43.5 88.5t-14.5 100t14.5 100t43.5 88.5t72.5 63t102.5 23.5z
M330 417q-41 0 -68.5 -22.5t-41 -57.5t-13.5 -72t13.5 -72t41 -57.5t68.5 -22.5t68.5 22.5t41 57.5t13.5 72t-13.5 72t-41 57.5t-68.5 22.5z" />
    <glyph glyph-name="atilde" unicode="&#xe3;" horiz-adv-x="663" 
d="M406 614q-27 0 -46.5 9.5t-34.5 21.5t-27.5 21.5t-26.5 9.5q-16 0 -22 -15t-6 -41h-81q0 33 7.5 67t29.5 57t63 23q28 0 47.5 -9.5t34.5 -21.5t27.5 -21t25.5 -9q28 0 28 55h81q0 -33 -8 -67t-29.5 -57t-62.5 -23zM286 540q51 0 84 -16.5t50.5 -35.5t21.5 -26h8v68h152
v-530h-152v68h-8q-4 -7 -21.5 -26t-50.5 -35.5t-84 -16.5q-59 0 -102.5 23.5t-72.5 63t-43.5 88.5t-14.5 100t14.5 100t43.5 88.5t72.5 63t102.5 23.5zM330 417q-41 0 -68.5 -22.5t-41 -57.5t-13.5 -72t13.5 -72t41 -57.5t68.5 -22.5t68.5 22.5t41 57.5t13.5 72t-13.5 72
t-41 57.5t-68.5 22.5z" />
    <glyph glyph-name="adieresis" unicode="&#xe4;" horiz-adv-x="663" 
d="M445 591q-38 0 -62 24.5t-24 58.5q0 35 24 59t62 24q37 0 61.5 -24t24.5 -59q0 -34 -24.5 -58.5t-61.5 -24.5zM218 591q-38 0 -62 24.5t-24 58.5q0 35 24 59t62 24q37 0 61.5 -24t24.5 -59q0 -34 -24.5 -58.5t-61.5 -24.5zM286 540q51 0 84 -16.5t50.5 -35.5t21.5 -26h8
v68h152v-530h-152v68h-8q-4 -7 -21.5 -26t-50.5 -35.5t-84 -16.5q-59 0 -102.5 23.5t-72.5 63t-43.5 88.5t-14.5 100t14.5 100t43.5 88.5t72.5 63t102.5 23.5zM330 417q-41 0 -68.5 -22.5t-41 -57.5t-13.5 -72t13.5 -72t41 -57.5t68.5 -22.5t68.5 22.5t41 57.5t13.5 72
t-13.5 72t-41 57.5t-68.5 22.5z" />
    <glyph glyph-name="aring" unicode="&#xe5;" horiz-adv-x="663" 
d="M332 588q-38 0 -69 18t-49 49t-18 68q0 38 18 68.5t49 49t69 18.5q37 0 68 -18.5t49.5 -49t18.5 -68.5q0 -37 -18.5 -68t-49.5 -49t-68 -18zM332 669q22 0 38 15.5t16 38.5t-16 38.5t-38 15.5q-23 0 -39 -15.5t-16 -38.5t16 -38.5t39 -15.5zM286 540q51 0 84 -16.5
t50.5 -35.5t21.5 -26h8v68h152v-530h-152v68h-8q-4 -7 -21.5 -26t-50.5 -35.5t-84 -16.5q-59 0 -102.5 23.5t-72.5 63t-43.5 88.5t-14.5 100t14.5 100t43.5 88.5t72.5 63t102.5 23.5zM330 417q-41 0 -68.5 -22.5t-41 -57.5t-13.5 -72t13.5 -72t41 -57.5t68.5 -22.5
t68.5 22.5t41 57.5t13.5 72t-13.5 72t-41 57.5t-68.5 22.5z" />
    <glyph glyph-name="ae" unicode="&#xe6;" horiz-adv-x="956" 
d="M237 -10q-84 0 -138 42t-54 120q0 73 55 116.5t160 45.5l126 2v22q0 34 -21 61t-70 27q-31 0 -50 -10.5t-28 -23.5t-12 -23.5l-3 -10.5h-144l4 18.5t16.5 45.5t38 54t67 45.5t105.5 18.5q61 0 99.5 -16.5t58 -37t22.5 -31.5h4q5 10 25.5 30.5t59.5 37.5t98 17
q71 0 127.5 -31t89 -93t32.5 -155v-37h-369q3 -47 35 -83t88 -36q32 0 52.5 10t31.5 23t15.5 23l4.5 10h138l-5 -18.5t-19 -45.5t-41 -54t-70.5 -45t-106.5 -18q-56 0 -96 14t-66 34t-39 37.5t-16 23.5h-5l-9 -16.5t-31.5 -38t-61.5 -38t-98 -16.5zM536 316h226
q-3 59 -34 85.5t-77 26.5q-47 0 -79 -28.5t-36 -83.5zM275 93q50 0 80.5 32t30.5 81v16l-112 -2q-43 -1 -63 -19t-20 -44q0 -31 24.5 -47.5t59.5 -16.5z" />
    <glyph glyph-name="ccedilla" unicode="&#xe7;" horiz-adv-x="630" 
d="M310 -263q-28 0 -54.5 3.5l-26.5 3.5v79l12 -1.5t29.5 -3t32.5 -1.5q43 0 57.5 13.5t14.5 27.5t-11 23.5t-31 9.5q-22 0 -38.5 -9.5l-16.5 -9.5l-53 54l47 68q-75 13 -124 54t-73 98.5t-24 118.5q0 51 17 100t51 88.5t86 63t122 23.5q71 0 117.5 -20.5t73.5 -51t40 -61
t16.5 -51l3.5 -20.5h-141l-3.5 12.5t-14.5 29t-32 29t-56 12.5q-43 0 -71.5 -21.5t-42.5 -56.5t-14 -76t14 -76t42.5 -56.5t71.5 -21.5q35 0 56 12.5t32 29t14.5 29l3.5 12.5h141l-3 -18.5t-14 -46.5t-34 -57.5t-62.5 -51.5t-99.5 -28l-24 -34q11 2 22 2q49 0 77 -30t28 -73
q0 -30 -16.5 -57.5t-51.5 -45t-90 -17.5z" />
    <glyph glyph-name="egrave" unicode="&#xe8;" horiz-adv-x="618" 
d="M263 604l-109 180h141l81 -179zM322 -10q-70 0 -121 23.5t-84 63t-49.5 88.5t-16.5 101q0 50 16 98.5t48.5 88.5t82.5 63.5t119 23.5q74 0 130 -32t88 -94.5t32 -151.5v-37h-363q3 -48 33.5 -83t84.5 -35q31 0 50.5 9.5t30.5 22t15.5 22.5l4.5 10h140l-5 -18.5t-19 -45.5
t-40.5 -54t-69.5 -45t-107 -18zM204 317h217q-2 55 -32.5 82t-74.5 27t-74.5 -28.5t-35.5 -80.5z" />
    <glyph glyph-name="eacute" unicode="&#xe9;" horiz-adv-x="618" 
d="M374 604l-113 1l81 179h141zM322 -10q-70 0 -121 23.5t-84 63t-49.5 88.5t-16.5 101q0 50 16 98.5t48.5 88.5t82.5 63.5t119 23.5q74 0 130 -32t88 -94.5t32 -151.5v-37h-363q3 -48 33.5 -83t84.5 -35q31 0 50.5 9.5t30.5 22t15.5 22.5l4.5 10h140l-5 -18.5t-19 -45.5
t-40.5 -54t-69.5 -45t-107 -18zM204 317h217q-2 55 -32.5 82t-74.5 27t-74.5 -28.5t-35.5 -80.5z" />
    <glyph glyph-name="ecircumflex" unicode="&#xea;" horiz-adv-x="618" 
d="M128 596l129 180h121l129 -180h-119l-71 104l-70 -104h-119zM322 -10q-70 0 -121 23.5t-84 63t-49.5 88.5t-16.5 101q0 50 16 98.5t48.5 88.5t82.5 63.5t119 23.5q74 0 130 -32t88 -94.5t32 -151.5v-37h-363q3 -48 33.5 -83t84.5 -35q31 0 50.5 9.5t30.5 22t15.5 22.5
l4.5 10h140l-5 -18.5t-19 -45.5t-40.5 -54t-69.5 -45t-107 -18zM204 317h217q-2 55 -32.5 82t-74.5 27t-74.5 -28.5t-35.5 -80.5z" />
    <glyph glyph-name="edieresis" unicode="&#xeb;" horiz-adv-x="618" 
d="M430 591q-38 0 -62 24.5t-24 58.5q0 35 24 59.5t62 24.5q37 0 61.5 -24.5t24.5 -59.5q0 -34 -24.5 -58.5t-61.5 -24.5zM203 591q-38 0 -62 24.5t-24 58.5q0 35 24 59.5t62 24.5q37 0 61.5 -24.5t24.5 -59.5q0 -34 -24.5 -58.5t-61.5 -24.5zM322 -10q-70 0 -121 23.5
t-84 63t-49.5 88.5t-16.5 101q0 50 16 98.5t48.5 88.5t82.5 63.5t119 23.5q74 0 130 -32t88 -94.5t32 -151.5v-37h-363q3 -48 33.5 -83t84.5 -35q31 0 50.5 9.5t30.5 22t15.5 22.5l4.5 10h140l-5 -18.5t-19 -45.5t-40.5 -54t-69.5 -45t-107 -18zM204 317h217q-2 55 -32.5 82
t-74.5 27t-74.5 -28.5t-35.5 -80.5z" />
    <glyph glyph-name="igrave" unicode="&#xec;" horiz-adv-x="302" 
d="M98 603l-110 181h141l81 -180zM75 0v530h152v-530h-152z" />
    <glyph glyph-name="iacute" unicode="&#xed;" horiz-adv-x="302" 
d="M208 603l-112 1l80 180h142zM75 0v530h152v-530h-152z" />
    <glyph glyph-name="icircumflex" unicode="&#xee;" horiz-adv-x="302" 
d="M-38 596l129 180h121l129 -180h-119l-70 104l-71 -104h-119zM75 0v530h152v-530h-152z" />
    <glyph glyph-name="idieresis" unicode="&#xef;" horiz-adv-x="302" 
d="M264 591q-38 0 -62 24.5t-24 58.5q0 35 24 59t62 24q37 0 61.5 -24t24.5 -59q0 -34 -24.5 -58.5t-61.5 -24.5zM38 591q-38 0 -62.5 24.5t-24.5 58.5q0 35 24.5 59t62.5 24q37 0 61.5 -24t24.5 -59q0 -34 -24.5 -58.5t-61.5 -24.5zM75 0v530h152v-530h-152z" />
    <glyph glyph-name="eth" unicode="&#xf0;" horiz-adv-x="659" 
d="M329 -10q-71 0 -123.5 23.5t-86.5 63t-51 88.5t-17 100q0 49 15.5 96t45.5 84.5t74.5 59.5t103.5 22q37 0 66 -9.5t49 -23.5q-27 40 -62.5 74.5t-72.5 62.5l-111 -65l-50 86l68 40q-38 22 -63.5 34l-25.5 12l50 104l22 -8.5t59 -25.5t81 -44l123 72l50 -86l-82 -48
q56 -44 105.5 -102.5t80.5 -133t31 -165.5q0 -87 -30.5 -157.5t-93 -112t-155.5 -41.5zM330 113q42 0 69.5 22.5t41 57.5t13.5 72q0 38 -14 72.5t-41.5 57t-68.5 22.5q-42 0 -70 -22.5t-41.5 -57t-13.5 -72.5q0 -37 13.5 -72t41.5 -57.5t70 -22.5z" />
    <glyph glyph-name="ntilde" unicode="&#xf1;" horiz-adv-x="611" 
d="M382 614q-27 0 -46.5 9.5t-34 21.5t-27 21.5t-26.5 9.5q-16 0 -22 -15t-6 -41h-82q0 33 8 67t30 57t63 23q27 0 47 -9.5t35 -21.5t27.5 -21t25.5 -9q27 0 27 55h82q0 -33 -8 -67t-29.5 -57t-63.5 -23zM67 0v530h152v-76h5q9 16 26.5 36t47 35t75.5 15q62 0 101 -28.5
t57 -73t18 -93.5v-345h-152v319q0 38 -20.5 67t-65.5 29q-34 0 -54 -16t-29 -41t-9 -53v-305h-152z" />
    <glyph glyph-name="ograve" unicode="&#xf2;" horiz-adv-x="658" 
d="M275 604l-109 180h141l80 -179zM329 -10q-89 0 -151 38.5t-94.5 101t-32.5 135.5t32.5 135.5t94.5 101t151 38.5t151 -38.5t94.5 -101t32.5 -135.5t-32.5 -135.5t-94.5 -101t-151 -38.5zM329 114q40 0 68 21t42.5 55.5t14.5 74.5q0 41 -14.5 75t-42.5 55t-68 21t-68 -21
t-42.5 -55t-14.5 -75q0 -40 14.5 -74.5t42.5 -55.5t68 -21z" />
    <glyph glyph-name="oacute" unicode="&#xf3;" horiz-adv-x="658" 
d="M385 604l-112 1l81 179h141zM329 -10q-89 0 -151 38.5t-94.5 101t-32.5 135.5t32.5 135.5t94.5 101t151 38.5t151 -38.5t94.5 -101t32.5 -135.5t-32.5 -135.5t-94.5 -101t-151 -38.5zM329 114q40 0 68 21t42.5 55.5t14.5 74.5q0 41 -14.5 75t-42.5 55t-68 21t-68 -21
t-42.5 -55t-14.5 -75q0 -40 14.5 -74.5t42.5 -55.5t68 -21z" />
    <glyph glyph-name="ocircumflex" unicode="&#xf4;" horiz-adv-x="658" 
d="M139 596l130 180h120l130 -180h-119l-71 104l-71 -104h-119zM329 -10q-89 0 -151 38.5t-94.5 101t-32.5 135.5t32.5 135.5t94.5 101t151 38.5t151 -38.5t94.5 -101t32.5 -135.5t-32.5 -135.5t-94.5 -101t-151 -38.5zM329 114q40 0 68 21t42.5 55.5t14.5 74.5
q0 41 -14.5 75t-42.5 55t-68 21t-68 -21t-42.5 -55t-14.5 -75q0 -40 14.5 -74.5t42.5 -55.5t68 -21z" />
    <glyph glyph-name="otilde" unicode="&#xf5;" horiz-adv-x="658" 
d="M403 614q-28 0 -47 9.5t-34 22t-27.5 21.5t-26.5 9q-16 0 -22 -14.5t-6 -41.5h-82q0 34 8 67.5t30 56.5t63 23q28 0 47.5 -9t34.5 -21t27.5 -21.5t25.5 -9.5q28 0 28 56h81q0 -33 -8 -67t-29.5 -57.5t-62.5 -23.5zM329 -10q-89 0 -151 38.5t-94.5 101t-32.5 135.5
t32.5 135.5t94.5 101t151 38.5t151 -38.5t94.5 -101t32.5 -135.5t-32.5 -135.5t-94.5 -101t-151 -38.5zM329 114q40 0 68 21t42.5 55.5t14.5 74.5q0 41 -14.5 75t-42.5 55t-68 21t-68 -21t-42.5 -55t-14.5 -75q0 -40 14.5 -74.5t42.5 -55.5t68 -21z" />
    <glyph glyph-name="odieresis" unicode="&#xf6;" horiz-adv-x="658" 
d="M442 591q-38 0 -62.5 24.5t-24.5 58.5q0 35 24.5 59.5t62.5 24.5q37 0 61.5 -24.5t24.5 -59.5q0 -34 -24.5 -58.5t-61.5 -24.5zM215 591q-38 0 -62 24.5t-24 58.5q0 35 24 59.5t62 24.5q37 0 61.5 -24.5t24.5 -59.5q0 -34 -24.5 -58.5t-61.5 -24.5zM329 -10
q-89 0 -151 38.5t-94.5 101t-32.5 135.5t32.5 135.5t94.5 101t151 38.5t151 -38.5t94.5 -101t32.5 -135.5t-32.5 -135.5t-94.5 -101t-151 -38.5zM329 114q40 0 68 21t42.5 55.5t14.5 74.5q0 41 -14.5 75t-42.5 55t-68 21t-68 -21t-42.5 -55t-14.5 -75q0 -40 14.5 -74.5
t42.5 -55.5t68 -21z" />
    <glyph glyph-name="divide" unicode="&#xf7;" horiz-adv-x="714" 
d="M361 442q-37 0 -61 25t-24 60q0 36 24 60.5t61 24.5t61.5 -24.5t24.5 -60.5q0 -35 -24.5 -60t-61.5 -25zM116 271v109h482v-109h-482zM361 39q-37 0 -61 25.5t-24 60.5t24 60t61 25t61.5 -25t24.5 -60t-24.5 -60.5t-61.5 -25.5z" />
    <glyph glyph-name="oslash" unicode="&#xf8;" horiz-adv-x="658" 
d="M98 -41l51 90q-48 38 -73 95t-25 121q0 73 32.5 135.5t94.5 101t151 38.5q49 0 93 -13l25 44h105l-49 -86q51 -38 77.5 -96.5t26.5 -123.5q0 -73 -32.5 -135.5t-94.5 -101t-151 -38.5q-53 0 -99 15l-26 -46h-106zM204 265q0 -48 20 -86l133 234q-14 3 -28 3
q-40 0 -68 -21t-42.5 -55t-14.5 -75zM329 114q40 0 67.5 21t42.5 55.5t15 74.5q0 53 -24 92l-135 -238q16 -5 34 -5z" />
    <glyph glyph-name="ugrave" unicode="&#xf9;" horiz-adv-x="601" 
d="M249 603l-110 181h141l81 -180zM232 -10q-56 0 -92.5 24t-54.5 64.5t-18 91.5v360h151v-330q0 -38 20.5 -61.5t58.5 -23.5q33 0 52.5 16t28.5 41t9 53v305h152v-530h-152v75h-6q-17 -31 -52.5 -58t-96.5 -27z" />
    <glyph glyph-name="uacute" unicode="&#xfa;" horiz-adv-x="601" 
d="M359 603l-112 1l80 180h141zM232 -10q-56 0 -92.5 24t-54.5 64.5t-18 91.5v360h151v-330q0 -38 20.5 -61.5t58.5 -23.5q33 0 52.5 16t28.5 41t9 53v305h152v-530h-152v75h-6q-17 -31 -52.5 -58t-96.5 -27z" />
    <glyph glyph-name="ucircumflex" unicode="&#xfb;" horiz-adv-x="601" 
d="M113 596l129 180h121l129 -180h-119l-70 104l-71 -104h-119zM232 -10q-56 0 -92.5 24t-54.5 64.5t-18 91.5v360h151v-330q0 -38 20.5 -61.5t58.5 -23.5q33 0 52.5 16t28.5 41t9 53v305h152v-530h-152v75h-6q-17 -31 -52.5 -58t-96.5 -27z" />
    <glyph glyph-name="udieresis" unicode="&#xfc;" horiz-adv-x="601" 
d="M415 591q-38 0 -62 24.5t-24 58.5q0 35 24 59t62 24q37 0 61.5 -24t24.5 -59q0 -34 -24.5 -58.5t-61.5 -24.5zM188 591q-37 0 -61.5 24.5t-24.5 58.5q0 35 24.5 59t61.5 24t61.5 -24t24.5 -59q0 -34 -24.5 -58.5t-61.5 -24.5zM232 -10q-56 0 -92.5 24t-54.5 64.5
t-18 91.5v360h151v-330q0 -38 20.5 -61.5t58.5 -23.5q33 0 52.5 16t28.5 41t9 53v305h152v-530h-152v75h-6q-17 -31 -52.5 -58t-96.5 -27z" />
    <glyph glyph-name="yacute" unicode="&#xfd;" horiz-adv-x="597" 
d="M356 603l-113 1l81 180h141zM101 -195q-27 0 -43 2l-16 2v122l13.5 -1t33.5 -1q48 0 79 13.5t54 52.5l-196 535h152l123 -359l120 359h153l-190 -509q-26 -73 -62.5 -121t-89.5 -71.5t-131 -23.5z" />
    <glyph glyph-name="thorn" unicode="&#xfe;" horiz-adv-x="668" 
d="M68 -195v955h152v-298h7q5 7 22.5 26t50.5 35.5t84 16.5q59 0 102.5 -23.5t72.5 -63t43.5 -88.5t14.5 -100t-14.5 -100t-43.5 -88.5t-72.5 -63t-102.5 -23.5q-51 0 -84 16.5t-50.5 35.5t-22.5 26h-7v-263h-152zM217 265q0 -37 13.5 -72t41 -57.5t68.5 -22.5t68.5 22.5
t41 57.5t13.5 72t-13.5 72t-41 57.5t-68.5 22.5t-68.5 -22.5t-41 -57.5t-13.5 -72z" />
    <glyph glyph-name="ydieresis" unicode="&#xff;" horiz-adv-x="597" 
d="M412 591q-38 0 -62 24.5t-24 58.5q0 35 24 59t62 24q37 0 61.5 -24t24.5 -59q0 -34 -24.5 -58.5t-61.5 -24.5zM185 591q-38 0 -62 24.5t-24 58.5q0 35 24 59t62 24q37 0 61.5 -24t24.5 -59q0 -34 -24.5 -58.5t-61.5 -24.5zM101 -195q-27 0 -43 2l-16 2v122l13.5 -1
t33.5 -1q48 0 79 13.5t54 52.5l-196 535h152l123 -359l120 359h153l-190 -509q-26 -73 -62.5 -121t-89.5 -71.5t-131 -23.5z" />
    <glyph glyph-name="Amacron" unicode="&#x100;" horiz-adv-x="769" 
d="M222 825v90h326v-90h-326zM30 0l252 740h205l252 -740h-162l-48 145h-289l-48 -145h-162zM282 279h205l-102 309z" />
    <glyph glyph-name="amacron" unicode="&#x101;" horiz-adv-x="663" 
d="M169 615v90h326v-90h-326zM286 540q51 0 84 -16.5t50.5 -35.5t21.5 -26h8v68h152v-530h-152v68h-8q-4 -7 -21.5 -26t-50.5 -35.5t-84 -16.5q-59 0 -102.5 23.5t-72.5 63t-43.5 88.5t-14.5 100t14.5 100t43.5 88.5t72.5 63t102.5 23.5zM330 417q-41 0 -68.5 -22.5
t-41 -57.5t-13.5 -72t13.5 -72t41 -57.5t68.5 -22.5t68.5 22.5t41 57.5t13.5 72t-13.5 72t-41 57.5t-68.5 22.5z" />
    <glyph glyph-name="Abreve" unicode="&#x102;" horiz-adv-x="769" 
d="M385 807q-55 0 -89.5 16t-53.5 39t-27 46.5t-9.5 39.5l-1.5 16h100l2 -11t9.5 -24.5t24 -24t45.5 -10.5t45.5 10.5t24 24t9 24.5l1.5 11h100l-1.5 -16t-9.5 -39.5t-27 -46.5t-53 -39t-89 -16zM30 0l252 740h205l252 -740h-162l-48 145h-289l-48 -145h-162zM282 279h205
l-102 309z" />
    <glyph glyph-name="abreve" unicode="&#x103;" horiz-adv-x="663" 
d="M332 597q-56 0 -90.5 17.5t-53 43t-26.5 51.5t-9.5 43.5l-1.5 17.5h100l1.5 -13t9 -29.5t24 -29t46.5 -12.5t46.5 12.5t23.5 29t8.5 29.5l1.5 13h100l-1 -17.5t-9 -43.5t-27 -51.5t-53.5 -43t-89.5 -17.5zM286 540q51 0 84 -16.5t50.5 -35.5t21.5 -26h8v68h152v-530h-152
v68h-8q-4 -7 -21.5 -26t-50.5 -35.5t-84 -16.5q-59 0 -102.5 23.5t-72.5 63t-43.5 88.5t-14.5 100t14.5 100t43.5 88.5t72.5 63t102.5 23.5zM330 417q-41 0 -68.5 -22.5t-41 -57.5t-13.5 -72t13.5 -72t41 -57.5t68.5 -22.5t68.5 22.5t41 57.5t13.5 72t-13.5 72t-41 57.5
t-68.5 22.5z" />
    <glyph glyph-name="Aogonek" unicode="&#x104;" horiz-adv-x="769" 
d="M30 0l252 740h205l252 -740l-13 -6.5t-25.5 -19.5t-12.5 -32q0 -15 13 -26.5t41 -11.5q13 0 23.5 1.5l10.5 1.5v-86l-16.5 -2.5t-41.5 -2.5q-73 0 -106.5 29.5t-33.5 70.5q0 30 15 50.5t34 33.5h-50l-48 145h-289l-48 -145h-162zM282 279h205l-102 309z" />
    <glyph glyph-name="aogonek" unicode="&#x105;" horiz-adv-x="663" 
d="M581 -184q-73 0 -106.5 29.5t-33.5 70.5q0 30 14.5 50.5t33.5 33.5h-39v68h-8q-4 -7 -21.5 -26t-50.5 -35.5t-84 -16.5q-59 0 -102.5 23.5t-72.5 63t-43.5 88.5t-14.5 100t14.5 100t43.5 88.5t72.5 63t102.5 23.5q51 0 84 -16.5t50.5 -35.5t21.5 -26h8v68h152v-530
l-13 -6.5t-25.5 -19.5t-12.5 -32q0 -15 12.5 -26.5t41.5 -11.5q12 0 23 1.5l11 1.5v-86l-16.5 -2.5t-41.5 -2.5zM330 417q-41 0 -68.5 -22.5t-41 -57.5t-13.5 -72t13.5 -72t41 -57.5t68.5 -22.5t68.5 22.5t41 57.5t13.5 72t-13.5 72t-41 57.5t-68.5 22.5z" />
    <glyph glyph-name="Cacute" unicode="&#x106;" horiz-adv-x="780" 
d="M464 812l-113 1l81 180h141zM407 -10q-92 0 -160.5 32.5t-114.5 87t-69 122.5t-23 139q0 70 23 138t69 122.5t114.5 86.5t160.5 32q77 0 131.5 -19.5t91 -50t59 -65t33.5 -65t14.5 -50l3.5 -19.5h-153l-3.5 13.5t-13.5 33t-29.5 38.5t-52 32.5t-80.5 13.5
q-69 0 -115.5 -35.5t-70 -90.5t-23.5 -115t23.5 -115.5t70 -91t115.5 -35.5q48 0 80.5 13t52 32.5t29.5 39t13.5 32.5l3.5 13h153l-3.5 -19.5t-14.5 -50t-33.5 -65t-59 -65t-91 -50t-131.5 -19.5z" />
    <glyph glyph-name="cacute" unicode="&#x107;" horiz-adv-x="630" 
d="M388 603l-113 1l81 180h141zM327 -10q-70 0 -122 23.5t-86 62.5t-51 88.5t-17 100.5t17 100t51 88.5t86 63t122 23.5q71 0 117.5 -20.5t73.5 -51t40 -61t16.5 -51l3.5 -20.5h-141l-3.5 12.5t-14.5 29t-32 29t-56 12.5q-43 0 -71.5 -21.5t-42.5 -56.5t-14 -76t14 -76
t42.5 -56.5t71.5 -21.5q35 0 56 12.5t32 29t14.5 29l3.5 12.5h141l-3.5 -20.5t-16.5 -51t-40 -61t-73.5 -51t-117.5 -20.5z" />
    <glyph glyph-name="Cdotaccent" unicode="&#x10a;" horiz-adv-x="780" 
d="M407 811q-40 0 -65 25.5t-25 61.5t25 61.5t65 25.5q39 0 64.5 -25.5t25.5 -61.5t-25.5 -61.5t-64.5 -25.5zM407 -10q-92 0 -160.5 32.5t-114.5 87t-69 122.5t-23 139q0 70 23 138t69 122.5t114.5 86.5t160.5 32q77 0 131.5 -19.5t91 -50t59 -65t33.5 -65t14.5 -50
l3.5 -19.5h-153l-3.5 13.5t-13.5 33t-29.5 38.5t-52 32.5t-80.5 13.5q-69 0 -115.5 -35.5t-70 -90.5t-23.5 -115t23.5 -115.5t70 -91t115.5 -35.5q48 0 80.5 13t52 32.5t29.5 39t13.5 32.5l3.5 13h153l-3.5 -19.5t-14.5 -50t-33.5 -65t-59 -65t-91 -50t-131.5 -19.5z" />
    <glyph glyph-name="cdotaccent" unicode="&#x10b;" horiz-adv-x="630" 
d="M331 602q-40 0 -65 25.5t-25 61.5t25 61.5t65 25.5q39 0 64.5 -25.5t25.5 -61.5t-25.5 -61.5t-64.5 -25.5zM327 -10q-70 0 -122 23.5t-86 62.5t-51 88.5t-17 100.5t17 100t51 88.5t86 63t122 23.5q71 0 117.5 -20.5t73.5 -51t40 -61t16.5 -51l3.5 -20.5h-141l-3.5 12.5
t-14.5 29t-32 29t-56 12.5q-43 0 -71.5 -21.5t-42.5 -56.5t-14 -76t14 -76t42.5 -56.5t71.5 -21.5q35 0 56 12.5t32 29t14.5 29l3.5 12.5h141l-3.5 -20.5t-16.5 -51t-40 -61t-73.5 -51t-117.5 -20.5z" />
    <glyph glyph-name="Ccaron" unicode="&#x10c;" horiz-adv-x="780" 
d="M346 801l-129 180h119l71 -104l70 104h119l-129 -180h-121zM407 -10q-92 0 -160.5 32.5t-114.5 87t-69 122.5t-23 139q0 70 23 138t69 122.5t114.5 86.5t160.5 32q77 0 131.5 -19.5t91 -50t59 -65t33.5 -65t14.5 -50l3.5 -19.5h-153l-3.5 13.5t-13.5 33t-29.5 38.5
t-52 32.5t-80.5 13.5q-69 0 -115.5 -35.5t-70 -90.5t-23.5 -115t23.5 -115.5t70 -91t115.5 -35.5q48 0 80.5 13t52 32.5t29.5 39t13.5 32.5l3.5 13h153l-3.5 -19.5t-14.5 -50t-33.5 -65t-59 -65t-91 -50t-131.5 -19.5z" />
    <glyph glyph-name="ccaron" unicode="&#x10d;" horiz-adv-x="630" 
d="M270 592l-129 180h119l71 -104l70 104h119l-129 -180h-121zM327 -10q-70 0 -122 23.5t-86 62.5t-51 88.5t-17 100.5t17 100t51 88.5t86 63t122 23.5q71 0 117.5 -20.5t73.5 -51t40 -61t16.5 -51l3.5 -20.5h-141l-3.5 12.5t-14.5 29t-32 29t-56 12.5q-43 0 -71.5 -21.5
t-42.5 -56.5t-14 -76t14 -76t42.5 -56.5t71.5 -21.5q35 0 56 12.5t32 29t14.5 29l3.5 12.5h141l-3.5 -20.5t-16.5 -51t-40 -61t-73.5 -51t-117.5 -20.5z" />
    <glyph glyph-name="Dcaron" unicode="&#x10e;" horiz-adv-x="755" 
d="M291 802l-129 180h119l71 -104l70 104h119l-129 -180h-121zM72 0v740h280q90 0 158.5 -31.5t113.5 -84.5t68 -119t23 -135t-23 -135t-68 -119t-113.5 -84.5t-158.5 -31.5h-280zM345 605h-119v-468h119q73 0 120.5 34t71 88t23.5 112t-23.5 111.5t-71 88t-120.5 34.5z" />
    <glyph glyph-name="dcaron" unicode="&#x10f;" horiz-adv-x="753" 
d="M284 -10q-59 0 -102.5 23.5t-72.5 63t-43.5 88.5t-14.5 100t14.5 100t43.5 88.5t72.5 63t102.5 23.5q51 0 84 -16.5t50.5 -35.5t21.5 -26h8v298h152v-760h-152v68h-8q-4 -7 -21.5 -26t-50.5 -35.5t-84 -16.5zM669 535l10 225h126l-51 -225h-85zM328 113q41 0 68.5 22.5
t41 57.5t13.5 72t-13.5 72t-41 57.5t-68.5 22.5t-68.5 -22.5t-41 -57.5t-13.5 -72t13.5 -72t41 -57.5t68.5 -22.5z" />
    <glyph glyph-name="Dcroat" unicode="&#x110;" horiz-adv-x="784" 
d="M102 0v308h-83v124h83v308h279q91 0 159 -31.5t113.5 -84.5t68 -119t22.5 -135t-22.5 -135t-68 -119t-113.5 -84.5t-159 -31.5h-279zM395 308h-139v-171h118q73 0 121 34t71 88t23 112t-23 111.5t-71 88t-121 34.5h-118v-173h139v-124z" />
    <glyph glyph-name="dcroat" unicode="&#x111;" horiz-adv-x="684" 
d="M284 -10q-59 0 -102.5 23.5t-72.5 63t-43.5 88.5t-14.5 100t14.5 100t43.5 88.5t72.5 63t102.5 23.5q51 0 84 -16.5t50.5 -35.5t21.5 -26h8v112h-130v100h130v86h152v-86h82v-100h-82v-574h-152v68h-8q-4 -7 -21.5 -26t-50.5 -35.5t-84 -16.5zM328 113q41 0 68.5 22.5
t41 57.5t13.5 72t-13.5 72t-41 57.5t-68.5 22.5t-68.5 -22.5t-41 -57.5t-13.5 -72t13.5 -72t41 -57.5t68.5 -22.5z" />
    <glyph glyph-name="Emacron" unicode="&#x112;" horiz-adv-x="646" 
d="M168 825v90h326v-90h-326zM72 0v740h510v-134h-356v-166h310v-129h-310v-177h361v-134h-515z" />
    <glyph glyph-name="emacron" unicode="&#x113;" horiz-adv-x="618" 
d="M154 615v90h326v-90h-326zM322 -10q-70 0 -121 23.5t-84 63t-49.5 88.5t-16.5 101q0 50 16 98.5t48.5 88.5t82.5 63.5t119 23.5q74 0 130 -32t88 -94.5t32 -151.5v-37h-363q3 -48 33.5 -83t84.5 -35q31 0 50.5 9.5t30.5 22t15.5 22.5l4.5 10h140l-5 -18.5t-19 -45.5
t-40.5 -54t-69.5 -45t-107 -18zM204 317h217q-2 55 -32.5 82t-74.5 27t-74.5 -28.5t-35.5 -80.5z" />
    <glyph glyph-name="Edotaccent" unicode="&#x116;" horiz-adv-x="646" 
d="M331 812q-40 0 -65 25.5t-25 61.5t25 61.5t65 25.5q39 0 64.5 -25.5t25.5 -61.5t-25.5 -61.5t-64.5 -25.5zM72 0v740h510v-134h-356v-166h310v-129h-310v-177h361v-134h-515z" />
    <glyph glyph-name="edotaccent" unicode="&#x117;" horiz-adv-x="618" 
d="M317 602q-40 0 -65 25.5t-25 61.5t25 61.5t65 25.5q39 0 64.5 -25.5t25.5 -61.5t-25.5 -61.5t-64.5 -25.5zM322 -10q-70 0 -121 23.5t-84 63t-49.5 88.5t-16.5 101q0 50 16 98.5t48.5 88.5t82.5 63.5t119 23.5q74 0 130 -32t88 -94.5t32 -151.5v-37h-363q3 -48 33.5 -83
t84.5 -35q31 0 50.5 9.5t30.5 22t15.5 22.5l4.5 10h140l-5 -18.5t-19 -45.5t-40.5 -54t-69.5 -45t-107 -18zM204 317h217q-2 55 -32.5 82t-74.5 27t-74.5 -28.5t-35.5 -80.5z" />
    <glyph glyph-name="Eogonek" unicode="&#x118;" horiz-adv-x="646" 
d="M72 0v740h510v-134h-356v-166h310v-129h-310v-177h361v-134l-13 -6.5t-25.5 -19.5t-12.5 -32q0 -15 12.5 -26.5t41.5 -11.5q12 0 23 1.5l11 1.5v-86l-16.5 -2.5t-41.5 -2.5q-73 0 -106.5 29.5t-33.5 70.5q0 30 14.5 50.5t33.5 33.5h-402z" />
    <glyph glyph-name="eogonek" unicode="&#x119;" horiz-adv-x="618" 
d="M355 -188q-73 0 -106.5 30t-33.5 71q0 29 14.5 49.5t32.5 32.5q-72 14 -118.5 55t-69.5 98t-23 118q0 50 16 98.5t48.5 88.5t82.5 63.5t119 23.5q74 0 130 -32t88 -94.5t32 -151.5v-37h-363q3 -48 33.5 -83t84.5 -35q31 0 50.5 9.5t30.5 22t15.5 22.5l4.5 10h140l-4 -16
t-15.5 -40t-33 -49.5t-56.5 -45.5t-86 -27q-10 -5 -26.5 -19t-16.5 -35q0 -16 13 -27.5t41 -11.5q13 0 23.5 2l10.5 2v-86l-16.5 -3t-41.5 -3zM204 317h217q-2 55 -32.5 82t-74.5 27t-74.5 -28.5t-35.5 -80.5z" />
    <glyph glyph-name="Ecaron" unicode="&#x11a;" horiz-adv-x="646" 
d="M270 802l-129 180h119l71 -104l70 104h119l-129 -180h-121zM72 0v740h510v-134h-356v-166h310v-129h-310v-177h361v-134h-515z" />
    <glyph glyph-name="ecaron" unicode="&#x11b;" horiz-adv-x="618" 
d="M256 592l-129 180h119l71 -104l70 104h119l-129 -180h-121zM322 -10q-70 0 -121 23.5t-84 63t-49.5 88.5t-16.5 101q0 50 16 98.5t48.5 88.5t82.5 63.5t119 23.5q74 0 130 -32t88 -94.5t32 -151.5v-37h-363q3 -48 33.5 -83t84.5 -35q31 0 50.5 9.5t30.5 22t15.5 22.5
l4.5 10h140l-5 -18.5t-19 -45.5t-40.5 -54t-69.5 -45t-107 -18zM204 317h217q-2 55 -32.5 82t-74.5 27t-74.5 -28.5t-35.5 -80.5z" />
    <glyph glyph-name="Gbreve" unicode="&#x11e;" horiz-adv-x="790" 
d="M417 807q-56 0 -90.5 17.5t-53.5 43t-26.5 51.5t-9 43.5l-1.5 17.5h100l1.5 -13t9 -29.5t24 -29t46.5 -12.5q29 0 46 12.5t24 29t8.5 29.5l1.5 13h100l-1.5 -17.5t-9 -43.5t-26.5 -51.5t-53.5 -43t-89.5 -17.5zM412 -10q-93 0 -163 32t-116.5 86.5t-69.5 122t-23 138.5
t23.5 139t70 122.5t117.5 87t166 32.5q74 0 127.5 -18.5t89.5 -48t57.5 -62.5t33 -62.5t15 -48l3.5 -18.5h-153l-6 18t-24 42.5t-52.5 43t-90.5 18.5q-73 0 -121.5 -35.5t-73 -91t-24.5 -115.5q0 -62 25 -118.5t73.5 -92t121.5 -35.5q80 0 126.5 41t55.5 111h-192v121h344
v-57q0 -116 -44.5 -194.5t-121 -118t-174.5 -39.5z" />
    <glyph glyph-name="gbreve" unicode="&#x11f;" horiz-adv-x="663" 
d="M331 597q-56 0 -90.5 17.5t-53.5 43t-26.5 51.5t-9 43.5l-1.5 17.5h100l1.5 -13t9 -29.5t24 -29t46.5 -12.5q29 0 46 12.5t24 29t8.5 29.5l1.5 13h100l-1.5 -17.5t-9 -43.5t-26.5 -51.5t-53.5 -43t-89.5 -17.5zM330 -212q-73 0 -121 18t-75.5 45.5t-41 54.5t-17 45.5
l-3.5 18.5h148l3.5 -9.5t14.5 -22t33 -22t57 -9.5q62 0 91.5 35t29.5 92v56h-6q-11 -16 -31 -35t-51 -32t-75 -13q-59 0 -103 22.5t-73 60.5t-44 85t-15 97q0 49 15 96.5t44 85.5t73 60.5t103 22.5q44 0 75.5 -13.5t51.5 -32t30 -35.5h6v71h152v-496q0 -66 -29 -122t-89 -90
t-153 -34zM329 130q41 0 68.5 21t41.5 54.5t14 69.5q0 37 -14 70t-41.5 54t-68.5 21q-42 0 -69.5 -21t-41.5 -54t-14 -70q0 -36 14 -69.5t41.5 -54.5t69.5 -21z" />
    <glyph glyph-name="Gdotaccent" unicode="&#x120;" horiz-adv-x="790" 
d="M417 812q-40 0 -65 25.5t-25 61.5t25 61.5t65 25.5q39 0 64.5 -25.5t25.5 -61.5t-25.5 -61.5t-64.5 -25.5zM412 -10q-93 0 -163 32t-116.5 86.5t-69.5 122t-23 138.5t23.5 139t70 122.5t117.5 87t166 32.5q74 0 127.5 -18.5t89.5 -48t57.5 -62.5t33 -62.5t15 -48
l3.5 -18.5h-153l-6 18t-24 42.5t-52.5 43t-90.5 18.5q-73 0 -121.5 -35.5t-73 -91t-24.5 -115.5q0 -62 25 -118.5t73.5 -92t121.5 -35.5q80 0 126.5 41t55.5 111h-192v121h344v-57q0 -116 -44.5 -194.5t-121 -118t-174.5 -39.5z" />
    <glyph glyph-name="gdotaccent" unicode="&#x121;" horiz-adv-x="663" 
d="M331 602q-40 0 -65 25.5t-25 61.5t25 61.5t65 25.5q39 0 64.5 -25.5t25.5 -61.5t-25.5 -61.5t-64.5 -25.5zM330 -212q-73 0 -121 18t-75.5 45.5t-41 54.5t-17 45.5l-3.5 18.5h148l3.5 -9.5t14.5 -22t33 -22t57 -9.5q62 0 91.5 35t29.5 92v56h-6q-11 -16 -31 -35t-51 -32
t-75 -13q-59 0 -103 22.5t-73 60.5t-44 85t-15 97q0 49 15 96.5t44 85.5t73 60.5t103 22.5q44 0 75.5 -13.5t51.5 -32t30 -35.5h6v71h152v-496q0 -66 -29 -122t-89 -90t-153 -34zM329 130q41 0 68.5 21t41.5 54.5t14 69.5q0 37 -14 70t-41.5 54t-68.5 21q-42 0 -69.5 -21
t-41.5 -54t-14 -70q0 -36 14 -69.5t41.5 -54.5t69.5 -21z" />
    <glyph glyph-name="Hbar" unicode="&#x126;" horiz-adv-x="785" 
d="M98 0v548h-80v114h80v78h155v-78h287v78h155v-78h72v-114h-72v-548h-155v311h-287v-311h-155zM253 445h287v103h-287v-103z" />
    <glyph glyph-name="hbar" unicode="&#x127;" horiz-adv-x="638" 
d="M98 0v574h-90v100h90v86h152v-86h122v-100h-122v-120h5q9 16 26.5 36t47 35t74.5 15q63 0 101.5 -28.5t57 -73t18.5 -93.5v-345h-152v319q0 38 -21 67t-65 29q-34 0 -54 -16t-29 -41t-9 -53v-305h-152z" />
    <glyph glyph-name="Itilde" unicode="&#x128;" horiz-adv-x="298" 
d="M223 824q-27 0 -46.5 9.5t-34 21.5t-27.5 21.5t-26 9.5q-16 0 -22.5 -15t-6.5 -41h-81q0 33 8 67t29.5 57t63.5 23q27 0 47 -9.5t35 -21.5t27.5 -21t25.5 -9q27 0 27 55h82q0 -33 -8 -67t-29.5 -57t-63.5 -23zM72 0v740h154v-740h-154z" />
    <glyph glyph-name="itilde" unicode="&#x129;" horiz-adv-x="302" 
d="M225 614q-27 0 -46.5 9.5t-34 21.5t-27.5 21.5t-26 9.5q-16 0 -22.5 -15t-6.5 -41h-81q0 33 8 67t29.5 57t63.5 23q27 0 47 -9.5t35 -21.5t27.5 -21t25.5 -9q27 0 27 55h82q0 -33 -8 -67t-29.5 -57t-63.5 -23zM75 0v530h152v-530h-152z" />
    <glyph glyph-name="Imacron" unicode="&#x12a;" horiz-adv-x="298" 
d="M-14 825v90h326v-90h-326zM72 0v740h154v-740h-154z" />
    <glyph glyph-name="imacron" unicode="&#x12b;" horiz-adv-x="302" 
d="M-12 615v90h326v-90h-326zM75 0v530h152v-530h-152z" />
    <glyph glyph-name="Iogonek" unicode="&#x12e;" horiz-adv-x="298" 
d="M72 0v740h154v-740l-12.5 -6.5t-25.5 -19.5t-13 -32q0 -15 13 -26.5t41 -11.5q13 0 23.5 1.5l10.5 1.5v-86l-16.5 -2.5t-40.5 -2.5q-74 0 -107 29.5t-33 70.5q0 30 14.5 50.5t33.5 33.5h-42z" />
    <glyph glyph-name="iogonek" unicode="&#x12f;" horiz-adv-x="302" 
d="M151 602q-39 0 -64.5 25.5t-25.5 61.5t25.5 61.5t64.5 25.5t64.5 -25.5t25.5 -61.5t-25.5 -61.5t-64.5 -25.5zM75 0v530h152v-530l-12.5 -6.5t-25.5 -19.5t-13 -32q0 -15 13 -26.5t41 -11.5q13 0 23.5 1.5l10.5 1.5v-86l-16.5 -2.5t-40.5 -2.5q-74 0 -107 29.5t-33 70.5
q0 30 14.5 50.5t33.5 33.5h-40z" />
    <glyph glyph-name="Idotaccent" unicode="&#x130;" horiz-adv-x="298" 
d="M149 812q-39 0 -64.5 25.5t-25.5 61.5t25.5 61.5t64.5 25.5t64.5 -25.5t25.5 -61.5t-25.5 -61.5t-64.5 -25.5zM72 0v740h154v-740h-154z" />
    <glyph glyph-name="dotlessi" unicode="&#x131;" horiz-adv-x="302" 
d="M75 0v530h152v-530h-152z" />
    <glyph glyph-name="Lacute" unicode="&#x139;" horiz-adv-x="647" 
d="M210 813l-113 1l81 180h141zM72 0v740h154v-606h362v-134h-516z" />
    <glyph glyph-name="lacute" unicode="&#x13a;" horiz-adv-x="296" 
d="M205 835l-112 1l80 179h142zM72 0v760h152v-760h-152z" />
    <glyph glyph-name="Lcaron" unicode="&#x13d;" horiz-adv-x="647" 
d="M92 802l-129 180h119l71 -104l70 104h119l-129 -180h-121zM72 0v740h154v-606h362v-134h-516z" />
    <glyph glyph-name="lcaron" unicode="&#x13e;" horiz-adv-x="377" 
d="M68 0v760h152v-760h-152zM293 535l10 225h126l-51 -225h-85z" />
    <glyph glyph-name="Lslash" unicode="&#x141;" horiz-adv-x="660" 
d="M85 0v292l-86 -36v113l86 36v335h154v-271l138 58v-113l-138 -58v-222h362v-134h-516z" />
    <glyph glyph-name="lslash" unicode="&#x142;" horiz-adv-x="414" 
d="M127 0v295l-109 -45v113l109 46l1 351h151v-288l117 49v-114l-117 -48v-359h-152z" />
    <glyph glyph-name="Nacute" unicode="&#x143;" horiz-adv-x="757" 
d="M432 813l-112 1l80 180h142zM72 0v740h141l319 -472v472h153v-740h-143l-317 459v-459h-153z" />
    <glyph glyph-name="nacute" unicode="&#x144;" horiz-adv-x="611" 
d="M365 603l-112 1l81 180h141zM67 0v530h152v-76h5q9 16 26.5 36t47 35t75.5 15q62 0 101 -28.5t57 -73t18 -93.5v-345h-152v319q0 38 -20.5 67t-65.5 29q-34 0 -54 -16t-29 -41t-9 -53v-305h-152z" />
    <glyph glyph-name="Ncaron" unicode="&#x147;" horiz-adv-x="757" 
d="M315 802l-130 180h119l71 -104l71 104h119l-130 -180h-120zM72 0v740h141l319 -472v472h153v-740h-143l-317 459v-459h-153z" />
    <glyph glyph-name="ncaron" unicode="&#x148;" horiz-adv-x="611" 
d="M248 592l-129 180h119l71 -104l70 104h119l-129 -180h-121zM67 0v530h152v-76h5q9 16 26.5 36t47 35t75.5 15q62 0 101 -28.5t57 -73t18 -93.5v-345h-152v319q0 38 -20.5 67t-65.5 29q-34 0 -54 -16t-29 -41t-9 -53v-305h-152z" />
    <glyph glyph-name="Omacron" unicode="&#x14c;" horiz-adv-x="828" 
d="M251 835v90h326v-90h-326zM414 -10q-92 0 -162 32.5t-117.5 87t-71 122.5t-23.5 139t23.5 138.5t71 121.5t117.5 86.5t162 32.5q93 0 163 -32.5t117 -86.5t70.5 -121.5t23.5 -138.5t-23.5 -139t-70.5 -122.5t-117 -87t-163 -32.5zM414 129q70 0 118 35t72 90.5t24 116.5
t-24 116t-72 90t-118 35t-117.5 -35t-71.5 -90t-24 -116t24 -116.5t71.5 -90.5t117.5 -35z" />
    <glyph glyph-name="omacron" unicode="&#x14d;" horiz-adv-x="658" 
d="M166 616v90h325v-90h-325zM329 -10q-89 0 -151 38.5t-94.5 101t-32.5 135.5t32.5 135.5t94.5 101t151 38.5t151 -38.5t94.5 -101t32.5 -135.5t-32.5 -135.5t-94.5 -101t-151 -38.5zM329 114q40 0 68 21t42.5 55.5t14.5 74.5q0 41 -14.5 75t-42.5 55t-68 21t-68 -21
t-42.5 -55t-14.5 -75q0 -40 14.5 -74.5t42.5 -55.5t68 -21z" />
    <glyph glyph-name="Ohungarumlaut" unicode="&#x150;" horiz-adv-x="828" 
d="M373 823l-106 1l46 180h135zM558 823l-106 1l47 180h135zM414 -10q-92 0 -162 32.5t-117.5 87t-71 122.5t-23.5 139t23.5 138.5t71 121.5t117.5 86.5t162 32.5q93 0 163 -32.5t117 -86.5t70.5 -121.5t23.5 -138.5t-23.5 -139t-70.5 -122.5t-117 -87t-163 -32.5zM414 129
q70 0 118 35t72 90.5t24 116.5t-24 116t-72 90t-118 35t-117.5 -35t-71.5 -90t-24 -116t24 -116.5t71.5 -90.5t117.5 -35z" />
    <glyph glyph-name="ohungarumlaut" unicode="&#x151;" horiz-adv-x="658" 
d="M287 604l-106 1l47 179h135zM473 604l-107 1l47 179h135zM329 -10q-89 0 -151 38.5t-94.5 101t-32.5 135.5t32.5 135.5t94.5 101t151 38.5t151 -38.5t94.5 -101t32.5 -135.5t-32.5 -135.5t-94.5 -101t-151 -38.5zM329 114q40 0 68 21t42.5 55.5t14.5 74.5q0 41 -14.5 75
t-42.5 55t-68 21t-68 -21t-42.5 -55t-14.5 -75q0 -40 14.5 -74.5t42.5 -55.5t68 -21z" />
    <glyph glyph-name="OE" unicode="&#x152;" horiz-adv-x="1042" 
d="M978 740v-134h-351v-166h306v-129h-306v-177h356v-134h-554q-101 0 -174 31.5t-121 84.5t-71 119t-23 135t23 135t71 119t121 84.5t174 31.5h549zM195 369q0 -58 24 -111.5t76 -88t135 -34.5h42v468h-42q-83 0 -135 -34t-76 -88t-24 -112z" />
    <glyph glyph-name="oe" unicode="&#x153;" horiz-adv-x="1014" 
d="M325 -10q-88 0 -149 38.5t-93 101t-32 135.5t32 135.5t93 101t149 38.5q65 0 114 -24t82 -70q31 45 78.5 69.5t112.5 24.5q75 0 131.5 -32.5t88 -94.5t31.5 -151v-37h-362q3 -49 33.5 -83.5t84.5 -34.5q31 0 50.5 9.5t30 22t15 22.5l4.5 10h140l-5 -18.5t-18.5 -45.5
t-40.5 -54t-70 -45t-107 -18q-67 0 -115.5 24.5t-80.5 69.5q-33 -45 -82 -69.5t-115 -24.5zM601 321h216q-2 53 -32 78.5t-72 25.5q-45 0 -76 -27.5t-36 -76.5zM325 114q39 0 67 21t43 55.5t15 74.5q0 41 -15 75t-43 55t-67 21q-40 0 -68 -21t-42.5 -55t-14.5 -75
q0 -40 14.5 -74.5t42.5 -55.5t68 -21z" />
    <glyph glyph-name="Racute" unicode="&#x154;" horiz-adv-x="716" 
d="M346 813l-112 1l80 180h141zM72 0v740h300q82 0 140.5 -29t90 -80t31.5 -118q0 -73 -37 -127.5t-105 -79.5l161 -306h-171l-147 285h-109v-285h-154zM370 607h-144v-196h144q51 0 80 28t29 69q0 42 -29 70.5t-80 28.5z" />
    <glyph glyph-name="racute" unicode="&#x155;" horiz-adv-x="447" 
d="M282 603l-112 1l80 180h142zM72 0v530h151v-77h5q9 21 25 41t44 33t72 13q22 0 35 -2.5l13 -2.5v-150l-14.5 3t-37.5 3q-71 0 -106 -38.5t-35 -125.5v-227h-152z" />
    <glyph glyph-name="Rcaron" unicode="&#x158;" horiz-adv-x="716" 
d="M229 802l-130 180h119l71 -104l71 104h119l-130 -180h-120zM72 0v740h300q82 0 140.5 -29t90 -80t31.5 -118q0 -73 -37 -127.5t-105 -79.5l161 -306h-171l-147 285h-109v-285h-154zM370 607h-144v-196h144q51 0 80 28t29 69q0 42 -29 70.5t-80 28.5z" />
    <glyph glyph-name="rcaron" unicode="&#x159;" horiz-adv-x="447" 
d="M165 592l-130 180h119l71 -104l71 104h119l-130 -180h-120zM72 0v530h151v-77h5q9 21 25 41t44 33t72 13q22 0 35 -2.5l13 -2.5v-150l-14.5 3t-37.5 3q-71 0 -106 -38.5t-35 -125.5v-227h-152z" />
    <glyph glyph-name="Sacute" unicode="&#x15a;" horiz-adv-x="666" 
d="M390 813l-112 1l81 180h141zM344 -10q-72 0 -122.5 17.5t-84 45t-53.5 58t-29.5 58t-12 45l-2.5 17.5h156l4.5 -17t19.5 -39.5t46 -39t84 -16.5q65 0 96 27.5t31 65.5q0 34 -23.5 54t-72.5 30l-99 19q-60 11 -111.5 35t-83.5 66.5t-32 109.5q0 68 34 118.5t95.5 78
t144.5 27.5q78 0 129.5 -22.5t82 -55t45 -65.5t19 -55l4.5 -22h-152l-3.5 14t-16.5 32t-39.5 32t-72.5 14q-63 0 -91 -27.5t-28 -59.5q0 -33 28 -51t73 -27l105 -21q60 -11 110 -37t79.5 -69.5t29.5 -107.5q0 -66 -33 -118.5t-97 -83t-157 -30.5z" />
    <glyph glyph-name="sacute" unicode="&#x15b;" horiz-adv-x="541" 
d="M339 603l-112 1l80 180h141zM284 -10q-66 0 -109.5 18t-69 44.5t-37.5 53t-16 44.5l-4 18h141l3.5 -10t13.5 -23t30.5 -23t54.5 -10q41 0 56.5 17t15.5 34q0 36 -58 48l-73 14q-46 9 -86 26.5t-65 49t-25 81.5q0 48 25 86t71.5 60t112.5 22q61 0 101 -16.5t64.5 -41
t36 -49t15.5 -41l4 -16.5h-137l-6 13.5t-24.5 27t-56.5 13.5t-53.5 -15.5t-15.5 -32.5q0 -20 18 -30t46 -16l68 -14q76 -15 125 -52.5t49 -108.5q0 -48 -25 -87t-73 -61.5t-117 -22.5z" />
    <glyph glyph-name="Scedilla" unicode="&#x15e;" horiz-adv-x="666" 
d="M309 -261q-28 0 -54.5 3.5l-26.5 3.5v78l12 -1.5t29 -3t32 -1.5q44 0 58.5 14t14.5 28t-11 23t-31 9q-22 0 -38.5 -9.5l-16.5 -9.5l-53 54l47 69q-65 11 -107.5 38t-67.5 60.5t-37 64.5t-15.5 51.5l-3.5 20.5h156l4.5 -17t19.5 -39.5t46 -39t84 -16.5q65 0 96 27.5
t31 65.5q0 34 -23.5 54t-72.5 30l-99 19q-60 11 -111.5 35t-83.5 66.5t-32 109.5q0 68 34 118.5t95.5 78t144.5 27.5q78 0 129.5 -22.5t82 -55t45 -65.5t19 -55l4.5 -22h-152l-3.5 14t-16.5 32t-39.5 32t-72.5 14q-63 0 -91 -27.5t-28 -59.5q0 -33 28 -51t73 -27l105 -21
q60 -11 110 -37t79.5 -69.5t29.5 -107.5q0 -63 -31 -114.5t-91 -83t-147 -34.5l-22 -30q10 2 22 2q49 0 77 -30t28 -73q0 -31 -16.5 -58.5t-51.5 -44.5t-90 -17z" />
    <glyph glyph-name="scedilla" unicode="&#x15f;" horiz-adv-x="541" 
d="M260 -261q-28 0 -55 3.5l-27 3.5v78l12.5 -1.5t29.5 -3t32 -1.5q43 0 58 14t15 28t-11 23t-31 9q-23 0 -39 -9.5l-16 -9.5l-53 54l46 68q-48 9 -79.5 29.5t-50.5 44.5t-28 46.5t-12 37.5l-3 15h141l3.5 -10t13.5 -23t30.5 -23t54.5 -10q41 0 56.5 17t15.5 34q0 36 -58 48
l-73 14q-46 9 -86 26.5t-65 49t-25 81.5q0 48 25 86t71.5 60t112.5 22q61 0 101 -16.5t64.5 -41t36 -49t15.5 -41l4 -16.5h-137l-6 13.5t-24.5 27t-56.5 13.5t-53.5 -15.5t-15.5 -32.5q0 -20 18 -30t46 -16l68 -14q76 -15 125 -52.5t49 -108.5q0 -67 -48 -114.5t-138 -55.5
l-22 -31q10 2 22 2q49 0 77 -30t28 -73q0 -31 -16.5 -58.5t-51.5 -44.5t-90 -17z" />
    <glyph glyph-name="Scaron" unicode="&#x160;" horiz-adv-x="666" 
d="M273 802l-129 180h119l71 -104l70 104h119l-129 -180h-121zM344 -10q-72 0 -122.5 17.5t-84 45t-53.5 58t-29.5 58t-12 45l-2.5 17.5h156l4.5 -17t19.5 -39.5t46 -39t84 -16.5q65 0 96 27.5t31 65.5q0 34 -23.5 54t-72.5 30l-99 19q-60 11 -111.5 35t-83.5 66.5
t-32 109.5q0 68 34 118.5t95.5 78t144.5 27.5q78 0 129.5 -22.5t82 -55t45 -65.5t19 -55l4.5 -22h-152l-3.5 14t-16.5 32t-39.5 32t-72.5 14q-63 0 -91 -27.5t-28 -59.5q0 -33 28 -51t73 -27l105 -21q60 -11 110 -37t79.5 -69.5t29.5 -107.5q0 -66 -33 -118.5t-97 -83
t-157 -30.5z" />
    <glyph glyph-name="scaron" unicode="&#x161;" horiz-adv-x="541" 
d="M92 751h119l71 -85l70 85h119l-129 -154h-121zM284 -10q-66 0 -109.5 18t-69 44.5t-37.5 53t-16 44.5l-4 18h141l3.5 -10t13.5 -23t30.5 -23t54.5 -10q41 0 56.5 17t15.5 34q0 36 -58 48l-73 14q-46 9 -86 26.5t-65 49t-25 81.5q0 48 25 86t71.5 60t112.5 22
q61 0 101 -16.5t64.5 -41t36 -49t15.5 -41l4 -16.5h-137l-6 13.5t-24.5 27t-56.5 13.5t-53.5 -15.5t-15.5 -32.5q0 -20 18 -30t46 -16l68 -14q76 -15 125 -52.5t49 -108.5q0 -48 -25 -87t-73 -61.5t-117 -22.5z" />
    <glyph glyph-name="uni0162" unicode="&#x162;" horiz-adv-x="686" 
d="M266 0v606h-227v134h608v-134h-227v-606h-13l-28 -40q10 2 21 2q49 0 77 -30t28 -73q0 -31 -16.5 -58.5t-51.5 -44.5t-90 -17q-28 0 -54.5 3.5l-26.5 3.5v78l12 -1.5t29 -3t32 -1.5q44 0 58.5 14t14.5 28t-11 23t-31 9q-22 0 -38.5 -9.5l-16.5 -9.5l-53 54l49 73h-45z
" />
    <glyph glyph-name="uni0163" unicode="&#x163;" horiz-adv-x="438" 
d="M305 -10h-5l-21 -30q10 2 22 2q49 0 77 -30t28 -73q0 -31 -16.5 -58.5t-51.5 -44.5t-90 -17q-28 0 -55 3.5l-27 3.5v78l12.5 -1.5t29.5 -3t32 -1.5q43 0 58 14t15 28t-11 23t-31 9q-23 0 -39 -9.5l-16 -9.5l-53 54l53 78q-42 16 -63 45.5t-27.5 63t-6.5 61.5v234h-90v121
h90v131h152v-131h113v-121h-113v-230q0 -33 17.5 -51t58.5 -18q18 0 33 3l15 3v-117l-27 -4.5t-63 -4.5z" />
    <glyph glyph-name="Tcaron" unicode="&#x164;" horiz-adv-x="686" 
d="M283 801l-130 180h119l71 -104l71 104h119l-130 -180h-120zM266 0v606h-227v134h608v-134h-227v-606h-154z" />
    <glyph glyph-name="tcaron" unicode="&#x165;" horiz-adv-x="444" 
d="M325 591l10 225h126l-52 -225h-84zM305 -10q-62 0 -99 18.5t-56 47t-25 60.5t-6 59v234h-90v121h90v131h152v-131h113v-121h-113v-230q0 -33 17.5 -51t58.5 -18q18 0 33 3l15 3v-117l-27 -4.5t-63 -4.5z" />
    <glyph glyph-name="Tbar" unicode="&#x166;" horiz-adv-x="686" 
d="M266 0v318h-188v104h188v184h-227v134h608v-134h-227v-184h188v-104h-188v-318h-154z" />
    <glyph glyph-name="tbar" unicode="&#x167;" horiz-adv-x="438" 
d="M40 236v107h79v66h-90v121h90v131h152v-131h113v-121h-113v-66h82v-107h-82v-57q0 -33 17.5 -51t58.5 -18q18 0 33 3l15 3v-117l-27 -4.5t-63 -4.5q-62 0 -99 18.5t-56 47t-25 60.5t-6 59v61h-79z" />
    <glyph glyph-name="Utilde" unicode="&#x168;" horiz-adv-x="746" 
d="M445 824q-27 0 -46.5 9.5t-34 21.5t-27.5 21.5t-26 9.5q-16 0 -22.5 -15t-6.5 -41h-81q0 33 8 67t29.5 57t63.5 23q27 0 46.5 -9.5t34.5 -21.5t28 -21t26 -9q27 0 27 55h81q0 -33 -7.5 -67t-29.5 -57t-63 -23zM373 -10q-81 0 -149.5 31t-110 96t-41.5 169v454h154v-454
q0 -64 36 -107.5t111 -43.5t110.5 43.5t35.5 107.5v454h155v-454q0 -104 -41.5 -169t-110.5 -96t-149 -31z" />
    <glyph glyph-name="utilde" unicode="&#x169;" horiz-adv-x="601" 
d="M376 614q-27 0 -46.5 9.5t-34 21.5t-27.5 21.5t-26 9.5q-16 0 -22.5 -15t-6.5 -41h-81q0 33 8 67t29.5 57t63.5 23q27 0 46.5 -9.5t34.5 -21.5t28 -21t26 -9q27 0 27 55h81q0 -33 -7.5 -67t-29.5 -57t-63 -23zM232 -10q-56 0 -92.5 24t-54.5 64.5t-18 91.5v360h151v-330
q0 -38 20.5 -61.5t58.5 -23.5q33 0 52.5 16t28.5 41t9 53v305h152v-530h-152v75h-6q-17 -31 -52.5 -58t-96.5 -27z" />
    <glyph glyph-name="Umacron" unicode="&#x16a;" horiz-adv-x="746" 
d="M208 825v90h326v-90h-326zM373 -10q-81 0 -149.5 31t-110 96t-41.5 169v454h154v-454q0 -64 36 -107.5t111 -43.5t110.5 43.5t35.5 107.5v454h155v-454q0 -104 -41.5 -169t-110.5 -96t-149 -31z" />
    <glyph glyph-name="umacron" unicode="&#x16b;" horiz-adv-x="601" 
d="M139 615v90h326v-90h-326zM232 -10q-56 0 -92.5 24t-54.5 64.5t-18 91.5v360h151v-330q0 -38 20.5 -61.5t58.5 -23.5q33 0 52.5 16t28.5 41t9 53v305h152v-530h-152v75h-6q-17 -31 -52.5 -58t-96.5 -27z" />
    <glyph glyph-name="Uring" unicode="&#x16e;" horiz-adv-x="746" 
d="M371 798q-38 0 -68.5 18t-49 49t-18.5 68q0 38 18.5 68.5t49 49t68.5 18.5q37 0 68 -18.5t49.5 -49t18.5 -68.5q0 -37 -18.5 -68t-49.5 -49t-68 -18zM371 879q23 0 39 15.5t16 38.5t-16 38.5t-39 15.5t-39 -15.5t-16 -38.5t16 -38.5t39 -15.5zM373 -10q-81 0 -149.5 31
t-110 96t-41.5 169v454h154v-454q0 -64 36 -107.5t111 -43.5t110.5 43.5t35.5 107.5v454h155v-454q0 -104 -41.5 -169t-110.5 -96t-149 -31z" />
    <glyph glyph-name="uring" unicode="&#x16f;" horiz-adv-x="601" 
d="M302 588q-38 0 -68.5 18t-49 49t-18.5 68q0 38 18.5 68.5t49 49t68.5 18.5q37 0 68 -18.5t49.5 -49t18.5 -68.5q0 -37 -18.5 -68t-49.5 -49t-68 -18zM302 669q23 0 39 15.5t16 38.5t-16 38.5t-39 15.5t-39 -15.5t-16 -38.5t16 -38.5t39 -15.5zM232 -10q-56 0 -92.5 24
t-54.5 64.5t-18 91.5v360h151v-330q0 -38 20.5 -61.5t58.5 -23.5q33 0 52.5 16t28.5 41t9 53v305h152v-530h-152v75h-6q-17 -31 -52.5 -58t-96.5 -27z" />
    <glyph glyph-name="Uhungarumlaut" unicode="&#x170;" horiz-adv-x="746" 
d="M330 813l-107 1l47 180h135zM515 813l-106 1l46 180h136zM373 -10q-81 0 -149.5 31t-110 96t-41.5 169v454h154v-454q0 -64 36 -107.5t111 -43.5t110.5 43.5t35.5 107.5v454h155v-454q0 -104 -41.5 -169t-110.5 -96t-149 -31z" />
    <glyph glyph-name="uhungarumlaut" unicode="&#x171;" horiz-adv-x="601" 
d="M261 603l-107 1l47 180h135zM446 603l-106 1l46 180h136zM232 -10q-56 0 -92.5 24t-54.5 64.5t-18 91.5v360h151v-330q0 -38 20.5 -61.5t58.5 -23.5q33 0 52.5 16t28.5 41t9 53v305h152v-530h-152v75h-6q-17 -31 -52.5 -58t-96.5 -27z" />
    <glyph glyph-name="Uogonek" unicode="&#x172;" horiz-adv-x="746" 
d="M413 -189q-73 0 -106.5 29.5t-33.5 70.5q0 30 14 50t32 32q-69 9 -125 43.5t-89 96t-33 153.5v454h154v-454q0 -64 36 -107.5t111 -43.5t110.5 43.5t35.5 107.5v454h155v-454q0 -91 -32.5 -152t-87.5 -95.5t-123 -44.5q-5 -2 -16.5 -9.5t-21.5 -19t-10 -28.5
q0 -15 12.5 -26.5t41.5 -11.5q12 0 23 2l11 2v-87l-16.5 -2.5t-41.5 -2.5z" />
    <glyph glyph-name="uogonek" unicode="&#x173;" horiz-adv-x="601" 
d="M232 -10q-56 0 -92.5 24t-54.5 64.5t-18 91.5v360h151v-330q0 -38 20.5 -61.5t58.5 -23.5q33 0 52.5 16t28.5 41t9 53v305h152v-530l-12.5 -6.5t-25.5 -19.5t-13 -32q0 -15 13 -26.5t41 -11.5q13 0 23.5 1.5l10.5 1.5v-86l-16.5 -2.5t-41.5 -2.5q-73 0 -106.5 29.5
t-33.5 70.5q0 30 15 50.5t34 33.5h-40v75h-6q-17 -31 -52.5 -58t-96.5 -27z" />
    <glyph glyph-name="Wcircumflex" unicode="&#x174;" horiz-adv-x="1033" 
d="M328 806l129 180h121l129 -180h-119l-71 104l-70 -104h-119zM200 0l-184 740h154l131 -537l137 537h157l137 -536l130 536h155l-185 -740h-196l-120 471l-119 -471h-197z" />
    <glyph glyph-name="wcircumflex" unicode="&#x175;" horiz-adv-x="884" 
d="M253 596l129 180h121l129 -180h-119l-70 104l-71 -104h-119zM187 0l-164 530h152l95 -344l103 344h138l103 -344l95 344h152l-164 -530h-161l-94 310l-94 -310h-161z" />
    <glyph glyph-name="Ycircumflex" unicode="&#x176;" horiz-adv-x="718" 
d="M171 805l130 180h120l130 -180h-119l-71 104l-71 -104h-119zM282 0v253l-260 487h169l168 -329l168 329h169l-260 -487v-253h-154z" />
    <glyph glyph-name="ycircumflex" unicode="&#x177;" horiz-adv-x="597" 
d="M110 596l129 180h121l129 -180h-119l-71 104l-70 -104h-119zM101 -195q-27 0 -43 2l-16 2v122l13.5 -1t33.5 -1q48 0 79 13.5t54 52.5l-196 535h152l123 -359l120 359h153l-190 -509q-26 -73 -62.5 -121t-89.5 -71.5t-131 -23.5z" />
    <glyph glyph-name="Ydieresis" unicode="&#x178;" horiz-adv-x="718" 
d="M474 800q-38 0 -62.5 24.5t-24.5 58.5q0 35 24.5 59t62.5 24q37 0 61.5 -24t24.5 -59q0 -34 -24.5 -58.5t-61.5 -24.5zM247 800q-38 0 -62 24.5t-24 58.5q0 35 24 59t62 24q37 0 61.5 -24t24.5 -59q0 -34 -24.5 -58.5t-61.5 -24.5zM282 0v253l-260 487h169l168 -329
l168 329h169l-260 -487v-253h-154z" />
    <glyph glyph-name="Zacute" unicode="&#x179;" horiz-adv-x="667" 
d="M377 813l-113 1l81 180h141zM49 0v110l367 495h-367v135h567v-109l-368 -496h368v-135h-567z" />
    <glyph glyph-name="zacute" unicode="&#x17a;" horiz-adv-x="521" 
d="M305 602l-112 1l80 180h142zM44 0v104l266 307h-256v119h438v-104l-266 -307h266v-119h-448z" />
    <glyph glyph-name="Zdotaccent" unicode="&#x17b;" horiz-adv-x="667" 
d="M320 812q-40 0 -65 25.5t-25 61.5t25 61.5t65 25.5q39 0 64.5 -25.5t25.5 -61.5t-25.5 -61.5t-64.5 -25.5zM49 0v110l367 495h-367v135h567v-109l-368 -496h368v-135h-567z" />
    <glyph glyph-name="zdotaccent" unicode="&#x17c;" horiz-adv-x="521" 
d="M248 601q-39 0 -64.5 25.5t-25.5 61.5t25.5 61.5t64.5 25.5t64.5 -25.5t25.5 -61.5t-25.5 -61.5t-64.5 -25.5zM44 0v104l266 307h-256v119h438v-104l-266 -307h266v-119h-448z" />
    <glyph glyph-name="Zcaron" unicode="&#x17d;" horiz-adv-x="667" 
d="M259 802l-129 180h119l71 -104l70 104h119l-129 -180h-121zM49 0v110l367 495h-367v135h567v-109l-368 -496h368v-135h-567z" />
    <glyph glyph-name="zcaron" unicode="&#x17e;" horiz-adv-x="521" 
d="M188 591l-130 180h119l71 -104l71 104h119l-130 -180h-120zM44 0v104l266 307h-256v119h438v-104l-266 -307h266v-119h-448z" />
    <glyph glyph-name="Ohorn" unicode="&#x1a0;" horiz-adv-x="828" 
d="M414 -10q-92 0 -162 32.5t-117.5 87t-71 122.5t-23.5 139t23.5 138.5t71 121.5t117.5 86.5t162 32.5q12 0 24 -1h139q53 0 53 54v58h130v-72q0 -56 -24 -87t-77 -36q64 -55 96.5 -133.5t32.5 -161.5q0 -71 -23.5 -139t-70.5 -122.5t-117 -87t-163 -32.5zM414 129
q70 0 118 35t72 90.5t24 116.5t-24 116t-72 90t-118 35t-117.5 -35t-71.5 -90t-24 -116t24 -116.5t71.5 -90.5t117.5 -35z" />
    <glyph glyph-name="ohorn" unicode="&#x1a1;" horiz-adv-x="669" 
d="M329 -10q-89 0 -151 38.5t-94.5 101t-32.5 135.5t32.5 135.5t94.5 101t151 38.5h127q39 0 39 40v71h122v-76q0 -48 -22.5 -77t-67.5 -34q39 -38 59.5 -90t20.5 -109q0 -73 -32.5 -135.5t-94.5 -101t-151 -38.5zM329 114q40 0 67.5 21t42.5 55.5t15 74.5q0 41 -15 75
t-42.5 55t-67.5 21t-68 -21t-42.5 -55t-14.5 -75q0 -40 14.5 -74.5t42.5 -55.5t68 -21z" />
    <glyph glyph-name="Uhorn" unicode="&#x1af;" horiz-adv-x="746" 
d="M373 -10q-81 0 -149.5 31t-110 96t-41.5 169v454h154v-454q0 -64 36 -107.5t111 -43.5t110.5 43.5t35.5 107.5v454h107q40 0 40 40v71h124v-76q0 -52 -28 -82.5t-83 -30.5h-5v-376q0 -104 -41.5 -169t-110.5 -96t-149 -31z" />
    <glyph glyph-name="uhorn" unicode="&#x1b0;" horiz-adv-x="592" 
d="M223 -10q-56 0 -92.5 24t-54.5 64.5t-18 91.5v360h151v-330q0 -38 20 -61.5t59 -23.5q33 0 52.5 16t28.5 41t9 53v305h105q40 0 40 40v71h122v-76q0 -53 -28 -82.5t-83 -29.5h-4v-453h-152v75h-6q-17 -31 -52.5 -58t-96.5 -27z" />
    <glyph glyph-name="Gcaron" unicode="&#x1e6;" horiz-adv-x="790" 
d="M356 802l-129 180h119l71 -104l70 104h119l-129 -180h-121zM412 -10q-93 0 -163 32t-116.5 86.5t-69.5 122t-23 138.5t23.5 139t70 122.5t117.5 87t166 32.5q74 0 127.5 -18.5t89.5 -48t57.5 -62.5t33 -62.5t15 -48l3.5 -18.5h-153l-6 18t-24 42.5t-52.5 43t-90.5 18.5
q-73 0 -121.5 -35.5t-73 -91t-24.5 -115.5q0 -62 25 -118.5t73.5 -92t121.5 -35.5q80 0 126.5 41t55.5 111h-192v121h344v-57q0 -116 -44.5 -194.5t-121 -118t-174.5 -39.5z" />
    <glyph glyph-name="gcaron" unicode="&#x1e7;" horiz-adv-x="663" 
d="M270 592l-129 180h119l71 -104l70 104h119l-129 -180h-121zM330 -212q-73 0 -121 18t-75.5 45.5t-41 54.5t-17 45.5l-3.5 18.5h148l3.5 -9.5t14.5 -22t33 -22t57 -9.5q62 0 91.5 35t29.5 92v56h-6q-11 -16 -31 -35t-51 -32t-75 -13q-59 0 -103 22.5t-73 60.5t-44 85
t-15 97q0 49 15 96.5t44 85.5t73 60.5t103 22.5q44 0 75.5 -13.5t51.5 -32t30 -35.5h6v71h152v-496q0 -66 -29 -122t-89 -90t-153 -34zM329 130q41 0 68.5 21t41.5 54.5t14 69.5q0 37 -14 70t-41.5 54t-68.5 21q-42 0 -69.5 -21t-41.5 -54t-14 -70q0 -36 14 -69.5
t41.5 -54.5t69.5 -21z" />
    <glyph glyph-name="circumflex" unicode="&#x2c6;" horiz-adv-x="612" 
d="M116 560l130 180h120l130 -180h-119l-71 104l-71 -104h-119z" />
    <glyph glyph-name="caron" unicode="&#x2c7;" horiz-adv-x="438" 
d="M149 592l-130 180h119l71 -104l71 104h119l-130 -180h-120z" />
    <glyph glyph-name="breve" unicode="&#x2d8;" horiz-adv-x="424" 
d="M184 597q-55 0 -89.5 17.5t-53.5 43t-27 51.5t-9 43.5l-1 17.5h100l1.5 -13t8.5 -29.5t23.5 -29t46.5 -12.5t46.5 12.5t24 29t9 29.5l1.5 13h100l-1.5 -17.5t-9.5 -43.5t-26.5 -51.5t-53 -43t-90.5 -17.5z" />
    <glyph glyph-name="dotaccent" unicode="&#x2d9;" horiz-adv-x="206" 
d="M132 600q-39 0 -64.5 25.5t-25.5 60.5q0 37 25.5 62.5t64.5 25.5t64.5 -25.5t25.5 -62.5q0 -35 -25.5 -60.5t-64.5 -25.5z" />
    <glyph glyph-name="ring" unicode="&#x2da;" horiz-adv-x="374" 
d="M187 586q-37 0 -68 18t-49.5 49t-18.5 68q0 38 18.5 68.5t49.5 49t68 18.5q38 0 68.5 -18.5t49 -49t18.5 -68.5q0 -37 -18.5 -68t-49 -49t-68.5 -18zM187 667q23 0 39 15.5t16 38.5t-16 38.5t-39 15.5t-39 -15.5t-16 -38.5t16 -38.5t39 -15.5z" />
    <glyph glyph-name="ogonek" unicode="&#x2db;" horiz-adv-x="235" 
d="M163 -221q-73 0 -106.5 30t-33.5 71q0 33 16.5 54.5t38.5 33.5t38.5 17l16.5 5l51 -26l-13 -6.5t-25.5 -19.5t-12.5 -32q0 -16 12.5 -27.5t41.5 -11.5q12 0 23 2l11 2v-86l-16.5 -3t-41.5 -3z" />
    <glyph glyph-name="tilde" unicode="&#x2dc;" horiz-adv-x="396" 
d="M272 614q-27 0 -46.5 9.5t-34 21.5t-27.5 21.5t-26 9.5q-16 0 -22.5 -15t-6.5 -41h-81q0 33 8 67t29.5 57t63.5 23q27 0 47 -9.5t35 -21.5t27.5 -21t25.5 -9q27 0 27 55h82q0 -33 -8 -67t-29.5 -57t-63.5 -23z" />
    <glyph glyph-name="gravecomb" unicode="&#x300;" 
d="M114 603l-109 181h141l81 -180z" />
    <glyph glyph-name="acutecomb" unicode="&#x301;" 
d="M128 603l-112 1l80 180h141z" />
    <glyph glyph-name="uni0302" unicode="&#x302;" 
d="M24 596l129 180h121l129 -180h-119l-70 104l-71 -104h-119z" />
    <glyph glyph-name="tildecomb" unicode="&#x303;" 
d="M262 614q-27 0 -46.5 9.5t-34 21.5t-27.5 21.5t-26 9.5q-16 0 -22.5 -15t-6.5 -41h-81q0 33 8 67t29.5 57t63.5 23q27 0 47 -9.5t35 -21.5t27.5 -21t25.5 -9q27 0 27 55h82q0 -33 -8 -67t-29.5 -57t-63.5 -23z" />
    <glyph glyph-name="uni0304" unicode="&#x304;" 
d="M79 648v90h326v-90h-326z" />
    <glyph glyph-name="uni0306" unicode="&#x306;" 
d="M174 597q-55 0 -89.5 17.5t-53.5 43t-27 51.5t-9 43.5l-1 17.5h100l1.5 -13t8.5 -29.5t23.5 -29t46.5 -12.5t46.5 12.5t24 29t9 29.5l1.5 13h100l-1.5 -17.5t-9.5 -43.5t-26.5 -51.5t-53 -43t-90.5 -17.5z" />
    <glyph glyph-name="uni0307" unicode="&#x307;" 
d="M170 600q-40 0 -65 25.5t-25 61.5t25 61.5t65 25.5q39 0 64.5 -25.5t25.5 -61.5t-25.5 -61.5t-64.5 -25.5z" />
    <glyph glyph-name="uni0308" unicode="&#x308;" 
d="M390 591q-38 0 -62 24.5t-24 58.5q0 35 24 59t62 24q37 0 61.5 -24t24.5 -59q0 -34 -24.5 -58.5t-61.5 -24.5zM163 591q-38 0 -62 24.5t-24 58.5q0 35 24 59t62 24q37 0 61.5 -24t24.5 -59q0 -34 -24.5 -58.5t-61.5 -24.5z" />
    <glyph glyph-name="hookabovecomb" unicode="&#x309;" 
d="M116 592v33q0 13 5.5 24.5t19.5 17.5l15 8q21 11 32 21.5t11 25.5q0 13 -9.5 23t-27.5 10t-26.5 -9t-10.5 -19t-2 -12h-87q-1 27 11.5 53.5t40.5 44.5t72 18q61 0 96 -31.5t35 -73.5q0 -36 -23.5 -60.5t-59.5 -42.5l-5 -3v-28h-87z" />
    <glyph glyph-name="uni030A" unicode="&#x30a;" 
d="M187 586q-37 0 -68 18t-49.5 49t-18.5 68q0 38 18.5 68.5t49.5 49t68 18.5q38 0 68.5 -18.5t49 -49t18.5 -68.5q0 -37 -18.5 -68t-49 -49t-68.5 -18zM187 667q23 0 39 15.5t16 38.5t-16 38.5t-39 15.5t-39 -15.5t-16 -38.5t16 -38.5t39 -15.5z" />
    <glyph glyph-name="uni030B" unicode="&#x30b;" 
d="M140 603l-106 1l47 180h135zM326 603l-107 1l47 180h135z" />
    <glyph glyph-name="uni030C" unicode="&#x30c;" 
d="M153 592l-129 180h119l71 -104l70 104h119l-129 -180h-121z" />
    <glyph glyph-name="uni0312" unicode="&#x312;" 
d="M191 851l-60 -102q30 -1 50.5 -22.5t20.5 -52.5q0 -33 -22.5 -54.5t-55.5 -21.5q-34 0 -57 21.5t-23 56.5q0 32 21 69t63 96l7 10h56z" />
    <glyph glyph-name="uni031B" unicode="&#x31b;" 
d="M395 641v-76q0 -53 -28 -82.5t-83 -29.5h-178v77h127q40 0 40 40v71h122z" />
    <glyph glyph-name="dotbelowcomb" unicode="&#x323;" 
d="M98 -247q-35 0 -57 23.5t-22 56.5t22 56t57 23q34 0 56.5 -23t22.5 -56t-22.5 -56.5t-56.5 -23.5z" />
    <glyph glyph-name="uni0326" unicode="&#x326;" 
d="M51 -241l60 102q-30 1 -50.5 22.5t-20.5 52.5q0 33 22.5 54.5t55.5 21.5q34 0 57 -21.5t23 -56.5q0 -32 -21 -69t-63 -96l-7 -10h-56z" />
    <glyph glyph-name="uni0327" unicode="&#x327;" 
d="M73 -248q-28 0 -54.5 3.5l-26.5 3.5v81l12 -1.5t29 -3t32 -1.5q44 0 58.5 13.5t14.5 27.5t-11 23.5t-31 9.5q-22 0 -38.5 -9.5l-16.5 -9.5l-53 54l65 95h96l-45 -63q10 2 22 2q49 0 77 -30t28 -73q0 -30 -16.5 -58.5t-51.5 -46t-90 -17.5z" />
    <glyph glyph-name="uni0328" unicode="&#x328;" 
d="M169 -221q-73 0 -106.5 30t-33.5 71q0 33 16.5 54.5t38.5 33.5t38.5 17l16.5 5l51 -26l-13 -6.5t-25.5 -19.5t-12.5 -32q0 -16 12.5 -27.5t41.5 -11.5q12 0 23 2l11 2v-86l-16.5 -3t-41.5 -3z" />
    <glyph glyph-name="uni1E20" unicode="&#x1e20;" horiz-adv-x="790" 
d="M254 825v90h325v-90h-325zM412 -10q-93 0 -163 32t-116.5 86.5t-69.5 122t-23 138.5t23.5 139t70 122.5t117.5 87t166 32.5q74 0 127.5 -18.5t89.5 -48t57.5 -62.5t33 -62.5t15 -48l3.5 -18.5h-153l-6 18t-24 42.5t-52.5 43t-90.5 18.5q-73 0 -121.5 -35.5t-73 -91
t-24.5 -115.5q0 -62 25 -118.5t73.5 -92t121.5 -35.5q80 0 126.5 41t55.5 111h-192v121h344v-57q0 -116 -44.5 -194.5t-121 -118t-174.5 -39.5z" />
    <glyph glyph-name="uni1E21" unicode="&#x1e21;" horiz-adv-x="663" 
d="M168 615v90h325v-90h-325zM330 -212q-73 0 -121 18t-75.5 45.5t-41 54.5t-17 45.5l-3.5 18.5h148l3.5 -9.5t14.5 -22t33 -22t57 -9.5q62 0 91.5 35t29.5 92v56h-6q-11 -16 -31 -35t-51 -32t-75 -13q-59 0 -103 22.5t-73 60.5t-44 85t-15 97q0 49 15 96.5t44 85.5t73 60.5
t103 22.5q44 0 75.5 -13.5t51.5 -32t30 -35.5h6v71h152v-496q0 -66 -29 -122t-89 -90t-153 -34zM329 130q41 0 68.5 21t41.5 54.5t14 69.5q0 37 -14 70t-41.5 54t-68.5 21q-42 0 -69.5 -21t-41.5 -54t-14 -70q0 -36 14 -69.5t41.5 -54.5t69.5 -21z" />
    <glyph glyph-name="Wgrave" unicode="&#x1e80;" horiz-adv-x="1033" 
d="M463 813l-109 181h141l81 -180zM200 0l-184 740h154l131 -537l137 537h157l137 -536l130 536h155l-185 -740h-196l-120 471l-119 -471h-197z" />
    <glyph glyph-name="wgrave" unicode="&#x1e81;" horiz-adv-x="884" 
d="M389 603l-110 181h141l81 -180zM187 0l-164 530h152l95 -344l103 344h138l103 -344l95 344h152l-164 -530h-161l-94 310l-94 -310h-161z" />
    <glyph glyph-name="Wacute" unicode="&#x1e82;" horiz-adv-x="1033" 
d="M574 813l-113 1l81 180h141zM200 0l-184 740h154l131 -537l137 537h157l137 -536l130 536h155l-185 -740h-196l-120 471l-119 -471h-197z" />
    <glyph glyph-name="wacute" unicode="&#x1e83;" horiz-adv-x="884" 
d="M499 603l-112 1l80 180h142zM187 0l-164 530h152l95 -344l103 344h138l103 -344l95 344h152l-164 -530h-161l-94 310l-94 -310h-161z" />
    <glyph glyph-name="Wdieresis" unicode="&#x1e84;" horiz-adv-x="1033" 
d="M630 801q-38 0 -62 24.5t-24 58.5q0 35 24 59t62 24q37 0 61.5 -24t24.5 -59q0 -34 -24.5 -58.5t-61.5 -24.5zM403 801q-38 0 -62 24.5t-24 58.5q0 35 24 59t62 24q37 0 61.5 -24t24.5 -59q0 -34 -24.5 -58.5t-61.5 -24.5zM200 0l-184 740h154l131 -537l137 537h157
l137 -536l130 536h155l-185 -740h-196l-120 471l-119 -471h-197z" />
    <glyph glyph-name="wdieresis" unicode="&#x1e85;" horiz-adv-x="884" 
d="M555 591q-38 0 -62 24.5t-24 58.5q0 35 24 59t62 24q37 0 61.5 -24t24.5 -59q0 -34 -24.5 -58.5t-61.5 -24.5zM329 591q-38 0 -62.5 24.5t-24.5 58.5q0 35 24.5 59t62.5 24q37 0 61.5 -24t24.5 -59q0 -34 -24.5 -58.5t-61.5 -24.5zM187 0l-164 530h152l95 -344l103 344
h138l103 -344l95 344h152l-164 -530h-161l-94 310l-94 -310h-161z" />
    <glyph glyph-name="uni1E9E" unicode="&#x1e9e;" horiz-adv-x="712" 
d="M384 -10q-40 0 -67 4l-27 4v125l21.5 -3t48.5 -3q55 0 88.5 15t48 38.5t14.5 50.5q0 43 -35 69t-109 26h-34l-1 84l143 213l-13.5 2.5t-33.5 5t-40 2.5q-82 0 -125 -50.5t-43 -138.5v-435h-152v435q0 56 16.5 112t54.5 102.5t102.5 74t159.5 27.5q66 0 118.5 -11
t83 -22.5l30.5 -11.5v-73l-152 -228q44 -7 86.5 -30.5t70.5 -64.5t28 -99q0 -56 -29.5 -106t-92 -82t-160.5 -32z" />
    <glyph glyph-name="uni1EA0" unicode="&#x1ea0;" horiz-adv-x="769" 
d="M30 0l252 740h205l252 -740h-162l-48 145h-289l-48 -145h-162zM282 279h205l-102 309zM385 -247q-35 0 -57.5 23.5t-22.5 56.5t22.5 56t57.5 23q34 0 56.5 -23t22.5 -56t-22.5 -56.5t-56.5 -23.5z" />
    <glyph glyph-name="uni1EA1" unicode="&#x1ea1;" horiz-adv-x="663" 
d="M286 540q51 0 84 -16.5t50.5 -35.5t21.5 -26h8v68h152v-530h-152v68h-8q-4 -7 -21.5 -26t-50.5 -35.5t-84 -16.5q-59 0 -102.5 23.5t-72.5 63t-43.5 88.5t-14.5 100t14.5 100t43.5 88.5t72.5 63t102.5 23.5zM330 417q-41 0 -68.5 -22.5t-41 -57.5t-13.5 -72t13.5 -72
t41 -57.5t68.5 -22.5t68.5 22.5t41 57.5t13.5 72t-13.5 72t-41 57.5t-68.5 22.5zM332 -247q-35 0 -57.5 23.5t-22.5 56.5t22.5 56t57.5 23q34 0 56.5 -23t22.5 -56t-22.5 -56.5t-56.5 -23.5z" />
    <glyph glyph-name="uni1EA2" unicode="&#x1ea2;" horiz-adv-x="769" 
d="M342 802v33q0 13 5.5 24.5t19.5 17.5l15 8q21 11 32 21.5t11 25.5q0 13 -9.5 23t-27.5 10t-26.5 -9t-10.5 -19t-2 -12h-87q-1 27 11.5 53.5t40.5 44.5t73 18q60 0 95 -31.5t35 -73.5q0 -36 -23.5 -60.5t-59.5 -42.5l-5 -3v-28h-87zM30 0l252 740h205l252 -740h-162
l-48 145h-289l-48 -145h-162zM282 279h205l-102 309z" />
    <glyph glyph-name="uni1EA3" unicode="&#x1ea3;" horiz-adv-x="663" 
d="M289 592v33q0 13 5.5 24.5t19.5 17.5l15 8q21 11 32 21.5t11 25.5q0 13 -9.5 23t-27.5 10t-26.5 -9t-10.5 -19t-2 -12h-87q-1 27 11.5 53.5t40.5 44.5t73 18q60 0 95 -31.5t35 -73.5q0 -36 -23.5 -60.5t-59.5 -42.5l-5 -3v-28h-87zM286 540q51 0 84 -16.5t50.5 -35.5
t21.5 -26h8v68h152v-530h-152v68h-8q-4 -7 -21.5 -26t-50.5 -35.5t-84 -16.5q-59 0 -102.5 23.5t-72.5 63t-43.5 88.5t-14.5 100t14.5 100t43.5 88.5t72.5 63t102.5 23.5zM330 417q-41 0 -68.5 -22.5t-41 -57.5t-13.5 -72t13.5 -72t41 -57.5t68.5 -22.5t68.5 22.5t41 57.5
t13.5 72t-13.5 72t-41 57.5t-68.5 22.5z" />
    <glyph glyph-name="uni1EA4" unicode="&#x1ea4;" horiz-adv-x="769" 
d="M625 935l-113 1l81 179h141zM195 806l129 154h121l129 -154h-119l-70 85l-71 -85h-119zM30 0l252 740h205l252 -740h-162l-48 145h-289l-48 -145h-162zM282 279h205l-102 309z" />
    <glyph glyph-name="uni1EA5" unicode="&#x1ea5;" horiz-adv-x="663" 
d="M572 725l-113 1l81 179h141zM142 596l129 154h121l129 -154h-119l-70 85l-71 -85h-119zM286 540q51 0 84 -16.5t50.5 -35.5t21.5 -26h8v68h152v-530h-152v68h-8q-4 -7 -21.5 -26t-50.5 -35.5t-84 -16.5q-59 0 -102.5 23.5t-72.5 63t-43.5 88.5t-14.5 100t14.5 100
t43.5 88.5t72.5 63t102.5 23.5zM330 417q-41 0 -68.5 -22.5t-41 -57.5t-13.5 -72t13.5 -72t41 -57.5t68.5 -22.5t68.5 22.5t41 57.5t13.5 72t-13.5 72t-41 57.5t-68.5 22.5z" />
    <glyph glyph-name="uni1EA6" unicode="&#x1ea6;" horiz-adv-x="769" 
d="M535 935l-110 180h142l80 -179zM196 806l129 154h121l129 -154h-119l-71 85l-70 -85h-119zM30 0l252 740h205l252 -740h-162l-48 145h-289l-48 -145h-162zM282 279h205l-102 309z" />
    <glyph glyph-name="uni1EA7" unicode="&#x1ea7;" horiz-adv-x="663" 
d="M482 725l-110 180h142l80 -179zM143 596l129 154h121l129 -154h-119l-71 85l-70 -85h-119zM286 540q51 0 84 -16.5t50.5 -35.5t21.5 -26h8v68h152v-530h-152v68h-8q-4 -7 -21.5 -26t-50.5 -35.5t-84 -16.5q-59 0 -102.5 23.5t-72.5 63t-43.5 88.5t-14.5 100t14.5 100
t43.5 88.5t72.5 63t102.5 23.5zM330 417q-41 0 -68.5 -22.5t-41 -57.5t-13.5 -72t13.5 -72t41 -57.5t68.5 -22.5t68.5 22.5t41 57.5t13.5 72t-13.5 72t-41 57.5t-68.5 22.5z" />
    <glyph glyph-name="uni1EA8" unicode="&#x1ea8;" horiz-adv-x="769" 
d="M534 919v33q0 13 5.5 24t19.5 18l15 8q21 10 32 21t11 26q0 13 -9.5 22.5t-27.5 9.5t-26.5 -8.5t-10.5 -18.5t-2 -12h-87q-1 27 11.5 53.5t40.5 44.5t73 18q60 0 95 -31.5t35 -74.5q0 -35 -23.5 -59.5t-59.5 -43.5l-5 -2v-28h-87zM192 806l129 154h121l129 -154h-119
l-70 85l-71 -85h-119zM30 0l252 740h205l252 -740h-162l-48 145h-289l-48 -145h-162zM282 279h205l-102 309z" />
    <glyph glyph-name="uni1EA9" unicode="&#x1ea9;" horiz-adv-x="663" 
d="M481 709v33q0 13 5.5 24t19.5 18l15 8q21 10 32 21t11 26q0 13 -9.5 22.5t-27.5 9.5t-26.5 -8.5t-10.5 -18.5t-2 -12h-87q-1 27 11.5 53.5t40.5 44.5t73 18q60 0 95 -31.5t35 -74.5q0 -35 -23.5 -59.5t-59.5 -43.5l-5 -2v-28h-87zM139 596l129 154h121l129 -154h-119
l-70 85l-71 -85h-119zM286 540q51 0 84 -16.5t50.5 -35.5t21.5 -26h8v68h152v-530h-152v68h-8q-4 -7 -21.5 -26t-50.5 -35.5t-84 -16.5q-59 0 -102.5 23.5t-72.5 63t-43.5 88.5t-14.5 100t14.5 100t43.5 88.5t72.5 63t102.5 23.5zM330 417q-41 0 -68.5 -22.5t-41 -57.5
t-13.5 -72t13.5 -72t41 -57.5t68.5 -22.5t68.5 22.5t41 57.5t13.5 72t-13.5 72t-41 57.5t-68.5 22.5z" />
    <glyph glyph-name="uni1EAA" unicode="&#x1eaa;" horiz-adv-x="769" 
d="M456 996q-27 0 -46.5 9.5t-34 21.5t-27 21.5t-26.5 9.5q-16 0 -22 -15t-6 -41h-82q0 33 8 67t30 57t63 23q27 0 47 -9.5t35 -21.5t27.5 -21t25.5 -9q27 0 27 55h82q0 -33 -8 -67t-29.5 -57t-63.5 -23zM195 806l129 154h121l129 -154h-119l-71 85l-70 -85h-119zM30 0
l252 740h205l252 -740h-162l-48 145h-289l-48 -145h-162zM282 279h205l-102 309z" />
    <glyph glyph-name="uni1EAB" unicode="&#x1eab;" horiz-adv-x="663" 
d="M403 786q-27 0 -46.5 9.5t-34 21.5t-27 21.5t-26.5 9.5q-16 0 -22 -15t-6 -41h-82q0 33 8 67t30 57t63 23q27 0 47 -9.5t35 -21.5t27.5 -21t25.5 -9q27 0 27 55h82q0 -33 -8 -67t-29.5 -57t-63.5 -23zM142 596l129 154h121l129 -154h-119l-71 85l-70 -85h-119zM286 540
q51 0 84 -16.5t50.5 -35.5t21.5 -26h8v68h152v-530h-152v68h-8q-4 -7 -21.5 -26t-50.5 -35.5t-84 -16.5q-59 0 -102.5 23.5t-72.5 63t-43.5 88.5t-14.5 100t14.5 100t43.5 88.5t72.5 63t102.5 23.5zM330 417q-41 0 -68.5 -22.5t-41 -57.5t-13.5 -72t13.5 -72t41 -57.5
t68.5 -22.5t68.5 22.5t41 57.5t13.5 72t-13.5 72t-41 57.5t-68.5 22.5z" />
    <glyph glyph-name="uni1EAC" unicode="&#x1eac;" horiz-adv-x="769" 
d="M196 806l129 154h121l129 -154h-119l-71 85l-70 -85h-119zM30 0l252 740h205l252 -740h-162l-48 145h-289l-48 -145h-162zM282 279h205l-102 309zM385 -247q-35 0 -57.5 23.5t-22.5 56.5t22.5 56t57.5 23q34 0 56.5 -23t22.5 -56t-22.5 -56.5t-56.5 -23.5z" />
    <glyph glyph-name="uni1EAD" unicode="&#x1ead;" horiz-adv-x="663" 
d="M143 596l129 180h121l129 -180h-119l-71 104l-70 -104h-119zM286 540q51 0 84 -16.5t50.5 -35.5t21.5 -26h8v68h152v-530h-152v68h-8q-4 -7 -21.5 -26t-50.5 -35.5t-84 -16.5q-59 0 -102.5 23.5t-72.5 63t-43.5 88.5t-14.5 100t14.5 100t43.5 88.5t72.5 63t102.5 23.5z
M330 417q-41 0 -68.5 -22.5t-41 -57.5t-13.5 -72t13.5 -72t41 -57.5t68.5 -22.5t68.5 22.5t41 57.5t13.5 72t-13.5 72t-41 57.5t-68.5 22.5zM332 -247q-35 0 -57.5 23.5t-22.5 56.5t22.5 56t57.5 23q34 0 56.5 -23t22.5 -56t-22.5 -56.5t-56.5 -23.5z" />
    <glyph glyph-name="uni1EAE" unicode="&#x1eae;" horiz-adv-x="769" 
d="M442 995l-113 1l81 180h141zM385 807q-55 0 -89.5 16t-53.5 39t-27 46.5t-9.5 39.5l-1.5 16h100l2 -11t9.5 -24.5t24 -24t45.5 -10.5t45.5 10.5t24 24t9 24.5l1.5 11h100l-1.5 -16t-9.5 -39.5t-27 -46.5t-53 -39t-89 -16zM30 0l252 740h205l252 -740h-162l-48 145h-289
l-48 -145h-162zM282 279h205l-102 309z" />
    <glyph glyph-name="uni1EAF" unicode="&#x1eaf;" horiz-adv-x="663" 
d="M389 785l-113 1l81 180h141zM332 597q-55 0 -89.5 16t-53.5 39t-27 46.5t-9.5 39.5l-1.5 16h100l2 -11t9.5 -24.5t24 -24t45.5 -10.5t45.5 10.5t24 24t9 24.5l1.5 11h100l-1.5 -16t-9.5 -39.5t-27 -46.5t-53 -39t-89 -16zM286 540q51 0 84 -16.5t50.5 -35.5t21.5 -26h8
v68h152v-530h-152v68h-8q-4 -7 -21.5 -26t-50.5 -35.5t-84 -16.5q-59 0 -102.5 23.5t-72.5 63t-43.5 88.5t-14.5 100t14.5 100t43.5 88.5t72.5 63t102.5 23.5zM330 417q-41 0 -68.5 -22.5t-41 -57.5t-13.5 -72t13.5 -72t41 -57.5t68.5 -22.5t68.5 22.5t41 57.5t13.5 72
t-13.5 72t-41 57.5t-68.5 22.5z" />
    <glyph glyph-name="uni1EB0" unicode="&#x1eb0;" horiz-adv-x="769" 
d="M331 995l-110 181h141l81 -180zM384 807q-55 0 -89.5 16t-53 39t-26.5 46.5t-9.5 39.5l-1.5 16h99l2 -11t9.5 -24.5t24 -24t45.5 -10.5t45.5 10.5t24 24t9.5 24.5l2 11h99l-1.5 -16t-9.5 -39.5t-26.5 -46.5t-53 -39t-89.5 -16zM30 0l252 740h205l252 -740h-162l-48 145
h-289l-48 -145h-162zM282 279h205l-102 309z" />
    <glyph glyph-name="uni1EB1" unicode="&#x1eb1;" horiz-adv-x="663" 
d="M278 785l-110 181h141l81 -180zM331 597q-55 0 -89.5 16t-53 39t-26.5 46.5t-9.5 39.5l-1.5 16h99l2 -11t9.5 -24.5t24 -24t45.5 -10.5t45.5 10.5t24 24t9.5 24.5l2 11h99l-1.5 -16t-9.5 -39.5t-26.5 -46.5t-53 -39t-89.5 -16zM286 540q51 0 84 -16.5t50.5 -35.5
t21.5 -26h8v68h152v-530h-152v68h-8q-4 -7 -21.5 -26t-50.5 -35.5t-84 -16.5q-59 0 -102.5 23.5t-72.5 63t-43.5 88.5t-14.5 100t14.5 100t43.5 88.5t72.5 63t102.5 23.5zM330 417q-41 0 -68.5 -22.5t-41 -57.5t-13.5 -72t13.5 -72t41 -57.5t68.5 -22.5t68.5 22.5t41 57.5
t13.5 72t-13.5 72t-41 57.5t-68.5 22.5z" />
    <glyph glyph-name="uni1EB2" unicode="&#x1eb2;" horiz-adv-x="769" 
d="M341 984v33q0 13 5.5 24t19.5 18l15 8q21 10 32 21t11 26q0 13 -9.5 22.5t-27.5 9.5t-26.5 -8.5t-10.5 -18.5t-2 -12h-87q0 27 12.5 53.5t40 44.5t72.5 18q60 0 95.5 -31.5t35.5 -74.5q0 -35 -23.5 -59.5t-60.5 -43.5l-5 -2v-28h-87zM384 807q-55 0 -89.5 16t-53 39
t-26.5 46.5t-9.5 39.5l-1.5 16h99l2 -11t9.5 -24.5t24 -24t45.5 -10.5t45.5 10.5t24 24t9.5 24.5l2 11h99l-1.5 -16t-9.5 -39.5t-26.5 -46.5t-53 -39t-89.5 -16zM30 0l252 740h205l252 -740h-162l-48 145h-289l-48 -145h-162zM282 279h205l-102 309z" />
    <glyph glyph-name="uni1EB3" unicode="&#x1eb3;" horiz-adv-x="663" 
d="M288 774v33q0 13 5.5 24t19.5 18l15 8q21 10 32 21t11 26q0 13 -9.5 22.5t-27.5 9.5t-26.5 -8.5t-10.5 -18.5t-2 -12h-87q0 27 12.5 53.5t40 44.5t72.5 18q60 0 95.5 -31.5t35.5 -74.5q0 -35 -23.5 -59.5t-60.5 -43.5l-5 -2v-28h-87zM331 597q-55 0 -89.5 16t-53 39
t-26.5 46.5t-9.5 39.5l-1.5 16h99l2 -11t9.5 -24.5t24 -24t45.5 -10.5t45.5 10.5t24 24t9.5 24.5l2 11h99l-1.5 -16t-9.5 -39.5t-26.5 -46.5t-53 -39t-89.5 -16zM286 540q51 0 84 -16.5t50.5 -35.5t21.5 -26h8v68h152v-530h-152v68h-8q-4 -7 -21.5 -26t-50.5 -35.5
t-84 -16.5q-59 0 -102.5 23.5t-72.5 63t-43.5 88.5t-14.5 100t14.5 100t43.5 88.5t72.5 63t102.5 23.5zM330 417q-41 0 -68.5 -22.5t-41 -57.5t-13.5 -72t13.5 -72t41 -57.5t68.5 -22.5t68.5 22.5t41 57.5t13.5 72t-13.5 72t-41 57.5t-68.5 22.5z" />
    <glyph glyph-name="uni1EB4" unicode="&#x1eb4;" horiz-adv-x="769" 
d="M459 1010q-27 0 -46.5 9t-34.5 21.5t-27.5 22t-26.5 9.5q-16 0 -22 -15t-6 -41h-81q0 33 7.5 67t29.5 57t63 23q28 0 47.5 -9.5t34.5 -21.5t27.5 -21.5t25.5 -9.5q28 0 28 56h81q0 -33 -8 -67t-29.5 -57t-62.5 -23zM385 807q-55 0 -89.5 16t-53.5 39t-27 46.5t-9.5 39.5
l-1.5 16h100l2 -11t9.5 -24.5t24 -24t45.5 -10.5t45.5 10.5t24 24t9 24.5l1.5 11h100l-1.5 -16t-9.5 -39.5t-27 -46.5t-53 -39t-89 -16zM30 0l252 740h205l252 -740h-162l-48 145h-289l-48 -145h-162zM282 279h205l-102 309z" />
    <glyph glyph-name="uni1EB5" unicode="&#x1eb5;" horiz-adv-x="663" 
d="M406 800q-27 0 -46.5 9t-34.5 21.5t-27.5 22t-26.5 9.5q-16 0 -22 -15t-6 -41h-81q0 33 7.5 67t29.5 57t63 23q28 0 47.5 -9.5t34.5 -21.5t27.5 -21.5t25.5 -9.5q28 0 28 56h81q0 -33 -8 -67t-29.5 -57t-62.5 -23zM332 597q-55 0 -89.5 16t-53.5 39t-27 46.5t-9.5 39.5
l-1.5 16h100l2 -11t9.5 -24.5t24 -24t45.5 -10.5t45.5 10.5t24 24t9 24.5l1.5 11h100l-1.5 -16t-9.5 -39.5t-27 -46.5t-53 -39t-89 -16zM286 540q51 0 84 -16.5t50.5 -35.5t21.5 -26h8v68h152v-530h-152v68h-8q-4 -7 -21.5 -26t-50.5 -35.5t-84 -16.5q-59 0 -102.5 23.5
t-72.5 63t-43.5 88.5t-14.5 100t14.5 100t43.5 88.5t72.5 63t102.5 23.5zM330 417q-41 0 -68.5 -22.5t-41 -57.5t-13.5 -72t13.5 -72t41 -57.5t68.5 -22.5t68.5 22.5t41 57.5t13.5 72t-13.5 72t-41 57.5t-68.5 22.5z" />
    <glyph glyph-name="uni1EB6" unicode="&#x1eb6;" horiz-adv-x="769" 
d="M385 807q-55 0 -89.5 16t-53.5 39t-27 46.5t-9.5 39.5l-1.5 16h100l2 -11t9.5 -24.5t24 -24t45.5 -10.5t45.5 10.5t24 24t9 24.5l1.5 11h100l-1.5 -16t-9.5 -39.5t-27 -46.5t-53 -39t-89 -16zM30 0l252 740h205l252 -740h-162l-48 145h-289l-48 -145h-162zM282 279h205
l-102 309zM385 -247q-35 0 -57.5 23.5t-22.5 56.5t22.5 56t57.5 23q34 0 56.5 -23t22.5 -56t-22.5 -56.5t-56.5 -23.5z" />
    <glyph glyph-name="uni1EB7" unicode="&#x1eb7;" horiz-adv-x="663" 
d="M332 597q-56 0 -90.5 17.5t-53 43t-26.5 51.5t-9.5 43.5l-1.5 17.5h100l1.5 -13t9 -29.5t24 -29t46.5 -12.5t46.5 12.5t23.5 29t8.5 29.5l1.5 13h100l-1 -17.5t-9 -43.5t-27 -51.5t-53.5 -43t-89.5 -17.5zM286 540q51 0 84 -16.5t50.5 -35.5t21.5 -26h8v68h152v-530h-152
v68h-8q-4 -7 -21.5 -26t-50.5 -35.5t-84 -16.5q-59 0 -102.5 23.5t-72.5 63t-43.5 88.5t-14.5 100t14.5 100t43.5 88.5t72.5 63t102.5 23.5zM330 417q-41 0 -68.5 -22.5t-41 -57.5t-13.5 -72t13.5 -72t41 -57.5t68.5 -22.5t68.5 22.5t41 57.5t13.5 72t-13.5 72t-41 57.5
t-68.5 22.5zM332 -247q-35 0 -57.5 23.5t-22.5 56.5t22.5 56t57.5 23q34 0 56.5 -23t22.5 -56t-22.5 -56.5t-56.5 -23.5z" />
    <glyph glyph-name="uni1EB8" unicode="&#x1eb8;" horiz-adv-x="646" 
d="M72 0v740h510v-134h-356v-166h310v-129h-310v-177h361v-134h-515zM305 -247q-35 0 -57.5 23.5t-22.5 56.5t22.5 56t57.5 23q34 0 56.5 -23t22.5 -56t-22.5 -56.5t-56.5 -23.5z" />
    <glyph glyph-name="uni1EB9" unicode="&#x1eb9;" horiz-adv-x="618" 
d="M322 -10q-70 0 -121 23.5t-84 63t-49.5 88.5t-16.5 101q0 50 16 98.5t48.5 88.5t82.5 63.5t119 23.5q74 0 130 -32t88 -94.5t32 -151.5v-37h-363q3 -48 33.5 -83t84.5 -35q31 0 50.5 9.5t30.5 22t15.5 22.5l4.5 10h140l-5 -18.5t-19 -45.5t-40.5 -54t-69.5 -45t-107 -18z
M204 317h217q-2 55 -32.5 82t-74.5 27t-74.5 -28.5t-35.5 -80.5zM317 -246q-35 0 -57.5 23.5t-22.5 55.5q0 33 22.5 56.5t57.5 23.5q34 0 56.5 -23.5t22.5 -56.5q0 -32 -22.5 -55.5t-56.5 -23.5z" />
    <glyph glyph-name="uni1EBA" unicode="&#x1eba;" horiz-adv-x="646" 
d="M288 802v33q0 13 5.5 24.5t19.5 17.5l15 8q21 11 32 21.5t11 25.5q0 13 -9.5 23t-27.5 10t-26.5 -9t-10.5 -19t-2 -12h-87q-1 27 11.5 53.5t40.5 44.5t73 18q60 0 95 -31.5t35 -73.5q0 -36 -23.5 -60.5t-59.5 -42.5l-5 -3v-28h-87zM72 0v740h510v-134h-356v-166h310v-129
h-310v-177h361v-134h-515z" />
    <glyph glyph-name="uni1EBB" unicode="&#x1ebb;" horiz-adv-x="618" 
d="M274 592v33q0 13 5.5 24.5t19.5 18.5l15 7q21 11 32 21.5t11 26.5q0 12 -9.5 22t-27.5 10t-26.5 -9t-10.5 -18.5t-2 -12.5h-87q-1 27 11.5 54t40.5 44.5t73 17.5q60 0 95 -31t35 -74q0 -36 -23.5 -60t-59.5 -43l-5 -3v-28h-87zM322 -10q-70 0 -121 23.5t-84 63
t-49.5 88.5t-16.5 101q0 50 16 98.5t48.5 88.5t82.5 63.5t119 23.5q74 0 130 -32t88 -94.5t32 -151.5v-37h-363q3 -48 33.5 -83t84.5 -35q31 0 50.5 9.5t30.5 22t15.5 22.5l4.5 10h140l-5 -18.5t-19 -45.5t-40.5 -54t-69.5 -45t-107 -18zM204 317h217q-2 55 -32.5 82
t-74.5 27t-74.5 -28.5t-35.5 -80.5z" />
    <glyph glyph-name="uni1EBC" unicode="&#x1ebc;" horiz-adv-x="646" 
d="M405 824q-27 0 -46.5 9.5t-34.5 21.5t-27.5 21.5t-26.5 9.5q-16 0 -22 -15t-6 -41h-81q0 33 7.5 67t29.5 57t63 23q28 0 47.5 -9.5t34.5 -21.5t27.5 -21t25.5 -9q28 0 28 55h81q0 -33 -8 -67t-29.5 -57t-62.5 -23zM72 0v740h510v-134h-356v-166h310v-129h-310v-177h361
v-134h-515z" />
    <glyph glyph-name="uni1EBD" unicode="&#x1ebd;" horiz-adv-x="618" 
d="M391 614q-27 0 -46.5 9.5t-34.5 21.5t-27.5 21.5t-26.5 9.5q-15 0 -21.5 -15t-6.5 -41h-81q0 33 7.5 67t29.5 57t63 23q28 0 47.5 -9t34.5 -21.5t27.5 -21.5t25.5 -9q28 0 28 56h81q0 -33 -8 -67.5t-29.5 -57.5t-62.5 -23zM322 -10q-70 0 -121 23.5t-84 63t-49.5 88.5
t-16.5 101q0 50 16 98.5t48.5 88.5t82.5 63.5t119 23.5q74 0 130 -32t88 -94.5t32 -151.5v-37h-363q3 -48 33.5 -83t84.5 -35q31 0 50.5 9.5t30.5 22t15.5 22.5l4.5 10h140l-5 -18.5t-19 -45.5t-40.5 -54t-69.5 -45t-107 -18zM204 317h217q-2 55 -32.5 82t-74.5 27
t-74.5 -28.5t-35.5 -80.5z" />
    <glyph glyph-name="uni1EBE" unicode="&#x1ebe;" horiz-adv-x="646" 
d="M571 935l-113 1l81 179h141zM141 806l129 154h121l129 -154h-119l-70 85l-71 -85h-119zM72 0v740h510v-134h-356v-166h310v-129h-310v-177h361v-134h-515z" />
    <glyph glyph-name="uni1EBF" unicode="&#x1ebf;" horiz-adv-x="618" 
d="M557 725l-113 1l81 180h141zM127 596l129 154h121l129 -154h-119l-70 85l-71 -85h-119zM322 -10q-70 0 -121 23.5t-84 63t-49.5 88.5t-16.5 101q0 50 16 98.5t48.5 88.5t82.5 63.5t119 23.5q74 0 130 -32t88 -94.5t32 -151.5v-37h-363q3 -48 33.5 -83t84.5 -35
q31 0 50.5 9.5t30.5 22t15.5 22.5l4.5 10h140l-5 -18.5t-19 -45.5t-40.5 -54t-69.5 -45t-107 -18zM204 317h217q-2 55 -32.5 82t-74.5 27t-74.5 -28.5t-35.5 -80.5z" />
    <glyph glyph-name="uni1EC0" unicode="&#x1ec0;" horiz-adv-x="646" 
d="M481 935l-110 180h142l80 -179zM142 806l129 154h121l129 -154h-119l-71 85l-70 -85h-119zM72 0v740h510v-134h-356v-166h310v-129h-310v-177h361v-134h-515z" />
    <glyph glyph-name="uni1EC1" unicode="&#x1ec1;" horiz-adv-x="618" 
d="M467 725l-110 181h142l80 -180zM128 596l129 154h121l129 -154h-119l-71 85l-70 -85h-119zM322 -10q-70 0 -121 23.5t-84 63t-49.5 88.5t-16.5 101q0 50 16 98.5t48.5 88.5t82.5 63.5t119 23.5q74 0 130 -32t88 -94.5t32 -151.5v-37h-363q3 -48 33.5 -83t84.5 -35
q31 0 50.5 9.5t30.5 22t15.5 22.5l4.5 10h140l-5 -18.5t-19 -45.5t-40.5 -54t-69.5 -45t-107 -18zM204 317h217q-2 55 -32.5 82t-74.5 27t-74.5 -28.5t-35.5 -80.5z" />
    <glyph glyph-name="uni1EC2" unicode="&#x1ec2;" horiz-adv-x="646" 
d="M480 919v33q0 13 5.5 24t19.5 18l15 8q21 10 32 21t11 26q0 13 -9.5 22.5t-27.5 9.5t-26.5 -8.5t-10.5 -18.5t-2 -12h-87q-1 27 11.5 53.5t40.5 44.5t73 18q60 0 95 -31.5t35 -74.5q0 -35 -23.5 -59.5t-59.5 -43.5l-5 -2v-28h-87zM138 806l129 154h121l129 -154h-119
l-70 85l-71 -85h-119zM72 0v740h510v-134h-356v-166h310v-129h-310v-177h361v-134h-515z" />
    <glyph glyph-name="uni1EC3" unicode="&#x1ec3;" horiz-adv-x="618" 
d="M466 709v33q0 13 5.5 24.5t19.5 17.5l15 8q21 11 32 21.5t11 25.5q0 13 -9.5 23t-27.5 10t-26.5 -9t-10.5 -19t-2 -12h-87q-1 27 11.5 53.5t40.5 44.5t73 18q60 0 95 -31.5t35 -73.5q0 -36 -23.5 -60.5t-59.5 -42.5l-5 -3v-28h-87zM124 596l129 154h121l129 -154h-119
l-70 85l-71 -85h-119zM322 -10q-70 0 -121 23.5t-84 63t-49.5 88.5t-16.5 101q0 50 16 98.5t48.5 88.5t82.5 63.5t119 23.5q74 0 130 -32t88 -94.5t32 -151.5v-37h-363q3 -48 33.5 -83t84.5 -35q31 0 50.5 9.5t30.5 22t15.5 22.5l4.5 10h140l-5 -18.5t-19 -45.5t-40.5 -54
t-69.5 -45t-107 -18zM204 317h217q-2 55 -32.5 82t-74.5 27t-74.5 -28.5t-35.5 -80.5z" />
    <glyph glyph-name="uni1EC4" unicode="&#x1ec4;" horiz-adv-x="646" 
d="M402 996q-27 0 -46.5 9.5t-34 21.5t-27 21.5t-26.5 9.5q-16 0 -22 -15t-6 -41h-82q0 33 8 67t30 57t63 23q27 0 47 -9.5t35 -21.5t27.5 -21t25.5 -9q27 0 27 55h82q0 -33 -8 -67t-29.5 -57t-63.5 -23zM141 806l129 154h121l129 -154h-119l-71 85l-70 -85h-119zM72 0v740
h510v-134h-356v-166h310v-129h-310v-177h361v-134h-515z" />
    <glyph glyph-name="uni1EC5" unicode="&#x1ec5;" horiz-adv-x="618" 
d="M388 786q-27 0 -46.5 9.5t-34 21.5t-27 21.5t-26.5 9.5q-16 0 -22 -15t-6 -41h-82q0 33 8 67t30 57t63 23q27 0 47 -9t35 -21.5t27.5 -21.5t25.5 -9q27 0 27 56h82q0 -33 -8 -67.5t-29.5 -57.5t-63.5 -23zM127 596l129 154h121l129 -154h-119l-71 85l-70 -85h-119z
M322 -10q-70 0 -121 23.5t-84 63t-49.5 88.5t-16.5 101q0 50 16 98.5t48.5 88.5t82.5 63.5t119 23.5q74 0 130 -32t88 -94.5t32 -151.5v-37h-363q3 -48 33.5 -83t84.5 -35q31 0 50.5 9.5t30.5 22t15.5 22.5l4.5 10h140l-5 -18.5t-19 -45.5t-40.5 -54t-69.5 -45t-107 -18z
M204 317h217q-2 55 -32.5 82t-74.5 27t-74.5 -28.5t-35.5 -80.5z" />
    <glyph glyph-name="uni1EC6" unicode="&#x1ec6;" horiz-adv-x="646" 
d="M142 806l129 154h121l129 -154h-119l-71 85l-70 -85h-119zM72 0v740h510v-134h-356v-166h310v-129h-310v-177h361v-134h-515zM305 -247q-35 0 -57.5 23.5t-22.5 56.5t22.5 56t57.5 23q34 0 56.5 -23t22.5 -56t-22.5 -56.5t-56.5 -23.5z" />
    <glyph glyph-name="uni1EC7" unicode="&#x1ec7;" horiz-adv-x="618" 
d="M128 596l129 180h121l129 -180h-119l-71 104l-70 -104h-119zM322 -10q-70 0 -121 23.5t-84 63t-49.5 88.5t-16.5 101q0 50 16 98.5t48.5 88.5t82.5 63.5t119 23.5q74 0 130 -32t88 -94.5t32 -151.5v-37h-363q3 -48 33.5 -83t84.5 -35q31 0 50.5 9.5t30.5 22t15.5 22.5
l4.5 10h140l-5 -18.5t-19 -45.5t-40.5 -54t-69.5 -45t-107 -18zM204 317h217q-2 55 -32.5 82t-74.5 27t-74.5 -28.5t-35.5 -80.5zM317 -246q-35 0 -57.5 23.5t-22.5 55.5q0 33 22.5 56.5t57.5 23.5q34 0 56.5 -23.5t22.5 -56.5q0 -32 -22.5 -55.5t-56.5 -23.5z" />
    <glyph glyph-name="uni1EC8" unicode="&#x1ec8;" horiz-adv-x="298" 
d="M106 802v33q0 13 5.5 24.5t19.5 17.5l15 8q21 11 32 21.5t11 25.5q0 13 -9.5 23t-26.5 10q-19 0 -27 -9t-10 -19t-2 -12h-87q-1 27 11.5 53.5t40 44.5t72.5 18q61 0 96 -31.5t35 -73.5q0 -36 -23.5 -60.5t-60.5 -42.5l-4 -3v-28h-88zM72 0v740h154v-740h-154z" />
    <glyph glyph-name="uni1EC9" unicode="&#x1ec9;" horiz-adv-x="302" 
d="M108 592v33q0 13 5.5 24.5t19.5 17.5l15 8q21 11 32 21.5t11 25.5q0 13 -9.5 23t-26.5 10q-19 0 -27 -9t-10 -19t-2 -12h-87q-1 27 11.5 53.5t40 44.5t72.5 18q61 0 96 -31.5t35 -73.5q0 -36 -23.5 -60.5t-60.5 -42.5l-4 -3v-28h-88zM75 0v530h152v-530h-152z" />
    <glyph glyph-name="uni1ECA" unicode="&#x1eca;" horiz-adv-x="298" 
d="M72 0v740h154v-740h-154zM149 -247q-35 0 -57 23.5t-22 56.5t22 56t57 23q34 0 56.5 -23t22.5 -56t-22.5 -56.5t-56.5 -23.5z" />
    <glyph glyph-name="uni1ECB" unicode="&#x1ecb;" horiz-adv-x="302" 
d="M151 602q-39 0 -64 25.5t-25 60.5q0 37 25 62.5t64 25.5t64.5 -25.5t25.5 -62.5q0 -35 -25.5 -60.5t-64.5 -25.5zM75 0v530h152v-530h-152zM151 -247q-35 0 -57 23.5t-22 56.5t22 56t57 23q34 0 56.5 -23t22.5 -56t-22.5 -56.5t-56.5 -23.5z" />
    <glyph glyph-name="uni1ECC" unicode="&#x1ecc;" horiz-adv-x="828" 
d="M414 -10q-92 0 -162 32.5t-117.5 87t-71 122.5t-23.5 139t23.5 138.5t71 121.5t117.5 86.5t162 32.5q93 0 163 -32.5t117 -86.5t70.5 -121.5t23.5 -138.5t-23.5 -139t-70.5 -122.5t-117 -87t-163 -32.5zM414 129q70 0 118 35t72 90.5t24 116.5t-24 116t-72 90t-118 35
t-117.5 -35t-71.5 -90t-24 -116t24 -116.5t71.5 -90.5t117.5 -35zM414 -247q-35 0 -57 23.5t-22 56.5t22 56t57 23q34 0 56.5 -23t22.5 -56t-22.5 -56.5t-56.5 -23.5z" />
    <glyph glyph-name="uni1ECD" unicode="&#x1ecd;" horiz-adv-x="658" 
d="M329 -10q-89 0 -151 38.5t-94.5 101t-32.5 135.5t32.5 135.5t94.5 101t151 38.5t151 -38.5t94.5 -101t32.5 -135.5t-32.5 -135.5t-94.5 -101t-151 -38.5zM329 114q40 0 68 21t42.5 55.5t14.5 74.5q0 41 -14.5 75t-42.5 55t-68 21t-68 -21t-42.5 -55t-14.5 -75
q0 -40 14.5 -74.5t42.5 -55.5t68 -21zM329 -247q-35 0 -57.5 23.5t-22.5 56.5t22.5 56t57.5 23q34 0 56.5 -23t22.5 -56t-22.5 -56.5t-56.5 -23.5z" />
    <glyph glyph-name="uni1ECE" unicode="&#x1ece;" horiz-adv-x="828" 
d="M371 812v33q0 13 5.5 24.5t19.5 17.5l15 8q21 11 32 21.5t11 25.5q0 13 -9.5 23t-26.5 10q-19 0 -27 -9t-10 -19t-2 -12h-87q-1 27 11.5 53.5t40 44.5t72.5 18q61 0 96 -31.5t35 -73.5q0 -36 -23.5 -60.5t-60.5 -42.5l-4 -3v-28h-88zM414 -10q-92 0 -162 32.5t-117.5 87
t-71 122.5t-23.5 139t23.5 138.5t71 121.5t117.5 86.5t162 32.5q93 0 163 -32.5t117 -86.5t70.5 -121.5t23.5 -138.5t-23.5 -139t-70.5 -122.5t-117 -87t-163 -32.5zM414 129q70 0 118 35t72 90.5t24 116.5t-24 116t-72 90t-118 35t-117.5 -35t-71.5 -90t-24 -116t24 -116.5
t71.5 -90.5t117.5 -35z" />
    <glyph glyph-name="uni1ECF" unicode="&#x1ecf;" horiz-adv-x="658" 
d="M286 593v32q0 13 5.5 24.5t19.5 18.5l15 7q21 11 32 21.5t11 26.5q0 12 -9.5 22t-27.5 10t-26.5 -9t-10.5 -18.5t-2 -11.5h-87q-1 26 11.5 53t40.5 45t72 18q61 0 96 -31.5t35 -74.5q0 -36 -23.5 -60t-59.5 -43l-5 -2v-28h-87zM329 -10q-89 0 -151 38.5t-94.5 101
t-32.5 135.5t32.5 135.5t94.5 101t151 38.5t151 -38.5t94.5 -101t32.5 -135.5t-32.5 -135.5t-94.5 -101t-151 -38.5zM329 114q40 0 68 21t42.5 55.5t14.5 74.5q0 41 -14.5 75t-42.5 55t-68 21t-68 -21t-42.5 -55t-14.5 -75q0 -40 14.5 -74.5t42.5 -55.5t68 -21z" />
    <glyph glyph-name="uni1ED0" unicode="&#x1ed0;" horiz-adv-x="828" 
d="M654 945l-112 1l80 179h142zM224 816l130 154h120l130 -154h-119l-71 85l-71 -85h-119zM414 -10q-92 0 -162 32.5t-117.5 87t-71 122.5t-23.5 139t23.5 138.5t71 121.5t117.5 86.5t162 32.5q93 0 163 -32.5t117 -86.5t70.5 -121.5t23.5 -138.5t-23.5 -139t-70.5 -122.5
t-117 -87t-163 -32.5zM414 129q70 0 118 35t72 90.5t24 116.5t-24 116t-72 90t-118 35t-117.5 -35t-71.5 -90t-24 -116t24 -116.5t71.5 -90.5t117.5 -35z" />
    <glyph glyph-name="uni1ED1" unicode="&#x1ed1;" horiz-adv-x="658" 
d="M568 725l-112 1l81 180h141zM139 596l129 154h121l129 -154h-119l-70 86l-71 -86h-119zM329 -10q-89 0 -151 38.5t-94.5 101t-32.5 135.5t32.5 135.5t94.5 101t151 38.5t151 -38.5t94.5 -101t32.5 -135.5t-32.5 -135.5t-94.5 -101t-151 -38.5zM329 114q40 0 68 21
t42.5 55.5t14.5 74.5q0 41 -14.5 75t-42.5 55t-68 21t-68 -21t-42.5 -55t-14.5 -75q0 -40 14.5 -74.5t42.5 -55.5t68 -21z" />
    <glyph glyph-name="uni1ED2" unicode="&#x1ed2;" horiz-adv-x="828" 
d="M564 945l-109 180h141l81 -179zM225 816l129 154h121l129 -154h-119l-70 85l-71 -85h-119zM414 -10q-92 0 -162 32.5t-117.5 87t-71 122.5t-23.5 139t23.5 138.5t71 121.5t117.5 86.5t162 32.5q93 0 163 -32.5t117 -86.5t70.5 -121.5t23.5 -138.5t-23.5 -139
t-70.5 -122.5t-117 -87t-163 -32.5zM414 129q70 0 118 35t72 90.5t24 116.5t-24 116t-72 90t-118 35t-117.5 -35t-71.5 -90t-24 -116t24 -116.5t71.5 -90.5t117.5 -35z" />
    <glyph glyph-name="uni1ED3" unicode="&#x1ed3;" horiz-adv-x="658" 
d="M479 725l-110 181h141l81 -180zM139 596l130 154h120l130 -154h-119l-71 86l-71 -86h-119zM329 -10q-89 0 -151 38.5t-94.5 101t-32.5 135.5t32.5 135.5t94.5 101t151 38.5t151 -38.5t94.5 -101t32.5 -135.5t-32.5 -135.5t-94.5 -101t-151 -38.5zM329 114q40 0 68 21
t42.5 55.5t14.5 74.5q0 41 -14.5 75t-42.5 55t-68 21t-68 -21t-42.5 -55t-14.5 -75q0 -40 14.5 -74.5t42.5 -55.5t68 -21z" />
    <glyph glyph-name="uni1ED4" unicode="&#x1ed4;" horiz-adv-x="828" 
d="M563 929v33q0 13 5.5 24t19.5 18l15 8q21 10 32 21t11 26q0 13 -9.5 22.5t-26.5 9.5q-19 0 -27 -8.5t-10 -18.5t-2 -12h-87q-1 27 11.5 53.5t40 44.5t72.5 18q61 0 96 -31.5t35 -74.5q0 -35 -23.5 -59.5t-60.5 -43.5l-4 -2v-28h-88zM221 816l130 154h120l130 -154h-119
l-71 85l-71 -85h-119zM414 -10q-92 0 -162 32.5t-117.5 87t-71 122.5t-23.5 139t23.5 138.5t71 121.5t117.5 86.5t162 32.5q93 0 163 -32.5t117 -86.5t70.5 -121.5t23.5 -138.5t-23.5 -139t-70.5 -122.5t-117 -87t-163 -32.5zM414 129q70 0 118 35t72 90.5t24 116.5t-24 116
t-72 90t-118 35t-117.5 -35t-71.5 -90t-24 -116t24 -116.5t71.5 -90.5t117.5 -35z" />
    <glyph glyph-name="uni1ED5" unicode="&#x1ed5;" horiz-adv-x="658" 
d="M478 709v33q0 13 5.5 24.5t19.5 18.5l15 7q21 11 32 21.5t11 26.5q0 12 -9.5 22t-27.5 10t-26.5 -9t-10.5 -18.5t-2 -12.5h-87q-1 27 11.5 54t40.5 44.5t72 17.5q61 0 96 -31t35 -74q0 -36 -23.5 -60t-59.5 -43l-5 -3v-28h-87zM136 596l129 154h121l129 -154h-119l-70 86
l-71 -86h-119zM329 -10q-89 0 -151 38.5t-94.5 101t-32.5 135.5t32.5 135.5t94.5 101t151 38.5t151 -38.5t94.5 -101t32.5 -135.5t-32.5 -135.5t-94.5 -101t-151 -38.5zM329 114q40 0 68 21t42.5 55.5t14.5 74.5q0 41 -14.5 75t-42.5 55t-68 21t-68 -21t-42.5 -55t-14.5 -75
q0 -40 14.5 -74.5t42.5 -55.5t68 -21z" />
    <glyph glyph-name="uni1ED6" unicode="&#x1ed6;" horiz-adv-x="828" 
d="M486 1006q-27 0 -46.5 9.5t-34.5 21.5t-27.5 21.5t-26.5 9.5q-16 0 -22 -15t-6 -41h-81q0 33 7.5 67t29.5 57t63 23q28 0 47.5 -9.5t34.5 -21.5t27.5 -21t25.5 -9q28 0 28 55h81q0 -33 -8 -67t-29.5 -57t-62.5 -23zM224 816l129 154h121l129 -154h-119l-70 85l-71 -85
h-119zM414 -10q-92 0 -162 32.5t-117.5 87t-71 122.5t-23.5 139t23.5 138.5t71 121.5t117.5 86.5t162 32.5q93 0 163 -32.5t117 -86.5t70.5 -121.5t23.5 -138.5t-23.5 -139t-70.5 -122.5t-117 -87t-163 -32.5zM414 129q70 0 118 35t72 90.5t24 116.5t-24 116t-72 90t-118 35
t-117.5 -35t-71.5 -90t-24 -116t24 -116.5t71.5 -90.5t117.5 -35z" />
    <glyph glyph-name="uni1ED7" unicode="&#x1ed7;" horiz-adv-x="658" 
d="M400 786q-27 0 -46.5 9.5t-34 22t-27.5 21.5t-26 9q-16 0 -22.5 -14.5t-6.5 -41.5h-81q0 34 8 67.5t29.5 56.5t63.5 23q27 0 47 -9t35 -21t27.5 -21.5t25.5 -9.5q27 0 27 56h82q0 -33 -8 -67t-29.5 -57.5t-63.5 -23.5zM138 596l130 154h120l130 -154h-119l-71 86l-71 -86
h-119zM329 -10q-89 0 -151 38.5t-94.5 101t-32.5 135.5t32.5 135.5t94.5 101t151 38.5t151 -38.5t94.5 -101t32.5 -135.5t-32.5 -135.5t-94.5 -101t-151 -38.5zM329 114q40 0 68 21t42.5 55.5t14.5 74.5q0 41 -14.5 75t-42.5 55t-68 21t-68 -21t-42.5 -55t-14.5 -75
q0 -40 14.5 -74.5t42.5 -55.5t68 -21z" />
    <glyph glyph-name="uni1ED8" unicode="&#x1ed8;" horiz-adv-x="828" 
d="M225 816l129 154h121l129 -154h-119l-70 85l-71 -85h-119zM414 -10q-92 0 -162 32.5t-117.5 87t-71 122.5t-23.5 139t23.5 138.5t71 121.5t117.5 86.5t162 32.5q93 0 163 -32.5t117 -86.5t70.5 -121.5t23.5 -138.5t-23.5 -139t-70.5 -122.5t-117 -87t-163 -32.5zM414 129
q70 0 118 35t72 90.5t24 116.5t-24 116t-72 90t-118 35t-117.5 -35t-71.5 -90t-24 -116t24 -116.5t71.5 -90.5t117.5 -35zM414 -247q-35 0 -57 23.5t-22 56.5t22 56t57 23q34 0 56.5 -23t22.5 -56t-22.5 -56.5t-56.5 -23.5z" />
    <glyph glyph-name="uni1ED9" unicode="&#x1ed9;" horiz-adv-x="658" 
d="M139 596l130 180h120l130 -180h-119l-71 104l-71 -104h-119zM329 -10q-89 0 -151 38.5t-94.5 101t-32.5 135.5t32.5 135.5t94.5 101t151 38.5t151 -38.5t94.5 -101t32.5 -135.5t-32.5 -135.5t-94.5 -101t-151 -38.5zM329 114q40 0 68 21t42.5 55.5t14.5 74.5
q0 41 -14.5 75t-42.5 55t-68 21t-68 -21t-42.5 -55t-14.5 -75q0 -40 14.5 -74.5t42.5 -55.5t68 -21zM329 -247q-35 0 -57.5 23.5t-22.5 56.5t22.5 56t57.5 23q34 0 56.5 -23t22.5 -56t-22.5 -56.5t-56.5 -23.5z" />
    <glyph glyph-name="uni1EDA" unicode="&#x1eda;" horiz-adv-x="828" 
d="M465 813l-112 1l80 180h142zM414 -10q-92 0 -162 32.5t-117.5 87t-71 122.5t-23.5 139t23.5 138.5t71 121.5t117.5 86.5t162 32.5q12 0 24 -1h139q53 0 53 54v58h130v-72q0 -56 -24 -87t-77 -36q64 -55 96.5 -133.5t32.5 -161.5q0 -71 -23.5 -139t-70.5 -122.5t-117 -87
t-163 -32.5zM414 129q70 0 118 35t72 90.5t24 116.5t-24 116t-72 90t-118 35t-117.5 -35t-71.5 -90t-24 -116t24 -116.5t71.5 -90.5t117.5 -35z" />
    <glyph glyph-name="uni1EDB" unicode="&#x1edb;" horiz-adv-x="658" 
d="M386 603l-112 1l80 180h141zM329 -10q-89 0 -151 38.5t-94.5 101t-32.5 135.5t32.5 135.5t94.5 101t151 38.5h127q40 0 40 40v71h121v-76q0 -48 -22.5 -77t-66.5 -34q38 -38 58.5 -90t20.5 -109q0 -73 -32.5 -135.5t-94.5 -101t-151 -38.5zM329 114q40 0 68 21t42.5 55.5
t14.5 74.5q0 41 -14.5 75t-42.5 55t-68 21t-68 -21t-42.5 -55t-14.5 -75q0 -40 14.5 -74.5t42.5 -55.5t68 -21z" />
    <glyph glyph-name="uni1EDC" unicode="&#x1edc;" horiz-adv-x="828" 
d="M355 813l-110 181h141l81 -180zM414 -10q-92 0 -162 32.5t-117.5 87t-71 122.5t-23.5 139t23.5 138.5t71 121.5t117.5 86.5t162 32.5q12 0 24 -1h139q53 0 53 54v58h130v-72q0 -56 -24 -87t-77 -36q64 -55 96.5 -133.5t32.5 -161.5q0 -71 -23.5 -139t-70.5 -122.5
t-117 -87t-163 -32.5zM414 129q70 0 118 35t72 90.5t24 116.5t-24 116t-72 90t-118 35t-117.5 -35t-71.5 -90t-24 -116t24 -116.5t71.5 -90.5t117.5 -35z" />
    <glyph glyph-name="uni1EDD" unicode="&#x1edd;" horiz-adv-x="658" 
d="M276 603l-110 181h141l81 -180zM329 -10q-89 0 -151 38.5t-94.5 101t-32.5 135.5t32.5 135.5t94.5 101t151 38.5h127q40 0 40 40v71h121v-76q0 -48 -22.5 -77t-66.5 -34q38 -38 58.5 -90t20.5 -109q0 -73 -32.5 -135.5t-94.5 -101t-151 -38.5zM329 114q40 0 68 21
t42.5 55.5t14.5 74.5q0 41 -14.5 75t-42.5 55t-68 21t-68 -21t-42.5 -55t-14.5 -75q0 -40 14.5 -74.5t42.5 -55.5t68 -21z" />
    <glyph glyph-name="uni1EDE" unicode="&#x1ede;" horiz-adv-x="828" 
d="M365 802v33q0 13 5.5 24.5t19.5 17.5l15 8q21 11 32 21.5t11 25.5q0 13 -9.5 23t-26.5 10q-19 0 -27 -9t-10 -19t-2 -12h-87q-1 27 11.5 53.5t40 44.5t72.5 18q61 0 96 -31.5t35 -73.5q0 -36 -23.5 -60.5t-60.5 -42.5l-4 -3v-28h-88zM414 -10q-92 0 -162 32.5t-117.5 87
t-71 122.5t-23.5 139t23.5 138.5t71 121.5t117.5 86.5t162 32.5q12 0 24 -1h139q53 0 53 54v58h130v-72q0 -56 -24 -87t-77 -36q64 -55 96.5 -133.5t32.5 -161.5q0 -71 -23.5 -139t-70.5 -122.5t-117 -87t-163 -32.5zM414 129q70 0 118 35t72 90.5t24 116.5t-24 116t-72 90
t-118 35t-117.5 -35t-71.5 -90t-24 -116t24 -116.5t71.5 -90.5t117.5 -35z" />
    <glyph glyph-name="uni1EDF" unicode="&#x1edf;" horiz-adv-x="658" 
d="M277 592v33q0 13 5.5 24.5t18.5 17.5l16 8q20 11 31.5 21.5t11.5 25.5q0 13 -10 23t-27 10q-19 0 -27 -9t-10 -19t-2 -12h-87q-1 27 11.5 53.5t40 44.5t72.5 18q61 0 96 -31.5t35 -73.5q0 -36 -23.5 -60.5t-60.5 -42.5l-4 -3v-28h-87zM329 -10q-89 0 -151 38.5t-94.5 101
t-32.5 135.5t32.5 135.5t94.5 101t151 38.5h127q40 0 40 40v71h121v-76q0 -48 -22.5 -77t-66.5 -34q38 -38 58.5 -90t20.5 -109q0 -73 -32.5 -135.5t-94.5 -101t-151 -38.5zM329 114q40 0 68 21t42.5 55.5t14.5 74.5q0 41 -14.5 75t-42.5 55t-68 21t-68 -21t-42.5 -55
t-14.5 -75q0 -40 14.5 -74.5t42.5 -55.5t68 -21z" />
    <glyph glyph-name="uni1EE0" unicode="&#x1ee0;" horiz-adv-x="828" 
d="M482 824q-27 0 -46.5 9.5t-34 21.5t-27.5 21.5t-26 9.5q-16 0 -22.5 -15t-6.5 -41h-81q0 33 8 67t29.5 57t63.5 23q27 0 47 -9.5t35 -21.5t27.5 -21t25.5 -9q27 0 27 55h82q0 -33 -8 -67t-29.5 -57t-63.5 -23zM414 -10q-92 0 -162 32.5t-117.5 87t-71 122.5t-23.5 139
t23.5 138.5t71 121.5t117.5 86.5t162 32.5q12 0 24 -1h139q53 0 53 54v58h130v-72q0 -56 -24 -87t-77 -36q64 -55 96.5 -133.5t32.5 -161.5q0 -71 -23.5 -139t-70.5 -122.5t-117 -87t-163 -32.5zM414 129q70 0 118 35t72 90.5t24 116.5t-24 116t-72 90t-118 35t-117.5 -35
t-71.5 -90t-24 -116t24 -116.5t71.5 -90.5t117.5 -35z" />
    <glyph glyph-name="uni1EE1" unicode="&#x1ee1;" horiz-adv-x="651" 
d="M386 614q-26 0 -44.5 9.5t-32.5 22t-26.5 21.5t-25.5 9q-15 0 -21.5 -15t-6.5 -41h-74q0 36 7.5 69.5t28 55t60.5 21.5q26 0 45 -9.5t33.5 -21.5t26.5 -21.5t25 -9.5q14 0 20.5 15t6.5 41h74q0 -36 -7.5 -69.5t-28 -55t-60.5 -21.5zM329 -10q-89 0 -151 38.5t-94.5 101
t-32.5 135.5t32.5 135.5t94.5 101t151 38.5h127q40 0 40 40v71h121v-76q0 -48 -22.5 -77t-66.5 -34q38 -38 58.5 -90t20.5 -109q0 -73 -32.5 -135.5t-94.5 -101t-151 -38.5zM329 114q40 0 68 21t42.5 55.5t14.5 74.5q0 41 -14.5 75t-42.5 55t-68 21t-68 -21t-42.5 -55
t-14.5 -75q0 -40 14.5 -74.5t42.5 -55.5t68 -21z" />
    <glyph glyph-name="uni1EE2" unicode="&#x1ee2;" horiz-adv-x="828" 
d="M414 -10q-92 0 -162 32.5t-117.5 87t-71 122.5t-23.5 139t23.5 138.5t71 121.5t117.5 86.5t162 32.5q12 0 24 -1h139q53 0 53 54v58h130v-72q0 -56 -24 -87t-77 -36q64 -55 96.5 -133.5t32.5 -161.5q0 -71 -23.5 -139t-70.5 -122.5t-117 -87t-163 -32.5zM414 129
q70 0 118 35t72 90.5t24 116.5t-24 116t-72 90t-118 35t-117.5 -35t-71.5 -90t-24 -116t24 -116.5t71.5 -90.5t117.5 -35zM408 -247q-35 0 -57 23.5t-22 56.5t22 56t57 23q34 0 56.5 -23t22.5 -56t-22.5 -56.5t-56.5 -23.5z" />
    <glyph glyph-name="uni1EE3" unicode="&#x1ee3;" horiz-adv-x="658" 
d="M329 -10q-89 0 -151 38.5t-94.5 101t-32.5 135.5t32.5 135.5t94.5 101t151 38.5h127q40 0 40 40v71h121v-76q0 -48 -22.5 -77t-66.5 -34q38 -38 58.5 -90t20.5 -109q0 -73 -32.5 -135.5t-94.5 -101t-151 -38.5zM329 114q40 0 68 21t42.5 55.5t14.5 74.5q0 41 -14.5 75
t-42.5 55t-68 21t-68 -21t-42.5 -55t-14.5 -75q0 -40 14.5 -74.5t42.5 -55.5t68 -21zM363 -247q-35 0 -57 23.5t-22 56.5t22 56t57 23q34 0 56.5 -23t22.5 -56t-22.5 -56.5t-56.5 -23.5z" />
    <glyph glyph-name="uni1EE4" unicode="&#x1ee4;" horiz-adv-x="746" 
d="M373 -10q-81 0 -149.5 31t-110 96t-41.5 169v454h154v-454q0 -64 36 -107.5t111 -43.5t110.5 43.5t35.5 107.5v454h155v-454q0 -104 -41.5 -169t-110.5 -96t-149 -31zM365 -247q-35 0 -57.5 23.5t-22.5 56.5t22.5 56t57.5 23q34 0 56.5 -23t22.5 -56t-22.5 -56.5
t-56.5 -23.5z" />
    <glyph glyph-name="uni1EE5" unicode="&#x1ee5;" horiz-adv-x="601" 
d="M232 -10q-56 0 -92.5 24t-54.5 64.5t-18 91.5v360h151v-330q0 -38 20.5 -61.5t58.5 -23.5q33 0 52.5 16t28.5 41t9 53v305h152v-530h-152v75h-6q-17 -31 -52.5 -58t-96.5 -27zM302 -247q-35 0 -57.5 23.5t-22.5 56.5t22.5 56t57.5 23q34 0 56.5 -23t22.5 -56t-22.5 -56.5
t-56.5 -23.5z" />
    <glyph glyph-name="uni1EE6" unicode="&#x1ee6;" horiz-adv-x="746" 
d="M328 802v33q0 13 5.5 24.5t19.5 17.5l15 8q21 11 32 21.5t11 25.5q0 13 -9.5 23t-27.5 10t-26.5 -9t-10.5 -19t-2 -12h-87q0 27 12.5 53.5t40 44.5t72.5 18q60 0 95.5 -31.5t35.5 -73.5q0 -36 -23.5 -60.5t-60.5 -42.5l-5 -3v-28h-87zM373 -10q-81 0 -149.5 31t-110 96
t-41.5 169v454h154v-454q0 -64 36 -107.5t111 -43.5t110.5 43.5t35.5 107.5v454h155v-454q0 -104 -41.5 -169t-110.5 -96t-149 -31z" />
    <glyph glyph-name="uni1EE7" unicode="&#x1ee7;" horiz-adv-x="601" 
d="M259 592v33q0 13 5.5 24.5t19.5 17.5l15 8q21 11 32 21.5t11 25.5q0 13 -9.5 23t-27.5 10t-26.5 -9t-10.5 -19t-2 -12h-87q0 27 12.5 53.5t40 44.5t72.5 18q60 0 95.5 -31.5t35.5 -73.5q0 -36 -23.5 -60.5t-60.5 -42.5l-5 -3v-28h-87zM232 -10q-56 0 -92.5 24t-54.5 64.5
t-18 91.5v360h151v-330q0 -38 20.5 -61.5t58.5 -23.5q33 0 52.5 16t28.5 41t9 53v305h152v-530h-152v75h-6q-17 -31 -52.5 -58t-96.5 -27z" />
    <glyph glyph-name="uni1EE8" unicode="&#x1ee8;" horiz-adv-x="746" 
d="M434 813l-112 1l80 180h141zM373 -10q-81 0 -149.5 31t-110 96t-41.5 169v454h154v-454q0 -64 36 -107.5t111 -43.5t110.5 43.5t35.5 107.5v454h107q40 0 40 40v71h124v-76q0 -52 -28 -82.5t-83 -30.5h-5v-376q0 -104 -41.5 -169t-110.5 -96t-149 -31z" />
    <glyph glyph-name="uni1EE9" unicode="&#x1ee9;" horiz-adv-x="601" 
d="M354 603l-112 1l80 180h141zM232 -10q-56 0 -92.5 24t-54.5 64.5t-18 91.5v360h151v-330q0 -38 20.5 -61.5t58.5 -23.5q33 0 52.5 16t28.5 41t9 53v305h105q40 0 40 40v71h122v-76q0 -53 -28 -82.5t-83 -29.5h-4v-453h-152v75h-6q-17 -31 -52.5 -58t-96.5 -27z" />
    <glyph glyph-name="uni1EEA" unicode="&#x1eea;" horiz-adv-x="746" 
d="M324 813l-110 181h141l81 -180zM373 -10q-81 0 -149.5 31t-110 96t-41.5 169v454h154v-454q0 -64 36 -107.5t111 -43.5t110.5 43.5t35.5 107.5v454h107q40 0 40 40v71h124v-76q0 -52 -28 -82.5t-83 -30.5h-5v-376q0 -104 -41.5 -169t-110.5 -96t-149 -31z" />
    <glyph glyph-name="uni1EEB" unicode="&#x1eeb;" horiz-adv-x="601" 
d="M244 603l-110 181h141l81 -180zM232 -10q-56 0 -92.5 24t-54.5 64.5t-18 91.5v360h151v-330q0 -38 20.5 -61.5t58.5 -23.5q33 0 52.5 16t28.5 41t9 53v305h105q40 0 40 40v71h122v-76q0 -53 -28 -82.5t-83 -29.5h-4v-453h-152v75h-6q-17 -31 -52.5 -58t-96.5 -27z" />
    <glyph glyph-name="uni1EEC" unicode="&#x1eec;" horiz-adv-x="746" 
d="M334 802v33q0 13 5.5 24.5t19.5 17.5l15 8q21 11 32 21.5t11 25.5q0 13 -9.5 23t-27.5 10t-26.5 -9t-10.5 -19t-2 -12h-87q0 27 12.5 53.5t40 44.5t72.5 18q60 0 95.5 -31.5t35.5 -73.5q0 -36 -23.5 -60.5t-60.5 -42.5l-5 -3v-28h-87zM373 -10q-81 0 -149.5 31t-110 96
t-41.5 169v454h154v-454q0 -64 36 -107.5t111 -43.5t110.5 43.5t35.5 107.5v454h107q40 0 40 40v71h124v-76q0 -52 -28 -82.5t-83 -30.5h-5v-376q0 -104 -41.5 -169t-110.5 -96t-149 -31z" />
    <glyph glyph-name="uni1EED" unicode="&#x1eed;" horiz-adv-x="601" 
d="M254 592v33q0 13 5.5 24.5t19.5 17.5l15 8q21 11 32 21.5t11 25.5q0 13 -9.5 23t-27.5 10t-26.5 -9t-10.5 -19t-2 -12h-87q0 27 12.5 53.5t40 44.5t72.5 18q60 0 95.5 -31.5t35.5 -73.5q0 -36 -23.5 -60.5t-60.5 -42.5l-5 -3v-28h-87zM232 -10q-56 0 -92.5 24t-54.5 64.5
t-18 91.5v360h151v-330q0 -38 20.5 -61.5t58.5 -23.5q33 0 52.5 16t28.5 41t9 53v305h105q40 0 40 40v71h122v-76q0 -53 -28 -82.5t-83 -29.5h-4v-453h-152v75h-6q-17 -31 -52.5 -58t-96.5 -27z" />
    <glyph glyph-name="uni1EEE" unicode="&#x1eee;" horiz-adv-x="746" 
d="M451 824q-27 0 -46.5 9.5t-34 21.5t-27.5 21.5t-26 9.5q-16 0 -22.5 -15t-6.5 -41h-81q0 33 8 67t29.5 57t63.5 23q27 0 46.5 -9.5t34.5 -21.5t28 -21t26 -9q27 0 27 55h81q0 -33 -7.5 -67t-29.5 -57t-63 -23zM373 -10q-81 0 -149.5 31t-110 96t-41.5 169v454h154v-454
q0 -64 36 -107.5t111 -43.5t110.5 43.5t35.5 107.5v454h107q40 0 40 40v71h124v-76q0 -52 -28 -82.5t-83 -30.5h-5v-376q0 -104 -41.5 -169t-110.5 -96t-149 -31z" />
    <glyph glyph-name="uni1EEF" unicode="&#x1eef;" horiz-adv-x="601" 
d="M371 614q-27 0 -46.5 9.5t-34 21.5t-27.5 21.5t-26 9.5q-16 0 -22.5 -15t-6.5 -41h-81q0 33 8 67t29.5 57t63.5 23q27 0 46.5 -9.5t34.5 -21.5t28 -21t26 -9q27 0 27 55h81q0 -33 -7.5 -67t-29.5 -57t-63 -23zM232 -10q-56 0 -92.5 24t-54.5 64.5t-18 91.5v360h151v-330
q0 -38 20.5 -61.5t58.5 -23.5q33 0 52.5 16t28.5 41t9 53v305h105q40 0 40 40v71h122v-76q0 -53 -28 -82.5t-83 -29.5h-4v-453h-152v75h-6q-17 -31 -52.5 -58t-96.5 -27z" />
    <glyph glyph-name="uni1EF0" unicode="&#x1ef0;" horiz-adv-x="746" 
d="M373 -10q-81 0 -149.5 31t-110 96t-41.5 169v454h154v-454q0 -64 36 -107.5t111 -43.5t110.5 43.5t35.5 107.5v454h107q40 0 40 40v71h124v-76q0 -52 -28 -82.5t-83 -30.5h-5v-376q0 -104 -41.5 -169t-110.5 -96t-149 -31zM377 -247q-35 0 -57.5 23.5t-22.5 56.5t22.5 56
t57.5 23q34 0 56.5 -23t22.5 -56t-22.5 -56.5t-56.5 -23.5z" />
    <glyph glyph-name="uni1EF1" unicode="&#x1ef1;" horiz-adv-x="601" 
d="M232 -10q-56 0 -92.5 24t-54.5 64.5t-18 91.5v360h151v-330q0 -38 20.5 -61.5t58.5 -23.5q33 0 52.5 16t28.5 41t9 53v305h105q40 0 40 40v71h122v-76q0 -53 -28 -82.5t-83 -29.5h-4v-453h-152v75h-6q-17 -31 -52.5 -58t-96.5 -27zM297 -247q-35 0 -57.5 23.5t-22.5 56.5
t22.5 56t57.5 23q34 0 56.5 -23t22.5 -56t-22.5 -56.5t-56.5 -23.5z" />
    <glyph glyph-name="Ygrave" unicode="&#x1ef2;" horiz-adv-x="718" 
d="M307 812l-109 181h141l80 -180zM282 0v253l-260 487h169l168 -329l168 329h169l-260 -487v-253h-154z" />
    <glyph glyph-name="ygrave" unicode="&#x1ef3;" horiz-adv-x="597" 
d="M245 603l-109 181h141l81 -180zM101 -195q-27 0 -43 2l-16 2v122l13.5 -1t33.5 -1q48 0 79 13.5t54 52.5l-196 535h152l123 -359l120 359h153l-190 -509q-26 -73 -62.5 -121t-89.5 -71.5t-131 -23.5z" />
    <glyph glyph-name="uni1EF4" unicode="&#x1ef4;" horiz-adv-x="718" 
d="M282 0v253l-260 487h169l168 -329l168 329h169l-260 -487v-253h-154zM360 -247q-35 0 -57 23.5t-22 56.5t22 56t57 23t57.5 -23t22.5 -56t-22.5 -56.5t-57.5 -23.5z" />
    <glyph glyph-name="uni1EF5" unicode="&#x1ef5;" horiz-adv-x="597" 
d="M101 -195q-27 0 -43 2l-16 2v122l13.5 -1t33.5 -1q48 0 79 13.5t54 52.5l-196 535h152l123 -359l120 359h153l-190 -509q-26 -73 -62.5 -121t-89.5 -71.5t-131 -23.5zM473 -247q-35 0 -57.5 23.5t-22.5 56.5t22.5 56t57.5 23q34 0 56.5 -23t22.5 -56t-22.5 -56.5
t-56.5 -23.5z" />
    <glyph glyph-name="uni1EF6" unicode="&#x1ef6;" horiz-adv-x="718" 
d="M318 801v33q0 13 5.5 24t19.5 18l15 8q21 10 32 21t11 26q0 13 -9.5 22.5t-27.5 9.5t-26.5 -8.5t-10.5 -18.5t-2 -12h-87q-1 27 11.5 53.5t40.5 44.5t72 18q61 0 96 -31.5t35 -74.5q0 -35 -23.5 -59.5t-59.5 -43.5l-5 -2v-28h-87zM282 0v253l-260 487h169l168 -329
l168 329h169l-260 -487v-253h-154z" />
    <glyph glyph-name="uni1EF7" unicode="&#x1ef7;" horiz-adv-x="597" 
d="M256 592v33q0 13 5.5 24.5t19.5 17.5l15 8q21 11 32 21.5t11 25.5q0 13 -9.5 23t-27.5 10t-26.5 -9t-10.5 -19t-2 -12h-87q-1 27 11.5 53.5t40.5 44.5t73 18q60 0 95 -31.5t35 -73.5q0 -36 -23.5 -60.5t-59.5 -42.5l-5 -3v-28h-87zM101 -195q-27 0 -43 2l-16 2v122
l13.5 -1t33.5 -1q48 0 79 13.5t54 52.5l-196 535h152l123 -359l120 359h153l-190 -509q-26 -73 -62.5 -121t-89.5 -71.5t-131 -23.5z" />
    <glyph glyph-name="uni1EF8" unicode="&#x1ef8;" horiz-adv-x="718" 
d="M435 823q-28 0 -47 9t-34 21.5t-27.5 22t-26.5 9.5q-16 0 -22 -15t-6 -41h-82q0 33 8 67t30 57t63 23q28 0 47.5 -9.5t34.5 -21.5t27.5 -21.5t25.5 -9.5q28 0 28 56h81q0 -33 -8 -67t-29.5 -57t-62.5 -23zM282 0v253l-260 487h169l168 -329l168 329h169l-260 -487v-253
h-154z" />
    <glyph glyph-name="uni1EF9" unicode="&#x1ef9;" horiz-adv-x="597" 
d="M373 614q-27 0 -46.5 9.5t-34.5 21.5t-27.5 21.5t-26.5 9.5q-15 0 -21.5 -15t-6.5 -41h-81q0 33 7.5 67t29.5 57t63 23q28 0 47.5 -9.5t34.5 -21.5t27.5 -21t25.5 -9q28 0 28 55h81q0 -33 -8 -67t-29.5 -57t-62.5 -23zM101 -195q-27 0 -43 2l-16 2v122l13.5 -1t33.5 -1
q48 0 79 13.5t54 52.5l-196 535h152l123 -359l120 359h153l-190 -509q-26 -73 -62.5 -121t-89.5 -71.5t-131 -23.5z" />
    <glyph glyph-name="endash" unicode="&#x2013;" horiz-adv-x="704" 
d="M116 252v120h472v-120h-472z" />
    <glyph glyph-name="emdash" unicode="&#x2014;" horiz-adv-x="869" 
d="M116 252v120h636v-120h-636z" />
    <glyph glyph-name="quoteleft" unicode="&#x2018;" horiz-adv-x="262" 
d="M216 740l-83 -136q35 -2 57 -26.5t22 -58.5q0 -36 -24.5 -60t-61.5 -24q-38 0 -64 24t-26 65q0 22 11.5 49t35.5 64.5t63 91.5l8 11h62z" />
    <glyph glyph-name="quoteright" unicode="&#x2019;" horiz-adv-x="234" 
d="M34 445l83 136q-35 2 -57 26t-22 58q0 37 24.5 61t62.5 24q37 0 63 -24t26 -65q0 -23 -11 -49.5t-35.5 -64t-63.5 -92.5l-8 -10h-62z" />
    <glyph glyph-name="quotesinglbase" unicode="&#x201a;" horiz-adv-x="304" 
d="M84 -145l83 136q-35 3 -57 27t-22 58q0 37 24.5 61t61.5 24q38 0 64 -24t26 -65q0 -23 -11.5 -49.5t-35.5 -64t-63 -92.5l-8 -11h-62z" />
    <glyph glyph-name="quotedblleft" unicode="&#x201c;" horiz-adv-x="444" 
d="M184 740l-82 -136q34 -2 56.5 -26.5t22.5 -58.5q0 -36 -25 -60t-62 -24t-63 24t-26 65q0 22 11 49t35.5 64.5t63.5 91.5l7 11h62zM402 740l-83 -136q35 -2 57 -26.5t22 -58.5q0 -36 -24.5 -60t-61.5 -24q-38 0 -63.5 24t-25.5 65q0 22 11 49t35 64.5t63 91.5l8 11h62z
" />
    <glyph glyph-name="quotedblright" unicode="&#x201d;" horiz-adv-x="456" 
d="M260 445l83 136q-35 2 -57 26t-22 58q0 37 24.5 61t61.5 24q38 0 63.5 -24t25.5 -65q0 -23 -11 -49.5t-35 -64t-63 -92.5l-8 -10h-62zM42 445l83 136q-35 2 -57 26t-22 58q0 37 24.5 61t62.5 24q37 0 63 -24t26 -65q0 -23 -11 -49.5t-35.5 -64t-63.5 -92.5l-8 -10h-62z
" />
    <glyph glyph-name="quotedblbase" unicode="&#x201e;" horiz-adv-x="564" 
d="M302 -145l83 136q-35 3 -57 27t-22 58q0 37 24.5 61t61.5 24q38 0 64 -24t26 -65q0 -23 -11.5 -49.5t-35.5 -64t-63 -92.5l-8 -11h-62zM85 -145l82 136q-34 3 -56.5 27t-22.5 58q0 37 25 61t62 24t63 -24t26 -65q0 -23 -11 -49.5t-35.5 -64t-63.5 -92.5l-7 -11h-62z" />
    <glyph glyph-name="dagger" unicode="&#x2020;" horiz-adv-x="722" 
d="M296 197v325h-180v108h180v160h130v-160h179v-108h-179v-325h-130z" />
    <glyph glyph-name="daggerdbl" unicode="&#x2021;" horiz-adv-x="722" 
d="M296 197v127h-180v107h180v125h-180v108h180v126h130v-126h179v-108h-179v-125h179v-107h-179v-127h-130z" />
    <glyph glyph-name="bullet" unicode="&#x2022;" horiz-adv-x="569" 
d="M285 200q-50 0 -88 23t-59.5 61.5t-21.5 84.5q0 47 21.5 85t59.5 61t88 23q48 0 86 -23t60 -61t22 -85q0 -46 -22 -84.5t-60 -61.5t-86 -23z" />
    <glyph glyph-name="ellipsis" unicode="&#x2026;" horiz-adv-x="863" 
d="M437 -10q-37 0 -61 25.5t-24 59.5q0 36 24 61t61 25t61.5 -25t24.5 -61q0 -35 -24.5 -60t-61.5 -25zM700 -10q-38 0 -62 25.5t-24 59.5q0 36 24 61t62 25q36 0 60.5 -25t24.5 -61q0 -35 -24.5 -60t-60.5 -25zM173 -10q-37 0 -61 25.5t-24 59.5q0 36 24 61t61 25t61.5 -25
t24.5 -61q0 -35 -24.5 -60t-61.5 -25z" />
    <glyph glyph-name="perthousand" unicode="&#x2030;" horiz-adv-x="1257" 
d="M219 424q-52 0 -89.5 22.5t-58 59.5t-20.5 82q0 44 20 81t58 59t90 22q53 0 90.5 -22t57.5 -59t20 -81q0 -45 -20 -82t-58 -59.5t-90 -22.5zM167 0l415 740h121l-414 -740h-122zM219 514q31 0 50 21.5t19 51.5t-19 51t-50 21q-32 0 -51 -21t-19 -51t19 -51.5t51 -21.5z
M1038 -10q-52 0 -89.5 22.5t-58 59.5t-20.5 81t20.5 81t58 59.5t89.5 22.5t89.5 -22.5t58 -59.5t20.5 -81t-20 -81t-57.5 -59.5t-90.5 -22.5zM652 -10q-52 0 -90 22.5t-58 59.5t-20 81t20 81t58 59.5t90 22.5t89.5 -22.5t58 -59.5t20.5 -81t-20.5 -81t-58 -59.5t-89.5 -22.5
zM1038 80q31 0 50 21t19 52q0 30 -19 51t-50 21q-32 0 -51 -21t-19 -51q0 -31 19 -52t51 -21zM651 80q32 0 51 21t19 52q0 30 -19 51t-51 21q-31 0 -50 -21t-19 -51q0 -31 19 -52t50 -21z" />
    <glyph glyph-name="guilsinglleft" unicode="&#x2039;" horiz-adv-x="446" 
d="M409 529l-212 -219l212 -220h-159l-216 219l216 220h159z" />
    <glyph glyph-name="guilsinglright" unicode="&#x203a;" horiz-adv-x="446" 
d="M37 90l213 218l-213 221h159l216 -220l-216 -219h-159z" />
    <glyph glyph-name="fraction" unicode="&#x2044;" horiz-adv-x="581" 
d="M30 0l420 700h113l-422 -700h-111z" />
    <glyph glyph-name="uni2070" unicode="&#x2070;" horiz-adv-x="472" 
d="M236 399q-62 0 -106 29.5t-67 79.5t-23 110q0 61 23 111t67 79.5t106 29.5q61 0 105 -29.5t67.5 -79.5t23.5 -111t-23.5 -110.5t-67.5 -79t-105 -29.5zM236 504q32 0 52 30t20 84q0 56 -20 86t-52 30t-52 -30t-20 -86q0 -55 20 -84.5t52 -29.5z" />
    <glyph glyph-name="uni2074" unicode="&#x2074;" horiz-adv-x="486" 
d="M257 408v82l-205 1v85l166 260h152v-255h66v-91h-66v-82h-113zM164 581h93v145z" />
    <glyph glyph-name="uni2075" unicode="&#x2075;" horiz-adv-x="457" 
d="M227 400q-59 0 -93.5 18.5t-51 44t-22 48t-5.5 30.5h114l3.5 -11t15.5 -22t38 -11q28 0 42 17t14 37t-14 36.5t-42 16.5q-25 0 -35 -12l-10 -12h-122l29 254h285v-99h-198l-9 -77l5 -1q1 2 11 10.5t28.5 16t46.5 7.5q47 0 78.5 -19.5t47.5 -51t16 -66.5
q0 -37 -18.5 -72.5t-57 -58.5t-96.5 -23z" />
    <glyph glyph-name="uni2076" unicode="&#x2076;" horiz-adv-x="481" 
d="M248 397q-64 0 -105.5 28t-62 73t-20.5 95q0 43 15.5 86t46.5 79t78 57.5t111 21.5q24 0 42.5 -2.5l18.5 -2.5v-102l-20.5 2.5t-39.5 2.5q-51 0 -90 -26.5t-45 -74.5q9 16 32.5 35t71.5 19q46 0 77.5 -19.5t47 -50.5t15.5 -66q0 -38 -19 -73.5t-57.5 -58.5t-96.5 -23z
M246 492q30 0 45 17.5t15 37.5q0 21 -15 38.5t-45 17.5q-29 0 -43.5 -17.5t-14.5 -38.5q0 -20 14.5 -37.5t43.5 -17.5z" />
    <glyph glyph-name="uni2077" unicode="&#x2077;" horiz-adv-x="409" 
d="M106 409q3 61 19.5 113t39.5 93.5t45.5 72t38.5 47.5h-213v100h341v-82l-15 -15.5t-37 -45.5t-44.5 -72t-38.5 -95.5t-19 -115.5h-117z" />
    <glyph glyph-name="uni2078" unicode="&#x2078;" horiz-adv-x="453" 
d="M226 399q-42 0 -81.5 12.5t-65.5 39.5t-26 69q0 29 12 48.5t27.5 30.5t27 16t11.5 4v7l-10.5 4t-24 14.5t-24 28.5t-10.5 44q0 39 23.5 65.5t61 40.5t79.5 14q41 0 78.5 -14t61 -40.5t23.5 -65.5q0 -26 -10.5 -44t-24 -28.5t-23.5 -14.5l-10 -4v-7q0 1 11.5 -4t27 -16
t27 -30.5t11.5 -48.5q0 -42 -25.5 -69t-65.5 -39.5t-81 -12.5zM226 663q24 0 36.5 13.5t12.5 29.5t-12.5 29.5t-36.5 13.5q-25 0 -37 -13.5t-12 -29.5t12 -29.5t37 -13.5zM226 486q27 0 41 15t14 33q0 17 -13.5 32t-41.5 15t-42 -15t-14 -32q0 -18 14 -33t42 -15z" />
    <glyph glyph-name="uni2079" unicode="&#x2079;" horiz-adv-x="481" 
d="M233 845q64 0 105.5 -28t62 -73t20.5 -95q0 -43 -15 -86t-46 -79t-78.5 -57.5t-111.5 -21.5q-24 0 -42 2.5l-18 2.5v101l20 -2t39 -2q52 0 90.5 26t44.5 74q-8 -15 -31.5 -34t-72.5 -19q-46 0 -77 19.5t-47 50.5t-16 66q0 38 19 73.5t57.5 58.5t96.5 23zM235 750
q-30 0 -45 -17.5t-15 -38.5q0 -20 15 -37.5t45 -17.5q29 0 44 17.5t15 37.5q0 21 -15 38.5t-44 17.5z" />
    <glyph glyph-name="uni2080" unicode="&#x2080;" horiz-adv-x="472" 
d="M236 -216q-62 0 -106 29.5t-67 79.5t-23 110q0 61 23 111t67 79.5t106 29.5q61 0 105 -29.5t67.5 -79.5t23.5 -111t-23.5 -110.5t-67.5 -79t-105 -29.5zM236 -111q32 0 52 30t20 84q0 56 -20 86t-52 30t-52 -30t-20 -86q0 -54 20 -84t52 -30z" />
    <glyph glyph-name="uni2081" unicode="&#x2081;" horiz-adv-x="336" 
d="M244 221v-428h-113v284h-89v68l13 4q42 13 68 27t50 39l5 6h66z" />
    <glyph glyph-name="uni2082" unicode="&#x2082;" horiz-adv-x="457" 
d="M57 -207v83l95 71q52 40 87 67.5t35 60.5q0 22 -15.5 34t-36.5 12q-20 0 -36.5 -13.5t-16.5 -43.5h-114q0 55 24.5 90t63.5 52t83 17q48 0 86.5 -18t60.5 -49t22 -71q0 -56 -45 -100t-126 -91h174v-101h-341z" />
    <glyph glyph-name="uni2083" unicode="&#x2083;" horiz-adv-x="472" 
d="M234 -216q-55 0 -89.5 17.5t-53 42.5t-25 48t-6.5 35h113q0 -7 5 -18t18 -20t36 -9q29 0 42.5 13.5t13.5 30.5t-14 27.5t-36 10.5h-58v85h56q24 0 36.5 11.5t12.5 27.5q0 17 -13.5 28.5t-37.5 11.5q-32 0 -42.5 -17.5t-10.5 -29.5h-110q0 12 6.5 35.5t24 48.5t50 42
t85.5 17q44 0 82 -14t61 -41.5t23 -65.5q0 -30 -12.5 -49.5t-29.5 -30.5t-29 -14v-5q31 -8 54 -31t23 -61q0 -40 -23 -68t-63 -43t-89 -15z" />
    <glyph glyph-name="uni2084" unicode="&#x2084;" horiz-adv-x="476" 
d="M247 -207v82l-205 1v85l166 260h152v-255h66v-91h-66v-82h-113zM154 -34h93v145z" />
    <glyph glyph-name="uni2085" unicode="&#x2085;" horiz-adv-x="463" 
d="M233 -215q-58 0 -92.5 18.5t-51.5 44t-22 48t-5 30.5h113l4 -11t16 -22t37 -11q28 0 42 17t14 37t-14 36.5t-41 16.5q-26 0 -36 -12l-10 -12h-122l29 254h286v-99h-199l-8 -77l4 -1q2 2 12 10.5t28.5 16t45.5 7.5q47 0 79 -19.5t48 -51t16 -66.5q0 -37 -19 -72.5
t-57 -58.5t-97 -23z" />
    <glyph glyph-name="uni2086" unicode="&#x2086;" horiz-adv-x="481" 
d="M248 -218q-64 0 -105.5 28t-62 73t-20.5 95q0 43 15.5 86t46.5 79t78 57.5t111 21.5q24 0 42.5 -2.5l18.5 -2.5v-102l-20.5 2.5t-39.5 2.5q-51 0 -90 -26.5t-45 -74.5q9 16 32.5 35t71.5 19q46 0 77.5 -19.5t47 -50.5t15.5 -66q0 -38 -19 -73.5t-57.5 -58.5t-96.5 -23z
M246 -123q30 0 45 17.5t15 37.5q0 21 -15 38.5t-45 17.5q-29 0 -43.5 -17.5t-14.5 -38.5q0 -20 14.5 -37.5t43.5 -17.5z" />
    <glyph glyph-name="uni2087" unicode="&#x2087;" horiz-adv-x="401" 
d="M106 -207q3 60 19.5 112t39.5 94t45.5 72.5t38.5 47.5h-213v100h341v-82l-15 -16t-37 -45.5t-44.5 -72t-38.5 -95.5t-19 -115h-117z" />
    <glyph glyph-name="uni2088" unicode="&#x2088;" horiz-adv-x="453" 
d="M226 -216q-42 0 -81.5 12.5t-65.5 39.5t-26 69q0 29 12 48.5t27.5 30.5t27 16t11.5 4v7l-10.5 4t-24 14.5t-24 28.5t-10.5 44q0 39 23.5 65.5t61 40.5t79.5 14q41 0 78.5 -14t61 -40.5t23.5 -65.5q0 -26 -10.5 -44t-24 -28.5t-23.5 -14.5l-10 -4v-7q0 1 11.5 -4t27 -16
t27 -30.5t11.5 -48.5q0 -42 -25.5 -69t-65.5 -39.5t-81 -12.5zM226 48q24 0 36.5 13.5t12.5 29.5t-12.5 29.5t-36.5 13.5q-25 0 -37 -13.5t-12 -29.5t12 -29.5t37 -13.5zM226 -129q27 0 41 15t14 33q0 17 -13.5 32t-41.5 15t-42 -15t-14 -32q0 -18 14 -33t42 -15z" />
    <glyph glyph-name="uni2089" unicode="&#x2089;" horiz-adv-x="481" 
d="M233 224q64 0 105.5 -28t62 -73t20.5 -95q0 -43 -15 -86t-46 -79t-78.5 -57.5t-111.5 -21.5q-24 0 -42 2.5l-18 2.5v102l20 -2.5t39 -2.5q52 0 90.5 26.5t44.5 74.5q-8 -16 -31.5 -35t-72.5 -19q-46 0 -77 19.5t-47 50.5t-16 66q0 38 19 73.5t57.5 58.5t96.5 23zM235 129
q-30 0 -45 -17.5t-15 -37.5q0 -21 15 -38.5t45 -17.5q29 0 44 17.5t15 38.5q0 20 -15 37.5t-44 17.5z" />
    <glyph glyph-name="dong" unicode="&#x20ab;" horiz-adv-x="637" 
d="M255 138q-61 0 -102.5 29.5t-62 76.5t-20.5 98t20.5 97.5t62 76.5t102.5 30q41 0 67.5 -13t39.5 -27t16 -19h7v89h-102v78h102v46h130v-46h65v-78h-65v-432h-130v52h-7q-3 -4 -16.5 -18.5t-39.5 -27t-67 -12.5zM294 242q47 0 70.5 31.5t23.5 68.5t-23.5 68.5t-70.5 31.5
q-46 0 -69.5 -31.5t-23.5 -68.5t23.5 -68.5t69.5 -31.5zM60 0v71h514v-71h-514z" />
    <glyph glyph-name="Euro" unicode="&#x20ac;" horiz-adv-x="688" 
d="M28 266v77h79q-1 13 -1 27q0 13 1 26h-79v77h91q18 75 66 138t125.5 101t186.5 38q36 0 71 -4t57.5 -8.5l22.5 -4.5v-134l-22 4.5t-55 8.5t-65 4q-90 0 -145.5 -41.5t-78.5 -101.5h260v-77h-278q-1 -13 -1 -26q0 -14 1 -27h278v-77h-260q24 -60 79 -101.5t145 -41.5
q32 0 65 4.5t55 9l22 4.5v-135l-22.5 -4t-57.5 -8t-71 -4q-109 0 -186.5 38t-125 101t-66.5 137h-91z" />
    <glyph glyph-name="trademark" unicode="&#x2122;" horiz-adv-x="858" 
d="M401 390v350h132l62 -153l67 153h128v-350h-98v206l-56 -131h-82l-56 134v-209h-97zM145 390v265h-106v85h310v-85h-105v-265h-99z" />
    <glyph glyph-name="oneeighth" unicode="&#x215b;" horiz-adv-x="811" 
d="M180 704v-349h-100v228h-70v62l10 2q33 9 55.5 21.5t42.5 32.5l3 3h59zM149 0l421 700h112l-421 -700h-112zM729 -5q-35 0 -68 10.5t-54 32.5t-21 57q0 25 9.5 41t22.5 25.5t22.5 13l9.5 3.5v3l-14 6.5t-28 23t-14 45.5q0 32 19 54t50 33.5t66 11.5t66 -11.5t50.5 -33
t19.5 -52.5t-14.5 -47.5t-29 -23l-14.5 -6.5v-3l9.5 -3.5t22.5 -13t22.5 -25.5t9.5 -41q0 -35 -21 -57t-53.5 -32.5t-67.5 -10.5zM729 212q21 0 31.5 12t10.5 26t-10.5 25.5t-31.5 11.5t-31.5 -12t-10.5 -26q0 -13 10.5 -25t31.5 -12zM729 65q23 0 34.5 13t11.5 29
q0 15 -11.5 28t-34.5 13t-34.5 -13t-11.5 -28q0 -16 11.5 -29t34.5 -13z" />
    <glyph glyph-name="threeeighths" unicode="&#x215c;" horiz-adv-x="830" 
d="M175 350q-46 0 -74 14t-42.5 34t-19.5 39t-5 29h93q0 -9 10 -23t37 -14q23 0 34 10.5t11 24.5q0 12 -9.5 22t-32.5 10h-40v70h40q20 0 30.5 10t10.5 23t-11 23t-32 10q-25 0 -34.5 -13.5t-9.5 -23.5h-90q0 11 5.5 29.5t19.5 38.5t40.5 33.5t68.5 13.5q37 0 68.5 -12
t50.5 -34.5t19 -53.5q0 -34 -20 -54t-37 -23v-4q20 -6 41 -22t21 -52q0 -47 -40.5 -76t-102.5 -29zM228 0l420 700h113l-422 -700h-111zM807 -5q-34 0 -67 10.5t-54 32.5t-21 57q0 25 9.5 41t22 25.5t22 13l9.5 3.5v3l-14 6.5t-28 23t-14 45.5q0 32 19.5 54t50.5 33.5
t65 11.5q35 0 66.5 -11.5t50.5 -33t19 -52.5t-14.5 -47.5t-29 -23l-14.5 -6.5v-3l10 -3.5t22.5 -13t22.5 -25.5t10 -41q0 -35 -21 -57t-54 -32.5t-68 -10.5zM807 212q21 0 32 12t11 26t-11 25.5t-32 11.5q-20 0 -30.5 -12t-10.5 -26q0 -13 10.5 -25t30.5 -12zM807 65
q24 0 35.5 13t11.5 29q0 15 -11.5 28t-35.5 13q-22 0 -34 -13t-12 -28q0 -16 11.5 -29t34.5 -13z" />
    <glyph glyph-name="fiveeighths" unicode="&#x215d;" horiz-adv-x="844" 
d="M172 348q-48 0 -75.5 15.5t-41 37t-17.5 40t-4 24.5h91l3 -10t13 -19.5t31 -9.5q24 0 35.5 14.5t11.5 31.5q0 18 -11.5 33t-33.5 15q-25 0 -33.5 -12.5l-8.5 -12.5h-95l23 210h231v-79h-161l-7 -68h2q1 1 8 8.5t23 15t41 7.5q39 0 64.5 -16.5t38.5 -42.5t13 -55
q0 -31 -15 -60t-46.5 -48t-79.5 -19zM233 0l420 700h112l-421 -700h-111zM812 -5q-35 0 -67.5 10.5t-54 32.5t-21.5 57q0 25 10 41t22.5 25.5t22 13l9.5 3.5v3l-14 6.5t-28 23t-14 45.5q0 32 19.5 54t50 33.5t65.5 11.5t66 -11.5t50.5 -33t19.5 -52.5t-14.5 -47.5t-29 -23
l-14.5 -6.5v-3l9.5 -3.5t22.5 -13t22.5 -25.5t9.5 -41q0 -35 -21 -57t-53.5 -32.5t-67.5 -10.5zM812 212q21 0 32 12t11 26t-11 25.5t-32 11.5q-20 0 -30.5 -12t-10.5 -26q0 -13 10.5 -25t30.5 -12zM812 65q23 0 34.5 13t11.5 29q0 15 -11.5 28t-34.5 13q-22 0 -34 -13
t-12 -28q0 -16 11.5 -29t34.5 -13z" />
    <glyph glyph-name="seveneighths" unicode="&#x215e;" horiz-adv-x="742" 
d="M62 354q4 69 23.5 122.5t43.5 90t40 55.5h-167v82h271v-66l-16 -19t-38 -55.5t-40 -89t-21 -120.5h-96zM162 0l420 700h112l-421 -700h-111zM741 -5q-35 0 -67.5 10.5t-54 32.5t-21.5 57q0 25 10 41t22.5 25.5t22 13l9.5 3.5v3l-14 6.5t-28 23t-14 45.5q0 32 19.5 54
t50 33.5t65.5 11.5t66 -11.5t50.5 -33t19.5 -52.5t-14.5 -47.5t-29 -23l-14.5 -6.5v-3l9.5 -3.5t22.5 -13t22.5 -25.5t9.5 -41q0 -35 -21 -57t-53.5 -32.5t-67.5 -10.5zM741 212q21 0 31.5 12t10.5 26t-10.5 25.5t-31.5 11.5t-31 -12t-10 -26q0 -13 10 -25t31 -12zM741 65
q23 0 34.5 13t11.5 29q0 15 -11.5 28t-34.5 13q-22 0 -34 -13t-12 -28q0 -16 11.5 -29t34.5 -13z" />
    <glyph glyph-name="minus" unicode="&#x2212;" horiz-adv-x="661" 
d="M116 247v130h429v-130h-429z" />
    <glyph glyph-name="uni2215" unicode="&#x2215;" horiz-adv-x="532" 
d="M18 0l349 740h143l-348 -740h-144z" />
    <glyph glyph-name="approxequal" unicode="&#x2248;" horiz-adv-x="595" 
d="M372 382q-28 0 -48.5 9t-36 21.5t-29 21.5t-28.5 9q-18 0 -24.5 -15t-6.5 -41h-83q0 33 8.5 67t31.5 56.5t66 22.5q29 0 50 -9.5t37 -21.5t29.5 -21.5t27.5 -9.5q30 0 30 56h82q0 -33 -8.5 -66.5t-31 -56t-66.5 -22.5zM372 158q-28 0 -48.5 9.5t-36 22t-29 21.5t-28.5 9
q-18 0 -24.5 -15t-6.5 -41h-83q0 33 8.5 66.5t31.5 56.5t66 23q29 0 50 -9.5t37 -21.5t29.5 -21.5t27.5 -9.5q30 0 30 56h82q0 -33 -8.5 -66.5t-31 -56.5t-66.5 -23z" />
    <glyph glyph-name="notequal" unicode="&#x2260;" horiz-adv-x="752" 
d="M143 0l76 135h-103v125h172l58 102h-230v125h300l76 136h118l-76 -136h102v-125h-172l-58 -102h230v-125h-300l-75 -135h-118z" />
    <glyph glyph-name="lessequal" unicode="&#x2264;" horiz-adv-x="584" 
d="M505 156l-426 159v88l426 159v-115l-270 -87l270 -89v-115zM74 0v84h436v-84h-436z" />
    <glyph glyph-name="greaterequal" unicode="&#x2265;" horiz-adv-x="584" 
d="M80 156v115l269 89l-269 87v115l425 -159v-88zM74 0v84h436v-84h-436z" />
    <glyph glyph-name="i.loclTRK" horiz-adv-x="302" 
d="M151 602q-39 0 -64.5 25.5t-25.5 61.5t25.5 61.5t64.5 25.5t64.5 -25.5t25.5 -61.5t-25.5 -61.5t-64.5 -25.5zM75 0v530h152v-530h-152z" />
    <glyph glyph-name="a.ss01" horiz-adv-x="582" 
d="M371 64q-7 -9 -24 -27t-48 -32.5t-81 -14.5q-78 0 -126.5 40.5t-48.5 111.5q0 52 26.5 86.5t73.5 54t107 26.5l128 17v18q0 32 -20 57t-66 25q-31 0 -49.5 -10t-27 -23.5t-11 -24l-2.5 -10.5h-142l3 18.5t14.5 45.5t37 54t69 45.5t111.5 18.5q83 0 134.5 -29t75 -73.5
t23.5 -91.5v-346h-150v64h-7zM190 154q0 -30 22.5 -45.5t55.5 -15.5q47 0 78.5 33t31.5 89v17l-109 -15q-35 -5 -57 -19t-22 -44z" />
    <glyph glyph-name="aacute.ss01" horiz-adv-x="591" 
d="M357 603l-112 1l81 180h141zM376 64q-7 -9 -24 -27t-48 -32.5t-81 -14.5q-79 0 -127 40.5t-48 111.5q0 52 26.5 86.5t73.5 54t107 26.5l128 17v18q0 32 -20 57t-66 25q-32 0 -50 -10t-26.5 -23.5t-11 -24l-2.5 -10.5h-143l3.5 18.5t15 45.5t37 54t69 45.5t111.5 18.5
q83 0 134 -29t75 -73.5t24 -91.5v-346h-150v64h-7zM195 154q0 -30 22.5 -45.5t55.5 -15.5q47 0 78.5 33t31.5 89v17l-109 -15q-35 -5 -57 -19t-22 -44z" />
    <glyph glyph-name="abreve.ss01" horiz-adv-x="591" 
d="M301 597q-56 0 -90.5 17.5t-53.5 43t-26.5 51.5t-9 43.5l-1.5 17.5h100l1.5 -13t9 -29.5t24 -29t46.5 -12.5q29 0 46 12.5t24 29t8.5 29.5l1.5 13h100l-1.5 -17.5t-9 -43.5t-26.5 -51.5t-53.5 -43t-89.5 -17.5zM376 64q-7 -9 -24 -27t-48 -32.5t-81 -14.5
q-79 0 -127 40.5t-48 111.5q0 52 26.5 86.5t73.5 54t107 26.5l128 17v18q0 32 -20 57t-66 25q-32 0 -50 -10t-26.5 -23.5t-11 -24l-2.5 -10.5h-143l3.5 18.5t15 45.5t37 54t69 45.5t111.5 18.5q83 0 134 -29t75 -73.5t24 -91.5v-346h-150v64h-7zM195 154q0 -30 22.5 -45.5
t55.5 -15.5q47 0 78.5 33t31.5 89v17l-109 -15q-35 -5 -57 -19t-22 -44z" />
    <glyph glyph-name="uni1EAF.ss01" horiz-adv-x="591" 
d="M357 785l-112 1l81 180h141zM301 597q-55 0 -89.5 16t-53.5 39t-27 46.5t-9.5 39.5l-1.5 16h100l2 -11t9 -24.5t23.5 -24t46.5 -10.5q29 0 45.5 10.5t24 24t9 24.5l1.5 11h100l-1.5 -16t-9.5 -39.5t-27 -46.5t-53.5 -39t-88.5 -16zM376 64q-7 -9 -24 -27t-48 -32.5
t-81 -14.5q-79 0 -127 40.5t-48 111.5q0 52 26.5 86.5t73.5 54t107 26.5l128 17v18q0 32 -20 57t-66 25q-32 0 -50 -10t-26.5 -23.5t-11 -24l-2.5 -10.5h-143l3.5 18.5t15 45.5t37 54t69 45.5t111.5 18.5q83 0 134 -29t75 -73.5t24 -91.5v-346h-150v64h-7zM195 154
q0 -30 22.5 -45.5t55.5 -15.5q47 0 78.5 33t31.5 89v17l-109 -15q-35 -5 -57 -19t-22 -44z" />
    <glyph glyph-name="uni1EB7.ss01" horiz-adv-x="591" 
d="M301 597q-56 0 -90.5 17.5t-53.5 43t-26.5 51.5t-9 43.5l-1.5 17.5h100l1.5 -13t9 -29.5t24 -29t46.5 -12.5q29 0 46 12.5t24 29t8.5 29.5l1.5 13h100l-1.5 -17.5t-9 -43.5t-26.5 -51.5t-53.5 -43t-89.5 -17.5zM376 64q-7 -9 -24 -27t-48 -32.5t-81 -14.5
q-79 0 -127 40.5t-48 111.5q0 52 26.5 86.5t73.5 54t107 26.5l128 17v18q0 32 -20 57t-66 25q-32 0 -50 -10t-26.5 -23.5t-11 -24l-2.5 -10.5h-143l3.5 18.5t15 45.5t37 54t69 45.5t111.5 18.5q83 0 134 -29t75 -73.5t24 -91.5v-346h-150v64h-7zM195 154q0 -30 22.5 -45.5
t55.5 -15.5q47 0 78.5 33t31.5 89v17l-109 -15q-35 -5 -57 -19t-22 -44zM291 -247q-35 0 -57 23.5t-22 56.5t22 56t57 23t57.5 -23t22.5 -56t-22.5 -56.5t-57.5 -23.5z" />
    <glyph glyph-name="uni1EB1.ss01" horiz-adv-x="591" 
d="M246 785l-109 181h141l81 -180zM300 597q-55 0 -89.5 16t-53.5 39t-27 46.5t-9.5 39.5l-1.5 16h100l2 -11t9.5 -24.5t24 -24t45.5 -10.5t45.5 10.5t24 24t9 24.5l1.5 11h100l-1.5 -16t-9.5 -39.5t-27 -46.5t-53 -39t-89 -16zM376 64q-7 -9 -24 -27t-48 -32.5t-81 -14.5
q-79 0 -127 40.5t-48 111.5q0 52 26.5 86.5t73.5 54t107 26.5l128 17v18q0 32 -20 57t-66 25q-32 0 -50 -10t-26.5 -23.5t-11 -24l-2.5 -10.5h-143l3.5 18.5t15 45.5t37 54t69 45.5t111.5 18.5q83 0 134 -29t75 -73.5t24 -91.5v-346h-150v64h-7zM195 154q0 -30 22.5 -45.5
t55.5 -15.5q47 0 78.5 33t31.5 89v17l-109 -15q-35 -5 -57 -19t-22 -44z" />
    <glyph glyph-name="uni1EB3.ss01" horiz-adv-x="591" 
d="M257 774v33q0 13 5.5 24t19.5 18l15 8q21 10 32 21t11 26q0 13 -9.5 22.5t-27.5 9.5t-26.5 -8.5t-10.5 -18.5t-2 -12h-87q-1 27 11.5 53.5t40.5 44.5t73 18q60 0 95 -31.5t35 -74.5q0 -35 -23.5 -59.5t-59.5 -43.5l-5 -2v-28h-87zM300 597q-55 0 -89.5 16t-53.5 39
t-27 46.5t-9.5 39.5l-1.5 16h100l2 -11t9.5 -24.5t24 -24t45.5 -10.5t45.5 10.5t24 24t9 24.5l1.5 11h100l-1.5 -16t-9.5 -39.5t-27 -46.5t-53 -39t-89 -16zM376 64q-7 -9 -24 -27t-48 -32.5t-81 -14.5q-79 0 -127 40.5t-48 111.5q0 52 26.5 86.5t73.5 54t107 26.5l128 17
v18q0 32 -20 57t-66 25q-32 0 -50 -10t-26.5 -23.5t-11 -24l-2.5 -10.5h-143l3.5 18.5t15 45.5t37 54t69 45.5t111.5 18.5q83 0 134 -29t75 -73.5t24 -91.5v-346h-150v64h-7zM195 154q0 -30 22.5 -45.5t55.5 -15.5q47 0 78.5 33t31.5 89v17l-109 -15q-35 -5 -57 -19t-22 -44
z" />
    <glyph glyph-name="uni1EB5.ss01" horiz-adv-x="591" 
d="M375 800q-28 0 -47 9t-34 21.5t-27.5 22t-26.5 9.5q-16 0 -22 -15t-6 -41h-82q0 33 8 67t30 57t63 23q28 0 47.5 -9.5t34.5 -21.5t27.5 -21.5t25.5 -9.5q28 0 28 56h81q0 -33 -8 -67t-29.5 -57t-62.5 -23zM301 597q-55 0 -89.5 16t-53.5 39t-27 46.5t-9.5 39.5l-1.5 16
h100l2 -11t9 -24.5t23.5 -24t46.5 -10.5q29 0 45.5 10.5t24 24t9 24.5l1.5 11h100l-1.5 -16t-9.5 -39.5t-27 -46.5t-53.5 -39t-88.5 -16zM376 64q-7 -9 -24 -27t-48 -32.5t-81 -14.5q-79 0 -127 40.5t-48 111.5q0 52 26.5 86.5t73.5 54t107 26.5l128 17v18q0 32 -20 57
t-66 25q-32 0 -50 -10t-26.5 -23.5t-11 -24l-2.5 -10.5h-143l3.5 18.5t15 45.5t37 54t69 45.5t111.5 18.5q83 0 134 -29t75 -73.5t24 -91.5v-346h-150v64h-7zM195 154q0 -30 22.5 -45.5t55.5 -15.5q47 0 78.5 33t31.5 89v17l-109 -15q-35 -5 -57 -19t-22 -44z" />
    <glyph glyph-name="acircumflex.ss01" horiz-adv-x="591" 
d="M111 596l130 180h120l130 -180h-119l-71 104l-71 -104h-119zM376 64q-7 -9 -24 -27t-48 -32.5t-81 -14.5q-79 0 -127 40.5t-48 111.5q0 52 26.5 86.5t73.5 54t107 26.5l128 17v18q0 32 -20 57t-66 25q-32 0 -50 -10t-26.5 -23.5t-11 -24l-2.5 -10.5h-143l3.5 18.5
t15 45.5t37 54t69 45.5t111.5 18.5q83 0 134 -29t75 -73.5t24 -91.5v-346h-150v64h-7zM195 154q0 -30 22.5 -45.5t55.5 -15.5q47 0 78.5 33t31.5 89v17l-109 -15q-35 -5 -57 -19t-22 -44z" />
    <glyph glyph-name="uni1EA5.ss01" horiz-adv-x="591" 
d="M540 725l-112 1l81 179h141zM111 596l129 154h121l129 -154h-119l-70 85l-71 -85h-119zM376 64q-7 -9 -24 -27t-48 -32.5t-81 -14.5q-79 0 -127 40.5t-48 111.5q0 52 26.5 86.5t73.5 54t107 26.5l128 17v18q0 32 -20 57t-66 25q-32 0 -50 -10t-26.5 -23.5t-11 -24
l-2.5 -10.5h-143l3.5 18.5t15 45.5t37 54t69 45.5t111.5 18.5q83 0 134 -29t75 -73.5t24 -91.5v-346h-150v64h-7zM195 154q0 -30 22.5 -45.5t55.5 -15.5q47 0 78.5 33t31.5 89v17l-109 -15q-35 -5 -57 -19t-22 -44z" />
    <glyph glyph-name="uni1EAD.ss01" horiz-adv-x="591" 
d="M111 596l130 180h120l130 -180h-119l-71 104l-71 -104h-119zM376 64q-7 -9 -24 -27t-48 -32.5t-81 -14.5q-79 0 -127 40.5t-48 111.5q0 52 26.5 86.5t73.5 54t107 26.5l128 17v18q0 32 -20 57t-66 25q-32 0 -50 -10t-26.5 -23.5t-11 -24l-2.5 -10.5h-143l3.5 18.5
t15 45.5t37 54t69 45.5t111.5 18.5q83 0 134 -29t75 -73.5t24 -91.5v-346h-150v64h-7zM195 154q0 -30 22.5 -45.5t55.5 -15.5q47 0 78.5 33t31.5 89v17l-109 -15q-35 -5 -57 -19t-22 -44zM291 -247q-35 0 -57 23.5t-22 56.5t22 56t57 23t57.5 -23t22.5 -56t-22.5 -56.5
t-57.5 -23.5z" />
    <glyph glyph-name="uni1EA7.ss01" horiz-adv-x="591" 
d="M451 725l-110 180h141l81 -179zM111 596l130 154h120l130 -154h-119l-71 85l-71 -85h-119zM376 64q-7 -9 -24 -27t-48 -32.5t-81 -14.5q-79 0 -127 40.5t-48 111.5q0 52 26.5 86.5t73.5 54t107 26.5l128 17v18q0 32 -20 57t-66 25q-32 0 -50 -10t-26.5 -23.5t-11 -24
l-2.5 -10.5h-143l3.5 18.5t15 45.5t37 54t69 45.5t111.5 18.5q83 0 134 -29t75 -73.5t24 -91.5v-346h-150v64h-7zM195 154q0 -30 22.5 -45.5t55.5 -15.5q47 0 78.5 33t31.5 89v17l-109 -15q-35 -5 -57 -19t-22 -44z" />
    <glyph glyph-name="uni1EA9.ss01" horiz-adv-x="591" 
d="M450 709v33q0 13 5.5 24t19.5 18l15 8q21 10 32 21t11 26q0 13 -9.5 22.5t-27.5 9.5t-26.5 -8.5t-10.5 -18.5t-2 -12h-87q-1 27 11.5 53.5t40.5 44.5t72 18q61 0 96 -31.5t35 -74.5q0 -35 -23.5 -59.5t-59.5 -43.5l-5 -2v-28h-87zM108 596l129 154h121l129 -154h-119
l-70 85l-71 -85h-119zM376 64q-7 -9 -24 -27t-48 -32.5t-81 -14.5q-79 0 -127 40.5t-48 111.5q0 52 26.5 86.5t73.5 54t107 26.5l128 17v18q0 32 -20 57t-66 25q-32 0 -50 -10t-26.5 -23.5t-11 -24l-2.5 -10.5h-143l3.5 18.5t15 45.5t37 54t69 45.5t111.5 18.5q83 0 134 -29
t75 -73.5t24 -91.5v-346h-150v64h-7zM195 154q0 -30 22.5 -45.5t55.5 -15.5q47 0 78.5 33t31.5 89v17l-109 -15q-35 -5 -57 -19t-22 -44z" />
    <glyph glyph-name="uni1EAB.ss01" horiz-adv-x="591" 
d="M372 786q-27 0 -46.5 9.5t-34 21.5t-27.5 21.5t-26 9.5q-16 0 -22.5 -15t-6.5 -41h-81q0 33 8 67t29.5 57t63.5 23q27 0 47 -9.5t35 -21.5t27.5 -21t25.5 -9q27 0 27 55h82q0 -33 -8 -67t-29.5 -57t-63.5 -23zM110 596l130 154h120l130 -154h-119l-71 85l-71 -85h-119z
M376 64q-7 -9 -24 -27t-48 -32.5t-81 -14.5q-79 0 -127 40.5t-48 111.5q0 52 26.5 86.5t73.5 54t107 26.5l128 17v18q0 32 -20 57t-66 25q-32 0 -50 -10t-26.5 -23.5t-11 -24l-2.5 -10.5h-143l3.5 18.5t15 45.5t37 54t69 45.5t111.5 18.5q83 0 134 -29t75 -73.5t24 -91.5
v-346h-150v64h-7zM195 154q0 -30 22.5 -45.5t55.5 -15.5q47 0 78.5 33t31.5 89v17l-109 -15q-35 -5 -57 -19t-22 -44z" />
    <glyph glyph-name="adieresis.ss01" horiz-adv-x="591" 
d="M414 591q-38 0 -62.5 24.5t-24.5 58.5q0 35 24.5 59t62.5 24q37 0 61.5 -24t24.5 -59q0 -34 -24.5 -58.5t-61.5 -24.5zM187 591q-38 0 -62 24.5t-24 58.5q0 35 24 59t62 24q37 0 61.5 -24t24.5 -59q0 -34 -24.5 -58.5t-61.5 -24.5zM376 64q-7 -9 -24 -27t-48 -32.5
t-81 -14.5q-79 0 -127 40.5t-48 111.5q0 52 26.5 86.5t73.5 54t107 26.5l128 17v18q0 32 -20 57t-66 25q-32 0 -50 -10t-26.5 -23.5t-11 -24l-2.5 -10.5h-143l3.5 18.5t15 45.5t37 54t69 45.5t111.5 18.5q83 0 134 -29t75 -73.5t24 -91.5v-346h-150v64h-7zM195 154
q0 -30 22.5 -45.5t55.5 -15.5q47 0 78.5 33t31.5 89v17l-109 -15q-35 -5 -57 -19t-22 -44z" />
    <glyph glyph-name="uni1EA1.ss01" horiz-adv-x="591" 
d="M376 64q-7 -9 -24 -27t-48 -32.5t-81 -14.5q-79 0 -127 40.5t-48 111.5q0 52 26.5 86.5t73.5 54t107 26.5l128 17v18q0 32 -20 57t-66 25q-32 0 -50 -10t-26.5 -23.5t-11 -24l-2.5 -10.5h-143l3.5 18.5t15 45.5t37 54t69 45.5t111.5 18.5q83 0 134 -29t75 -73.5t24 -91.5
v-346h-150v64h-7zM195 154q0 -30 22.5 -45.5t55.5 -15.5q47 0 78.5 33t31.5 89v17l-109 -15q-35 -5 -57 -19t-22 -44zM291 -247q-35 0 -57 23.5t-22 56.5t22 56t57 23t57.5 -23t22.5 -56t-22.5 -56.5t-57.5 -23.5z" />
    <glyph glyph-name="agrave.ss01" horiz-adv-x="591" 
d="M247 603l-109 181h141l80 -180zM376 64q-7 -9 -24 -27t-48 -32.5t-81 -14.5q-79 0 -127 40.5t-48 111.5q0 52 26.5 86.5t73.5 54t107 26.5l128 17v18q0 32 -20 57t-66 25q-32 0 -50 -10t-26.5 -23.5t-11 -24l-2.5 -10.5h-143l3.5 18.5t15 45.5t37 54t69 45.5t111.5 18.5
q83 0 134 -29t75 -73.5t24 -91.5v-346h-150v64h-7zM195 154q0 -30 22.5 -45.5t55.5 -15.5q47 0 78.5 33t31.5 89v17l-109 -15q-35 -5 -57 -19t-22 -44z" />
    <glyph glyph-name="uni1EA3.ss01" horiz-adv-x="591" 
d="M258 592v33q0 13 5.5 24.5t19.5 17.5l15 8q21 11 32 21.5t11 25.5q0 13 -9.5 23t-27.5 10t-26.5 -9t-10.5 -19t-2 -12h-87q-1 27 11.5 53.5t40.5 44.5t72 18q61 0 96 -31.5t35 -73.5q0 -36 -23.5 -60.5t-59.5 -42.5l-5 -3v-28h-87zM376 64q-7 -9 -24 -27t-48 -32.5
t-81 -14.5q-79 0 -127 40.5t-48 111.5q0 52 26.5 86.5t73.5 54t107 26.5l128 17v18q0 32 -20 57t-66 25q-32 0 -50 -10t-26.5 -23.5t-11 -24l-2.5 -10.5h-143l3.5 18.5t15 45.5t37 54t69 45.5t111.5 18.5q83 0 134 -29t75 -73.5t24 -91.5v-346h-150v64h-7zM195 154
q0 -30 22.5 -45.5t55.5 -15.5q47 0 78.5 33t31.5 89v17l-109 -15q-35 -5 -57 -19t-22 -44z" />
    <glyph glyph-name="amacron.ss01" horiz-adv-x="591" 
d="M138 615v90h325v-90h-325zM376 64q-7 -9 -24 -27t-48 -32.5t-81 -14.5q-79 0 -127 40.5t-48 111.5q0 52 26.5 86.5t73.5 54t107 26.5l128 17v18q0 32 -20 57t-66 25q-32 0 -50 -10t-26.5 -23.5t-11 -24l-2.5 -10.5h-143l3.5 18.5t15 45.5t37 54t69 45.5t111.5 18.5
q83 0 134 -29t75 -73.5t24 -91.5v-346h-150v64h-7zM195 154q0 -30 22.5 -45.5t55.5 -15.5q47 0 78.5 33t31.5 89v17l-109 -15q-35 -5 -57 -19t-22 -44z" />
    <glyph glyph-name="aogonek.ss01" horiz-adv-x="591" 
d="M512 -184q-73 0 -106.5 29.5t-33.5 70.5q0 30 14.5 50.5t33.5 33.5h-37v64h-7q-7 -9 -24 -27t-48 -32.5t-81 -14.5q-79 0 -127 40.5t-48 111.5q0 52 26.5 86.5t73.5 54t107 26.5l128 17v18q0 32 -20 57t-66 25q-32 0 -50 -10t-26.5 -23.5t-11 -24l-2.5 -10.5h-143
l3.5 18.5t15 45.5t37 54t69 45.5t111.5 18.5q83 0 134 -29t75 -73.5t24 -91.5v-346l-13 -6.5t-25.5 -19.5t-12.5 -32q0 -15 12.5 -26.5t41.5 -11.5q12 0 23 1.5l11 1.5v-86l-16.5 -2.5t-41.5 -2.5zM195 154q0 -30 22.5 -45.5t55.5 -15.5q47 0 78.5 33t31.5 89v17l-109 -15
q-35 -5 -57 -19t-22 -44z" />
    <glyph glyph-name="aring.ss01" horiz-adv-x="591" 
d="M301 588q-38 0 -69 18t-49.5 49t-18.5 68q0 38 18.5 68.5t49.5 49t69 18.5q37 0 68 -18.5t49 -49t18 -68.5q0 -37 -18 -68t-49 -49t-68 -18zM301 669q22 0 38 15.5t16 38.5t-16 38.5t-38 15.5q-23 0 -39 -15.5t-16 -38.5t16 -38.5t39 -15.5zM376 64q-7 -9 -24 -27
t-48 -32.5t-81 -14.5q-79 0 -127 40.5t-48 111.5q0 52 26.5 86.5t73.5 54t107 26.5l128 17v18q0 32 -20 57t-66 25q-32 0 -50 -10t-26.5 -23.5t-11 -24l-2.5 -10.5h-143l3.5 18.5t15 45.5t37 54t69 45.5t111.5 18.5q83 0 134 -29t75 -73.5t24 -91.5v-346h-150v64h-7z
M195 154q0 -30 22.5 -45.5t55.5 -15.5q47 0 78.5 33t31.5 89v17l-109 -15q-35 -5 -57 -19t-22 -44z" />
    <glyph glyph-name="atilde.ss01" horiz-adv-x="591" 
d="M375 614q-28 0 -47 9.5t-34 21.5t-27.5 21.5t-26.5 9.5q-16 0 -22 -15t-6 -41h-82q0 33 8 67t30 57t63 23q28 0 47.5 -9.5t34.5 -21.5t27.5 -21t25.5 -9q28 0 28 55h81q0 -33 -8 -67t-29.5 -57t-62.5 -23zM376 64q-7 -9 -24 -27t-48 -32.5t-81 -14.5q-79 0 -127 40.5
t-48 111.5q0 52 26.5 86.5t73.5 54t107 26.5l128 17v18q0 32 -20 57t-66 25q-32 0 -50 -10t-26.5 -23.5t-11 -24l-2.5 -10.5h-143l3.5 18.5t15 45.5t37 54t69 45.5t111.5 18.5q83 0 134 -29t75 -73.5t24 -91.5v-346h-150v64h-7zM195 154q0 -30 22.5 -45.5t55.5 -15.5
q47 0 78.5 33t31.5 89v17l-109 -15q-35 -5 -57 -19t-22 -44z" />
    <glyph glyph-name="zero.dnom" horiz-adv-x="393" 
d="M196 -4q-51 0 -87.5 24.5t-55.5 65t-19 89.5q0 50 19 91t55.5 65.5t87.5 24.5q52 0 88 -24.5t55.5 -65.5t19.5 -91q0 -49 -19.5 -90t-56 -65t-87.5 -24zM196 85q25 0 41 22t16 68t-16 69t-41 23q-24 0 -39.5 -22.5t-15.5 -69.5t15.5 -68.5t39.5 -21.5z" />
    <glyph glyph-name="one.dnom" horiz-adv-x="119" 
d="M180 350v-349h-100v228h-70v62l10 2q33 9 55.5 21.5t42.5 32.5l3 3h59z" />
    <glyph glyph-name="two.dnom" horiz-adv-x="197" 
d="M-120 1v69l42 31q68 50 102 76.5t34 55.5q0 19 -12.5 28t-27.5 9q-17 0 -30 -11t-13 -36h-97q0 46 20.5 75.5t53 43.5t69.5 14q59 0 99.5 -32t40.5 -85q0 -46 -34 -82.5t-101 -72.5h137v-83h-283z" />
    <glyph glyph-name="three.dnom" horiz-adv-x="198" 
d="M175 -4q-46 0 -74 14t-42.5 34t-19.5 39t-5 29h93q0 -9 10 -23t37 -14q23 0 34 10.5t11 24.5q0 12 -9.5 22t-32.5 10h-40v70h40q20 0 30.5 10t10.5 23t-11 23t-32 10q-25 0 -34.5 -13.5t-9.5 -23.5h-90q0 11 5.5 29.5t19.5 38.5t40.5 33.5t68.5 13.5q37 0 68.5 -12
t50.5 -34.5t19 -53.5q0 -34 -20 -54t-37 -23v-4q20 -6 41 -22t21 -52q0 -47 -40.5 -76t-102.5 -29z" />
    <glyph glyph-name="four.dnom" horiz-adv-x="199" 
d="M17 1v68h-165v69l137 213h130v-205h49v-77h-49v-68h-102zM-53 146h70v109z" />
    <glyph glyph-name="five.dnom" horiz-adv-x="203" 
d="M172 -6q-48 0 -75.5 15.5t-41 37t-17.5 40t-4 24.5h91l3 -10t13 -19.5t31 -9.5q24 0 35.5 14.5t11.5 31.5q0 18 -11.5 33t-33.5 15q-25 0 -33.5 -12.5l-8.5 -12.5h-95l23 210h231v-79h-161l-7 -68h2q1 1 8 8.5t23 15t41 7.5q39 0 64.5 -16.5t38.5 -42.5t13 -55
q0 -31 -15 -60t-46.5 -48t-79.5 -19z" />
    <glyph glyph-name="six.dnom" horiz-adv-x="355" 
d="M186 -6q-52 0 -85.5 22.5t-50 58.5t-16.5 77q0 47 22 93t67 76t115 30q19 0 33.5 -2l14.5 -2v-82l-16 2t-33 2q-39 0 -69 -20.5t-36 -58.5q8 13 26.5 27t55.5 14q55 0 83.5 -34.5t28.5 -76.5q0 -30 -15.5 -59.5t-46.5 -48t-78 -18.5zM187 71q22 0 34.5 13.5t12.5 31.5
q0 19 -12.5 32.5t-34.5 13.5q-23 0 -35 -13.5t-12 -32.5q0 -18 12 -31.5t35 -13.5z" />
    <glyph glyph-name="seven.dnom" horiz-adv-x="132" 
d="M62 0q4 69 23.5 122.5t43.5 90t40 55.5h-167v82h271v-66l-16 -19t-38 -55.5t-40 -89t-21 -120.5h-96z" />
    <glyph glyph-name="eight.dnom" horiz-adv-x="205" 
d="M29 -5q-35 0 -68 10.5t-54 32.5t-21 57q0 25 9.5 41t22.5 25.5t22.5 13l9.5 3.5v3l-14 6.5t-28 23t-14 45.5q0 32 19 54t50 33.5t66 11.5t66 -11.5t50.5 -33t19.5 -52.5t-14.5 -47.5t-29 -23l-14.5 -6.5v-3l9.5 -3.5t22.5 -13t22.5 -25.5t9.5 -41q0 -35 -21 -57
t-53.5 -32.5t-67.5 -10.5zM29 212q21 0 31.5 12t10.5 26t-10.5 25.5t-31.5 11.5t-31.5 -12t-10.5 -26q0 -13 10.5 -25t31.5 -12zM29 65q23 0 34.5 13t11.5 29q0 15 -11.5 28t-34.5 13t-34.5 -13t-11.5 -28q0 -16 11.5 -29t34.5 -13z" />
    <glyph glyph-name="nine.dnom" horiz-adv-x="355" 
d="M170 351q52 0 85.5 -23t49.5 -59t16 -76q0 -48 -21.5 -93.5t-66.5 -75.5t-115 -30q-20 0 -34.5 2l-14.5 2v82l16 -2t33 -2q40 0 70 20.5t35 57.5q-7 -12 -26 -26t-55 -14q-56 0 -84.5 34t-28.5 76q0 31 15.5 60t46.5 48t79 19zM169 274q-23 0 -35 -13.5t-12 -32.5
q0 -18 12 -32t35 -14q22 0 34 14t12 32q0 19 -12 32.5t-34 13.5z" />
    <glyph glyph-name="zero.numr" horiz-adv-x="399" 
d="M202 350q-51 0 -87.5 24.5t-55.5 65t-19 89.5q0 50 19 91t55.5 65.5t87.5 24.5q52 0 88 -24.5t55.5 -65.5t19.5 -91q0 -49 -19.5 -90t-56 -65t-87.5 -24zM202 439q25 0 41 22t16 68t-16 69t-41 23q-24 0 -39.5 -22.5t-15.5 -69.5t15.5 -68.5t39.5 -21.5z" />
    <glyph glyph-name="one.numr" horiz-adv-x="119" 
d="M180 704v-349h-100v228h-70v62l10 2q33 9 55.5 21.5t42.5 32.5l3 3h59z" />
    <glyph glyph-name="two.numr" horiz-adv-x="197" 
d="M-120 355v69l42 31q68 50 102 76.5t34 55.5q0 19 -12.5 28t-27.5 9q-17 0 -30 -11t-13 -36h-97q0 46 20.5 75.5t53 43.5t69.5 14q59 0 99.5 -32t40.5 -85q0 -46 -34 -82.5t-101 -72.5h137v-83h-283z" />
    <glyph glyph-name="three.numr" horiz-adv-x="198" 
d="M175 350q-46 0 -74 14t-42.5 34t-19.5 39t-5 29h93q0 -9 10 -23t37 -14q23 0 34 10.5t11 24.5q0 12 -9.5 22t-32.5 10h-40v70h40q20 0 30.5 10t10.5 23t-11 23t-32 10q-25 0 -34.5 -13.5t-9.5 -23.5h-90q0 11 5.5 29.5t19.5 38.5t40.5 33.5t68.5 13.5q37 0 68.5 -12
t50.5 -34.5t19 -53.5q0 -34 -20 -54t-37 -23v-4q20 -6 41 -22t21 -52q0 -47 -40.5 -76t-102.5 -29z" />
    <glyph glyph-name="four.numr" horiz-adv-x="199" 
d="M17 355v68h-165v69l137 213h130v-205h49v-77h-49v-68h-102zM-53 500h70v109z" />
    <glyph glyph-name="five.numr" horiz-adv-x="203" 
d="M172 348q-48 0 -75.5 15.5t-41 37t-17.5 40t-4 24.5h91l3 -10t13 -19.5t31 -9.5q24 0 35.5 14.5t11.5 31.5q0 18 -11.5 33t-33.5 15q-25 0 -33.5 -12.5l-8.5 -12.5h-95l23 210h231v-79h-161l-7 -68h2q1 1 8 8.5t23 15t41 7.5q39 0 64.5 -16.5t38.5 -42.5t13 -55
q0 -31 -15 -60t-46.5 -48t-79.5 -19z" />
    <glyph glyph-name="six.numr" horiz-adv-x="355" 
d="M186 348q-52 0 -85.5 22.5t-50 58.5t-16.5 77q0 47 22 93t67 76t115 30q19 0 33.5 -2l14.5 -2v-82l-16 2t-33 2q-39 0 -69 -20.5t-36 -58.5q8 13 26.5 27t55.5 14q55 0 83.5 -34.5t28.5 -76.5q0 -30 -15.5 -59.5t-46.5 -48t-78 -18.5zM187 425q22 0 34.5 13.5t12.5 31.5
q0 19 -12.5 32.5t-34.5 13.5q-23 0 -35 -13.5t-12 -32.5q0 -18 12 -31.5t35 -13.5z" />
    <glyph glyph-name="seven.numr" horiz-adv-x="132" 
d="M62 354q4 69 23.5 122.5t43.5 90t40 55.5h-167v82h271v-66l-16 -19t-38 -55.5t-40 -89t-21 -120.5h-96z" />
    <glyph glyph-name="eight.numr" horiz-adv-x="205" 
d="M29 349q-35 0 -68 10.5t-54 32.5t-21 57q0 25 9.5 41t22.5 25.5t22.5 13l9.5 3.5v3l-14 6.5t-28 23t-14 45.5q0 32 19 54t50 33.5t66 11.5t66 -11.5t50.5 -33t19.5 -52.5t-14.5 -47.5t-29 -23l-14.5 -6.5v-3l9.5 -3.5t22.5 -13t22.5 -25.5t9.5 -41q0 -35 -21 -57
t-53.5 -32.5t-67.5 -10.5zM29 566q21 0 31.5 12t10.5 26t-10.5 25.5t-31.5 11.5t-31.5 -12t-10.5 -26q0 -13 10.5 -25t31.5 -12zM29 419q23 0 34.5 13t11.5 29q0 15 -11.5 28t-34.5 13t-34.5 -13t-11.5 -28q0 -16 11.5 -29t34.5 -13z" />
    <glyph glyph-name="nine.numr" horiz-adv-x="355" 
d="M170 705q52 0 85.5 -23t49.5 -59t16 -76q0 -48 -21.5 -93.5t-66.5 -75.5t-115 -30q-20 0 -34.5 2l-14.5 2v82l16 -2t33 -2q40 0 70 20.5t35 57.5q-7 -12 -26 -26t-55 -14q-56 0 -84.5 34t-28.5 76q0 31 15.5 60t46.5 48t79 19zM169 628q-23 0 -35 -13.5t-12 -32.5
q0 -18 12 -32t35 -14q22 0 34 14t12 32q0 19 -12 32.5t-34 13.5z" />
    <glyph glyph-name="colon.case" horiz-adv-x="335" 
d="M168 474q-38 0 -62 25.5t-24 59.5q0 36 24 61t62 25q36 0 60.5 -25t24.5 -61q0 -35 -24.5 -60t-60.5 -25zM168 95q-38 0 -62 25t-24 60q0 36 24 61t62 25q36 0 60.5 -25t24.5 -61q0 -35 -24.5 -60t-60.5 -25z" />
    <glyph glyph-name="parenleft.case" horiz-adv-x="462" 
d="M425 -182q-91 10 -161.5 57.5t-118.5 120.5t-72.5 163t-24.5 186q0 97 24.5 187t72.5 163t118.5 120t161.5 58v-138q-55 -9 -96 -45.5t-68.5 -91t-41.5 -120t-14 -133.5t14 -133.5t41.5 -120t68.5 -90.5t96 -46v-137z" />
    <glyph glyph-name="parenright.case" horiz-adv-x="462" 
d="M37 873q91 -11 161.5 -58t118 -120.5t72 -163.5t24.5 -186t-24.5 -186t-72 -163.5t-118 -120.5t-161.5 -57v137q55 10 96 46t68.5 90.5t41 120t13.5 133.5t-13.5 133.5t-41 120t-68.5 91t-96 45.5v138z" />
    <glyph glyph-name="braceleft.case" horiz-adv-x="480" 
d="M332 -187q-97 0 -148.5 51.5t-51.5 148.5v206q0 62 -62 62h-44v129h44q62 0 62 63v206q0 96 51.5 147.5t148.5 51.5h108v-130h-90q-63 0 -63 -62v-213q0 -52 -16 -80.5t-64 -43.5v-6q48 -16 64 -45t16 -80v-212q0 -62 63 -62h90v-131h-108z" />
    <glyph glyph-name="braceright.case" horiz-adv-x="480" 
d="M148 878q97 0 148.5 -51.5t51.5 -147.5v-206q0 -63 62 -63h44v-129h-44q-62 0 -62 -62v-206q0 -97 -51.5 -148.5t-148.5 -51.5h-108v131h90q63 0 63 62v212q0 53 16 81t64 44v6q-48 16 -64 45t-16 79v213q0 62 -63 62h-90v130h108z" />
    <glyph glyph-name="bracketleft.case" horiz-adv-x="528" 
d="M92 -187v1065h344v-130h-189v-804h189v-131h-344z" />
    <glyph glyph-name="bracketright.case" horiz-adv-x="528" 
d="M436 878v-1065h-344v131h189v804h-189v130h344z" />
    <glyph glyph-name="uni03060301" 
d="M231 785l-112 1l80 180h142zM174 597q-55 0 -89 16t-53 39t-27 46.5t-9.5 39.5l-1.5 16h100l1.5 -11t9 -24.5t24 -24t45.5 -10.5t45.5 10.5t24 24t9.5 24.5l2 11h100l-1.5 -16t-9.5 -39.5t-27 -46.5t-53.5 -39t-89.5 -16z" />
    <glyph glyph-name="uni03060300" 
d="M121 785l-110 181h141l81 -180zM174 597q-55 0 -89 16t-53 39t-27 46.5t-9.5 39.5l-1.5 16h100l1.5 -11t9 -24.5t24 -24t45.5 -10.5t45.5 10.5t24 24t9.5 24.5l2 11h100l-1.5 -16t-9.5 -39.5t-27 -46.5t-53.5 -39t-89.5 -16z" />
    <glyph glyph-name="uni03060309" 
d="M131 774v33q0 13 5.5 24t19.5 18l15 8q21 10 32 21t11 26q0 13 -9.5 22.5t-26.5 9.5q-19 0 -27 -8.5t-10 -18.5t-2 -12h-87q-1 27 11.5 53.5t40 44.5t72.5 18q61 0 96 -31.5t35 -74.5q0 -35 -23.5 -59.5t-60.5 -43.5l-4 -2v-28h-88zM174 597q-55 0 -89 16t-53 39
t-27 46.5t-9.5 39.5l-1.5 16h100l1.5 -11t9 -24.5t24 -24t45.5 -10.5t45.5 10.5t24 24t9.5 24.5l2 11h100l-1.5 -16t-9.5 -39.5t-27 -46.5t-53.5 -39t-89.5 -16z" />
    <glyph glyph-name="uni03060303" 
d="M248 800q-27 0 -46.5 9t-34 21.5t-27.5 22t-26 9.5q-16 0 -22.5 -15t-6.5 -41h-81q0 33 8 67t29.5 57t63.5 23q27 0 47 -9.5t35 -21.5t27.5 -21.5t25.5 -9.5q27 0 27 56h82q0 -33 -8 -67t-29.5 -57t-63.5 -23zM174 597q-55 0 -89 16t-53 39t-27 46.5t-9.5 39.5l-1.5 16
h100l1.5 -11t9 -24.5t24 -24t45.5 -10.5t45.5 10.5t24 24t9.5 24.5l2 11h100l-1.5 -16t-9.5 -39.5t-27 -46.5t-53.5 -39t-89.5 -16z" />
    <glyph glyph-name="uni03020301" 
d="M453 725l-112 1l81 179h141zM24 596l129 154h121l129 -154h-119l-71 85l-70 -85h-119z" />
    <glyph glyph-name="uni03020300" 
d="M363 725l-110 180h142l80 -179zM24 596l129 154h121l129 -154h-119l-71 85l-70 -85h-119z" />
    <glyph glyph-name="uni03020309" 
d="M366 709v33q0 13 5.5 24t18.5 18l16 8q20 10 31.5 21t11.5 26q0 13 -10 22.5t-27 9.5q-19 0 -27 -8.5t-10 -18.5t-2 -12h-87q-1 27 11.5 53.5t40 44.5t72.5 18q61 0 96 -31.5t35 -74.5q0 -35 -23.5 -59.5t-60.5 -43.5l-4 -2v-28h-87zM24 596l129 154h121l129 -154h-119
l-71 85l-70 -85h-119z" />
    <glyph glyph-name="uni03020303" 
d="M285 786q-27 0 -46.5 9.5t-34 21.5t-27 21.5t-26.5 9.5q-16 0 -22 -15t-6 -41h-82q0 33 8 67t30 57t63 23q27 0 47 -9.5t35 -21.5t27.5 -21t25.5 -9q27 0 27 55h82q0 -33 -8 -67t-29.5 -57t-63.5 -23zM24 596l129 154h121l129 -154h-119l-71 85l-70 -85h-119z" />
    </font>
</defs>
</svg>
