<?xml version="1.0" standalone="no"?>
<!DOCTYPE svg PUBLIC "-//W3C//DTD SVG 1.1//EN" "http://www.w3.org/Graphics/SVG/1.1/DTD/svg11.dtd" >
<svg xmlns="http://www.w3.org/2000/svg" xmlns:xlink="http://www.w3.org/1999/xlink" version="1.1">
<metadata>
Created by FontForge 20170731 at Sun Aug 15 09:04:26 2021
 By Aleksey,,,
Copyright 2021 The Be Vietnam Pro Project Authors (https://github.com/bettergui/BeVietnamPro)
</metadata>
<defs>
<font id="BeVietnamPro-LightItalic" horiz-adv-x="0" >
  <font-face 
    font-family="Be Vietnam Pro Light"
    font-weight="300"
    font-style="italic"
    font-stretch="normal"
    units-per-em="1000"
    panose-1="0 0 0 0 0 0 0 0 0 0"
    ascent="800"
    descent="-200"
    x-height="530"
    cap-height="740"
    bbox="-122 -258 1052 1175"
    underline-thickness="50"
    underline-position="-175"
    slope="-12"
    unicode-range="U+000D-2265"
  />
<missing-glyph horiz-adv-x="500" 
 />
    <glyph glyph-name="f_f.liga" unicode="ff" horiz-adv-x="699" 
d="M69 0l99 468h-96l14 62h95l18 86q15 69 58.5 111.5t125.5 42.5q20 0 36.5 -3l16.5 -3l-13 -61l-15 2.5t-29 2.5q-47 0 -71 -25.5t-33 -67.5l-18 -85h257l18 86q14 69 57.5 111.5t126.5 42.5q20 0 36 -3l16 -3l-12 -61l-15 2.5t-29 2.5q-48 0 -72 -25.5t-33 -67.5l-18 -85
h121l-14 -62h-120l-99 -468h-76l100 468h-258l-99 -468h-75z" />
    <glyph glyph-name="f_f_i.liga" unicode="ffi" horiz-adv-x="941" 
d="M69 0l99 468h-96l14 62h95l18 86q15 69 58.5 111.5t125.5 42.5q20 0 36.5 -3l16.5 -3l-13 -61l-15 2.5t-29 2.5q-47 0 -71 -25.5t-33 -67.5l-18 -85h257l18 86q14 69 57.5 111.5t126.5 42.5q20 0 36 -3l16 -3l-12 -61l-15 2.5t-29 2.5q-48 0 -72 -25.5t-33 -67.5l-18 -85
h318l-113 -530h-75l100 468h-243l-99 -468h-76l100 468h-258l-99 -468h-75zM901 627q-23 0 -38 16t-15 37q0 22 15 37.5t38 15.5t38.5 -15.5t15.5 -37.5t-15.5 -37.5t-38.5 -15.5z" />
    <glyph glyph-name="f_i.liga" unicode="fi" horiz-adv-x="609" 
d="M69 0l99 468h-96l14 62h95l18 86q15 69 58.5 111.5t125.5 42.5q20 0 36.5 -3l16.5 -3l-13 -61l-15 2.5t-29 2.5q-47 0 -71 -25.5t-33 -67.5l-18 -85h318l-113 -530h-76l100 468h-243l-99 -468h-75zM569 627q-23 0 -38 16t-15 37q0 22 15 37.5t38 15.5q22 0 37.5 -15.5
t15.5 -37.5t-15.5 -37.5t-37.5 -15.5z" />
    <glyph glyph-name="colon_b_e_colon.liga" unicode="&#x3a;be&#x3a;" horiz-adv-x="795" 
d="M200 458l61 177h146q55 0 84 16.5t41 43t14 55.5q43 -13 63 -43t20 -74q0 -78 -57.5 -126.5t-154.5 -48.5h-217zM44 0l93 267h229q78 0 120 25t58 65t13 83q61 -13 97 -60t36 -114q0 -54 -23.5 -102.5t-65.5 -85t-97.5 -57.5t-119.5 -21h-340z" />
    <glyph glyph-name="colon_d_d_colon.liga" unicode="&#x3a;dd&#x3a;" horiz-adv-x="599" 
d="M214 131q-51 0 -84.5 24t-50 63t-16.5 84q0 42 13.5 83.5t40 76t65 55t87.5 20.5q45 0 71.5 -16t40 -35.5t17.5 -28.5h4l26 123h-101l11 52h102l14 68h69l-15 -68h70l-11 -52h-70l-94 -442h-69l13 59h-5l-7.5 -10t-23 -23t-39.5 -23t-58 -10zM131 304q0 -45 24 -80
t76 -35q45 0 78 27t50.5 67.5t17.5 80.5q0 46 -24 80.5t-77 34.5q-46 0 -78.5 -27t-49.5 -67t-17 -81zM-3 0l11 54h485l-11 -54h-485z" />
    <glyph glyph-name="colon_s_t_a_r_colon.liga" unicode="&#x3a;star&#x3a;" horiz-adv-x="831" 
d="M171 51l126 246l-169 138l239 9l135 228l39 -227l236 -10l-227 -138l21 -246l-164 147z" />
    <glyph glyph-name=".notdef" horiz-adv-x="500" 
 />
    <glyph glyph-name=".null" 
 />
    <glyph glyph-name="nonmarkingreturn" horiz-adv-x="333" 
 />
    <glyph glyph-name="CR" unicode="&#xd;" horiz-adv-x="600" 
 />
    <glyph glyph-name="space" unicode=" " horiz-adv-x="230" 
 />
    <glyph glyph-name="exclam" unicode="!" horiz-adv-x="246" 
d="M74 174l116 566h75l-124 -566h-67zM80 -10q-23 0 -38 16t-15 38q0 21 15 37t38 16t38 -16t15 -37q0 -23 -15 -38.5t-38 -15.5z" />
    <glyph glyph-name="quotedbl" unicode="&#x22;" horiz-adv-x="296" 
d="M238 554l47 186h73l-68 -186h-52zM112 554l47 186h74l-68 -186h-53z" />
    <glyph glyph-name="numbersign" unicode="#" horiz-adv-x="762" 
d="M82 0l87 210h-150l30 70h149l73 179h-147l30 70h146l88 211h75l-87 -211h173l87 211h75l-87 -211h150l-30 -70h-149l-74 -179h148l-30 -70h-147l-87 -210h-75l87 210h-173l-87 -210h-75zM273 280h173l74 179h-173z" />
    <glyph glyph-name="dollar" unicode="$" horiz-adv-x="645" 
d="M225 -100l20 95q-63 10 -102.5 35.5t-60.5 57.5t-29.5 62t-9.5 49.5l-1 19.5h77l1 -13.5t7 -34t20.5 -43t41.5 -40.5t70 -25l62 289l-27 12q-38 17 -70.5 41t-52 59t-19.5 86q0 53 29.5 99t84.5 73.5t130 27.5h9l19 88h63l-20 -95q52 -10 84.5 -34t50 -53t24.5 -55.5
t8 -43.5l1 -17h-75l-2 16.5t-12 40.5t-32 46.5t-61 32.5l-58 -274l10 -4q40 -19 77 -42.5t61 -60.5t24 -94q0 -60 -34.5 -108t-93 -75.5t-129.5 -27.5h-3l-19 -90h-63zM328 433l9 -5l54 256q-73 -2 -117.5 -38t-44.5 -92q0 -46 28 -74t71 -47zM490 199q0 50 -33 78.5
t-78 48.5l-57 -267q45 2 83 19.5t61.5 48.5t23.5 72z" />
    <glyph glyph-name="percent" unicode="%" horiz-adv-x="811" 
d="M251 465q-43 0 -70.5 17.5t-41 46.5t-13.5 62q0 38 18 74.5t53 60.5t86 24q42 0 70 -18t41.5 -46.5t13.5 -60.5q0 -39 -18 -75.5t-53 -60.5t-86 -24zM118 0l550 740h70l-550 -740h-70zM253 513q33 0 55.5 16.5t34.5 42t12 51.5q0 31 -18.5 55.5t-56.5 24.5
q-33 0 -55.5 -16.5t-34.5 -42t-12 -51.5q0 -31 18.5 -55.5t56.5 -24.5zM575 -10q-42 0 -69.5 18t-41 47t-13.5 61q0 39 18 75.5t52.5 60.5t85.5 24q42 0 70 -18t41.5 -46.5t13.5 -60.5q0 -39 -18 -76t-53 -61t-86 -24zM578 38q32 0 55 17t34.5 42t11.5 51q0 31 -18 55.5
t-57 24.5q-32 0 -55 -16.5t-34.5 -42t-11.5 -51.5q0 -31 18.5 -55.5t56.5 -24.5z" />
    <glyph glyph-name="ampersand" unicode="&#x26;" horiz-adv-x="661" 
d="M239 -10q-67 0 -118.5 25.5t-80.5 70.5t-29 103q0 61 30 105.5t77.5 75t99.5 52.5q-25 40 -39.5 77.5t-14.5 77.5q0 57 25.5 95.5t65.5 58.5t84 20q42 0 80 -17.5t62.5 -51.5t24.5 -82q0 -42 -18 -74t-46.5 -56.5t-62 -41.5t-65.5 -30q4 -5 7.5 -10t7.5 -11l132 -187
q27 45 47 104t32 134h68q-15 -95 -42.5 -168t-65.5 -126l95 -134h-88l-54 78q-46 -45 -100.5 -66.5t-113.5 -21.5zM231 579q0 -32 14 -64t37 -69l8 3q19 7 44 18.5t49.5 29.5t40.5 42.5t16 57.5q0 46 -31 69.5t-69 23.5q-27 0 -52 -12t-41 -36.5t-16 -62.5zM83 197
q0 -63 45.5 -103t119.5 -40q98 0 169 77l-130 187q-10 15 -19.5 28.5t-18.5 26.5q-39 -15 -77 -37t-63.5 -56t-25.5 -83z" />
    <glyph glyph-name="quotesingle" unicode="'" horiz-adv-x="171" 
d="M112 554l47 186h74l-68 -186h-53z" />
    <glyph glyph-name="parenleft" unicode="(" horiz-adv-x="392" 
d="M244 -201q-67 25 -112 83t-68 136.5t-23 164.5q0 84 18.5 170t53.5 165t86.5 144t117 107t144.5 52l-15 -70q-61 -11 -112 -49.5t-91 -96t-68 -128t-43 -146.5t-15 -151q0 -70 18 -133.5t50 -111t74 -66.5z" />
    <glyph glyph-name="parenright" unicode=")" horiz-adv-x="405" 
d="M165 819q67 -25 112 -83t68 -136.5t23 -164.5q0 -84 -18.5 -170t-53.5 -165t-86.5 -144t-117 -107t-144.5 -52l15 70q61 11 112 49.5t91 96t68 128t43 146.5t15 151q0 70 -18 133.5t-50 111t-74 66.5z" />
    <glyph glyph-name="asterisk" unicode="*" horiz-adv-x="496" 
d="M218 351l-51 36l98 132l-157 50l19 59l156 -52l-1 164h62l-1 -164l156 52l19 -59l-156 -50l97 -132l-50 -36l-96 133z" />
    <glyph glyph-name="plus" unicode="+" horiz-adv-x="587" 
d="M225 127l33 154h-154l14 64h154l32 154h65l-33 -154h154l-14 -64h-153l-33 -154h-65z" />
    <glyph glyph-name="comma" unicode="," horiz-adv-x="254" 
d="M17 -106l62 100q-23 1 -37 17t-14 38q0 24 16.5 39t40.5 15q23 0 40 -14.5t17 -40.5q0 -24 -17.5 -53.5t-56.5 -86.5l-9 -14h-42z" />
    <glyph glyph-name="hyphen" unicode="-" horiz-adv-x="598" 
d="M116 281l2 64h372l-2 -64h-372z" />
    <glyph glyph-name="period" unicode="." horiz-adv-x="252" 
d="M84 -8q-24 0 -39.5 16.5t-15.5 39.5t15.5 39t39.5 16t40 -16t16 -39q0 -24 -16 -40t-40 -16z" />
    <glyph glyph-name="slash" unicode="/" horiz-adv-x="513" 
d="M-20 -140l551 962h79l-551 -962h-79z" />
    <glyph glyph-name="zero" unicode="0" horiz-adv-x="627" 
d="M272 -10q-73 0 -121 39t-71 104.5t-23 143.5q0 64 14.5 131t42.5 128t68 109.5t91.5 76.5t111.5 28q74 0 121.5 -39.5t70.5 -104.5t23 -144q0 -64 -14.5 -130.5t-42 -127.5t-67.5 -109.5t-91.5 -76.5t-112.5 -28zM276 60q44 0 82.5 24.5t68.5 66.5t51.5 95t33 109.5
t11.5 109.5q0 59 -14.5 107.5t-45.5 77.5t-81 29q-44 0 -82.5 -24.5t-68.5 -66.5t-51.5 -95t-33 -109.5t-11.5 -109.5q0 -59 14.5 -107.5t46 -77.5t80.5 -29z" />
    <glyph glyph-name="one" unicode="1" horiz-adv-x="353" 
d="M347 740l-157 -740h-75l126 597l-133 -1l9 45l27 6q55 13 88 32t63 51l10 10h42z" />
    <glyph glyph-name="two" unicode="2" horiz-adv-x="619" 
d="M14 0l11 55l223 175q70 55 131 104.5t99 101t38 110.5q0 61 -41 97t-107 36q-51 0 -83.5 -17t-51 -42.5t-27.5 -51t-11 -43l-2 -17.5h-74l2 17.5t10 45t24.5 58.5t44.5 58.5t70 45t101 17.5q70 0 119.5 -26.5t76 -72t26.5 -102.5q0 -65 -36.5 -122.5t-103 -116.5
t-158.5 -127l-147 -112h384l-15 -71h-503z" />
    <glyph glyph-name="three" unicode="3" horiz-adv-x="620" 
d="M299 -10q-66 0 -110.5 16.5t-72.5 42.5t-43.5 55t-21.5 55t-7 42.5l-1 16.5h73l1.5 -16.5t10 -40.5t27.5 -48t53.5 -40t90.5 -16q62 0 104.5 23t64 60t21.5 78q0 50 -26 79t-64 41.5t-74 12.5h-87l14 64h92q51 0 91.5 16.5t64.5 48t24 76.5q0 56 -40 91.5t-108 35.5
q-50 0 -82 -14.5t-50 -36.5t-27 -43.5t-11 -36.5l-2 -15h-72l3.5 21.5t15.5 53.5t38.5 63.5t72.5 53t117 21.5q70 0 119.5 -25t75.5 -67.5t26 -93.5q0 -49 -19.5 -82t-47 -54t-52 -31t-33.5 -13l-1 -4q8 -3 27 -13.5t41 -30t37.5 -50t15.5 -73.5q0 -54 -30.5 -105
t-90.5 -84.5t-148 -33.5z" />
    <glyph glyph-name="four" unicode="4" horiz-adv-x="663" 
d="M353 0l38 179h-363l15 71l453 490h92l-106 -494h129l-14 -68l-129 1l-38 -179h-77zM124 246h281l85 397z" />
    <glyph glyph-name="five" unicode="5" horiz-adv-x="657" 
d="M300 -10q-62 0 -103.5 16.5t-68 42.5t-40.5 55t-20 55t-7 42.5l-1 16.5h73l1 -16t8.5 -40.5t25 -48.5t50 -40.5t83.5 -16.5q69 0 116.5 31.5t71.5 80t24 99.5q0 43 -18 81t-55 61.5t-93 23.5q-50 0 -85 -15t-56.5 -35t-31.5 -35l-10 -15h-73l118 407h412l-15 -68h-347
l-72 -244h3l10.5 10t32 24t54 24t76.5 10q76 0 126 -32t75 -84t25 -111q0 -51 -18 -100.5t-54.5 -90t-90.5 -64.5t-126 -24z" />
    <glyph glyph-name="six" unicode="6" horiz-adv-x="665" 
d="M324 -10q-87 0 -142.5 37t-82 99t-26.5 136q0 68 19.5 137.5t57.5 132.5t92 112t123.5 77.5t153.5 28.5q65 0 98.5 -8.5l33.5 -8.5l-14 -70l-32.5 8.5t-85.5 8.5q-87 0 -156 -38t-118.5 -103t-76.5 -145q26 36 71.5 66.5t118.5 30.5q79 0 130.5 -33t77 -86t25.5 -112
q0 -49 -17.5 -97t-51 -87t-83 -62.5t-115.5 -23.5zM324 57q62 0 104 30t63.5 76.5t21.5 95.5q0 44 -17.5 82.5t-53.5 62.5t-91 24q-63 0 -106.5 -30t-65.5 -76t-22 -95q0 -44 18 -83t55 -63t94 -24z" />
    <glyph glyph-name="seven" unicode="7" horiz-adv-x="566" 
d="M124 0q22 102 60.5 192.5t84.5 167.5t92.5 138t86 105t64.5 68h-399l14 69h495l-11 -59l-24 -23.5t-63.5 -67t-85.5 -104.5t-92 -137t-83 -164t-57 -185h-82z" />
    <glyph glyph-name="eight" unicode="8" horiz-adv-x="606" 
d="M289 -10q-84 0 -139.5 29.5t-82.5 76t-27 98.5q0 44 19 86t58 75t97 49v4q-48 23 -73.5 62.5t-25.5 85.5q0 51 30 95t85 71.5t131 27.5q72 0 123 -25t78.5 -66t27.5 -90q0 -55 -36.5 -104t-109.5 -72v-5q58 -26 86 -73t28 -99q0 -55 -30.5 -107t-90.5 -85.5t-148 -33.5z
M348 427q55 0 92.5 20t56 50.5t18.5 63.5q0 31 -17 59.5t-51.5 46.5t-85.5 18q-56 0 -93.5 -20t-56.5 -50t-19 -63q0 -32 17.5 -60.5t52 -46.5t86.5 -18zM288 56q64 0 106.5 24t64 61.5t21.5 78.5q0 37 -19 70t-56.5 54t-95.5 21q-63 0 -106 -24t-64 -61.5t-21 -77.5
q0 -37 18.5 -70.5t56.5 -54.5t95 -21z" />
    <glyph glyph-name="nine" unicode="9" horiz-adv-x="665" 
d="M386 750q87 0 142.5 -37t82 -99t26.5 -136q0 -68 -19.5 -137.5t-57 -132.5t-92 -112t-124 -77.5t-152.5 -28.5q-65 0 -99 8.5l-34 8.5l14 70l32.5 -8.5t86.5 -8.5q86 0 155.5 38t118.5 103t76 145q-25 -36 -70.5 -66.5t-119.5 -30.5q-79 0 -130.5 33t-76.5 86t-25 112
q0 49 17 97t50.5 87t83.5 62.5t115 23.5zM386 683q-61 0 -103.5 -30t-64 -76.5t-21.5 -95.5q0 -43 17.5 -82t53.5 -63t91 -24q64 0 107 30t65.5 76.5t22.5 94.5q0 44 -18.5 83t-55.5 63t-94 24z" />
    <glyph glyph-name="colon" unicode=":" horiz-adv-x="254" 
d="M179 428q-24 0 -39.5 17t-15.5 39q0 23 15.5 39.5t39.5 16.5t40 -16.5t16 -39.5t-16 -39.5t-40 -16.5zM84 -10q-24 0 -40 16.5t-16 39.5t16 39.5t40 16.5t40 -16.5t16 -39.5t-16 -39.5t-40 -16.5z" />
    <glyph glyph-name="semicolon" unicode=";" horiz-adv-x="255" 
d="M179 428q-24 0 -39.5 17t-15.5 39q0 23 15.5 39.5t39.5 16.5t40 -16.5t16 -39.5t-16 -39.5t-40 -16.5zM17 -108l62 100q-23 1 -37 17t-14 38q0 24 16.5 39.5t39.5 15.5q24 0 41 -14.5t17 -41.5q0 -24 -17.5 -53.5t-56.5 -86.5l-10 -14h-41z" />
    <glyph glyph-name="less" unicode="&#x3c;" horiz-adv-x="552" 
d="M441 122l-345 188l10 47l425 188l-15 -73l-330 -144l269 -143z" />
    <glyph glyph-name="equal" unicode="=" horiz-adv-x="698" 
d="M128 393l14 66h483l-14 -66h-483zM81 172l14 66h483l-14 -66h-483z" />
    <glyph glyph-name="greater" unicode="&#x3e;" horiz-adv-x="552" 
d="M76 122l14 73l331 144l-270 143l15 63l344 -188l-9 -47z" />
    <glyph glyph-name="question" unicode="?" horiz-adv-x="589" 
d="M227 173l3 19q6 42 28.5 73.5t53.5 57.5t64.5 49.5t63 49t47.5 56.5t18 72q0 60 -41.5 95.5t-102.5 35.5q-50 0 -82 -17t-51 -43t-28 -51.5t-11.5 -43l-2.5 -17.5h-74l2.5 17.5t10.5 45t24.5 58t44.5 58t70 45t101 17.5q65 0 114 -25.5t76.5 -69.5t27.5 -100
q0 -51 -19 -89t-48.5 -67t-64 -53t-66 -47.5t-54 -49.5t-28.5 -59l-2 -17h-74zM248 -10q-23 0 -37.5 16t-14.5 38q0 21 14.5 37t37.5 16t38.5 -16t15.5 -37q0 -22 -15.5 -38t-38.5 -16z" />
    <glyph glyph-name="at" unicode="@" horiz-adv-x="953" 
d="M460 -110q-104 0 -180 32.5t-126 88t-74.5 126t-24.5 145.5q0 85 30 168t88.5 151t144.5 108.5t199 40.5q104 0 178.5 -32.5t122.5 -87t71 -121t23 -133.5q0 -55 -14 -105t-41 -90t-64.5 -63t-84.5 -23q-41 0 -65.5 14.5t-36 34t-14.5 34l-3 14.5h-5l-9 -14.5t-28.5 -34
t-49 -34t-71.5 -14.5q-53 0 -88 26t-52 67.5t-17 89.5q0 46 14.5 91.5t41.5 83t66 60t89 22.5q39 0 64.5 -13t40.5 -30.5t21 -31l6 -13.5h4l18 80h69l-44 -203q-8 -42 -10 -81t12 -63.5t50 -24.5q39 0 69 31t47 81t17 108q0 56 -18.5 111.5t-58 100.5t-101.5 72t-149 27
q-97 0 -171 -35t-123.5 -93.5t-74.5 -130t-25 -143.5q0 -64 20.5 -123.5t62 -106t104.5 -73.5t148 -27q52 0 97 8.5t78.5 19.5t52 19.5l18.5 8.5l23 -58l-19.5 -9.5t-54.5 -21.5t-84 -21.5t-109 -9.5zM441 154q47 0 80.5 29.5t51.5 74.5t18 90q0 34 -11 63t-34 47t-60 18
q-47 0 -80.5 -29.5t-51 -74t-17.5 -89.5q0 -52 25 -90.5t79 -38.5z" />
    <glyph glyph-name="A" unicode="A" horiz-adv-x="688" 
d="M-16 0l421 740h91l106 -740h-76l-26 191h-322l-108 -191h-86zM218 261h272l-54 387z" />
    <glyph glyph-name="B" unicode="B" horiz-adv-x="657" 
d="M31 0l157 740h260q63 0 104 -23.5t61 -61t20 -80.5q0 -39 -16 -77t-47 -68t-76 -44l-1 -6q53 -17 79 -57t26 -90q0 -40 -17 -81t-50.5 -75.5t-82.5 -55.5t-112 -21h-305zM439 672h-189l-55 -263h195q54 0 91.5 24t57 59.5t19.5 71.5q0 43 -29 75.5t-90 32.5zM382 346
h-201l-59 -278h218q57 0 97.5 24.5t62.5 62t22 76.5q0 45 -34 80t-106 35z" />
    <glyph glyph-name="C" unicode="C" horiz-adv-x="749" 
d="M359 -10q-77 0 -133 26.5t-92.5 72t-54 103.5t-17.5 122q0 77 25 154t74.5 141t123.5 102.5t172 38.5q68 0 114.5 -18t76 -47t45 -61.5t22 -61t7.5 -47l1 -18.5h-77l-1.5 18.5t-9.5 46t-28 54.5t-57 45.5t-97 18.5q-77 0 -135.5 -32t-98 -85t-59.5 -116.5t-20 -127.5
q0 -68 23.5 -127t73.5 -95t128 -36q58 0 99.5 18t70 45.5t45 54.5t23.5 45.5l7 18.5h78l-6 -18.5t-20 -47t-38.5 -61t-60.5 -61.5t-86.5 -47t-117.5 -18z" />
    <glyph glyph-name="D" unicode="D" horiz-adv-x="705" 
d="M31 0l157 740h178q80 0 138 -25t96 -68.5t56.5 -99t18.5 -116.5q0 -76 -27.5 -152.5t-81.5 -139.5t-132.5 -101t-179.5 -38h-223zM358 671h-108l-128 -602h135q81 0 144.5 32t107 84.5t66 115.5t22.5 126q0 65 -25.5 120.5t-78 89.5t-135.5 34z" />
    <glyph glyph-name="E" unicode="E" horiz-adv-x="592" 
d="M31 0l157 740h438l-14 -69h-362l-55 -259h314l-14 -69h-314l-59 -274h367l-15 -69h-443z" />
    <glyph glyph-name="F" unicode="F" horiz-adv-x="595" 
d="M31 0l157 740h446l-14 -69h-370l-57 -269h323l-15 -69h-323l-70 -333h-77z" />
    <glyph glyph-name="G" unicode="G" horiz-adv-x="756" 
d="M363 -10q-77 0 -134 26t-94 71.5t-55 104t-18 123.5q0 77 25 154t75 140.5t124 102t171 38.5q68 0 114.5 -18t76 -47t45 -61.5t22 -61t7.5 -47l1 -18.5h-77l-1.5 18.5t-9.5 46t-28 54.5t-57.5 45.5t-97.5 18.5q-76 0 -134.5 -32t-98 -84.5t-59.5 -116.5t-20 -127
q0 -69 24 -128t75 -95t129 -36q75 0 129 34.5t87 92.5t44 126h-220l14 63h292l-7 -52q-13 -92 -56.5 -168t-115.5 -121.5t-172 -45.5z" />
    <glyph glyph-name="H" unicode="H" horiz-adv-x="689" 
d="M31 0l157 740h77l-69 -325h364l69 325h77l-157 -740h-77l73 345h-364l-73 -345h-77z" />
    <glyph glyph-name="I" unicode="I" horiz-adv-x="248" 
d="M31 0l157 740h77l-157 -740h-77z" />
    <glyph glyph-name="J" unicode="J" horiz-adv-x="463" 
d="M82 -10q-35 0 -61.5 5l-26.5 5l15 69l26 -4.5t54 -4.5q88 0 139 49t67 125l108 506h77l-108 -506q-24 -113 -95 -178.5t-195 -65.5z" />
    <glyph glyph-name="K" unicode="K" horiz-adv-x="618" 
d="M31 0l157 740h77l-70 -328l387 327h108l-436 -365l297 -374h-93l-276 350l-74 -350h-77z" />
    <glyph glyph-name="L" unicode="L" horiz-adv-x="595" 
d="M31 0l157 740h77l-143 -671h369l-14 -69h-446z" />
    <glyph glyph-name="M" unicode="M" horiz-adv-x="856" 
d="M31 0l157 740h101l142 -462l338 462h104l-157 -740h-77l131 618l-316 -428h-73l-138 445l-135 -635h-77z" />
    <glyph glyph-name="N" unicode="N" horiz-adv-x="731" 
d="M31 0l157 740h70l285 -604l128 604h77l-157 -740h-71l-284 603l-128 -603h-77z" />
    <glyph glyph-name="O" unicode="O" horiz-adv-x="785" 
d="M361 -10q-77 0 -133.5 26t-93.5 71t-55 103t-18 121q0 78 26.5 155.5t77 142t123.5 103t167 38.5q77 0 133.5 -26t93 -71.5t54.5 -103t18 -120.5q0 -78 -26 -155.5t-76.5 -142t-123.5 -103t-167 -38.5zM363 61q75 0 133 32.5t98 86.5t61 118.5t21 128.5q0 67 -23.5 124.5
t-73 92.5t-126.5 35q-74 0 -132.5 -32.5t-98.5 -86.5t-61 -118.5t-21 -128.5q0 -67 24 -124.5t73.5 -92.5t125.5 -35z" />
    <glyph glyph-name="P" unicode="P" horiz-adv-x="620" 
d="M31 0l157 740h213q80 0 131.5 -30t77 -78t25.5 -103q0 -47 -18.5 -93.5t-55 -84.5t-90 -60.5t-123.5 -22.5h-183l-57 -268h-77zM396 671h-146l-71 -334h175q66 0 111.5 28t69 71.5t23.5 87.5q0 38 -17.5 72t-53.5 54.5t-91 20.5z" />
    <glyph glyph-name="Q" unicode="Q" horiz-adv-x="798" 
d="M361 -10q-77 0 -133.5 26t-93.5 71t-55 103t-18 121q0 78 26.5 155.5t77 142t123.5 103t167 38.5q77 0 133.5 -26t93 -71.5t54.5 -103t18 -120.5q0 -85 -31 -170t-91 -150l90 -109h-96l-49 60q-44 -33 -98 -51.5t-118 -18.5zM363 61q49 0 91 14.5t77 40.5l-116 141l58 47
l112 -136q44 53 67.5 122t23.5 137q0 67 -23.5 124.5t-73 92.5t-126.5 35q-74 0 -132.5 -32.5t-98.5 -86.5t-61 -118.5t-21 -128.5q0 -67 24 -124.5t73.5 -92.5t125.5 -35z" />
    <glyph glyph-name="R" unicode="R" horiz-adv-x="631" 
d="M31 0l157 740h203q75 0 123 -27t71.5 -70.5t23.5 -92.5q0 -50 -24.5 -99t-71.5 -83.5t-116 -43.5l122 -324h-81l-119 322h-143l-68 -322h-77zM391 671h-141l-60 -282h167q56 0 95 24t59 60.5t20 74.5q0 48 -34 85.5t-106 37.5z" />
    <glyph glyph-name="S" unicode="S" horiz-adv-x="645" 
d="M310 -10q-70 0 -117 16.5t-76.5 42.5t-45 55.5t-21.5 55.5t-7 42.5l-1 16.5h77l1.5 -16.5t9.5 -40t28 -47.5t56.5 -40.5t95.5 -16.5q47 0 88 17t66.5 48.5t25.5 75.5q0 49 -33 77.5t-80 50.5l-83 37q-38 17 -70.5 40.5t-52 59t-19.5 85.5q0 54 29.5 99.5t84.5 73.5
t130 28q74 0 120 -21.5t70.5 -52.5t35 -62.5t12 -53l1.5 -21.5h-75l-2 14.5t-9.5 36t-25 43t-48.5 36t-79 14.5q-75 0 -121 -36.5t-46 -93.5q0 -45 28 -73t71 -48l77 -35q40 -18 77 -42t61 -60.5t24 -94.5q0 -60 -34.5 -107.5t-92.5 -75t-130 -27.5z" />
    <glyph glyph-name="T" unicode="T" horiz-adv-x="660" 
d="M229 0l142 671h-247l14 69h577l-14 -69h-253l-142 -671h-77z" />
    <glyph glyph-name="U" unicode="U" horiz-adv-x="719" 
d="M315 -10q-86 0 -143 36.5t-79 101.5t-3 153l98 459h77l-100 -467q-20 -95 20 -152.5t138 -57.5q94 0 155 58t81 148l100 471h77l-100 -471q-18 -84 -61 -146.5t-108.5 -97.5t-151.5 -35z" />
    <glyph glyph-name="V" unicode="V" horiz-adv-x="665" 
d="M222 0l-106 740h76l90 -648l366 648h87l-421 -740h-92z" />
    <glyph glyph-name="W" unicode="W" horiz-adv-x="976" 
d="M170 0l-44 740h75l34 -628l306 628h76l40 -627l296 627h83l-355 -740h-88l-38 615l-299 -615h-86z" />
    <glyph glyph-name="X" unicode="X" horiz-adv-x="664" 
d="M-10 0l333 383l-159 357h82l135 -309l266 309h100l-329 -378l161 -362h-83l-136 313l-270 -313h-100z" />
    <glyph glyph-name="Y" unicode="Y" horiz-adv-x="634" 
d="M213 0l57 269l-162 471h78l133 -392l297 392h93l-363 -473l-56 -267h-77z" />
    <glyph glyph-name="Z" unicode="Z" horiz-adv-x="630" 
d="M-1 0l13 61l537 610h-408l15 69h509l-13 -61l-538 -610h409l-15 -69h-509z" />
    <glyph glyph-name="bracketleft" unicode="[" horiz-adv-x="446" 
d="M-11 -195l218 1025h283l-14 -67h-208l-189 -892h207l-14 -66h-283z" />
    <glyph glyph-name="backslash" unicode="\" horiz-adv-x="485" 
d="M345 -140h-69l-142 962h69z" />
    <glyph glyph-name="bracketright" unicode="]" horiz-adv-x="422" 
d="M457 830l-217 -1025h-283l14 66h207l190 892h-208l14 67h283z" />
    <glyph glyph-name="asciicircum" unicode="^" horiz-adv-x="516" 
d="M167 578l152 162h66l84 -162h-66l-56 113l-104 -113h-76z" />
    <glyph glyph-name="underscore" unicode="_" horiz-adv-x="692" 
d="M42 -65l3 65h466l-3 -65h-466z" />
    <glyph glyph-name="grave" unicode="`" horiz-adv-x="202" 
d="M176 613l-75 171h74l61 -171h-60z" />
    <glyph glyph-name="a" unicode="a" horiz-adv-x="624" 
d="M330 540q46 0 77.5 -13.5t51.5 -32.5t31 -38t15 -30h5l23 104h75l-113 -530h-76l18 83h-5l-10.5 -14t-32 -32.5t-55 -32.5t-79.5 -14q-68 0 -113 32.5t-67.5 85.5t-22.5 114q0 56 18.5 112.5t54 103t87.5 74.5t118 28zM334 475q-49 0 -88 -23t-65.5 -60t-40.5 -82
t-14 -89t15 -81.5t46 -61t81 -23.5q48 0 86.5 23t65.5 60.5t41 82.5t14 89t-15 81.5t-46 60.5t-80 23z" />
    <glyph glyph-name="b" unicode="b" horiz-adv-x="637" 
d="M309 -10q-46 0 -77.5 13.5t-51.5 32.5t-31 38t-15 30h-5l-23 -104h-75l163 760h76l-68 -313h5l10.5 14t32 32.5t55 32.5t79.5 14q68 0 113 -32.5t67.5 -85.5t22.5 -114q0 -56 -18.5 -112.5t-54 -103t-87.5 -74.5t-118 -28zM305 55q49 0 88 23t65.5 60t40.5 82t14 89
t-15 81.5t-46 61t-81 23.5q-48 0 -86.5 -23t-65.5 -60.5t-41 -82.5t-14 -89t15 -81.5t46 -60.5t80 -23z" />
    <glyph glyph-name="c" unicode="c" horiz-adv-x="582" 
d="M269 -10q-74 0 -122 32t-71.5 85t-23.5 116q0 60 19.5 117t57 102t92 71.5t123.5 26.5q61 0 98.5 -18.5t58 -46t28.5 -55.5t9.5 -46.5l1.5 -18.5h-73l-0.5 12t-6 30t-19 35.5t-38.5 29.5t-65 12q-66 0 -113.5 -35t-72.5 -91t-25 -120q0 -47 16 -86t48.5 -62.5t83.5 -23.5
q48 0 79.5 18t49.5 41.5t25.5 41.5l7.5 18h74l-6.5 -18.5t-22.5 -46t-43.5 -55.5t-69.5 -46.5t-100 -18.5z" />
    <glyph glyph-name="d" unicode="d" horiz-adv-x="637" 
d="M255 -10q-68 0 -113 32.5t-67.5 85.5t-22.5 114q0 56 18.5 112.5t54 103t87.5 74.5t118 28q46 0 77.5 -13.5t51.5 -32.5t31 -38t15 -30h5l72 334h76l-163 -760h-76l18 83h-5l-10.5 -14t-32 -32.5t-55 -32.5t-79.5 -14zM268 55q48 0 86.5 23t65.5 60.5t41 82.5t14 89
t-15 81.5t-46 60.5t-80 23t-88 -23t-65.5 -60t-40.5 -82t-14 -89t15 -81.5t46 -61t81 -23.5z" />
    <glyph glyph-name="e" unicode="e" horiz-adv-x="584" 
d="M268 -10q-74 0 -122 32.5t-71 85t-23 113.5q0 57 19 113.5t56 103t90.5 74.5t121.5 28q65 0 107.5 -25.5t64.5 -67t26.5 -91t-6.5 -98.5l-4 -14h-401q-3 -51 11.5 -94t48 -69t87.5 -26q46 0 76.5 15.5t49 36t26 35.5l7.5 15h72l-7 -16.5t-23 -41.5t-43.5 -50t-67.5 -42
t-95 -17zM138 304h328q7 43 -4 82t-42.5 64t-85.5 25q-49 0 -88.5 -23.5t-66.5 -62.5t-41 -85z" />
    <glyph glyph-name="f" unicode="f" horiz-adv-x="366" 
d="M69 0l99 468h-96l14 62h95l18 86q15 69 58.5 111.5t125.5 42.5q20 0 36.5 -3l16.5 -3l-13 -61l-15 2.5t-29 2.5q-47 0 -71 -25.5t-33 -67.5l-18 -85h120l-13 -62h-121l-99 -468h-75z" />
    <glyph glyph-name="g" unicode="g" horiz-adv-x="624" 
d="M220 -210q-66 0 -107 17t-63 42t-31 50t-10.5 42l-1.5 17h75l2.5 -15.5t14 -35.5t40 -35.5t81.5 -15.5q65 0 107 26t65 66t32 83l11 50h-5l-10 -12.5t-31 -28.5t-53.5 -28.5t-77.5 -12.5q-70 0 -115.5 31.5t-68 82.5t-22.5 111q0 56 19 111.5t55 102t88 74.5t118 28
q50 0 83 -16.5t53 -37.5t28.5 -37.5l8.5 -16.5h4l21 98h76l-107 -499q-26 -123 -98.5 -182t-180.5 -59zM276 64q48 0 86 22t64.5 57.5t40 78.5t13.5 86q0 44 -15.5 82t-48 61.5t-83.5 23.5q-49 0 -87 -21.5t-64.5 -57t-40.5 -78.5t-14 -85q0 -45 16 -83t49 -62t84 -24z" />
    <glyph glyph-name="h" unicode="h" horiz-adv-x="580" 
d="M31 0l162 760h75l-68 -318h5q3 6 14.5 21.5t32 33t51 30.5t70.5 13q58 0 95.5 -29t51.5 -77t2 -105l-70 -329h-76l71 334q12 57 -11.5 98.5t-86.5 41.5q-49 0 -86 -25.5t-60.5 -68.5t-34.5 -94l-62 -286h-75z" />
    <glyph glyph-name="i" unicode="i" horiz-adv-x="243" 
d="M202 627q-23 0 -37.5 16t-14.5 37q0 22 14.5 37.5t37.5 15.5t38.5 -15.5t15.5 -37.5t-15.5 -37.5t-38.5 -15.5zM20 0l113 530h76l-113 -530h-76z" />
    <glyph glyph-name="j" unicode="j" horiz-adv-x="288" 
d="M248 627q-23 0 -38 16t-15 37q0 22 15 37.5t38 15.5q22 0 37.5 -15.5t15.5 -37.5t-15.5 -37.5t-37.5 -15.5zM-62 -198q-26 0 -43 2.5l-17 2.5l14 66l13.5 -2t32.5 -2q100 0 126 121l115 540h75l-116 -547q-10 -46 -34.5 -87.5t-65 -67.5t-100.5 -26z" />
    <glyph glyph-name="k" unicode="k" horiz-adv-x="547" 
d="M31 0l162 760h75l-96 -454l277 224h109l-310 -247l203 -283h-91l-195 275l-59 -275h-75z" />
    <glyph glyph-name="l" unicode="l" horiz-adv-x="248" 
d="M31 0l163 760h75l-163 -760h-75z" />
    <glyph glyph-name="m" unicode="m" horiz-adv-x="900" 
d="M26 0l112 530h76l-19 -88h4q4 7 16.5 22.5t33.5 33t50.5 30t68.5 12.5q57 0 95 -31.5t47 -84.5h2q6 10 21 29t39 39t56.5 34t73.5 14q54 0 90.5 -26t50.5 -72t1 -106l-71 -336h-76l71 332q14 66 -9.5 104t-79.5 38q-50 0 -86.5 -27.5t-61 -72.5t-36.5 -100l-58 -274h-76
l70 332q14 63 -8 102.5t-80 39.5q-49 0 -86.5 -28.5t-62 -74t-35.5 -97.5l-58 -274h-75z" />
    <glyph glyph-name="n" unicode="n" horiz-adv-x="575" 
d="M26 0l113 530h75l-19 -88h5q3 6 14.5 21.5t32 33t51 30.5t70.5 13q58 0 95.5 -29t51.5 -77t2 -105l-70 -329h-76l71 334q12 57 -11.5 98.5t-86.5 41.5q-49 0 -86 -25.5t-60.5 -68.5t-34.5 -94l-62 -286h-75z" />
    <glyph glyph-name="o" unicode="o" horiz-adv-x="603" 
d="M265 -10q-73 0 -120.5 32.5t-70.5 85t-23 112.5q0 56 19.5 112.5t56.5 103.5t90.5 75.5t121.5 28.5q74 0 121 -32.5t70 -84.5t23 -113q0 -56 -19 -112.5t-56 -103.5t-90.5 -75.5t-122.5 -28.5zM269 57q50 0 89 22.5t66 59t41.5 81t14.5 88.5t-15.5 81.5t-47.5 60.5
t-82 23q-49 0 -88 -22t-66.5 -59t-41.5 -81.5t-14 -88.5t15.5 -81.5t47.5 -60.5t81 -23z" />
    <glyph glyph-name="p" unicode="p" horiz-adv-x="637" 
d="M-11 -195l155 725h76l-18 -83h5l10.5 14t32 32.5t55 32.5t79.5 14q68 0 113 -32.5t67.5 -85.5t22.5 -114q0 -56 -18.5 -112.5t-54 -103t-87.5 -74.5t-118 -28q-46 0 -77.5 13.5t-51.5 32.5t-31 38t-15 30h-5l-65 -299h-75zM164 220q0 -44 15 -81.5t46 -60.5t80 -23t88 23
t65.5 60t40.5 82t14 89t-15 81.5t-46 61t-81 23.5q-48 0 -86.5 -23t-65.5 -60.5t-41 -82.5t-14 -89z" />
    <glyph glyph-name="q" unicode="q" horiz-adv-x="637" 
d="M376 -195l60 278h-4l-10.5 -14t-32.5 -32.5t-55 -32.5t-79 -14q-68 0 -113 32.5t-67.5 85.5t-22.5 114q0 56 18.5 112.5t54 103t87.5 74.5t118 28q46 0 77.5 -13.5t51.5 -32.5t31 -38t15 -30h5l23 104h75l-156 -725h-76zM268 55q48 0 86.5 23t65.5 60.5t41 82.5t14 89
t-15 81.5t-46 60.5t-80 23t-88 -23t-65.5 -60t-40.5 -82t-14 -89t15 -81.5t46 -61t81 -23.5z" />
    <glyph glyph-name="r" unicode="r" horiz-adv-x="389" 
d="M26 0l113 530h75l-14 -69h4q22 31 60 55t96 24q17 0 31 -2l14 -2l-15 -72l-12.5 2t-28.5 2q-66 0 -117.5 -48t-75.5 -163l-55 -257h-75z" />
    <glyph glyph-name="s" unicode="s" horiz-adv-x="490" 
d="M219 -10q-59 0 -96.5 17t-58 42t-29 50t-10.5 42l-2 17h76l2 -15.5t13 -36t36 -36t72 -15.5q54 0 87.5 24.5t33.5 63.5q0 33 -23.5 50.5t-52.5 30.5l-58 25q-50 22 -80 53t-30 83q0 41 21 76.5t62 57t101 21.5q53 0 87 -15.5t53.5 -38.5t28 -45.5t10.5 -38l2 -15.5h-73
l-3 13.5t-13.5 31t-33.5 31t-63 13.5q-48 0 -76.5 -24t-28.5 -59q0 -29 18.5 -47t46.5 -30l60 -27q26 -11 53.5 -28t47 -44t19.5 -69q0 -45 -24 -80.5t-68.5 -56.5t-106.5 -21z" />
    <glyph glyph-name="t" unicode="t" horiz-adv-x="399" 
d="M229 -10q-77 0 -107 44.5t-15 116.5l68 317h-95l13 62h95l28 134h76l-29 -134h127l-13 -62h-127l-69 -324q-9 -45 6.5 -67t59.5 -22q23 0 45 3.5l22 3.5l-14 -64l-21.5 -4t-49.5 -4z" />
    <glyph glyph-name="u" unicode="u" horiz-adv-x="567" 
d="M203 -10q-78 0 -117.5 53t-19.5 147l72 340h75l-72 -344q-14 -62 9.5 -96t78.5 -34q53 0 91.5 28.5t62.5 74.5t35 98l58 273h75l-112 -530h-75l18 86h-6q-10 -14 -31 -37t-56 -41t-86 -18z" />
    <glyph glyph-name="v" unicode="v" horiz-adv-x="547" 
d="M172 0l-92 530h76l74 -437l259 437h88l-319 -530h-86z" />
    <glyph glyph-name="w" unicode="w" horiz-adv-x="836" 
d="M141 0l-61 530h75l47 -420l228 420h78l49 -419l225 419h84l-288 -530h-81l-48 419l-227 -419h-81z" />
    <glyph glyph-name="x" unicode="x" horiz-adv-x="558" 
d="M-21 0l243 276l-117 254h81l95 -208l184 208h96l-245 -274l120 -256h-81l-97 209l-183 -209h-96z" />
    <glyph glyph-name="y" unicode="y" horiz-adv-x="550" 
d="M-16 -195q-20 0 -33.5 1.5l-13.5 1.5l14 67l13.5 -1.5t28.5 -1.5q53 0 99.5 32.5t84.5 93.5l-93 532h76l74 -439l259 439h87l-328 -543q-57 -94 -124 -138t-144 -44z" />
    <glyph glyph-name="z" unicode="z" horiz-adv-x="502" 
d="M-16 0l11 53l405 415h-298l13 62h399l-12 -53l-405 -415h318l-14 -62h-417z" />
    <glyph glyph-name="braceleft" unicode="{" horiz-adv-x="414" 
d="M192 -194q-72 0 -100.5 41.5t-16.5 100.5l58 271q7 32 -5.5 49.5t-47.5 17.5h-33l13 65h34q67 0 82 70l58 273q14 66 55 101.5t104 35.5h113l-15 -66h-98q-37 0 -56.5 -18t-27.5 -55l-57 -271q-9 -38 -26 -62.5t-55 -38.5l-1 -3q34 -14 39.5 -42t-2.5 -65l-58 -270
q-7 -34 8 -50.5t45 -16.5h99l-13 -67h-96z" />
    <glyph glyph-name="bar" unicode="|" horiz-adv-x="410" 
d="M63 -222l249 1172h70l-249 -1172h-70z" />
    <glyph glyph-name="braceright" unicode="}" horiz-adv-x="414" 
d="M238 831q73 0 101.5 -41t15.5 -101l-58 -271q-7 -31 5.5 -49t47.5 -18h33l-13 -65h-33q-68 0 -83 -69l-58 -274q-14 -66 -55 -101.5t-104 -35.5h-112l14 67h98q37 0 56.5 17.5t27.5 54.5l58 271q8 39 25 63t56 38v3q-33 14 -39 42t2 66l58 269q8 34 -7 51t-46 17h-99
l14 66h95z" />
    <glyph glyph-name="asciitilde" unicode="~" horiz-adv-x="455" 
d="M310 319q-25 0 -41 11.5t-28 26.5t-23 26.5t-26 11.5q-18 0 -29 -19t-16 -51h-48q9 49 30.5 84t63.5 35q26 0 42 -11.5t28 -26.5t23 -26t26 -11q17 0 27.5 18.5t15.5 51.5h48q-9 -48 -29.5 -84t-63.5 -36z" />
    <glyph glyph-name="uni00A0" unicode="&#xa0;" horiz-adv-x="230" 
 />
    <glyph glyph-name="exclamdown" unicode="&#xa1;" horiz-adv-x="246" 
d="M174 534q23 0 37.5 -16t14.5 -38q0 -21 -14.5 -36.5t-37.5 -15.5t-38.5 15.5t-15.5 36.5q0 22 15.5 38t38.5 16zM-11 -216l124 566h66l-116 -566h-74z" />
    <glyph glyph-name="cent" unicode="&#xa2;" horiz-adv-x="582" 
d="M190 -86l18 83q-53 13 -87.5 46t-51.5 79.5t-17 100.5q0 58 18 113t53 99t85 72t115 32l16 77h64l-17 -79q48 -7 77.5 -27.5t45.5 -46.5t22.5 -51t7.5 -41l1 -16h-73l-1 15t-9 36t-28 39.5t-57 25.5l-88 -415q45 2 75 20.5t47 41.5t24 40l7 17h74l-6.5 -18.5t-22.5 -46
t-43.5 -55.5t-69 -46.5t-99.5 -18.5l-16 -76h-64zM127 228q0 -57 23 -102t72 -62l87 408q-58 -8 -98.5 -44t-62 -88.5t-21.5 -111.5z" />
    <glyph glyph-name="sterling" unicode="&#xa3;" horiz-adv-x="579" 
d="M-1 0l15 69q52 8 93.5 33.5t66 64t24.5 87.5q0 18 -3.5 36t-8.5 36h-121l12 52h91q-9 29 -17 60t-8 66q0 67 34 123t99 89.5t156 33.5q45 0 82.5 -6.5t59.5 -13l22 -6.5l-14 -67l-20.5 6t-54.5 12t-75 6q-104 0 -158.5 -50.5t-54.5 -127.5q0 -34 8.5 -64.5t18.5 -60.5
h223l-12 -52h-197q3 -14 5 -29t2 -30q0 -46 -13.5 -79.5t-33.5 -57t-40 -37.5t-34 -20l-14 -6h368l-14 -67h-487z" />
    <glyph glyph-name="currency" unicode="&#xa4;" horiz-adv-x="581" 
d="M95 126l-38 38l76 76q-41 53 -41 123q0 68 39 120l-74 73l38 38l73 -74q26 22 58 33.5t68 11.5q69 0 123 -41l70 70l37 -38l-70 -71q42 -52 42 -122q0 -36 -12 -68t-32 -57l72 -74l-37 -38l-74 74q-53 -39 -119 -39q-35 0 -66 11t-57 31zM294 219q39 0 72 19.5t52.5 52
t19.5 71.5q0 40 -19.5 72.5t-52.5 52t-72 19.5q-40 0 -73 -19.5t-52.5 -52t-19.5 -72.5q0 -39 19.5 -71.5t52.5 -52t73 -19.5z" />
    <glyph glyph-name="yen" unicode="&#xa5;" horiz-adv-x="634" 
d="M73 197l12 59h182l3 13l-17 50h-154l12 58h122l-125 363h78l133 -392l297 392h93l-279 -363h128l-12 -58h-161l-39 -52l-2 -11h188l-12 -59h-189l-41 -197h-77l41 197h-181z" />
    <glyph glyph-name="brokenbar" unicode="&#xa6;" horiz-adv-x="410" 
d="M200 423l112 528h70l-112 -528h-70zM63 -222l103 482h70l-103 -482h-70z" />
    <glyph glyph-name="section" unicode="&#xa7;" horiz-adv-x="666" 
d="M259 -234q-65 0 -110 16.5t-74 43t-45.5 56t-24 55.5t-9 43l-1.5 17h75l2.5 -16.5t12.5 -41t30.5 -49t56 -41t90.5 -16.5q79 0 131.5 38t52.5 105q0 51 -30.5 83t-78.5 49l-116 41q-67 23 -107 61.5t-40 94.5q0 42 17.5 69t43 43t50.5 23t40 9l1 5q-25 18 -47 50t-22 83
q0 58 30.5 103t85.5 71t128 26q71 0 116.5 -21.5t71.5 -53.5t37.5 -63.5t14.5 -53.5l3 -22h-74l-2 15t-10 37.5t-26 44.5t-49.5 37t-80.5 15q-73 0 -120.5 -35.5t-47.5 -95.5q0 -46 28 -77t79 -49l114 -41q68 -24 108.5 -62t40.5 -94q0 -42 -18 -69t-43.5 -43t-51 -23
t-40.5 -9l-1 -6q30 -19 52 -52.5t22 -84.5q0 -62 -32.5 -111t-91.5 -76.5t-141 -27.5zM393 158q3 2 23.5 4t46.5 10.5t45.5 28t19.5 55.5q0 34 -23.5 60.5t-79.5 46.5l-142 51q-2 -1 -22.5 -3.5t-46.5 -10.5t-45.5 -27.5t-19.5 -55.5q0 -34 24 -60.5t79 -46.5z" />
    <glyph glyph-name="dieresis" unicode="&#xa8;" horiz-adv-x="265" 
d="M234 617q-23 0 -38 16t-15 37q0 22 15 37.5t38 15.5t38.5 -15.5t15.5 -37.5t-15.5 -37.5t-38.5 -15.5zM61 617q-23 0 -38 16t-15 37q0 22 15 37.5t38 15.5t38.5 -15.5t15.5 -37.5t-15.5 -37.5t-38.5 -15.5z" />
    <glyph glyph-name="copyright" unicode="&#xa9;" horiz-adv-x="798" 
d="M377 -5q-80 0 -139.5 27t-98.5 73t-58 104t-19 120q0 72 24.5 142t73 127.5t119.5 92t165 34.5q80 0 139.5 -27t98.5 -72.5t58 -103.5t19 -121q0 -71 -24.5 -141.5t-73 -128t-120 -92t-164.5 -34.5zM377 49q80 0 140.5 29.5t101.5 79t61.5 110t20.5 121.5
q0 71 -27.5 132.5t-85 100.5t-145.5 39q-79 0 -139.5 -30t-101.5 -79.5t-62 -110t-21 -121.5q0 -70 28 -132t85.5 -100.5t144.5 -38.5zM389 135q-60 0 -98.5 25.5t-57 67.5t-18.5 90q0 45 15.5 90.5t46 83.5t74 60.5t100.5 22.5q48 0 77.5 -15t46 -37t23 -44.5t7.5 -37.5
l1 -15h-60l-1.5 14.5t-10 33t-29 32.5t-59.5 14q-54 0 -92 -30t-58 -75.5t-20 -91.5q0 -36 12.5 -66.5t38.5 -49t66 -18.5q38 0 63 14.5t39 33t20 32.5l6 14h62l-5.5 -15t-18 -37t-35 -44t-55.5 -37t-80 -15z" />
    <glyph glyph-name="ordfeminine" unicode="&#xaa;" horiz-adv-x="406" 
d="M303 462q-2 -3 -13 -15t-31.5 -23t-53.5 -11q-45 0 -72 24.5t-27 63.5q0 41 31 70.5t95 32.5l108 6l3 15q3 16 0 32.5t-17 28.5t-43 12q-33 0 -49 -13.5t-21 -27l-5 -13.5h-64l5.5 16t20.5 37t43 37t74 16t75.5 -18.5t41 -49t3.5 -65.5l-42 -198h-66l9 43h-5zM172 507
q0 -23 17 -34.5t40 -11.5q35 0 62.5 25t35.5 63l3 15l-90 -5q-33 -1 -50.5 -15t-17.5 -37z" />
    <glyph glyph-name="guillemotleft" unicode="&#xab;" horiz-adv-x="619" 
d="M457 109l-161 209l250 208h93l-258 -216l153 -201h-77zM216 109l-161 209l250 208h93l-258 -216l153 -201h-77z" />
    <glyph glyph-name="logicalnot" unicode="&#xac;" horiz-adv-x="655" 
d="M122 466l14 64h495l-14 -64v0l-41 -191h-72l40 191h-422z" />
    <glyph glyph-name="uni00AD" unicode="&#xad;" horiz-adv-x="600" 
d="M116 281l2 64h372l-2 -64h-372z" />
    <glyph glyph-name="registered" unicode="&#xae;" horiz-adv-x="417" 
d="M259 397q-54 0 -89.5 23t-53 60t-17.5 79q0 48 22 93t64.5 74.5t105.5 29.5q54 0 89.5 -23t53 -60t17.5 -78q0 -48 -22 -93.5t-64.5 -75t-105.5 -29.5zM260 426q52 0 88 25t54.5 64t18.5 79q0 35 -14 65.5t-43 49.5t-73 19q-53 0 -89 -25.5t-54.5 -64t-18.5 -78.5
q0 -35 14 -65.5t43 -49.5t74 -19zM191 480l41 194h66q32 0 47.5 -17t15.5 -37q0 -19 -13 -37.5t-39 -23.5l27 -79h-36l-26 77h-32l-17 -77h-34zM297 643h-37l-12 -57h43q17 0 26 10.5t9 21.5q0 10 -7.5 17.5t-21.5 7.5z" />
    <glyph glyph-name="macron" unicode="&#xaf;" horiz-adv-x="340" 
d="M62 638l12 58h296l-12 -58h-296z" />
    <glyph glyph-name="degree" unicode="&#xb0;" horiz-adv-x="459" 
d="M296 404q-48 0 -87 23t-62.5 62.5t-23.5 87.5q0 47 23.5 86.5t62.5 63t87 23.5t87.5 -23.5t62.5 -63t23 -86.5q0 -48 -23 -87.5t-62.5 -62.5t-87.5 -23zM296 464q31 0 57 15t41.5 40.5t15.5 57.5q0 31 -15.5 57t-41.5 41t-57 15t-56.5 -15t-41 -41t-15.5 -57t15 -57
t41 -41t57 -15z" />
    <glyph glyph-name="plusminus" unicode="&#xb1;" horiz-adv-x="626" 
d="M250 154l32 153h-153l13 65h154l33 154h64l-32 -154h153l-13 -65h-154l-33 -153h-64zM45 0l11 52h411l-11 -52h-411z" />
    <glyph glyph-name="uni00B2" unicode="&#xb2;" horiz-adv-x="421" 
d="M114 413l9 46l116 86q60 43 100 80.5t40 78.5q0 28 -19 45t-50 17q-29 0 -45.5 -12t-24.5 -27.5t-10 -27.5l-2 -12h-63l2 14t9.5 34.5t23 41t43 34.5t70.5 14q64 0 99 -34t35 -82q0 -40 -23 -73t-61 -63.5t-83 -63.5l-52 -38h192l-13 -58h-293z" />
    <glyph glyph-name="uni00B3" unicode="&#xb3;" horiz-adv-x="419" 
d="M259 408q-46 0 -74.5 13t-43.5 32t-21.5 38t-7.5 31.5l-1 12.5h64l1.5 -10.5t9 -25t25 -25.5t50.5 -11q44 0 66.5 22.5t22.5 50.5q0 30 -24 44.5t-52 14.5h-51l11 52h54q36 0 59 18t23 46q0 26 -18.5 42.5t-51.5 16.5q-29 0 -45.5 -10.5t-24.5 -24t-10 -24l-2 -10.5h-60
l2 12.5t9 31t23 37t43 31t68 12.5q64 0 98.5 -31.5t34.5 -73.5q0 -27 -14 -47.5t-33.5 -33t-36.5 -17.5v-3q12 -4 27.5 -15t26.5 -29.5t11 -43.5q0 -30 -17.5 -58t-53 -46.5t-87.5 -18.5z" />
    <glyph glyph-name="acute" unicode="&#xb4;" horiz-adv-x="202" 
d="M162 613h-62l87 171h75z" />
    <glyph glyph-name="uni00B5" unicode="&#xb5;" horiz-adv-x="652" 
d="M-14 -199l156 729h74l-72 -344q-14 -62 10 -96t78 -34q52 0 90.5 28t62.5 72t34 91l60 283h74l-82 -387q-10 -48 4.5 -68t53.5 -20q17 0 27 2.5l10 2.5l-13 -64l-12.5 -3t-36.5 -3q-54 0 -83 23.5t-29 73.5h-4q-3 -5 -14 -20.5t-30 -33t-48 -30.5t-70 -13
q-37 0 -61.5 9.5t-38.5 22t-19.5 22l-5.5 9.5l-4 -2q1 -29 -2.5 -69.5t-13.5 -86.5l-20 -94h-75z" />
    <glyph glyph-name="paragraph" unicode="&#xb6;" horiz-adv-x="504" 
d="M259 0h-52l74 345h-9q-62 0 -103 23t-61 60.5t-20 78.5q0 47 24 91.5t71 73t115 28.5h235l-149 -700h-52l135 634h-73z" />
    <glyph glyph-name="periodcentered" unicode="&#xb7;" horiz-adv-x="255" 
d="M98 330q-24 0 -39.5 16.5t-15.5 39.5t15.5 39t39.5 16t40 -16t16 -39q0 -24 -16 -40t-40 -16z" />
    <glyph glyph-name="cedilla" unicode="&#xb8;" horiz-adv-x="234" 
d="M47 -249q-31 0 -54 5.5l-23 5.5l9 48l23.5 -5t45.5 -5q41 0 57.5 17t16.5 37q0 18 -14.5 32.5t-43.5 14.5q-23 0 -37.5 -7.5t-13.5 -7.5l-24 29l81 98h60l-57 -69q5 1 10 1q49 0 73.5 -27.5t24.5 -62.5q0 -25 -14 -49t-43.5 -39.5t-76.5 -15.5z" />
    <glyph glyph-name="uni00B9" unicode="&#xb9;" horiz-adv-x="281" 
d="M298 820l-87 -407h-66l66 307h-76l9 40l13 3q34 9 55 21t42 31l6 5h38z" />
    <glyph glyph-name="ordmasculine" unicode="&#xba;" horiz-adv-x="425" 
d="M259 413q-48 0 -78.5 20t-45.5 52.5t-15 70.5q0 45 21 90t61.5 74.5t98.5 29.5q48 0 79 -20.5t46 -53t15 -70.5q0 -45 -21.5 -90t-62 -74t-98.5 -29zM262 469q36 0 61 20.5t38 52t13 63.5q0 35 -18.5 62t-57.5 27q-35 0 -60.5 -20.5t-39 -52t-13.5 -63.5q0 -36 19 -62.5
t58 -26.5z" />
    <glyph glyph-name="guillemotright" unicode="&#xbb;" horiz-adv-x="619" 
d="M252 109l258 216l-153 201h77l160 -209l-249 -208h-93zM11 109l258 216l-153 201h77l160 -209l-249 -208h-93z" />
    <glyph glyph-name="onequarter" unicode="&#xbc;" horiz-adv-x="857" 
d="M266 713l-76 -355h-66l55 261l-66 -1l8 41l11 3q30 8 51 18t40 28l4 5h39zM180 0l400 700h73l-401 -700h-72zM685 -1l16 76h-174l12 57l201 222h88l-48 -224h56l-12 -55h-56l-16 -76h-67zM612 130h101l32 147z" />
    <glyph glyph-name="onehalf" unicode="&#xbd;" horiz-adv-x="863" 
d="M266 713l-76 -355h-66l55 261l-66 -1l8 41l11 3q30 8 51 18t40 28l4 5h39zM180 0l400 700h73l-401 -700h-72zM552 -1l10 46l98 71q54 39 87.5 69.5t33.5 64.5q0 23 -15.5 37.5t-41.5 14.5q-23 0 -36.5 -10t-19.5 -22.5t-8 -22.5l-2 -10h-64l3.5 18.5t16 42.5t39.5 42.5
t74 18.5q59 0 90 -30.5t31 -73.5q0 -36 -21.5 -65.5t-55.5 -55.5t-71 -51l-35 -26h161l-12 -58h-262z" />
    <glyph glyph-name="threequarters" unicode="&#xbe;" horiz-adv-x="958" 
d="M214 353q-51 0 -78 17t-38.5 39t-13 39l-1.5 17h64l1 -8.5t7.5 -20t20.5 -20t40 -8.5q37 0 54.5 18t17.5 40q0 23 -18.5 35t-42.5 12h-45l10 52h49q30 0 47.5 14.5t17.5 37.5q0 19 -14 32t-42 13q-32 0 -46 -13.5t-17.5 -27.5l-3.5 -14h-62l3.5 16.5t15.5 38.5t39 39
t74 17q59 0 89.5 -28t30.5 -65q0 -32 -22 -54t-51 -31v-2q22 -9 39 -28t17 -49q0 -26 -15.5 -51t-47 -41t-79.5 -16zM304 0l399 700h74l-401 -700h-72zM809 -1l16 76h-174l12 57l201 222h87l-48 -224h56l-11 -55h-57l-16 -76h-66zM736 130h101l32 147z" />
    <glyph glyph-name="questiondown" unicode="&#xbf;" horiz-adv-x="588" 
d="M335 538q23 0 38 -16t15 -37q0 -22 -15 -37.5t-38 -15.5q-22 0 -37.5 15.5t-15.5 37.5t15.5 37.5t37.5 15.5zM219 -222q-65 0 -114.5 25.5t-77 69.5t-26.5 100q0 51 18.5 89t48.5 67t64.5 53t66 47.5t54 49.5t27.5 59l3 17h74l-3 -19q-6 -42 -28.5 -73.5t-53.5 -57.5
t-65 -49.5t-63 -49t-47.5 -56.5t-18.5 -72q0 -60 42 -95.5t103 -35.5q49 0 81.5 17t51.5 43t28 51.5t11.5 43l2.5 17.5h74l-2.5 -17.5t-10.5 -45t-24.5 -58t-44.5 -58t-70 -45t-101 -17.5z" />
    <glyph glyph-name="Agrave" unicode="&#xc0;" horiz-adv-x="688" 
d="M430 823l-75 171h74l62 -171h-61zM-16 0l421 740h91l106 -740h-76l-26 191h-322l-108 -191h-86zM218 261h272l-54 387z" />
    <glyph glyph-name="Aacute" unicode="&#xc1;" horiz-adv-x="688" 
d="M503 823h-62l87 171h75zM-16 0l421 740h91l106 -740h-76l-26 191h-322l-108 -191h-86zM218 261h272l-54 387z" />
    <glyph glyph-name="Acircumflex" unicode="&#xc2;" horiz-adv-x="688" 
d="M311 817l148 144h66l87 -144h-65l-60 100l-100 -100h-76zM-16 0l421 740h91l106 -740h-76l-26 191h-322l-108 -191h-86zM218 261h272l-54 387z" />
    <glyph glyph-name="Atilde" unicode="&#xc3;" horiz-adv-x="688" 
d="M544 828q-24 0 -40.5 11t-29 26t-24 26t-25.5 11q-17 0 -28 -18.5t-17 -50.5h-51q10 55 32.5 89t64.5 34q26 0 42.5 -11t28.5 -25.5t23.5 -25.5t25.5 -11q32 0 43 68h52q-11 -54 -33 -88.5t-64 -34.5zM-16 0l421 740h91l106 -740h-76l-26 191h-322l-108 -191h-86z
M218 261h272l-54 387z" />
    <glyph glyph-name="Adieresis" unicode="&#xc4;" horiz-adv-x="688" 
d="M567 827q-23 0 -38 16t-15 37q0 22 15 37.5t38 15.5t38 -15.5t15 -37.5t-15 -37.5t-38 -15.5zM394 827q-23 0 -38 16t-15 37q0 22 15 37.5t38 15.5t38 -15.5t15 -37.5t-15 -37.5t-38 -15.5zM-16 0l421 740h91l106 -740h-76l-26 191h-322l-108 -191h-86zM218 261h272
l-54 387z" />
    <glyph glyph-name="Aring" unicode="&#xc5;" horiz-adv-x="688" 
d="M464 816q-32 0 -58.5 15.5t-42.5 42t-16 58.5q0 33 16 59.5t42.5 42t58.5 15.5t58.5 -15.5t42 -42t15.5 -59.5q0 -32 -15.5 -58.5t-42 -42t-58.5 -15.5zM464 871q25 0 43 18t18 43q0 26 -18 44t-43 18q-26 0 -44 -18t-18 -44q0 -25 18 -43t44 -18zM-16 0l421 740h91
l106 -740h-76l-26 191h-322l-108 -191h-86zM218 261h272l-54 387z" />
    <glyph glyph-name="AE" unicode="&#xc6;" horiz-adv-x="979" 
d="M-16 0l540 740h489l-14 -69h-362l-55 -259h315l-15 -69h-314l-58 -274h366l-14 -69h-444l41 191h-244l-140 -191h-91zM265 261h208l85 401z" />
    <glyph glyph-name="Ccedilla" unicode="&#xc7;" horiz-adv-x="749" 
d="M296 -256q-32 0 -55 5.5l-23 5.5l9 47l23.5 -4.5t45.5 -4.5q41 0 57.5 17t16.5 36t-14.5 33.5t-43.5 14.5q-22 0 -36.5 -8l-14.5 -8l-23 30l70 85q-85 12 -139.5 59t-80.5 115.5t-26 146.5q0 77 25 154t74.5 141t123.5 102.5t172 38.5q68 0 114.5 -18t76 -47t45 -61.5
t22 -61t7.5 -47l1 -18.5h-77l-1.5 18.5t-9.5 46t-28 54.5t-57 45.5t-97 18.5q-77 0 -135.5 -32t-98 -85t-59.5 -116.5t-20 -127.5q0 -68 23.5 -127t73.5 -95t128 -36q58 0 99.5 18t70 45.5t45 54.5t23.5 45.5l7 18.5h78l-6 -18.5t-20 -47t-38 -61t-59.5 -61t-85 -47
t-114.5 -18.5l-44 -53h11q48 0 73 -27t25 -62q0 -25 -14 -49t-43.5 -39.5t-76.5 -15.5z" />
    <glyph glyph-name="Egrave" unicode="&#xc8;" horiz-adv-x="592" 
d="M376 823l-75 171h74l62 -171h-61zM31 0l157 740h438l-14 -69h-362l-55 -259h314l-14 -69h-314l-59 -274h367l-15 -69h-443z" />
    <glyph glyph-name="Eacute" unicode="&#xc9;" horiz-adv-x="592" 
d="M449 823h-62l87 171h75zM31 0l157 740h438l-14 -69h-362l-55 -259h314l-14 -69h-314l-59 -274h367l-15 -69h-443z" />
    <glyph glyph-name="Ecircumflex" unicode="&#xca;" horiz-adv-x="592" 
d="M257 817l148 144h66l87 -144h-65l-60 100l-100 -100h-76zM31 0l157 740h438l-14 -69h-362l-55 -259h314l-14 -69h-314l-59 -274h367l-15 -69h-443z" />
    <glyph glyph-name="Edieresis" unicode="&#xcb;" horiz-adv-x="592" 
d="M513 827q-23 0 -38 16t-15 37q0 22 15 37.5t38 15.5t38 -15.5t15 -37.5t-15 -37.5t-38 -15.5zM340 827q-23 0 -38 16t-15 37q0 22 15 37.5t38 15.5t38 -15.5t15 -37.5t-15 -37.5t-38 -15.5zM31 0l157 740h438l-14 -69h-362l-55 -259h314l-14 -69h-314l-59 -274h367
l-15 -69h-443z" />
    <glyph glyph-name="Igrave" unicode="&#xcc;" horiz-adv-x="248" 
d="M200 796l-75 171h74l61 -170zM31 0l157 740h77l-157 -740h-77z" />
    <glyph glyph-name="Iacute" unicode="&#xcd;" horiz-adv-x="248" 
d="M273 796l-62 1l86 170h76zM31 0l157 740h77l-157 -740h-77z" />
    <glyph glyph-name="Icircumflex" unicode="&#xce;" horiz-adv-x="248" 
d="M87 790l152 162h66l84 -162h-66l-56 113l-104 -113h-76zM31 0l157 740h77l-157 -740h-77z" />
    <glyph glyph-name="Idieresis" unicode="&#xcf;" horiz-adv-x="248" 
d="M337 800q-23 0 -38 16t-15 38q0 21 15 37t38 16q22 0 37.5 -16t15.5 -37q0 -22 -15.5 -38t-37.5 -16zM164 800q-23 0 -38 16t-15 38q0 21 15 37t38 16q22 0 37.5 -16t15.5 -37q0 -22 -15.5 -38t-37.5 -16zM31 0l157 740h77l-157 -740h-77z" />
    <glyph glyph-name="Eth" unicode="&#xd0;" horiz-adv-x="753" 
d="M79 0l71 337h-106l14 68h107l71 335h179q79 0 137.5 -25t96.5 -68.5t56.5 -99t18.5 -116.5q0 -76 -28 -152.5t-82 -139.5t-132 -101t-180 -38h-223zM381 337h-154l-56 -268h134q81 0 144.5 32t107 84.5t66.5 115.5t23 126q0 65 -25.5 120.5t-78.5 89.5t-135 34h-109
l-56 -266h153z" />
    <glyph glyph-name="Ntilde" unicode="&#xd1;" horiz-adv-x="731" 
d="M563 828q-24 0 -40.5 11t-29 26t-24 26t-25.5 11q-17 0 -28 -18.5t-17 -50.5h-51q10 55 32.5 89t64.5 34q26 0 42.5 -11t28.5 -25.5t23.5 -25.5t25.5 -11q32 0 43 68h52q-11 -54 -33 -88.5t-64 -34.5zM31 0l157 740h70l285 -604l128 604h77l-157 -740h-71l-284 603
l-128 -603h-77z" />
    <glyph glyph-name="Ograve" unicode="&#xd2;" horiz-adv-x="785" 
d="M446 823l-75 171h74l62 -171h-61zM361 -10q-77 0 -133.5 26t-93.5 71t-55 103t-18 121q0 78 26.5 155.5t77 142t123.5 103t167 38.5q77 0 133.5 -26t93 -71.5t54.5 -103t18 -120.5q0 -78 -26 -155.5t-76.5 -142t-123.5 -103t-167 -38.5zM363 61q75 0 133 32.5t98 86.5
t61 118.5t21 128.5q0 67 -23.5 124.5t-73 92.5t-126.5 35q-74 0 -132.5 -32.5t-98.5 -86.5t-61 -118.5t-21 -128.5q0 -67 24 -124.5t73.5 -92.5t125.5 -35z" />
    <glyph glyph-name="Oacute" unicode="&#xd3;" horiz-adv-x="785" 
d="M519 823h-62l87 171h75zM361 -10q-77 0 -133.5 26t-93.5 71t-55 103t-18 121q0 78 26.5 155.5t77 142t123.5 103t167 38.5q77 0 133.5 -26t93 -71.5t54.5 -103t18 -120.5q0 -78 -26 -155.5t-76.5 -142t-123.5 -103t-167 -38.5zM363 61q75 0 133 32.5t98 86.5t61 118.5
t21 128.5q0 67 -23.5 124.5t-73 92.5t-126.5 35q-74 0 -132.5 -32.5t-98.5 -86.5t-61 -118.5t-21 -128.5q0 -67 24 -124.5t73.5 -92.5t125.5 -35z" />
    <glyph glyph-name="Ocircumflex" unicode="&#xd4;" horiz-adv-x="785" 
d="M327 817l148 144h66l87 -144h-65l-60 100l-100 -100h-76zM361 -10q-77 0 -133.5 26t-93.5 71t-55 103t-18 121q0 78 26.5 155.5t77 142t123.5 103t167 38.5q77 0 133.5 -26t93 -71.5t54.5 -103t18 -120.5q0 -78 -26 -155.5t-76.5 -142t-123.5 -103t-167 -38.5zM363 61
q75 0 133 32.5t98 86.5t61 118.5t21 128.5q0 67 -23.5 124.5t-73 92.5t-126.5 35q-74 0 -132.5 -32.5t-98.5 -86.5t-61 -118.5t-21 -128.5q0 -67 24 -124.5t73.5 -92.5t125.5 -35z" />
    <glyph glyph-name="Otilde" unicode="&#xd5;" horiz-adv-x="785" 
d="M560 828q-24 0 -40.5 11t-29 26t-24 26t-25.5 11q-17 0 -28 -18.5t-17 -50.5h-51q10 55 32.5 89t64.5 34q26 0 42.5 -11t28.5 -25.5t23.5 -25.5t25.5 -11q32 0 43 68h52q-11 -54 -33 -88.5t-64 -34.5zM361 -10q-77 0 -133.5 26t-93.5 71t-55 103t-18 121q0 78 26.5 155.5
t77 142t123.5 103t167 38.5q77 0 133.5 -26t93 -71.5t54.5 -103t18 -120.5q0 -78 -26 -155.5t-76.5 -142t-123.5 -103t-167 -38.5zM363 61q75 0 133 32.5t98 86.5t61 118.5t21 128.5q0 67 -23.5 124.5t-73 92.5t-126.5 35q-74 0 -132.5 -32.5t-98.5 -86.5t-61 -118.5
t-21 -128.5q0 -67 24 -124.5t73.5 -92.5t125.5 -35z" />
    <glyph glyph-name="Odieresis" unicode="&#xd6;" horiz-adv-x="785" 
d="M583 827q-23 0 -38 16t-15 37q0 22 15 37.5t38 15.5t38 -15.5t15 -37.5t-15 -37.5t-38 -15.5zM410 827q-23 0 -38 16t-15 37q0 22 15 37.5t38 15.5t38 -15.5t15 -37.5t-15 -37.5t-38 -15.5zM361 -10q-77 0 -133.5 26t-93.5 71t-55 103t-18 121q0 78 26.5 155.5t77 142
t123.5 103t167 38.5q77 0 133.5 -26t93 -71.5t54.5 -103t18 -120.5q0 -78 -26 -155.5t-76.5 -142t-123.5 -103t-167 -38.5zM363 61q75 0 133 32.5t98 86.5t61 118.5t21 128.5q0 67 -23.5 124.5t-73 92.5t-126.5 35q-74 0 -132.5 -32.5t-98.5 -86.5t-61 -118.5t-21 -128.5
q0 -67 24 -124.5t73.5 -92.5t125.5 -35z" />
    <glyph glyph-name="multiply" unicode="&#xd7;" horiz-adv-x="540" 
d="M87 201l142 117l-88 111l49 45l90 -114l141 116l39 -50l-140 -116l87 -111l-49 -45l-90 114l-141 -117z" />
    <glyph glyph-name="Oslash" unicode="&#xd8;" horiz-adv-x="785" 
d="M27 -24l101 119q-34 44 -50.5 100t-16.5 116q0 78 26.5 155.5t77 142t123.5 103t167 38.5q57 0 103 -15t81 -41l59 69h90l-101 -118q34 -44 50.5 -100t16.5 -116q0 -78 -26 -155.5t-76.5 -142t-123.5 -103t-167 -38.5q-57 0 -103 15t-81 41l-60 -70h-90zM140 313
q0 -44 10 -84t30 -73l410 480q-26 20 -60 31.5t-77 11.5q-74 0 -132.5 -32.5t-98.5 -86.5t-61 -118.5t-21 -128.5zM363 61q75 0 133 32.5t98 86.5t61 118.5t21 128.5q0 44 -10 84t-30 73l-410 -480q26 -20 60 -31.5t77 -11.5z" />
    <glyph glyph-name="Ugrave" unicode="&#xd9;" horiz-adv-x="719" 
d="M438 823l-76 171h74l62 -171h-60zM315 -10q-86 0 -143 36.5t-79 101.5t-3 153l98 459h77l-100 -467q-20 -95 20 -152.5t138 -57.5q94 0 155 58t81 148l100 471h77l-100 -471q-18 -84 -61 -146.5t-108.5 -97.5t-151.5 -35z" />
    <glyph glyph-name="Uacute" unicode="&#xda;" horiz-adv-x="719" 
d="M511 823h-62l86 171h76zM315 -10q-86 0 -143 36.5t-79 101.5t-3 153l98 459h77l-100 -467q-20 -95 20 -152.5t138 -57.5q94 0 155 58t81 148l100 471h77l-100 -471q-18 -84 -61 -146.5t-108.5 -97.5t-151.5 -35z" />
    <glyph glyph-name="Ucircumflex" unicode="&#xdb;" horiz-adv-x="719" 
d="M325 817l151 162h67l83 -162h-65l-57 113l-104 -113h-75zM315 -10q-86 0 -143 36.5t-79 101.5t-3 153l98 459h77l-100 -467q-20 -95 20 -152.5t138 -57.5q94 0 155 58t81 148l100 471h77l-100 -471q-18 -84 -61 -146.5t-108.5 -97.5t-151.5 -35z" />
    <glyph glyph-name="Udieresis" unicode="&#xdc;" horiz-adv-x="719" 
d="M574 827q-23 0 -37.5 16t-14.5 37q0 22 14.5 37.5t37.5 15.5t38.5 -15.5t15.5 -37.5t-15.5 -37.5t-38.5 -15.5zM401 827q-23 0 -37.5 16t-14.5 37q0 22 14.5 37.5t37.5 15.5t38.5 -15.5t15.5 -37.5t-15.5 -37.5t-38.5 -15.5zM315 -10q-86 0 -143 36.5t-79 101.5t-3 153
l98 459h77l-100 -467q-20 -95 20 -152.5t138 -57.5q94 0 155 58t81 148l100 471h77l-100 -471q-18 -84 -61 -146.5t-108.5 -97.5t-151.5 -35z" />
    <glyph glyph-name="Yacute" unicode="&#xdd;" horiz-adv-x="610" 
d="M449 823h-62l86 171h76zM207 0l57 269l-162 471h78l133 -392l297 392h93l-363 -473l-56 -267h-77z" />
    <glyph glyph-name="Thorn" unicode="&#xde;" horiz-adv-x="627" 
d="M31 0l157 740h77l-29 -134h144q79 0 131 -30t77.5 -78t25.5 -103q0 -47 -19 -93.5t-55.5 -84.5t-90 -60.5t-122.5 -22.5h-191l-28 -134h-77zM374 537h-152l-71 -334h181q66 0 111.5 28t69 71.5t23.5 87.5q0 38 -17.5 72t-53.5 54.5t-91 20.5z" />
    <glyph glyph-name="germandbls" unicode="&#xdf;" horiz-adv-x="621" 
d="M412 755q62 0 108 -22t71.5 -61.5t25.5 -90.5q0 -65 -43.5 -118.5t-121.5 -75.5v-4q26 -6 53 -28.5t46 -58t19 -78.5q0 -63 -35.5 -115t-100 -82.5t-149.5 -30.5q-23 0 -48 1.5t-41.5 3.5l-16.5 2l12 66l15 -1.5t36 -3t39 -1.5q65 0 112.5 22t73.5 59.5t26 83.5
q0 57 -38 94.5t-107 37.5h-82l14 64h84q50 0 89.5 21t62.5 56t23 77q0 57 -38.5 87t-91.5 30q-44 0 -83.5 -17t-68.5 -56.5t-43 -105.5l-109 -513h-75l110 517q24 115 93.5 178t178.5 63z" />
    <glyph glyph-name="agrave" unicode="&#xe0;" horiz-adv-x="614" 
d="M342 613l-75 171h74l62 -171h-61zM332 540q45 0 76.5 -13.5t52 -32.5t31 -38t15.5 -30h5l22 104h76l-114 -530h-75l18 83h-5l-10.5 -14t-32.5 -32.5t-55 -32.5t-79 -14q-68 0 -113 32.5t-67.5 85.5t-22.5 114q0 56 18.5 112.5t54 103t87 74.5t118.5 28zM335 475
q-49 0 -87.5 -23t-65.5 -60t-41 -82t-14 -89t15 -81.5t46.5 -61t80.5 -23.5t87.5 23t65.5 60.5t41 82.5t14 89t-15 81.5t-46 60.5t-81 23z" />
    <glyph glyph-name="aacute" unicode="&#xe1;" horiz-adv-x="614" 
d="M415 613h-62l87 171h75zM332 540q45 0 76.5 -13.5t52 -32.5t31 -38t15.5 -30h5l22 104h76l-114 -530h-75l18 83h-5l-10.5 -14t-32.5 -32.5t-55 -32.5t-79 -14q-68 0 -113 32.5t-67.5 85.5t-22.5 114q0 56 18.5 112.5t54 103t87 74.5t118.5 28zM335 475q-49 0 -87.5 -23
t-65.5 -60t-41 -82t-14 -89t15 -81.5t46.5 -61t80.5 -23.5t87.5 23t65.5 60.5t41 82.5t14 89t-15 81.5t-46 60.5t-81 23z" />
    <glyph glyph-name="acircumflex" unicode="&#xe2;" horiz-adv-x="614" 
d="M229 607l152 162h66l84 -162h-65l-57 113l-104 -113h-76zM332 540q45 0 76.5 -13.5t52 -32.5t31 -38t15.5 -30h5l22 104h76l-114 -530h-75l18 83h-5l-10.5 -14t-32.5 -32.5t-55 -32.5t-79 -14q-68 0 -113 32.5t-67.5 85.5t-22.5 114q0 56 18.5 112.5t54 103t87 74.5
t118.5 28zM335 475q-49 0 -87.5 -23t-65.5 -60t-41 -82t-14 -89t15 -81.5t46.5 -61t80.5 -23.5t87.5 23t65.5 60.5t41 82.5t14 89t-15 81.5t-46 60.5t-81 23z" />
    <glyph glyph-name="atilde" unicode="&#xe3;" horiz-adv-x="614" 
d="M456 618q-24 0 -40.5 11t-29 26t-24 26t-25.5 11q-17 0 -28 -18.5t-17 -50.5h-51q10 55 32.5 89t64.5 34q26 0 42.5 -11t28.5 -25.5t23.5 -25.5t25.5 -11q32 0 43 68h52q-11 -54 -33 -88.5t-64 -34.5zM332 540q45 0 76.5 -13.5t52 -32.5t31 -38t15.5 -30h5l22 104h76
l-114 -530h-75l18 83h-5l-10.5 -14t-32.5 -32.5t-55 -32.5t-79 -14q-68 0 -113 32.5t-67.5 85.5t-22.5 114q0 56 18.5 112.5t54 103t87 74.5t118.5 28zM335 475q-49 0 -87.5 -23t-65.5 -60t-41 -82t-14 -89t15 -81.5t46.5 -61t80.5 -23.5t87.5 23t65.5 60.5t41 82.5t14 89
t-15 81.5t-46 60.5t-81 23z" />
    <glyph glyph-name="adieresis" unicode="&#xe4;" horiz-adv-x="614" 
d="M479 617q-23 0 -38 16t-15 37q0 22 15 37.5t38 15.5t38.5 -15.5t15.5 -37.5t-15.5 -37.5t-38.5 -15.5zM306 617q-23 0 -38 16t-15 37q0 22 15 37.5t38 15.5t38.5 -15.5t15.5 -37.5t-15.5 -37.5t-38.5 -15.5zM332 540q45 0 76.5 -13.5t52 -32.5t31 -38t15.5 -30h5l22 104
h76l-114 -530h-75l18 83h-5l-10.5 -14t-32.5 -32.5t-55 -32.5t-79 -14q-68 0 -113 32.5t-67.5 85.5t-22.5 114q0 56 18.5 112.5t54 103t87 74.5t118.5 28zM335 475q-49 0 -87.5 -23t-65.5 -60t-41 -82t-14 -89t15 -81.5t46.5 -61t80.5 -23.5t87.5 23t65.5 60.5t41 82.5
t14 89t-15 81.5t-46 60.5t-81 23z" />
    <glyph glyph-name="aring" unicode="&#xe5;" horiz-adv-x="614" 
d="M376 606q-32 0 -58.5 15.5t-42.5 42t-16 58.5q0 33 16 59.5t42.5 42t58.5 15.5t58.5 -15.5t42 -42t15.5 -59.5q0 -32 -15.5 -58.5t-42 -42t-58.5 -15.5zM376 661q25 0 43 18t18 43q0 26 -18 44t-43 18q-26 0 -44 -18t-18 -44q0 -25 18 -43t44 -18zM332 540
q45 0 76.5 -13.5t52 -32.5t31 -38t15.5 -30h5l22 104h76l-114 -530h-75l18 83h-5l-10.5 -14t-32.5 -32.5t-55 -32.5t-79 -14q-68 0 -113 32.5t-67.5 85.5t-22.5 114q0 56 18.5 112.5t54 103t87 74.5t118.5 28zM335 475q-49 0 -87.5 -23t-65.5 -60t-41 -82t-14 -89t15 -81.5
t46.5 -61t80.5 -23.5t87.5 23t65.5 60.5t41 82.5t14 89t-15 81.5t-46 60.5t-81 23z" />
    <glyph glyph-name="ae" unicode="&#xe6;" horiz-adv-x="938" 
d="M199 -10q-79 0 -123.5 41t-44.5 104q0 43 22 79t67 59t116 26l180 7l6 29q7 33 1 65.5t-32 54t-80 21.5q-47 0 -76 -16t-43.5 -36.5t-19.5 -36l-5 -15.5h-74l5 17t18.5 42t38 50t63.5 42t95 17q65 0 108 -27.5t61 -79.5h4q37 49 89.5 78t117.5 29t107 -25.5t64.5 -67
t27 -91t-7.5 -98.5l-3 -14h-401q-3 -51 11.5 -94t48 -69t88.5 -26q45 0 75.5 15.5t48.5 36t26 35.5l8 15h72l-7 -16.5t-23.5 -41.5t-43.5 -50t-67 -42t-95 -17q-83 0 -132.5 40t-68.5 101h-5l-7 -14.5t-22.5 -35.5t-40.5 -42t-61.5 -35t-85.5 -14zM492 304h327q7 43 -3.5 82
t-42 64t-85.5 25q-50 0 -89 -23.5t-66.5 -62.5t-40.5 -85zM212 51q47 0 85.5 22.5t64.5 61t36 84.5l6 26l-167 -7q-63 -2 -97.5 -28.5t-34.5 -69.5q0 -46 32.5 -67.5t74.5 -21.5z" />
    <glyph glyph-name="ccedilla" unicode="&#xe7;" horiz-adv-x="568" 
d="M198 -258q-31 0 -54 5.5l-23 5.5l9 47l23 -4.5t46 -4.5q40 0 56.5 17t16.5 36t-14.5 33.5t-42.5 14.5q-23 0 -37.5 -8t-13.5 -8l-24 30l72 88q-58 10 -96 43t-56.5 81.5t-18.5 104.5q0 60 19.5 117t57 102t92 71.5t123.5 26.5q61 0 98.5 -18.5t58 -46t28.5 -55.5
t9.5 -46.5l1.5 -18.5h-73l-0.5 12t-6 30t-19 35.5t-38.5 29.5t-65 12q-66 0 -113.5 -35t-72.5 -91t-25 -120q0 -47 16 -86t48.5 -62.5t83.5 -23.5q48 0 79.5 18t49.5 41.5t25.5 41.5l7.5 18h74l-6.5 -18t-21.5 -45t-41.5 -54t-66 -46.5t-94.5 -21.5l-46 -55h10
q49 0 73.5 -27t24.5 -62q0 -25 -14 -49t-43.5 -39.5t-76.5 -15.5z" />
    <glyph glyph-name="egrave" unicode="&#xe8;" horiz-adv-x="570" 
d="M321 612l-76 171h74l62 -170zM257 -10q-74 0 -122 32.5t-71 85t-23 113.5q0 57 19 113.5t56 103t90.5 74.5t121.5 28q65 0 107.5 -25.5t64.5 -67t26.5 -91t-6.5 -98.5l-4 -14h-401q-3 -51 11.5 -94t48 -69t87.5 -26q46 0 76.5 15.5t49 36t26 35.5l7.5 15h72l-7 -16.5
t-23 -41.5t-43.5 -50t-67.5 -42t-95 -17zM127 304h328q7 43 -4 82t-42.5 64t-85.5 25q-49 0 -88.5 -23.5t-66.5 -62.5t-41 -85z" />
    <glyph glyph-name="eacute" unicode="&#xe9;" horiz-adv-x="570" 
d="M394 612l-62 1l86 170h76zM257 -10q-74 0 -122 32.5t-71 85t-23 113.5q0 57 19 113.5t56 103t90.5 74.5t121.5 28q65 0 107.5 -25.5t64.5 -67t26.5 -91t-6.5 -98.5l-4 -14h-401q-3 -51 11.5 -94t48 -69t87.5 -26q46 0 76.5 15.5t49 36t26 35.5l7.5 15h72l-7 -16.5
t-23 -41.5t-43.5 -50t-67.5 -42t-95 -17zM127 304h328q7 43 -4 82t-42.5 64t-85.5 25q-49 0 -88.5 -23.5t-66.5 -62.5t-41 -85z" />
    <glyph glyph-name="ecircumflex" unicode="&#xea;" horiz-adv-x="570" 
d="M208 606l151 162h67l83 -162h-65l-57 113l-104 -113h-75zM257 -10q-74 0 -122 32.5t-71 85t-23 113.5q0 57 19 113.5t56 103t90.5 74.5t121.5 28q65 0 107.5 -25.5t64.5 -67t26.5 -91t-6.5 -98.5l-4 -14h-401q-3 -51 11.5 -94t48 -69t87.5 -26q46 0 76.5 15.5t49 36
t26 35.5l7.5 15h72l-7 -16.5t-23 -41.5t-43.5 -50t-67.5 -42t-95 -17zM127 304h328q7 43 -4 82t-42.5 64t-85.5 25q-49 0 -88.5 -23.5t-66.5 -62.5t-41 -85z" />
    <glyph glyph-name="edieresis" unicode="&#xeb;" horiz-adv-x="570" 
d="M457 616q-23 0 -37.5 16t-14.5 38q0 21 14.5 37t37.5 16t38.5 -16t15.5 -37q0 -22 -15.5 -38t-38.5 -16zM284 616q-23 0 -37.5 16t-14.5 38q0 21 14.5 37t37.5 16t38.5 -16t15.5 -37q0 -22 -15.5 -38t-38.5 -16zM257 -10q-74 0 -122 32.5t-71 85t-23 113.5q0 57 19 113.5
t56 103t90.5 74.5t121.5 28q65 0 107.5 -25.5t64.5 -67t26.5 -91t-6.5 -98.5l-4 -14h-401q-3 -51 11.5 -94t48 -69t87.5 -26q46 0 76.5 15.5t49 36t26 35.5l7.5 15h72l-7 -16.5t-23 -41.5t-43.5 -50t-67.5 -42t-95 -17zM127 304h328q7 43 -4 82t-42.5 64t-85.5 25
q-49 0 -88.5 -23.5t-66.5 -62.5t-41 -85z" />
    <glyph glyph-name="igrave" unicode="&#xec;" horiz-adv-x="243" 
d="M149 613l-75 171h74l62 -171h-61zM20 0l113 530h76l-113 -530h-76z" />
    <glyph glyph-name="iacute" unicode="&#xed;" horiz-adv-x="243" 
d="M222 613h-62l87 171h75zM20 0l113 530h76l-113 -530h-76z" />
    <glyph glyph-name="icircumflex" unicode="&#xee;" horiz-adv-x="243" 
d="M36 607l152 162h66l84 -162h-65l-57 113l-104 -113h-76zM20 0l113 530h76l-113 -530h-76z" />
    <glyph glyph-name="idieresis" unicode="&#xef;" horiz-adv-x="243" 
d="M286 617q-23 0 -38 16t-15 37q0 22 15 37.5t38 15.5t38 -15.5t15 -37.5t-15 -37.5t-38 -15.5zM113 617q-23 0 -38 16t-15 37q0 22 15 37.5t38 15.5t38 -15.5t15 -37.5t-15 -37.5t-38 -15.5zM20 0l113 530h76l-113 -530h-76z" />
    <glyph glyph-name="eth" unicode="&#xf0;" horiz-adv-x="623" 
d="M275 -10q-76 0 -125.5 33t-73.5 86.5t-24 114.5q0 55 19 110.5t54.5 100.5t87.5 72.5t117 27.5q53 0 88.5 -17t57 -42t32.5 -50q-19 87 -68 149t-103 102l-130 -67l-15 52l95 49q-45 28 -76.5 41l-31.5 13l29 54l20 -7.5t53.5 -24t72.5 -41.5l140 72l16 -52l-108 -55
q45 -37 86.5 -87t67 -116t25.5 -149q0 -73 -21.5 -139t-62 -118t-97 -82t-125.5 -30zM278 55q49 0 88 22.5t66 59t41 80.5t14 87q0 45 -16 84t-49 63t-84 24q-50 0 -89 -22.5t-66 -59t-41 -80.5t-14 -88q0 -45 16 -83.5t49 -62.5t85 -24z" />
    <glyph glyph-name="ntilde" unicode="&#xf1;" horiz-adv-x="575" 
d="M443 618q-24 0 -40.5 11t-29 26t-24 26t-25.5 11q-17 0 -28 -18.5t-17 -50.5h-51q10 55 32.5 89t64.5 34q26 0 42.5 -11t28.5 -25.5t23.5 -25.5t25.5 -11q32 0 43 68h52q-11 -54 -33 -88.5t-64 -34.5zM26 0l113 530h75l-19 -88h5q3 6 14.5 21.5t32 33t51 30.5t70.5 13
q58 0 95.5 -29t51.5 -77t2 -105l-70 -329h-76l71 334q12 57 -11.5 98.5t-86.5 41.5q-49 0 -86 -25.5t-60.5 -68.5t-34.5 -94l-62 -286h-75z" />
    <glyph glyph-name="ograve" unicode="&#xf2;" horiz-adv-x="589" 
d="M316 613l-76 171h74l62 -171h-60zM254 -10q-73 0 -120.5 32.5t-70.5 85t-23 112.5q0 56 19.5 112.5t56.5 103.5t90.5 75.5t121.5 28.5q74 0 121 -32.5t70 -84.5t23 -113q0 -56 -19 -112.5t-56 -103.5t-90.5 -75.5t-122.5 -28.5zM258 57q50 0 89 22.5t66 59t41.5 81
t14.5 88.5t-15.5 81.5t-47.5 60.5t-82 23q-49 0 -88 -22t-66.5 -59t-41.5 -81.5t-14 -88.5t15.5 -81.5t47.5 -60.5t81 -23z" />
    <glyph glyph-name="oacute" unicode="&#xf3;" horiz-adv-x="589" 
d="M389 613h-62l86 171h76zM254 -10q-73 0 -120.5 32.5t-70.5 85t-23 112.5q0 56 19.5 112.5t56.5 103.5t90.5 75.5t121.5 28.5q74 0 121 -32.5t70 -84.5t23 -113q0 -56 -19 -112.5t-56 -103.5t-90.5 -75.5t-122.5 -28.5zM258 57q50 0 89 22.5t66 59t41.5 81t14.5 88.5
t-15.5 81.5t-47.5 60.5t-82 23q-49 0 -88 -22t-66.5 -59t-41.5 -81.5t-14 -88.5t15.5 -81.5t47.5 -60.5t81 -23z" />
    <glyph glyph-name="ocircumflex" unicode="&#xf4;" horiz-adv-x="589" 
d="M203 607l151 162h67l83 -162h-65l-57 113l-104 -113h-75zM254 -10q-73 0 -120.5 32.5t-70.5 85t-23 112.5q0 56 19.5 112.5t56.5 103.5t90.5 75.5t121.5 28.5q74 0 121 -32.5t70 -84.5t23 -113q0 -56 -19 -112.5t-56 -103.5t-90.5 -75.5t-122.5 -28.5zM258 57
q50 0 89 22.5t66 59t41.5 81t14.5 88.5t-15.5 81.5t-47.5 60.5t-82 23q-49 0 -88 -22t-66.5 -59t-41.5 -81.5t-14 -88.5t15.5 -81.5t47.5 -60.5t81 -23z" />
    <glyph glyph-name="otilde" unicode="&#xf5;" horiz-adv-x="589" 
d="M430 618q-25 0 -41.5 11t-28.5 26t-23.5 26t-26.5 11q-17 0 -28 -18.5t-16 -50.5h-52q10 55 32.5 89t65.5 34q25 0 42 -11t29 -25.5t23 -25.5t25 -11q32 0 43 68h52q-10 -54 -32 -88.5t-64 -34.5zM254 -10q-73 0 -120.5 32.5t-70.5 85t-23 112.5q0 56 19.5 112.5
t56.5 103.5t90.5 75.5t121.5 28.5q74 0 121 -32.5t70 -84.5t23 -113q0 -56 -19 -112.5t-56 -103.5t-90.5 -75.5t-122.5 -28.5zM258 57q50 0 89 22.5t66 59t41.5 81t14.5 88.5t-15.5 81.5t-47.5 60.5t-82 23q-49 0 -88 -22t-66.5 -59t-41.5 -81.5t-14 -88.5t15.5 -81.5
t47.5 -60.5t81 -23z" />
    <glyph glyph-name="odieresis" unicode="&#xf6;" horiz-adv-x="589" 
d="M452 617q-23 0 -37.5 16t-14.5 37q0 22 14.5 37.5t37.5 15.5t38.5 -15.5t15.5 -37.5t-15.5 -37.5t-38.5 -15.5zM279 617q-23 0 -37.5 16t-14.5 37q0 22 14.5 37.5t37.5 15.5t38.5 -15.5t15.5 -37.5t-15.5 -37.5t-38.5 -15.5zM254 -10q-73 0 -120.5 32.5t-70.5 85
t-23 112.5q0 56 19.5 112.5t56.5 103.5t90.5 75.5t121.5 28.5q74 0 121 -32.5t70 -84.5t23 -113q0 -56 -19 -112.5t-56 -103.5t-90.5 -75.5t-122.5 -28.5zM258 57q50 0 89 22.5t66 59t41.5 81t14.5 88.5t-15.5 81.5t-47.5 60.5t-82 23q-49 0 -88 -22t-66.5 -59t-41.5 -81.5
t-14 -88.5t15.5 -81.5t47.5 -60.5t81 -23z" />
    <glyph glyph-name="divide" unicode="&#xf7;" horiz-adv-x="623" 
d="M348 410q-25 0 -40.5 17t-15.5 39q0 23 15.5 39.5t40.5 16.5q23 0 39.5 -16.5t16.5 -39.5t-16.5 -39.5t-39.5 -16.5zM101 267l13 62h408l-13 -62h-408zM276 74q-25 0 -40.5 16.5t-15.5 39.5t15.5 39.5t40.5 16.5q23 0 39.5 -16.5t16.5 -39.5t-16.5 -39.5t-39.5 -16.5z
" />
    <glyph glyph-name="oslash" unicode="&#xf8;" horiz-adv-x="603" 
d="M100 -49l41 74q-46 32 -68 84t-22 111q0 56 19.5 112.5t56.5 103.5t90.5 75.5t121.5 28.5q43 0 79 -12l28 51h61l-41 -75q44 -32 65.5 -83.5t21.5 -110.5q0 -56 -19 -112.5t-56 -103.5t-90.5 -75.5t-122.5 -28.5q-41 0 -77 12l-27 -51h-61zM125 222q0 -39 12.5 -74.5
t38.5 -58.5l208 377q-22 7 -49 7q-49 0 -88 -22t-66.5 -59t-41.5 -81.5t-14 -88.5zM269 57q50 0 89 22.5t66 59t41.5 81t14.5 88.5q0 39 -12.5 73.5t-37.5 57.5l-207 -376q21 -6 46 -6z" />
    <glyph glyph-name="ugrave" unicode="&#xf9;" horiz-adv-x="567" 
d="M322 613l-75 171h74l62 -171h-61zM203 -10q-78 0 -117.5 53t-19.5 147l72 340h75l-72 -344q-14 -62 9.5 -96t78.5 -34q53 0 91.5 28.5t62.5 74.5t35 98l58 273h75l-112 -530h-75l18 86h-6q-10 -14 -31 -37t-56 -41t-86 -18z" />
    <glyph glyph-name="uacute" unicode="&#xfa;" horiz-adv-x="567" 
d="M395 613h-62l87 171h75zM203 -10q-78 0 -117.5 53t-19.5 147l72 340h75l-72 -344q-14 -62 9.5 -96t78.5 -34q53 0 91.5 28.5t62.5 74.5t35 98l58 273h75l-112 -530h-75l18 86h-6q-10 -14 -31 -37t-56 -41t-86 -18z" />
    <glyph glyph-name="ucircumflex" unicode="&#xfb;" horiz-adv-x="567" 
d="M209 607l152 162h66l84 -162h-65l-57 113l-104 -113h-76zM203 -10q-78 0 -117.5 53t-19.5 147l72 340h75l-72 -344q-14 -62 9.5 -96t78.5 -34q53 0 91.5 28.5t62.5 74.5t35 98l58 273h75l-112 -530h-75l18 86h-6q-10 -14 -31 -37t-56 -41t-86 -18z" />
    <glyph glyph-name="udieresis" unicode="&#xfc;" horiz-adv-x="567" 
d="M459 617q-23 0 -38 16t-15 37q0 22 15 37.5t38 15.5t38 -15.5t15 -37.5t-15 -37.5t-38 -15.5zM286 617q-23 0 -38 16t-15 37q0 22 15 37.5t38 15.5t38 -15.5t15 -37.5t-15 -37.5t-38 -15.5zM203 -10q-78 0 -117.5 53t-19.5 147l72 340h75l-72 -344q-14 -62 9.5 -96
t78.5 -34q53 0 91.5 28.5t62.5 74.5t35 98l58 273h75l-112 -530h-75l18 86h-6q-10 -14 -31 -37t-56 -41t-86 -18z" />
    <glyph glyph-name="yacute" unicode="&#xfd;" horiz-adv-x="550" 
d="M368 613h-62l87 171h75zM-16 -195q-20 0 -33.5 1.5l-13.5 1.5l14 67l13.5 -1.5t28.5 -1.5q53 0 99.5 32.5t84.5 93.5l-93 532h76l74 -439l259 439h87l-328 -543q-57 -94 -124 -138t-144 -44z" />
    <glyph glyph-name="thorn" unicode="&#xfe;" horiz-adv-x="637" 
d="M-11 -195l155 725h1l49 230h76l-50 -230v0l-18 -83h5l10.5 14t32 32.5t55 32.5t79.5 14q68 0 113 -32.5t67.5 -85.5t22.5 -114q0 -56 -18.5 -112.5t-54 -103t-87.5 -74.5t-118 -28q-46 0 -77.5 13.5t-51.5 32.5t-31 38t-15 30h-5l-65 -299h-75zM164 220q0 -44 15 -81.5
t46 -60.5t80 -23t88 23t65.5 60t40.5 82t14 89t-15 81.5t-46 61t-81 23.5q-48 0 -86.5 -23t-65.5 -60.5t-41 -82.5t-14 -89z" />
    <glyph glyph-name="ydieresis" unicode="&#xff;" horiz-adv-x="550" 
d="M432 617q-23 0 -38 16t-15 37q0 22 15 37.5t38 15.5t38 -15.5t15 -37.5t-15 -37.5t-38 -15.5zM259 617q-23 0 -38 16t-15 37q0 22 15 37.5t38 15.5t38 -15.5t15 -37.5t-15 -37.5t-38 -15.5zM-16 -195q-20 0 -33.5 1.5l-13.5 1.5l14 67l13.5 -1.5t28.5 -1.5
q53 0 99.5 32.5t84.5 93.5l-93 532h76l74 -439l259 439h87l-328 -543q-57 -94 -124 -138t-144 -44z" />
    <glyph glyph-name="Amacron" unicode="&#x100;" horiz-adv-x="688" 
d="M326 848l13 58h296l-13 -58h-296zM-16 0l421 740h91l106 -740h-76l-26 191h-322l-108 -191h-86zM218 261h272l-54 387z" />
    <glyph glyph-name="amacron" unicode="&#x101;" horiz-adv-x="614" 
d="M238 638l13 58h296l-13 -58h-296zM332 540q45 0 76.5 -13.5t52 -32.5t31 -38t15.5 -30h5l22 104h76l-114 -530h-75l18 83h-5l-10.5 -14t-32.5 -32.5t-55 -32.5t-79 -14q-68 0 -113 32.5t-67.5 85.5t-22.5 114q0 56 18.5 112.5t54 103t87 74.5t118.5 28zM335 475
q-49 0 -87.5 -23t-65.5 -60t-41 -82t-14 -89t15 -81.5t46.5 -61t80.5 -23.5t87.5 23t65.5 60.5t41 82.5t14 89t-15 81.5t-46 60.5t-81 23z" />
    <glyph glyph-name="Abreve" unicode="&#x102;" horiz-adv-x="688" 
d="M478 818q-43 0 -69.5 13t-40 32.5t-18.5 39t-5.5 33l-0.5 13.5h58v-12t5.5 -28t22 -28t49.5 -12t54.5 12t33.5 28t17 28l5 12h58l-4 -13.5t-14.5 -33t-29.5 -39t-48.5 -32.5t-72.5 -13zM-16 0l421 740h91l106 -740h-76l-26 191h-322l-108 -191h-86zM218 261h272l-54 387z
" />
    <glyph glyph-name="abreve" unicode="&#x103;" horiz-adv-x="614" 
d="M391 608q-46 0 -72.5 14.5t-39.5 36t-17 43t-3.5 36l0.5 14.5h58l-1 -13.5t4 -32t21 -32.5t50 -14t56 14t34.5 32.5t17.5 32l5 13.5h58l-3.5 -14.5t-13.5 -36t-29 -43t-49.5 -36t-75.5 -14.5zM332 540q45 0 76.5 -13.5t52 -32.5t31 -38t15.5 -30h5l22 104h76l-114 -530
h-75l18 83h-5l-10.5 -14t-32.5 -32.5t-55 -32.5t-79 -14q-68 0 -113 32.5t-67.5 85.5t-22.5 114q0 56 18.5 112.5t54 103t87 74.5t118.5 28zM335 475q-49 0 -87.5 -23t-65.5 -60t-41 -82t-14 -89t15 -81.5t46.5 -61t80.5 -23.5t87.5 23t65.5 60.5t41 82.5t14 89t-15 81.5
t-46 60.5t-81 23z" />
    <glyph glyph-name="Aogonek" unicode="&#x104;" horiz-adv-x="688" 
d="M-16 0l421 740h91l106 -740h-38l-10.5 -4.5t-25 -14t-25 -23.5t-10.5 -33q0 -37 51 -37q14 0 26 2.5l12 2.5l-10 -48l-12.5 -3t-32.5 -3q-44 0 -69 20t-25 53q0 30 17 51t39 33t36 17l-25 178h-322l-108 -191h-86zM218 261h272l-54 387z" />
    <glyph glyph-name="aogonek" unicode="&#x105;" horiz-adv-x="614" 
d="M459 -161q-44 0 -69 20t-25 53t21 54.5t42 33.5h-7l18 83h-5l-10.5 -14t-32.5 -32.5t-55 -32.5t-79 -14q-68 0 -113 32.5t-67.5 85.5t-22.5 114q0 56 18.5 112.5t54 103t87 74.5t118.5 28q45 0 76.5 -13.5t52 -32.5t31 -38t15.5 -30h5l22 104h76l-114 -530l-10.5 -4.5
t-25 -14t-25 -23.5t-10.5 -33q0 -37 51 -37q14 0 26 2.5l12 2.5l-10 -48l-12.5 -3t-32.5 -3zM335 475q-49 0 -87.5 -23t-65.5 -60t-41 -82t-14 -89t15 -81.5t46.5 -61t80.5 -23.5t87.5 23t65.5 60.5t41 82.5t14 89t-15 81.5t-46 60.5t-81 23z" />
    <glyph glyph-name="Cacute" unicode="&#x106;" horiz-adv-x="749" 
d="M532 823h-62l86 171h76zM359 -10q-77 0 -133 26.5t-92.5 72t-54 103.5t-17.5 122q0 77 25 154t74.5 141t123.5 102.5t172 38.5q68 0 114.5 -18t76 -47t45 -61.5t22 -61t7.5 -47l1 -18.5h-77l-1.5 18.5t-9.5 46t-28 54.5t-57 45.5t-97 18.5q-77 0 -135.5 -32t-98 -85
t-59.5 -116.5t-20 -127.5q0 -68 23.5 -127t73.5 -95t128 -36q58 0 99.5 18t70 45.5t45 54.5t23.5 45.5l7 18.5h78l-6 -18.5t-20 -47t-38.5 -61t-60.5 -61.5t-86.5 -47t-117.5 -18z" />
    <glyph glyph-name="cacute" unicode="&#x107;" horiz-adv-x="568" 
d="M401 613h-62l86 171h76zM258 -10q-74 0 -122 32t-71.5 85t-23.5 116q0 60 19.5 117t57 102t92 71.5t123.5 26.5q61 0 98.5 -18.5t58 -46t28.5 -55.5t9.5 -46.5l1.5 -18.5h-73l-0.5 12t-6 30t-19 35.5t-38.5 29.5t-65 12q-66 0 -113.5 -35t-72.5 -91t-25 -120
q0 -47 16 -86t48.5 -62.5t83.5 -23.5q48 0 79.5 18t49.5 41.5t25.5 41.5l7.5 18h74l-6.5 -18.5t-22.5 -46t-43.5 -55.5t-69.5 -46.5t-100 -18.5z" />
    <glyph glyph-name="Cdotaccent" unicode="&#x10a;" horiz-adv-x="749" 
d="M512 837q-23 0 -38 16t-15 37q0 22 15 37.5t38 15.5q22 0 37.5 -15.5t15.5 -37.5t-15.5 -37.5t-37.5 -15.5zM359 -10q-77 0 -133 26.5t-92.5 72t-54 103.5t-17.5 122q0 77 25 154t74.5 141t123.5 102.5t172 38.5q68 0 114.5 -18t76 -47t45 -61.5t22 -61t7.5 -47l1 -18.5
h-77l-1.5 18.5t-9.5 46t-28 54.5t-57 45.5t-97 18.5q-77 0 -135.5 -32t-98 -85t-59.5 -116.5t-20 -127.5q0 -68 23.5 -127t73.5 -95t128 -36q58 0 99.5 18t70 45.5t45 54.5t23.5 45.5l7 18.5h78l-6 -18.5t-20 -47t-38.5 -61t-60.5 -61.5t-86.5 -47t-117.5 -18z" />
    <glyph glyph-name="cdotaccent" unicode="&#x10b;" horiz-adv-x="568" 
d="M381 627q-23 0 -38 16t-15 37q0 22 15 37.5t38 15.5q22 0 37.5 -15.5t15.5 -37.5t-15.5 -37.5t-37.5 -15.5zM258 -10q-74 0 -122 32t-71.5 85t-23.5 116q0 60 19.5 117t57 102t92 71.5t123.5 26.5q61 0 98.5 -18.5t58 -46t28.5 -55.5t9.5 -46.5l1.5 -18.5h-73l-0.5 12
t-6 30t-19 35.5t-38.5 29.5t-65 12q-66 0 -113.5 -35t-72.5 -91t-25 -120q0 -47 16 -86t48.5 -62.5t83.5 -23.5q48 0 79.5 18t49.5 41.5t25.5 41.5l7.5 18h74l-6.5 -18.5t-22.5 -46t-43.5 -55.5t-69.5 -46.5t-100 -18.5z" />
    <glyph glyph-name="Ccaron" unicode="&#x10c;" horiz-adv-x="749" 
d="M458 816l-84 162h65l57 -113l104 113h76l-152 -162h-66zM359 -10q-77 0 -133 26.5t-92.5 72t-54 103.5t-17.5 122q0 77 25 154t74.5 141t123.5 102.5t172 38.5q68 0 114.5 -18t76 -47t45 -61.5t22 -61t7.5 -47l1 -18.5h-77l-1.5 18.5t-9.5 46t-28 54.5t-57 45.5t-97 18.5
q-77 0 -135.5 -32t-98 -85t-59.5 -116.5t-20 -127.5q0 -68 23.5 -127t73.5 -95t128 -36q58 0 99.5 18t70 45.5t45 54.5t23.5 45.5l7 18.5h78l-6 -18.5t-20 -47t-38.5 -61t-60.5 -61.5t-86.5 -47t-117.5 -18z" />
    <glyph glyph-name="ccaron" unicode="&#x10d;" horiz-adv-x="568" 
d="M327 606l-84 162h65l57 -113l104 113h76l-152 -162h-66zM258 -10q-74 0 -122 32t-71.5 85t-23.5 116q0 60 19.5 117t57 102t92 71.5t123.5 26.5q61 0 98.5 -18.5t58 -46t28.5 -55.5t9.5 -46.5l1.5 -18.5h-73l-0.5 12t-6 30t-19 35.5t-38.5 29.5t-65 12q-66 0 -113.5 -35
t-72.5 -91t-25 -120q0 -47 16 -86t48.5 -62.5t83.5 -23.5q48 0 79.5 18t49.5 41.5t25.5 41.5l7.5 18h74l-6.5 -18.5t-22.5 -46t-43.5 -55.5t-69.5 -46.5t-100 -18.5z" />
    <glyph glyph-name="Dcaron" unicode="&#x10e;" horiz-adv-x="705" 
d="M380 816l-84 162h66l56 -113l104 113h76l-152 -162h-66zM31 0l157 740h178q80 0 138 -25t96 -68.5t56.5 -99t18.5 -116.5q0 -76 -27.5 -152.5t-81.5 -139.5t-132.5 -101t-179.5 -38h-223zM358 671h-108l-128 -602h135q81 0 144.5 32t107 84.5t66 115.5t22.5 126
q0 65 -25.5 120.5t-78 89.5t-135.5 34z" />
    <glyph glyph-name="dcaron" unicode="&#x10f;" horiz-adv-x="677" 
d="M255 -10q-68 0 -113 32.5t-67.5 85.5t-22.5 114q0 56 18.5 112.5t54 103t87.5 74.5t118 28q46 0 77.5 -13.5t51.5 -32.5t31 -38t15 -30h5l72 334h76l-163 -760h-76l18 83h-5l-10.5 -14t-32 -32.5t-55 -32.5t-79.5 -14zM698 574l46 186h74l-68 -186h-52zM268 55
q48 0 86.5 23t65.5 60.5t41 82.5t14 89t-15 81.5t-46 60.5t-80 23t-88 -23t-65.5 -60t-40.5 -82t-14 -89t15 -81.5t46 -61t81 -23.5z" />
    <glyph glyph-name="Dcroat" unicode="&#x110;" horiz-adv-x="753" 
d="M79 0l71 337h-106l14 68h107l71 335h179q79 0 137.5 -25t96.5 -68.5t56.5 -99t18.5 -116.5q0 -76 -28 -152.5t-82 -139.5t-132 -101t-180 -38h-223zM381 337h-154l-56 -268h134q81 0 144.5 32t107 84.5t66.5 115.5t23 126q0 65 -25.5 120.5t-78.5 89.5t-135 34h-109
l-56 -266h153z" />
    <glyph glyph-name="dcroat" unicode="&#x111;" horiz-adv-x="648" 
d="M255 -10q-68 0 -113 32.5t-67.5 85.5t-22.5 114q0 56 18.5 112.5t54 103t87.5 74.5t118 28q46 0 77.5 -13.5t51.5 -32.5t31 -38t15 -30h5l39 179h-140l13 61h140l20 94h76l-20 -94h91l-13 -61h-91l-130 -605h-76l18 83h-5l-10.5 -14t-32 -32.5t-55 -32.5t-79.5 -14z
M268 55q48 0 86.5 23t65.5 60.5t41 82.5t14 89t-15 81.5t-46 60.5t-80 23t-88 -23t-65.5 -60t-40.5 -82t-14 -89t15 -81.5t46 -61t81 -23.5z" />
    <glyph glyph-name="Emacron" unicode="&#x112;" horiz-adv-x="592" 
d="M272 848l13 58h296l-13 -58h-296zM31 0l157 740h438l-14 -69h-362l-55 -259h314l-14 -69h-314l-59 -274h367l-15 -69h-443z" />
    <glyph glyph-name="emacron" unicode="&#x113;" horiz-adv-x="570" 
d="M216 638l13 58h296l-13 -58h-296zM257 -10q-74 0 -122 32.5t-71 85t-23 113.5q0 57 19 113.5t56 103t90.5 74.5t121.5 28q65 0 107.5 -25.5t64.5 -67t26.5 -91t-6.5 -98.5l-4 -14h-401q-3 -51 11.5 -94t48 -69t87.5 -26q46 0 76.5 15.5t49 36t26 35.5l7.5 15h72l-7 -16.5
t-23 -41.5t-43.5 -50t-67.5 -42t-95 -17zM127 304h328q7 43 -4 82t-42.5 64t-85.5 25q-49 0 -88.5 -23.5t-66.5 -62.5t-41 -85z" />
    <glyph glyph-name="Edotaccent" unicode="&#x116;" horiz-adv-x="592" 
d="M429 837q-23 0 -37.5 16t-14.5 37q0 22 14.5 37.5t37.5 15.5t38.5 -15.5t15.5 -37.5t-15.5 -37.5t-38.5 -15.5zM31 0l157 740h438l-14 -69h-362l-55 -259h314l-14 -69h-314l-59 -274h367l-15 -69h-443z" />
    <glyph glyph-name="edotaccent" unicode="&#x117;" horiz-adv-x="570" 
d="M374 626q-23 0 -38 16t-15 38q0 21 15 37t38 16q22 0 37.5 -16t15.5 -37q0 -22 -15.5 -38t-37.5 -16zM257 -10q-74 0 -122 32.5t-71 85t-23 113.5q0 57 19 113.5t56 103t90.5 74.5t121.5 28q65 0 107.5 -25.5t64.5 -67t26.5 -91t-6.5 -98.5l-4 -14h-401q-3 -51 11.5 -94
t48 -69t87.5 -26q46 0 76.5 15.5t49 36t26 35.5l7.5 15h72l-7 -16.5t-23 -41.5t-43.5 -50t-67.5 -42t-95 -17zM127 304h328q7 43 -4 82t-42.5 64t-85.5 25q-49 0 -88.5 -23.5t-66.5 -62.5t-41 -85z" />
    <glyph glyph-name="Eogonek" unicode="&#x118;" horiz-adv-x="592" 
d="M31 0l157 740h438l-14 -69h-362l-55 -259h314l-14 -69h-314l-59 -274h367l-15 -69l-10.5 -4.5t-25 -14t-25 -23.5t-10.5 -33q0 -37 51 -37q14 0 26 2.5l12 2.5l-10 -48l-12.5 -3t-32.5 -3q-44 0 -69 20t-25 53t21 54.5t42 33.5h-375z" />
    <glyph glyph-name="eogonek" unicode="&#x119;" horiz-adv-x="570" 
d="M254 -168q-44 0 -68.5 19.5t-24.5 53.5q0 33 20 54t42 33q-63 8 -103 41t-59.5 82.5t-19.5 105.5q0 57 19 113.5t56 103t90.5 74.5t121.5 28q65 0 107.5 -25.5t64.5 -67t26.5 -91t-6.5 -98.5l-4 -14h-401q-3 -51 11.5 -94t48 -69t87.5 -26q46 0 76.5 15.5t49 36t26 35.5
l7.5 15h72l-6 -15t-20 -37.5t-37.5 -46.5t-58 -42.5t-81.5 -23.5q-6 -2 -23 -11.5t-32 -25t-15 -37.5q0 -37 51 -37q14 0 26 2.5l12 2.5l-10 -48l-12.5 -3t-32.5 -3zM127 304h328q7 43 -4 82t-42.5 64t-85.5 25q-49 0 -88.5 -23.5t-66.5 -62.5t-41 -85z" />
    <glyph glyph-name="Ecaron" unicode="&#x11a;" horiz-adv-x="592" 
d="M375 816l-83 162h65l57 -113l104 113h75l-151 -162h-67zM31 0l157 740h438l-14 -69h-362l-55 -259h314l-14 -69h-314l-59 -274h367l-15 -69h-443z" />
    <glyph glyph-name="ecaron" unicode="&#x11b;" horiz-adv-x="570" 
d="M320 605l-84 162h65l57 -113l104 113h76l-152 -162h-66zM257 -10q-74 0 -122 32.5t-71 85t-23 113.5q0 57 19 113.5t56 103t90.5 74.5t121.5 28q65 0 107.5 -25.5t64.5 -67t26.5 -91t-6.5 -98.5l-4 -14h-401q-3 -51 11.5 -94t48 -69t87.5 -26q46 0 76.5 15.5t49 36
t26 35.5l7.5 15h72l-7 -16.5t-23 -41.5t-43.5 -50t-67.5 -42t-95 -17zM127 304h328q7 43 -4 82t-42.5 64t-85.5 25q-49 0 -88.5 -23.5t-66.5 -62.5t-41 -85z" />
    <glyph glyph-name="Gbreve" unicode="&#x11e;" horiz-adv-x="756" 
d="M493 818q-45 0 -71.5 14.5t-40 36t-17 43t-3 36l0.5 14.5h58l-1 -13.5t3.5 -32t20.5 -32.5t50 -14q35 0 57 14t34.5 32.5t17 32l4.5 13.5h58l-3.5 -14.5t-13 -36t-28.5 -43t-49.5 -36t-76.5 -14.5zM363 -10q-77 0 -134 26t-94 71.5t-55 104t-18 123.5q0 77 25 154
t75 140.5t124 102t171 38.5q68 0 114.5 -18t76 -47t45 -61.5t22 -61t7.5 -47l1 -18.5h-77l-1.5 18.5t-9.5 46t-28 54.5t-57.5 45.5t-97.5 18.5q-76 0 -134.5 -32t-98 -84.5t-59.5 -116.5t-20 -127q0 -69 24 -128t75 -95t129 -36q75 0 129 34.5t87 92.5t44 126h-220l14 63
h292l-7 -52q-13 -92 -56.5 -168t-115.5 -121.5t-172 -45.5z" />
    <glyph glyph-name="gbreve" unicode="&#x11f;" horiz-adv-x="613" 
d="M390 608q-45 0 -72 14.5t-40 36t-17 43t-3.5 36l0.5 14.5h58l-0.5 -13.5t4 -32t20.5 -32.5t50 -14q35 0 57 14t34 32.5t17 32l5 13.5h58l-3.5 -14.5t-13.5 -36t-29 -43t-49.5 -36t-75.5 -14.5zM209 -210q-66 0 -107 17t-63 42t-31 50t-10.5 42l-1.5 17h75l2.5 -15.5
t14 -35.5t40 -35.5t81.5 -15.5q65 0 107 26t65 66t32 83l11 50h-5l-10 -12.5t-31 -28.5t-53.5 -28.5t-77.5 -12.5q-70 0 -115.5 31.5t-68 82.5t-22.5 111q0 56 19 111.5t55 102t88 74.5t118 28q50 0 83 -16.5t53 -37.5t28.5 -37.5l8.5 -16.5h4l21 98h76l-107 -499
q-26 -123 -98.5 -182t-180.5 -59zM265 64q48 0 86 22t64.5 57.5t40 78.5t13.5 86q0 44 -15.5 82t-48 61.5t-83.5 23.5q-49 0 -87 -21.5t-64.5 -57t-40.5 -78.5t-14 -85q0 -45 16 -83t49 -62t84 -24z" />
    <glyph glyph-name="Gdotaccent" unicode="&#x120;" horiz-adv-x="756" 
d="M498 837q-23 0 -38 16t-15 37q0 22 15 37.5t38 15.5t38 -15.5t15 -37.5t-15 -37.5t-38 -15.5zM363 -10q-77 0 -134 26t-94 71.5t-55 104t-18 123.5q0 77 25 154t75 140.5t124 102t171 38.5q68 0 114.5 -18t76 -47t45 -61.5t22 -61t7.5 -47l1 -18.5h-77l-1.5 18.5t-9.5 46
t-28 54.5t-57.5 45.5t-97.5 18.5q-76 0 -134.5 -32t-98 -84.5t-59.5 -116.5t-20 -127q0 -69 24 -128t75 -95t129 -36q75 0 129 34.5t87 92.5t44 126h-220l14 63h292l-7 -52q-13 -92 -56.5 -168t-115.5 -121.5t-172 -45.5z" />
    <glyph glyph-name="gdotaccent" unicode="&#x121;" horiz-adv-x="613" 
d="M395 627q-23 0 -38 16t-15 37q0 22 15 37.5t38 15.5q22 0 37.5 -15.5t15.5 -37.5t-15.5 -37.5t-37.5 -15.5zM209 -210q-66 0 -107 17t-63 42t-31 50t-10.5 42l-1.5 17h75l2.5 -15.5t14 -35.5t40 -35.5t81.5 -15.5q65 0 107 26t65 66t32 83l11 50h-5l-10 -12.5t-31 -28.5
t-53.5 -28.5t-77.5 -12.5q-70 0 -115.5 31.5t-68 82.5t-22.5 111q0 56 19 111.5t55 102t88 74.5t118 28q50 0 83 -16.5t53 -37.5t28.5 -37.5l8.5 -16.5h4l21 98h76l-107 -499q-26 -123 -98.5 -182t-180.5 -59zM265 64q48 0 86 22t64.5 57.5t40 78.5t13.5 86q0 44 -15.5 82
t-48 61.5t-83.5 23.5q-49 0 -87 -21.5t-64.5 -57t-40.5 -78.5t-14 -85q0 -45 16 -83t49 -62t84 -24z" />
    <glyph glyph-name="Hbar" unicode="&#x126;" horiz-adv-x="774" 
d="M67 0l126 593h-86l14 70h87l16 77h77l-16 -77h364l16 77h77l-16 -77h97l-14 -70h-98l-126 -593h-77l74 345h-364l-74 -345h-77zM232 415h364l38 178h-364z" />
    <glyph glyph-name="hbar" unicode="&#x127;" horiz-adv-x="623" 
d="M74 0l129 605h-104l13 61h104l20 94h75l-20 -94h128l-13 -61h-128l-16 -75v0l-1 -4l-17 -84h4q3 6 14.5 21.5t32 33t51 30.5t70.5 13q58 0 95.5 -29t51.5 -77t2 -105l-70 -329h-76l71 334q12 57 -11.5 98.5t-86.5 41.5q-49 0 -86 -25.5t-61 -68.5t-34 -94l-62 -286h-75z
" />
    <glyph glyph-name="Itilde" unicode="&#x128;" horiz-adv-x="248" 
d="M314 801q-25 0 -41.5 11t-28.5 26t-23.5 26t-26.5 11q-17 0 -28 -18.5t-16 -49.5h-52q11 54 33 88t65 34q26 0 42.5 -11t28.5 -25.5t23 -25.5t26 -11q31 0 43 68h51q-10 -54 -32 -88.5t-64 -34.5zM31 0l157 740h77l-157 -740h-77z" />
    <glyph glyph-name="itilde" unicode="&#x129;" horiz-adv-x="243" 
d="M263 618q-24 0 -40.5 11t-29 26t-24 26t-25.5 11q-17 0 -28 -18.5t-17 -50.5h-51q10 55 32.5 89t64.5 34q26 0 42.5 -11t28.5 -25.5t23.5 -25.5t25.5 -11q32 0 43 68h52q-11 -54 -33 -88.5t-64 -34.5zM20 0l113 530h76l-113 -530h-76z" />
    <glyph glyph-name="Imacron" unicode="&#x12a;" horiz-adv-x="248" 
d="M96 822l12 58h296l-12 -58h-296zM31 0l157 740h77l-157 -740h-77z" />
    <glyph glyph-name="imacron" unicode="&#x12b;" horiz-adv-x="243" 
d="M45 638l13 58h296l-13 -58h-296zM20 0l113 530h76l-113 -530h-76z" />
    <glyph glyph-name="Iogonek" unicode="&#x12e;" horiz-adv-x="248" 
d="M31 0l157 740h77l-157 -740l-11 -4.5t-25 -14t-25 -23.5t-11 -33q0 -37 51 -37q14 0 26 2.5l12 2.5l-10 -48l-12.5 -3t-32.5 -3q-44 0 -68.5 20t-24.5 53t20.5 54.5t42.5 33.5h-9z" />
    <glyph glyph-name="iogonek" unicode="&#x12f;" horiz-adv-x="243" 
d="M202 627q-23 0 -37.5 16t-14.5 37q0 22 14.5 37.5t37.5 15.5t38.5 -15.5t15.5 -37.5t-15.5 -37.5t-38.5 -15.5zM20 0l113 530h76l-113 -530l-11 -4.5t-25 -14t-25 -23.5t-11 -33q0 -37 51 -37q14 0 26 2.5l12 2.5l-10 -48l-12.5 -3t-32.5 -3q-44 0 -68.5 20t-24.5 53
t20.5 54.5t42.5 33.5h-8z" />
    <glyph glyph-name="Idotaccent" unicode="&#x130;" horiz-adv-x="248" 
d="M253 810q-23 0 -38 16t-15 38q0 21 15 37t38 16t38 -16t15 -37q0 -22 -15 -38t-38 -16zM31 0l157 740h77l-157 -740h-77z" />
    <glyph glyph-name="dotlessi" unicode="&#x131;" horiz-adv-x="243" 
d="M20 0l113 530h76l-113 -530h-76z" />
    <glyph glyph-name="Lacute" unicode="&#x139;" horiz-adv-x="595" 
d="M280 823h-62l86 171h76zM31 0l157 740h77l-143 -671h369l-14 -69h-446z" />
    <glyph glyph-name="lacute" unicode="&#x13a;" horiz-adv-x="248" 
d="M319 1004h-62l87 171h75zM31 0l163 760h75l-163 -760h-75z" />
    <glyph glyph-name="Lcaron" unicode="&#x13d;" horiz-adv-x="595" 
d="M206 816l-84 162h65l57 -113l104 113h76l-152 -162h-66zM31 0l157 740h77l-143 -671h369l-14 -69h-446z" />
    <glyph glyph-name="lcaron" unicode="&#x13e;" horiz-adv-x="272" 
d="M31 0l163 760h75l-163 -760h-75zM293 574l46 186h74l-68 -186h-52z" />
    <glyph glyph-name="Lslash" unicode="&#x141;" horiz-adv-x="642" 
d="M78 0l71 334l-124 -39l14 70l125 40l71 335h77l-66 -309l153 49l-14 -70l-153 -49l-62 -292h369l-15 -69h-446z" />
    <glyph glyph-name="lslash" unicode="&#x142;" horiz-adv-x="407" 
d="M119 0l73 342l-148 -47l14 70l149 47l75 348h75l-69 -322l130 42l-14 -70l-131 -42l-79 -368h-75z" />
    <glyph glyph-name="Nacute" unicode="&#x143;" horiz-adv-x="731" 
d="M522 823h-62l87 171h75zM31 0l157 740h70l285 -604l128 604h77l-157 -740h-71l-284 603l-128 -603h-77z" />
    <glyph glyph-name="nacute" unicode="&#x144;" horiz-adv-x="575" 
d="M402 613h-62l87 171h75zM26 0l113 530h75l-19 -88h5q3 6 14.5 21.5t32 33t51 30.5t70.5 13q58 0 95.5 -29t51.5 -77t2 -105l-70 -329h-76l71 334q12 57 -11.5 98.5t-86.5 41.5q-49 0 -86 -25.5t-60.5 -68.5t-34.5 -94l-62 -286h-75z" />
    <glyph glyph-name="Ncaron" unicode="&#x147;" horiz-adv-x="731" 
d="M448 816l-83 162h65l57 -113l104 113h75l-151 -162h-67zM31 0l157 740h70l285 -604l128 604h77l-157 -740h-71l-284 603l-128 -603h-77z" />
    <glyph glyph-name="ncaron" unicode="&#x148;" horiz-adv-x="575" 
d="M328 606l-83 162h65l57 -113l104 113h75l-151 -162h-67zM26 0l113 530h75l-19 -88h5q3 6 14.5 21.5t32 33t51 30.5t70.5 13q58 0 95.5 -29t51.5 -77t2 -105l-70 -329h-76l71 334q12 57 -11.5 98.5t-86.5 41.5q-49 0 -86 -25.5t-60.5 -68.5t-34.5 -94l-62 -286h-75z" />
    <glyph glyph-name="Omacron" unicode="&#x14c;" horiz-adv-x="785" 
d="M342 848l13 58h296l-13 -58h-296zM361 -10q-77 0 -133.5 26t-93.5 71t-55 103t-18 121q0 78 26.5 155.5t77 142t123.5 103t167 38.5q77 0 133.5 -26t93 -71.5t54.5 -103t18 -120.5q0 -78 -26 -155.5t-76.5 -142t-123.5 -103t-167 -38.5zM363 61q75 0 133 32.5t98 86.5
t61 118.5t21 128.5q0 67 -23.5 124.5t-73 92.5t-126.5 35q-74 0 -132.5 -32.5t-98.5 -86.5t-61 -118.5t-21 -128.5q0 -67 24 -124.5t73.5 -92.5t125.5 -35z" />
    <glyph glyph-name="omacron" unicode="&#x14d;" horiz-adv-x="589" 
d="M211 638l13 58h296l-13 -58h-296zM254 -10q-73 0 -120.5 32.5t-70.5 85t-23 112.5q0 56 19.5 112.5t56.5 103.5t90.5 75.5t121.5 28.5q74 0 121 -32.5t70 -84.5t23 -113q0 -56 -19 -112.5t-56 -103.5t-90.5 -75.5t-122.5 -28.5zM258 57q50 0 89 22.5t66 59t41.5 81
t14.5 88.5t-15.5 81.5t-47.5 60.5t-82 23q-49 0 -88 -22t-66.5 -59t-41.5 -81.5t-14 -88.5t15.5 -81.5t47.5 -60.5t81 -23z" />
    <glyph glyph-name="Ohungarumlaut" unicode="&#x150;" horiz-adv-x="785" 
d="M439 823h-67l100 171h81zM588 823h-69l107 171h83zM361 -10q-77 0 -133.5 26t-93.5 71t-55 103t-18 121q0 78 26.5 155.5t77 142t123.5 103t167 38.5q77 0 133.5 -26t93 -71.5t54.5 -103t18 -120.5q0 -78 -26 -155.5t-76.5 -142t-123.5 -103t-167 -38.5zM363 61
q75 0 133 32.5t98 86.5t61 118.5t21 128.5q0 67 -23.5 124.5t-73 92.5t-126.5 35q-74 0 -132.5 -32.5t-98.5 -86.5t-61 -118.5t-21 -128.5q0 -67 24 -124.5t73.5 -92.5t125.5 -35z" />
    <glyph glyph-name="ohungarumlaut" unicode="&#x151;" horiz-adv-x="589" 
d="M309 613h-68l100 171h82zM457 613h-69l107 171h83zM254 -10q-73 0 -120.5 32.5t-70.5 85t-23 112.5q0 56 19.5 112.5t56.5 103.5t90.5 75.5t121.5 28.5q74 0 121 -32.5t70 -84.5t23 -113q0 -56 -19 -112.5t-56 -103.5t-90.5 -75.5t-122.5 -28.5zM258 57q50 0 89 22.5
t66 59t41.5 81t14.5 88.5t-15.5 81.5t-47.5 60.5t-82 23q-49 0 -88 -22t-66.5 -59t-41.5 -81.5t-14 -88.5t15.5 -81.5t47.5 -60.5t81 -23z" />
    <glyph glyph-name="OE" unicode="&#x152;" horiz-adv-x="943" 
d="M977 740l-14 -69h-368l-55 -259h321l-15 -69h-321l-58 -274h373l-14 -69h-460q-79 0 -136.5 25.5t-95.5 68.5t-56.5 98.5t-18.5 116.5q0 76 28 152.5t82 139.5t132 101t180 38h496zM137 313q0 -65 25.5 -120.5t78.5 -89.5t135 -34h14l128 602h-40q-81 0 -144.5 -32
t-107 -84.5t-66.5 -115.5t-23 -126z" />
    <glyph glyph-name="oe" unicode="&#x153;" horiz-adv-x="1006" 
d="M265 -10q-73 0 -120.5 32.5t-70.5 85t-23 112.5q0 56 19.5 112.5t56.5 103.5t90.5 75.5t121.5 28.5q77 0 124.5 -37t68.5 -98q36 61 94 98t135 37q65 0 107 -25.5t64.5 -67t27 -91t-7.5 -98.5l-3 -14h-401q-2 -52 12.5 -95t48 -68.5t87.5 -25.5q45 0 75.5 15.5t48.5 36
t26 35.5l8 15h72l-7 -16.5t-23.5 -41.5t-43.5 -50t-67 -42t-95 -17q-78 0 -126 37.5t-69 97.5q-36 -60 -94.5 -97.5t-135.5 -37.5zM560 304h327q7 43 -3.5 82t-42 64t-85.5 25q-50 0 -89 -23.5t-66.5 -62.5t-40.5 -85zM269 57q51 0 90.5 23.5t66 61.5t40.5 82t14 86
q0 43 -15.5 80t-47.5 60t-82 23q-49 0 -88 -22t-66.5 -59t-41.5 -81.5t-14 -88.5t15.5 -81.5t47.5 -60.5t81 -23z" />
    <glyph glyph-name="Racute" unicode="&#x154;" horiz-adv-x="625" 
d="M440 823h-62l86 171h76zM31 0l157 740h203q75 0 123 -27t71.5 -70.5t23.5 -92.5q0 -50 -24.5 -99t-71.5 -83.5t-116 -43.5l122 -324h-81l-119 322h-143l-68 -322h-77zM391 671h-141l-60 -282h167q56 0 95 24t59 60.5t20 74.5q0 48 -34 85.5t-106 37.5z" />
    <glyph glyph-name="racute" unicode="&#x155;" horiz-adv-x="391" 
d="M317 613h-62l87 171h75zM31 0l113 530h75l-14 -69h4q22 31 60 55t96 24q17 0 31 -2l14 -2l-15 -72l-12.5 2t-28.5 2q-66 0 -117.5 -48t-75.5 -163l-55 -257h-75z" />
    <glyph glyph-name="Rcaron" unicode="&#x158;" horiz-adv-x="625" 
d="M366 816l-84 162h65l57 -113l104 113h76l-152 -162h-66zM31 0l157 740h203q75 0 123 -27t71.5 -70.5t23.5 -92.5q0 -50 -24.5 -99t-71.5 -83.5t-116 -43.5l122 -324h-81l-119 322h-143l-68 -322h-77zM391 671h-141l-60 -282h167q56 0 95 24t59 60.5t20 74.5
q0 48 -34 85.5t-106 37.5z" />
    <glyph glyph-name="rcaron" unicode="&#x159;" horiz-adv-x="391" 
d="M243 606l-83 162h65l57 -113l104 113h75l-151 -162h-67zM31 0l113 530h75l-14 -69h4q22 31 60 55t96 24q17 0 31 -2l14 -2l-15 -72l-12.5 2t-28.5 2q-66 0 -117.5 -48t-75.5 -163l-55 -257h-75z" />
    <glyph glyph-name="Sacute" unicode="&#x15a;" horiz-adv-x="624" 
d="M465 823h-62l87 171h75zM302 -10q-69 0 -116.5 16.5t-76.5 42.5t-45 55.5t-22 55.5t-7 42.5l-1 16.5h78l1 -16.5t9 -40t28 -47.5t56.5 -40.5t95.5 -16.5q47 0 88 17t66.5 48.5t25.5 75.5q0 49 -33 77.5t-80 50.5l-83 37q-38 17 -70.5 40.5t-52 59t-19.5 85.5
q0 54 30 99.5t84.5 73.5t129.5 28q74 0 120 -21.5t71 -52.5t35 -62.5t11.5 -53l1.5 -21.5h-75l-1.5 14.5t-9.5 36t-25.5 43t-48 36t-79.5 14.5q-75 0 -121 -36.5t-46 -93.5q0 -45 28 -73t71 -48l77 -35q40 -18 77.5 -42t61 -60.5t23.5 -94.5q0 -60 -34 -107.5t-92.5 -75
t-130.5 -27.5z" />
    <glyph glyph-name="sacute" unicode="&#x15b;" horiz-adv-x="498" 
d="M342 613h-62l86 171h76zM219 -10q-59 0 -96.5 17t-58 42t-29 50t-10.5 42l-2 17h76l2 -15.5t13 -36t36 -36t72 -15.5q54 0 87.5 24.5t33.5 63.5q0 33 -23.5 50.5t-52.5 30.5l-58 25q-50 22 -80 53t-30 83q0 41 21 76.5t62 57t101 21.5q53 0 87 -15.5t53.5 -38.5t28 -45.5
t10.5 -38l2 -15.5h-73l-3 13.5t-13.5 31t-33.5 31t-63 13.5q-48 0 -76.5 -24t-28.5 -59q0 -29 18.5 -47t46.5 -30l60 -27q26 -11 53.5 -28t47 -44t19.5 -69q0 -45 -24 -80.5t-68.5 -56.5t-106.5 -21z" />
    <glyph glyph-name="Scedilla" unicode="&#x15e;" horiz-adv-x="624" 
d="M302 -10h-7l-44 -53h10q49 0 73.5 -27t24.5 -62q0 -25 -14 -49t-43.5 -39.5t-76.5 -15.5q-31 0 -54 5.5l-23 5.5l9 47l23.5 -4.5t45.5 -4.5q41 0 57.5 17t16.5 36t-14.5 33.5t-43.5 14.5q-23 0 -37.5 -8t-13.5 -8l-24 30l72 87q-64 9 -103.5 34.5t-60.5 57.5t-29.5 62
t-10 50l-1.5 20h78l1 -16.5t9 -40t28 -47.5t56.5 -40.5t95.5 -16.5q47 0 88 17t66.5 48.5t25.5 75.5q0 49 -33 77.5t-80 50.5l-83 37q-38 17 -70.5 40.5t-52 59t-19.5 85.5q0 54 30 99.5t84.5 73.5t129.5 28q74 0 120 -21.5t71 -52.5t35 -62.5t11.5 -53l1.5 -21.5h-75
l-1.5 14.5t-9.5 36t-25.5 43t-48 36t-79.5 14.5q-75 0 -121 -36.5t-46 -93.5q0 -45 28 -73t71 -48l77 -35q40 -18 77.5 -42t61 -60.5t23.5 -94.5q0 -60 -34 -107.5t-92.5 -75t-130.5 -27.5z" />
    <glyph glyph-name="scedilla" unicode="&#x15f;" horiz-adv-x="498" 
d="M160 -256q-32 0 -55 5.5l-23 5.5l9 47l23.5 -4.5t45.5 -4.5q41 0 57.5 17t16.5 36t-14.5 33.5t-43.5 14.5q-22 0 -36.5 -8l-14.5 -8l-23 30l70 86q-45 7 -73.5 25.5t-44 42t-22 45.5t-8 36.5l-1.5 14.5h76l2 -15.5t13 -36t36 -36t72 -15.5q54 0 87.5 24.5t33.5 63.5
q0 33 -23.5 50.5t-52.5 30.5l-58 25q-50 22 -80 53t-30 83q0 41 21 76.5t62 57t101 21.5q53 0 87 -15.5t53.5 -38.5t28 -45.5t10.5 -38l2 -15.5h-73l-3 13.5t-13.5 31t-33.5 31t-63 13.5q-48 0 -76.5 -24t-28.5 -59q0 -29 18.5 -47t46.5 -30l60 -27q26 -11 53.5 -28t47 -44
t19.5 -69q0 -65 -50.5 -110t-137.5 -48l-45 -53h11q48 0 73 -27t25 -62q0 -25 -14 -49t-43.5 -39.5t-76.5 -15.5z" />
    <glyph glyph-name="Scaron" unicode="&#x160;" horiz-adv-x="624" 
d="M391 816l-83 162h65l57 -113l104 113h75l-151 -162h-67zM302 -10q-69 0 -116.5 16.5t-76.5 42.5t-45 55.5t-22 55.5t-7 42.5l-1 16.5h78l1 -16.5t9 -40t28 -47.5t56.5 -40.5t95.5 -16.5q47 0 88 17t66.5 48.5t25.5 75.5q0 49 -33 77.5t-80 50.5l-83 37q-38 17 -70.5 40.5
t-52 59t-19.5 85.5q0 54 30 99.5t84.5 73.5t129.5 28q74 0 120 -21.5t71 -52.5t35 -62.5t11.5 -53l1.5 -21.5h-75l-1.5 14.5t-9.5 36t-25.5 43t-48 36t-79.5 14.5q-75 0 -121 -36.5t-46 -93.5q0 -45 28 -73t71 -48l77 -35q40 -18 77.5 -42t61 -60.5t23.5 -94.5
q0 -60 -34 -107.5t-92.5 -75t-130.5 -27.5z" />
    <glyph glyph-name="scaron" unicode="&#x161;" horiz-adv-x="498" 
d="M490 740l-148 -144h-67l-87 144h65l60 -100l101 100h76zM219 -10q-59 0 -96.5 17t-58 42t-29 50t-10.5 42l-2 17h76l2 -15.5t13 -36t36 -36t72 -15.5q54 0 87.5 24.5t33.5 63.5q0 33 -23.5 50.5t-52.5 30.5l-58 25q-50 22 -80 53t-30 83q0 41 21 76.5t62 57t101 21.5
q53 0 87 -15.5t53.5 -38.5t28 -45.5t10.5 -38l2 -15.5h-73l-3 13.5t-13.5 31t-33.5 31t-63 13.5q-48 0 -76.5 -24t-28.5 -59q0 -29 18.5 -47t46.5 -30l60 -27q26 -11 53.5 -28t47 -44t19.5 -69q0 -45 -24 -80.5t-68.5 -56.5t-106.5 -21z" />
    <glyph glyph-name="uni0162" unicode="&#x162;" horiz-adv-x="627" 
d="M222 0l142 671h-237l15 69h556l-14 -69h-243l-142 -671l-52 -63h10q49 0 73.5 -27t24.5 -62q0 -25 -14 -49t-43.5 -39.5t-76.5 -15.5q-31 0 -54 5.5l-23 5.5l9 47l23.5 -4.5t45.5 -4.5q41 0 57.5 17t16.5 36t-14.5 33.5t-43.5 14.5q-23 0 -37.5 -8t-13.5 -8l-24 30l76 92
h-17z" />
    <glyph glyph-name="uni0163" unicode="&#x163;" horiz-adv-x="396" 
d="M160 -258q-31 0 -54 5.5l-23 5.5l9 47l23.5 -4.5t45.5 -4.5q41 0 57.5 17t16.5 36t-14.5 33.5t-43.5 14.5q-23 0 -37.5 -8t-13.5 -8l-24 30l75 90q-48 14 -66 55t-5 100l67 317h-94l13 62h94l29 134h75l-28 -134h127l-14 -62h-126l-69 -324q-10 -45 6 -67t60 -22
q23 0 44.5 3.5l21.5 3.5l-14 -64l-20.5 -4t-45.5 -4l-46 -55h10q49 0 73.5 -27t24.5 -62q0 -25 -14 -49t-43.5 -39.5t-76.5 -15.5z" />
    <glyph glyph-name="Tcaron" unicode="&#x164;" horiz-adv-x="627" 
d="M392 816l-83 162h65l57 -113l104 113h75l-151 -162h-67zM222 0l142 671h-237l15 69h556l-14 -69h-243l-142 -671h-77z" />
    <glyph glyph-name="tcaron" unicode="&#x165;" horiz-adv-x="345" 
d="M341 616l47 186h74l-68 -186h-53zM229 -10q-77 0 -107 44.5t-15 116.5l68 317h-95l13 62h95l28 134h76l-29 -134h127l-13 -62h-127l-69 -324q-9 -45 6.5 -67t59.5 -22q23 0 45 3.5l22 3.5l-14 -64l-21.5 -4t-49.5 -4z" />
    <glyph glyph-name="Tbar" unicode="&#x166;" horiz-adv-x="640" 
d="M219 0l72 340h-174l15 70h174l55 261h-237l14 69h557l-14 -69h-243l-55 -261h195l-15 -70h-195l-72 -340h-77z" />
    <glyph glyph-name="tbar" unicode="&#x167;" horiz-adv-x="399" 
d="M229 -10q-77 0 -107 44.5t-15 116.5l29 135h-87l15 66h86l25 116h-95l13 62h95l28 134h76l-29 -134h127l-13 -62h-127l-25 -116h99l-14 -66h-99l-30 -142q-9 -45 6.5 -67t59.5 -22q23 0 45 3.5l22 3.5l-14 -64l-21.5 -4t-49.5 -4z" />
    <glyph glyph-name="Utilde" unicode="&#x168;" horiz-adv-x="719" 
d="M552 828q-25 0 -41.5 11t-28.5 26t-23.5 26t-26.5 11q-17 0 -28 -18.5t-16 -50.5h-52q10 55 32.5 89t65.5 34q25 0 42 -11t29 -25.5t23 -25.5t25 -11q32 0 43 68h52q-10 -54 -32 -88.5t-64 -34.5zM315 -10q-86 0 -143 36.5t-79 101.5t-3 153l98 459h77l-100 -467
q-20 -95 20 -152.5t138 -57.5q94 0 155 58t81 148l100 471h77l-100 -471q-18 -84 -61 -146.5t-108.5 -97.5t-151.5 -35z" />
    <glyph glyph-name="utilde" unicode="&#x169;" horiz-adv-x="567" 
d="M436 618q-24 0 -40.5 11t-29 26t-24 26t-25.5 11q-17 0 -28 -18.5t-17 -50.5h-51q10 55 32.5 89t64.5 34q26 0 42.5 -11t28.5 -25.5t23.5 -25.5t25.5 -11q32 0 43 68h52q-11 -54 -33 -88.5t-64 -34.5zM203 -10q-78 0 -117.5 53t-19.5 147l72 340h75l-72 -344
q-14 -62 9.5 -96t78.5 -34q53 0 91.5 28.5t62.5 74.5t35 98l58 273h75l-112 -530h-75l18 86h-6q-10 -14 -31 -37t-56 -41t-86 -18z" />
    <glyph glyph-name="Umacron" unicode="&#x16a;" horiz-adv-x="719" 
d="M333 848l13 58h296l-13 -58h-296zM315 -10q-86 0 -143 36.5t-79 101.5t-3 153l98 459h77l-100 -467q-20 -95 20 -152.5t138 -57.5q94 0 155 58t81 148l100 471h77l-100 -471q-18 -84 -61 -146.5t-108.5 -97.5t-151.5 -35z" />
    <glyph glyph-name="umacron" unicode="&#x16b;" horiz-adv-x="567" 
d="M218 638l13 58h296l-13 -58h-296zM203 -10q-78 0 -117.5 53t-19.5 147l72 340h75l-72 -344q-14 -62 9.5 -96t78.5 -34q53 0 91.5 28.5t62.5 74.5t35 98l58 273h75l-112 -530h-75l18 86h-6q-10 -14 -31 -37t-56 -41t-86 -18z" />
    <glyph glyph-name="Uring" unicode="&#x16e;" horiz-adv-x="719" 
d="M471 816q-32 0 -58.5 15.5t-42.5 42t-16 58.5q0 33 16 59.5t42.5 42t58.5 15.5t58.5 -15.5t42.5 -42t16 -59.5q0 -32 -16 -58.5t-42.5 -42t-58.5 -15.5zM471 871q26 0 43.5 18t17.5 43q0 26 -17.5 44t-43.5 18q-25 0 -43 -18t-18 -44q0 -25 18 -43t43 -18zM315 -10
q-86 0 -143 36.5t-79 101.5t-3 153l98 459h77l-100 -467q-20 -95 20 -152.5t138 -57.5q94 0 155 58t81 148l100 471h77l-100 -471q-18 -84 -61 -146.5t-108.5 -97.5t-151.5 -35z" />
    <glyph glyph-name="uring" unicode="&#x16f;" horiz-adv-x="567" 
d="M356 606q-32 0 -58.5 15.5t-42.5 42t-16 58.5q0 33 16 59.5t42.5 42t58.5 15.5t58.5 -15.5t42 -42t15.5 -59.5q0 -32 -15.5 -58.5t-42 -42t-58.5 -15.5zM356 661q25 0 43 18t18 43q0 26 -18 44t-43 18q-26 0 -44 -18t-18 -44q0 -25 18 -43t44 -18zM203 -10
q-78 0 -117.5 53t-19.5 147l72 340h75l-72 -344q-14 -62 9.5 -96t78.5 -34q53 0 91.5 28.5t62.5 74.5t35 98l58 273h75l-112 -530h-75l18 86h-6q-10 -14 -31 -37t-56 -41t-86 -18z" />
    <glyph glyph-name="Uhungarumlaut" unicode="&#x170;" horiz-adv-x="719" 
d="M431 823h-68l100 171h82zM579 823h-69l107 171h83zM315 -10q-86 0 -143 36.5t-79 101.5t-3 153l98 459h77l-100 -467q-20 -95 20 -152.5t138 -57.5q94 0 155 58t81 148l100 471h77l-100 -471q-18 -84 -61 -146.5t-108.5 -97.5t-151.5 -35z" />
    <glyph glyph-name="uhungarumlaut" unicode="&#x171;" horiz-adv-x="567" 
d="M315 613h-67l100 171h81zM464 613h-69l107 171h83zM203 -10q-78 0 -117.5 53t-19.5 147l72 340h75l-72 -344q-14 -62 9.5 -96t78.5 -34q53 0 91.5 28.5t62.5 74.5t35 98l58 273h75l-112 -530h-75l18 86h-6q-10 -14 -31 -37t-56 -41t-86 -18z" />
    <glyph glyph-name="Uogonek" unicode="&#x172;" horiz-adv-x="719" 
d="M311 -167q-44 0 -69 19.5t-25 53.5q0 32 19.5 53t40.5 33q-74 8 -121.5 46t-65.5 100t0 143l98 459h77l-100 -467q-20 -95 20 -152.5t138 -57.5q94 0 155 58t81 148l100 471h77l-100 -471q-26 -119 -101.5 -194.5t-192.5 -83.5q-9 -4 -24.5 -13.5t-28 -24t-12.5 -34.5
q0 -37 51 -37q14 0 26 2.5l12 2.5l-10 -48l-12.5 -3t-32.5 -3z" />
    <glyph glyph-name="uogonek" unicode="&#x173;" horiz-adv-x="567" 
d="M203 -10q-78 0 -117.5 53t-19.5 147l72 340h75l-72 -344q-14 -62 9.5 -96t78.5 -34q53 0 91.5 28.5t62.5 74.5t35 98l58 273h75l-112 -530h-1l-10.5 -4.5t-25 -14t-25 -23.5t-10.5 -33q0 -37 51 -37q14 0 26 2.5l12 2.5l-10 -48l-12.5 -3t-32.5 -3q-44 0 -69 20t-25 53
t21 54.5t42 33.5h-6l18 86h-6q-10 -14 -31 -37t-56 -41t-86 -18z" />
    <glyph glyph-name="Wcircumflex" unicode="&#x174;" horiz-adv-x="947" 
d="M432 817l152 162h66l84 -162h-66l-56 113l-104 -113h-76zM154 0l-43 740h75l34 -628l305 628h77l40 -627l296 627h83l-356 -740h-87l-39 615l-298 -615h-87z" />
    <glyph glyph-name="wcircumflex" unicode="&#x175;" horiz-adv-x="836" 
d="M338 607l152 162h66l84 -162h-65l-57 113l-104 -113h-76zM141 0l-61 530h75l47 -420l228 420h78l49 -419l225 419h84l-288 -530h-81l-48 419l-227 -419h-81z" />
    <glyph glyph-name="Ycircumflex" unicode="&#x176;" horiz-adv-x="610" 
d="M263 817l151 162h67l83 -162h-65l-57 113l-104 -113h-75zM207 0l57 269l-162 471h78l133 -392l297 392h93l-363 -473l-56 -267h-77z" />
    <glyph glyph-name="ycircumflex" unicode="&#x177;" horiz-adv-x="550" 
d="M182 607l152 162h66l84 -162h-65l-57 113l-104 -113h-76zM-16 -195q-20 0 -33.5 1.5l-13.5 1.5l14 67l13.5 -1.5t28.5 -1.5q53 0 99.5 32.5t84.5 93.5l-93 532h76l74 -439l259 439h87l-328 -543q-57 -94 -124 -138t-144 -44z" />
    <glyph glyph-name="Ydieresis" unicode="&#x178;" horiz-adv-x="610" 
d="M512 827q-23 0 -37.5 16t-14.5 37q0 22 14.5 37.5t37.5 15.5t38.5 -15.5t15.5 -37.5t-15.5 -37.5t-38.5 -15.5zM339 827q-23 0 -37.5 16t-14.5 37q0 22 14.5 37.5t37.5 15.5t38.5 -15.5t15.5 -37.5t-15.5 -37.5t-38.5 -15.5zM207 0l57 269l-162 471h78l133 -392l297 392
h93l-363 -473l-56 -267h-77z" />
    <glyph glyph-name="Zacute" unicode="&#x179;" horiz-adv-x="630" 
d="M460 823h-62l86 171h76zM-1 0l13 61l537 610h-408l15 69h509l-13 -61l-538 -610h409l-15 -69h-509z" />
    <glyph glyph-name="zacute" unicode="&#x17a;" horiz-adv-x="502" 
d="M352 609l-62 1l86 170h76zM-16 0l11 53l405 415h-298l13 62h399l-12 -53l-405 -415h318l-14 -62h-417z" />
    <glyph glyph-name="Zdotaccent" unicode="&#x17b;" horiz-adv-x="630" 
d="M440 837q-23 0 -38 16t-15 37q0 22 15 37.5t38 15.5q22 0 37.5 -15.5t15.5 -37.5t-15.5 -37.5t-37.5 -15.5zM-1 0l13 61l537 610h-408l15 69h509l-13 -61l-538 -610h409l-15 -69h-509z" />
    <glyph glyph-name="zdotaccent" unicode="&#x17c;" horiz-adv-x="502" 
d="M332 623q-23 0 -38 16t-15 38q0 21 15 37t38 16t38 -16t15 -37q0 -22 -15 -38t-38 -16zM-16 0l11 53l405 415h-298l13 62h399l-12 -53l-405 -415h318l-14 -62h-417z" />
    <glyph glyph-name="Zcaron" unicode="&#x17d;" horiz-adv-x="630" 
d="M386 816l-84 162h65l57 -113l104 113h76l-152 -162h-66zM-1 0l13 61l537 610h-408l15 69h509l-13 -61l-538 -610h409l-15 -69h-509z" />
    <glyph glyph-name="zcaron" unicode="&#x17e;" horiz-adv-x="502" 
d="M291 602l-83 162h65l57 -113l104 113h75l-151 -162h-67zM-16 0l11 53l405 415h-298l13 62h399l-12 -53l-405 -415h318l-14 -62h-417z" />
    <glyph glyph-name="Ohorn" unicode="&#x1a0;" horiz-adv-x="785" 
d="M361 -10q-77 0 -133.5 26t-93.5 71t-55 103t-18 121q0 78 26.5 155.5t77 142t123.5 103t167 38.5h2v0h166q27 0 40.5 11t18.5 36l10 50h70l-13 -61q-18 -88 -105 -88h-12q62 -44 92 -116t30 -153q0 -78 -26 -155.5t-76.5 -142t-123.5 -103t-167 -38.5zM363 61
q75 0 133 32.5t98 86.5t61 118.5t21 128.5q0 67 -23.5 124.5t-73 92.5t-126.5 35q-74 0 -132.5 -32.5t-98.5 -86.5t-61 -118.5t-21 -128.5q0 -67 24 -124.5t73.5 -92.5t125.5 -35z" />
    <glyph glyph-name="ohorn" unicode="&#x1a1;" horiz-adv-x="603" 
d="M265 -10q-73 0 -120.5 32.5t-70.5 85t-23 112.5q0 56 19.5 112.5t56.5 103.5t90.5 75.5t121.5 28.5h116q56 0 67 54l8 43h64l-11 -55q-18 -87 -106 -87q39 -32 57.5 -81t18.5 -104q0 -56 -19 -112.5t-56 -103.5t-90.5 -75.5t-122.5 -28.5zM269 57q50 0 89 22.5t66 59
t41.5 81t14.5 88.5t-15.5 81.5t-47.5 60.5t-82 23q-49 0 -88 -22t-66.5 -59t-41.5 -81.5t-14 -88.5t15.5 -81.5t47.5 -60.5t81 -23z" />
    <glyph glyph-name="Uhorn" unicode="&#x1af;" horiz-adv-x="719" 
d="M315 -10q-86 0 -143 36.5t-79 101.5t-3 153l98 459h77l-100 -467q-20 -95 20 -152.5t138 -57.5q94 0 155 58t81 148l100 471h62q27 0 40.5 11t18.5 36l10 50h71l-14 -61q-18 -88 -105 -88h-17l-89 -419q-18 -84 -61 -146.5t-108.5 -97.5t-151.5 -35z" />
    <glyph glyph-name="uhorn" unicode="&#x1b0;" horiz-adv-x="567" 
d="M203 -10q-78 0 -117.5 53t-19.5 147l72 340h75l-72 -344q-14 -62 9.5 -96t78.5 -34q53 0 91.5 28.5t62.5 74.5t35 98l58 273h47q56 0 67 54l8 43h64l-11 -55q-18 -87 -108 -87h-1l-103 -485h-75l18 86h-6q-10 -14 -31 -37t-56 -41t-86 -18z" />
    <glyph glyph-name="Gcaron" unicode="&#x1e6;" horiz-adv-x="756" 
d="M444 816l-84 162h66l56 -113l104 113h76l-152 -162h-66zM363 -10q-77 0 -134 26t-94 71.5t-55 104t-18 123.5q0 77 25 154t75 140.5t124 102t171 38.5q68 0 114.5 -18t76 -47t45 -61.5t22 -61t7.5 -47l1 -18.5h-77l-1.5 18.5t-9.5 46t-28 54.5t-57.5 45.5t-97.5 18.5
q-76 0 -134.5 -32t-98 -84.5t-59.5 -116.5t-20 -127q0 -69 24 -128t75 -95t129 -36q75 0 129 34.5t87 92.5t44 126h-220l14 63h292l-7 -52q-13 -92 -56.5 -168t-115.5 -121.5t-172 -45.5z" />
    <glyph glyph-name="gcaron" unicode="&#x1e7;" horiz-adv-x="613" 
d="M341 606l-84 162h65l57 -113l104 113h76l-152 -162h-66zM209 -210q-66 0 -107 17t-63 42t-31 50t-10.5 42l-1.5 17h75l2.5 -15.5t14 -35.5t40 -35.5t81.5 -15.5q65 0 107 26t65 66t32 83l11 50h-5l-10 -12.5t-31 -28.5t-53.5 -28.5t-77.5 -12.5q-70 0 -115.5 31.5
t-68 82.5t-22.5 111q0 56 19 111.5t55 102t88 74.5t118 28q50 0 83 -16.5t53 -37.5t28.5 -37.5l8.5 -16.5h4l21 98h76l-107 -499q-26 -123 -98.5 -182t-180.5 -59zM265 64q48 0 86 22t64.5 57.5t40 78.5t13.5 86q0 44 -15.5 82t-48 61.5t-83.5 23.5q-49 0 -87 -21.5
t-64.5 -57t-40.5 -78.5t-14 -85q0 -45 16 -83t49 -62t84 -24z" />
    <glyph glyph-name="circumflex" unicode="&#x2c6;" horiz-adv-x="516" 
d="M167 578l152 162h66l84 -162h-66l-56 113l-104 -113h-76z" />
    <glyph glyph-name="caron" unicode="&#x2c7;" horiz-adv-x="346" 
d="M213 599l-84 162h66l56 -113l104 113h76l-152 -162h-66z" />
    <glyph glyph-name="breve" unicode="&#x2d8;" horiz-adv-x="366" 
d="M315 608q-45 0 -71.5 14.5t-40 36t-17 43t-3 36l0.5 14.5h58l-1 -13.5t3.5 -32t20.5 -32.5t50 -14q35 0 57 14t34.5 32.5t17 32l4.5 13.5h58l-3.5 -14.5t-13 -36t-28.5 -43t-49.5 -36t-76.5 -14.5z" />
    <glyph glyph-name="dotaccent" unicode="&#x2d9;" horiz-adv-x="126" 
d="M57 627q-23 0 -38 16t-15 37q0 22 15 37.5t38 15.5t38.5 -15.5t15.5 -37.5t-15.5 -37.5t-38.5 -15.5z" />
    <glyph glyph-name="ring" unicode="&#x2da;" horiz-adv-x="344" 
d="M270 603q-33 0 -59.5 15.5t-42 42t-15.5 58.5t15.5 58.5t42 42.5t59.5 16q32 0 58.5 -16t42 -42.5t15.5 -58.5t-15.5 -58.5t-42 -42t-58.5 -15.5zM270 658q25 0 43 18t18 43t-18 43t-43 18q-26 0 -44 -18t-18 -43t18 -43t44 -18z" />
    <glyph glyph-name="ogonek" unicode="&#x2db;" horiz-adv-x="189" 
d="M92 -185q-44 0 -68.5 20t-24.5 53q0 29 15.5 49.5t36 32.5t36 17.5l15.5 5.5l28 -17l-11 -4.5t-25 -14t-25 -23.5t-11 -32q0 -38 51 -38q14 0 26 2.5l12 2.5l-10 -48l-12.5 -3t-32.5 -3z" />
    <glyph glyph-name="tilde" unicode="&#x2dc;" horiz-adv-x="370" 
d="M362 618q-25 0 -41.5 11t-28.5 26t-23.5 26t-26.5 11q-17 0 -28 -18.5t-16 -50.5h-52q10 55 32.5 89t65.5 34q25 0 42 -11t29 -25.5t23 -25.5t25 -11q32 0 43 68h52q-10 -54 -32 -88.5t-64 -34.5z" />
    <glyph glyph-name="gravecomb" unicode="&#x300;" 
d="M169 613l-75 171h74l61 -171h-60z" />
    <glyph glyph-name="acutecomb" unicode="&#x301;" 
d="M192 613h-62l87 171h75z" />
    <glyph glyph-name="uni0302" unicode="&#x302;" 
d="M94 607l152 162h66l84 -162h-65l-57 113l-104 -113h-76z" />
    <glyph glyph-name="tildecomb" unicode="&#x303;" 
d="M340 618q-25 0 -41.5 11t-28.5 26t-23.5 26t-26.5 11q-17 0 -28 -18.5t-16 -50.5h-52q10 55 32.5 89t65.5 34q25 0 42 -11t29 -25.5t23 -25.5t25 -11q32 0 43 68h52q-10 -54 -32 -88.5t-64 -34.5z" />
    <glyph glyph-name="uni0304" unicode="&#x304;" 
d="M62 638l12 58h296l-12 -58h-296z" />
    <glyph glyph-name="uni0306" unicode="&#x306;" 
d="M317 608q-45 0 -71.5 14.5t-40 36t-17 43t-3 36l0.5 14.5h58l-1 -13.5t3.5 -32t20.5 -32.5t50 -14q35 0 57 14t34.5 32.5t17 32l4.5 13.5h58l-3.5 -14.5t-13 -36t-28.5 -43t-49.5 -36t-76.5 -14.5z" />
    <glyph glyph-name="uni0307" unicode="&#x307;" 
d="M108 627q-23 0 -38 16t-15 37q0 22 15 37.5t38 15.5t38 -15.5t15 -37.5t-15 -37.5t-38 -15.5z" />
    <glyph glyph-name="uni0308" unicode="&#x308;" 
d="M279 617q-23 0 -38 16t-15 37q0 22 15 37.5t38 15.5t38 -15.5t15 -37.5t-15 -37.5t-38 -15.5zM106 617q-23 0 -38 16t-15 37q0 22 15 37.5t38 15.5t38 -15.5t15 -37.5t-15 -37.5t-38 -15.5z" />
    <glyph glyph-name="hookabovecomb" unicode="&#x309;" 
d="M218 599l7 32q4 20 23 29l15 7q28 12 43 26.5t15 32.5q0 13 -10.5 24.5t-32.5 11.5q-25 0 -36 -11.5t-14 -22.5l-3 -11h-48l2.5 13.5t12.5 31t30.5 31t56.5 13.5q49 0 71 -25t22 -55q0 -35 -28 -57.5t-68 -38.5l-7 -31h-51z" />
    <glyph glyph-name="uni030A" unicode="&#x30a;" 
d="M270 603q-33 0 -59.5 15.5t-42 42t-15.5 58.5t15.5 58.5t42 42.5t59.5 16q32 0 58.5 -16t42 -42.5t15.5 -58.5t-15.5 -58.5t-42 -42t-58.5 -15.5zM270 658q25 0 43 18t18 43t-18 43t-43 18q-26 0 -44 -18t-18 -43t18 -43t44 -18z" />
    <glyph glyph-name="uni030B" unicode="&#x30b;" 
d="M326 613h-68l101 171h81zM475 613h-69l107 171h82z" />
    <glyph glyph-name="uni030C" unicode="&#x30c;" 
d="M224 606l-84 162h66l56 -113l104 113h76l-152 -162h-66z" />
    <glyph glyph-name="uni0312" unicode="&#x312;" 
d="M202 799l-51 -83q23 -1 37 -16.5t14 -38.5q0 -24 -16 -39t-40 -15t-41 14.5t-17 40.5q0 24 16 51.5t46 71.5l10 14h42z" />
    <glyph glyph-name="uni031B" unicode="&#x31b;" 
d="M422 627l-11 -55q-18 -87 -108 -87h-139l9 45h110q56 0 67 54l9 43h63z" />
    <glyph glyph-name="dotbelowcomb" unicode="&#x323;" 
d="M44 -215q-24 0 -39.5 16.5t-15.5 39.5t15.5 39t39.5 16t40 -16t16 -39q0 -24 -16 -40t-40 -16z" />
    <glyph glyph-name="uni0326" unicode="&#x326;" 
d="M40 -239l51 82q-23 2 -37 17.5t-14 37.5q0 25 16.5 40t39.5 15q24 0 41 -14.5t17 -41.5q0 -24 -16 -51t-46 -71l-10 -14h-42z" />
    <glyph glyph-name="uni0327" unicode="&#x327;" 
d="M41 -249q-32 0 -55 5.5l-23 5.5l9 48l23.5 -5t45.5 -5q41 0 57.5 17t16.5 37q0 18 -14.5 32.5t-43.5 14.5q-22 0 -36.5 -7.5l-14.5 -7.5l-23 29l80 98h61l-58 -69q5 1 11 1q48 0 73 -27.5t25 -62.5q0 -25 -14 -49t-43.5 -39.5t-76.5 -15.5z" />
    <glyph glyph-name="uni0328" unicode="&#x328;" 
d="M92 -185q-44 0 -68.5 20t-24.5 53q0 29 15.5 49.5t36 32.5t36 17.5l15.5 5.5l28 -17l-11 -4.5t-25 -14t-25 -23.5t-11 -32q0 -38 51 -38q14 0 26 2.5l12 2.5l-10 -48l-12.5 -3t-32.5 -3z" />
    <glyph glyph-name="uni1E20" unicode="&#x1e20;" horiz-adv-x="756" 
d="M341 848l12 58h296l-12 -58h-296zM363 -10q-77 0 -134 26t-94 71.5t-55 104t-18 123.5q0 77 25 154t75 140.5t124 102t171 38.5q68 0 114.5 -18t76 -47t45 -61.5t22 -61t7.5 -47l1 -18.5h-77l-1.5 18.5t-9.5 46t-28 54.5t-57.5 45.5t-97.5 18.5q-76 0 -134.5 -32
t-98 -84.5t-59.5 -116.5t-20 -127q0 -69 24 -128t75 -95t129 -36q75 0 129 34.5t87 92.5t44 126h-220l14 63h292l-7 -52q-13 -92 -56.5 -168t-115.5 -121.5t-172 -45.5z" />
    <glyph glyph-name="uni1E21" unicode="&#x1e21;" horiz-adv-x="613" 
d="M237 638l13 58h296l-13 -58h-296zM209 -210q-66 0 -107 17t-63 42t-31 50t-10.5 42l-1.5 17h75l2.5 -15.5t14 -35.5t40 -35.5t81.5 -15.5q65 0 107 26t65 66t32 83l11 50h-5l-10 -12.5t-31 -28.5t-53.5 -28.5t-77.5 -12.5q-70 0 -115.5 31.5t-68 82.5t-22.5 111
q0 56 19 111.5t55 102t88 74.5t118 28q50 0 83 -16.5t53 -37.5t28.5 -37.5l8.5 -16.5h4l21 98h76l-107 -499q-26 -123 -98.5 -182t-180.5 -59zM265 64q48 0 86 22t64.5 57.5t40 78.5t13.5 86q0 44 -15.5 82t-48 61.5t-83.5 23.5q-49 0 -87 -21.5t-64.5 -57t-40.5 -78.5
t-14 -85q0 -45 16 -83t49 -62t84 -24z" />
    <glyph glyph-name="Wgrave" unicode="&#x1e80;" horiz-adv-x="947" 
d="M545 823l-75 171h74l61 -171h-60zM154 0l-43 740h75l34 -628l305 628h77l40 -627l296 627h83l-356 -740h-87l-39 615l-298 -615h-87z" />
    <glyph glyph-name="wgrave" unicode="&#x1e81;" horiz-adv-x="836" 
d="M451 613l-75 171h74l62 -171h-61zM141 0l-61 530h75l47 -420l228 420h78l49 -419l225 419h84l-288 -530h-81l-48 419l-227 -419h-81z" />
    <glyph glyph-name="Wacute" unicode="&#x1e82;" horiz-adv-x="947" 
d="M618 823h-62l86 171h76zM154 0l-43 740h75l34 -628l305 628h77l40 -627l296 627h83l-356 -740h-87l-39 615l-298 -615h-87z" />
    <glyph glyph-name="wacute" unicode="&#x1e83;" horiz-adv-x="836" 
d="M524 613h-62l87 171h75zM141 0l-61 530h75l47 -420l228 420h78l49 -419l225 419h84l-288 -530h-81l-48 419l-227 -419h-81z" />
    <glyph glyph-name="Wdieresis" unicode="&#x1e84;" horiz-adv-x="947" 
d="M682 827q-23 0 -38 16t-15 37q0 22 15 37.5t38 15.5q22 0 37.5 -15.5t15.5 -37.5t-15.5 -37.5t-37.5 -15.5zM509 827q-23 0 -38 16t-15 37q0 22 15 37.5t38 15.5q22 0 37.5 -15.5t15.5 -37.5t-15.5 -37.5t-37.5 -15.5zM154 0l-43 740h75l34 -628l305 628h77l40 -627
l296 627h83l-356 -740h-87l-39 615l-298 -615h-87z" />
    <glyph glyph-name="wdieresis" unicode="&#x1e85;" horiz-adv-x="836" 
d="M588 617q-23 0 -38 16t-15 37q0 22 15 37.5t38 15.5t38 -15.5t15 -37.5t-15 -37.5t-38 -15.5zM415 617q-23 0 -38 16t-15 37q0 22 15 37.5t38 15.5t38 -15.5t15 -37.5t-15 -37.5t-38 -15.5zM141 0l-61 530h75l47 -420l228 420h78l49 -419l225 419h84l-288 -530h-81
l-48 419l-227 -419h-81z" />
    <glyph glyph-name="uni1E9E" unicode="&#x1e9e;" horiz-adv-x="657" 
d="M285 -10q-25 0 -49 1.5t-40 3.5l-16 2l13 66l14 -1.5t34.5 -3t41.5 -1.5q71 0 124 20.5t82 59t29 89.5q0 56 -43.5 90t-130.5 34h-15l10 51l245 268l-33 7t-80 7q-98 0 -170.5 -56t-98.5 -174l-97 -456h-75l99 466q18 87 62.5 151.5t116 100t168.5 35.5q58 0 104 -9.5
t73 -19l27 -9.5l-8 -42l-247 -270q55 -5 93 -30t57.5 -63t19.5 -81q0 -69 -37 -122.5t-106 -83.5t-167 -30z" />
    <glyph glyph-name="uni1EA0" unicode="&#x1ea0;" horiz-adv-x="688" 
d="M-16 0l421 740h91l106 -740h-76l-26 191h-322l-108 -191h-86zM218 261h272l-54 387zM255 -215q-25 0 -40.5 16.5t-15.5 39.5t15.5 39t40.5 16q23 0 39.5 -16t16.5 -39q0 -24 -16.5 -40t-39.5 -16z" />
    <glyph glyph-name="uni1EA1" unicode="&#x1ea1;" horiz-adv-x="614" 
d="M332 540q45 0 76.5 -13.5t52 -32.5t31 -38t15.5 -30h5l22 104h76l-114 -530h-75l18 83h-5l-10.5 -14t-32.5 -32.5t-55 -32.5t-79 -14q-68 0 -113 32.5t-67.5 85.5t-22.5 114q0 56 18.5 112.5t54 103t87 74.5t118.5 28zM335 475q-49 0 -87.5 -23t-65.5 -60t-41 -82
t-14 -89t15 -81.5t46.5 -61t80.5 -23.5t87.5 23t65.5 60.5t41 82.5t14 89t-15 81.5t-46 60.5t-81 23zM218 -215q-25 0 -40.5 16.5t-15.5 39.5t15.5 39t40.5 16q23 0 39.5 -16t16.5 -39q0 -24 -16.5 -40t-39.5 -16z" />
    <glyph glyph-name="uni1EA2" unicode="&#x1ea2;" horiz-adv-x="688" 
d="M435 809l7 32q4 20 23 29l15 7q28 12 43 26.5t15 32.5q0 13 -10.5 24.5t-32.5 11.5q-25 0 -36 -11.5t-13.5 -22.5l-2.5 -11h-49l3 13.5t12.5 31t30 31t56.5 13.5q49 0 71 -25t22 -55q0 -35 -28 -57.5t-68 -38.5l-7 -31h-51zM-16 0l421 740h91l106 -740h-76l-26 191h-322
l-108 -191h-86zM218 261h272l-54 387z" />
    <glyph glyph-name="uni1EA3" unicode="&#x1ea3;" horiz-adv-x="614" 
d="M347 599l7 32q4 20 23 29l15 7q28 12 43 26.5t15 32.5q0 13 -10.5 24.5t-32.5 11.5q-25 0 -36 -11.5t-13.5 -22.5l-2.5 -11h-49l3 13.5t12.5 31t30 31t56.5 13.5q49 0 71 -25t22 -55q0 -35 -28 -57.5t-68 -38.5l-7 -31h-51zM332 540q45 0 76.5 -13.5t52 -32.5t31 -38
t15.5 -30h5l22 104h76l-114 -530h-75l18 83h-5l-10.5 -14t-32.5 -32.5t-55 -32.5t-79 -14q-68 0 -113 32.5t-67.5 85.5t-22.5 114q0 56 18.5 112.5t54 103t87 74.5t118.5 28zM335 475q-49 0 -87.5 -23t-65.5 -60t-41 -82t-14 -89t15 -81.5t46.5 -61t80.5 -23.5t87.5 23
t65.5 60.5t41 82.5t14 89t-15 81.5t-46 60.5t-81 23z" />
    <glyph glyph-name="uni1EA4" unicode="&#x1ea4;" horiz-adv-x="688" 
d="M675 942h-62l86 171h76zM317 817l148 144h67l87 -144h-65l-60 100l-101 -100h-76zM-16 0l421 740h91l106 -740h-76l-26 191h-322l-108 -191h-86zM218 261h272l-54 387z" />
    <glyph glyph-name="uni1EA5" unicode="&#x1ea5;" horiz-adv-x="614" 
d="M587 732h-62l86 171h76zM229 607l148 144h67l87 -144h-65l-60 100l-101 -100h-76zM332 540q45 0 76.5 -13.5t52 -32.5t31 -38t15.5 -30h5l22 104h76l-114 -530h-75l18 83h-5l-10.5 -14t-32.5 -32.5t-55 -32.5t-79 -14q-68 0 -113 32.5t-67.5 85.5t-22.5 114
q0 56 18.5 112.5t54 103t87 74.5t118.5 28zM335 475q-49 0 -87.5 -23t-65.5 -60t-41 -82t-14 -89t15 -81.5t46.5 -61t80.5 -23.5t87.5 23t65.5 60.5t41 82.5t14 89t-15 81.5t-46 60.5t-81 23z" />
    <glyph glyph-name="uni1EA6" unicode="&#x1ea6;" horiz-adv-x="688" 
d="M617 942l-75 171h74l61 -171h-60zM317 817l148 144h67l87 -144h-65l-60 100l-101 -100h-76zM-16 0l421 740h91l106 -740h-76l-26 191h-322l-108 -191h-86zM218 261h272l-54 387z" />
    <glyph glyph-name="uni1EA7" unicode="&#x1ea7;" horiz-adv-x="614" 
d="M529 732l-75 171h74l61 -171h-60zM229 607l148 144h67l87 -144h-65l-60 100l-101 -100h-76zM332 540q45 0 76.5 -13.5t52 -32.5t31 -38t15.5 -30h5l22 104h76l-114 -530h-75l18 83h-5l-10.5 -14t-32.5 -32.5t-55 -32.5t-79 -14q-68 0 -113 32.5t-67.5 85.5t-22.5 114
q0 56 18.5 112.5t54 103t87 74.5t118.5 28zM335 475q-49 0 -87.5 -23t-65.5 -60t-41 -82t-14 -89t15 -81.5t46.5 -61t80.5 -23.5t87.5 23t65.5 60.5t41 82.5t14 89t-15 81.5t-46 60.5t-81 23z" />
    <glyph glyph-name="uni1EA8" unicode="&#x1ea8;" horiz-adv-x="688" 
d="M600 928l7 32q4 20 23 29l15 7q28 12 43 26.5t15 32.5q0 13 -10.5 24.5t-32.5 11.5q-25 0 -36 -11.5t-14 -22.5l-3 -11h-48l2.5 13.5t12.5 31t30.5 31t56.5 13.5q48 0 70.5 -25.5t22.5 -54.5q0 -35 -28 -57.5t-68 -38.5l-7 -31h-51zM311 817l148 144h66l87 -144h-65
l-60 100l-100 -100h-76zM-16 0l421 740h91l106 -740h-76l-26 191h-322l-108 -191h-86zM218 261h272l-54 387z" />
    <glyph glyph-name="uni1EA9" unicode="&#x1ea9;" horiz-adv-x="614" 
d="M512 718l7 32q4 20 23 29l15 7q28 12 43 26.5t15 32.5q0 13 -10.5 24.5t-32.5 11.5q-25 0 -36 -11.5t-14 -22.5l-3 -11h-48l2.5 13.5t12.5 31t30.5 31t56.5 13.5q48 0 70.5 -25t22.5 -55q0 -35 -28 -57.5t-68 -38.5l-7 -31h-51zM223 607l148 144h66l87 -144h-65l-60 100
l-100 -100h-76zM332 540q45 0 76.5 -13.5t52 -32.5t31 -38t15.5 -30h5l22 104h76l-114 -530h-75l18 83h-5l-10.5 -14t-32.5 -32.5t-55 -32.5t-79 -14q-68 0 -113 32.5t-67.5 85.5t-22.5 114q0 56 18.5 112.5t54 103t87 74.5t118.5 28zM335 475q-49 0 -87.5 -23t-65.5 -60
t-41 -82t-14 -89t15 -81.5t46.5 -61t80.5 -23.5t87.5 23t65.5 60.5t41 82.5t14 89t-15 81.5t-46 60.5t-81 23z" />
    <glyph glyph-name="uni1EAA" unicode="&#x1eaa;" horiz-adv-x="688" 
d="M570 999q-25 0 -41.5 11.5t-28.5 26t-23.5 26t-26.5 11.5q-17 0 -28 -18.5t-16 -50.5h-52q11 54 33 88t65 34q26 0 42.5 -11t28.5 -25.5t23 -25.5t26 -11q31 0 43 68h51q-10 -53 -32 -88t-64 -35zM311 817l148 144h66l88 -144h-66l-60 100l-100 -100h-76zM-16 0l421 740
h91l106 -740h-76l-26 191h-322l-108 -191h-86zM218 261h272l-54 387z" />
    <glyph glyph-name="uni1EAB" unicode="&#x1eab;" horiz-adv-x="614" 
d="M482 789q-25 0 -41.5 11.5t-28.5 26t-23.5 26t-26.5 11.5q-17 0 -28 -18.5t-16 -50.5h-52q11 54 33 88t65 34q26 0 42.5 -11t28.5 -25.5t23 -25.5t26 -11q31 0 43 68h51q-10 -53 -32 -88t-64 -35zM223 607l148 144h66l88 -144h-66l-60 100l-100 -100h-76zM332 540
q45 0 76.5 -13.5t52 -32.5t31 -38t15.5 -30h5l22 104h76l-114 -530h-75l18 83h-5l-10.5 -14t-32.5 -32.5t-55 -32.5t-79 -14q-68 0 -113 32.5t-67.5 85.5t-22.5 114q0 56 18.5 112.5t54 103t87 74.5t118.5 28zM335 475q-49 0 -87.5 -23t-65.5 -60t-41 -82t-14 -89t15 -81.5
t46.5 -61t80.5 -23.5t87.5 23t65.5 60.5t41 82.5t14 89t-15 81.5t-46 60.5t-81 23z" />
    <glyph glyph-name="uni1EAC" unicode="&#x1eac;" horiz-adv-x="688" 
d="M311 817l148 144h66l87 -144h-65l-60 100l-100 -100h-76zM-16 0l421 740h91l106 -740h-76l-26 191h-322l-108 -191h-86zM218 261h272l-54 387zM255 -215q-25 0 -40.5 16.5t-15.5 39.5t15.5 39t40.5 16q23 0 39.5 -16t16.5 -39q0 -24 -16.5 -40t-39.5 -16z" />
    <glyph glyph-name="uni1EAD" unicode="&#x1ead;" horiz-adv-x="614" 
d="M229 607l152 162h66l84 -162h-65l-57 113l-104 -113h-76zM332 540q45 0 76.5 -13.5t52 -32.5t31 -38t15.5 -30h5l22 104h76l-114 -530h-75l18 83h-5l-10.5 -14t-32.5 -32.5t-55 -32.5t-79 -14q-68 0 -113 32.5t-67.5 85.5t-22.5 114q0 56 18.5 112.5t54 103t87 74.5
t118.5 28zM335 475q-49 0 -87.5 -23t-65.5 -60t-41 -82t-14 -89t15 -81.5t46.5 -61t80.5 -23.5t87.5 23t65.5 60.5t41 82.5t14 89t-15 81.5t-46 60.5t-81 23zM218 -215q-25 0 -40.5 16.5t-15.5 39.5t15.5 39t40.5 16q23 0 39.5 -16t16.5 -39q0 -24 -16.5 -40t-39.5 -16z" />
    <glyph glyph-name="uni1EAE" unicode="&#x1eae;" horiz-adv-x="688" 
d="M536 975l-62 1l86 171h76zM478 818q-43 0 -69.5 13t-40 32.5t-18.5 39t-5.5 33l-0.5 13.5h58v-12t5.5 -28t22 -28t49.5 -12t54.5 12t33.5 28t17 28l5 12h58l-4 -13.5t-14.5 -33t-29.5 -39t-48.5 -32.5t-72.5 -13zM-16 0l421 740h91l106 -740h-76l-26 191h-322l-108 -191
h-86zM218 261h272l-54 387z" />
    <glyph glyph-name="uni1EAF" unicode="&#x1eaf;" horiz-adv-x="614" 
d="M448 765l-62 1l86 171h76zM390 608q-43 0 -69.5 13t-40 32.5t-18.5 39t-5.5 33l-0.5 13.5h58v-12t5.5 -28t22 -28t49.5 -12t54.5 12t33.5 28t17 28l5 12h58l-4 -13.5t-14.5 -33t-29.5 -39t-48.5 -32.5t-72.5 -13zM332 540q45 0 76.5 -13.5t52 -32.5t31 -38t15.5 -30h5
l22 104h76l-114 -530h-75l18 83h-5l-10.5 -14t-32.5 -32.5t-55 -32.5t-79 -14q-68 0 -113 32.5t-67.5 85.5t-22.5 114q0 56 18.5 112.5t54 103t87 74.5t118.5 28zM335 475q-49 0 -87.5 -23t-65.5 -60t-41 -82t-14 -89t15 -81.5t46.5 -61t80.5 -23.5t87.5 23t65.5 60.5
t41 82.5t14 89t-15 81.5t-46 60.5t-81 23z" />
    <glyph glyph-name="uni1EB0" unicode="&#x1eb0;" horiz-adv-x="688" 
d="M463 975l-76 172h74l62 -171zM478 818q-43 0 -69.5 13t-40 32.5t-18.5 39t-5.5 33l-0.5 13.5h58v-12t5.5 -28t22 -28t49.5 -12t54.5 12t33.5 28t17 28l5 12h58l-4 -13.5t-14.5 -33t-29.5 -39t-48.5 -32.5t-72.5 -13zM-16 0l421 740h91l106 -740h-76l-26 191h-322
l-108 -191h-86zM218 261h272l-54 387z" />
    <glyph glyph-name="uni1EB1" unicode="&#x1eb1;" horiz-adv-x="614" 
d="M375 765l-76 172h74l62 -171zM390 608q-43 0 -69.5 13t-40 32.5t-18.5 39t-5.5 33l-0.5 13.5h58v-12t5.5 -28t22 -28t49.5 -12t54.5 12t33.5 28t17 28l5 12h58l-4 -13.5t-14.5 -33t-29.5 -39t-48.5 -32.5t-72.5 -13zM332 540q45 0 76.5 -13.5t52 -32.5t31 -38t15.5 -30h5
l22 104h76l-114 -530h-75l18 83h-5l-10.5 -14t-32.5 -32.5t-55 -32.5t-79 -14q-68 0 -113 32.5t-67.5 85.5t-22.5 114q0 56 18.5 112.5t54 103t87 74.5t118.5 28zM335 475q-49 0 -87.5 -23t-65.5 -60t-41 -82t-14 -89t15 -81.5t46.5 -61t80.5 -23.5t87.5 23t65.5 60.5
t41 82.5t14 89t-15 81.5t-46 60.5t-81 23z" />
    <glyph glyph-name="uni1EB2" unicode="&#x1eb2;" horiz-adv-x="688" 
d="M468 961l7 33q4 20 23 29l14 6q29 13 43.5 27t14.5 33q0 13 -10 24t-33 11q-25 0 -36 -11t-13.5 -22.5l-2.5 -11.5h-48l2.5 13.5t12 31t30.5 31t57 13.5q48 0 70.5 -25t22.5 -54q0 -35 -28 -57.5t-69 -38.5l-7 -32h-50zM478 818q-43 0 -69.5 13t-40 32.5t-18.5 39
t-5.5 33l-0.5 13.5h58v-12t5.5 -28t22 -28t49.5 -12t54.5 12t33.5 28t17 28l5 12h58l-4 -13.5t-14.5 -33t-29.5 -39t-48.5 -32.5t-72.5 -13zM-16 0l421 740h91l106 -740h-76l-26 191h-322l-108 -191h-86zM218 261h272l-54 387z" />
    <glyph glyph-name="uni1EB3" unicode="&#x1eb3;" horiz-adv-x="614" 
d="M380 751l7 33q4 20 23 29l14 6q29 13 43.5 27t14.5 33q0 13 -10 24t-33 11q-25 0 -36 -11t-13.5 -22.5l-2.5 -11.5h-48l2.5 13.5t12 31t30.5 31t57 13.5q48 0 70.5 -25t22.5 -54q0 -35 -28 -57.5t-69 -38.5l-7 -32h-50zM390 608q-43 0 -69.5 13t-40 32.5t-18.5 39
t-5.5 33l-0.5 13.5h58v-12t5.5 -28t22 -28t49.5 -12t54.5 12t33.5 28t17 28l5 12h58l-4 -13.5t-14.5 -33t-29.5 -39t-48.5 -32.5t-72.5 -13zM332 540q45 0 76.5 -13.5t52 -32.5t31 -38t15.5 -30h5l22 104h76l-114 -530h-75l18 83h-5l-10.5 -14t-32.5 -32.5t-55 -32.5
t-79 -14q-68 0 -113 32.5t-67.5 85.5t-22.5 114q0 56 18.5 112.5t54 103t87 74.5t118.5 28zM335 475q-49 0 -87.5 -23t-65.5 -60t-41 -82t-14 -89t15 -81.5t46.5 -61t80.5 -23.5t87.5 23t65.5 60.5t41 82.5t14 89t-15 81.5t-46 60.5t-81 23z" />
    <glyph glyph-name="uni1EB4" unicode="&#x1eb4;" horiz-adv-x="688" 
d="M576 994q-25 0 -41.5 11t-28.5 26t-23.5 26t-26.5 11q-17 0 -28 -18.5t-16 -50.5h-52q10 55 32.5 89t65.5 34q25 0 42 -11t29 -25.5t23 -25.5t25 -11q32 0 43 68h52q-10 -54 -32 -88.5t-64 -34.5zM478 818q-43 0 -69.5 13t-40 32.5t-18.5 39t-5.5 33l-0.5 13.5h58v-12
t5.5 -28t22 -28t49.5 -12t54.5 12t33.5 28t17 28l5 12h58l-4 -13.5t-14.5 -33t-29.5 -39t-48.5 -32.5t-72.5 -13zM-16 0l421 740h91l106 -740h-76l-26 191h-322l-108 -191h-86zM218 261h272l-54 387z" />
    <glyph glyph-name="uni1EB5" unicode="&#x1eb5;" horiz-adv-x="614" 
d="M488 784q-25 0 -41.5 11t-28.5 26t-23.5 26t-26.5 11q-17 0 -28 -18.5t-16 -50.5h-52q10 55 32.5 89t65.5 34q25 0 42 -11t29 -25.5t23 -25.5t25 -11q32 0 43 68h52q-10 -54 -32 -88.5t-64 -34.5zM390 608q-43 0 -69.5 13t-40 32.5t-18.5 39t-5.5 33l-0.5 13.5h58v-12
t5.5 -28t22 -28t49.5 -12t54.5 12t33.5 28t17 28l5 12h58l-4 -13.5t-14.5 -33t-29.5 -39t-48.5 -32.5t-72.5 -13zM332 540q45 0 76.5 -13.5t52 -32.5t31 -38t15.5 -30h5l22 104h76l-114 -530h-75l18 83h-5l-10.5 -14t-32.5 -32.5t-55 -32.5t-79 -14q-68 0 -113 32.5
t-67.5 85.5t-22.5 114q0 56 18.5 112.5t54 103t87 74.5t118.5 28zM335 475q-49 0 -87.5 -23t-65.5 -60t-41 -82t-14 -89t15 -81.5t46.5 -61t80.5 -23.5t87.5 23t65.5 60.5t41 82.5t14 89t-15 81.5t-46 60.5t-81 23z" />
    <glyph glyph-name="uni1EB6" unicode="&#x1eb6;" horiz-adv-x="688" 
d="M479 818q-46 0 -72.5 14.5t-39.5 36t-17 43t-3.5 36l0.5 14.5h58l-1 -13.5t4 -32t21 -32.5t50 -14t56 14t34.5 32.5t17.5 32l5 13.5h58l-3.5 -14.5t-13.5 -36t-29 -43t-49.5 -36t-75.5 -14.5zM-16 0l421 740h91l106 -740h-76l-26 191h-322l-108 -191h-86zM218 261h272
l-54 387zM255 -215q-25 0 -40.5 16.5t-15.5 39.5t15.5 39t40.5 16q23 0 39.5 -16t16.5 -39q0 -24 -16.5 -40t-39.5 -16z" />
    <glyph glyph-name="uni1EB7" unicode="&#x1eb7;" horiz-adv-x="614" 
d="M391 608q-46 0 -72.5 14.5t-39.5 36t-17 43t-3.5 36l0.5 14.5h58l-1 -13.5t4 -32t21 -32.5t50 -14t56 14t34.5 32.5t17.5 32l5 13.5h58l-3.5 -14.5t-13.5 -36t-29 -43t-49.5 -36t-75.5 -14.5zM332 540q45 0 76.5 -13.5t52 -32.5t31 -38t15.5 -30h5l22 104h76l-114 -530
h-75l18 83h-5l-10.5 -14t-32.5 -32.5t-55 -32.5t-79 -14q-68 0 -113 32.5t-67.5 85.5t-22.5 114q0 56 18.5 112.5t54 103t87 74.5t118.5 28zM335 475q-49 0 -87.5 -23t-65.5 -60t-41 -82t-14 -89t15 -81.5t46.5 -61t80.5 -23.5t87.5 23t65.5 60.5t41 82.5t14 89t-15 81.5
t-46 60.5t-81 23zM218 -215q-25 0 -40.5 16.5t-15.5 39.5t15.5 39t40.5 16q23 0 39.5 -16t16.5 -39q0 -24 -16.5 -40t-39.5 -16z" />
    <glyph glyph-name="uni1EB8" unicode="&#x1eb8;" horiz-adv-x="592" 
d="M31 0l157 740h438l-14 -69h-362l-55 -259h314l-14 -69h-314l-59 -274h367l-15 -69h-443zM241 -215q-25 0 -40.5 16.5t-15.5 39.5t15.5 39t40.5 16q23 0 39.5 -16t16.5 -39q0 -24 -16.5 -40t-39.5 -16z" />
    <glyph glyph-name="uni1EB9" unicode="&#x1eb9;" horiz-adv-x="570" 
d="M257 -10q-74 0 -122 32.5t-71 85t-23 113.5q0 57 19 113.5t56 103t90.5 74.5t121.5 28q65 0 107.5 -25.5t64.5 -67t26.5 -91t-6.5 -98.5l-4 -14h-401q-3 -51 11.5 -94t48 -69t87.5 -26q46 0 76.5 15.5t49 36t26 35.5l7.5 15h72l-7 -16.5t-23 -41.5t-43.5 -50t-67.5 -42
t-95 -17zM127 304h328q7 43 -4 82t-42.5 64t-85.5 25q-49 0 -88.5 -23.5t-66.5 -62.5t-41 -85zM212 -215q-24 0 -40 16.5t-16 39.5t16 39t40 16t40 -16t16 -39q0 -24 -16 -40t-40 -16z" />
    <glyph glyph-name="uni1EBA" unicode="&#x1eba;" horiz-adv-x="592" 
d="M381 809l7 32q4 20 23 29l15 7q28 12 43 26.5t15 32.5q0 13 -10.5 24.5t-32.5 11.5q-25 0 -36 -11.5t-13.5 -22.5l-2.5 -11h-49l3 13.5t12.5 31t30 31t56.5 13.5q49 0 71 -25t22 -55q0 -35 -28 -57.5t-68 -38.5l-7 -31h-51zM31 0l157 740h438l-14 -69h-362l-55 -259h314
l-14 -69h-314l-59 -274h367l-15 -69h-443z" />
    <glyph glyph-name="uni1EBB" unicode="&#x1ebb;" horiz-adv-x="570" 
d="M326 598l7 33q4 20 23 28l14 7q29 13 43.5 27t14.5 32q0 14 -10 25t-33 11q-25 0 -36 -11.5t-13.5 -22.5l-2.5 -11h-48l2.5 13.5t12 31t30.5 31t57 13.5q48 0 70.5 -25t22.5 -55q0 -34 -28 -56.5t-69 -39.5l-7 -31h-50zM257 -10q-74 0 -122 32.5t-71 85t-23 113.5
q0 57 19 113.5t56 103t90.5 74.5t121.5 28q65 0 107.5 -25.5t64.5 -67t26.5 -91t-6.5 -98.5l-4 -14h-401q-3 -51 11.5 -94t48 -69t87.5 -26q46 0 76.5 15.5t49 36t26 35.5l7.5 15h72l-7 -16.5t-23 -41.5t-43.5 -50t-67.5 -42t-95 -17zM127 304h328q7 43 -4 82t-42.5 64
t-85.5 25q-49 0 -88.5 -23.5t-66.5 -62.5t-41 -85z" />
    <glyph glyph-name="uni1EBC" unicode="&#x1ebc;" horiz-adv-x="592" 
d="M490 828q-24 0 -40.5 11t-29 26t-24 26t-25.5 11q-17 0 -28 -18.5t-17 -50.5h-51q10 55 32.5 89t64.5 34q26 0 42.5 -11t28.5 -25.5t23.5 -25.5t25.5 -11q32 0 43 68h52q-11 -54 -33 -88.5t-64 -34.5zM31 0l157 740h438l-14 -69h-362l-55 -259h314l-14 -69h-314l-59 -274
h367l-15 -69h-443z" />
    <glyph glyph-name="uni1EBD" unicode="&#x1ebd;" horiz-adv-x="570" 
d="M435 617q-25 0 -41.5 11t-28.5 26t-23.5 26t-26.5 11q-17 0 -28 -18.5t-16 -49.5h-52q10 54 32.5 88t65.5 34q25 0 42 -11t29 -25.5t23 -25.5t25 -11q32 0 43 68h52q-10 -54 -32 -88.5t-64 -34.5zM257 -10q-74 0 -122 32.5t-71 85t-23 113.5q0 57 19 113.5t56 103
t90.5 74.5t121.5 28q65 0 107.5 -25.5t64.5 -67t26.5 -91t-6.5 -98.5l-4 -14h-401q-3 -51 11.5 -94t48 -69t87.5 -26q46 0 76.5 15.5t49 36t26 35.5l7.5 15h72l-7 -16.5t-23 -41.5t-43.5 -50t-67.5 -42t-95 -17zM127 304h328q7 43 -4 82t-42.5 64t-85.5 25
q-49 0 -88.5 -23.5t-66.5 -62.5t-41 -85z" />
    <glyph glyph-name="uni1EBE" unicode="&#x1ebe;" horiz-adv-x="592" 
d="M621 942h-62l86 171h76zM263 817l148 144h67l87 -144h-65l-60 100l-101 -100h-76zM31 0l157 740h438l-14 -69h-362l-55 -259h314l-14 -69h-314l-59 -274h367l-15 -69h-443z" />
    <glyph glyph-name="uni1EBF" unicode="&#x1ebf;" horiz-adv-x="570" 
d="M565 731l-62 1l86 170h76zM208 606l148 144h66l87 -144h-65l-60 100l-100 -100h-76zM257 -10q-74 0 -122 32.5t-71 85t-23 113.5q0 57 19 113.5t56 103t90.5 74.5t121.5 28q65 0 107.5 -25.5t64.5 -67t26.5 -91t-6.5 -98.5l-4 -14h-401q-3 -51 11.5 -94t48 -69t87.5 -26
q46 0 76.5 15.5t49 36t26 35.5l7.5 15h72l-7 -16.5t-23 -41.5t-43.5 -50t-67.5 -42t-95 -17zM127 304h328q7 43 -4 82t-42.5 64t-85.5 25q-49 0 -88.5 -23.5t-66.5 -62.5t-41 -85z" />
    <glyph glyph-name="uni1EC0" unicode="&#x1ec0;" horiz-adv-x="592" 
d="M563 942l-75 171h74l61 -171h-60zM263 817l148 144h67l87 -144h-65l-60 100l-101 -100h-76zM31 0l157 740h438l-14 -69h-362l-55 -259h314l-14 -69h-314l-59 -274h367l-15 -69h-443z" />
    <glyph glyph-name="uni1EC1" unicode="&#x1ec1;" horiz-adv-x="570" 
d="M507 731l-75 171h74l62 -170zM208 606l148 144h66l87 -144h-65l-60 100l-100 -100h-76zM257 -10q-74 0 -122 32.5t-71 85t-23 113.5q0 57 19 113.5t56 103t90.5 74.5t121.5 28q65 0 107.5 -25.5t64.5 -67t26.5 -91t-6.5 -98.5l-4 -14h-401q-3 -51 11.5 -94t48 -69
t87.5 -26q46 0 76.5 15.5t49 36t26 35.5l7.5 15h72l-7 -16.5t-23 -41.5t-43.5 -50t-67.5 -42t-95 -17zM127 304h328q7 43 -4 82t-42.5 64t-85.5 25q-49 0 -88.5 -23.5t-66.5 -62.5t-41 -85z" />
    <glyph glyph-name="uni1EC2" unicode="&#x1ec2;" horiz-adv-x="592" 
d="M546 928l7 32q4 20 23 29l15 7q28 12 43 26.5t15 32.5q0 13 -10.5 24.5t-32.5 11.5q-25 0 -36 -11.5t-14 -22.5l-3 -11h-48l2.5 13.5t12.5 31t30.5 31t56.5 13.5q48 0 70.5 -25.5t22.5 -54.5q0 -35 -28 -57.5t-68 -38.5l-7 -31h-51zM257 817l148 144h66l87 -144h-65
l-60 100l-100 -100h-76zM31 0l157 740h438l-14 -69h-362l-55 -259h314l-14 -69h-314l-59 -274h367l-15 -69h-443z" />
    <glyph glyph-name="uni1EC3" unicode="&#x1ec3;" horiz-adv-x="570" 
d="M490 717l7 33q4 20 23 28l15 7q28 13 43 27t15 32q0 14 -10.5 25t-32.5 11q-25 0 -36 -11.5t-13.5 -22.5l-2.5 -11h-49l3 13.5t12.5 31t30 31t56.5 13.5q49 0 71 -25t22 -55q0 -34 -28 -56.5t-68 -39.5l-7 -31h-51zM201 606l148 144h66l88 -144h-66l-60 100l-100 -100
h-76zM257 -10q-74 0 -122 32.5t-71 85t-23 113.5q0 57 19 113.5t56 103t90.5 74.5t121.5 28q65 0 107.5 -25.5t64.5 -67t26.5 -91t-6.5 -98.5l-4 -14h-401q-3 -51 11.5 -94t48 -69t87.5 -26q46 0 76.5 15.5t49 36t26 35.5l7.5 15h72l-7 -16.5t-23 -41.5t-43.5 -50t-67.5 -42
t-95 -17zM127 304h328q7 43 -4 82t-42.5 64t-85.5 25q-49 0 -88.5 -23.5t-66.5 -62.5t-41 -85z" />
    <glyph glyph-name="uni1EC4" unicode="&#x1ec4;" horiz-adv-x="592" 
d="M516 999q-25 0 -41.5 11.5t-28.5 26t-23.5 26t-26.5 11.5q-17 0 -28 -18.5t-16 -50.5h-52q11 54 33 88t65 34q26 0 42.5 -11t28.5 -25.5t23 -25.5t26 -11q31 0 43 68h51q-10 -53 -32 -88t-64 -35zM257 817l148 144h66l88 -144h-66l-60 100l-100 -100h-76zM31 0l157 740
h438l-14 -69h-362l-55 -259h314l-14 -69h-314l-59 -274h367l-15 -69h-443z" />
    <glyph glyph-name="uni1EC5" unicode="&#x1ec5;" horiz-adv-x="570" 
d="M460 789q-24 0 -40.5 11t-29 26t-24 26t-25.5 11q-17 0 -28 -18.5t-17 -50.5h-51q10 55 32.5 89t64.5 34q26 0 42.5 -11t28.5 -25.5t23.5 -25.5t25.5 -11q32 0 43 68h52q-11 -54 -33 -88.5t-64 -34.5zM201 606l148 144h67l87 -144h-65l-60 100l-101 -100h-76zM257 -10
q-74 0 -122 32.5t-71 85t-23 113.5q0 57 19 113.5t56 103t90.5 74.5t121.5 28q65 0 107.5 -25.5t64.5 -67t26.5 -91t-6.5 -98.5l-4 -14h-401q-3 -51 11.5 -94t48 -69t87.5 -26q46 0 76.5 15.5t49 36t26 35.5l7.5 15h72l-7 -16.5t-23 -41.5t-43.5 -50t-67.5 -42t-95 -17z
M127 304h328q7 43 -4 82t-42.5 64t-85.5 25q-49 0 -88.5 -23.5t-66.5 -62.5t-41 -85z" />
    <glyph glyph-name="uni1EC6" unicode="&#x1ec6;" horiz-adv-x="592" 
d="M257 817l148 144h66l87 -144h-65l-60 100l-100 -100h-76zM31 0l157 740h438l-14 -69h-362l-55 -259h314l-14 -69h-314l-59 -274h367l-15 -69h-443zM241 -215q-25 0 -40.5 16.5t-15.5 39.5t15.5 39t40.5 16q23 0 39.5 -16t16.5 -39q0 -24 -16.5 -40t-39.5 -16z" />
    <glyph glyph-name="uni1EC7" unicode="&#x1ec7;" horiz-adv-x="570" 
d="M208 606l151 162h67l83 -162h-65l-57 113l-104 -113h-75zM257 -10q-74 0 -122 32.5t-71 85t-23 113.5q0 57 19 113.5t56 103t90.5 74.5t121.5 28q65 0 107.5 -25.5t64.5 -67t26.5 -91t-6.5 -98.5l-4 -14h-401q-3 -51 11.5 -94t48 -69t87.5 -26q46 0 76.5 15.5t49 36
t26 35.5l7.5 15h72l-7 -16.5t-23 -41.5t-43.5 -50t-67.5 -42t-95 -17zM127 304h328q7 43 -4 82t-42.5 64t-85.5 25q-49 0 -88.5 -23.5t-66.5 -62.5t-41 -85zM212 -215q-24 0 -40 16.5t-16 39.5t16 39t40 16t40 -16t16 -39q0 -24 -16 -40t-40 -16z" />
    <glyph glyph-name="uni1EC8" unicode="&#x1ec8;" horiz-adv-x="248" 
d="M205 782l7 33q4 20 23 28l15 7q28 13 43 27t15 32q0 14 -10.5 25t-32.5 11q-25 0 -36 -11.5t-14 -22.5l-3 -11h-48l2.5 13.5t12.5 31t30.5 31t56.5 13.5q49 0 71 -25t22 -55q0 -34 -28 -56.5t-68 -39.5l-7 -31h-51zM31 0l157 740h77l-157 -740h-77z" />
    <glyph glyph-name="uni1EC9" unicode="&#x1ec9;" horiz-adv-x="243" 
d="M154 599l7 32q4 20 23 29l15 7q28 12 43 26.5t15 32.5q0 13 -10.5 24.5t-32.5 11.5q-25 0 -36 -11.5t-13.5 -22.5l-2.5 -11h-49l3 13.5t12.5 31t30 31t56.5 13.5q49 0 71 -25t22 -55q0 -35 -28 -57.5t-68 -38.5l-7 -31h-51zM20 0l113 530h76l-113 -530h-76z" />
    <glyph glyph-name="uni1ECA" unicode="&#x1eca;" horiz-adv-x="248" 
d="M31 0l157 740h77l-157 -740h-77zM36 -215q-25 0 -40.5 16.5t-15.5 39.5t15.5 39t40.5 16q23 0 39.5 -16t16.5 -39q0 -24 -16.5 -40t-39.5 -16z" />
    <glyph glyph-name="uni1ECB" unicode="&#x1ecb;" horiz-adv-x="243" 
d="M203 627q-23 0 -38 16t-15 37q0 22 15 37.5t38 15.5q22 0 37.5 -15.5t15.5 -37.5t-15.5 -37.5t-37.5 -15.5zM20 0l113 530h76l-113 -530h-76zM24 -215q-24 0 -39.5 16.5t-15.5 39.5t15.5 39t39.5 16t40 -16t16 -39q0 -24 -16 -40t-40 -16z" />
    <glyph glyph-name="uni1ECC" unicode="&#x1ecc;" horiz-adv-x="785" 
d="M361 -10q-77 0 -133.5 26t-93.5 71t-55 103t-18 121q0 78 26.5 155.5t77 142t123.5 103t167 38.5q77 0 133.5 -26t93 -71.5t54.5 -103t18 -120.5q0 -78 -26 -155.5t-76.5 -142t-123.5 -103t-167 -38.5zM363 61q75 0 133 32.5t98 86.5t61 118.5t21 128.5q0 67 -23.5 124.5
t-73 92.5t-126.5 35q-74 0 -132.5 -32.5t-98.5 -86.5t-61 -118.5t-21 -128.5q0 -67 24 -124.5t73.5 -92.5t125.5 -35zM303 -215q-24 0 -39.5 16.5t-15.5 39.5t15.5 39t39.5 16t40 -16t16 -39q0 -24 -16 -40t-40 -16z" />
    <glyph glyph-name="uni1ECD" unicode="&#x1ecd;" horiz-adv-x="589" 
d="M254 -10q-73 0 -120.5 32.5t-70.5 85t-23 112.5q0 56 19.5 112.5t56.5 103.5t90.5 75.5t121.5 28.5q74 0 121 -32.5t70 -84.5t23 -113q0 -56 -19 -112.5t-56 -103.5t-90.5 -75.5t-122.5 -28.5zM258 57q50 0 89 22.5t66 59t41.5 81t14.5 88.5t-15.5 81.5t-47.5 60.5
t-82 23q-49 0 -88 -22t-66.5 -59t-41.5 -81.5t-14 -88.5t15.5 -81.5t47.5 -60.5t81 -23zM206 -215q-24 0 -40 16.5t-16 39.5t16 39t40 16t40 -16t16 -39q0 -24 -16 -40t-40 -16z" />
    <glyph glyph-name="uni1ECE" unicode="&#x1ece;" horiz-adv-x="785" 
d="M451 809l7 32q4 20 23 29l15 7q28 12 43 26.5t15 32.5q0 13 -10.5 24.5t-32.5 11.5q-25 0 -36 -11.5t-13.5 -22.5l-2.5 -11h-49l3 13.5t12.5 31t30 31t56.5 13.5q49 0 71 -25t22 -55q0 -35 -28 -57.5t-68 -38.5l-7 -31h-51zM361 -10q-77 0 -133.5 26t-93.5 71t-55 103
t-18 121q0 78 26.5 155.5t77 142t123.5 103t167 38.5q77 0 133.5 -26t93 -71.5t54.5 -103t18 -120.5q0 -78 -26 -155.5t-76.5 -142t-123.5 -103t-167 -38.5zM363 61q75 0 133 32.5t98 86.5t61 118.5t21 128.5q0 67 -23.5 124.5t-73 92.5t-126.5 35q-74 0 -132.5 -32.5
t-98.5 -86.5t-61 -118.5t-21 -128.5q0 -67 24 -124.5t73.5 -92.5t125.5 -35z" />
    <glyph glyph-name="uni1ECF" unicode="&#x1ecf;" horiz-adv-x="589" 
d="M321 599l7 32q4 20 23 29l14 7q29 12 43.5 26.5t14.5 32.5q0 13 -10 24.5t-33 11.5q-25 0 -36 -11.5t-13.5 -22.5l-2.5 -11h-48l2.5 13.5t12 31t30.5 31t57 13.5q48 0 70.5 -25t22.5 -55q0 -35 -28 -57.5t-69 -38.5l-7 -31h-50zM254 -10q-73 0 -120.5 32.5t-70.5 85
t-23 112.5q0 56 19.5 112.5t56.5 103.5t90.5 75.5t121.5 28.5q74 0 121 -32.5t70 -84.5t23 -113q0 -56 -19 -112.5t-56 -103.5t-90.5 -75.5t-122.5 -28.5zM258 57q50 0 89 22.5t66 59t41.5 81t14.5 88.5t-15.5 81.5t-47.5 60.5t-82 23q-49 0 -88 -22t-66.5 -59t-41.5 -81.5
t-14 -88.5t15.5 -81.5t47.5 -60.5t81 -23z" />
    <glyph glyph-name="uni1ED0" unicode="&#x1ed0;" horiz-adv-x="785" 
d="M691 942h-62l86 171h76zM333 817l148 144h67l87 -144h-65l-60 100l-101 -100h-76zM361 -10q-77 0 -133.5 26t-93.5 71t-55 103t-18 121q0 78 26.5 155.5t77 142t123.5 103t167 38.5q77 0 133.5 -26t93 -71.5t54.5 -103t18 -120.5q0 -78 -26 -155.5t-76.5 -142
t-123.5 -103t-167 -38.5zM363 61q75 0 133 32.5t98 86.5t61 118.5t21 128.5q0 67 -23.5 124.5t-73 92.5t-126.5 35q-74 0 -132.5 -32.5t-98.5 -86.5t-61 -118.5t-21 -128.5q0 -67 24 -124.5t73.5 -92.5t125.5 -35z" />
    <glyph glyph-name="uni1ED1" unicode="&#x1ed1;" horiz-adv-x="589" 
d="M560 732h-62l86 171h76zM203 607l148 144h66l87 -144h-65l-60 100l-100 -100h-76zM254 -10q-73 0 -120.5 32.5t-70.5 85t-23 112.5q0 56 19.5 112.5t56.5 103.5t90.5 75.5t121.5 28.5q74 0 121 -32.5t70 -84.5t23 -113q0 -56 -19 -112.5t-56 -103.5t-90.5 -75.5
t-122.5 -28.5zM258 57q50 0 89 22.5t66 59t41.5 81t14.5 88.5t-15.5 81.5t-47.5 60.5t-82 23q-49 0 -88 -22t-66.5 -59t-41.5 -81.5t-14 -88.5t15.5 -81.5t47.5 -60.5t81 -23z" />
    <glyph glyph-name="uni1ED2" unicode="&#x1ed2;" horiz-adv-x="785" 
d="M633 942l-75 171h74l61 -171h-60zM333 817l148 144h67l87 -144h-65l-60 100l-101 -100h-76zM361 -10q-77 0 -133.5 26t-93.5 71t-55 103t-18 121q0 78 26.5 155.5t77 142t123.5 103t167 38.5q77 0 133.5 -26t93 -71.5t54.5 -103t18 -120.5q0 -78 -26 -155.5t-76.5 -142
t-123.5 -103t-167 -38.5zM363 61q75 0 133 32.5t98 86.5t61 118.5t21 128.5q0 67 -23.5 124.5t-73 92.5t-126.5 35q-74 0 -132.5 -32.5t-98.5 -86.5t-61 -118.5t-21 -128.5q0 -67 24 -124.5t73.5 -92.5t125.5 -35z" />
    <glyph glyph-name="uni1ED3" unicode="&#x1ed3;" horiz-adv-x="589" 
d="M502 732l-75 171h74l62 -171h-61zM203 607l148 144h66l87 -144h-65l-60 100l-100 -100h-76zM254 -10q-73 0 -120.5 32.5t-70.5 85t-23 112.5q0 56 19.5 112.5t56.5 103.5t90.5 75.5t121.5 28.5q74 0 121 -32.5t70 -84.5t23 -113q0 -56 -19 -112.5t-56 -103.5t-90.5 -75.5
t-122.5 -28.5zM258 57q50 0 89 22.5t66 59t41.5 81t14.5 88.5t-15.5 81.5t-47.5 60.5t-82 23q-49 0 -88 -22t-66.5 -59t-41.5 -81.5t-14 -88.5t15.5 -81.5t47.5 -60.5t81 -23z" />
    <glyph glyph-name="uni1ED4" unicode="&#x1ed4;" horiz-adv-x="785" 
d="M616 928l7 32q4 20 23 29l15 7q28 12 43 26.5t15 32.5q0 13 -10.5 24.5t-32.5 11.5q-25 0 -36 -11.5t-14 -22.5l-3 -11h-48l2.5 13.5t12.5 31t30.5 31t56.5 13.5q48 0 70.5 -25.5t22.5 -54.5q0 -35 -28 -57.5t-68 -38.5l-7 -31h-51zM327 817l148 144h66l87 -144h-65
l-60 100l-100 -100h-76zM361 -10q-77 0 -133.5 26t-93.5 71t-55 103t-18 121q0 78 26.5 155.5t77 142t123.5 103t167 38.5q77 0 133.5 -26t93 -71.5t54.5 -103t18 -120.5q0 -78 -26 -155.5t-76.5 -142t-123.5 -103t-167 -38.5zM363 61q75 0 133 32.5t98 86.5t61 118.5
t21 128.5q0 67 -23.5 124.5t-73 92.5t-126.5 35q-74 0 -132.5 -32.5t-98.5 -86.5t-61 -118.5t-21 -128.5q0 -67 24 -124.5t73.5 -92.5t125.5 -35z" />
    <glyph glyph-name="uni1ED5" unicode="&#x1ed5;" horiz-adv-x="589" 
d="M485 718l7 32q4 20 23 29l15 7q28 12 43 26.5t15 32.5q0 13 -10.5 24.5t-32.5 11.5q-25 0 -36 -11.5t-13.5 -22.5l-2.5 -11h-49l3 13.5t12.5 31t30 31t56.5 13.5q49 0 71 -25t22 -55q0 -35 -28 -57.5t-68 -38.5l-7 -31h-51zM196 607l148 144h66l88 -144h-66l-60 100
l-100 -100h-76zM254 -10q-73 0 -120.5 32.5t-70.5 85t-23 112.5q0 56 19.5 112.5t56.5 103.5t90.5 75.5t121.5 28.5q74 0 121 -32.5t70 -84.5t23 -113q0 -56 -19 -112.5t-56 -103.5t-90.5 -75.5t-122.5 -28.5zM258 57q50 0 89 22.5t66 59t41.5 81t14.5 88.5t-15.5 81.5
t-47.5 60.5t-82 23q-49 0 -88 -22t-66.5 -59t-41.5 -81.5t-14 -88.5t15.5 -81.5t47.5 -60.5t81 -23z" />
    <glyph glyph-name="uni1ED6" unicode="&#x1ed6;" horiz-adv-x="785" 
d="M586 999q-25 0 -41.5 11.5t-28.5 26t-23.5 26t-26.5 11.5q-17 0 -28 -18.5t-16 -50.5h-52q11 54 33 88t65 34q26 0 42.5 -11t28.5 -25.5t23 -25.5t26 -11q31 0 43 68h51q-10 -53 -32 -88t-64 -35zM327 817l148 144h66l88 -144h-66l-60 100l-100 -100h-76zM361 -10
q-77 0 -133.5 26t-93.5 71t-55 103t-18 121q0 78 26.5 155.5t77 142t123.5 103t167 38.5q77 0 133.5 -26t93 -71.5t54.5 -103t18 -120.5q0 -78 -26 -155.5t-76.5 -142t-123.5 -103t-167 -38.5zM363 61q75 0 133 32.5t98 86.5t61 118.5t21 128.5q0 67 -23.5 124.5t-73 92.5
t-126.5 35q-74 0 -132.5 -32.5t-98.5 -86.5t-61 -118.5t-21 -128.5q0 -67 24 -124.5t73.5 -92.5t125.5 -35z" />
    <glyph glyph-name="uni1ED7" unicode="&#x1ed7;" horiz-adv-x="589" 
d="M455 789q-24 0 -40.5 11.5t-29 26t-24 26t-25.5 11.5q-17 0 -28 -18.5t-17 -50.5h-51q10 54 32.5 88t64.5 34q26 0 42.5 -11t28.5 -25.5t23.5 -25.5t25.5 -11q32 0 43 68h52q-11 -53 -33 -88t-64 -35zM196 607l148 144h67l87 -144h-65l-60 100l-101 -100h-76zM254 -10
q-73 0 -120.5 32.5t-70.5 85t-23 112.5q0 56 19.5 112.5t56.5 103.5t90.5 75.5t121.5 28.5q74 0 121 -32.5t70 -84.5t23 -113q0 -56 -19 -112.5t-56 -103.5t-90.5 -75.5t-122.5 -28.5zM258 57q50 0 89 22.5t66 59t41.5 81t14.5 88.5t-15.5 81.5t-47.5 60.5t-82 23
q-49 0 -88 -22t-66.5 -59t-41.5 -81.5t-14 -88.5t15.5 -81.5t47.5 -60.5t81 -23z" />
    <glyph glyph-name="uni1ED8" unicode="&#x1ed8;" horiz-adv-x="785" 
d="M327 817l148 144h66l87 -144h-65l-60 100l-100 -100h-76zM361 -10q-77 0 -133.5 26t-93.5 71t-55 103t-18 121q0 78 26.5 155.5t77 142t123.5 103t167 38.5q77 0 133.5 -26t93 -71.5t54.5 -103t18 -120.5q0 -78 -26 -155.5t-76.5 -142t-123.5 -103t-167 -38.5zM363 61
q75 0 133 32.5t98 86.5t61 118.5t21 128.5q0 67 -23.5 124.5t-73 92.5t-126.5 35q-74 0 -132.5 -32.5t-98.5 -86.5t-61 -118.5t-21 -128.5q0 -67 24 -124.5t73.5 -92.5t125.5 -35zM303 -215q-24 0 -39.5 16.5t-15.5 39.5t15.5 39t39.5 16t40 -16t16 -39q0 -24 -16 -40
t-40 -16z" />
    <glyph glyph-name="uni1ED9" unicode="&#x1ed9;" horiz-adv-x="589" 
d="M203 607l151 162h67l83 -162h-65l-57 113l-104 -113h-75zM254 -10q-73 0 -120.5 32.5t-70.5 85t-23 112.5q0 56 19.5 112.5t56.5 103.5t90.5 75.5t121.5 28.5q74 0 121 -32.5t70 -84.5t23 -113q0 -56 -19 -112.5t-56 -103.5t-90.5 -75.5t-122.5 -28.5zM258 57
q50 0 89 22.5t66 59t41.5 81t14.5 88.5t-15.5 81.5t-47.5 60.5t-82 23q-49 0 -88 -22t-66.5 -59t-41.5 -81.5t-14 -88.5t15.5 -81.5t47.5 -60.5t81 -23zM206 -215q-24 0 -40 16.5t-16 39.5t16 39t40 16t40 -16t16 -39q0 -24 -16 -40t-40 -16z" />
    <glyph glyph-name="uni1EDA" unicode="&#x1eda;" horiz-adv-x="785" 
d="M526 823h-62l86 171h76zM361 -10q-77 0 -133.5 26t-93.5 71t-55 103t-18 121q0 78 26.5 155.5t77 142t123.5 103t167 38.5h2v0h166q27 0 40.5 11t18.5 36l10 50h70l-13 -61q-18 -88 -105 -88h-12q62 -44 92 -116t30 -153q0 -78 -26 -155.5t-76.5 -142t-123.5 -103
t-167 -38.5zM363 61q75 0 133 32.5t98 86.5t61 118.5t21 128.5q0 67 -23.5 124.5t-73 92.5t-126.5 35q-74 0 -132.5 -32.5t-98.5 -86.5t-61 -118.5t-21 -128.5q0 -67 24 -124.5t73.5 -92.5t125.5 -35z" />
    <glyph glyph-name="uni1EDB" unicode="&#x1edb;" horiz-adv-x="589" 
d="M373 613h-62l87 171h75zM254 -10q-73 0 -120.5 32.5t-70.5 85t-23 112.5q0 56 19.5 112.5t56.5 103.5t90.5 75.5t121.5 28.5h116q56 0 67 54l8 43h64l-11 -55q-18 -87 -106 -87q39 -32 57.5 -81t18.5 -104q0 -56 -19 -112.5t-56 -103.5t-90.5 -75.5t-122.5 -28.5zM258 57
q50 0 89 22.5t66 59t41.5 81t14.5 88.5t-15.5 81.5t-47.5 60.5t-82 23q-49 0 -88 -22t-66.5 -59t-41.5 -81.5t-14 -88.5t15.5 -81.5t47.5 -60.5t81 -23z" />
    <glyph glyph-name="uni1EDC" unicode="&#x1edc;" horiz-adv-x="785" 
d="M453 823l-75 171h74l61 -171h-60zM361 -10q-77 0 -133.5 26t-93.5 71t-55 103t-18 121q0 78 26.5 155.5t77 142t123.5 103t167 38.5h2v0h166q27 0 40.5 11t18.5 36l10 50h70l-13 -61q-18 -88 -105 -88h-12q62 -44 92 -116t30 -153q0 -78 -26 -155.5t-76.5 -142
t-123.5 -103t-167 -38.5zM363 61q75 0 133 32.5t98 86.5t61 118.5t21 128.5q0 67 -23.5 124.5t-73 92.5t-126.5 35q-74 0 -132.5 -32.5t-98.5 -86.5t-61 -118.5t-21 -128.5q0 -67 24 -124.5t73.5 -92.5t125.5 -35z" />
    <glyph glyph-name="uni1EDD" unicode="&#x1edd;" horiz-adv-x="589" 
d="M300 613l-75 171h74l62 -171h-61zM254 -10q-73 0 -120.5 32.5t-70.5 85t-23 112.5q0 56 19.5 112.5t56.5 103.5t90.5 75.5t121.5 28.5h116q56 0 67 54l8 43h64l-11 -55q-18 -87 -106 -87q39 -32 57.5 -81t18.5 -104q0 -56 -19 -112.5t-56 -103.5t-90.5 -75.5
t-122.5 -28.5zM258 57q50 0 89 22.5t66 59t41.5 81t14.5 88.5t-15.5 81.5t-47.5 60.5t-82 23q-49 0 -88 -22t-66.5 -59t-41.5 -81.5t-14 -88.5t15.5 -81.5t47.5 -60.5t81 -23z" />
    <glyph glyph-name="uni1EDE" unicode="&#x1ede;" horiz-adv-x="785" 
d="M458 809l7 32q4 20 23 29l15 7q28 12 43 26.5t15 32.5q0 13 -10.5 24.5t-32.5 11.5q-25 0 -36 -11.5t-14 -22.5l-3 -11h-48l2.5 13.5t12.5 31t30.5 31t56.5 13.5q48 0 70.5 -25t22.5 -55q0 -35 -28 -57.5t-68 -38.5l-7 -31h-51zM361 -10q-77 0 -133.5 26t-93.5 71
t-55 103t-18 121q0 78 26.5 155.5t77 142t123.5 103t167 38.5h2v0h166q27 0 40.5 11t18.5 36l10 50h70l-13 -61q-18 -88 -105 -88h-12q62 -44 92 -116t30 -153q0 -78 -26 -155.5t-76.5 -142t-123.5 -103t-167 -38.5zM363 61q75 0 133 32.5t98 86.5t61 118.5t21 128.5
q0 67 -23.5 124.5t-73 92.5t-126.5 35q-74 0 -132.5 -32.5t-98.5 -86.5t-61 -118.5t-21 -128.5q0 -67 24 -124.5t73.5 -92.5t125.5 -35z" />
    <glyph glyph-name="uni1EDF" unicode="&#x1edf;" horiz-adv-x="589" 
d="M305 599l7 32q4 20 23 29l15 7q28 12 43 26.5t15 32.5q0 13 -10.5 24.5t-32.5 11.5q-25 0 -36 -11.5t-13.5 -22.5l-2.5 -11h-49l3 13.5t12.5 31t30 31t56.5 13.5q49 0 71 -25t22 -55q0 -35 -28 -57.5t-68 -38.5l-7 -31h-51zM254 -10q-73 0 -120.5 32.5t-70.5 85
t-23 112.5q0 56 19.5 112.5t56.5 103.5t90.5 75.5t121.5 28.5h116q56 0 67 54l8 43h64l-11 -55q-18 -87 -106 -87q39 -32 57.5 -81t18.5 -104q0 -56 -19 -112.5t-56 -103.5t-90.5 -75.5t-122.5 -28.5zM258 57q50 0 89 22.5t66 59t41.5 81t14.5 88.5t-15.5 81.5t-47.5 60.5
t-82 23q-49 0 -88 -22t-66.5 -59t-41.5 -81.5t-14 -88.5t15.5 -81.5t47.5 -60.5t81 -23z" />
    <glyph glyph-name="uni1EE0" unicode="&#x1ee0;" horiz-adv-x="785" 
d="M567 828q-25 0 -41.5 11t-28.5 26t-23.5 26t-26.5 11q-17 0 -28 -18.5t-16 -50.5h-52q11 55 33 89t65 34q26 0 42.5 -11t28.5 -25.5t23 -25.5t26 -11q31 0 43 68h51q-10 -54 -32 -88.5t-64 -34.5zM361 -10q-77 0 -133.5 26t-93.5 71t-55 103t-18 121q0 78 26.5 155.5
t77 142t123.5 103t167 38.5h2v0h166q27 0 40.5 11t18.5 36l10 50h70l-13 -61q-18 -88 -105 -88h-12q62 -44 92 -116t30 -153q0 -78 -26 -155.5t-76.5 -142t-123.5 -103t-167 -38.5zM363 61q75 0 133 32.5t98 86.5t61 118.5t21 128.5q0 67 -23.5 124.5t-73 92.5t-126.5 35
q-74 0 -132.5 -32.5t-98.5 -86.5t-61 -118.5t-21 -128.5q0 -67 24 -124.5t73.5 -92.5t125.5 -35z" />
    <glyph glyph-name="uni1EE1" unicode="&#x1ee1;" horiz-adv-x="589" 
d="M412 618q-23 0 -39 11t-28 26t-23.5 26t-25.5 11q-16 0 -26.5 -18.5t-14.5 -50.5h-51q9 55 30.5 89t63.5 34q24 0 40.5 -11t28.5 -25.5t23 -25.5t25 -11q30 0 39 68h51q-8 -54 -29.5 -88.5t-63.5 -34.5zM254 -10q-73 0 -120.5 32.5t-70.5 85t-23 112.5q0 56 19.5 112.5
t56.5 103.5t90.5 75.5t121.5 28.5h116q56 0 67 54l8 43h64l-11 -55q-18 -87 -106 -87q39 -32 57.5 -81t18.5 -104q0 -56 -19 -112.5t-56 -103.5t-90.5 -75.5t-122.5 -28.5zM258 57q50 0 89 22.5t66 59t41.5 81t14.5 88.5t-15.5 81.5t-47.5 60.5t-82 23q-49 0 -88 -22
t-66.5 -59t-41.5 -81.5t-14 -88.5t15.5 -81.5t47.5 -60.5t81 -23z" />
    <glyph glyph-name="uni1EE2" unicode="&#x1ee2;" horiz-adv-x="785" 
d="M361 -10q-77 0 -133.5 26t-93.5 71t-55 103t-18 121q0 78 26.5 155.5t77 142t123.5 103t167 38.5h2v0h166q27 0 40.5 11t18.5 36l10 50h70l-13 -61q-18 -88 -105 -88h-12q62 -44 92 -116t30 -153q0 -78 -26 -155.5t-76.5 -142t-123.5 -103t-167 -38.5zM363 61
q75 0 133 32.5t98 86.5t61 118.5t21 128.5q0 67 -23.5 124.5t-73 92.5t-126.5 35q-74 0 -132.5 -32.5t-98.5 -86.5t-61 -118.5t-21 -128.5q0 -67 24 -124.5t73.5 -92.5t125.5 -35zM303 -215q-24 0 -39.5 16.5t-15.5 39.5t15.5 39t39.5 16t40 -16t16 -39q0 -24 -16 -40
t-40 -16z" />
    <glyph glyph-name="uni1EE3" unicode="&#x1ee3;" horiz-adv-x="589" 
d="M254 -10q-73 0 -120.5 32.5t-70.5 85t-23 112.5q0 56 19.5 112.5t56.5 103.5t90.5 75.5t121.5 28.5h116q56 0 67 54l8 43h64l-11 -55q-18 -87 -106 -87q39 -32 57.5 -81t18.5 -104q0 -56 -19 -112.5t-56 -103.5t-90.5 -75.5t-122.5 -28.5zM258 57q50 0 89 22.5t66 59
t41.5 81t14.5 88.5t-15.5 81.5t-47.5 60.5t-82 23q-49 0 -88 -22t-66.5 -59t-41.5 -81.5t-14 -88.5t15.5 -81.5t47.5 -60.5t81 -23zM205 -215q-24 0 -39.5 16.5t-15.5 39.5t15.5 39t39.5 16t40 -16t16 -39q0 -24 -16 -40t-40 -16z" />
    <glyph glyph-name="uni1EE4" unicode="&#x1ee4;" horiz-adv-x="719" 
d="M315 -10q-86 0 -143 36.5t-79 101.5t-3 153l98 459h77l-100 -467q-20 -95 20 -152.5t138 -57.5q94 0 155 58t81 148l100 471h77l-100 -471q-18 -84 -61 -146.5t-108.5 -97.5t-151.5 -35zM269 -215q-24 0 -40 16.5t-16 39.5t16 39t40 16t40 -16t16 -39q0 -24 -16 -40
t-40 -16z" />
    <glyph glyph-name="uni1EE5" unicode="&#x1ee5;" horiz-adv-x="567" 
d="M203 -10q-78 0 -117.5 53t-19.5 147l72 340h75l-72 -344q-14 -62 9.5 -96t78.5 -34q53 0 91.5 28.5t62.5 74.5t35 98l58 273h75l-112 -530h-75l18 86h-6q-10 -14 -31 -37t-56 -41t-86 -18zM198 -215q-25 0 -40.5 16.5t-15.5 39.5t15.5 39t40.5 16q23 0 39.5 -16t16.5 -39
q0 -24 -16.5 -40t-39.5 -16z" />
    <glyph glyph-name="uni1EE6" unicode="&#x1ee6;" horiz-adv-x="719" 
d="M443 809l7 32q4 20 23 29l14 7q29 12 43.5 26.5t14.5 32.5q0 13 -10 24.5t-33 11.5q-25 0 -36 -11.5t-13.5 -22.5l-2.5 -11h-48l2.5 13.5t12 31t30.5 31t57 13.5q48 0 70.5 -25t22.5 -55q0 -35 -28 -57.5t-69 -38.5l-7 -31h-50zM315 -10q-86 0 -143 36.5t-79 101.5
t-3 153l98 459h77l-100 -467q-20 -95 20 -152.5t138 -57.5q94 0 155 58t81 148l100 471h77l-100 -471q-18 -84 -61 -146.5t-108.5 -97.5t-151.5 -35z" />
    <glyph glyph-name="uni1EE7" unicode="&#x1ee7;" horiz-adv-x="567" 
d="M327 599l7 32q4 20 23 29l15 7q28 12 43 26.5t15 32.5q0 13 -10.5 24.5t-32.5 11.5q-25 0 -36 -11.5t-13.5 -22.5l-2.5 -11h-49l3 13.5t12.5 31t30 31t56.5 13.5q49 0 71 -25t22 -55q0 -35 -28 -57.5t-68 -38.5l-7 -31h-51zM203 -10q-78 0 -117.5 53t-19.5 147l72 340h75
l-72 -344q-14 -62 9.5 -96t78.5 -34q53 0 91.5 28.5t62.5 74.5t35 98l58 273h75l-112 -530h-75l18 86h-6q-10 -14 -31 -37t-56 -41t-86 -18z" />
    <glyph glyph-name="uni1EE8" unicode="&#x1ee8;" horiz-adv-x="719" 
d="M504 823h-62l86 171h76zM315 -10q-86 0 -143 36.5t-79 101.5t-3 153l98 459h77l-100 -467q-20 -95 20 -152.5t138 -57.5q94 0 155 58t81 148l100 471h62q27 0 40.5 11t18.5 36l10 50h71l-14 -61q-18 -88 -105 -88h-17l-89 -419q-18 -84 -61 -146.5t-108.5 -97.5
t-151.5 -35z" />
    <glyph glyph-name="uni1EE9" unicode="&#x1ee9;" horiz-adv-x="567" 
d="M387 613h-62l86 171h76zM203 -10q-78 0 -117.5 53t-19.5 147l72 340h75l-72 -344q-14 -62 9.5 -96t78.5 -34q53 0 91.5 28.5t62.5 74.5t35 98l58 273h47q56 0 67 54l8 43h64l-11 -55q-18 -87 -108 -87h-1l-103 -485h-75l18 86h-6q-10 -14 -31 -37t-56 -41t-86 -18z" />
    <glyph glyph-name="uni1EEA" unicode="&#x1eea;" horiz-adv-x="719" 
d="M431 823l-75 171h74l61 -171h-60zM315 -10q-86 0 -143 36.5t-79 101.5t-3 153l98 459h77l-100 -467q-20 -95 20 -152.5t138 -57.5q94 0 155 58t81 148l100 471h62q27 0 40.5 11t18.5 36l10 50h71l-14 -61q-18 -88 -105 -88h-17l-89 -419q-18 -84 -61 -146.5t-108.5 -97.5
t-151.5 -35z" />
    <glyph glyph-name="uni1EEB" unicode="&#x1eeb;" horiz-adv-x="567" 
d="M314 613l-75 171h74l61 -171h-60zM203 -10q-78 0 -117.5 53t-19.5 147l72 340h75l-72 -344q-14 -62 9.5 -96t78.5 -34q53 0 91.5 28.5t62.5 74.5t35 98l58 273h47q56 0 67 54l8 43h64l-11 -55q-18 -87 -108 -87h-1l-103 -485h-75l18 86h-6q-10 -14 -31 -37t-56 -41
t-86 -18z" />
    <glyph glyph-name="uni1EEC" unicode="&#x1eec;" horiz-adv-x="719" 
d="M436 809l7 32q4 20 23 29l15 7q28 12 43 26.5t15 32.5q0 13 -10.5 24.5t-32.5 11.5q-25 0 -36 -11.5t-14 -22.5l-3 -11h-48l2.5 13.5t12.5 31t30.5 31t56.5 13.5q48 0 70.5 -25t22.5 -55q0 -35 -28 -57.5t-68 -38.5l-7 -31h-51zM315 -10q-86 0 -143 36.5t-79 101.5
t-3 153l98 459h77l-100 -467q-20 -95 20 -152.5t138 -57.5q94 0 155 58t81 148l100 471h62q27 0 40.5 11t18.5 36l10 50h71l-14 -61q-18 -88 -105 -88h-17l-89 -419q-18 -84 -61 -146.5t-108.5 -97.5t-151.5 -35z" />
    <glyph glyph-name="uni1EED" unicode="&#x1eed;" horiz-adv-x="567" 
d="M319 599l7 32q4 20 23 29l15 7q28 12 43 26.5t15 32.5q0 13 -10.5 24.5t-32.5 11.5q-25 0 -36 -11.5t-14 -22.5l-3 -11h-48l2.5 13.5t12.5 31t30.5 31t56.5 13.5q49 0 71 -25t22 -55q0 -35 -28 -57.5t-68 -38.5l-7 -31h-51zM203 -10q-78 0 -117.5 53t-19.5 147l72 340h75
l-72 -344q-14 -62 9.5 -96t78.5 -34q53 0 91.5 28.5t62.5 74.5t35 98l58 273h47q56 0 67 54l8 43h64l-11 -55q-18 -87 -108 -87h-1l-103 -485h-75l18 86h-6q-10 -14 -31 -37t-56 -41t-86 -18z" />
    <glyph glyph-name="uni1EEE" unicode="&#x1eee;" horiz-adv-x="719" 
d="M545 828q-25 0 -41.5 11t-28.5 26t-23.5 26t-26.5 11q-17 0 -28 -18.5t-16 -50.5h-52q11 55 33 89t65 34q26 0 42.5 -11t28.5 -25.5t23 -25.5t26 -11q31 0 43 68h51q-10 -54 -32 -88.5t-64 -34.5zM315 -10q-86 0 -143 36.5t-79 101.5t-3 153l98 459h77l-100 -467
q-20 -95 20 -152.5t138 -57.5q94 0 155 58t81 148l100 471h62q27 0 40.5 11t18.5 36l10 50h71l-14 -61q-18 -88 -105 -88h-17l-89 -419q-18 -84 -61 -146.5t-108.5 -97.5t-151.5 -35z" />
    <glyph glyph-name="uni1EEF" unicode="&#x1eef;" horiz-adv-x="567" 
d="M428 618q-25 0 -41.5 11t-28.5 26t-23.5 26t-26.5 11q-17 0 -28 -18.5t-16 -50.5h-52q11 55 33 89t65 34q26 0 42.5 -11t28.5 -25.5t23 -25.5t26 -11q31 0 43 68h51q-10 -54 -32 -88.5t-64 -34.5zM203 -10q-78 0 -117.5 53t-19.5 147l72 340h75l-72 -344q-14 -62 9.5 -96
t78.5 -34q53 0 91.5 28.5t62.5 74.5t35 98l58 273h47q56 0 67 54l8 43h64l-11 -55q-18 -87 -108 -87h-1l-103 -485h-75l18 86h-6q-10 -14 -31 -37t-56 -41t-86 -18z" />
    <glyph glyph-name="uni1EF0" unicode="&#x1ef0;" horiz-adv-x="719" 
d="M315 -10q-86 0 -143 36.5t-79 101.5t-3 153l98 459h77l-100 -467q-20 -95 20 -152.5t138 -57.5q94 0 155 58t81 148l100 471h62q27 0 40.5 11t18.5 36l10 50h71l-14 -61q-18 -88 -105 -88h-17l-89 -419q-18 -84 -61 -146.5t-108.5 -97.5t-151.5 -35zM262 -215
q-24 0 -39.5 16.5t-15.5 39.5t15.5 39t39.5 16t40 -16t16 -39q0 -24 -16 -40t-40 -16z" />
    <glyph glyph-name="uni1EF1" unicode="&#x1ef1;" horiz-adv-x="567" 
d="M203 -10q-78 0 -117.5 53t-19.5 147l72 340h75l-72 -344q-14 -62 9.5 -96t78.5 -34q53 0 91.5 28.5t62.5 74.5t35 98l58 273h47q56 0 67 54l8 43h64l-11 -55q-18 -87 -108 -87h-1l-103 -485h-75l18 86h-6q-10 -14 -31 -37t-56 -41t-86 -18zM189 -215q-24 0 -39.5 16.5
t-15.5 39.5t15.5 39t39.5 16t40 -16t16 -39q0 -24 -16 -40t-40 -16z" />
    <glyph glyph-name="Ygrave" unicode="&#x1ef2;" horiz-adv-x="610" 
d="M376 823l-76 171h74l62 -171h-60zM207 0l57 269l-162 471h78l133 -392l297 392h93l-363 -473l-56 -267h-77z" />
    <glyph glyph-name="ygrave" unicode="&#x1ef3;" horiz-adv-x="550" 
d="M295 613l-75 171h74l62 -171h-61zM-16 -195q-20 0 -33.5 1.5l-13.5 1.5l14 67l13.5 -1.5t28.5 -1.5q53 0 99.5 32.5t84.5 93.5l-93 532h76l74 -439l259 439h87l-328 -543q-57 -94 -124 -138t-144 -44z" />
    <glyph glyph-name="uni1EF4" unicode="&#x1ef4;" horiz-adv-x="610" 
d="M207 0l57 269l-162 471h78l133 -392l297 392h93l-363 -473l-56 -267h-77zM215 -215q-24 0 -39.5 16.5t-15.5 39.5t15.5 39t39.5 16t40 -16t16 -39q0 -24 -16 -40t-40 -16z" />
    <glyph glyph-name="uni1EF5" unicode="&#x1ef5;" horiz-adv-x="550" 
d="M-16 -195q-20 0 -33.5 1.5l-13.5 1.5l14 67l13.5 -1.5t28.5 -1.5q53 0 99.5 32.5t84.5 93.5l-93 532h76l74 -439l259 439h87l-328 -543q-57 -94 -124 -138t-144 -44zM299 -215q-24 0 -39.5 16.5t-15.5 39.5t15.5 39t39.5 16t40 -16t16 -39q0 -24 -16 -40t-40 -16z" />
    <glyph glyph-name="uni1EF6" unicode="&#x1ef6;" horiz-adv-x="610" 
d="M381 809l7 32q4 20 23 29l14 7q29 12 43.5 26.5t14.5 32.5q0 13 -10 24.5t-33 11.5q-25 0 -36 -11.5t-13.5 -22.5l-2.5 -11h-48l2.5 13.5t12 31t30.5 31t57 13.5q48 0 70.5 -25t22.5 -55q0 -35 -28 -57.5t-69 -38.5l-7 -31h-50zM207 0l57 269l-162 471h78l133 -392
l297 392h93l-363 -473l-56 -267h-77z" />
    <glyph glyph-name="uni1EF7" unicode="&#x1ef7;" horiz-adv-x="550" 
d="M300 599l7 32q4 20 23 29l15 7q28 12 43 26.5t15 32.5q0 13 -10.5 24.5t-32.5 11.5q-25 0 -36 -11.5t-13.5 -22.5l-2.5 -11h-49l3 13.5t12.5 31t30 31t56.5 13.5q49 0 71 -25t22 -55q0 -35 -28 -57.5t-68 -38.5l-7 -31h-51zM-16 -195q-20 0 -33.5 1.5l-13.5 1.5l14 67
l13.5 -1.5t28.5 -1.5q53 0 99.5 32.5t84.5 93.5l-93 532h76l74 -439l259 439h87l-328 -543q-57 -94 -124 -138t-144 -44z" />
    <glyph glyph-name="uni1EF8" unicode="&#x1ef8;" horiz-adv-x="610" 
d="M490 828q-25 0 -41.5 11t-28.5 26t-23.5 26t-26.5 11q-17 0 -28 -18.5t-16 -50.5h-52q10 55 32.5 89t65.5 34q25 0 42 -11t29 -25.5t23 -25.5t25 -11q32 0 43 68h52q-10 -54 -32 -88.5t-64 -34.5zM207 0l57 269l-162 471h78l133 -392l297 392h93l-363 -473l-56 -267h-77z
" />
    <glyph glyph-name="uni1EF9" unicode="&#x1ef9;" horiz-adv-x="550" 
d="M409 618q-24 0 -40.5 11t-29 26t-24 26t-25.5 11q-17 0 -28 -18.5t-17 -50.5h-51q10 55 32.5 89t64.5 34q26 0 42.5 -11t28.5 -25.5t23.5 -25.5t25.5 -11q32 0 43 68h52q-11 -54 -33 -88.5t-64 -34.5zM-16 -195q-20 0 -33.5 1.5l-13.5 1.5l14 67l13.5 -1.5t28.5 -1.5
q53 0 99.5 32.5t84.5 93.5l-93 532h76l74 -439l259 439h87l-328 -543q-57 -94 -124 -138t-144 -44z" />
    <glyph glyph-name="endash" unicode="&#x2013;" horiz-adv-x="660" 
d="M115 281l3 64h434l-3 -64h-434z" />
    <glyph glyph-name="emdash" unicode="&#x2014;" horiz-adv-x="834" 
d="M115 281l4 64h607l-3 -64h-608z" />
    <glyph glyph-name="quoteleft" unicode="&#x2018;" horiz-adv-x="212" 
d="M224 740l-62 -100q22 -1 36 -17t14 -38q0 -24 -16 -39.5t-40 -15.5q-23 0 -40.5 14.5t-17.5 41.5q0 24 17.5 53.5t56.5 86.5l10 14h42z" />
    <glyph glyph-name="quoteright" unicode="&#x2019;" horiz-adv-x="194" 
d="M101 540l62 101q-22 1 -36 16.5t-14 37.5q0 25 16 40t40 15t41 -14.5t17 -41.5q0 -24 -17.5 -53.5t-56.5 -85.5l-10 -15h-42z" />
    <glyph glyph-name="quotesinglbase" unicode="&#x201a;" horiz-adv-x="294" 
d="M16 -106l62 100q-23 1 -37 17t-14 38q0 24 16.5 39t40.5 15q23 0 40 -14.5t17 -40.5q0 -24 -17.5 -53.5t-56.5 -86.5l-9 -14h-42z" />
    <glyph glyph-name="quotedblleft" unicode="&#x201c;" horiz-adv-x="373" 
d="M224 740l-62 -100q22 -1 36 -17t14 -38q0 -24 -16 -39.5t-40 -15.5q-23 0 -40.5 14.5t-17.5 41.5q0 24 17.5 53.5t56.5 86.5l10 14h42zM384 740l-62 -100q23 -1 37 -17t14 -38q0 -24 -16.5 -39.5t-39.5 -15.5q-24 0 -41 14.5t-17 41.5q0 24 17.5 53.5t56.5 86.5l10 14h41
z" />
    <glyph glyph-name="quotedblright" unicode="&#x201d;" horiz-adv-x="355" 
d="M262 540l62 101q-23 1 -37 16.5t-14 37.5q0 25 16.5 40t40.5 15q23 0 40 -14.5t17 -41.5q0 -24 -17.5 -53.5t-56.5 -85.5l-9 -15h-42zM101 540l62 101q-22 1 -36 16.5t-14 37.5q0 25 16 40t40 15t41 -14.5t17 -41.5q0 -24 -17.5 -53.5t-56.5 -85.5l-10 -15h-42z" />
    <glyph glyph-name="quotedblbase" unicode="&#x201e;" horiz-adv-x="414" 
d="M178 -106l62 100q-23 1 -37 17t-14 38q0 24 16.5 39t39.5 15q24 0 41 -14.5t17 -40.5q0 -24 -17.5 -53.5t-56.5 -86.5l-10 -14h-41zM17 -106l62 100q-23 1 -37 17t-14 38q0 24 16.5 39t40.5 15q23 0 40 -14.5t17 -40.5q0 -24 -17.5 -53.5t-56.5 -86.5l-9 -14h-42z" />
    <glyph glyph-name="dagger" unicode="&#x2020;" horiz-adv-x="645" 
d="M282 264l63 296h-181l13 60h181l36 170h67l-36 -170h182l-13 -60h-182l-63 -296h-67z" />
    <glyph glyph-name="daggerdbl" unicode="&#x2021;" horiz-adv-x="646" 
d="M282 264l31 145h-181l13 60h181l25 116h-182l13 60h181l31 145h67l-31 -145h182l-13 -60h-181l-25 -116h182l-13 -60h-182l-31 -145h-67z" />
    <glyph glyph-name="bullet" unicode="&#x2022;" horiz-adv-x="500" 
d="M270 252q-40 0 -71.5 19.5t-49.5 51.5t-18 70t18 69.5t49.5 50t71.5 18.5t71.5 -18.5t50 -50t18.5 -69.5q0 -39 -18.5 -71t-50 -51t-71.5 -19z" />
    <glyph glyph-name="ellipsis" unicode="&#x2026;" horiz-adv-x="726" 
d="M314 -8q-24 0 -39.5 16.5t-15.5 39.5t15.5 39t39.5 16t40 -16t16 -39q0 -24 -16 -40t-40 -16zM559 -8q-24 0 -39.5 16.5t-15.5 39.5t15.5 39t39.5 16t40 -16t16 -39q0 -24 -16 -40t-40 -16zM74 -8q-24 0 -39.5 16.5t-15.5 39.5t15.5 39t39.5 16t40 -16t16 -39
q0 -24 -16 -40t-40 -16z" />
    <glyph glyph-name="perthousand" unicode="&#x2030;" horiz-adv-x="1132" 
d="M251 465q-43 0 -70.5 17.5t-41 46.5t-13.5 62q0 38 18 74.5t53 60.5t86 24q42 0 70 -18t41.5 -46.5t13.5 -60.5q0 -39 -18 -75.5t-53 -60.5t-86 -24zM118 0l550 740h70l-550 -740h-70zM253 513q33 0 55.5 16.5t34.5 42t12 51.5q0 31 -18.5 55.5t-56.5 24.5
q-33 0 -55.5 -16.5t-34.5 -42t-12 -51.5q0 -31 18.5 -55.5t56.5 -24.5zM896 -10q-43 0 -70.5 18t-41 47t-13.5 61q0 39 18 75.5t53 60.5t85 24q43 0 70.5 -18t41 -46.5t13.5 -60.5q0 -39 -18 -76t-52.5 -61t-85.5 -24zM575 -10q-42 0 -69.5 18t-41 47t-13.5 61q0 39 18 75.5
t52.5 60.5t85.5 24q42 0 70 -18t41.5 -46.5t13.5 -60.5q0 -39 -18 -76t-53 -61t-86 -24zM898 38q33 0 55.5 17t34.5 42t12 51q0 31 -18.5 55.5t-56.5 24.5q-33 0 -55.5 -16.5t-34.5 -42t-12 -51.5q0 -31 18.5 -55.5t56.5 -24.5zM578 38q32 0 55 17t34.5 42t11.5 51
q0 31 -18 55.5t-57 24.5q-32 0 -55 -16.5t-34.5 -42t-11.5 -51.5q0 -31 18.5 -55.5t56.5 -24.5z" />
    <glyph glyph-name="guilsinglleft" unicode="&#x2039;" horiz-adv-x="378" 
d="M391 526l-258 -216l153 -201h-77l-161 209l250 208h93z" />
    <glyph glyph-name="guilsinglright" unicode="&#x203a;" horiz-adv-x="378" 
d="M11 109l258 216l-153 201h77l160 -209l-249 -208h-93z" />
    <glyph glyph-name="fraction" unicode="&#x2044;" horiz-adv-x="484" 
d="M16 0l400 700h73l-400 -700h-73z" />
    <glyph glyph-name="uni2070" unicode="&#x2070;" horiz-adv-x="417" 
d="M247 408q-46 0 -75.5 23t-44 60.5t-14.5 81.5q0 43 13 87.5t37.5 81.5t60 60t80.5 23q46 0 75.5 -23t44 -61t14.5 -82q0 -43 -13 -87t-37.5 -81.5t-60 -60t-80.5 -22.5zM250 466q27 0 49.5 18t38.5 47.5t24.5 63.5t8.5 66q0 43 -16.5 74t-53.5 31q-27 0 -49 -18
t-38 -47.5t-24.5 -63.5t-8.5 -67q0 -43 16.5 -73.5t52.5 -30.5z" />
    <glyph glyph-name="uni2074" unicode="&#x2074;" horiz-adv-x="419" 
d="M281 413l19 90h-200l13 58l234 259h87l-56 -261h66l-11 -56h-67l-19 -90h-66zM181 559h131l40 188z" />
    <glyph glyph-name="uni2075" unicode="&#x2075;" horiz-adv-x="436" 
d="M271 408q-45 0 -72 13t-42 32t-21 38t-7 32l-1 13h62l1.5 -11t8.5 -25.5t23.5 -26t47.5 -11.5q47 0 72 31t25 66q0 29 -19 52.5t-58 23.5q-31 0 -49.5 -11.5t-26.5 -23l-8 -11.5h-65l67 231h242l-12 -58h-189l-33 -113h2l9.5 9t29 18t50.5 9q42 0 70 -17.5t42 -46
t14 -60.5q0 -37 -18.5 -72t-54.5 -58t-90 -23z" />
    <glyph glyph-name="uni2076" unicode="&#x2076;" horiz-adv-x="442" 
d="M279 408q-75 0 -111 45.5t-36 110.5q0 46 17 92t49.5 84t80 61.5t109.5 23.5q34 0 54.5 -5l20.5 -5l-13 -59l-18.5 5t-47.5 5q-61 0 -105.5 -33.5t-66.5 -89.5q13 15 36 28t58 13q42 0 70.5 -18.5t43 -47.5t14.5 -62q0 -36 -17.5 -70t-51.5 -56t-86 -22zM279 463
q43 0 66 29.5t23 62.5q0 30 -19 54.5t-57 24.5q-44 0 -67 -30t-23 -63q0 -30 19 -54t58 -24z" />
    <glyph glyph-name="uni2077" unicode="&#x2077;" horiz-adv-x="377" 
d="M161 412q14 69 40.5 126.5t57 101.5t58 74.5t44.5 45.5h-209l11 59h288l-10 -48l-17.5 -16.5t-44.5 -48t-56.5 -76t-54.5 -99.5t-37 -119h-70z" />
    <glyph glyph-name="uni2078" unicode="&#x2078;" horiz-adv-x="415" 
d="M264 407q-74 0 -109 34t-35 77q0 33 22 66.5t73 47.5v3q-28 12 -42 33.5t-14 46.5q0 27 16.5 52.5t49 41.5t79.5 16q67 0 101 -31t34 -71q0 -29 -19.5 -56t-60.5 -41v-2q34 -15 49.5 -40.5t15.5 -52.5q0 -31 -17.5 -59t-53 -46.5t-89.5 -18.5zM296 653q39 0 59 20t20 43
q0 21 -18 39t-54 18q-39 0 -59 -20.5t-20 -42.5t17.5 -39.5t54.5 -17.5zM266 462q45 0 68 23.5t23 51.5q0 26 -19.5 46.5t-58.5 20.5q-46 0 -68.5 -24.5t-22.5 -51.5q0 -26 19 -46t59 -20z" />
    <glyph glyph-name="uni2079" unicode="&#x2079;" horiz-adv-x="442" 
d="M425 828q75 0 111 -45.5t36 -110.5q0 -45 -17 -91.5t-49.5 -84.5t-80 -61t-108.5 -23q-34 0 -55 4.5l-21 4.5l13 59l19 -5t47 -5q61 0 105.5 34t66.5 90q-13 -16 -35.5 -28.5t-58.5 -12.5q-42 0 -70.5 18t-43 47.5t-14.5 61.5q0 36 17.5 70t52 56t85.5 22zM425 773
q-43 0 -65.5 -29t-22.5 -63q0 -30 18.5 -54t57.5 -24q44 0 67 29.5t23 63.5q0 30 -19.5 53.5t-58.5 23.5z" />
    <glyph glyph-name="uni2080" unicode="&#x2080;" horiz-adv-x="417" 
d="M116 -207q-46 0 -75.5 23t-44 60.5t-14.5 81.5q0 43 13 87.5t37.5 81.5t60 60t80.5 23q46 0 75.5 -23t44 -61t14.5 -82q0 -43 -13 -87t-37.5 -81.5t-60 -60t-80.5 -22.5zM119 -149q27 0 49.5 18t38.5 47.5t24.5 63.5t8.5 66q0 43 -16.5 74t-53.5 31q-27 0 -49 -18
t-38 -47.5t-24.5 -63.5t-8.5 -67q0 -43 16.5 -73.5t52.5 -30.5z" />
    <glyph glyph-name="uni2081" unicode="&#x2081;" horiz-adv-x="287" 
d="M167 205l-87 -407h-66l66 307h-76l9 40l13 3q34 9 55 21t42 31l6 5h38z" />
    <glyph glyph-name="uni2082" unicode="&#x2082;" horiz-adv-x="408" 
d="M-31 -202l10 46l116 86q60 43 100 80.5t40 78.5q0 28 -19 45t-51 17q-29 0 -45.5 -12t-24 -27.5t-9.5 -27.5l-2 -12h-64l2 14t9.5 34.5t23.5 41t43.5 34.5t69.5 14q64 0 99 -34t35 -82q0 -40 -22.5 -73t-60.5 -63.5t-84 -63.5l-51 -38h192l-13 -58h-294z" />
    <glyph glyph-name="uni2083" unicode="&#x2083;" horiz-adv-x="399" 
d="M128 -207q-46 0 -74.5 13t-43.5 32t-21.5 38t-7.5 31.5l-1 12.5h64l1.5 -10.5t9 -25t25 -25.5t50.5 -11q44 0 66.5 22.5t22.5 50.5q0 30 -24 44.5t-52 14.5h-51l11 52h54q36 0 59 18t23 46q0 26 -18.5 42.5t-51.5 16.5q-29 0 -45.5 -10.5t-24.5 -24t-10 -24l-2 -10.5h-60
l2 12.5t9 31t23 37t43 31t68 12.5q64 0 98.5 -31.5t34.5 -73.5q0 -27 -14 -47.5t-33.5 -33t-36.5 -17.5v-3q12 -5 27.5 -15.5t26.5 -28.5t11 -44q0 -30 -17.5 -58t-53 -46.5t-87.5 -18.5z" />
    <glyph glyph-name="uni2084" unicode="&#x2084;" horiz-adv-x="426" 
d="M147 -202l19 90h-200l13 58l234 259h87l-56 -261h66l-12 -56h-66l-19 -90h-66zM47 -56h131l40 188z" />
    <glyph glyph-name="uni2085" unicode="&#x2085;" horiz-adv-x="436" 
d="M140 -207q-45 0 -72 13t-42 32t-21 38t-7 32l-1 13h62l1.5 -11t8.5 -25.5t23.5 -26t47.5 -11.5q47 0 72 31t25 66q0 29 -19 52.5t-58 23.5q-31 0 -49.5 -11.5t-26.5 -23l-8 -11.5h-65l67 231h242l-12 -58h-189l-33 -113h2l9.5 9t29 18t50.5 9q42 0 70 -17.5t42 -46
t14 -60.5q0 -37 -18.5 -72t-54.5 -58t-90 -23z" />
    <glyph glyph-name="uni2086" unicode="&#x2086;" horiz-adv-x="442" 
d="M148 -207q-75 0 -111 45.5t-36 110.5q0 46 17 92t49.5 84t80 61.5t109.5 23.5q34 0 54.5 -5l20.5 -5l-13 -59l-18.5 5t-47.5 5q-61 0 -105.5 -33.5t-66.5 -89.5q13 15 36 28t58 13q42 0 70.5 -18.5t43 -47.5t14.5 -62q0 -36 -17.5 -70t-51.5 -56t-86 -22zM148 -152
q43 0 66 29.5t23 62.5q0 30 -19 54.5t-57 24.5q-44 0 -67 -30t-23 -63q0 -30 19 -54t58 -24z" />
    <glyph glyph-name="uni2087" unicode="&#x2087;" horiz-adv-x="357" 
d="M10 -202q15 69 41.5 126t56.5 101t58 74.5t45 46.5h-210l12 59h287l-9 -48l-17.5 -17t-44.5 -48.5t-56.5 -75.5t-54.5 -99t-38 -119h-70z" />
    <glyph glyph-name="uni2088" unicode="&#x2088;" horiz-adv-x="392" 
d="M122 -208q-73 0 -108.5 34t-35.5 77q0 33 22 66.5t73 47.5v3q-28 12 -42 33.5t-14 46.5q0 27 17 52.5t49 41.5t79 16q67 0 101 -31t34 -71q0 -29 -19.5 -56t-60.5 -41v-2q34 -15 50 -40.5t16 -52.5q0 -31 -18 -59t-53.5 -46.5t-89.5 -18.5zM154 38q39 0 59 20t20 43
q0 21 -18 39t-53 18q-40 0 -60 -20.5t-20 -42.5t18 -39.5t54 -17.5zM125 -153q45 0 68 23.5t23 51.5q0 26 -20 46.5t-59 20.5q-45 0 -68 -24.5t-23 -51.5q0 -26 19.5 -46t59.5 -20z" />
    <glyph glyph-name="uni2089" unicode="&#x2089;" horiz-adv-x="442" 
d="M294 211q75 0 111 -45.5t36 -110.5q0 -46 -17 -92t-49.5 -84t-80 -61.5t-108.5 -23.5q-34 0 -55 5l-21 5l13 59l19 -5t47 -5q61 0 105.5 33.5t66.5 89.5q-13 -15 -35.5 -28t-58.5 -13q-42 0 -70.5 18.5t-43 47.5t-14.5 62q0 36 17.5 70t52 56t85.5 22zM294 156
q-43 0 -65.5 -29.5t-22.5 -62.5q0 -30 18.5 -54.5t57.5 -24.5q44 0 67 30t23 63q0 30 -19.5 54t-58.5 24z" />
    <glyph glyph-name="dong" unicode="&#x20ab;" horiz-adv-x="596" 
d="M214 131q-51 0 -84.5 24t-50 63t-16.5 84q0 42 13.5 83.5t40 76t65 55t87.5 20.5q45 0 71.5 -16t40 -35.5t17.5 -28.5h4l26 123h-101l11 52h102l14 68h69l-15 -68h70l-11 -52h-70l-94 -442h-69l13 59h-5l-7.5 -10t-23 -23t-39.5 -23t-58 -10zM131 304q0 -45 24 -80
t76 -35q45 0 78 27t50.5 67.5t17.5 80.5q0 46 -24 80.5t-77 34.5q-46 0 -78.5 -27t-49.5 -67t-17 -81zM-3 0l11 54h485l-11 -54h-485z" />
    <glyph glyph-name="Euro" unicode="&#x20ac;" horiz-adv-x="768" 
d="M36 276l12 58h117q1 40 8 79h-108l12 58h111q25 76 77 139.5t129.5 101.5t180.5 38q48 0 88 -6.5t64 -13l24 -6.5l-16 -69l-23 6.5t-60 12.5t-77 6q-80 0 -140.5 -28t-102.5 -75.5t-64 -105.5h277l-12 -58h-282q-8 -38 -8 -77v-2h272l-12 -58h-255q10 -59 41.5 -108.5
t84.5 -79t127 -29.5q44 0 84 8.5t65.5 16.5l25.5 8l-16 -72l-21 -7.5t-58.5 -15t-86.5 -7.5q-99 0 -168 39.5t-108 104.5t-49 142h-133z" />
    <glyph glyph-name="trademark" unicode="&#x2122;" horiz-adv-x="817" 
d="M407 390l74 350h74l58 -199l143 199h78l-75 -350h-57l57 265l-132 -179h-53l-54 182l-57 -268h-56zM176 390l64 300h-112l10 50h281l-11 -50h-111l-64 -300h-57z" />
    <glyph glyph-name="oneeighth" unicode="&#x215b;" horiz-adv-x="873" 
d="M266 713l-76 -355h-66l55 261l-66 -1l8 41l11 3q30 8 51 18t40 28l4 5h39zM180 0l400 700h73l-401 -700h-72zM700 -6q-66 0 -97.5 29.5t-31.5 68.5q0 27 18 56t65 43v2q-26 10 -38 29t-12 41q0 36 33.5 66t96.5 30q60 0 91.5 -27.5t31.5 -61.5q0 -25 -17 -49t-54 -36v-2
q30 -13 43.5 -35.5t13.5 -46.5q0 -26 -15.5 -50.5t-47.5 -40.5t-80 -16zM727 211q32 0 48.5 16.5t16.5 35.5q0 17 -14.5 31t-43.5 14q-32 0 -48.5 -16t-16.5 -34t14.5 -32.5t43.5 -14.5zM702 47q37 0 56 19.5t19 41.5q0 21 -16.5 38t-48.5 17q-36 0 -55 -19.5t-19 -42.5
q0 -21 16 -37.5t48 -16.5z" />
    <glyph glyph-name="threeeighths" unicode="&#x215c;" horiz-adv-x="974" 
d="M214 353q-51 0 -78 17t-38.5 39t-13 39l-1.5 17h64l1 -8.5t7.5 -20t20.5 -20t40 -8.5q37 0 54.5 18t17.5 40q0 23 -18.5 35t-42.5 12h-45l10 52h49q30 0 47.5 14.5t17.5 37.5q0 19 -14 32t-42 13q-32 0 -46 -13.5t-17.5 -27.5l-3.5 -14h-62l3.5 16.5t15.5 38.5t39 39
t74 17q59 0 89.5 -28t30.5 -65q0 -32 -22 -54t-51 -31v-2q22 -9 39 -28t17 -49q0 -26 -15.5 -51t-47 -41t-79.5 -16zM304 0l399 700h74l-401 -700h-72zM824 -6q-67 0 -98 29.5t-31 68.5q0 27 18 56t64 43v2q-25 10 -37 29t-12 41q0 36 33.5 66t96.5 30q60 0 91 -27.5
t31 -61.5q0 -25 -17 -49t-54 -36v-2q30 -13 44 -35.5t14 -46.5q0 -26 -15.5 -50.5t-47.5 -40.5t-80 -16zM851 211q32 0 48.5 16.5t16.5 35.5q0 17 -14.5 31t-44.5 14q-32 0 -48 -16t-16 -34t14 -32.5t44 -14.5zM826 47q37 0 55.5 19.5t18.5 41.5q0 21 -16 38t-48 17
q-36 0 -55.5 -19.5t-19.5 -42.5q0 -21 16 -37.5t49 -16.5z" />
    <glyph glyph-name="fiveeighths" unicode="&#x215d;" horiz-adv-x="918" 
d="M173 353q-48 0 -74 17t-37 39.5t-13 40l-2 17.5h62l1 -9t7.5 -21t20 -20.5t37.5 -8.5q39 0 59 24.5t20 51.5q0 24 -15 42.5t-48 18.5q-24 0 -39 -9t-21.5 -18l-6.5 -9h-66l59 204h218l-13 -58h-163l-27 -90h2l8 7.5t24.5 15.5t43.5 8q55 0 82.5 -33.5t27.5 -75.5
q0 -32 -16 -63t-49 -51t-82 -20zM255 0l400 700h73l-401 -700h-72zM775 -6q-66 0 -97.5 29.5t-31.5 68.5q0 27 18 56t65 43v2q-26 10 -38 29t-12 41q0 36 33.5 66t96.5 30q60 0 91.5 -27.5t31.5 -61.5q0 -25 -17 -49t-54 -36v-2q30 -13 43.5 -35.5t13.5 -46.5
q0 -26 -15.5 -50.5t-47.5 -40.5t-80 -16zM802 211q32 0 48.5 16.5t16.5 35.5q0 17 -14.5 31t-43.5 14q-32 0 -48.5 -16t-16.5 -34t14.5 -32.5t43.5 -14.5zM777 47q37 0 56 19.5t19 41.5q0 21 -16.5 38t-48.5 17q-36 0 -55 -19.5t-19 -42.5q0 -21 16 -37.5t48 -16.5z" />
    <glyph glyph-name="seveneighths" unicode="&#x215e;" horiz-adv-x="856" 
d="M125 358q17 80 50 140t67 99.5t54 57.5h-179l11 58h257l-10 -48l-22.5 -21.5t-54 -62t-60.5 -97t-42 -126.5h-71zM231 0l400 700h73l-401 -700h-72zM751 -6q-66 0 -97.5 29.5t-31.5 68.5q0 27 18 56t65 43v2q-26 10 -38 29t-12 41q0 36 33.5 66t96.5 30q60 0 91.5 -27.5
t31.5 -61.5q0 -25 -17 -49t-54 -36v-2q30 -13 43.5 -35.5t13.5 -46.5q0 -26 -15.5 -50.5t-47.5 -40.5t-80 -16zM778 211q32 0 48.5 16.5t16.5 35.5q0 17 -14.5 31t-43.5 14q-32 0 -48.5 -16t-16.5 -34t14.5 -32.5t43.5 -14.5zM753 47q37 0 56 19.5t19 41.5q0 21 -16.5 38
t-48.5 17q-36 0 -55 -19.5t-19 -42.5q0 -21 16 -37.5t48 -16.5z" />
    <glyph glyph-name="minus" unicode="&#x2212;" horiz-adv-x="604" 
d="M104 279l14 68h389l-14 -68h-389z" />
    <glyph glyph-name="uni2215" unicode="&#x2215;" horiz-adv-x="485" 
d="M77 0l345 700h37l-345 -700h-37z" />
    <glyph glyph-name="approxequal" unicode="&#x2248;" horiz-adv-x="538" 
d="M335 368q-25 0 -41 11.5t-28 26.5t-23.5 26.5t-26.5 11.5q-17 0 -28 -19t-17 -51h-47q9 49 30 84t64 35q25 0 41.5 -11.5t28.5 -26.5t23 -26t25 -11q18 0 28.5 18.5t15.5 51.5h48q-10 -48 -30.5 -84t-62.5 -36zM335 163q-25 0 -41 11.5t-28 26.5t-23.5 26.5t-26.5 11.5
q-17 0 -28 -19t-17 -51h-47q9 49 30 84t64 35q25 0 41.5 -11.5t28.5 -26.5t23 -26t25 -11q18 0 28.5 18.5t15.5 51.5h48q-10 -48 -30.5 -84t-62.5 -36z" />
    <glyph glyph-name="notequal" unicode="&#x2260;" horiz-adv-x="699" 
d="M76 0l128 164h-124l13 66h163l120 155h-249l13 66h288l128 165h72l-128 -165h124l-14 -66h-161l-121 -155h249l-14 -66h-287l-127 -164h-73z" />
    <glyph glyph-name="lessequal" unicode="&#x2264;" horiz-adv-x="580" 
d="M453 166l-351 164l11 47l419 164l-14 -72l-321 -120l270 -122zM34 0l11 52h411l-11 -52h-411z" />
    <glyph glyph-name="greaterequal" unicode="&#x2265;" horiz-adv-x="577" 
d="M98 166l14 72l321 120l-270 122l14 61l351 -164l-11 -47zM49 0l11 52h411l-11 -52h-411z" />
    <glyph glyph-name="i.loclTRK" horiz-adv-x="243" 
d="M202 627q-23 0 -37.5 16t-14.5 37q0 22 14.5 37.5t37.5 15.5t38.5 -15.5t15.5 -37.5t-15.5 -37.5t-38.5 -15.5zM20 0l113 530h76l-113 -530h-76z" />
    <glyph glyph-name="a.ss01" horiz-adv-x="557" 
d="M359 75l-9.5 -13t-30 -29.5t-51.5 -29.5t-75 -13q-75 0 -118.5 41t-43.5 104q0 42 22 78.5t67 59.5t116 26l180 7l6 29q7 30 1.5 62.5t-32 55.5t-82.5 23q-47 0 -75.5 -16t-43 -36.5t-19 -36l-4.5 -15.5h-74l5 17t18 42t37.5 50t63 42t94.5 17q69 0 114.5 -28.5t64 -77
t5.5 -108.5l-69 -326h-75l16 75h-8zM105 140q0 -46 32.5 -67.5t74.5 -21.5q46 0 84.5 22t65 60.5t36.5 85.5l6 26l-167 -7q-63 -2 -97.5 -28.5t-34.5 -69.5z" />
    <glyph glyph-name="aacute.ss01" horiz-adv-x="559" 
d="M378 613h-62l86 171h76zM358 75l-9.5 -13t-30 -29.5t-52 -29.5t-74.5 -13q-75 0 -118.5 41t-43.5 104q0 42 21.5 78.5t67 59.5t115.5 26l181 7l6 29q6 30 1 62.5t-30.5 55.5t-81.5 23q-48 0 -76.5 -16t-43.5 -36.5t-20 -36l-5 -15.5h-73l5 17t18.5 42t38 50t63.5 42
t95 17q68 0 113.5 -28.5t63 -77t5.5 -108.5l-69 -326h-75l16 75h-8zM104 140q0 -46 32.5 -67.5t74.5 -21.5q46 0 84.5 22t65 60.5t36.5 85.5l5 26l-166 -7q-63 -2 -97.5 -28.5t-34.5 -69.5z" />
    <glyph glyph-name="abreve.ss01" horiz-adv-x="559" 
d="M353 608q-45 0 -71.5 14.5t-40 36t-17 43t-3 36l0.5 14.5h58l-1 -13.5t3.5 -32t20.5 -32.5t50 -14q35 0 57 14t34.5 32.5t17 32l4.5 13.5h58l-3.5 -14.5t-13 -36t-28.5 -43t-49.5 -36t-76.5 -14.5zM358 75l-9.5 -13t-30 -29.5t-52 -29.5t-74.5 -13q-75 0 -118.5 41
t-43.5 104q0 42 21.5 78.5t67 59.5t115.5 26l181 7l6 29q6 30 1 62.5t-30.5 55.5t-81.5 23q-48 0 -76.5 -16t-43.5 -36.5t-20 -36l-5 -15.5h-73l5 17t18.5 42t38 50t63.5 42t95 17q68 0 113.5 -28.5t63 -77t5.5 -108.5l-69 -326h-75l16 75h-8zM104 140q0 -46 32.5 -67.5
t74.5 -21.5q46 0 84.5 22t65 60.5t36.5 85.5l5 26l-166 -7q-63 -2 -97.5 -28.5t-34.5 -69.5z" />
    <glyph glyph-name="uni1EAF.ss01" horiz-adv-x="559" 
d="M410 765l-62 1l87 171h75zM353 608q-44 0 -70 13t-40 32.5t-18.5 39t-5 33l-0.5 13.5h58l-0.5 -12t5.5 -28t22 -28t49 -12t54.5 12t34 28t17.5 28l5 12h58l-4 -13.5t-14.5 -33t-29.5 -39t-49 -32.5t-72 -13zM358 75l-9.5 -13t-30 -29.5t-52 -29.5t-74.5 -13
q-75 0 -118.5 41t-43.5 104q0 42 21.5 78.5t67 59.5t115.5 26l181 7l6 29q6 30 1 62.5t-30.5 55.5t-81.5 23q-48 0 -76.5 -16t-43.5 -36.5t-20 -36l-5 -15.5h-73l5 17t18.5 42t38 50t63.5 42t95 17q68 0 113.5 -28.5t63 -77t5.5 -108.5l-69 -326h-75l16 75h-8zM104 140
q0 -46 32.5 -67.5t74.5 -21.5q46 0 84.5 22t65 60.5t36.5 85.5l5 26l-166 -7q-63 -2 -97.5 -28.5t-34.5 -69.5z" />
    <glyph glyph-name="uni1EB7.ss01" horiz-adv-x="559" 
d="M353 608q-45 0 -71.5 14.5t-40 36t-17 43t-3 36l0.5 14.5h58l-1 -13.5t3.5 -32t20.5 -32.5t50 -14q35 0 57 14t34.5 32.5t17 32l4.5 13.5h58l-3.5 -14.5t-13 -36t-28.5 -43t-49.5 -36t-76.5 -14.5zM358 75l-9.5 -13t-30 -29.5t-52 -29.5t-74.5 -13q-75 0 -118.5 41
t-43.5 104q0 42 21.5 78.5t67 59.5t115.5 26l181 7l6 29q6 30 1 62.5t-30.5 55.5t-81.5 23q-48 0 -76.5 -16t-43.5 -36.5t-20 -36l-5 -15.5h-73l5 17t18.5 42t38 50t63.5 42t95 17q68 0 113.5 -28.5t63 -77t5.5 -108.5l-69 -326h-75l16 75h-8zM104 140q0 -46 32.5 -67.5
t74.5 -21.5q46 0 84.5 22t65 60.5t36.5 85.5l5 26l-166 -7q-63 -2 -97.5 -28.5t-34.5 -69.5zM180 -215q-24 0 -40 16.5t-16 39.5t16 39t40 16t40 -16t16 -39q0 -24 -16 -40t-40 -16z" />
    <glyph glyph-name="uni1EB1.ss01" horiz-adv-x="559" 
d="M337 765l-75 172h74l62 -171zM353 608q-44 0 -70 13t-40 32.5t-18.5 39t-5 33l-0.5 13.5h58l-0.5 -12t5.5 -28t22 -28t49 -12t54.5 12t34 28t17.5 28l5 12h58l-4 -13.5t-14.5 -33t-29.5 -39t-49 -32.5t-72 -13zM358 75l-9.5 -13t-30 -29.5t-52 -29.5t-74.5 -13
q-75 0 -118.5 41t-43.5 104q0 42 21.5 78.5t67 59.5t115.5 26l181 7l6 29q6 30 1 62.5t-30.5 55.5t-81.5 23q-48 0 -76.5 -16t-43.5 -36.5t-20 -36l-5 -15.5h-73l5 17t18.5 42t38 50t63.5 42t95 17q68 0 113.5 -28.5t63 -77t5.5 -108.5l-69 -326h-75l16 75h-8zM104 140
q0 -46 32.5 -67.5t74.5 -21.5q46 0 84.5 22t65 60.5t36.5 85.5l5 26l-166 -7q-63 -2 -97.5 -28.5t-34.5 -69.5z" />
    <glyph glyph-name="uni1EB3.ss01" horiz-adv-x="559" 
d="M342 751l7 33q4 20 23 29l15 6q28 13 43 27t15 33q0 13 -10.5 24t-32.5 11q-25 0 -36 -11t-13.5 -22.5l-2.5 -11.5h-49l3 13.5t12.5 31t30 31t56.5 13.5q49 0 71 -25t22 -54q0 -35 -28 -57.5t-68 -38.5l-7 -32h-51zM353 608q-44 0 -70 13t-40 32.5t-18.5 39t-5 33
l-0.5 13.5h58l-0.5 -12t5.5 -28t22 -28t49 -12t54.5 12t34 28t17.5 28l5 12h58l-4 -13.5t-14.5 -33t-29.5 -39t-49 -32.5t-72 -13zM358 75l-9.5 -13t-30 -29.5t-52 -29.5t-74.5 -13q-75 0 -118.5 41t-43.5 104q0 42 21.5 78.5t67 59.5t115.5 26l181 7l6 29q6 30 1 62.5
t-30.5 55.5t-81.5 23q-48 0 -76.5 -16t-43.5 -36.5t-20 -36l-5 -15.5h-73l5 17t18.5 42t38 50t63.5 42t95 17q68 0 113.5 -28.5t63 -77t5.5 -108.5l-69 -326h-75l16 75h-8zM104 140q0 -46 32.5 -67.5t74.5 -21.5q46 0 84.5 22t65 60.5t36.5 85.5l5 26l-166 -7
q-63 -2 -97.5 -28.5t-34.5 -69.5z" />
    <glyph glyph-name="uni1EB5.ss01" horiz-adv-x="559" 
d="M450 784q-24 0 -40.5 11t-29 26t-24 26t-25.5 11q-17 0 -28 -18.5t-17 -50.5h-51q10 55 32.5 89t64.5 34q26 0 42.5 -11t28.5 -25.5t23.5 -25.5t25.5 -11q32 0 43 68h52q-11 -54 -33 -88.5t-64 -34.5zM353 608q-44 0 -70 13t-40 32.5t-18.5 39t-5 33l-0.5 13.5h58
l-0.5 -12t5.5 -28t22 -28t49 -12t54.5 12t34 28t17.5 28l5 12h58l-4 -13.5t-14.5 -33t-29.5 -39t-49 -32.5t-72 -13zM358 75l-9.5 -13t-30 -29.5t-52 -29.5t-74.5 -13q-75 0 -118.5 41t-43.5 104q0 42 21.5 78.5t67 59.5t115.5 26l181 7l6 29q6 30 1 62.5t-30.5 55.5
t-81.5 23q-48 0 -76.5 -16t-43.5 -36.5t-20 -36l-5 -15.5h-73l5 17t18.5 42t38 50t63.5 42t95 17q68 0 113.5 -28.5t63 -77t5.5 -108.5l-69 -326h-75l16 75h-8zM104 140q0 -46 32.5 -67.5t74.5 -21.5q46 0 84.5 22t65 60.5t36.5 85.5l5 26l-166 -7q-63 -2 -97.5 -28.5
t-34.5 -69.5z" />
    <glyph glyph-name="acircumflex.ss01" horiz-adv-x="559" 
d="M192 607l152 162h66l84 -162h-66l-56 113l-104 -113h-76zM358 75l-9.5 -13t-30 -29.5t-52 -29.5t-74.5 -13q-75 0 -118.5 41t-43.5 104q0 42 21.5 78.5t67 59.5t115.5 26l181 7l6 29q6 30 1 62.5t-30.5 55.5t-81.5 23q-48 0 -76.5 -16t-43.5 -36.5t-20 -36l-5 -15.5h-73
l5 17t18.5 42t38 50t63.5 42t95 17q68 0 113.5 -28.5t63 -77t5.5 -108.5l-69 -326h-75l16 75h-8zM104 140q0 -46 32.5 -67.5t74.5 -21.5q46 0 84.5 22t65 60.5t36.5 85.5l5 26l-166 -7q-63 -2 -97.5 -28.5t-34.5 -69.5z" />
    <glyph glyph-name="uni1EA5.ss01" horiz-adv-x="559" 
d="M549 732h-62l87 171h75zM192 607l148 144h66l88 -144h-66l-60 100l-100 -100h-76zM358 75l-9.5 -13t-30 -29.5t-52 -29.5t-74.5 -13q-75 0 -118.5 41t-43.5 104q0 42 21.5 78.5t67 59.5t115.5 26l181 7l6 29q6 30 1 62.5t-30.5 55.5t-81.5 23q-48 0 -76.5 -16
t-43.5 -36.5t-20 -36l-5 -15.5h-73l5 17t18.5 42t38 50t63.5 42t95 17q68 0 113.5 -28.5t63 -77t5.5 -108.5l-69 -326h-75l16 75h-8zM104 140q0 -46 32.5 -67.5t74.5 -21.5q46 0 84.5 22t65 60.5t36.5 85.5l5 26l-166 -7q-63 -2 -97.5 -28.5t-34.5 -69.5z" />
    <glyph glyph-name="uni1EAD.ss01" horiz-adv-x="559" 
d="M192 607l152 162h66l84 -162h-66l-56 113l-104 -113h-76zM358 75l-9.5 -13t-30 -29.5t-52 -29.5t-74.5 -13q-75 0 -118.5 41t-43.5 104q0 42 21.5 78.5t67 59.5t115.5 26l181 7l6 29q6 30 1 62.5t-30.5 55.5t-81.5 23q-48 0 -76.5 -16t-43.5 -36.5t-20 -36l-5 -15.5h-73
l5 17t18.5 42t38 50t63.5 42t95 17q68 0 113.5 -28.5t63 -77t5.5 -108.5l-69 -326h-75l16 75h-8zM104 140q0 -46 32.5 -67.5t74.5 -21.5q46 0 84.5 22t65 60.5t36.5 85.5l5 26l-166 -7q-63 -2 -97.5 -28.5t-34.5 -69.5zM180 -215q-24 0 -40 16.5t-16 39.5t16 39t40 16
t40 -16t16 -39q0 -24 -16 -40t-40 -16z" />
    <glyph glyph-name="uni1EA7.ss01" horiz-adv-x="559" 
d="M492 732l-76 171h74l62 -171h-60zM192 607l148 144h66l88 -144h-66l-60 100l-100 -100h-76zM358 75l-9.5 -13t-30 -29.5t-52 -29.5t-74.5 -13q-75 0 -118.5 41t-43.5 104q0 42 21.5 78.5t67 59.5t115.5 26l181 7l6 29q6 30 1 62.5t-30.5 55.5t-81.5 23q-48 0 -76.5 -16
t-43.5 -36.5t-20 -36l-5 -15.5h-73l5 17t18.5 42t38 50t63.5 42t95 17q68 0 113.5 -28.5t63 -77t5.5 -108.5l-69 -326h-75l16 75h-8zM104 140q0 -46 32.5 -67.5t74.5 -21.5q46 0 84.5 22t65 60.5t36.5 85.5l5 26l-166 -7q-63 -2 -97.5 -28.5t-34.5 -69.5z" />
    <glyph glyph-name="uni1EA9.ss01" horiz-adv-x="559" 
d="M475 718l7 32q4 20 23 29l14 7q29 12 43.5 26.5t14.5 32.5q0 13 -10 24.5t-33 11.5q-25 0 -36 -11.5t-13.5 -22.5l-2.5 -11h-48l2.5 13.5t12 31t30.5 31t57 13.5q48 0 70.5 -25t22.5 -55q0 -35 -28 -57.5t-69 -38.5l-7 -31h-50zM185 607l148 144h67l87 -144h-65l-60 100
l-101 -100h-76zM358 75l-9.5 -13t-30 -29.5t-52 -29.5t-74.5 -13q-75 0 -118.5 41t-43.5 104q0 42 21.5 78.5t67 59.5t115.5 26l181 7l6 29q6 30 1 62.5t-30.5 55.5t-81.5 23q-48 0 -76.5 -16t-43.5 -36.5t-20 -36l-5 -15.5h-73l5 17t18.5 42t38 50t63.5 42t95 17
q68 0 113.5 -28.5t63 -77t5.5 -108.5l-69 -326h-75l16 75h-8zM104 140q0 -46 32.5 -67.5t74.5 -21.5q46 0 84.5 22t65 60.5t36.5 85.5l5 26l-166 -7q-63 -2 -97.5 -28.5t-34.5 -69.5z" />
    <glyph glyph-name="uni1EAB.ss01" horiz-adv-x="559" 
d="M445 789q-25 0 -41.5 11.5t-28.5 26t-23.5 26t-26.5 11.5q-17 0 -28 -18.5t-16 -50.5h-52q10 54 32.5 88t65.5 34q25 0 42 -11t29 -25.5t23 -25.5t25 -11q32 0 43 68h52q-10 -53 -32 -88t-64 -35zM186 607l148 144h66l87 -144h-65l-60 100l-100 -100h-76zM358 75
l-9.5 -13t-30 -29.5t-52 -29.5t-74.5 -13q-75 0 -118.5 41t-43.5 104q0 42 21.5 78.5t67 59.5t115.5 26l181 7l6 29q6 30 1 62.5t-30.5 55.5t-81.5 23q-48 0 -76.5 -16t-43.5 -36.5t-20 -36l-5 -15.5h-73l5 17t18.5 42t38 50t63.5 42t95 17q68 0 113.5 -28.5t63 -77
t5.5 -108.5l-69 -326h-75l16 75h-8zM104 140q0 -46 32.5 -67.5t74.5 -21.5q46 0 84.5 22t65 60.5t36.5 85.5l5 26l-166 -7q-63 -2 -97.5 -28.5t-34.5 -69.5z" />
    <glyph glyph-name="adieresis.ss01" horiz-adv-x="559" 
d="M442 617q-23 0 -38 16t-15 37q0 22 15 37.5t38 15.5q22 0 37.5 -15.5t15.5 -37.5t-15.5 -37.5t-37.5 -15.5zM269 617q-23 0 -38 16t-15 37q0 22 15 37.5t38 15.5q22 0 37.5 -15.5t15.5 -37.5t-15.5 -37.5t-37.5 -15.5zM358 75l-9.5 -13t-30 -29.5t-52 -29.5t-74.5 -13
q-75 0 -118.5 41t-43.5 104q0 42 21.5 78.5t67 59.5t115.5 26l181 7l6 29q6 30 1 62.5t-30.5 55.5t-81.5 23q-48 0 -76.5 -16t-43.5 -36.5t-20 -36l-5 -15.5h-73l5 17t18.5 42t38 50t63.5 42t95 17q68 0 113.5 -28.5t63 -77t5.5 -108.5l-69 -326h-75l16 75h-8zM104 140
q0 -46 32.5 -67.5t74.5 -21.5q46 0 84.5 22t65 60.5t36.5 85.5l5 26l-166 -7q-63 -2 -97.5 -28.5t-34.5 -69.5z" />
    <glyph glyph-name="uni1EA1.ss01" horiz-adv-x="559" 
d="M358 75l-9.5 -13t-30 -29.5t-52 -29.5t-74.5 -13q-75 0 -118.5 41t-43.5 104q0 42 21.5 78.5t67 59.5t115.5 26l181 7l6 29q6 30 1 62.5t-30.5 55.5t-81.5 23q-48 0 -76.5 -16t-43.5 -36.5t-20 -36l-5 -15.5h-73l5 17t18.5 42t38 50t63.5 42t95 17q68 0 113.5 -28.5
t63 -77t5.5 -108.5l-69 -326h-75l16 75h-8zM104 140q0 -46 32.5 -67.5t74.5 -21.5q46 0 84.5 22t65 60.5t36.5 85.5l5 26l-166 -7q-63 -2 -97.5 -28.5t-34.5 -69.5zM180 -215q-24 0 -40 16.5t-16 39.5t16 39t40 16t40 -16t16 -39q0 -24 -16 -40t-40 -16z" />
    <glyph glyph-name="agrave.ss01" horiz-adv-x="559" 
d="M305 613l-75 171h74l61 -171h-60zM358 75l-9.5 -13t-30 -29.5t-52 -29.5t-74.5 -13q-75 0 -118.5 41t-43.5 104q0 42 21.5 78.5t67 59.5t115.5 26l181 7l6 29q6 30 1 62.5t-30.5 55.5t-81.5 23q-48 0 -76.5 -16t-43.5 -36.5t-20 -36l-5 -15.5h-73l5 17t18.5 42t38 50
t63.5 42t95 17q68 0 113.5 -28.5t63 -77t5.5 -108.5l-69 -326h-75l16 75h-8zM104 140q0 -46 32.5 -67.5t74.5 -21.5q46 0 84.5 22t65 60.5t36.5 85.5l5 26l-166 -7q-63 -2 -97.5 -28.5t-34.5 -69.5z" />
    <glyph glyph-name="uni1EA3.ss01" horiz-adv-x="559" 
d="M310 599l7 32q4 20 23 29l15 7q28 12 43 26.5t15 32.5q0 13 -10.5 24.5t-32.5 11.5q-25 0 -36 -11.5t-14 -22.5l-3 -11h-48l2.5 13.5t12.5 31t30.5 31t56.5 13.5q49 0 71 -25t22 -55q0 -35 -28 -57.5t-68 -38.5l-7 -31h-51zM358 75l-9.5 -13t-30 -29.5t-52 -29.5
t-74.5 -13q-75 0 -118.5 41t-43.5 104q0 42 21.5 78.5t67 59.5t115.5 26l181 7l6 29q6 30 1 62.5t-30.5 55.5t-81.5 23q-48 0 -76.5 -16t-43.5 -36.5t-20 -36l-5 -15.5h-73l5 17t18.5 42t38 50t63.5 42t95 17q68 0 113.5 -28.5t63 -77t5.5 -108.5l-69 -326h-75l16 75h-8z
M104 140q0 -46 32.5 -67.5t74.5 -21.5q46 0 84.5 22t65 60.5t36.5 85.5l5 26l-166 -7q-63 -2 -97.5 -28.5t-34.5 -69.5z" />
    <glyph glyph-name="amacron.ss01" horiz-adv-x="559" 
d="M201 638l12 58h296l-12 -58h-296zM358 75l-9.5 -13t-30 -29.5t-52 -29.5t-74.5 -13q-75 0 -118.5 41t-43.5 104q0 42 21.5 78.5t67 59.5t115.5 26l181 7l6 29q6 30 1 62.5t-30.5 55.5t-81.5 23q-48 0 -76.5 -16t-43.5 -36.5t-20 -36l-5 -15.5h-73l5 17t18.5 42t38 50
t63.5 42t95 17q68 0 113.5 -28.5t63 -77t5.5 -108.5l-69 -326h-75l16 75h-8zM104 140q0 -46 32.5 -67.5t74.5 -21.5q46 0 84.5 22t65 60.5t36.5 85.5l5 26l-166 -7q-63 -2 -97.5 -28.5t-34.5 -69.5z" />
    <glyph glyph-name="aogonek.ss01" horiz-adv-x="559" 
d="M387 -161q-44 0 -68.5 20t-24.5 53t20.5 54.5t42.5 33.5h-7l16 75h-8l-9.5 -13t-30 -29.5t-52 -29.5t-74.5 -13q-75 0 -118.5 41t-43.5 104q0 42 21.5 78.5t67 59.5t115.5 26l181 7l6 29q6 30 1 62.5t-30.5 55.5t-81.5 23q-48 0 -76.5 -16t-43.5 -36.5t-20 -36l-5 -15.5
h-73l5 17t18.5 42t38 50t63.5 42t95 17q68 0 113.5 -28.5t63 -77t5.5 -108.5l-69 -326l-11 -4.5t-25 -14t-25 -23.5t-11 -33q0 -37 51 -37q14 0 26 2.5l12 2.5l-10 -48l-12.5 -3t-32.5 -3zM104 140q0 -46 32.5 -67.5t74.5 -21.5q46 0 84.5 22t65 60.5t36.5 85.5l5 26
l-166 -7q-63 -2 -97.5 -28.5t-34.5 -69.5z" />
    <glyph glyph-name="aring.ss01" horiz-adv-x="559" 
d="M339 606q-33 0 -59.5 15.5t-42 42t-15.5 58.5q0 33 15.5 59.5t42 42t59.5 15.5q32 0 58.5 -15.5t42 -42t15.5 -59.5q0 -32 -15.5 -58.5t-42 -42t-58.5 -15.5zM339 661q25 0 43 18t18 43q0 26 -18 44t-43 18q-26 0 -44 -18t-18 -44q0 -25 18 -43t44 -18zM358 75l-9.5 -13
t-30 -29.5t-52 -29.5t-74.5 -13q-75 0 -118.5 41t-43.5 104q0 42 21.5 78.5t67 59.5t115.5 26l181 7l6 29q6 30 1 62.5t-30.5 55.5t-81.5 23q-48 0 -76.5 -16t-43.5 -36.5t-20 -36l-5 -15.5h-73l5 17t18.5 42t38 50t63.5 42t95 17q68 0 113.5 -28.5t63 -77t5.5 -108.5
l-69 -326h-75l16 75h-8zM104 140q0 -46 32.5 -67.5t74.5 -21.5q46 0 84.5 22t65 60.5t36.5 85.5l5 26l-166 -7q-63 -2 -97.5 -28.5t-34.5 -69.5z" />
    <glyph glyph-name="atilde.ss01" horiz-adv-x="559" 
d="M419 618q-25 0 -41.5 11t-28.5 26t-23.5 26t-26.5 11q-17 0 -28 -18.5t-16 -50.5h-52q11 55 33 89t65 34q26 0 42.5 -11t28.5 -25.5t23 -25.5t26 -11q31 0 43 68h51q-10 -54 -32 -88.5t-64 -34.5zM358 75l-9.5 -13t-30 -29.5t-52 -29.5t-74.5 -13q-75 0 -118.5 41
t-43.5 104q0 42 21.5 78.5t67 59.5t115.5 26l181 7l6 29q6 30 1 62.5t-30.5 55.5t-81.5 23q-48 0 -76.5 -16t-43.5 -36.5t-20 -36l-5 -15.5h-73l5 17t18.5 42t38 50t63.5 42t95 17q68 0 113.5 -28.5t63 -77t5.5 -108.5l-69 -326h-75l16 75h-8zM104 140q0 -46 32.5 -67.5
t74.5 -21.5q46 0 84.5 22t65 60.5t36.5 85.5l5 26l-166 -7q-63 -2 -97.5 -28.5t-34.5 -69.5z" />
    <glyph glyph-name="zero.dnom" horiz-adv-x="297" 
d="M134 -5q-41 0 -68 20.5t-40 53.5t-13 72q0 37 11 74.5t33 69t53 51t71 19.5q42 0 69 -20t40 -53.5t13 -71.5q0 -37 -11.5 -75t-33 -69.5t-53 -51t-71.5 -19.5zM137 53q30 0 52 25.5t34 62t12 71.5q0 34 -13 59t-43 25t-52.5 -25t-34.5 -61.5t-12 -70.5q0 -35 13.5 -60.5
t43.5 -25.5z" />
    <glyph glyph-name="one.dnom" horiz-adv-x="164" 
d="M189 354l-75 -355h-66l55 262l-67 -1l8 41l12 3q30 8 50.5 17.5t40.5 28.5l4 4h38z" />
    <glyph glyph-name="two.dnom" horiz-adv-x="201" 
d="M-96 -1l10 46l98 71q54 39 87.5 69.5t33.5 64.5q0 23 -15.5 37.5t-41.5 14.5q-24 0 -37 -10t-19 -22.5t-8 -22.5l-2 -10h-64l3.5 18.5t16 42.5t39.5 42.5t74 18.5q59 0 90 -30.5t31 -73.5q0 -36 -21.5 -65.5t-55.5 -55.5t-71 -51l-35 -26h161l-12 -58h-262z" />
    <glyph glyph-name="three.dnom" horiz-adv-x="287" 
d="M138 -6q-51 0 -78.5 17t-38.5 39.5t-12.5 39.5l-1.5 17h63l1.5 -8.5t7.5 -20t20.5 -20t40.5 -8.5q36 0 54 18t18 40q0 23 -18.5 35t-42.5 12h-46l11 52h49q30 0 47.5 14.5t17.5 36.5q0 19 -14.5 32.5t-41.5 13.5q-32 0 -46 -14t-18 -27.5l-4 -13.5h-61l3 16.5t15.5 38.5
t39.5 38.5t74 16.5q59 0 89 -28t30 -64q0 -33 -21.5 -54.5t-50.5 -30.5l-1 -3q22 -9 39.5 -28t17.5 -48q0 -26 -15.5 -51t-47 -41.5t-79.5 -16.5z" />
    <glyph glyph-name="four.dnom" horiz-adv-x="187" 
d="M37 -1l16 76h-174l12 57l201 222h88l-48 -224h56l-12 -55h-56l-16 -76h-67zM-36 130h101l32 147z" />
    <glyph glyph-name="five.dnom" horiz-adv-x="239" 
d="M96 -6q-48 0 -74 17.5t-36.5 40t-12.5 39.5l-2 17h61l1.5 -8.5t7.5 -20.5t19.5 -21t38.5 -9q39 0 59 24.5t20 52.5q0 23 -15.5 42t-47.5 19q-25 0 -39.5 -9t-21 -18l-6.5 -9h-66l59 203h218l-13 -57h-164l-26 -91h2l7.5 8t24.5 16t44 8q55 0 82.5 -34t27.5 -76
q0 -32 -16 -62.5t-49 -51t-83 -20.5z" />
    <glyph glyph-name="six.dnom" horiz-adv-x="310" 
d="M154 -6q-67 0 -100.5 40.5t-33.5 94.5q0 58 27.5 110.5t77 86t117.5 33.5q36 0 54 -4l18 -4l-13 -59l-16.5 4t-42.5 4q-49 0 -86 -25.5t-56 -69.5q11 12 29 22t45 10q59 0 87.5 -34.5t28.5 -77.5q0 -32 -15 -62t-45.5 -49.5t-75.5 -19.5zM152 49q35 0 53.5 24t18.5 50
q0 24 -15 43.5t-46 19.5q-36 0 -55 -23.5t-19 -50.5q0 -24 16 -43.5t47 -19.5z" />
    <glyph glyph-name="seven.dnom" horiz-adv-x="215" 
d="M49 -1q17 81 50 141t67 99.5t54 57.5h-180l12 57h256l-10 -48l-22 -21.5t-54 -62t-60.5 -97t-41.5 -126.5h-71z" />
    <glyph glyph-name="eight.dnom" horiz-adv-x="211" 
d="M52 -6q-66 0 -97.5 29.5t-31.5 68.5q0 27 18 56t65 43v2q-26 10 -38 29t-12 41q0 36 33.5 66t96.5 30q60 0 91.5 -27.5t31.5 -61.5q0 -25 -17 -49t-54 -36v-2q30 -13 43.5 -35.5t13.5 -46.5q0 -26 -15.5 -50.5t-47.5 -40.5t-80 -16zM79 211q32 0 48.5 16.5t16.5 35.5
q0 17 -14.5 31t-43.5 14q-32 0 -48.5 -16t-16.5 -34t14.5 -32.5t43.5 -14.5zM54 47q37 0 56 19.5t19 41.5q0 21 -16.5 38t-48.5 17q-36 0 -55 -19.5t-19 -42.5q0 -21 16 -37.5t48 -16.5z" />
    <glyph glyph-name="nine.dnom" horiz-adv-x="350" 
d="M160 358q68 0 101 -40t33 -95q0 -57 -27 -110t-76.5 -86.5t-117.5 -33.5q-36 0 -54 4.5l-18 4.5l13 58l16.5 -4t42.5 -4q49 0 86 25.5t55 69.5q-10 -12 -28 -21.5t-46 -9.5q-59 0 -87.5 34t-28.5 77q0 32 15.5 62t46 49.5t74.5 19.5zM162 303q-35 0 -53 -23.5t-18 -50.5
q0 -24 15 -43.5t46 -19.5q36 0 54.5 24t18.5 50q0 24 -15.5 43.5t-47.5 19.5z" />
    <glyph glyph-name="zero.numr" horiz-adv-x="304" 
d="M217 353q-41 0 -68 20.5t-40 53.5t-13 72q0 37 11 75t33 69.5t53 50.5t71 19q42 0 69 -20t40 -53t13 -72q0 -37 -11.5 -75t-33 -69.5t-53 -51t-71.5 -19.5zM220 412q30 0 52 25t34 62t12 71q0 35 -13 60t-43 25t-52.5 -25t-34.5 -61.5t-12 -71.5t13.5 -60t43.5 -25z" />
    <glyph glyph-name="one.numr" horiz-adv-x="164" 
d="M266 713l-76 -355h-66l55 261l-66 -1l8 41l11 3q30 8 51 18t40 28l4 5h39z" />
    <glyph glyph-name="two.numr" horiz-adv-x="201" 
d="M-20 358l10 45l98 72q54 38 88 68.5t34 64.5q0 24 -16 38t-42 14q-23 0 -36.5 -9.5t-19.5 -22.5t-7.5 -22.5l-1.5 -9.5h-64l3 18.5t15.5 42.5t39.5 42.5t75 18.5q58 0 89 -31t31 -74q0 -36 -21.5 -65.5t-55.5 -55t-70 -51.5l-36 -26h162l-13 -57h-262z" />
    <glyph glyph-name="three.numr" horiz-adv-x="287" 
d="M214 353q-51 0 -78 17t-38.5 39t-13 39l-1.5 17h64l1 -8.5t7.5 -20t20.5 -20t40 -8.5q37 0 54.5 18t17.5 40q0 23 -18.5 35t-42.5 12h-45l10 52h49q30 0 47.5 14.5t17.5 37.5q0 19 -14 32t-42 13q-32 0 -46 -13.5t-17.5 -27.5l-3.5 -14h-62l3.5 16.5t15.5 38.5t39 39
t74 17q59 0 89.5 -28t30.5 -65q0 -32 -22 -54t-51 -31v-2q22 -9 39 -28t17 -49q0 -26 -15.5 -51t-47 -41t-79.5 -16z" />
    <glyph glyph-name="four.numr" horiz-adv-x="187" 
d="M113 358l17 75h-175l13 57l200 223h88l-48 -224h56l-11 -56h-57l-16 -75h-67zM40 489h102l31 147z" />
    <glyph glyph-name="five.numr" horiz-adv-x="239" 
d="M173 353q-48 0 -74 17t-37 39.5t-13 40l-2 17.5h62l1 -9t7.5 -21t20 -20.5t37.5 -8.5q39 0 59 24.5t20 51.5q0 24 -15 42.5t-48 18.5q-24 0 -39 -9t-21.5 -18l-6.5 -9h-66l59 204h218l-13 -58h-163l-27 -90h2l8 7.5t24.5 15.5t43.5 8q55 0 82.5 -33.5t27.5 -75.5
q0 -32 -16 -63t-49 -51t-82 -20z" />
    <glyph glyph-name="six.numr" horiz-adv-x="310" 
d="M231 353q-68 0 -101 40t-33 94q0 58 27 111t76.5 86.5t117.5 33.5q36 0 54 -4.5l18 -4.5l-13 -58l-16.5 4t-42.5 4q-49 0 -86 -26t-55 -70q10 13 28 22.5t46 9.5q59 0 87.5 -34.5t28.5 -76.5q0 -32 -15.5 -62t-45.5 -49.5t-75 -19.5zM229 408q35 0 53 23.5t18 50.5
q0 24 -15 43t-46 19q-36 0 -54.5 -23.5t-18.5 -50.5q0 -23 15.5 -42.5t47.5 -19.5z" />
    <glyph glyph-name="seven.numr" horiz-adv-x="215" 
d="M125 358q17 80 50 140t67 99.5t54 57.5h-179l11 58h257l-10 -48l-22.5 -21.5t-54 -62t-60.5 -97t-42 -126.5h-71z" />
    <glyph glyph-name="eight.numr" horiz-adv-x="211" 
d="M129 353q-67 0 -98.5 29.5t-31.5 67.5q0 27 18.5 56.5t64.5 42.5v3q-25 9 -37 28.5t-12 40.5q0 36 33 66.5t97 30.5q60 0 91 -27.5t31 -62.5q0 -24 -17 -48.5t-54 -36.5v-2q30 -13 44 -35t14 -47q0 -26 -16 -50.5t-47.5 -40t-79.5 -15.5zM156 569q32 0 48 16.5t16 35.5
q0 17 -14 31.5t-44 14.5q-32 0 -48 -16.5t-16 -34.5t14 -32.5t44 -14.5zM131 406q37 0 55.5 19t18.5 42q0 21 -16 38t-48 17q-37 0 -56 -20t-19 -43q0 -20 16 -36.5t49 -16.5z" />
    <glyph glyph-name="nine.numr" horiz-adv-x="350" 
d="M237 716q67 0 100.5 -40t33.5 -94q0 -58 -27 -111t-77 -86.5t-118 -33.5q-36 0 -54 4.5l-18 4.5l13 58l16.5 -4t42.5 -4q49 0 86 26t56 70q-11 -13 -29 -22.5t-45 -9.5q-59 0 -87.5 34.5t-28.5 76.5q0 32 15 62t45.5 49.5t75.5 19.5zM239 661q-35 0 -53.5 -23.5
t-18.5 -50.5q0 -24 15 -43t46 -19q36 0 55 23.5t19 50.5q0 23 -16 42.5t-47 19.5z" />
    <glyph glyph-name="colon.case" horiz-adv-x="254" 
d="M202 533q-25 0 -40.5 16.5t-15.5 39.5t15.5 39t40.5 16q23 0 39.5 -16t16.5 -39q0 -24 -16.5 -40t-39.5 -16zM106 94q-24 0 -39.5 17t-15.5 39q0 23 15.5 39.5t39.5 16.5t40 -16.5t16 -39.5t-16 -39.5t-40 -16.5z" />
    <glyph glyph-name="parenleft.case" horiz-adv-x="426" 
d="M277 -176q-67 25 -112 83t-67.5 136.5t-22.5 164.5q0 83 18 169t53.5 165.5t86.5 144.5t117 106.5t145 51.5l-15 -69q-61 -12 -112 -50t-91 -96t-68.5 -128t-43 -146.5t-14.5 -150.5q0 -70 18 -134t49.5 -111t73.5 -67z" />
    <glyph glyph-name="parenright.case" horiz-adv-x="409" 
d="M165 845q67 -25 112 -83t68 -136.5t23 -164.5q0 -83 -18.5 -169t-53.5 -165.5t-86.5 -144t-117 -106.5t-144.5 -52l15 69q61 12 112 50.5t91 96t68 127.5t43 146.5t15 151.5q0 70 -18 133.5t-50 110.5t-74 67z" />
    <glyph glyph-name="braceleft.case" horiz-adv-x="414" 
d="M192 -167q-72 0 -100.5 41t-16.5 101l58 271q7 31 -5.5 49t-47.5 18h-33l13 65h34q67 0 82 69l58 274q14 66 55 101.5t104 35.5h113l-15 -67h-98q-37 0 -56.5 -17.5t-27.5 -54.5l-57 -271q-9 -39 -26 -63t-55 -38l-1 -3q34 -14 39.5 -42t-2.5 -66l-58 -269q-7 -34 8 -51
t45 -17h99l-13 -66h-96z" />
    <glyph glyph-name="braceright.case" horiz-adv-x="414" 
d="M238 858q73 0 101.5 -41t15.5 -101l-58 -271q-7 -32 5.5 -49.5t47.5 -17.5h33l-13 -65h-33q-68 0 -83 -70l-58 -273q-14 -66 -55 -101.5t-104 -35.5h-112l14 66h98q37 0 56.5 18t27.5 55l58 271q8 38 25 62.5t56 38.5v3q-33 14 -39 42t2 65l58 270q8 34 -7 50.5t-46 16.5
h-99l14 67h95z" />
    <glyph glyph-name="bracketleft.case" horiz-adv-x="442" 
d="M-15 -169l218 1026h283l-14 -67h-208l-189 -892h207l-14 -67h-283z" />
    <glyph glyph-name="bracketright.case" horiz-adv-x="442" 
d="M458 857l-218 -1026h-283l14 67h208l189 892h-208l15 67h283z" />
    <glyph glyph-name="uni03060301" 
d="M374 765l-62 1l87 171h75zM317 608q-44 0 -70 13t-40 32.5t-18.5 39t-5 33l-0.5 13.5h58l-0.5 -12t5.5 -28t22 -28t49 -12t54.5 12t34 28t17.5 28l5 12h58l-4 -13.5t-14.5 -33t-29.5 -39t-49 -32.5t-72 -13z" />
    <glyph glyph-name="uni03060300" 
d="M301 765l-75 172h74l62 -171zM317 608q-44 0 -70 13t-40 32.5t-18.5 39t-5 33l-0.5 13.5h58l-0.5 -12t5.5 -28t22 -28t49 -12t54.5 12t34 28t17.5 28l5 12h58l-4 -13.5t-14.5 -33t-29.5 -39t-49 -32.5t-72 -13z" />
    <glyph glyph-name="uni03060309" 
d="M306 751l7 33q4 20 23 29l15 6q28 13 43 27t15 33q0 13 -10.5 24t-32.5 11q-25 0 -36 -11t-13.5 -22.5l-2.5 -11.5h-49l3 13.5t12.5 31t30 31t56.5 13.5q49 0 71 -25t22 -54q0 -35 -28 -57.5t-68 -38.5l-7 -32h-51zM317 608q-44 0 -70 13t-40 32.5t-18.5 39t-5 33
l-0.5 13.5h58l-0.5 -12t5.5 -28t22 -28t49 -12t54.5 12t34 28t17.5 28l5 12h58l-4 -13.5t-14.5 -33t-29.5 -39t-49 -32.5t-72 -13z" />
    <glyph glyph-name="uni03060303" 
d="M414 784q-24 0 -40.5 11t-29 26t-24 26t-25.5 11q-17 0 -28 -18.5t-17 -50.5h-51q10 55 32.5 89t64.5 34q26 0 42.5 -11t28.5 -25.5t23.5 -25.5t25.5 -11q32 0 43 68h52q-11 -54 -33 -88.5t-64 -34.5zM317 608q-44 0 -70 13t-40 32.5t-18.5 39t-5 33l-0.5 13.5h58
l-0.5 -12t5.5 -28t22 -28t49 -12t54.5 12t34 28t17.5 28l5 12h58l-4 -13.5t-14.5 -33t-29.5 -39t-49 -32.5t-72 -13z" />
    <glyph glyph-name="uni03020301" 
d="M502 732h-62l86 171h76zM144 607l148 144h67l87 -144h-65l-60 100l-101 -100h-76z" />
    <glyph glyph-name="uni03020300" 
d="M444 732l-75 171h74l61 -171h-60zM144 607l148 144h67l87 -144h-65l-60 100l-101 -100h-76z" />
    <glyph glyph-name="uni03020309" 
d="M434 718l7 32q4 20 23 29l14 7q29 12 43.5 26.5t14.5 32.5q0 13 -10 24.5t-33 11.5q-25 0 -36 -11.5t-13.5 -22.5l-2.5 -11h-48l2.5 13.5t12 31t30.5 31t57 13.5q48 0 70.5 -25t22.5 -55q0 -35 -28 -57.5t-69 -38.5l-7 -31h-50zM144 607l148 144h67l87 -144h-65l-60 100
l-101 -100h-76z" />
    <glyph glyph-name="uni03020303" 
d="M404 789q-25 0 -41.5 11.5t-28.5 26t-23.5 26t-26.5 11.5q-17 0 -28 -18.5t-16 -50.5h-52q10 54 32.5 88t65.5 34q25 0 42 -11t29 -25.5t23 -25.5t25 -11q32 0 43 68h52q-10 -53 -32 -88t-64 -35zM145 607l148 144h66l87 -144h-65l-60 100l-100 -100h-76z" />
    </font>
</defs>
</svg>
