<?xml version="1.0" standalone="no"?>
<!DOCTYPE svg PUBLIC "-//W3C//DTD SVG 1.1//EN" "http://www.w3.org/Graphics/SVG/1.1/DTD/svg11.dtd" >
<svg xmlns="http://www.w3.org/2000/svg" xmlns:xlink="http://www.w3.org/1999/xlink" version="1.1">
<metadata>
Created by FontForge 20170731 at Sun Aug 15 09:03:41 2021
 By Aleksey,,,
Copyright 2021 The Be Vietnam Pro Project Authors (https://github.com/bettergui/BeVietnamPro)
</metadata>
<defs>
<font id="BeVietnamPro-Black" horiz-adv-x="0" >
  <font-face 
    font-family="Be Vietnam Pro Black"
    font-weight="900"
    font-stretch="normal"
    units-per-em="1000"
    panose-1="0 0 0 0 0 0 0 0 0 0"
    ascent="800"
    descent="-200"
    x-height="530"
    cap-height="740"
    bbox="-160 -263 1233 1239"
    underline-thickness="50"
    underline-position="-175"
    unicode-range="U+000D-2265"
  />
<missing-glyph horiz-adv-x="500" 
 />
    <glyph glyph-name="f_f.liga" unicode="ff" horiz-adv-x="808" 
d="M112 0v380h-82v150h82v26q0 27 8 63.5t29.5 71t63 57t108.5 22.5q34 0 56 -4.5l22 -4.5v-129l-9.5 1t-17.5 1q-38 0 -54 -20.5t-16 -57.5v-26h194v26q0 27 8 63.5t29.5 71t63 57t108.5 22.5q34 0 56 -4.5l22 -4.5v-129l-9.5 1t-17.5 1q-38 0 -54 -20.5t-16 -57.5v-26h97
v-150h-97v-380h-190v380h-194v-380h-190z" />
    <glyph glyph-name="f_f_i.liga" unicode="ffi" horiz-adv-x="1127" 
d="M968 583q-47 0 -77.5 30.5t-30.5 72.5q0 44 30.5 74t77.5 30t78 -30t31 -74q0 -42 -31 -72.5t-78 -30.5zM112 0v380h-82v150h82v26q0 27 8 63.5t29.5 71t63 57t108.5 22.5q34 0 56 -4.5l22 -4.5v-129l-9.5 1t-17.5 1q-38 0 -54 -20.5t-16 -57.5v-26h194v26q0 27 8 63.5
t29.5 71t63 57t108.5 22.5q34 0 56 -4.5l22 -4.5v-129l-9.5 1t-17.5 1q-38 0 -54 -20.5t-16 -57.5v-26h377v-530h-190v380h-187v-380h-190v380h-194v-380h-190z" />
    <glyph glyph-name="f_i.liga" unicode="fi" horiz-adv-x="743" 
d="M584 583q-47 0 -77.5 30.5t-30.5 72.5q0 44 30.5 74t77.5 30t78 -30t31 -74q0 -42 -31 -72.5t-78 -30.5zM112 0v380h-82v150h82v26q0 27 8 63.5t29.5 71t63 57t108.5 22.5q34 0 56 -4.5l22 -4.5v-129l-9.5 1t-17.5 1q-38 0 -54 -20.5t-16 -57.5v-26h377v-530h-190v380
h-187v-380h-190z" />
    <glyph glyph-name="colon_b_e_colon.liga" unicode="&#x3a;be&#x3a;" horiz-adv-x="878" 
d="M123 458l23 177h160q43 0 66.5 16.5t31 43t3.5 55.5q52 -14 81 -54.5t29 -96.5q0 -38 -16.5 -70t-55 -51.5t-105.5 -19.5h-217zM64 0l36 267h229q68 0 106 25t49 65t-1 83q50 -10 89.5 -41.5t62.5 -77t23 -99.5q0 -61 -29.5 -111.5t-86.5 -80.5t-138 -30h-340z" />
    <glyph glyph-name="colon_d_d_colon.liga" unicode="&#x3a;dd&#x3a;" horiz-adv-x="667" 
d="M257 140q-61 0 -101.5 29.5t-61 76.5t-20.5 97q0 51 20.5 97.5t61 76.5t101.5 30q42 0 67.5 -13.5t37 -26.5t10.5 -12h7v77h-97v88h97v40h158v-40h61v-88h-61v-427h-158v47h-7q1 1 -10.5 -12t-37 -26.5t-67.5 -13.5zM309 265q38 0 57 25t19 53q0 30 -19 55t-57 25
q-37 0 -56 -25t-19 -55q0 -28 19 -53t56 -25zM69 0v75h530v-75h-530z" />
    <glyph glyph-name="colon_s_t_a_r_colon.liga" unicode="&#x3a;star&#x3a;" horiz-adv-x="831" 
d="M215 51l35 223l-160 160l221 37l103 201l103 -199l224 -38l-158 -157l35 -226l-200 104z" />
    <glyph glyph-name=".notdef" horiz-adv-x="500" 
 />
    <glyph glyph-name=".null" 
 />
    <glyph glyph-name="nonmarkingreturn" horiz-adv-x="333" 
 />
    <glyph glyph-name="CR" unicode="&#xd;" horiz-adv-x="600" 
 />
    <glyph glyph-name="space" unicode=" " horiz-adv-x="230" 
 />
    <glyph glyph-name="exclam" unicode="!" horiz-adv-x="381" 
d="M112 237l-27 503h211l-31 -503h-153zM190 -9q-42 0 -68 27.5t-26 66.5t26 66.5t68 27.5q40 0 67 -27.5t27 -66.5t-27 -66.5t-67 -27.5z" />
    <glyph glyph-name="quotedbl" unicode="&#x22;" horiz-adv-x="440" 
d="M249 502l10 238h151l-61 -238h-100zM60 502l10 238h151l-61 -238h-100z" />
    <glyph glyph-name="numbersign" unicode="#" horiz-adv-x="871" 
d="M147 0l31 156h-133l32 152h132l25 125h-130l32 152h129l31 155h152l-31 -155h125l31 155h152l-31 -155h132l-32 -152h-131l-25 -125h129l-32 -152h-128l-31 -156h-152l31 156h-125l-31 -156h-152zM361 308h125l25 125h-125z" />
    <glyph glyph-name="dollar" unicode="$" horiz-adv-x="652" 
d="M298 -94v84q-66 5 -111.5 24.5t-75 47.5t-46 58.5t-24 57.5t-9.5 43.5l-2 16.5h178l2.5 -12.5t11 -30.5t26.5 -34.5t50 -23.5v172l-9 2q-35 8 -76 20.5t-78.5 35t-61 60.5t-23.5 97q0 66 32.5 114.5t88.5 76.5t127 34v83h80v-84q68 -7 112 -32t70 -57.5t38.5 -63.5
t16.5 -51.5l4 -20.5h-174l-4 15.5t-18.5 35t-44.5 30.5v-158l17 -4q32 -7 71 -19.5t76 -36t60.5 -63t23.5 -99.5q0 -96 -66.5 -159t-181.5 -74v-85h-80zM222 533q0 -26 18.5 -41.5t57.5 -26.5v144q-36 -6 -56 -27t-20 -49zM452 219q0 28 -19 44.5t-55 26.5v-152
q35 8 54.5 30t19.5 51z" />
    <glyph glyph-name="percent" unicode="%" horiz-adv-x="885" 
d="M222 411q-59 0 -98.5 25t-59 64t-19.5 81t19.5 81t59 63.5t98.5 24.5t98 -24.5t58.5 -63.5t19.5 -81t-19.5 -81t-58.5 -64t-98 -25zM156 0l432 740h141l-432 -740h-141zM221 514q32 0 47.5 20.5t15.5 45.5t-15.5 45.5t-47.5 20.5q-31 0 -47 -20.5t-16 -45.5t16 -45.5
t47 -20.5zM664 -10q-59 0 -98.5 25t-59 63.5t-19.5 81.5q0 42 19.5 81t59 63.5t98.5 24.5t98 -24.5t58.5 -63.5t19.5 -81q0 -43 -19.5 -81.5t-58.5 -63.5t-98 -25zM663 93q32 0 47.5 20.5t15.5 45.5t-15.5 45.5t-47.5 20.5q-31 0 -47 -20.5t-16 -45.5t16 -45.5t47 -20.5z
" />
    <glyph glyph-name="ampersand" unicode="&#x26;" horiz-adv-x="778" 
d="M309 -10q-77 0 -139 27.5t-98 78.5t-36 123q0 64 30.5 110.5t93.5 83.5q-20 26 -37 62t-17 85q0 63 31 105.5t80 63.5t102 21t100 -20t77 -59t30 -96q0 -46 -18 -80t-48.5 -59.5t-65.5 -45.5l99 -105q7 28 11.5 61t4.5 72h147q0 -78 -13.5 -140.5t-37.5 -110.5l155 -165
h-230l-36 39q-40 -26 -87.5 -38.5t-97.5 -12.5zM259 567q0 -23 13.5 -44.5t31.5 -40.5q27 13 48.5 33.5t21.5 54.5q0 28 -18 42.5t-39 14.5t-39.5 -15t-18.5 -45zM206 232q0 -37 28 -68t85 -31q41 0 76 18l-145 161q-21 -17 -32.5 -36.5t-11.5 -43.5z" />
    <glyph glyph-name="quotesingle" unicode="'" horiz-adv-x="251" 
d="M60 502l10 238h151l-61 -238h-100z" />
    <glyph glyph-name="parenleft" unicode="(" horiz-adv-x="463" 
d="M432 -241q-96 9 -170.5 55.5t-126.5 120.5t-78.5 166t-26.5 192t26.5 192t78.5 166t126.5 120.5t170.5 55.5v-171q-42 -6 -79.5 -37.5t-67 -82t-46.5 -113t-17 -130.5t17 -130.5t46.5 -113t67 -82t79.5 -37.5v-171z" />
    <glyph glyph-name="parenright" unicode=")" horiz-adv-x="463" 
d="M31 827q96 -9 170.5 -55.5t126.5 -120.5t78.5 -166t26.5 -192t-26.5 -192t-78.5 -166t-126.5 -120.5t-170.5 -55.5v171q42 6 79.5 37.5t67 82t46.5 113t17 130.5t-17 130.5t-46.5 113t-67 82t-79.5 37.5v171z" />
    <glyph glyph-name="asterisk" unicode="*" horiz-adv-x="524" 
d="M189 317l-104 76l78 103l-123 36l39 123l122 -44l-4 129h129l-4 -129l122 44l40 -123l-124 -36l79 -103l-105 -76l-72 106z" />
    <glyph glyph-name="plus" unicode="+" horiz-adv-x="681" 
d="M115 238v147h152v152h147v-152h152v-147h-152v-152h-147v152h-152z" />
    <glyph glyph-name="comma" unicode="," horiz-adv-x="375" 
d="M89 -159l89 149q-41 3 -67 31.5t-26 67.5q0 41 28 70t73 29q44 0 74 -28.5t30 -76.5q0 -25 -12 -55t-39 -72.5t-72 -103.5l-8 -11h-70z" />
    <glyph glyph-name="hyphen" unicode="-" horiz-adv-x="606" 
d="M115 238v147h376v-147h-376z" />
    <glyph glyph-name="period" unicode="." horiz-adv-x="368" 
d="M184 -10q-43 0 -71 29.5t-28 69.5q0 41 28 70t71 29t71 -29t28 -70q0 -40 -28 -69.5t-71 -29.5z" />
    <glyph glyph-name="slash" unicode="/" horiz-adv-x="566" 
d="M30 -201l349 1034h167l-349 -1034h-167z" />
    <glyph glyph-name="zero" unicode="0" horiz-adv-x="716" 
d="M358 -10q-78 0 -138.5 29.5t-103 81.5t-64.5 121t-22 148t22 148t64.5 121t103 81.5t138.5 29.5t138.5 -29.5t103 -81.5t64.5 -121t22 -148t-22 -148t-64.5 -121t-103 -81.5t-138.5 -29.5zM358 158q57 0 93.5 53t36.5 159q0 107 -36.5 159t-93.5 52t-93.5 -52t-36.5 -159
q0 -106 36.5 -159t93.5 -53z" />
    <glyph glyph-name="one" unicode="1" horiz-adv-x="461" 
d="M381 740v-740h-192v500h-145v118l21 6q70 18 113.5 43.5t83.5 65.5l7 7h112z" />
    <glyph glyph-name="two" unicode="2" horiz-adv-x="673" 
d="M43 0v131l105 82q88 69 148.5 116t91.5 85t31 81q0 45 -30.5 67.5t-65.5 22.5q-38 0 -68.5 -26t-30.5 -81h-184q0 69 24 120.5t65 85t93 50t108 16.5q79 0 142.5 -30t101 -84t37.5 -127q0 -68 -33.5 -124t-95 -108.5t-147.5 -111.5h283v-165h-575z" />
    <glyph glyph-name="three" unicode="3" horiz-adv-x="694" 
d="M351 -10q-77 0 -129.5 17.5t-85 44.5t-50 58t-24 58t-7.5 44.5l-1 17.5h181l1.5 -12.5t11 -29t33 -29t67.5 -12.5q48 0 75.5 22t27.5 54q0 30 -24.5 53.5t-75.5 23.5h-100v147h102q44 0 66.5 22.5t22.5 50.5q0 30 -25 52t-69 22q-39 0 -60 -13.5t-30.5 -31.5t-11 -31.5
l-1.5 -13.5h-177l1 18t8 46t23.5 59t47.5 59t80.5 46t121.5 18q54 0 104 -14t90 -41t63.5 -66.5t23.5 -89.5q0 -48 -20.5 -81.5t-48.5 -53t-51 -26.5v-7q33 -12 63.5 -32.5t49.5 -51.5t19 -77q0 -70 -40.5 -119.5t-106.5 -75t-145 -25.5z" />
    <glyph glyph-name="four" unicode="4" horiz-adv-x="726" 
d="M389 0v137l-355 1v164l309 438h238v-443h105v-160h-105v-137h-192zM219 297h170v243z" />
    <glyph glyph-name="five" unicode="5" horiz-adv-x="696" 
d="M352 -10q-83 0 -148.5 29.5t-103.5 84t-40 129.5h178l3.5 -13.5t14.5 -31.5t32.5 -31.5t58.5 -13.5q56 0 83.5 33t27.5 73t-27 73t-82 33q-36 0 -56.5 -13.5t-28.5 -27.5l-8 -14h-190l70 440h461v-166h-335l-23 -140h5l7.5 9t25 21.5t47 21.5t72.5 9q80 0 136 -34.5
t85 -89.5t29 -118q0 -48 -18 -95t-55 -85t-92 -60.5t-129 -22.5z" />
    <glyph glyph-name="six" unicode="6" horiz-adv-x="713" 
d="M368 -10q-81 0 -141 27.5t-99 75t-58.5 108t-19.5 126.5q0 75 25.5 150t77.5 136.5t133 99t192 37.5q42 0 72.5 -4l30.5 -4v-169l-16 2t-39 4t-46 2q-91 0 -154 -43.5t-75 -127.5q11 17 32.5 37t55.5 33.5t85 13.5q79 0 132 -34t80 -88t27 -114q0 -49 -18.5 -96.5
t-55 -86.5t-92 -62t-129.5 -23zM370 146q53 0 79.5 32.5t26.5 72.5q0 39 -26.5 71.5t-79.5 32.5q-52 0 -79 -32.5t-27 -71.5q0 -40 27 -72.5t79 -32.5z" />
    <glyph glyph-name="seven" unicode="7" horiz-adv-x="600" 
d="M137 0q6 111 32.5 204t63.5 165.5t73.5 124t62.5 80.5h-346v166h557v-135l-23.5 -26t-59 -77t-72 -124.5t-63 -168t-31.5 -209.5h-194z" />
    <glyph glyph-name="eight" unicode="8" horiz-adv-x="690" 
d="M344 -10q-57 0 -109.5 13t-94.5 39.5t-66.5 66t-24.5 93.5q0 51 20.5 85t47 54t47.5 28.5t22 8.5v7q-1 0 -19 8t-41.5 26t-41.5 48.5t-18 75.5q0 65 38.5 111.5t102 71t137.5 24.5q75 0 138.5 -25t101.5 -70.5t38 -109.5q0 -46 -18 -76.5t-41.5 -49t-41.5 -26.5t-19 -8
v-7q1 0 22 -8.5t47.5 -28.5t47 -54t20.5 -85q0 -54 -24.5 -93.5t-66.5 -66t-94.5 -39.5t-109.5 -13zM344 447q36 0 67 20t31 60q0 39 -30.5 59t-67.5 20q-36 0 -66.5 -20t-30.5 -60t30.5 -59.5t66.5 -19.5zM344 138q55 0 83 27.5t28 59.5t-28 59t-83 27t-83 -27t-28 -59
t28 -59.5t83 -27.5z" />
    <glyph glyph-name="nine" unicode="9" horiz-adv-x="713" 
d="M345 750q81 0 141 -27.5t99 -75t58.5 -108t19.5 -126.5q0 -75 -25.5 -150t-77.5 -136.5t-133 -99t-192 -37.5q-42 0 -72.5 4l-30.5 4v169l16 -2t39.5 -4t45.5 -2q91 0 154 43.5t75 127.5q-11 -17 -32.5 -37t-55.5 -33.5t-85 -13.5q-78 0 -131.5 34t-80.5 88t-27 114
q0 49 18.5 96.5t55 86.5t92 62t129.5 23zM343 594q-53 0 -79.5 -32.5t-26.5 -72.5q0 -39 26.5 -71.5t79.5 -32.5t79.5 32.5t26.5 71.5q0 40 -26.5 72.5t-79.5 32.5z" />
    <glyph glyph-name="colon" unicode=":" horiz-adv-x="368" 
d="M184 342q-43 0 -71 29.5t-28 69.5q0 41 28 70t71 29t71 -29t28 -70q0 -40 -28 -69.5t-71 -29.5zM184 -10q-43 0 -71 29.5t-28 69.5q0 41 28 70t71 29t71 -29t28 -70q0 -40 -28 -69.5t-71 -29.5z" />
    <glyph glyph-name="semicolon" unicode=";" horiz-adv-x="375" 
d="M188 342q-43 0 -71 29.5t-28 69.5q0 41 28 70t71 29t71 -29t28 -70q0 -40 -28 -69.5t-71 -29.5zM89 -159l89 149q-41 3 -67 31.5t-26 67.5q0 41 28 70t73 29q44 0 74 -28.5t30 -76.5q0 -25 -12 -55t-39 -72.5t-72 -103.5l-8 -11h-70z" />
    <glyph glyph-name="less" unicode="&#x3c;" horiz-adv-x="585" 
d="M515 98l-445 189v109l445 189v-152l-241 -90l241 -93v-152z" />
    <glyph glyph-name="equal" unicode="=" horiz-adv-x="770" 
d="M115 339v153h540v-153h-540zM115 108v153h540v-153h-540z" />
    <glyph glyph-name="greater" unicode="&#x3e;" horiz-adv-x="585" 
d="M70 98v152l241 93l-241 90v152l445 -189v-109z" />
    <glyph glyph-name="question" unicode="?" horiz-adv-x="653" 
d="M233 233v31q0 43 17.5 73.5t43 53.5t50.5 42t42.5 39.5t17.5 45.5q0 28 -22 48t-59 20q-35 0 -61 -23t-26 -73h-182q0 89 39.5 146.5t102.5 85.5t134 28q74 0 134.5 -28.5t96.5 -79.5t36 -119q0 -49 -17.5 -83t-43.5 -58t-52.5 -42.5t-44 -36t-17.5 -39.5v-31h-189z
M327 -10q-42 0 -68 27.5t-26 66.5t26 66.5t68 27.5q40 0 67 -27.5t27 -66.5t-27 -66.5t-67 -27.5z" />
    <glyph glyph-name="at" unicode="@" horiz-adv-x="1027" 
d="M528 -190q-126 0 -220 39.5t-155.5 106.5t-92 151t-30.5 172q0 90 31.5 176t94 155t155 109.5t213.5 40.5q96 0 181 -30t151 -87t103.5 -138.5t37.5 -184.5q0 -75 -22.5 -135.5t-69 -96.5t-120.5 -36q-44 0 -74.5 11.5t-49 26t-27 26l-8.5 11.5h-10l-7.5 -11.5t-24 -26
t-44 -26t-67.5 -11.5q-65 0 -108 32.5t-64 84t-21 106.5t20.5 104.5t62 81t105.5 31.5q44 0 70 -12.5t37.5 -25.5l11.5 -13h6v43h151v-166q0 -76 14.5 -109.5t43.5 -33.5q31 0 45 33t14 91q0 89 -28.5 152.5t-77 103t-108.5 58t-123 18.5q-87 0 -152 -30t-109 -80
t-66 -112.5t-22 -127.5q0 -64 21.5 -125t65 -109.5t109.5 -77t154 -28.5q66 0 118.5 13t83 26l30.5 13l48 -121l-18.5 -9.5t-54.5 -21.5t-87.5 -21.5t-116.5 -9.5zM516 175q41 0 61.5 30.5t20.5 66.5q0 37 -20.5 67t-61.5 30q-40 0 -61 -30t-21 -67q0 -36 21 -66.5t61 -30.5
z" />
    <glyph glyph-name="A" unicode="A" horiz-adv-x="791" 
d="M20 0l246 740h259l246 -740h-200l-39 124h-273l-39 -124h-200zM310 288h171l-85 273z" />
    <glyph glyph-name="B" unicode="B" horiz-adv-x="733" 
d="M60 0v740h380q73 0 122 -24t74 -65t25 -92q0 -67 -35 -105.5t-80 -51.5v-9q29 -6 63.5 -26t59 -57.5t24.5 -97.5q0 -53 -25 -101.5t-78.5 -79.5t-141.5 -31h-388zM400 581h-148v-129h148q38 0 57 17.5t19 47.5q0 29 -19 46.5t-57 17.5zM414 309h-162v-150h162q44 0 65 21
t21 55t-21 54t-65 20z" />
    <glyph glyph-name="C" unicode="C" horiz-adv-x="783" 
d="M408 -10q-94 0 -165 32.5t-118 87t-71 122.5t-24 139t24 138.5t71 121.5t118 86.5t165 32.5q80 0 137 -20t95 -51.5t60.5 -67t34 -67t15 -51.5l3.5 -20h-190l-5 16t-20 37.5t-46 37.5t-82 16q-60 0 -100.5 -30.5t-60.5 -78.5t-20 -100t20 -100t60.5 -79t100.5 -31
q51 0 82 16t46 37t20 37l5 16h190l-3.5 -20t-15 -51.5t-34 -67t-60.5 -67t-95 -51.5t-137 -20z" />
    <glyph glyph-name="D" unicode="D" horiz-adv-x="766" 
d="M60 0v740h306q92 0 161.5 -31.5t116 -84.5t69.5 -119t23 -135t-23 -135t-69.5 -119t-116 -84.5t-161.5 -31.5h-306zM357 572h-105v-401h105q65 0 106 29.5t60.5 75.5t19.5 96t-19.5 95.5t-60.5 75t-106 29.5z" />
    <glyph glyph-name="E" unicode="E" horiz-adv-x="656" 
d="M60 0v740h536v-166h-344v-120h299v-158h-299v-130h349v-166h-541z" />
    <glyph glyph-name="F" unicode="F" horiz-adv-x="651" 
d="M60 0v740h536v-166h-344v-160h299v-159h-299v-255h-192z" />
    <glyph glyph-name="G" unicode="G" horiz-adv-x="795" 
d="M414 -10q-96 0 -168 32t-120 86t-72 122t-24 139t24.5 139t73 122.5t121.5 87t170 32.5q77 0 132.5 -19t92.5 -49.5t59.5 -64.5t34 -64.5t15.5 -49.5l4 -19h-190l-5.5 15t-21 34t-44.5 34t-77 15q-63 0 -105.5 -30.5t-64 -78.5t-21.5 -101t22 -102.5t65.5 -81
t107.5 -31.5q63 0 100.5 28.5t49.5 75.5h-173v148h364v-61q0 -117 -45 -197t-123.5 -120.5t-181.5 -40.5z" />
    <glyph glyph-name="H" unicode="H" horiz-adv-x="748" 
d="M60 0v740h192v-278h244v278h192v-740h-192v298h-244v-298h-192z" />
    <glyph glyph-name="I" unicode="I" horiz-adv-x="312" 
d="M60 0v740h192v-740h-192z" />
    <glyph glyph-name="J" unicode="J" horiz-adv-x="508" 
d="M158 -10q-50 0 -84 5l-34 5v157l24 -2.5t55 -2.5q64 0 101.5 30t37.5 109v449h190v-454q0 -58 -15 -111.5t-48.5 -95t-89.5 -65.5t-137 -24z" />
    <glyph glyph-name="K" unicode="K" horiz-adv-x="740" 
d="M60 0v740h192v-296l227 296h232l-285 -353l294 -387h-241l-227 309v-309h-192z" />
    <glyph glyph-name="L" unicode="L" horiz-adv-x="656" 
d="M60 0v740h192v-574h349v-166h-541z" />
    <glyph glyph-name="M" unicode="M" horiz-adv-x="912" 
d="M60 0v740h260l137 -338l145 338h250v-740h-190v441l-118 -279h-176l-118 281v-443h-190z" />
    <glyph glyph-name="N" unicode="N" horiz-adv-x="760" 
d="M60 0v740h177l273 -411v411h190v-740h-179l-271 390v-390h-190z" />
    <glyph glyph-name="O" unicode="O" horiz-adv-x="830" 
d="M415 -10q-96 0 -168 32.5t-120 87t-72.5 122.5t-24.5 139t24.5 138.5t72.5 121.5t120 86.5t168 32.5t168 -32.5t120.5 -86.5t72.5 -121.5t24 -138.5t-24 -139t-72.5 -122.5t-120.5 -87t-168 -32.5zM415 161q62 0 103 30.5t61.5 79t20.5 100.5t-20.5 100t-61.5 78.5
t-103 30.5q-61 0 -102 -30.5t-61.5 -78.5t-20.5 -100t20.5 -100.5t61.5 -79t102 -30.5z" />
    <glyph glyph-name="P" unicode="P" horiz-adv-x="702" 
d="M60 0v740h333q95 0 158 -36.5t94.5 -93.5t31.5 -120t-31.5 -120.5t-94.5 -94t-158 -36.5h-141v-239h-192zM392 573h-140v-168h140q46 0 68.5 26.5t22.5 57.5q0 32 -22.5 58t-68.5 26z" />
    <glyph glyph-name="Q" unicode="Q" horiz-adv-x="829" 
d="M415 -10q-96 0 -168 32.5t-120 87t-72.5 122.5t-24.5 139t24.5 138.5t72.5 121.5t120 86.5t168 32.5t168 -32.5t120.5 -86.5t72.5 -121.5t24 -138.5q0 -69 -22.5 -135t-67.5 -119l99 -117h-191l-24 28q-38 -18 -82.5 -28t-96.5 -10zM415 161q30 0 57 8l-109 127l118 94
l99 -118q20 46 20 99q0 52 -20.5 100t-61.5 78.5t-103 30.5q-61 0 -102 -30.5t-61.5 -78.5t-20.5 -100t20.5 -100.5t61.5 -79t102 -30.5z" />
    <glyph glyph-name="R" unicode="R" horiz-adv-x="741" 
d="M60 0v740h326q83 0 146 -27t98 -79.5t35 -129.5q0 -75 -34.5 -127.5t-94.5 -79.5l144 -297h-211l-125 268h-92v-268h-192zM383 575h-131v-154h131q40 0 65 20t25 57q0 38 -25 57.5t-65 19.5z" />
    <glyph glyph-name="S" unicode="S" horiz-adv-x="687" 
d="M355 -10q-77 0 -131.5 18t-90 46t-56.5 60t-31 60t-13 46l-3 18h194l4 -14t17.5 -32.5t41.5 -32.5t76 -14q59 0 82.5 22.5t23.5 48.5q0 24 -17.5 38.5t-60.5 21.5l-99 16q-64 11 -121 35t-92.5 69t-35.5 118q0 70 35.5 123t101.5 83t157 30q71 0 121 -16.5t83 -43
t53 -55.5t30 -55.5t13 -43l3 -16.5h-189l-3.5 11.5t-15.5 26t-35.5 26t-63.5 11.5q-38 0 -60.5 -11t-32 -27t-9.5 -32q0 -29 27.5 -42.5t67.5 -20.5l104 -17q62 -10 114.5 -35.5t84.5 -70t32 -111.5q0 -69 -36 -123t-104 -84.5t-166 -30.5z" />
    <glyph glyph-name="T" unicode="T" horiz-adv-x="710" 
d="M259 0v574h-224v166h640v-166h-224v-574h-192z" />
    <glyph glyph-name="U" unicode="U" horiz-adv-x="746" 
d="M373 -10q-57 0 -113 16t-101 52t-72 95.5t-27 146.5v440h192v-440q0 -54 29 -92t92 -38t92 38t29 92v440h192v-440q0 -87 -27 -146.5t-72 -95.5t-101 -52t-113 -16z" />
    <glyph glyph-name="V" unicode="V" horiz-adv-x="771" 
d="M256 0l-246 740h200l176 -562l175 562h200l-246 -740h-259z" />
    <glyph glyph-name="W" unicode="W" horiz-adv-x="1091" 
d="M196 0l-176 740h190l116 -497l120 497h199l120 -497l116 497h190l-176 -740h-253l-96 406l-97 -406h-253z" />
    <glyph glyph-name="X" unicode="X" horiz-adv-x="802" 
d="M45 0l222 370l-221 370h228l126 -229l128 229h228l-225 -370l226 -370h-229l-128 230l-126 -230h-229z" />
    <glyph glyph-name="Y" unicode="Y" horiz-adv-x="754" 
d="M281 0v247l-261 493h210l147 -296l146 296h211l-261 -493v-247h-192z" />
    <glyph glyph-name="Z" unicode="Z" horiz-adv-x="671" 
d="M39 0v133l339 440h-339v167h592v-132l-341 -440h341v-168h-592z" />
    <glyph glyph-name="bracketleft" unicode="[" horiz-adv-x="534" 
d="M60 -221v1084h374v-161h-179v-762h179v-161h-374z" />
    <glyph glyph-name="backslash" unicode="\" horiz-adv-x="561" 
d="M531 -201h-167l-349 1034h167z" />
    <glyph glyph-name="bracketright" unicode="]" horiz-adv-x="534" 
d="M474 863v-1084h-374v161h179v762h-179v161h374z" />
    <glyph glyph-name="asciicircum" unicode="^" horiz-adv-x="647" 
d="M115 551l135 189h147l135 -189h-141l-67 102l-68 -102h-141z" />
    <glyph glyph-name="underscore" unicode="_" horiz-adv-x="758" 
d="M115 -117v117h528v-117h-528z" />
    <glyph glyph-name="grave" unicode="`" horiz-adv-x="346" 
d="M151 599l-114 180h170l77 -179z" />
    <glyph glyph-name="a" unicode="a" horiz-adv-x="668" 
d="M273 540q39 0 67 -10.5t45.5 -23.5t26 -23.5l8.5 -10.5h8v58h190v-530h-190v58h-8l-8.5 -10.5t-26 -23.5t-45.5 -23.5t-67 -10.5q-58 0 -100.5 23.5t-71 63t-42.5 88.5t-14 100t14 100t42.5 88.5t71 63t100.5 23.5zM336 389q-33 0 -55 -18.5t-33 -47t-11 -58.5t11 -58.5
t33 -47t55 -18.5t55 18.5t33 47t11 58.5t-11 58.5t-33 47t-55 18.5z" />
    <glyph glyph-name="b" unicode="b" horiz-adv-x="678" 
d="M405 -10q-39 0 -67 10.5t-45.5 23.5t-26 23.5l-8.5 10.5h-8v-58h-190v760h190v-288h8l8.5 10.5t26 23.5t45.5 23.5t67 10.5q58 0 100.5 -23.5t71 -63t42.5 -88.5t14 -100t-14 -100t-42.5 -88.5t-71 -63t-100.5 -23.5zM342 141q34 0 55.5 18.5t32.5 47t11 58.5t-11 58.5
t-32.5 47t-55.5 18.5q-33 0 -55 -18.5t-33 -47t-11 -58.5t11 -58.5t33 -47t55 -18.5z" />
    <glyph glyph-name="c" unicode="c" horiz-adv-x="640" 
d="M331 -10q-73 0 -127 23t-89 62.5t-52.5 88.5t-17.5 101t17.5 101t52.5 88.5t89 62.5t127 23q76 0 125 -21.5t77 -53t41.5 -63.5t17 -53.5l3.5 -21.5h-175l-2.5 10t-11 23t-25 23t-44.5 10q-51 0 -76.5 -37.5t-25.5 -90.5t25.5 -90.5t76.5 -37.5q28 0 44.5 10t25 23t11 23
l2.5 10h175l-3.5 -21.5t-17 -53t-41.5 -63.5t-77 -53.5t-125 -21.5z" />
    <glyph glyph-name="d" unicode="d" horiz-adv-x="678" 
d="M273 -10q-58 0 -100.5 23.5t-71 63t-42.5 88.5t-14 100t14 100t42.5 88.5t71 63t100.5 23.5q39 0 67 -10.5t45.5 -23.5t26 -23.5l8.5 -10.5h8v288h190v-760h-190v58h-8l-8.5 -10.5t-26 -23.5t-45.5 -23.5t-67 -10.5zM336 141q33 0 55 18.5t33 47t11 58.5t-11 58.5t-33 47
t-55 18.5t-55 -18.5t-33 -47t-11 -58.5t11 -58.5t33 -47t55 -18.5z" />
    <glyph glyph-name="e" unicode="e" horiz-adv-x="630" 
d="M329 -10q-73 0 -126.5 23t-88.5 62.5t-52 89t-17 101.5q0 50 16.5 99t50.5 88.5t86.5 63t124.5 23.5q78 0 137 -33t92 -95.5t33 -151.5v-43h-349q3 -34 26.5 -60t66.5 -26q33 0 50 11.5t23 23l6 11.5h174l-5 -19t-19 -46.5t-42 -55.5t-73.5 -47t-113.5 -19zM235 322h169
q-1 41 -24 61.5t-61 20.5q-32 0 -56.5 -20t-27.5 -62z" />
    <glyph glyph-name="f" unicode="f" horiz-adv-x="424" 
d="M112 0v380h-82v150h82v26q0 27 8 63.5t29.5 71t63 57t108.5 22.5q34 0 56 -4.5l22 -4.5v-129l-9.5 1t-17.5 1q-38 0 -54 -20.5t-16 -57.5v-26h97v-150h-97v-380h-190z" />
    <glyph glyph-name="g" unicode="g" horiz-adv-x="670" 
d="M333 -214q-78 0 -128.5 19t-79 46.5t-41.5 55.5t-16.5 47l-3.5 19h183l6 -11t23.5 -22t53.5 -11q46 0 73 27t27 80v54h-8q-15 -25 -50.5 -49.5t-94.5 -24.5q-58 0 -101.5 22t-72.5 59.5t-43.5 84.5t-14.5 96t14.5 96t43.5 84.5t72.5 59.5t101.5 22q59 0 95 -25t50 -49h8
v64h190v-494q0 -46 -16.5 -90.5t-51 -80.5t-89 -57.5t-130.5 -21.5zM336 162q34 0 56.5 17t33.5 44t11 55q0 30 -11 56.5t-33.5 43t-56.5 16.5q-33 0 -55.5 -16.5t-34 -43t-11.5 -56.5q0 -28 11.5 -55t34 -44t55.5 -17z" />
    <glyph glyph-name="h" unicode="h" horiz-adv-x="625" 
d="M60 0v760h190v-305h5q11 18 28.5 37.5t46.5 33.5t73 14q65 0 102.5 -29.5t53.5 -74t16 -89.5v-347h-190v309q0 29 -15 53.5t-52 24.5q-39 0 -53.5 -25t-14.5 -53v-309h-190z" />
    <glyph glyph-name="i" unicode="i" horiz-adv-x="317" 
d="M158 583q-47 0 -77.5 30.5t-30.5 72.5q0 44 30.5 74t77.5 30t78 -30t31 -74q0 -42 -31 -72.5t-78 -30.5zM63 0v530h190v-530h-190z" />
    <glyph glyph-name="j" unicode="j" horiz-adv-x="319" 
d="M160 583q-47 0 -77.5 30.5t-30.5 72.5q0 44 30.5 74t77.5 30t78 -30t31 -74q0 -42 -31 -72.5t-78 -30.5zM38 -215q-34 0 -56 3.5l-22 3.5v138l9.5 -1t19.5 -1q47 0 61.5 21t14.5 59v522h190v-528q0 -28 -6 -65t-27.5 -72t-65 -57.5t-118.5 -22.5z" />
    <glyph glyph-name="k" unicode="k" horiz-adv-x="628" 
d="M60 0v760h190v-433l151 203h206l-186 -242l197 -288h-217l-151 224v-224h-190z" />
    <glyph glyph-name="l" unicode="l" horiz-adv-x="310" 
d="M60 0v760h190v-760h-190z" />
    <glyph glyph-name="m" unicode="m" horiz-adv-x="898" 
d="M50 0v530h190v-69h6q20 34 55 56.5t88 22.5q60 0 94 -27.5t49 -64.5h3q12 19 33 40.5t53 36.5t76 15q54 0 87 -24t48.5 -59.5t15.5 -71.5v-385h-190v324q0 26 -14 44.5t-44 18.5q-29 0 -42.5 -18.5t-13.5 -44.5v-324h-190v324q0 26 -14 44.5t-44 18.5q-29 0 -42.5 -18.5
t-13.5 -44.5v-324h-190z" />
    <glyph glyph-name="n" unicode="n" horiz-adv-x="615" 
d="M50 0v530h190v-75h5q11 18 28.5 37.5t46.5 33.5t73 14q65 0 102.5 -29.5t53.5 -74t16 -89.5v-347h-190v309q0 29 -15 53.5t-52 24.5q-39 0 -53.5 -25t-14.5 -53v-309h-190z" />
    <glyph glyph-name="o" unicode="o" horiz-adv-x="668" 
d="M334 -10q-91 0 -156 38t-99 100.5t-34 136.5t34 136.5t99 100.5t156 38q92 0 156.5 -38t98.5 -100.5t34 -136.5t-34 -136.5t-98.5 -100.5t-156.5 -38zM334 142q46 0 72.5 35.5t26.5 87.5t-26.5 87.5t-72.5 35.5t-72.5 -35.5t-26.5 -87.5t26.5 -87.5t72.5 -35.5z" />
    <glyph glyph-name="p" unicode="p" horiz-adv-x="678" 
d="M60 -195v725h190v-58h8l8.5 10.5t26 23.5t45.5 23.5t67 10.5q58 0 100.5 -23.5t71 -63t42.5 -88.5t14 -100t-14 -100t-42.5 -88.5t-71 -63t-100.5 -23.5q-39 0 -67 10.5t-45.5 23.5t-26 23.5l-8.5 10.5h-8v-253h-190zM243 265q0 -30 11 -58.5t33 -47t55 -18.5
q34 0 55.5 18.5t32.5 47t11 58.5t-11 58.5t-32.5 47t-55.5 18.5q-33 0 -55 -18.5t-33 -47t-11 -58.5z" />
    <glyph glyph-name="q" unicode="q" horiz-adv-x="678" 
d="M428 -195v253h-8l-8.5 -10.5t-26 -23.5t-45.5 -23.5t-67 -10.5q-58 0 -100.5 23.5t-71 63t-42.5 88.5t-14 100t14 100t42.5 88.5t71 63t100.5 23.5q39 0 67 -10.5t45.5 -23.5t26 -23.5l8.5 -10.5h8v58h190v-725h-190zM336 141q33 0 55 18.5t33 47t11 58.5t-11 58.5
t-33 47t-55 18.5t-55 -18.5t-33 -47t-11 -58.5t11 -58.5t33 -47t55 -18.5z" />
    <glyph glyph-name="r" unicode="r" horiz-adv-x="453" 
d="M50 0v530h188v-84h6q8 22 23 43.5t43 36t74 14.5q24 0 36.5 -3.5l12.5 -3.5v-188l-13.5 3.5t-40.5 3.5q-72 0 -105.5 -38t-33.5 -123v-191h-190z" />
    <glyph glyph-name="s" unicode="s" horiz-adv-x="556" 
d="M293 -10q-70 0 -115.5 18.5t-72.5 46t-40.5 54.5t-17.5 45.5l-4 18.5h171l6 -12.5t25.5 -25t57.5 -12.5q25 0 36.5 6.5t15 14.5t3.5 12q0 25 -45 32l-73 12q-49 8 -93 26t-71 51t-27 86q0 50 26 90t76.5 63.5t122.5 23.5q65 0 108 -17.5t69 -42.5t39 -50.5t17 -43
l4 -17.5h-166l-5.5 10.5t-22 20.5t-48.5 10t-43 -11.5t-11 -22.5q0 -16 16 -22.5t41 -11.5l65 -12q82 -15 134 -52.5t52 -110.5q0 -76 -59 -126.5t-171 -50.5z" />
    <glyph glyph-name="t" unicode="t" horiz-adv-x="444" 
d="M311 -10q-60 0 -98 15.5t-59 40t-30 52.5t-11 52.5t-2 40.5v189h-86v150h86v130h190v-130h103v-150h-103v-182q0 -28 15 -45.5t55 -17.5q16 0 27 2.5l11 2.5v-140l-29.5 -5t-68.5 -5z" />
    <glyph glyph-name="u" unicode="u" horiz-adv-x="603" 
d="M210 -10q-58 0 -93.5 25t-51 65.5t-15.5 86.5v363h188v-316q0 -30 15 -50.5t48 -20.5q34 0 48 21.5t14 49.5v316h190v-530h-190v75h-6q-22 -40 -58 -62.5t-89 -22.5z" />
    <glyph glyph-name="v" unicode="v" horiz-adv-x="606" 
d="M204 0l-189 530h188l102 -320l98 320h188l-190 -530h-197z" />
    <glyph glyph-name="w" unicode="w" horiz-adv-x="893" 
d="M174 0l-159 530h188l74 -304l85 304h169l85 -304l74 304h188l-159 -530h-200l-72 255l-73 -255h-200z" />
    <glyph glyph-name="x" unicode="x" horiz-adv-x="640" 
d="M40 0l153 264l-153 266h195l84 -151l87 151h194l-160 -266l160 -264h-194l-87 152l-84 -152h-195z" />
    <glyph glyph-name="y" unicode="y" horiz-adv-x="606" 
d="M109 -195q-30 0 -46.5 2l-16.5 2v150l12 -1t33 -1q40 0 66.5 8t46.5 34l-189 531h188l102 -320l98 320h188l-179 -495q-27 -76 -64 -127.5t-93.5 -77t-145.5 -25.5z" />
    <glyph glyph-name="z" unicode="z" horiz-adv-x="533" 
d="M45 0v129l236 254h-231v147h457v-129l-236 -254h236v-147h-462z" />
    <glyph glyph-name="braceleft" unicode="{" horiz-adv-x="516" 
d="M366 -221q-112 0 -171 59t-59 171v172q0 60 -60 60h-46v160h46q60 0 60 60v172q0 112 59 171t171 59h110v-161h-85q-60 0 -60 -60v-181q0 -59 -18 -89.5t-72 -46.5v-8q54 -16 72 -47.5t18 -88.5v-181q0 -60 60 -60h85v-161h-110z" />
    <glyph glyph-name="bar" unicode="|" horiz-adv-x="452" 
d="M150 -259v1219h152v-1219h-152z" />
    <glyph glyph-name="braceright" unicode="}" horiz-adv-x="516" 
d="M150 863q112 0 171 -59t59 -171v-172q0 -60 60 -60h46v-160h-46q-60 0 -60 -60v-172q0 -112 -59 -171t-171 -59h-110v161h85q60 0 60 60v181q0 59 18 89.5t72 46.5v8q-54 17 -72 48t-18 88v181q0 60 -60 60h-85v161h110z" />
    <glyph glyph-name="asciitilde" unicode="~" horiz-adv-x="505" 
d="M331 312q-29 0 -50.5 9t-38 20.5t-30.5 20.5t-28 9q-16 0 -22 -14t-6 -39h-96q0 35 8.5 71.5t33.5 62t72 25.5q39 0 65 -14.5t45.5 -29.5t37.5 -15q27 0 27 53h96q0 -35 -8.5 -72t-33 -62t-72.5 -25z" />
    <glyph glyph-name="uni00A0" unicode="&#xa0;" horiz-adv-x="230" 
 />
    <glyph glyph-name="exclamdown" unicode="&#xa1;" horiz-adv-x="381" 
d="M190 528q41 0 67.5 -28t26.5 -67t-26.5 -66.5t-67.5 -27.5t-67.5 27.5t-26.5 66.5t26.5 67t67.5 28zM85 -222l27 503h153l31 -503h-211z" />
    <glyph glyph-name="cent" unicode="&#xa2;" horiz-adv-x="640" 
d="M289 -101v93q-83 9 -137 50t-80.5 100t-26.5 123t26.5 123t80.5 100t137 50v92h76v-91q66 -6 108.5 -29t67 -53.5t36.5 -60.5t15 -49.5l3 -19.5h-175l-3.5 12.5t-15.5 27.5t-36 22v-248q24 7 36 22t15.5 27.5l3.5 12.5h175l-3 -19.5t-15 -49.5t-36.5 -60.5t-67 -53.5
t-108.5 -29v-92h-76zM235 265q0 -39 13.5 -70t40.5 -46v232q-27 -15 -40.5 -46t-13.5 -70z" />
    <glyph glyph-name="sterling" unicode="&#xa3;" horiz-adv-x="712" 
d="M90 0v157q69 5 106 33t37 69q0 14 -4.5 26.5t-11.5 24.5h-145v70h92q-17 24 -30 55.5t-13 76.5q0 73 38.5 126t110 82.5t169.5 29.5q43 0 77.5 -4t55 -8.5l20.5 -4.5v-163l-18 4t-48.5 8t-66.5 4q-69 0 -110.5 -21t-41.5 -68q0 -32 16.5 -59.5t33.5 -57.5h179v-70h-150
q4 -18 4 -37q0 -28 -10.5 -49.5t-25 -36t-25 -22.5l-10.5 -8h303v-157h-532z" />
    <glyph glyph-name="currency" unicode="&#xa4;" horiz-adv-x="715" 
d="M130 70l-80 79l94 95q-18 29 -28 63t-10 71t10 71t28 63l-94 94l80 79l94 -94q61 39 134 39t134 -39l94 94l79 -79l-94 -94q39 -61 39 -134q0 -75 -39 -134l94 -95l-79 -79l-94 94q-29 -18 -63 -28t-71 -10t-71 10t-63 28zM358 255q34 0 61.5 16.5t44 44.5t16.5 62
t-16.5 61.5t-44 44t-61.5 16.5t-62 -16.5t-44.5 -44t-16.5 -61.5t16.5 -62t44.5 -44.5t62 -16.5z" />
    <glyph glyph-name="yen" unicode="&#xa5;" horiz-adv-x="754" 
d="M95 201v88h164l-43 81h-122v88h75l-149 282h210l147 -296l146 296h211l-149 -282h74v-88h-121l-43 -81h164v-88h-186v-201h-192v201h-186z" />
    <glyph glyph-name="brokenbar" unicode="&#xa6;" horiz-adv-x="452" 
d="M150 417v543h152v-543h-152zM150 -259v509h152v-509h-152z" />
    <glyph glyph-name="section" unicode="&#xa7;" horiz-adv-x="722" 
d="M372 -224q-77 0 -131.5 18t-90 46t-56.5 60t-31 60t-13 46l-3 18h194l4 -14t17.5 -32.5t41.5 -32.5t76 -14q59 0 82.5 22.5t23.5 48.5q0 25 -18.5 39t-59.5 21l-129 21q-64 11 -121 35t-92.5 66t-35.5 107q0 59 32 99.5t92 53.5v7q-43 32 -66.5 70t-23.5 91
q0 66 35.5 118t101.5 82t158 30q70 0 120 -16.5t83.5 -43t53 -55.5t29.5 -55.5t13 -43l3 -16.5h-189l-3.5 11.5t-15.5 26t-35.5 26t-63.5 11.5q-38 0 -60.5 -11t-32 -27t-9.5 -32q0 -29 27.5 -42.5t67.5 -20.5l100 -16q65 -10 121.5 -34.5t92 -66.5t35.5 -107q0 -59 -32 -99
t-92 -54v-7q47 -13 76.5 -53.5t29.5 -102.5q0 -69 -36 -122.5t-104 -84.5t-166 -31zM442 232l10 2t23 8.5t23 19.5t10 35q0 29 -24.5 46.5t-70.5 24.5l-129 21l-10 -2t-23 -8.5t-23 -19.5t-10 -35q0 -29 24.5 -46t70.5 -25z" />
    <glyph glyph-name="dieresis" unicode="&#xa8;" horiz-adv-x="571" 
d="M400 578q-45 0 -73.5 28.5t-28.5 68.5q0 41 28.5 69.5t73.5 28.5q44 0 73 -28.5t29 -69.5q0 -40 -29 -68.5t-73 -28.5zM149 578q-45 0 -73.5 28.5t-28.5 68.5q0 41 28.5 69.5t73.5 28.5q44 0 73 -28.5t29 -69.5q0 -40 -29 -68.5t-73 -28.5z" />
    <glyph glyph-name="copyright" unicode="&#xa9;" horiz-adv-x="788" 
d="M394 -10q-91 0 -159 30.5t-113.5 82t-68.5 116t-23 131.5q0 68 23 132t68.5 115.5t113.5 82t159 30.5t159.5 -30.5t114 -82t68 -115.5t22.5 -132q0 -67 -22.5 -131.5t-68 -116t-114 -82t-159.5 -30.5zM394 96q85 0 141.5 37t85 95.5t28.5 121.5q0 64 -28.5 122t-85 95
t-141.5 37t-141.5 -37t-85 -95t-28.5 -122q0 -63 28.5 -121.5t85 -95.5t141.5 -37zM405 164q-68 0 -112.5 27t-66.5 70t-22 89q0 47 22 89.5t66.5 69.5t112.5 27q51 0 84 -15t52 -36.5t28 -43.5t11.5 -37l2.5 -15h-129l-3 9.5t-14 19.5t-34 10q-32 0 -47.5 -23t-15.5 -55
t15.5 -55t47.5 -23q23 0 34 9.5t14 19.5l3 10h129l-2.5 -15t-11.5 -36.5t-28 -43.5t-52 -37t-84 -15z" />
    <glyph glyph-name="ordfeminine" unicode="&#xaa;" horiz-adv-x="433" 
d="M244 444q-13 -17 -36 -28t-54 -11q-46 0 -77.5 25t-31.5 71q0 93 143 107l60 6v7q0 17 -9 24t-23 7t-21 -6t-8.5 -12l-1.5 -6h-127l1.5 12.5t9.5 30.5t25.5 36t48 30.5t79.5 12.5q62 0 97 -20t49.5 -47.5t14.5 -51.5v-220h-135v33h-4zM177 513q0 -22 31 -22q17 0 28.5 10
t11.5 29v10l-44 -5q-27 -3 -27 -22z" />
    <glyph glyph-name="guillemotleft" unicode="&#xab;" horiz-adv-x="802" 
d="M578 80l-216 225l216 225h194l-211 -226l211 -224h-194zM251 80l-216 225l216 225h194l-211 -226l211 -224h-194z" />
    <glyph glyph-name="logicalnot" unicode="&#xac;" horiz-adv-x="655" 
d="M80 383v147h495v-282h-146v135h-349z" />
    <glyph glyph-name="uni00AD" unicode="&#xad;" horiz-adv-x="600" 
d="M115 238v147h376v-147h-376z" />
    <glyph glyph-name="registered" unicode="&#xae;" horiz-adv-x="430" 
d="M215 376q-61 0 -102.5 27t-62 70t-20.5 90t20.5 89.5t62 70t102.5 27.5q62 0 103 -27.5t61.5 -70t20.5 -89.5t-20.5 -90t-61.5 -70t-103 -27zM215 417q48 0 79.5 21.5t47 55t15.5 69.5q0 37 -15.5 70t-47 54.5t-79.5 21.5q-47 0 -79 -21.5t-47.5 -54.5t-15.5 -70
q0 -36 15.5 -69.5t47.5 -55t79 -21.5zM134 469v193h89q37 0 59.5 -16.5t22.5 -50.5q0 -40 -33 -58l35 -68h-67l-30 58h-13v-58h-63zM222 610h-25v-34h25q21 0 21 16q0 9 -6 13.5t-15 4.5z" />
    <glyph glyph-name="macron" unicode="&#xaf;" horiz-adv-x="400" 
d="M30 653v102h340v-102h-340z" />
    <glyph glyph-name="degree" unicode="&#xb0;" horiz-adv-x="468" 
d="M234 371q-52 0 -95 25.5t-68.5 69t-25.5 95.5t25.5 95t68.5 68.5t95 25.5q53 0 95.5 -25.5t68 -68.5t25.5 -95t-25.5 -95.5t-68 -69t-95.5 -25.5zM234 497q26 0 44.5 19t18.5 45t-18.5 44.5t-44.5 18.5t-44.5 -18.5t-18.5 -44.5t18.5 -45t44.5 -19z" />
    <glyph glyph-name="plusminus" unicode="&#xb1;" horiz-adv-x="683" 
d="M268 156v152h-152v147h152v152h147v-152h152v-147h-152v-152h-147zM115 0v98h453v-98h-453z" />
    <glyph glyph-name="uni00B2" unicode="&#xb2;" horiz-adv-x="472" 
d="M43 405v100l114 82q30 21 55.5 39t41.5 36t16 38t-13.5 30t-32.5 10t-33.5 -12t-14.5 -39h-136q0 59 26.5 97t69.5 56.5t92 18.5q54 0 96.5 -19.5t66.5 -53t24 -75.5q0 -55 -44.5 -100t-128.5 -89h175v-119h-374z" />
    <glyph glyph-name="uni00B3" unicode="&#xb3;" horiz-adv-x="490" 
d="M246 395q-58 0 -94.5 15.5t-56.5 39t-29 46.5t-10.5 38.5l-1.5 15.5h134l2.5 -10.5t13.5 -21t38 -10.5q29 0 40.5 13t11.5 26q0 16 -13 24t-32 8h-63v98h60q24 0 35 10t11 24q0 16 -12 26t-35 10q-24 0 -34 -10t-12 -20.5l-2 -10.5h-130l1.5 15.5t9.5 38.5t27.5 46
t54.5 38.5t90 15.5q49 0 90.5 -15t66.5 -44t25 -71q0 -34 -15 -55.5t-33.5 -32t-28.5 -12.5v-6q32 -8 58 -31t26 -66q0 -41 -25.5 -70.5t-69 -45.5t-98.5 -16z" />
    <glyph glyph-name="acute" unicode="&#xb4;" horiz-adv-x="346" 
d="M185 599l-133 1l77 179h170z" />
    <glyph glyph-name="uni00B5" unicode="&#xb5;" horiz-adv-x="665" 
d="M40 -195v725h190v-316q0 -30 15 -50.5t48 -20.5q34 0 48 21.5t14 49.5v316h190v-332q0 -23 10.5 -42t50.5 -19q11 0 19 1l8 1v-142l-26.5 -3.5t-55.5 -3.5q-74 0 -115 26.5t-58 58.5h-9l-4.5 -13t-16 -29.5t-32 -29.5t-53.5 -13q-25 0 -43 7.5t-27 14.5l-9 7l-5 -5
q30 -40 40.5 -80.5t10.5 -97.5v-31h-190z" />
    <glyph glyph-name="paragraph" unicode="&#xb6;" horiz-adv-x="609" 
d="M393 0h-113v295h-63q-71 0 -118 27.5t-70.5 73t-23.5 99.5q0 55 24 101.5t71.5 75t116.5 28.5h352v-700h-113v535h-63v-535z" />
    <glyph glyph-name="periodcentered" unicode="&#xb7;" horiz-adv-x="338" 
d="M169 259q-43 0 -71 29.5t-28 69.5q0 41 28 70t71 29t71 -29t28 -70q0 -40 -28 -69.5t-71 -29.5z" />
    <glyph glyph-name="cedilla" unicode="&#xb8;" horiz-adv-x="271" 
d="M69 -258q-20 0 -41 2t-34.5 4l-13.5 2v96l13 -1.5t31.5 -3t34.5 -1.5q44 0 58 11.5t14 23.5t-9.5 19t-25.5 7q-21 0 -37.5 -9.5l-16.5 -9.5l-64 65l68 93h115l-45 -60q7 1 16 1q50 0 80 -31t30 -77q0 -33 -18.5 -63t-57 -49t-97.5 -19z" />
    <glyph glyph-name="uni00B9" unicode="&#xb9;" horiz-adv-x="351" 
d="M271 860v-455h-134v294h-93v80l13 4q46 14 74.5 29t56.5 43l5 5h78z" />
    <glyph glyph-name="ordmasculine" unicode="&#xba;" horiz-adv-x="457" 
d="M228 405q-57 0 -98 24t-63 64t-22 87t22 86t63 62.5t98 23.5q58 0 99 -23.5t63 -62.5t22 -86t-22 -87t-63 -64t-99 -24zM228 516q22 0 35.5 17.5t13.5 46.5q0 27 -13.5 44t-35.5 17q-20 0 -34 -17t-14 -44q0 -28 14 -46t34 -18z" />
    <glyph glyph-name="guillemotright" unicode="&#xbb;" horiz-adv-x="802" 
d="M362 80l211 224l-211 226h194l216 -225l-216 -225h-194zM35 80l211 224l-211 226h194l216 -225l-216 -225h-194z" />
    <glyph glyph-name="onequarter" unicode="&#xbc;" horiz-adv-x="825" 
d="M159 0l419 700h126l-420 -700h-125zM195 699v-348h-114v216h-71v70l9 2q35 9 59.5 22.5t46.5 34.5l3 3h67zM728 3v64h-164v76l130 210h151v-202h46v-84h-46v-64h-117zM668 151h60v98z" />
    <glyph glyph-name="onehalf" unicode="&#xbd;" horiz-adv-x="804" 
d="M159 0l419 700h126l-420 -700h-125zM195 699v-348h-114v216h-71v70l9 2q35 9 59.5 22.5t46.5 34.5l3 3h67zM576 3v77l33 22q74 50 108.5 76t34.5 53q0 17 -10 24t-22 7q-14 0 -25 -9.5t-11 -31.5h-110q0 47 21 77.5t55 45t73 14.5q63 0 104.5 -33.5t41.5 -86.5
q0 -41 -29 -75.5t-95 -68.5h125v-91h-294z" />
    <glyph glyph-name="threequarters" unicode="&#xbe;" horiz-adv-x="846" 
d="M175 348q-44 0 -72 12t-43 29t-21.5 34.5t-7.5 29.5l-1 12h104l2 -7.5t10.5 -15t28.5 -7.5q21 0 29.5 9.5t8.5 19.5q0 9 -7 17.5t-29 8.5h-36v76h36q19 0 27.5 9t8.5 19t-8.5 18.5t-28.5 8.5q-18 0 -26 -7t-10 -14l-2 -7h-101l2.5 17.5t14.5 40t40.5 40t80.5 17.5
q40 0 72.5 -12t52.5 -35t20 -55q0 -23 -10.5 -40t-24 -26t-23.5 -11v-4q10 -2 24.5 -8.5t26 -21t11.5 -41.5q0 -46 -40.5 -76t-108.5 -30zM234 0l419 700h126l-420 -700h-125zM803 3v64h-164v76l130 210h151v-202h46v-84h-46v-64h-117zM743 151h60v98z" />
    <glyph glyph-name="questiondown" unicode="&#xbf;" horiz-adv-x="653" 
d="M324 539q41 0 67.5 -28t26.5 -67t-26.5 -66.5t-67.5 -27.5q-40 0 -67 27.5t-27 66.5t27 67t67 28zM321 -222q-73 0 -134 28.5t-97 80t-36 118.5q0 49 17.5 83t43.5 58t52.5 42.5t44 36t17.5 39.5v31h189v-31q0 -43 -17.5 -73.5t-42.5 -53.5t-50.5 -42t-43 -39t-17.5 -46
q0 -28 22 -48t59 -20q35 0 61 23.5t26 72.5h182q0 -88 -39.5 -146t-102.5 -86t-134 -28z" />
    <glyph glyph-name="Agrave" unicode="&#xc0;" horiz-adv-x="791" 
d="M331 809l-114 180h170l77 -179zM20 0l246 740h259l246 -740h-200l-39 124h-273l-39 -124h-200zM310 288h171l-85 273z" />
    <glyph glyph-name="Aacute" unicode="&#xc1;" horiz-adv-x="791" 
d="M464 809l-133 1l77 179h170zM20 0l246 740h259l246 -740h-200l-39 124h-273l-39 -124h-200zM310 288h171l-85 273z" />
    <glyph glyph-name="Acircumflex" unicode="&#xc2;" horiz-adv-x="791" 
d="M188 799l135 159h147l135 -159h-141l-67 81l-68 -81h-141zM20 0l246 740h259l246 -740h-200l-39 124h-273l-39 -124h-200zM310 288h171l-85 273z" />
    <glyph glyph-name="Atilde" unicode="&#xc3;" horiz-adv-x="791" 
d="M474 822q-27 0 -47 9t-35.5 20.5t-28.5 20.5t-27 9q-15 0 -20.5 -13.5t-5.5 -39.5h-93q0 35 8 71.5t31.5 62t68.5 25.5q37 0 61.5 -14.5t42.5 -29.5t35 -15q14 0 19.5 14t5.5 39h93q0 -34 -8 -71t-31 -62.5t-69 -25.5zM20 0l246 740h259l246 -740h-200l-39 124h-273
l-39 -124h-200zM310 288h171l-85 273z" />
    <glyph glyph-name="Adieresis" unicode="&#xc4;" horiz-adv-x="791" 
d="M521 788q-45 0 -73.5 28.5t-28.5 68.5q0 41 28.5 69.5t73.5 28.5q44 0 73 -28.5t29 -69.5q0 -40 -29 -68.5t-73 -28.5zM270 788q-45 0 -73.5 28.5t-28.5 68.5q0 41 28.5 69.5t73.5 28.5q44 0 73 -28.5t29 -69.5q0 -40 -29 -68.5t-73 -28.5zM20 0l246 740h259l246 -740
h-200l-39 124h-273l-39 -124h-200zM310 288h171l-85 273z" />
    <glyph glyph-name="Aring" unicode="&#xc5;" horiz-adv-x="791" 
d="M396 788q-39 0 -71 19t-51 51t-19 71t19 70.5t51 50.5t71 19t71 -19t51 -50.5t19 -70.5t-19 -71t-51 -51t-71 -19zM396 878q21 0 36 14.5t15 36.5q0 21 -15 35.5t-36 14.5t-36 -14.5t-15 -35.5q0 -22 15 -36.5t36 -14.5zM20 0l246 740h259l246 -740h-200l-39 124h-273
l-39 -124h-200zM310 288h171l-85 273z" />
    <glyph glyph-name="AE" unicode="&#xc6;" horiz-adv-x="1056" 
d="M20 0l306 740h670v-166h-344v-120h299v-158h-299v-130h349v-166h-541v124h-189l-51 -124h-200zM338 285h122v297z" />
    <glyph glyph-name="Ccedilla" unicode="&#xc7;" horiz-adv-x="783" 
d="M383 -263q-20 0 -41 2t-34.5 4l-13.5 2v92l13 -1.5t31.5 -3t34.5 -1.5q44 0 58 11.5t14 23.5t-9.5 19t-25.5 7q-21 0 -37.5 -9.5l-16.5 -9.5l-64 65l42 58q-75 12 -132.5 48t-95.5 88t-57 113.5t-19 125.5q0 71 24 138.5t71 121.5t118 86.5t165 32.5q80 0 137 -20
t95 -51.5t60.5 -67t34 -67t15 -51.5l3.5 -20h-190l-5 16t-20 37.5t-46 37.5t-82 16q-60 0 -100.5 -30.5t-60.5 -78.5t-20 -100t20 -100t60.5 -79t100.5 -31q51 0 82 16t46 37t20 37l5 16h190l-3 -18.5t-13.5 -48t-30.5 -63.5t-54 -65.5t-85 -53.5t-122 -27l-15 -20q7 1 16 1
q50 0 80 -31t30 -77q0 -50 -42 -88.5t-131 -38.5z" />
    <glyph glyph-name="Egrave" unicode="&#xc8;" horiz-adv-x="656" 
d="M263 809l-114 180h170l77 -179zM60 0v740h536v-166h-344v-120h299v-158h-299v-130h349v-166h-541z" />
    <glyph glyph-name="Eacute" unicode="&#xc9;" horiz-adv-x="656" 
d="M396 809l-133 1l77 179h170zM60 0v740h536v-166h-344v-120h299v-158h-299v-130h349v-166h-541z" />
    <glyph glyph-name="Ecircumflex" unicode="&#xca;" horiz-adv-x="656" 
d="M120 799l135 159h147l135 -159h-141l-67 81l-68 -81h-141zM60 0v740h536v-166h-344v-120h299v-158h-299v-130h349v-166h-541z" />
    <glyph glyph-name="Edieresis" unicode="&#xcb;" horiz-adv-x="656" 
d="M453 788q-45 0 -73.5 28.5t-28.5 68.5q0 41 28.5 69.5t73.5 28.5q44 0 73 -28.5t29 -69.5q0 -40 -29 -68.5t-73 -28.5zM202 788q-45 0 -73.5 28.5t-28.5 68.5q0 41 28.5 69.5t73.5 28.5q44 0 73 -28.5t29 -69.5q0 -40 -29 -68.5t-73 -28.5zM60 0v740h536v-166h-344v-120
h299v-158h-299v-130h349v-166h-541z" />
    <glyph glyph-name="Igrave" unicode="&#xcc;" horiz-adv-x="312" 
d="M91 809l-114 180h170l77 -179zM60 0v740h192v-740h-192z" />
    <glyph glyph-name="Iacute" unicode="&#xcd;" horiz-adv-x="312" 
d="M224 809l-133 1l77 179h170zM60 0v740h192v-740h-192z" />
    <glyph glyph-name="Icircumflex" unicode="&#xce;" horiz-adv-x="312" 
d="M-52 799l135 189h147l135 -189h-141l-67 102l-68 -102h-141zM60 0v740h192v-740h-192z" />
    <glyph glyph-name="Idieresis" unicode="&#xcf;" horiz-adv-x="312" 
d="M281 788q-45 0 -73.5 28.5t-28.5 68.5q0 41 28.5 69.5t73.5 28.5q44 0 73 -28.5t29 -69.5q0 -40 -29 -68.5t-73 -28.5zM30 788q-45 0 -73.5 28.5t-28.5 68.5q0 41 28.5 69.5t73.5 28.5q44 0 73 -28.5t29 -69.5q0 -40 -29 -68.5t-73 -28.5zM60 0v740h192v-740h-192z" />
    <glyph glyph-name="Eth" unicode="&#xd0;" horiz-adv-x="782" 
d="M76 0v296h-71v148h71v296h306q92 0 161.5 -31.5t116 -84.5t69.5 -119t23 -135t-23 -135t-69.5 -119t-116 -84.5t-161.5 -31.5h-306zM395 296h-127v-125h105q65 0 106 29.5t60.5 75.5t19.5 96t-19.5 95.5t-60.5 75t-106 29.5h-105v-128h127v-148z" />
    <glyph glyph-name="Ntilde" unicode="&#xd1;" horiz-adv-x="760" 
d="M454 822q-27 0 -47 9t-35.5 20.5t-28.5 20.5t-27 9q-15 0 -20.5 -13.5t-5.5 -39.5h-93q0 35 8 71.5t31.5 62t68.5 25.5q37 0 61.5 -14.5t42.5 -29.5t35 -15q14 0 19.5 14t5.5 39h93q0 -34 -8 -71t-31 -62.5t-69 -25.5zM60 0v740h177l273 -411v411h190v-740h-179l-271 390
v-390h-190z" />
    <glyph glyph-name="Ograve" unicode="&#xd2;" horiz-adv-x="830" 
d="M350 819l-114 180h170l77 -179zM415 -10q-96 0 -168 32.5t-120 87t-72.5 122.5t-24.5 139t24.5 138.5t72.5 121.5t120 86.5t168 32.5t168 -32.5t120.5 -86.5t72.5 -121.5t24 -138.5t-24 -139t-72.5 -122.5t-120.5 -87t-168 -32.5zM415 161q62 0 103 30.5t61.5 79
t20.5 100.5t-20.5 100t-61.5 78.5t-103 30.5q-61 0 -102 -30.5t-61.5 -78.5t-20.5 -100t20.5 -100.5t61.5 -79t102 -30.5z" />
    <glyph glyph-name="Oacute" unicode="&#xd3;" horiz-adv-x="830" 
d="M483 819l-133 1l77 179h170zM415 -10q-96 0 -168 32.5t-120 87t-72.5 122.5t-24.5 139t24.5 138.5t72.5 121.5t120 86.5t168 32.5t168 -32.5t120.5 -86.5t72.5 -121.5t24 -138.5t-24 -139t-72.5 -122.5t-120.5 -87t-168 -32.5zM415 161q62 0 103 30.5t61.5 79t20.5 100.5
t-20.5 100t-61.5 78.5t-103 30.5q-61 0 -102 -30.5t-61.5 -78.5t-20.5 -100t20.5 -100.5t61.5 -79t102 -30.5z" />
    <glyph glyph-name="Ocircumflex" unicode="&#xd4;" horiz-adv-x="830" 
d="M207 809l135 159h147l135 -159h-141l-67 81l-68 -81h-141zM415 -10q-96 0 -168 32.5t-120 87t-72.5 122.5t-24.5 139t24.5 138.5t72.5 121.5t120 86.5t168 32.5t168 -32.5t120.5 -86.5t72.5 -121.5t24 -138.5t-24 -139t-72.5 -122.5t-120.5 -87t-168 -32.5zM415 161
q62 0 103 30.5t61.5 79t20.5 100.5t-20.5 100t-61.5 78.5t-103 30.5q-61 0 -102 -30.5t-61.5 -78.5t-20.5 -100t20.5 -100.5t61.5 -79t102 -30.5z" />
    <glyph glyph-name="Otilde" unicode="&#xd5;" horiz-adv-x="830" 
d="M493 832q-27 0 -47 9t-35.5 20.5t-28.5 20.5t-27 9q-15 0 -20.5 -13.5t-5.5 -39.5h-93q0 35 8 71.5t31.5 62t68.5 25.5q37 0 61.5 -14.5t42.5 -29.5t35 -15q14 0 19.5 14t5.5 39h93q0 -34 -8 -71t-31 -62.5t-69 -25.5zM415 -10q-96 0 -168 32.5t-120 87t-72.5 122.5
t-24.5 139t24.5 138.5t72.5 121.5t120 86.5t168 32.5t168 -32.5t120.5 -86.5t72.5 -121.5t24 -138.5t-24 -139t-72.5 -122.5t-120.5 -87t-168 -32.5zM415 161q62 0 103 30.5t61.5 79t20.5 100.5t-20.5 100t-61.5 78.5t-103 30.5q-61 0 -102 -30.5t-61.5 -78.5t-20.5 -100
t20.5 -100.5t61.5 -79t102 -30.5z" />
    <glyph glyph-name="Odieresis" unicode="&#xd6;" horiz-adv-x="830" 
d="M540 798q-45 0 -73.5 28.5t-28.5 68.5q0 41 28.5 69.5t73.5 28.5q44 0 73 -28.5t29 -69.5q0 -40 -29 -68.5t-73 -28.5zM289 798q-45 0 -73.5 28.5t-28.5 68.5q0 41 28.5 69.5t73.5 28.5q44 0 73 -28.5t29 -69.5q0 -40 -29 -68.5t-73 -28.5zM415 -10q-96 0 -168 32.5
t-120 87t-72.5 122.5t-24.5 139t24.5 138.5t72.5 121.5t120 86.5t168 32.5t168 -32.5t120.5 -86.5t72.5 -121.5t24 -138.5t-24 -139t-72.5 -122.5t-120.5 -87t-168 -32.5zM415 161q62 0 103 30.5t61.5 79t20.5 100.5t-20.5 100t-61.5 78.5t-103 30.5q-61 0 -102 -30.5
t-61.5 -78.5t-20.5 -100t20.5 -100.5t61.5 -79t102 -30.5z" />
    <glyph glyph-name="multiply" unicode="&#xd7;" horiz-adv-x="661" 
d="M229 97l-113 113l101 101l-102 102l114 114l102 -102l102 102l113 -113l-102 -102l102 -102l-114 -114l-102 102z" />
    <glyph glyph-name="Oslash" unicode="&#xd8;" horiz-adv-x="830" 
d="M77 -24l71 111q-59 55 -88.5 130t-29.5 154q0 71 24.5 138.5t72.5 121.5t120 86.5t168 32.5q40 0 75.5 -6t67.5 -17l23 36h171l-70 -110q59 -55 88.5 -129.5t29.5 -152.5q0 -71 -24 -139t-72.5 -122.5t-120.5 -87t-168 -32.5q-40 0 -75.5 6t-67.5 17l-24 -37h-171z
M231 371q0 -63 26 -114l203 318q-21 5 -45 5q-61 0 -102 -30.5t-61.5 -78.5t-20.5 -100zM415 161q62 0 103 30.5t61.5 79t20.5 100.5q0 62 -27 113l-203 -318q21 -5 45 -5z" />
    <glyph glyph-name="Ugrave" unicode="&#xd9;" horiz-adv-x="746" 
d="M308 809l-114 180h170l77 -179zM373 -10q-57 0 -113 16t-101 52t-72 95.5t-27 146.5v440h192v-440q0 -54 29 -92t92 -38t92 38t29 92v440h192v-440q0 -87 -27 -146.5t-72 -95.5t-101 -52t-113 -16z" />
    <glyph glyph-name="Uacute" unicode="&#xda;" horiz-adv-x="746" 
d="M441 809l-133 1l77 179h170zM373 -10q-57 0 -113 16t-101 52t-72 95.5t-27 146.5v440h192v-440q0 -54 29 -92t92 -38t92 38t29 92v440h192v-440q0 -87 -27 -146.5t-72 -95.5t-101 -52t-113 -16z" />
    <glyph glyph-name="Ucircumflex" unicode="&#xdb;" horiz-adv-x="746" 
d="M165 799l135 189h147l135 -189h-141l-67 102l-68 -102h-141zM373 -10q-57 0 -113 16t-101 52t-72 95.5t-27 146.5v440h192v-440q0 -54 29 -92t92 -38t92 38t29 92v440h192v-440q0 -87 -27 -146.5t-72 -95.5t-101 -52t-113 -16z" />
    <glyph glyph-name="Udieresis" unicode="&#xdc;" horiz-adv-x="746" 
d="M498 788q-45 0 -73.5 28.5t-28.5 68.5q0 41 28.5 69.5t73.5 28.5q44 0 73 -28.5t29 -69.5q0 -40 -29 -68.5t-73 -28.5zM247 788q-45 0 -73.5 28.5t-28.5 68.5q0 41 28.5 69.5t73.5 28.5q44 0 73 -28.5t29 -69.5q0 -40 -29 -68.5t-73 -28.5zM373 -10q-57 0 -113 16
t-101 52t-72 95.5t-27 146.5v440h192v-440q0 -54 29 -92t92 -38t92 38t29 92v440h192v-440q0 -87 -27 -146.5t-72 -95.5t-101 -52t-113 -16z" />
    <glyph glyph-name="Yacute" unicode="&#xdd;" horiz-adv-x="754" 
d="M445 809l-133 1l77 179h170zM281 0v247l-261 493h210l147 -296l146 296h211l-261 -493v-247h-192z" />
    <glyph glyph-name="Thorn" unicode="&#xde;" horiz-adv-x="702" 
d="M60 0v740h192v-120h141q95 0 158 -36.5t94.5 -93.5t31.5 -120t-31.5 -120.5t-94.5 -94t-158 -36.5h-141v-119h-192zM392 453h-140v-168h140q46 0 68.5 26.5t22.5 57.5q0 32 -22.5 58t-68.5 26z" />
    <glyph glyph-name="germandbls" unicode="&#xdf;" horiz-adv-x="738" 
d="M369 770q78 0 144 -25.5t106.5 -73t40.5 -115.5q0 -49 -20.5 -84t-48.5 -56t-51 -28v-7l15 -4.5t37 -15.5t43.5 -31t36.5 -50.5t15 -74.5q0 -66 -38 -114.5t-103.5 -74.5t-149.5 -26q-40 0 -64.5 4l-24.5 4v155l22.5 -3t47.5 -3q65 0 91.5 26.5t26.5 59.5t-24.5 55
t-75.5 22h-61v148h48q44 0 66.5 23.5t22.5 53.5q0 32 -25.5 55t-71.5 23q-58 0 -91.5 -40t-33.5 -112v-461h-189v460q0 51 15.5 105.5t51.5 100.5t95.5 75t146.5 29z" />
    <glyph glyph-name="agrave" unicode="&#xe0;" horiz-adv-x="670" 
d="M270 599l-114 180h170l77 -179zM273 540q39 0 67 -10.5t45.5 -23.5t26 -23.5l8.5 -10.5h8v58h190v-530h-190v58h-8l-8.5 -10.5t-26 -23.5t-45.5 -23.5t-67 -10.5q-58 0 -100.5 23.5t-71 63t-42.5 88.5t-14 100t14 100t42.5 88.5t71 63t100.5 23.5zM336 389
q-33 0 -55 -18.5t-33 -47t-11 -58.5t11 -58.5t33 -47t55 -18.5t55 18.5t33 47t11 58.5t-11 58.5t-33 47t-55 18.5z" />
    <glyph glyph-name="aacute" unicode="&#xe1;" horiz-adv-x="670" 
d="M403 599l-133 1l77 179h170zM273 540q39 0 67 -10.5t45.5 -23.5t26 -23.5l8.5 -10.5h8v58h190v-530h-190v58h-8l-8.5 -10.5t-26 -23.5t-45.5 -23.5t-67 -10.5q-58 0 -100.5 23.5t-71 63t-42.5 88.5t-14 100t14 100t42.5 88.5t71 63t100.5 23.5zM336 389q-33 0 -55 -18.5
t-33 -47t-11 -58.5t11 -58.5t33 -47t55 -18.5t55 18.5t33 47t11 58.5t-11 58.5t-33 47t-55 18.5z" />
    <glyph glyph-name="acircumflex" unicode="&#xe2;" horiz-adv-x="670" 
d="M127 589l135 189h147l135 -189h-141l-67 102l-68 -102h-141zM273 540q39 0 67 -10.5t45.5 -23.5t26 -23.5l8.5 -10.5h8v58h190v-530h-190v58h-8l-8.5 -10.5t-26 -23.5t-45.5 -23.5t-67 -10.5q-58 0 -100.5 23.5t-71 63t-42.5 88.5t-14 100t14 100t42.5 88.5t71 63
t100.5 23.5zM336 389q-33 0 -55 -18.5t-33 -47t-11 -58.5t11 -58.5t33 -47t55 -18.5t55 18.5t33 47t11 58.5t-11 58.5t-33 47t-55 18.5z" />
    <glyph glyph-name="atilde" unicode="&#xe3;" horiz-adv-x="670" 
d="M413 612q-27 0 -47 9t-35.5 20.5t-28.5 20.5t-27 9q-15 0 -20.5 -13.5t-5.5 -39.5h-93q0 35 8 71.5t31.5 62t68.5 25.5q37 0 61.5 -14.5t42.5 -29.5t35 -15q14 0 19.5 14t5.5 39h93q0 -34 -8 -71t-31 -62.5t-69 -25.5zM273 540q39 0 67 -10.5t45.5 -23.5t26 -23.5
l8.5 -10.5h8v58h190v-530h-190v58h-8l-8.5 -10.5t-26 -23.5t-45.5 -23.5t-67 -10.5q-58 0 -100.5 23.5t-71 63t-42.5 88.5t-14 100t14 100t42.5 88.5t71 63t100.5 23.5zM336 389q-33 0 -55 -18.5t-33 -47t-11 -58.5t11 -58.5t33 -47t55 -18.5t55 18.5t33 47t11 58.5
t-11 58.5t-33 47t-55 18.5z" />
    <glyph glyph-name="adieresis" unicode="&#xe4;" horiz-adv-x="670" 
d="M460 578q-45 0 -73.5 28.5t-28.5 68.5q0 41 28.5 69.5t73.5 28.5q44 0 73 -28.5t29 -69.5q0 -40 -29 -68.5t-73 -28.5zM209 578q-45 0 -73.5 28.5t-28.5 68.5q0 41 28.5 69.5t73.5 28.5q44 0 73 -28.5t29 -69.5q0 -40 -29 -68.5t-73 -28.5zM273 540q39 0 67 -10.5
t45.5 -23.5t26 -23.5l8.5 -10.5h8v58h190v-530h-190v58h-8l-8.5 -10.5t-26 -23.5t-45.5 -23.5t-67 -10.5q-58 0 -100.5 23.5t-71 63t-42.5 88.5t-14 100t14 100t42.5 88.5t71 63t100.5 23.5zM336 389q-33 0 -55 -18.5t-33 -47t-11 -58.5t11 -58.5t33 -47t55 -18.5t55 18.5
t33 47t11 58.5t-11 58.5t-33 47t-55 18.5z" />
    <glyph glyph-name="aring" unicode="&#xe5;" horiz-adv-x="670" 
d="M335 578q-39 0 -71 19t-51 51t-19 71t19 70.5t51 50.5t71 19t71 -19t51 -50.5t19 -70.5t-19 -71t-51 -51t-71 -19zM335 668q21 0 36 14.5t15 36.5q0 21 -15 35.5t-36 14.5t-36 -14.5t-15 -35.5q0 -22 15 -36.5t36 -14.5zM273 540q39 0 67 -10.5t45.5 -23.5t26 -23.5
l8.5 -10.5h8v58h190v-530h-190v58h-8l-8.5 -10.5t-26 -23.5t-45.5 -23.5t-67 -10.5q-58 0 -100.5 23.5t-71 63t-42.5 88.5t-14 100t14 100t42.5 88.5t71 63t100.5 23.5zM336 389q-33 0 -55 -18.5t-33 -47t-11 -58.5t11 -58.5t33 -47t55 -18.5t55 18.5t33 47t11 58.5
t-11 58.5t-33 47t-55 18.5z" />
    <glyph glyph-name="ae" unicode="&#xe6;" horiz-adv-x="950" 
d="M231 -10q-88 0 -142 43t-54 120q0 74 55 117.5t170 46.5l108 3v17q0 32 -18.5 47.5t-50.5 15.5q-31 0 -46.5 -12t-20 -24l-4.5 -12h-178l4 19t17 47t39 56t70 47t111 19q51 0 85.5 -10.5t54.5 -24t29 -24l9 -10.5h4l10 10.5t31 24t54 24t80 10.5q73 0 131 -31t92 -93
t34 -156v-43h-351q3 -34 28 -60t69 -26q34 0 51 11.5t23.5 23l6.5 11.5h170l-5 -19t-19 -46.5t-41.5 -55.5t-73 -47t-112.5 -19q-60 0 -102 15t-67 34.5t-36.5 34.5l-11.5 15h-5l-9.5 -15t-32.5 -34.5t-61 -34.5t-95 -15zM554 322h174q-1 41 -25 61.5t-63 20.5
q-33 0 -58 -20t-28 -62zM283 113q38 0 61.5 22t23.5 59v19l-86 -4q-34 -1 -49.5 -14.5t-15.5 -33.5q0 -22 18.5 -35t47.5 -13z" />
    <glyph glyph-name="ccedilla" unicode="&#xe7;" horiz-adv-x="634" 
d="M309 -263q-20 0 -41 2t-34.5 4l-13.5 2v92l13 -1.5t31.5 -3t34.5 -1.5q44 0 58 11.5t14 23.5t-9.5 19t-25.5 7q-21 0 -37.5 -9.5l-16.5 -9.5l-64 65l42 58q-74 14 -122.5 55t-72 97.5t-23.5 116.5q0 52 17.5 101t52.5 88.5t89 62.5t127 23q76 0 125 -21.5t77 -53
t41.5 -63.5t17 -53.5l3.5 -21.5h-175l-2.5 10t-11 23t-25 23t-44.5 10q-51 0 -76.5 -37.5t-25.5 -90.5t25.5 -90.5t76.5 -37.5q28 0 44.5 10t25 23t11 23l2.5 10h175l-3 -19t-14 -48t-35 -59.5t-64.5 -54t-103.5 -30.5l-16 -21q7 1 16 1q50 0 80 -31t30 -77q0 -50 -42 -88.5
t-131 -38.5z" />
    <glyph glyph-name="egrave" unicode="&#xe8;" horiz-adv-x="624" 
d="M255 600l-114 180h170l77 -179zM326 -10q-73 0 -126.5 23t-88.5 62.5t-52 89t-17 101.5q0 50 16.5 99t50.5 88.5t86.5 63t124.5 23.5q78 0 137 -33t92 -95.5t33 -151.5v-43h-349q3 -34 26.5 -60t66.5 -26q33 0 50 11.5t23 23l6 11.5h174l-5 -19t-19 -46.5t-42 -55.5
t-73.5 -47t-113.5 -19zM232 322h169q-1 41 -24 61.5t-61 20.5q-32 0 -56.5 -20t-27.5 -62z" />
    <glyph glyph-name="eacute" unicode="&#xe9;" horiz-adv-x="624" 
d="M388 600l-133 1l77 179h170zM326 -10q-73 0 -126.5 23t-88.5 62.5t-52 89t-17 101.5q0 50 16.5 99t50.5 88.5t86.5 63t124.5 23.5q78 0 137 -33t92 -95.5t33 -151.5v-43h-349q3 -34 26.5 -60t66.5 -26q33 0 50 11.5t23 23l6 11.5h174l-5 -19t-19 -46.5t-42 -55.5
t-73.5 -47t-113.5 -19zM232 322h169q-1 41 -24 61.5t-61 20.5q-32 0 -56.5 -20t-27.5 -62z" />
    <glyph glyph-name="ecircumflex" unicode="&#xea;" horiz-adv-x="624" 
d="M112 590l135 189h147l135 -189h-141l-67 102l-68 -102h-141zM326 -10q-73 0 -126.5 23t-88.5 62.5t-52 89t-17 101.5q0 50 16.5 99t50.5 88.5t86.5 63t124.5 23.5q78 0 137 -33t92 -95.5t33 -151.5v-43h-349q3 -34 26.5 -60t66.5 -26q33 0 50 11.5t23 23l6 11.5h174
l-5 -19t-19 -46.5t-42 -55.5t-73.5 -47t-113.5 -19zM232 322h169q-1 41 -24 61.5t-61 20.5q-32 0 -56.5 -20t-27.5 -62z" />
    <glyph glyph-name="edieresis" unicode="&#xeb;" horiz-adv-x="624" 
d="M445 579q-45 0 -73.5 28.5t-28.5 68.5q0 41 28.5 69.5t73.5 28.5q44 0 73 -28.5t29 -69.5q0 -40 -29 -68.5t-73 -28.5zM194 579q-45 0 -73.5 28.5t-28.5 68.5q0 41 28.5 69.5t73.5 28.5q44 0 73 -28.5t29 -69.5q0 -40 -29 -68.5t-73 -28.5zM326 -10q-73 0 -126.5 23
t-88.5 62.5t-52 89t-17 101.5q0 50 16.5 99t50.5 88.5t86.5 63t124.5 23.5q78 0 137 -33t92 -95.5t33 -151.5v-43h-349q3 -34 26.5 -60t66.5 -26q33 0 50 11.5t23 23l6 11.5h174l-5 -19t-19 -46.5t-42 -55.5t-73.5 -47t-113.5 -19zM232 322h169q-1 41 -24 61.5t-61 20.5
q-32 0 -56.5 -20t-27.5 -62z" />
    <glyph glyph-name="igrave" unicode="&#xec;" horiz-adv-x="320" 
d="M95 599l-114 180h170l77 -179zM65 0v530h190v-530h-190z" />
    <glyph glyph-name="iacute" unicode="&#xed;" horiz-adv-x="320" 
d="M228 599l-133 1l77 179h170zM65 0v530h190v-530h-190z" />
    <glyph glyph-name="icircumflex" unicode="&#xee;" horiz-adv-x="320" 
d="M-48 589l135 189h147l135 -189h-141l-67 102l-68 -102h-141zM65 0v530h190v-530h-190z" />
    <glyph glyph-name="idieresis" unicode="&#xef;" horiz-adv-x="320" 
d="M285 578q-45 0 -73.5 28.5t-28.5 68.5q0 41 28.5 69.5t73.5 28.5q44 0 73 -28.5t29 -69.5q0 -40 -29 -68.5t-73 -28.5zM34 578q-45 0 -73.5 28.5t-28.5 68.5q0 41 28.5 69.5t73.5 28.5q44 0 73 -28.5t29 -69.5q0 -40 -29 -68.5t-73 -28.5zM65 0v530h190v-530h-190z" />
    <glyph glyph-name="eth" unicode="&#xf0;" horiz-adv-x="672" 
d="M335 -10q-75 0 -129.5 23.5t-90 63t-53 88.5t-17.5 100q0 65 27.5 124t81 96.5t130.5 37.5q34 0 60 -7.5t45 -17.5q-23 32 -52.5 60t-60.5 52l-110 -65l-58 99l63 37q-38 22 -62.5 34l-24.5 12l60 124l24 -9t63.5 -27t86.5 -46l125 74l59 -99l-79 -47q53 -43 99.5 -100
t75.5 -127.5t29 -156.5q0 -94 -32 -167t-97 -114.5t-163 -41.5zM336 141q34 0 55.5 18.5t32.5 47t11 58.5q0 31 -11 59t-33 46.5t-55 18.5t-55 -18.5t-33 -46.5t-11 -59q0 -30 11 -58.5t33 -47t55 -18.5z" />
    <glyph glyph-name="ntilde" unicode="&#xf1;" horiz-adv-x="620" 
d="M390 612q-27 0 -47 9t-35.5 20.5t-28.5 20.5t-27 9q-15 0 -20.5 -13.5t-5.5 -39.5h-93q0 35 8 71.5t31.5 62t68.5 25.5q37 0 61.5 -14.5t42.5 -29.5t35 -15q14 0 19.5 14t5.5 39h93q0 -34 -8 -71t-31 -62.5t-69 -25.5zM55 0v530h190v-75h5q11 18 28.5 37.5t46.5 33.5
t73 14q65 0 102.5 -29.5t53.5 -74t16 -89.5v-347h-190v309q0 29 -15 53.5t-52 24.5q-39 0 -53.5 -25t-14.5 -53v-309h-190z" />
    <glyph glyph-name="ograve" unicode="&#xf2;" horiz-adv-x="662" 
d="M266 599l-114 180h170l77 -179zM331 -10q-91 0 -156 38t-99 100.5t-34 136.5t34 136.5t99 100.5t156 38q92 0 156.5 -38t98.5 -100.5t34 -136.5t-34 -136.5t-98.5 -100.5t-156.5 -38zM331 142q46 0 72.5 35.5t26.5 87.5t-26.5 87.5t-72.5 35.5t-72.5 -35.5t-26.5 -87.5
t26.5 -87.5t72.5 -35.5z" />
    <glyph glyph-name="oacute" unicode="&#xf3;" horiz-adv-x="662" 
d="M399 599l-133 1l77 179h170zM331 -10q-91 0 -156 38t-99 100.5t-34 136.5t34 136.5t99 100.5t156 38q92 0 156.5 -38t98.5 -100.5t34 -136.5t-34 -136.5t-98.5 -100.5t-156.5 -38zM331 142q46 0 72.5 35.5t26.5 87.5t-26.5 87.5t-72.5 35.5t-72.5 -35.5t-26.5 -87.5
t26.5 -87.5t72.5 -35.5z" />
    <glyph glyph-name="ocircumflex" unicode="&#xf4;" horiz-adv-x="662" 
d="M123 589l135 189h147l135 -189h-141l-67 102l-68 -102h-141zM331 -10q-91 0 -156 38t-99 100.5t-34 136.5t34 136.5t99 100.5t156 38q92 0 156.5 -38t98.5 -100.5t34 -136.5t-34 -136.5t-98.5 -100.5t-156.5 -38zM331 142q46 0 72.5 35.5t26.5 87.5t-26.5 87.5
t-72.5 35.5t-72.5 -35.5t-26.5 -87.5t26.5 -87.5t72.5 -35.5z" />
    <glyph glyph-name="otilde" unicode="&#xf5;" horiz-adv-x="662" 
d="M409 612q-27 0 -47 9t-35.5 20.5t-28.5 20.5t-27 9q-15 0 -20.5 -13.5t-5.5 -39.5h-93q0 35 8 71.5t31.5 62t68.5 25.5q37 0 61.5 -14.5t42.5 -29.5t35 -15q14 0 19.5 14t5.5 39h93q0 -34 -8 -71t-31 -62.5t-69 -25.5zM331 -10q-91 0 -156 38t-99 100.5t-34 136.5
t34 136.5t99 100.5t156 38q92 0 156.5 -38t98.5 -100.5t34 -136.5t-34 -136.5t-98.5 -100.5t-156.5 -38zM331 142q46 0 72.5 35.5t26.5 87.5t-26.5 87.5t-72.5 35.5t-72.5 -35.5t-26.5 -87.5t26.5 -87.5t72.5 -35.5z" />
    <glyph glyph-name="odieresis" unicode="&#xf6;" horiz-adv-x="662" 
d="M456 578q-45 0 -73.5 28.5t-28.5 68.5q0 41 28.5 69.5t73.5 28.5q44 0 73 -28.5t29 -69.5q0 -40 -29 -68.5t-73 -28.5zM205 578q-45 0 -73.5 28.5t-28.5 68.5q0 41 28.5 69.5t73.5 28.5q44 0 73 -28.5t29 -69.5q0 -40 -29 -68.5t-73 -28.5zM331 -10q-91 0 -156 38
t-99 100.5t-34 136.5t34 136.5t99 100.5t156 38q92 0 156.5 -38t98.5 -100.5t34 -136.5t-34 -136.5t-98.5 -100.5t-156.5 -38zM331 142q46 0 72.5 35.5t26.5 87.5t-26.5 87.5t-72.5 35.5t-72.5 -35.5t-26.5 -87.5t26.5 -87.5t72.5 -35.5z" />
    <glyph glyph-name="divide" unicode="&#xf7;" horiz-adv-x="748" 
d="M374 472q-43 0 -71 29.5t-28 69.5q0 41 28 70t71 29t71 -29t28 -70q0 -40 -28 -69.5t-71 -29.5zM115 286v131h518v-131h-518zM374 33q-43 0 -71 29.5t-28 69.5q0 41 28 70t71 29t71 -29t28 -70q0 -40 -28 -69.5t-71 -29.5z" />
    <glyph glyph-name="oslash" unicode="&#xf8;" horiz-adv-x="668" 
d="M90 -37l52 90q-47 38 -72 93.5t-25 118.5q0 74 34 136.5t99 100.5t156 38q44 0 84 -10l21 37h127l-48 -83q51 -39 78 -96t27 -123q0 -74 -34 -136.5t-98.5 -100.5t-156.5 -38q-50 0 -94 13l-23 -40h-127zM235 265q0 -22 5 -42l96 165h-2q-46 0 -72.5 -35.5t-26.5 -87.5z
M334 142q46 0 72.5 35.5t26.5 87.5q0 30 -9 56l-103 -178q6 -1 13 -1z" />
    <glyph glyph-name="ugrave" unicode="&#xf9;" horiz-adv-x="608" 
d="M241 599l-114 180h170l77 -179zM215 -10q-58 0 -93.5 25t-51 65.5t-15.5 86.5v363h188v-316q0 -30 15 -50.5t48 -20.5q34 0 48 21.5t14 49.5v316h190v-530h-190v75h-6q-22 -40 -58 -62.5t-89 -22.5z" />
    <glyph glyph-name="uacute" unicode="&#xfa;" horiz-adv-x="608" 
d="M374 599l-133 1l77 179h170zM215 -10q-58 0 -93.5 25t-51 65.5t-15.5 86.5v363h188v-316q0 -30 15 -50.5t48 -20.5q34 0 48 21.5t14 49.5v316h190v-530h-190v75h-6q-22 -40 -58 -62.5t-89 -22.5z" />
    <glyph glyph-name="ucircumflex" unicode="&#xfb;" horiz-adv-x="608" 
d="M98 589l135 189h147l135 -189h-141l-67 102l-68 -102h-141zM215 -10q-58 0 -93.5 25t-51 65.5t-15.5 86.5v363h188v-316q0 -30 15 -50.5t48 -20.5q34 0 48 21.5t14 49.5v316h190v-530h-190v75h-6q-22 -40 -58 -62.5t-89 -22.5z" />
    <glyph glyph-name="udieresis" unicode="&#xfc;" horiz-adv-x="608" 
d="M431 578q-45 0 -73.5 28.5t-28.5 68.5q0 41 28.5 69.5t73.5 28.5q44 0 73 -28.5t29 -69.5q0 -40 -29 -68.5t-73 -28.5zM180 578q-45 0 -73.5 28.5t-28.5 68.5q0 41 28.5 69.5t73.5 28.5q44 0 73 -28.5t29 -69.5q0 -40 -29 -68.5t-73 -28.5zM215 -10q-58 0 -93.5 25
t-51 65.5t-15.5 86.5v363h188v-316q0 -30 15 -50.5t48 -20.5q34 0 48 21.5t14 49.5v316h190v-530h-190v75h-6q-22 -40 -58 -62.5t-89 -22.5z" />
    <glyph glyph-name="yacute" unicode="&#xfd;" horiz-adv-x="606" 
d="M376 599l-133 1l77 179h170zM109 -195q-30 0 -46.5 2l-16.5 2v150l12 -1t33 -1q40 0 66.5 8t46.5 34l-189 531h188l102 -320l98 320h188l-179 -495q-27 -76 -64 -127.5t-93.5 -77t-145.5 -25.5z" />
    <glyph glyph-name="thorn" unicode="&#xfe;" horiz-adv-x="678" 
d="M60 -195v955h190v-288h8l8.5 10.5t26 23.5t45.5 23.5t67 10.5q58 0 100.5 -23.5t71 -63t42.5 -88.5t14 -100t-14 -100t-42.5 -88.5t-71 -63t-100.5 -23.5q-39 0 -67 10.5t-45.5 23.5t-26 23.5l-8.5 10.5h-8v-253h-190zM243 265q0 -30 11 -58.5t33 -47t55 -18.5
q34 0 55.5 18.5t32.5 47t11 58.5t-11 58.5t-32.5 47t-55.5 18.5q-33 0 -55 -18.5t-33 -47t-11 -58.5z" />
    <glyph glyph-name="ydieresis" unicode="&#xff;" horiz-adv-x="606" 
d="M433 578q-45 0 -73.5 28.5t-28.5 68.5q0 41 28.5 69.5t73.5 28.5q44 0 73 -28.5t29 -69.5q0 -40 -29 -68.5t-73 -28.5zM182 578q-45 0 -73.5 28.5t-28.5 68.5q0 41 28.5 69.5t73.5 28.5q44 0 73 -28.5t29 -69.5q0 -40 -29 -68.5t-73 -28.5zM109 -195q-30 0 -46.5 2
l-16.5 2v150l12 -1t33 -1q40 0 66.5 8t46.5 34l-189 531h188l102 -320l98 320h188l-179 -495q-27 -76 -64 -127.5t-93.5 -77t-145.5 -25.5z" />
    <glyph glyph-name="Amacron" unicode="&#x100;" horiz-adv-x="791" 
d="M226 818v102h340v-102h-340zM20 0l246 740h259l246 -740h-200l-39 124h-273l-39 -124h-200zM310 288h171l-85 273z" />
    <glyph glyph-name="amacron" unicode="&#x101;" horiz-adv-x="670" 
d="M165 608v102h340v-102h-340zM273 540q39 0 67 -10.5t45.5 -23.5t26 -23.5l8.5 -10.5h8v58h190v-530h-190v58h-8l-8.5 -10.5t-26 -23.5t-45.5 -23.5t-67 -10.5q-58 0 -100.5 23.5t-71 63t-42.5 88.5t-14 100t14 100t42.5 88.5t71 63t100.5 23.5zM336 389q-33 0 -55 -18.5
t-33 -47t-11 -58.5t11 -58.5t33 -47t55 -18.5t55 18.5t33 47t11 58.5t-11 58.5t-33 47t-55 18.5z" />
    <glyph glyph-name="Abreve" unicode="&#x102;" horiz-adv-x="791" 
d="M396 802q-60 0 -97.5 17t-57.5 41.5t-28 49t-9.5 41.5l-1.5 17h119l1.5 -9.5t8.5 -22.5t22 -22.5t43 -9.5t43.5 9.5t22 22.5t8 22.5l1.5 9.5h119l-1.5 -17t-9.5 -41.5t-28 -49t-57.5 -41.5t-97.5 -17zM20 0l246 740h259l246 -740h-200l-39 124h-273l-39 -124h-200z
M310 288h171l-85 273z" />
    <glyph glyph-name="abreve" unicode="&#x103;" horiz-adv-x="670" 
d="M335 592q-60 0 -97.5 19t-57.5 46.5t-28 55t-9.5 46.5l-1.5 19h119l1.5 -12t8.5 -28.5t22 -28.5t43 -12t43.5 12t22 28.5t8 28.5l1.5 12h119l-1.5 -19t-9.5 -46.5t-28 -55t-57.5 -46.5t-97.5 -19zM273 540q39 0 67 -10.5t45.5 -23.5t26 -23.5l8.5 -10.5h8v58h190v-530
h-190v58h-8l-8.5 -10.5t-26 -23.5t-45.5 -23.5t-67 -10.5q-58 0 -100.5 23.5t-71 63t-42.5 88.5t-14 100t14 100t42.5 88.5t71 63t100.5 23.5zM336 389q-33 0 -55 -18.5t-33 -47t-11 -58.5t11 -58.5t33 -47t55 -18.5t55 18.5t33 47t11 58.5t-11 58.5t-33 47t-55 18.5z" />
    <glyph glyph-name="Aogonek" unicode="&#x104;" horiz-adv-x="791" 
d="M20 0l246 740h259l246 -740l-12 -6.5t-24.5 -18.5t-12.5 -30q0 -13 12 -24t40 -11q12 0 22 1.5l10 1.5v-102l-17.5 -2.5t-43.5 -2.5q-82 0 -118 32t-36 75q0 31 15 52.5t34 34.5h-69l-39 124h-273l-39 -124h-200zM310 288h171l-85 273z" />
    <glyph glyph-name="aogonek" unicode="&#x105;" horiz-adv-x="670" 
d="M273 540q39 0 67 -10.5t45.5 -23.5t26 -23.5l8.5 -10.5h8v58h190v-530l-12 -6.5t-24.5 -18.5t-12.5 -30q0 -13 12 -24t40 -11q12 0 22 1.5l10 1.5v-102l-17.5 -2.5t-43.5 -2.5q-82 0 -118 32t-36 75q0 31 15 52.5t34 34.5h-59v58h-8l-8.5 -10.5t-26 -23.5t-45.5 -23.5
t-67 -10.5q-58 0 -100.5 23.5t-71 63t-42.5 88.5t-14 100t14 100t42.5 88.5t71 63t100.5 23.5zM336 389q-33 0 -55 -18.5t-33 -47t-11 -58.5t11 -58.5t33 -47t55 -18.5t55 18.5t33 47t11 58.5t-11 58.5t-33 47t-55 18.5z" />
    <glyph glyph-name="Cacute" unicode="&#x106;" horiz-adv-x="783" 
d="M476 807l-133 1l77 179h170zM408 -10q-94 0 -165 32.5t-118 87t-71 122.5t-24 139t24 138.5t71 121.5t118 86.5t165 32.5q80 0 137 -20t95 -51.5t60.5 -67t34 -67t15 -51.5l3.5 -20h-190l-5 16t-20 37.5t-46 37.5t-82 16q-60 0 -100.5 -30.5t-60.5 -78.5t-20 -100
t20 -100t60.5 -79t100.5 -31q51 0 82 16t46 37t20 37l5 16h190l-3.5 -20t-15 -51.5t-34 -67t-60.5 -67t-95 -51.5t-137 -20z" />
    <glyph glyph-name="cacute" unicode="&#x107;" horiz-adv-x="634" 
d="M402 599l-133 1l77 179h170zM328 -10q-73 0 -127 23t-89 62.5t-52.5 88.5t-17.5 101t17.5 101t52.5 88.5t89 62.5t127 23q76 0 125 -21.5t77 -53t41.5 -63.5t17 -53.5l3.5 -21.5h-175l-2.5 10t-11 23t-25 23t-44.5 10q-51 0 -76.5 -37.5t-25.5 -90.5t25.5 -90.5
t76.5 -37.5q28 0 44.5 10t25 23t11 23l2.5 10h175l-3.5 -21.5t-17 -53t-41.5 -63.5t-77 -53.5t-125 -21.5z" />
    <glyph glyph-name="Cdotaccent" unicode="&#x10a;" horiz-adv-x="783" 
d="M408 791q-47 0 -77.5 30.5t-30.5 72.5q0 44 30.5 74t77.5 30t78 -30t31 -74q0 -42 -31 -72.5t-78 -30.5zM408 -10q-94 0 -165 32.5t-118 87t-71 122.5t-24 139t24 138.5t71 121.5t118 86.5t165 32.5q80 0 137 -20t95 -51.5t60.5 -67t34 -67t15 -51.5l3.5 -20h-190l-5 16
t-20 37.5t-46 37.5t-82 16q-60 0 -100.5 -30.5t-60.5 -78.5t-20 -100t20 -100t60.5 -79t100.5 -31q51 0 82 16t46 37t20 37l5 16h190l-3.5 -20t-15 -51.5t-34 -67t-60.5 -67t-95 -51.5t-137 -20z" />
    <glyph glyph-name="cdotaccent" unicode="&#x10b;" horiz-adv-x="634" 
d="M334 583q-47 0 -77.5 30.5t-30.5 72.5q0 44 30.5 74t77.5 30t78 -30t31 -74q0 -42 -31 -72.5t-78 -30.5zM328 -10q-73 0 -127 23t-89 62.5t-52.5 88.5t-17.5 101t17.5 101t52.5 88.5t89 62.5t127 23q76 0 125 -21.5t77 -53t41.5 -63.5t17 -53.5l3.5 -21.5h-175l-2.5 10
t-11 23t-25 23t-44.5 10q-51 0 -76.5 -37.5t-25.5 -90.5t25.5 -90.5t76.5 -37.5q28 0 44.5 10t25 23t11 23l2.5 10h175l-3.5 -21.5t-17 -53t-41.5 -63.5t-77 -53.5t-125 -21.5z" />
    <glyph glyph-name="Ccaron" unicode="&#x10c;" horiz-adv-x="783" 
d="M334 798l-135 189h141l68 -102l67 102h141l-135 -189h-147zM408 -10q-94 0 -165 32.5t-118 87t-71 122.5t-24 139t24 138.5t71 121.5t118 86.5t165 32.5q80 0 137 -20t95 -51.5t60.5 -67t34 -67t15 -51.5l3.5 -20h-190l-5 16t-20 37.5t-46 37.5t-82 16
q-60 0 -100.5 -30.5t-60.5 -78.5t-20 -100t20 -100t60.5 -79t100.5 -31q51 0 82 16t46 37t20 37l5 16h190l-3.5 -20t-15 -51.5t-34 -67t-60.5 -67t-95 -51.5t-137 -20z" />
    <glyph glyph-name="ccaron" unicode="&#x10d;" horiz-adv-x="634" 
d="M260 590l-135 189h141l68 -102l67 102h141l-135 -189h-147zM328 -10q-73 0 -127 23t-89 62.5t-52.5 88.5t-17.5 101t17.5 101t52.5 88.5t89 62.5t127 23q76 0 125 -21.5t77 -53t41.5 -63.5t17 -53.5l3.5 -21.5h-175l-2.5 10t-11 23t-25 23t-44.5 10q-51 0 -76.5 -37.5
t-25.5 -90.5t25.5 -90.5t76.5 -37.5q28 0 44.5 10t25 23t11 23l2.5 10h175l-3.5 -21.5t-17 -53t-41.5 -63.5t-77 -53.5t-125 -21.5z" />
    <glyph glyph-name="Dcaron" unicode="&#x10e;" horiz-adv-x="766" 
d="M292 800l-135 189h141l68 -102l67 102h141l-135 -189h-147zM60 0v740h306q92 0 161.5 -31.5t116 -84.5t69.5 -119t23 -135t-23 -135t-69.5 -119t-116 -84.5t-161.5 -31.5h-306zM357 572h-105v-401h105q65 0 106 29.5t60.5 75.5t19.5 96t-19.5 95.5t-60.5 75t-106 29.5z
" />
    <glyph glyph-name="dcaron" unicode="&#x10f;" horiz-adv-x="787" 
d="M273 -10q-58 0 -100.5 23.5t-71 63t-42.5 88.5t-14 100t14 100t42.5 88.5t71 63t100.5 23.5q39 0 67 -10.5t45.5 -23.5t26 -23.5l8.5 -10.5h8v288h190v-760h-190v58h-8l-8.5 -10.5t-26 -23.5t-45.5 -23.5t-67 -10.5zM686 522l10 238h151l-61 -238h-100zM336 141
q33 0 55 18.5t33 47t11 58.5t-11 58.5t-33 47t-55 18.5t-55 -18.5t-33 -47t-11 -58.5t11 -58.5t33 -47t55 -18.5z" />
    <glyph glyph-name="Dcroat" unicode="&#x110;" horiz-adv-x="782" 
d="M76 0v296h-71v148h71v296h306q92 0 161.5 -31.5t116 -84.5t69.5 -119t23 -135t-23 -135t-69.5 -119t-116 -84.5t-161.5 -31.5h-306zM395 296h-127v-125h105q65 0 106 29.5t60.5 75.5t19.5 96t-19.5 95.5t-60.5 75t-106 29.5h-105v-128h127v-148z" />
    <glyph glyph-name="dcroat" unicode="&#x111;" horiz-adv-x="699" 
d="M273 -10q-58 0 -100.5 23.5t-71 63t-42.5 88.5t-14 100t14 100t42.5 88.5t71 63t100.5 23.5q39 0 67 -10.5t45.5 -23.5t26 -23.5l8.5 -10.5h8v93h-124v115h124v80h190v-80h76v-115h-76v-565h-190v58h-8l-8.5 -10.5t-26 -23.5t-45.5 -23.5t-67 -10.5zM336 141
q33 0 55 18.5t33 47t11 58.5t-11 58.5t-33 47t-55 18.5t-55 -18.5t-33 -47t-11 -58.5t11 -58.5t33 -47t55 -18.5z" />
    <glyph glyph-name="Emacron" unicode="&#x112;" horiz-adv-x="656" 
d="M158 818v102h340v-102h-340zM60 0v740h536v-166h-344v-120h299v-158h-299v-130h349v-166h-541z" />
    <glyph glyph-name="emacron" unicode="&#x113;" horiz-adv-x="624" 
d="M150 609v102h340v-102h-340zM326 -10q-73 0 -126.5 23t-88.5 62.5t-52 89t-17 101.5q0 50 16.5 99t50.5 88.5t86.5 63t124.5 23.5q78 0 137 -33t92 -95.5t33 -151.5v-43h-349q3 -34 26.5 -60t66.5 -26q33 0 50 11.5t23 23l6 11.5h174l-5 -19t-19 -46.5t-42 -55.5
t-73.5 -47t-113.5 -19zM232 322h169q-1 41 -24 61.5t-61 20.5q-32 0 -56.5 -20t-27.5 -62z" />
    <glyph glyph-name="Edotaccent" unicode="&#x116;" horiz-adv-x="656" 
d="M328 793q-47 0 -77.5 30.5t-30.5 72.5q0 44 30.5 74t77.5 30t78 -30t31 -74q0 -42 -31 -72.5t-78 -30.5zM60 0v740h536v-166h-344v-120h299v-158h-299v-130h349v-166h-541z" />
    <glyph glyph-name="edotaccent" unicode="&#x117;" horiz-adv-x="624" 
d="M320 584q-47 0 -77.5 30.5t-30.5 72.5q0 44 30.5 74t77.5 30t78 -30t31 -74q0 -42 -31 -72.5t-78 -30.5zM326 -10q-73 0 -126.5 23t-88.5 62.5t-52 89t-17 101.5q0 50 16.5 99t50.5 88.5t86.5 63t124.5 23.5q78 0 137 -33t92 -95.5t33 -151.5v-43h-349q3 -34 26.5 -60
t66.5 -26q33 0 50 11.5t23 23l6 11.5h174l-5 -19t-19 -46.5t-42 -55.5t-73.5 -47t-113.5 -19zM232 322h169q-1 41 -24 61.5t-61 20.5q-32 0 -56.5 -20t-27.5 -62z" />
    <glyph glyph-name="Eogonek" unicode="&#x118;" horiz-adv-x="656" 
d="M60 0v740h536v-166h-344v-120h299v-158h-299v-130h349v-166l-12 -6.5t-24.5 -18.5t-12.5 -30q0 -13 12 -24t40 -11q12 0 22 1.5l10 1.5v-102l-17.5 -2.5t-43.5 -2.5q-82 0 -118 32t-36 75q0 31 15 52.5t34 34.5h-410z" />
    <glyph glyph-name="eogonek" unicode="&#x119;" horiz-adv-x="624" 
d="M365 -194q-82 0 -118 32t-36 75q0 30 13 50t31 34q-72 14 -119.5 55t-70.5 97.5t-23 116.5q0 50 16.5 99t50.5 88.5t86.5 63t124.5 23.5q78 0 137 -33t92 -95.5t33 -151.5v-43h-349q3 -34 26.5 -60t66.5 -26q33 0 50 11.5t23 23l6 11.5h174l-4 -16t-15.5 -40.5t-33.5 -51
t-58 -47.5t-90 -28q-11 -7 -23.5 -19t-12.5 -30q0 -13 12 -24t40 -11q12 0 22 1.5l10 1.5v-102l-17.5 -2.5t-43.5 -2.5zM232 322h169q-1 41 -24 61.5t-61 20.5q-32 0 -56.5 -20t-27.5 -62z" />
    <glyph glyph-name="Ecaron" unicode="&#x11a;" horiz-adv-x="656" 
d="M254 800l-135 189h141l68 -102l67 102h141l-135 -189h-147zM60 0v740h536v-166h-344v-120h299v-158h-299v-130h349v-166h-541z" />
    <glyph glyph-name="ecaron" unicode="&#x11b;" horiz-adv-x="624" 
d="M246 591l-135 189h141l68 -102l67 102h141l-135 -189h-147zM326 -10q-73 0 -126.5 23t-88.5 62.5t-52 89t-17 101.5q0 50 16.5 99t50.5 88.5t86.5 63t124.5 23.5q78 0 137 -33t92 -95.5t33 -151.5v-43h-349q3 -34 26.5 -60t66.5 -26q33 0 50 11.5t23 23l6 11.5h174
l-5 -19t-19 -46.5t-42 -55.5t-73.5 -47t-113.5 -19zM232 322h169q-1 41 -24 61.5t-61 20.5q-32 0 -56.5 -20t-27.5 -62z" />
    <glyph glyph-name="Gbreve" unicode="&#x11e;" horiz-adv-x="795" 
d="M419 802q-60 0 -97.5 19t-57.5 46.5t-28 55t-9.5 46.5l-1.5 19h119l1.5 -12t8.5 -28.5t22 -28.5t43 -12t43.5 12t22 28.5t8 28.5l1.5 12h119l-1.5 -19t-9.5 -46.5t-28 -55t-57.5 -46.5t-97.5 -19zM414 -10q-96 0 -168 32t-120 86t-72 122t-24 139t24.5 139t73 122.5
t121.5 87t170 32.5q77 0 132.5 -19t92.5 -49.5t59.5 -64.5t34 -64.5t15.5 -49.5l4 -19h-190l-5.5 15t-21 34t-44.5 34t-77 15q-63 0 -105.5 -30.5t-64 -78.5t-21.5 -101t22 -102.5t65.5 -81t107.5 -31.5q63 0 100.5 28.5t49.5 75.5h-173v148h364v-61q0 -117 -45 -197
t-123.5 -120.5t-181.5 -40.5z" />
    <glyph glyph-name="gbreve" unicode="&#x11f;" horiz-adv-x="667" 
d="M333 592q-60 0 -97.5 19t-57.5 46.5t-28 55t-9.5 46.5l-1.5 19h119l1.5 -12t8.5 -28.5t22 -28.5t43 -12t43.5 12t22 28.5t8 28.5l1.5 12h119l-1.5 -19t-9.5 -46.5t-28 -55t-57.5 -46.5t-97.5 -19zM330 -214q-78 0 -128.5 19t-79 46.5t-41.5 55.5t-16.5 47l-3.5 19h183
l6 -11t23.5 -22t53.5 -11q46 0 73 27t27 80v54h-8q-15 -25 -50.5 -49.5t-94.5 -24.5q-58 0 -101.5 22t-72.5 59.5t-43.5 84.5t-14.5 96t14.5 96t43.5 84.5t72.5 59.5t101.5 22q59 0 95 -25t50 -49h8v64h190v-494q0 -46 -16.5 -90.5t-51 -80.5t-89 -57.5t-130.5 -21.5z
M333 162q34 0 56.5 17t33.5 44t11 55q0 30 -11 56.5t-33.5 43t-56.5 16.5q-33 0 -55.5 -16.5t-34 -43t-11.5 -56.5q0 -28 11.5 -55t34 -44t55.5 -17z" />
    <glyph glyph-name="Gdotaccent" unicode="&#x120;" horiz-adv-x="795" 
d="M419 793q-47 0 -77.5 30.5t-30.5 72.5q0 44 30.5 74t77.5 30t78 -30t31 -74q0 -42 -31 -72.5t-78 -30.5zM414 -10q-96 0 -168 32t-120 86t-72 122t-24 139t24.5 139t73 122.5t121.5 87t170 32.5q77 0 132.5 -19t92.5 -49.5t59.5 -64.5t34 -64.5t15.5 -49.5l4 -19h-190
l-5.5 15t-21 34t-44.5 34t-77 15q-63 0 -105.5 -30.5t-64 -78.5t-21.5 -101t22 -102.5t65.5 -81t107.5 -31.5q63 0 100.5 28.5t49.5 75.5h-173v148h364v-61q0 -117 -45 -197t-123.5 -120.5t-181.5 -40.5z" />
    <glyph glyph-name="gdotaccent" unicode="&#x121;" horiz-adv-x="667" 
d="M333 583q-47 0 -77.5 30.5t-30.5 72.5q0 44 30.5 74t77.5 30t78 -30t31 -74q0 -42 -31 -72.5t-78 -30.5zM330 -214q-78 0 -128.5 19t-79 46.5t-41.5 55.5t-16.5 47l-3.5 19h183l6 -11t23.5 -22t53.5 -11q46 0 73 27t27 80v54h-8q-15 -25 -50.5 -49.5t-94.5 -24.5
q-58 0 -101.5 22t-72.5 59.5t-43.5 84.5t-14.5 96t14.5 96t43.5 84.5t72.5 59.5t101.5 22q59 0 95 -25t50 -49h8v64h190v-494q0 -46 -16.5 -90.5t-51 -80.5t-89 -57.5t-130.5 -21.5zM333 162q34 0 56.5 17t33.5 44t11 55q0 30 -11 56.5t-33.5 43t-56.5 16.5
q-33 0 -55.5 -16.5t-34 -43t-11.5 -56.5q0 -28 11.5 -55t34 -44t55.5 -17z" />
    <glyph glyph-name="Hbar" unicode="&#x126;" horiz-adv-x="791" 
d="M82 0v527h-72v131h72v82h192v-82h244v82h192v-82h71v-131h-71v-527h-192v298h-244v-298h-192zM274 462h244v65h-244v-65z" />
    <glyph glyph-name="hbar" unicode="&#x127;" horiz-adv-x="649" 
d="M84 0v565h-84v115h84v80h190v-80h116v-115h-116v-110h5q11 18 28.5 37.5t46.5 33.5t73 14q65 0 102.5 -29.5t53.5 -74t16 -89.5v-347h-190v309q0 29 -15 53.5t-52 24.5q-39 0 -53.5 -25t-14.5 -53v-309h-190z" />
    <glyph glyph-name="Itilde" unicode="&#x128;" horiz-adv-x="312" 
d="M234 822q-27 0 -47 9t-35.5 20.5t-28.5 20.5t-27 9q-15 0 -20.5 -13.5t-5.5 -39.5h-93q0 35 8 71.5t31.5 62t68.5 25.5q37 0 61.5 -14.5t42.5 -29.5t35 -15q14 0 19.5 14t5.5 39h93q0 -34 -8 -71t-31 -62.5t-69 -25.5zM60 0v740h192v-740h-192z" />
    <glyph glyph-name="itilde" unicode="&#x129;" horiz-adv-x="320" 
d="M238 612q-27 0 -47 9t-35.5 20.5t-28.5 20.5t-27 9q-15 0 -20.5 -13.5t-5.5 -39.5h-93q0 35 8 71.5t31.5 62t68.5 25.5q37 0 61.5 -14.5t42.5 -29.5t35 -15q14 0 19.5 14t5.5 39h93q0 -34 -8 -71t-31 -62.5t-69 -25.5zM65 0v530h190v-530h-190z" />
    <glyph glyph-name="Imacron" unicode="&#x12a;" horiz-adv-x="312" 
d="M-14 818v102h340v-102h-340zM60 0v740h192v-740h-192z" />
    <glyph glyph-name="imacron" unicode="&#x12b;" horiz-adv-x="320" 
d="M-10 608v102h340v-102h-340zM65 0v530h190v-530h-190z" />
    <glyph glyph-name="Iogonek" unicode="&#x12e;" horiz-adv-x="312" 
d="M60 0v740h192v-740l-12 -6.5t-24.5 -18.5t-12.5 -30q0 -13 12 -24t40 -11q12 0 22 1.5l10 1.5v-102l-17.5 -2.5t-43.5 -2.5q-82 0 -118 32t-36 75q0 31 15 52.5t34 34.5h-61z" />
    <glyph glyph-name="iogonek" unicode="&#x12f;" horiz-adv-x="320" 
d="M160 583q-47 0 -77.5 30.5t-30.5 72.5q0 44 30.5 74t77.5 30t78 -30t31 -74q0 -42 -31 -72.5t-78 -30.5zM65 0v530h190v-530l-12 -6.5t-24.5 -18.5t-12.5 -30q0 -13 12 -24t40 -11q12 0 22 1.5l10 1.5v-102l-17.5 -2.5t-43.5 -2.5q-82 0 -118 32t-36 75q0 31 15 52.5
t34 34.5h-59z" />
    <glyph glyph-name="Idotaccent" unicode="&#x130;" horiz-adv-x="312" 
d="M156 793q-47 0 -77.5 30.5t-30.5 72.5q0 44 30.5 74t77.5 30t78 -30t31 -74q0 -42 -31 -72.5t-78 -30.5zM60 0v740h192v-740h-192z" />
    <glyph glyph-name="dotlessi" unicode="&#x131;" horiz-adv-x="320" 
d="M65 0v530h190v-530h-190z" />
    <glyph glyph-name="Lacute" unicode="&#x139;" horiz-adv-x="656" 
d="M224 809l-133 1l77 179h170zM60 0v740h192v-574h349v-166h-541z" />
    <glyph glyph-name="lacute" unicode="&#x13a;" horiz-adv-x="310" 
d="M223 829l-133 1l77 179h170zM60 0v760h190v-760h-190z" />
    <glyph glyph-name="Lcaron" unicode="&#x13d;" horiz-adv-x="656" 
d="M82 800l-135 189h141l68 -102l67 102h141l-135 -189h-147zM60 0v740h192v-574h349v-166h-541z" />
    <glyph glyph-name="lcaron" unicode="&#x13e;" horiz-adv-x="418" 
d="M60 0v760h190v-760h-190zM317 522l10 238h151l-61 -238h-100z" />
    <glyph glyph-name="Lslash" unicode="&#x141;" horiz-adv-x="667" 
d="M71 0v266l-80 -39v134l80 39v340h192v-245l118 58v-134l-118 -58v-195h349v-166h-541z" />
    <glyph glyph-name="lslash" unicode="&#x142;" horiz-adv-x="410" 
d="M110 0v266l-100 -49v134l100 49v360h190v-266l100 49v-134l-100 -49v-360h-190z" />
    <glyph glyph-name="Nacute" unicode="&#x143;" horiz-adv-x="760" 
d="M444 809l-133 1l77 179h170zM60 0v740h177l273 -411v411h190v-740h-179l-271 390v-390h-190z" />
    <glyph glyph-name="nacute" unicode="&#x144;" horiz-adv-x="620" 
d="M380 599l-133 1l77 179h170zM55 0v530h190v-75h5q11 18 28.5 37.5t46.5 33.5t73 14q65 0 102.5 -29.5t53.5 -74t16 -89.5v-347h-190v309q0 29 -15 53.5t-52 24.5q-39 0 -53.5 -25t-14.5 -53v-309h-190z" />
    <glyph glyph-name="Ncaron" unicode="&#x147;" horiz-adv-x="760" 
d="M302 800l-135 189h141l68 -102l67 102h141l-135 -189h-147zM60 0v740h177l273 -411v411h190v-740h-179l-271 390v-390h-190z" />
    <glyph glyph-name="ncaron" unicode="&#x148;" horiz-adv-x="620" 
d="M238 590l-135 189h141l68 -102l67 102h141l-135 -189h-147zM55 0v530h190v-75h5q11 18 28.5 37.5t46.5 33.5t73 14q65 0 102.5 -29.5t53.5 -74t16 -89.5v-347h-190v309q0 29 -15 53.5t-52 24.5q-39 0 -53.5 -25t-14.5 -53v-309h-190z" />
    <glyph glyph-name="Omacron" unicode="&#x14c;" horiz-adv-x="830" 
d="M245 828v102h340v-102h-340zM415 -10q-96 0 -168 32.5t-120 87t-72.5 122.5t-24.5 139t24.5 138.5t72.5 121.5t120 86.5t168 32.5t168 -32.5t120.5 -86.5t72.5 -121.5t24 -138.5t-24 -139t-72.5 -122.5t-120.5 -87t-168 -32.5zM415 161q62 0 103 30.5t61.5 79t20.5 100.5
t-20.5 100t-61.5 78.5t-103 30.5q-61 0 -102 -30.5t-61.5 -78.5t-20.5 -100t20.5 -100.5t61.5 -79t102 -30.5z" />
    <glyph glyph-name="omacron" unicode="&#x14d;" horiz-adv-x="662" 
d="M161 608v102h340v-102h-340zM331 -10q-91 0 -156 38t-99 100.5t-34 136.5t34 136.5t99 100.5t156 38q92 0 156.5 -38t98.5 -100.5t34 -136.5t-34 -136.5t-98.5 -100.5t-156.5 -38zM331 142q46 0 72.5 35.5t26.5 87.5t-26.5 87.5t-72.5 35.5t-72.5 -35.5t-26.5 -87.5
t26.5 -87.5t72.5 -35.5z" />
    <glyph glyph-name="Ohungarumlaut" unicode="&#x150;" horiz-adv-x="830" 
d="M374 819l-123 1l47 179h160zM575 819l-123 1l47 179h160zM415 -10q-96 0 -168 32.5t-120 87t-72.5 122.5t-24.5 139t24.5 138.5t72.5 121.5t120 86.5t168 32.5t168 -32.5t120.5 -86.5t72.5 -121.5t24 -138.5t-24 -139t-72.5 -122.5t-120.5 -87t-168 -32.5zM415 161
q62 0 103 30.5t61.5 79t20.5 100.5t-20.5 100t-61.5 78.5t-103 30.5q-61 0 -102 -30.5t-61.5 -78.5t-20.5 -100t20.5 -100.5t61.5 -79t102 -30.5z" />
    <glyph glyph-name="ohungarumlaut" unicode="&#x151;" horiz-adv-x="662" 
d="M290 599l-123 1l47 179h160zM491 599l-123 1l47 179h160zM331 -10q-91 0 -156 38t-99 100.5t-34 136.5t34 136.5t99 100.5t156 38q92 0 156.5 -38t98.5 -100.5t34 -136.5t-34 -136.5t-98.5 -100.5t-156.5 -38zM331 142q46 0 72.5 35.5t26.5 87.5t-26.5 87.5t-72.5 35.5
t-72.5 -35.5t-26.5 -87.5t26.5 -87.5t72.5 -35.5z" />
    <glyph glyph-name="OE" unicode="&#x152;" horiz-adv-x="1070" 
d="M1010 740v-166h-344v-120h299v-158h-299v-130h349v-166h-586q-103 0 -178.5 31.5t-124.5 84.5t-72.5 119t-23.5 135t23.5 135t72.5 119t124.5 84.5t178.5 31.5h581zM223 368q0 -49 20.5 -95t66 -75.5t119.5 -29.5h45v401h-45q-74 0 -119.5 -29.5t-66 -75.5t-20.5 -96z
" />
    <glyph glyph-name="oe" unicode="&#x153;" horiz-adv-x="1007" 
d="M327 -10q-89 0 -152 38t-96.5 100.5t-33.5 136.5t33.5 136.5t96.5 100.5t152 38q120 0 187 -78q64 78 184 78q80 0 139 -33.5t92 -96t33 -150.5v-43h-349q3 -36 27 -61t67 -25q32 0 49 11.5t23 23l6 11.5h174l-5 -19t-19 -46.5t-42 -55.5t-73.5 -47t-113.5 -19
q-126 0 -190 79q-68 -79 -189 -79zM613 328h168q-1 37 -23.5 55.5t-57.5 18.5q-33 0 -57.5 -18t-29.5 -56zM327 142q46 0 72.5 35.5t26.5 87.5t-26.5 87.5t-72.5 35.5t-72.5 -35.5t-26.5 -87.5t26.5 -87.5t72.5 -35.5z" />
    <glyph glyph-name="Racute" unicode="&#x154;" horiz-adv-x="741" 
d="M367 809l-133 1l77 179h170zM60 0v740h326q83 0 146 -27t98 -79.5t35 -129.5q0 -75 -34.5 -127.5t-94.5 -79.5l144 -297h-211l-125 268h-92v-268h-192zM383 575h-131v-154h131q40 0 65 20t25 57q0 38 -25 57.5t-65 19.5z" />
    <glyph glyph-name="racute" unicode="&#x155;" horiz-adv-x="463" 
d="M298 599l-133 1l77 179h170zM60 0v530h188v-84h6q8 22 23 43.5t43 36t74 14.5q24 0 36.5 -3.5l12.5 -3.5v-188l-13.5 3.5t-40.5 3.5q-72 0 -105.5 -38t-33.5 -123v-191h-190z" />
    <glyph glyph-name="Rcaron" unicode="&#x158;" horiz-adv-x="741" 
d="M225 800l-135 189h141l68 -102l67 102h141l-135 -189h-147zM60 0v740h326q83 0 146 -27t98 -79.5t35 -129.5q0 -75 -34.5 -127.5t-94.5 -79.5l144 -297h-211l-125 268h-92v-268h-192zM383 575h-131v-154h131q40 0 65 20t25 57q0 38 -25 57.5t-65 19.5z" />
    <glyph glyph-name="rcaron" unicode="&#x159;" horiz-adv-x="463" 
d="M156 590l-135 189h141l68 -102l67 102h141l-135 -189h-147zM60 0v530h188v-84h6q8 22 23 43.5t43 36t74 14.5q24 0 36.5 -3.5l12.5 -3.5v-188l-13.5 3.5t-40.5 3.5q-72 0 -105.5 -38t-33.5 -123v-191h-190z" />
    <glyph glyph-name="Sacute" unicode="&#x15a;" horiz-adv-x="687" 
d="M412 809l-133 1l77 179h170zM355 -10q-77 0 -131.5 18t-90 46t-56.5 60t-31 60t-13 46l-3 18h194l4 -14t17.5 -32.5t41.5 -32.5t76 -14q59 0 82.5 22.5t23.5 48.5q0 24 -17.5 38.5t-60.5 21.5l-99 16q-64 11 -121 35t-92.5 69t-35.5 118q0 70 35.5 123t101.5 83t157 30
q71 0 121 -16.5t83 -43t53 -55.5t30 -55.5t13 -43l3 -16.5h-189l-3.5 11.5t-15.5 26t-35.5 26t-63.5 11.5q-38 0 -60.5 -11t-32 -27t-9.5 -32q0 -29 27.5 -42.5t67.5 -20.5l104 -17q62 -10 114.5 -35.5t84.5 -70t32 -111.5q0 -69 -36 -123t-104 -84.5t-166 -30.5z" />
    <glyph glyph-name="sacute" unicode="&#x15b;" horiz-adv-x="556" 
d="M356 599l-133 1l77 179h170zM293 -10q-70 0 -115.5 18.5t-72.5 46t-40.5 54.5t-17.5 45.5l-4 18.5h171l6 -12.5t25.5 -25t57.5 -12.5q25 0 36.5 6.5t15 14.5t3.5 12q0 25 -45 32l-73 12q-49 8 -93 26t-71 51t-27 86q0 50 26 90t76.5 63.5t122.5 23.5q65 0 108 -17.5
t69 -42.5t39 -50.5t17 -43l4 -17.5h-166l-5.5 10.5t-22 20.5t-48.5 10t-43 -11.5t-11 -22.5q0 -16 16 -22.5t41 -11.5l65 -12q82 -15 134 -52.5t52 -110.5q0 -76 -59 -126.5t-171 -50.5z" />
    <glyph glyph-name="Scedilla" unicode="&#x15e;" horiz-adv-x="687" 
d="M319 -263q-20 0 -41 2t-34.5 4l-13.5 2v92l13 -1.5t31.5 -3t34.5 -1.5q44 0 58 11.5t14 23.5t-9.5 19t-25.5 7q-21 0 -37.5 -9.5l-16.5 -9.5l-64 65l43 59q-68 12 -112.5 40t-70.5 62t-38.5 66t-16 52.5l-3.5 20.5h194l4 -14t17.5 -32.5t41.5 -32.5t76 -14
q59 0 82.5 22.5t23.5 48.5q0 24 -17.5 38.5t-60.5 21.5l-99 16q-64 11 -121 35t-92.5 69t-35.5 118q0 70 35.5 123t101.5 83t157 30q71 0 121 -16.5t83 -43t53 -55.5t30 -55.5t13 -43l3 -16.5h-189l-3.5 11.5t-15.5 26t-35.5 26t-63.5 11.5q-38 0 -60.5 -11t-32 -27
t-9.5 -32q0 -29 27.5 -42.5t67.5 -20.5l104 -17q62 -10 114.5 -35.5t84.5 -70t32 -111.5q0 -66 -33 -118t-95.5 -83.5t-152.5 -35.5l-14 -20q7 1 16 1q50 0 80 -31t30 -77q0 -50 -42 -88.5t-131 -38.5z" />
    <glyph glyph-name="scedilla" unicode="&#x15f;" horiz-adv-x="556" 
d="M263 -263q-20 0 -41 2t-34.5 4l-13.5 2v92l13 -1.5t31.5 -3t34.5 -1.5q44 0 58 11.5t14 23.5t-9.5 19t-25.5 7q-21 0 -37.5 -9.5l-16.5 -9.5l-64 65l44 60q-48 10 -79.5 31t-50.5 45.5t-28 47t-12 37l-3 14.5h171l6 -12.5t25.5 -25t57.5 -12.5q25 0 36.5 6.5t15 14.5
t3.5 12q0 25 -45 32l-73 12q-49 8 -93 26t-71 51t-27 86q0 50 26 90t76.5 63.5t122.5 23.5q65 0 108 -17.5t69 -42.5t39 -50.5t17 -43l4 -17.5h-166l-5.5 10.5t-22 20.5t-48.5 10t-43 -11.5t-11 -22.5q0 -16 16 -22.5t41 -11.5l65 -12q82 -15 134 -52.5t52 -110.5
q0 -71 -51 -119.5t-147 -56.5l-15 -20q7 1 16 1q50 0 80 -31t30 -77q0 -50 -42 -88.5t-131 -38.5z" />
    <glyph glyph-name="Scaron" unicode="&#x160;" horiz-adv-x="687" 
d="M270 800l-135 189h141l68 -102l67 102h141l-135 -189h-147zM355 -10q-77 0 -131.5 18t-90 46t-56.5 60t-31 60t-13 46l-3 18h194l4 -14t17.5 -32.5t41.5 -32.5t76 -14q59 0 82.5 22.5t23.5 48.5q0 24 -17.5 38.5t-60.5 21.5l-99 16q-64 11 -121 35t-92.5 69t-35.5 118
q0 70 35.5 123t101.5 83t157 30q71 0 121 -16.5t83 -43t53 -55.5t30 -55.5t13 -43l3 -16.5h-189l-3.5 11.5t-15.5 26t-35.5 26t-63.5 11.5q-38 0 -60.5 -11t-32 -27t-9.5 -32q0 -29 27.5 -42.5t67.5 -20.5l104 -17q62 -10 114.5 -35.5t84.5 -70t32 -111.5q0 -69 -36 -123
t-104 -84.5t-166 -30.5z" />
    <glyph glyph-name="scaron" unicode="&#x161;" horiz-adv-x="556" 
d="M79 758h141l68 -81l67 81h141l-135 -159h-147zM293 -10q-70 0 -115.5 18.5t-72.5 46t-40.5 54.5t-17.5 45.5l-4 18.5h171l6 -12.5t25.5 -25t57.5 -12.5q25 0 36.5 6.5t15 14.5t3.5 12q0 25 -45 32l-73 12q-49 8 -93 26t-71 51t-27 86q0 50 26 90t76.5 63.5t122.5 23.5
q65 0 108 -17.5t69 -42.5t39 -50.5t17 -43l4 -17.5h-166l-5.5 10.5t-22 20.5t-48.5 10t-43 -11.5t-11 -22.5q0 -16 16 -22.5t41 -11.5l65 -12q82 -15 134 -52.5t52 -110.5q0 -76 -59 -126.5t-171 -50.5z" />
    <glyph glyph-name="uni0162" unicode="&#x162;" horiz-adv-x="710" 
d="M259 0v574h-224v166h640v-166h-224v-574h-23l-22 -29q7 1 16 1q50 0 80 -31t30 -77q0 -50 -42 -88.5t-131 -38.5q-20 0 -41 2t-34.5 4l-13.5 2v92l13 -1.5t31.5 -3t34.5 -1.5q44 0 58 11.5t14 23.5t-9.5 19t-25.5 7q-21 0 -37.5 -9.5l-16.5 -9.5l-64 65l45 62h-54z" />
    <glyph glyph-name="uni0163" unicode="&#x163;" horiz-adv-x="444" 
d="M311 -10h-9l-14 -19q7 1 16 1q50 0 80 -31t30 -77q0 -50 -42 -88.5t-131 -38.5q-20 0 -41 2t-34.5 4l-13.5 2v92l13 -1.5t31.5 -3t34.5 -1.5q44 0 58 11.5t14 23.5t-9.5 19t-25.5 7q-21 0 -37.5 -9.5l-16.5 -9.5l-64 65l53 72q-35 16 -53.5 40.5t-27 51t-10 50.5t-1.5 39
v189h-86v150h86v130h190v-130h103v-150h-103v-182q0 -28 15 -45.5t55 -17.5q16 0 27 2.5l11 2.5v-140l-29.5 -5t-68.5 -5z" />
    <glyph glyph-name="Tcaron" unicode="&#x164;" horiz-adv-x="710" 
d="M281 800l-135 189h141l68 -102l67 102h141l-135 -189h-147zM259 0v574h-224v166h640v-166h-224v-574h-192z" />
    <glyph glyph-name="tcaron" unicode="&#x165;" horiz-adv-x="479" 
d="M343 578l10 238h151l-61 -238h-100zM311 -10q-60 0 -98 15.5t-59 40t-30 52.5t-11 52.5t-2 40.5v189h-86v150h86v130h190v-130h103v-150h-103v-182q0 -28 15 -45.5t55 -17.5q16 0 27 2.5l11 2.5v-140l-29.5 -5t-68.5 -5z" />
    <glyph glyph-name="Tbar" unicode="&#x166;" horiz-adv-x="710" 
d="M259 0v313h-185v115h185v146h-224v166h640v-166h-224v-146h185v-115h-185v-313h-192z" />
    <glyph glyph-name="tbar" unicode="&#x167;" horiz-adv-x="444" 
d="M32 212v123h79v45h-86v150h86v130h190v-130h103v-150h-103v-45h70v-123h-70v-14q0 -28 15 -45.5t55 -17.5q16 0 27 2.5l11 2.5v-140l-29.5 -5t-68.5 -5q-60 0 -98 15.5t-59 40t-30 52.5t-11 52.5t-2 40.5v21h-79z" />
    <glyph glyph-name="Utilde" unicode="&#x168;" horiz-adv-x="746" 
d="M451 822q-27 0 -47 9t-35.5 20.5t-28.5 20.5t-27 9q-15 0 -20.5 -13.5t-5.5 -39.5h-93q0 35 8 71.5t31.5 62t68.5 25.5q37 0 61.5 -14.5t42.5 -29.5t35 -15q14 0 19.5 14t5.5 39h93q0 -34 -8 -71t-31 -62.5t-69 -25.5zM373 -10q-57 0 -113 16t-101 52t-72 95.5t-27 146.5
v440h192v-440q0 -54 29 -92t92 -38t92 38t29 92v440h192v-440q0 -87 -27 -146.5t-72 -95.5t-101 -52t-113 -16z" />
    <glyph glyph-name="utilde" unicode="&#x169;" horiz-adv-x="608" 
d="M384 612q-27 0 -47 9t-35.5 20.5t-28.5 20.5t-27 9q-15 0 -20.5 -13.5t-5.5 -39.5h-93q0 35 8 71.5t31.5 62t68.5 25.5q37 0 61.5 -14.5t42.5 -29.5t35 -15q14 0 19.5 14t5.5 39h93q0 -34 -8 -71t-31 -62.5t-69 -25.5zM215 -10q-58 0 -93.5 25t-51 65.5t-15.5 86.5v363
h188v-316q0 -30 15 -50.5t48 -20.5q34 0 48 21.5t14 49.5v316h190v-530h-190v75h-6q-22 -40 -58 -62.5t-89 -22.5z" />
    <glyph glyph-name="Umacron" unicode="&#x16a;" horiz-adv-x="746" 
d="M203 818v102h340v-102h-340zM373 -10q-57 0 -113 16t-101 52t-72 95.5t-27 146.5v440h192v-440q0 -54 29 -92t92 -38t92 38t29 92v440h192v-440q0 -87 -27 -146.5t-72 -95.5t-101 -52t-113 -16z" />
    <glyph glyph-name="umacron" unicode="&#x16b;" horiz-adv-x="608" 
d="M136 608v102h340v-102h-340zM215 -10q-58 0 -93.5 25t-51 65.5t-15.5 86.5v363h188v-316q0 -30 15 -50.5t48 -20.5q34 0 48 21.5t14 49.5v316h190v-530h-190v75h-6q-22 -40 -58 -62.5t-89 -22.5z" />
    <glyph glyph-name="Uring" unicode="&#x16e;" horiz-adv-x="746" 
d="M373 788q-39 0 -71 19t-51 51t-19 71t19 70.5t51 50.5t71 19t71 -19t51 -50.5t19 -70.5t-19 -71t-51 -51t-71 -19zM373 878q21 0 36 14.5t15 36.5q0 21 -15 35.5t-36 14.5t-36 -14.5t-15 -35.5q0 -22 15 -36.5t36 -14.5zM373 -10q-57 0 -113 16t-101 52t-72 95.5
t-27 146.5v440h192v-440q0 -54 29 -92t92 -38t92 38t29 92v440h192v-440q0 -87 -27 -146.5t-72 -95.5t-101 -52t-113 -16z" />
    <glyph glyph-name="uring" unicode="&#x16f;" horiz-adv-x="608" 
d="M306 578q-39 0 -71 19t-51 51t-19 71t19 70.5t51 50.5t71 19t71 -19t51 -50.5t19 -70.5t-19 -71t-51 -51t-71 -19zM306 668q21 0 36 14.5t15 36.5q0 21 -15 35.5t-36 14.5t-36 -14.5t-15 -35.5q0 -22 15 -36.5t36 -14.5zM215 -10q-58 0 -93.5 25t-51 65.5t-15.5 86.5v363
h188v-316q0 -30 15 -50.5t48 -20.5q34 0 48 21.5t14 49.5v316h190v-530h-190v75h-6q-22 -40 -58 -62.5t-89 -22.5z" />
    <glyph glyph-name="Uhungarumlaut" unicode="&#x170;" horiz-adv-x="746" 
d="M332 809l-123 1l47 179h160zM533 809l-123 1l47 179h160zM373 -10q-57 0 -113 16t-101 52t-72 95.5t-27 146.5v440h192v-440q0 -54 29 -92t92 -38t92 38t29 92v440h192v-440q0 -87 -27 -146.5t-72 -95.5t-101 -52t-113 -16z" />
    <glyph glyph-name="uhungarumlaut" unicode="&#x171;" horiz-adv-x="608" 
d="M265 599l-123 1l47 179h160zM466 599l-123 1l47 179h160zM215 -10q-58 0 -93.5 25t-51 65.5t-15.5 86.5v363h188v-316q0 -30 15 -50.5t48 -20.5q34 0 48 21.5t14 49.5v316h190v-530h-190v75h-6q-22 -40 -58 -62.5t-89 -22.5z" />
    <glyph glyph-name="Uogonek" unicode="&#x172;" horiz-adv-x="746" 
d="M417 -198q-82 0 -118 32t-36 75q0 31 14 51.5t33 34.5q-65 9 -122.5 43t-92.5 98t-35 164v440h192v-440q0 -54 29 -92t92 -38t92 38t29 92v440h192v-440q0 -99 -34 -162t-90 -97.5t-120 -44.5q-4 -2 -15.5 -8.5t-22 -18.5t-10.5 -28q0 -13 12 -24t40 -11q12 0 22 1.5
l10 1.5v-102l-17.5 -2.5t-43.5 -2.5z" />
    <glyph glyph-name="uogonek" unicode="&#x173;" horiz-adv-x="608" 
d="M215 -10q-58 0 -93.5 25t-51 65.5t-15.5 86.5v363h188v-316q0 -30 15 -50.5t48 -20.5q34 0 48 21.5t14 49.5v316h190v-530l-12 -6.5t-24.5 -18.5t-12.5 -30q0 -13 12 -24t40 -11q12 0 22 1.5l10 1.5v-102l-17.5 -2.5t-43.5 -2.5q-82 0 -118 32t-36 75q0 31 15 52.5
t34 34.5h-59v75h-6q-22 -40 -58 -62.5t-89 -22.5z" />
    <glyph glyph-name="Wcircumflex" unicode="&#x174;" horiz-adv-x="1071" 
d="M328 799l135 189h147l135 -189h-141l-67 102l-68 -102h-141zM186 0l-176 740h190l116 -497l120 497h199l120 -497l116 497h190l-176 -740h-253l-96 406l-97 -406h-253z" />
    <glyph glyph-name="wcircumflex" unicode="&#x175;" horiz-adv-x="893" 
d="M239 589l135 189h147l135 -189h-141l-67 102l-68 -102h-141zM174 0l-159 530h188l74 -304l85 304h169l85 -304l74 304h188l-159 -530h-200l-72 255l-73 -255h-200z" />
    <glyph glyph-name="Ycircumflex" unicode="&#x176;" horiz-adv-x="754" 
d="M169 799l135 189h147l135 -189h-141l-67 102l-68 -102h-141zM281 0v247l-261 493h210l147 -296l146 296h211l-261 -493v-247h-192z" />
    <glyph glyph-name="ycircumflex" unicode="&#x177;" horiz-adv-x="606" 
d="M100 589l135 189h147l135 -189h-141l-67 102l-68 -102h-141zM109 -195q-30 0 -46.5 2l-16.5 2v150l12 -1t33 -1q40 0 66.5 8t46.5 34l-189 531h188l102 -320l98 320h188l-179 -495q-27 -76 -64 -127.5t-93.5 -77t-145.5 -25.5z" />
    <glyph glyph-name="Ydieresis" unicode="&#x178;" horiz-adv-x="754" 
d="M502 788q-45 0 -73.5 28.5t-28.5 68.5q0 41 28.5 69.5t73.5 28.5q44 0 73 -28.5t29 -69.5q0 -40 -29 -68.5t-73 -28.5zM251 788q-45 0 -73.5 28.5t-28.5 68.5q0 41 28.5 69.5t73.5 28.5q44 0 73 -28.5t29 -69.5q0 -40 -29 -68.5t-73 -28.5zM281 0v247l-261 493h210
l147 -296l146 296h211l-261 -493v-247h-192z" />
    <glyph glyph-name="Zacute" unicode="&#x179;" horiz-adv-x="671" 
d="M387 809l-133 1l77 179h170zM39 0v133l339 440h-339v167h592v-132l-341 -440h341v-168h-592z" />
    <glyph glyph-name="zacute" unicode="&#x17a;" horiz-adv-x="533" 
d="M317 599l-133 1l77 179h170zM45 0v129l236 254h-231v147h457v-129l-236 -254h236v-147h-462z" />
    <glyph glyph-name="Zdotaccent" unicode="&#x17b;" horiz-adv-x="671" 
d="M319 793q-47 0 -77.5 30.5t-30.5 72.5q0 44 30.5 74t77.5 30t78 -30t31 -74q0 -42 -31 -72.5t-78 -30.5zM39 0v133l339 440h-339v167h592v-132l-341 -440h341v-168h-592z" />
    <glyph glyph-name="zdotaccent" unicode="&#x17c;" horiz-adv-x="533" 
d="M249 583q-47 0 -77.5 30.5t-30.5 72.5q0 44 30.5 74t77.5 30t78 -30t31 -74q0 -42 -31 -72.5t-78 -30.5zM45 0v129l236 254h-231v147h457v-129l-236 -254h236v-147h-462z" />
    <glyph glyph-name="Zcaron" unicode="&#x17d;" horiz-adv-x="671" 
d="M245 800l-135 189h141l68 -102l67 102h141l-135 -189h-147zM39 0v133l339 440h-339v167h592v-132l-341 -440h341v-168h-592z" />
    <glyph glyph-name="zcaron" unicode="&#x17e;" horiz-adv-x="533" 
d="M175 590l-135 189h141l68 -102l67 102h141l-135 -189h-147zM45 0v129l236 254h-231v147h457v-129l-236 -254h236v-147h-462z" />
    <glyph glyph-name="Ohorn" unicode="&#x1a0;" horiz-adv-x="830" 
d="M415 -10q-96 0 -168 32.5t-120 87t-72.5 122.5t-24.5 139t24.5 138.5t72.5 121.5t120 86.5t168 32.5q16 0 31 -1h123q62 0 62 62v56h157v-80q0 -61 -25.5 -93.5t-81.5 -39.5q59 -55 89 -130t30 -153q0 -71 -24 -139t-72.5 -122.5t-120.5 -87t-168 -32.5zM415 161
q62 0 103 30.5t61.5 79t20.5 100.5t-20.5 100t-61.5 78.5t-103 30.5q-61 0 -102 -30.5t-61.5 -78.5t-20.5 -100t20.5 -100.5t61.5 -79t102 -30.5z" />
    <glyph glyph-name="ohorn" unicode="&#x1a1;" horiz-adv-x="687" 
d="M334 -10q-91 0 -156 38t-99 100.5t-34 136.5t34 136.5t99 100.5t156 38h121q40 0 40 40v78h147v-87q0 -103 -91 -117q35 -37 53.5 -86t18.5 -103q0 -74 -34 -136.5t-98.5 -100.5t-156.5 -38zM334 142q46 0 72.5 35.5t26.5 87.5t-26.5 87.5t-72.5 35.5t-72.5 -35.5
t-26.5 -87.5t26.5 -87.5t72.5 -35.5z" />
    <glyph glyph-name="Uhorn" unicode="&#x1af;" horiz-adv-x="746" 
d="M373 -10q-57 0 -113 16t-101 52t-72 95.5t-27 146.5v440h192v-440q0 -54 29 -92t92 -38t92 38t29 92v440h121q40 0 40 40v78h147v-87q0 -58 -30 -88.5t-86 -30.5v-352q0 -87 -27 -146.5t-72 -95.5t-101 -52t-113 -16z" />
    <glyph glyph-name="uhorn" unicode="&#x1b0;" horiz-adv-x="603" 
d="M210 -10q-58 0 -93.5 25t-51 65.5t-15.5 86.5v363h188v-316q0 -30 15 -50.5t48 -20.5q34 0 48 21.5t14 49.5v316h121q40 0 40 40v78h147v-87q0 -58 -30.5 -88.5t-87.5 -30.5v-442h-190v75h-6q-22 -40 -58 -62.5t-89 -22.5z" />
    <glyph glyph-name="Gcaron" unicode="&#x1e6;" horiz-adv-x="795" 
d="M345 800l-135 189h141l68 -102l67 102h141l-135 -189h-147zM414 -10q-96 0 -168 32t-120 86t-72 122t-24 139t24.5 139t73 122.5t121.5 87t170 32.5q77 0 132.5 -19t92.5 -49.5t59.5 -64.5t34 -64.5t15.5 -49.5l4 -19h-190l-5.5 15t-21 34t-44.5 34t-77 15
q-63 0 -105.5 -30.5t-64 -78.5t-21.5 -101t22 -102.5t65.5 -81t107.5 -31.5q63 0 100.5 28.5t49.5 75.5h-173v148h364v-61q0 -117 -45 -197t-123.5 -120.5t-181.5 -40.5z" />
    <glyph glyph-name="gcaron" unicode="&#x1e7;" horiz-adv-x="667" 
d="M259 590l-135 189h141l68 -102l67 102h141l-135 -189h-147zM330 -214q-78 0 -128.5 19t-79 46.5t-41.5 55.5t-16.5 47l-3.5 19h183l6 -11t23.5 -22t53.5 -11q46 0 73 27t27 80v54h-8q-15 -25 -50.5 -49.5t-94.5 -24.5q-58 0 -101.5 22t-72.5 59.5t-43.5 84.5t-14.5 96
t14.5 96t43.5 84.5t72.5 59.5t101.5 22q59 0 95 -25t50 -49h8v64h190v-494q0 -46 -16.5 -90.5t-51 -80.5t-89 -57.5t-130.5 -21.5zM333 162q34 0 56.5 17t33.5 44t11 55q0 30 -11 56.5t-33.5 43t-56.5 16.5q-33 0 -55.5 -16.5t-34 -43t-11.5 -56.5q0 -28 11.5 -55t34 -44
t55.5 -17z" />
    <glyph glyph-name="circumflex" unicode="&#x2c6;" horiz-adv-x="647" 
d="M115 551l135 189h147l135 -189h-141l-67 102l-68 -102h-141z" />
    <glyph glyph-name="caron" unicode="&#x2c7;" horiz-adv-x="500" 
d="M169 590l-135 189h141l68 -102l67 102h141l-135 -189h-147z" />
    <glyph glyph-name="breve" unicode="&#x2d8;" horiz-adv-x="463" 
d="M193 592q-60 0 -97.5 19t-57.5 46.5t-28 55t-9.5 46.5l-1.5 19h119l1.5 -12t8.5 -28.5t22 -28.5t43 -12t43.5 12t22 28.5t8 28.5l1.5 12h119l-1.5 -19t-9.5 -46.5t-28 -55t-57.5 -46.5t-97.5 -19z" />
    <glyph glyph-name="dotaccent" unicode="&#x2d9;" horiz-adv-x="260" 
d="M160 583q-47 0 -77.5 30.5t-30.5 72.5q0 44 30.5 74t77.5 30t78 -30t31 -74q0 -42 -31 -72.5t-78 -30.5z" />
    <glyph glyph-name="ring" unicode="&#x2da;" horiz-adv-x="372" 
d="M186 578q-39 0 -71 19t-51 51t-19 71t19 70.5t51 50.5t71 19t71 -19t51 -50.5t19 -70.5t-19 -71t-51 -51t-71 -19zM186 668q21 0 36 14.5t15 36.5q0 21 -15 35.5t-36 14.5t-36 -14.5t-15 -35.5q0 -22 15 -36.5t36 -14.5z" />
    <glyph glyph-name="ogonek" unicode="&#x2db;" horiz-adv-x="265" 
d="M184 -235q-82 0 -118 32t-36 75q0 36 18.5 59t42 35t42 17l18.5 5l59 -29l-12 -6t-24.5 -18.5t-12.5 -30.5q0 -13 12 -24t40 -11q12 0 22 1.5l10 1.5v-102l-17.5 -2.5t-43.5 -2.5z" />
    <glyph glyph-name="tilde" unicode="&#x2dc;" horiz-adv-x="413" 
d="M285 612q-27 0 -47 9t-35.5 20.5t-28.5 20.5t-27 9q-15 0 -20.5 -13.5t-5.5 -39.5h-93q0 35 8 71.5t31.5 62t68.5 25.5q37 0 61.5 -14.5t42.5 -29.5t35 -15q14 0 19.5 14t5.5 39h93q0 -34 -8 -71t-31 -62.5t-69 -25.5z" />
    <glyph glyph-name="gravecomb" unicode="&#x300;" 
d="M116 599l-114 180h170l77 -179z" />
    <glyph glyph-name="acutecomb" unicode="&#x301;" 
d="M145 599l-133 1l77 179h170z" />
    <glyph glyph-name="uni0302" unicode="&#x302;" 
d="M34 589l135 189h147l135 -189h-141l-67 102l-68 -102h-141z" />
    <glyph glyph-name="tildecomb" unicode="&#x303;" 
d="M283 612q-27 0 -47 9t-35.5 20.5t-28.5 20.5t-27 9q-15 0 -20.5 -13.5t-5.5 -39.5h-93q0 35 8 71.5t31.5 62t68.5 25.5q37 0 61.5 -14.5t42.5 -29.5t35 -15q14 0 19.5 14t5.5 39h93q0 -34 -8 -71t-31 -62.5t-69 -25.5z" />
    <glyph glyph-name="uni0304" unicode="&#x304;" 
d="M120 653v102h340v-102h-340z" />
    <glyph glyph-name="uni0306" unicode="&#x306;" 
d="M175 592q-60 0 -97.5 19t-57.5 46.5t-28 55t-9.5 46.5l-1.5 19h119l1.5 -12t8.5 -28.5t22 -28.5t43 -12t43.5 12t22 28.5t8 28.5l1.5 12h119l-1.5 -19t-9.5 -46.5t-28 -55t-57.5 -46.5t-97.5 -19z" />
    <glyph glyph-name="uni0307" unicode="&#x307;" 
d="M189 583q-47 0 -77.5 30.5t-30.5 72.5q0 44 30.5 74t77.5 30t78 -30t31 -74q0 -42 -31 -72.5t-78 -30.5z" />
    <glyph glyph-name="uni0308" unicode="&#x308;" 
d="M429 578q-45 0 -73.5 28.5t-28.5 68.5q0 41 28.5 69.5t73.5 28.5q44 0 73 -28.5t29 -69.5q0 -40 -29 -68.5t-73 -28.5zM178 578q-45 0 -73.5 28.5t-28.5 68.5q0 41 28.5 69.5t73.5 28.5q44 0 73 -28.5t29 -69.5q0 -40 -29 -68.5t-73 -28.5z" />
    <glyph glyph-name="hookabovecomb" unicode="&#x309;" 
d="M137 585v33q0 15 6.5 27.5t21.5 19.5l16 8q19 10 30 19.5t11 25.5q0 12 -9 20.5t-23 8.5q-17 0 -24.5 -9t-9 -18.5l-1.5 -9.5h-101q-1 28 12 57t43 49t79 20q66 0 104 -34t38 -80q0 -40 -26.5 -64.5t-59.5 -42.5l-5 -3v-27h-102z" />
    <glyph glyph-name="uni030A" unicode="&#x30a;" 
d="M186 578q-39 0 -71 19t-51 51t-19 71t19 70.5t51 50.5t71 19t71 -19t51 -50.5t19 -70.5t-19 -71t-51 -51t-71 -19zM186 668q21 0 36 14.5t15 36.5q0 21 -15 35.5t-36 14.5t-36 -14.5t-15 -35.5q0 -22 15 -36.5t36 -14.5z" />
    <glyph glyph-name="uni030B" unicode="&#x30b;" 
d="M153 599l-123 1l47 179h160zM354 599l-123 1l47 179h160z" />
    <glyph glyph-name="uni030C" unicode="&#x30c;" 
d="M169 590l-135 189h141l68 -102l67 102h141l-135 -189h-147z" />
    <glyph glyph-name="uni0312" unicode="&#x312;" 
d="M214 873l-64 -109q34 -2 57 -26t23 -58q0 -35 -24 -59.5t-62 -24.5q-37 0 -62.5 24t-25.5 63q0 34 22.5 74t68.5 106l7 10h60z" />
    <glyph glyph-name="uni031B" unicode="&#x31b;" 
d="M439 648v-87q0 -58 -30.5 -88.5t-88.5 -30.5h-189v88h121q40 0 40 40v78h147z" />
    <glyph glyph-name="dotbelowcomb" unicode="&#x323;" 
d="M95 -260q-40 0 -64.5 26.5t-24.5 62.5q0 37 24.5 63t64.5 26q38 0 63.5 -26t25.5 -63q0 -36 -25.5 -62.5t-63.5 -26.5z" />
    <glyph glyph-name="uni0326" unicode="&#x326;" 
d="M28 -239l64 109q-34 2 -57 26t-23 58q0 35 24 59.5t62 24.5t63 -24t25 -63q0 -34 -22 -74t-69 -106l-7 -10h-60z" />
    <glyph glyph-name="uni0327" unicode="&#x327;" 
d="M69 -248q-20 0 -41 2t-34.5 4l-13.5 2v96l13 -1.5t31.5 -3t34.5 -1.5q44 0 58 11.5t14 23.5t-9.5 19t-25.5 7q-21 0 -37.5 -9.5l-16.5 -9.5l-64 65l68 93h115l-45 -60q7 1 16 1q50 0 80 -31t30 -77q0 -33 -18.5 -63t-57 -49t-97.5 -19z" />
    <glyph glyph-name="uni0328" unicode="&#x328;" 
d="M194 -235q-82 0 -118 32t-36 75q0 36 18.5 59t42 35t42 17l18.5 5l59 -29l-12 -6t-24.5 -18.5t-12.5 -30.5q0 -13 12 -24t40 -11q12 0 22 1.5l10 1.5v-102l-17.5 -2.5t-43.5 -2.5z" />
    <glyph glyph-name="uni1E20" unicode="&#x1e20;" horiz-adv-x="795" 
d="M249 818v102h340v-102h-340zM414 -10q-96 0 -168 32t-120 86t-72 122t-24 139t24.5 139t73 122.5t121.5 87t170 32.5q77 0 132.5 -19t92.5 -49.5t59.5 -64.5t34 -64.5t15.5 -49.5l4 -19h-190l-5.5 15t-21 34t-44.5 34t-77 15q-63 0 -105.5 -30.5t-64 -78.5t-21.5 -101
t22 -102.5t65.5 -81t107.5 -31.5q63 0 100.5 28.5t49.5 75.5h-173v148h364v-61q0 -117 -45 -197t-123.5 -120.5t-181.5 -40.5z" />
    <glyph glyph-name="uni1E21" unicode="&#x1e21;" horiz-adv-x="667" 
d="M163 608v102h340v-102h-340zM330 -214q-78 0 -128.5 19t-79 46.5t-41.5 55.5t-16.5 47l-3.5 19h183l6 -11t23.5 -22t53.5 -11q46 0 73 27t27 80v54h-8q-15 -25 -50.5 -49.5t-94.5 -24.5q-58 0 -101.5 22t-72.5 59.5t-43.5 84.5t-14.5 96t14.5 96t43.5 84.5t72.5 59.5
t101.5 22q59 0 95 -25t50 -49h8v64h190v-494q0 -46 -16.5 -90.5t-51 -80.5t-89 -57.5t-130.5 -21.5zM333 162q34 0 56.5 17t33.5 44t11 55q0 30 -11 56.5t-33.5 43t-56.5 16.5q-33 0 -55.5 -16.5t-34 -43t-11.5 -56.5q0 -28 11.5 -55t34 -44t55.5 -17z" />
    <glyph glyph-name="Wgrave" unicode="&#x1e80;" horiz-adv-x="1071" 
d="M471 809l-114 180h170l77 -179zM186 0l-176 740h190l116 -497l120 497h199l120 -497l116 497h190l-176 -740h-253l-96 406l-97 -406h-253z" />
    <glyph glyph-name="wgrave" unicode="&#x1e81;" horiz-adv-x="893" 
d="M382 599l-114 180h170l77 -179zM174 0l-159 530h188l74 -304l85 304h169l85 -304l74 304h188l-159 -530h-200l-72 255l-73 -255h-200z" />
    <glyph glyph-name="Wacute" unicode="&#x1e82;" horiz-adv-x="1071" 
d="M604 809l-133 1l77 179h170zM186 0l-176 740h190l116 -497l120 497h199l120 -497l116 497h190l-176 -740h-253l-96 406l-97 -406h-253z" />
    <glyph glyph-name="wacute" unicode="&#x1e83;" horiz-adv-x="893" 
d="M515 599l-133 1l77 179h170zM174 0l-159 530h188l74 -304l85 304h169l85 -304l74 304h188l-159 -530h-200l-72 255l-73 -255h-200z" />
    <glyph glyph-name="Wdieresis" unicode="&#x1e84;" horiz-adv-x="1071" 
d="M661 788q-45 0 -73.5 28.5t-28.5 68.5q0 41 28.5 69.5t73.5 28.5q44 0 73 -28.5t29 -69.5q0 -40 -29 -68.5t-73 -28.5zM410 788q-45 0 -73.5 28.5t-28.5 68.5q0 41 28.5 69.5t73.5 28.5q44 0 73 -28.5t29 -69.5q0 -40 -29 -68.5t-73 -28.5zM186 0l-176 740h190l116 -497
l120 497h199l120 -497l116 497h190l-176 -740h-253l-96 406l-97 -406h-253z" />
    <glyph glyph-name="wdieresis" unicode="&#x1e85;" horiz-adv-x="893" 
d="M572 578q-45 0 -73.5 28.5t-28.5 68.5q0 41 28.5 69.5t73.5 28.5q44 0 73 -28.5t29 -69.5q0 -40 -29 -68.5t-73 -28.5zM321 578q-45 0 -73.5 28.5t-28.5 68.5q0 41 28.5 69.5t73.5 28.5q44 0 73 -28.5t29 -69.5q0 -40 -29 -68.5t-73 -28.5zM174 0l-159 530h188l74 -304
l85 304h169l85 -304l74 304h188l-159 -530h-200l-72 255l-73 -255h-200z" />
    <glyph glyph-name="uni1E9E" unicode="&#x1e9e;" horiz-adv-x="737" 
d="M412 -10q-42 0 -68.5 4l-26.5 4v154l19 -2.5t44 -2.5q71 0 98 24.5t27 55.5q0 32 -26.5 52.5t-90.5 20.5h-43l-1 99l121 188l-23.5 3.5t-46.5 3.5q-71 0 -108.5 -47t-37.5 -126v-421h-189v421q0 55 16.5 112.5t56 106.5t108.5 79.5t173 30.5q70 0 125 -11.5t86.5 -23
l31.5 -11.5v-90l-136 -214q25 -6 55.5 -18t58 -34.5t45 -56.5t17.5 -83q0 -53 -30.5 -103.5t-93.5 -82.5t-161 -32z" />
    <glyph glyph-name="uni1EA0" unicode="&#x1ea0;" horiz-adv-x="791" 
d="M20 0l246 740h259l246 -740h-200l-39 124h-273l-39 -124h-200zM310 288h171l-85 273zM396 -260q-40 0 -64.5 26.5t-24.5 62.5q0 37 24.5 63t64.5 26q38 0 63.5 -26t25.5 -63q0 -36 -25.5 -62.5t-63.5 -26.5z" />
    <glyph glyph-name="uni1EA1" unicode="&#x1ea1;" horiz-adv-x="670" 
d="M273 540q39 0 67 -10.5t45.5 -23.5t26 -23.5l8.5 -10.5h8v58h190v-530h-190v58h-8l-8.5 -10.5t-26 -23.5t-45.5 -23.5t-67 -10.5q-58 0 -100.5 23.5t-71 63t-42.5 88.5t-14 100t14 100t42.5 88.5t71 63t100.5 23.5zM336 389q-33 0 -55 -18.5t-33 -47t-11 -58.5t11 -58.5
t33 -47t55 -18.5t55 18.5t33 47t11 58.5t-11 58.5t-33 47t-55 18.5zM335 -260q-40 0 -64.5 26t-24.5 63q0 38 24.5 63.5t64.5 25.5q38 0 63.5 -25.5t25.5 -63.5q0 -37 -25.5 -63t-63.5 -26z" />
    <glyph glyph-name="uni1EA2" unicode="&#x1ea2;" horiz-adv-x="791" 
d="M346 795v33q0 15 6.5 27.5t21.5 19.5l16 8q19 10 30 19.5t11 25.5q0 12 -9 20.5t-23 8.5q-17 0 -24.5 -9t-9 -18.5l-1.5 -9.5h-101q-1 28 12 57t43 49t79 20q66 0 104 -34t38 -80q0 -40 -26.5 -64.5t-59.5 -42.5l-5 -3v-27h-102zM20 0l246 740h259l246 -740h-200l-39 124
h-273l-39 -124h-200zM310 288h171l-85 273z" />
    <glyph glyph-name="uni1EA3" unicode="&#x1ea3;" horiz-adv-x="670" 
d="M285 585v33q0 15 6.5 27.5t21.5 19.5l16 8q19 10 30 19.5t11 25.5q0 12 -9 20.5t-23 8.5q-17 0 -24.5 -9t-9 -18.5l-1.5 -9.5h-101q-1 28 12 57t43 49t79 20q66 0 104 -34t38 -80q0 -40 -26.5 -64.5t-59.5 -42.5l-5 -3v-27h-102zM273 540q39 0 67 -10.5t45.5 -23.5
t26 -23.5l8.5 -10.5h8v58h190v-530h-190v58h-8l-8.5 -10.5t-26 -23.5t-45.5 -23.5t-67 -10.5q-58 0 -100.5 23.5t-71 63t-42.5 88.5t-14 100t14 100t42.5 88.5t71 63t100.5 23.5zM336 389q-33 0 -55 -18.5t-33 -47t-11 -58.5t11 -58.5t33 -47t55 -18.5t55 18.5t33 47
t11 58.5t-11 58.5t-33 47t-55 18.5z" />
    <glyph glyph-name="uni1EA4" unicode="&#x1ea4;" horiz-adv-x="791" 
d="M667 929l-133 1l77 179h170zM187 799l135 159h147l135 -159h-141l-67 81l-68 -81h-141zM20 0l246 740h259l246 -740h-200l-39 124h-273l-39 -124h-200zM310 288h171l-85 273z" />
    <glyph glyph-name="uni1EA5" unicode="&#x1ea5;" horiz-adv-x="670" 
d="M606 719l-133 1l77 179h170zM126 589l135 159h147l135 -159h-141l-67 81l-68 -81h-141zM273 540q39 0 67 -10.5t45.5 -23.5t26 -23.5l8.5 -10.5h8v58h190v-530h-190v58h-8l-8.5 -10.5t-26 -23.5t-45.5 -23.5t-67 -10.5q-58 0 -100.5 23.5t-71 63t-42.5 88.5t-14 100
t14 100t42.5 88.5t71 63t100.5 23.5zM336 389q-33 0 -55 -18.5t-33 -47t-11 -58.5t11 -58.5t33 -47t55 -18.5t55 18.5t33 47t11 58.5t-11 58.5t-33 47t-55 18.5z" />
    <glyph glyph-name="uni1EA6" unicode="&#x1ea6;" horiz-adv-x="791" 
d="M555 929l-114 180h170l77 -179zM188 799l135 159h147l135 -159h-141l-67 81l-68 -81h-141zM20 0l246 740h259l246 -740h-200l-39 124h-273l-39 -124h-200zM310 288h171l-85 273z" />
    <glyph glyph-name="uni1EA7" unicode="&#x1ea7;" horiz-adv-x="670" 
d="M494 719l-114 180h170l77 -179zM127 589l135 159h147l135 -159h-141l-67 81l-68 -81h-141zM273 540q39 0 67 -10.5t45.5 -23.5t26 -23.5l8.5 -10.5h8v58h190v-530h-190v58h-8l-8.5 -10.5t-26 -23.5t-45.5 -23.5t-67 -10.5q-58 0 -100.5 23.5t-71 63t-42.5 88.5t-14 100
t14 100t42.5 88.5t71 63t100.5 23.5zM336 389q-33 0 -55 -18.5t-33 -47t-11 -58.5t11 -58.5t33 -47t55 -18.5t55 18.5t33 47t11 58.5t-11 58.5t-33 47t-55 18.5z" />
    <glyph glyph-name="uni1EA8" unicode="&#x1ea8;" horiz-adv-x="791" 
d="M564 907v33q0 15 6.5 27.5t21.5 19.5l16 8q19 10 30 19.5t11 25.5q0 12 -9 20.5t-23 8.5q-17 0 -24.5 -9t-9 -18.5l-1.5 -9.5h-101q-1 28 12 57t43 49t79 20q66 0 104 -34t38 -80q0 -40 -26.5 -64.5t-59.5 -42.5l-5 -3v-27h-102zM182 799l135 159h147l135 -159h-141
l-67 81l-68 -81h-141zM20 0l246 740h259l246 -740h-200l-39 124h-273l-39 -124h-200zM310 288h171l-85 273z" />
    <glyph glyph-name="uni1EA9" unicode="&#x1ea9;" horiz-adv-x="670" 
d="M503 697v33q0 15 6.5 27.5t21.5 19.5l16 8q19 10 30 19.5t11 25.5q0 12 -9 20.5t-23 8.5q-17 0 -24.5 -9t-9 -18.5l-1.5 -9.5h-101q-1 28 12 57t43 49t79 20q66 0 104 -34t38 -80q0 -40 -26.5 -64.5t-59.5 -42.5l-5 -3v-27h-102zM121 589l135 159h147l135 -159h-141
l-67 81l-68 -81h-141zM273 540q39 0 67 -10.5t45.5 -23.5t26 -23.5l8.5 -10.5h8v58h190v-530h-190v58h-8l-8.5 -10.5t-26 -23.5t-45.5 -23.5t-67 -10.5q-58 0 -100.5 23.5t-71 63t-42.5 88.5t-14 100t14 100t42.5 88.5t71 63t100.5 23.5zM336 389q-33 0 -55 -18.5t-33 -47
t-11 -58.5t11 -58.5t33 -47t55 -18.5t55 18.5t33 47t11 58.5t-11 58.5t-33 47t-55 18.5z" />
    <glyph glyph-name="uni1EAA" unicode="&#x1eaa;" horiz-adv-x="791" 
d="M470 992q-27 0 -47 9t-35.5 20.5t-28.5 20.5t-27 9q-15 0 -20.5 -13.5t-5.5 -39.5h-93q0 35 8 71.5t31.5 62t68.5 25.5q37 0 61.5 -14.5t42.5 -29.5t35 -15q14 0 19.5 14t5.5 39h93q0 -34 -8 -71t-31 -62.5t-69 -25.5zM187 799l135 159h147l135 -159h-141l-67 81l-68 -81
h-141zM20 0l246 740h259l246 -740h-200l-39 124h-273l-39 -124h-200zM310 288h171l-85 273z" />
    <glyph glyph-name="uni1EAB" unicode="&#x1eab;" horiz-adv-x="670" 
d="M409 782q-27 0 -47 9t-35.5 20.5t-28.5 20.5t-27 9q-15 0 -20.5 -13.5t-5.5 -39.5h-93q0 35 8 71.5t31.5 62t68.5 25.5q37 0 61.5 -14.5t42.5 -29.5t35 -15q14 0 19.5 14t5.5 39h93q0 -34 -8 -71t-31 -62.5t-69 -25.5zM126 589l135 159h147l135 -159h-141l-67 81l-68 -81
h-141zM273 540q39 0 67 -10.5t45.5 -23.5t26 -23.5l8.5 -10.5h8v58h190v-530h-190v58h-8l-8.5 -10.5t-26 -23.5t-45.5 -23.5t-67 -10.5q-58 0 -100.5 23.5t-71 63t-42.5 88.5t-14 100t14 100t42.5 88.5t71 63t100.5 23.5zM336 389q-33 0 -55 -18.5t-33 -47t-11 -58.5
t11 -58.5t33 -47t55 -18.5t55 18.5t33 47t11 58.5t-11 58.5t-33 47t-55 18.5z" />
    <glyph glyph-name="uni1EAC" unicode="&#x1eac;" horiz-adv-x="791" 
d="M188 799l135 159h147l135 -159h-141l-67 81l-68 -81h-141zM20 0l246 740h259l246 -740h-200l-39 124h-273l-39 -124h-200zM310 288h171l-85 273zM396 -260q-40 0 -64.5 26.5t-24.5 62.5q0 37 24.5 63t64.5 26q38 0 63.5 -26t25.5 -63q0 -36 -25.5 -62.5t-63.5 -26.5z" />
    <glyph glyph-name="uni1EAD" unicode="&#x1ead;" horiz-adv-x="670" 
d="M127 589l135 189h147l135 -189h-141l-67 102l-68 -102h-141zM273 540q39 0 67 -10.5t45.5 -23.5t26 -23.5l8.5 -10.5h8v58h190v-530h-190v58h-8l-8.5 -10.5t-26 -23.5t-45.5 -23.5t-67 -10.5q-58 0 -100.5 23.5t-71 63t-42.5 88.5t-14 100t14 100t42.5 88.5t71 63
t100.5 23.5zM336 389q-33 0 -55 -18.5t-33 -47t-11 -58.5t11 -58.5t33 -47t55 -18.5t55 18.5t33 47t11 58.5t-11 58.5t-33 47t-55 18.5zM335 -260q-40 0 -64.5 26t-24.5 63q0 38 24.5 63.5t64.5 25.5q38 0 63.5 -25.5t25.5 -63.5q0 -37 -25.5 -63t-63.5 -26z" />
    <glyph glyph-name="uni1EAE" unicode="&#x1eae;" horiz-adv-x="791" 
d="M464 1002l-133 1l77 179h170zM396 802q-60 0 -97.5 17t-57.5 41.5t-28 49t-9.5 41.5l-1.5 17h119l1.5 -9.5t8.5 -22.5t22 -22.5t43 -9.5t43.5 9.5t22 22.5t8 22.5l1.5 9.5h119l-1.5 -17t-9.5 -41.5t-28 -49t-57.5 -41.5t-97.5 -17zM20 0l246 740h259l246 -740h-200
l-39 124h-273l-39 -124h-200zM310 288h171l-85 273z" />
    <glyph glyph-name="uni1EAF" unicode="&#x1eaf;" horiz-adv-x="670" 
d="M403 792l-133 1l77 179h170zM335 592q-60 0 -97.5 17t-57.5 41.5t-28 49t-9.5 41.5l-1.5 17h119l1.5 -9.5t8.5 -22.5t22 -22.5t43 -9.5t43.5 9.5t22 22.5t8 22.5l1.5 9.5h119l-1.5 -17t-9.5 -41.5t-28 -49t-57.5 -41.5t-97.5 -17zM273 540q39 0 67 -10.5t45.5 -23.5
t26 -23.5l8.5 -10.5h8v58h190v-530h-190v58h-8l-8.5 -10.5t-26 -23.5t-45.5 -23.5t-67 -10.5q-58 0 -100.5 23.5t-71 63t-42.5 88.5t-14 100t14 100t42.5 88.5t71 63t100.5 23.5zM336 389q-33 0 -55 -18.5t-33 -47t-11 -58.5t11 -58.5t33 -47t55 -18.5t55 18.5t33 47
t11 58.5t-11 58.5t-33 47t-55 18.5z" />
    <glyph glyph-name="uni1EB0" unicode="&#x1eb0;" horiz-adv-x="791" 
d="M331 1002l-114 180h170l77 -179zM396 802q-60 0 -97.5 17t-57.5 41.5t-28 49t-9.5 41.5l-1.5 17h119l1.5 -9.5t8.5 -22.5t22 -22.5t43 -9.5t43.5 9.5t22 22.5t8 22.5l1.5 9.5h119l-1.5 -17t-9.5 -41.5t-28 -49t-57.5 -41.5t-97.5 -17zM20 0l246 740h259l246 -740h-200
l-39 124h-273l-39 -124h-200zM310 288h171l-85 273z" />
    <glyph glyph-name="uni1EB1" unicode="&#x1eb1;" horiz-adv-x="670" 
d="M270 792l-114 180h170l77 -179zM335 592q-60 0 -97.5 17t-57.5 41.5t-28 49t-9.5 41.5l-1.5 17h119l1.5 -9.5t8.5 -22.5t22 -22.5t43 -9.5t43.5 9.5t22 22.5t8 22.5l1.5 9.5h119l-1.5 -17t-9.5 -41.5t-28 -49t-57.5 -41.5t-97.5 -17zM273 540q39 0 67 -10.5t45.5 -23.5
t26 -23.5l8.5 -10.5h8v58h190v-530h-190v58h-8l-8.5 -10.5t-26 -23.5t-45.5 -23.5t-67 -10.5q-58 0 -100.5 23.5t-71 63t-42.5 88.5t-14 100t14 100t42.5 88.5t71 63t100.5 23.5zM336 389q-33 0 -55 -18.5t-33 -47t-11 -58.5t11 -58.5t33 -47t55 -18.5t55 18.5t33 47
t11 58.5t-11 58.5t-33 47t-55 18.5z" />
    <glyph glyph-name="uni1EB2" unicode="&#x1eb2;" horiz-adv-x="791" 
d="M346 988v33q0 15 6.5 27.5t21.5 19.5l16 8q19 10 30 19.5t11 25.5q0 12 -9 20.5t-23 8.5q-17 0 -24.5 -9t-9 -18.5l-1.5 -9.5h-101q-1 28 12 57t43 49t79 20q66 0 104 -34t38 -80q0 -40 -26.5 -64.5t-59.5 -42.5l-5 -3v-27h-102zM396 802q-60 0 -97.5 17t-57.5 41.5
t-28 49t-9.5 41.5l-1.5 17h119l1.5 -9.5t8.5 -22.5t22 -22.5t43 -9.5t43.5 9.5t22 22.5t8 22.5l1.5 9.5h119l-1.5 -17t-9.5 -41.5t-28 -49t-57.5 -41.5t-97.5 -17zM20 0l246 740h259l246 -740h-200l-39 124h-273l-39 -124h-200zM310 288h171l-85 273z" />
    <glyph glyph-name="uni1EB3" unicode="&#x1eb3;" horiz-adv-x="670" 
d="M285 778v33q0 15 6.5 27.5t21.5 19.5l16 8q19 10 30 19.5t11 25.5q0 12 -9 20.5t-23 8.5q-17 0 -24.5 -9t-9 -18.5l-1.5 -9.5h-101q-1 28 12 57t43 49t79 20q66 0 104 -34t38 -80q0 -40 -26.5 -64.5t-59.5 -42.5l-5 -3v-27h-102zM335 592q-60 0 -97.5 17t-57.5 41.5
t-28 49t-9.5 41.5l-1.5 17h119l1.5 -9.5t8.5 -22.5t22 -22.5t43 -9.5t43.5 9.5t22 22.5t8 22.5l1.5 9.5h119l-1.5 -17t-9.5 -41.5t-28 -49t-57.5 -41.5t-97.5 -17zM273 540q39 0 67 -10.5t45.5 -23.5t26 -23.5l8.5 -10.5h8v58h190v-530h-190v58h-8l-8.5 -10.5t-26 -23.5
t-45.5 -23.5t-67 -10.5q-58 0 -100.5 23.5t-71 63t-42.5 88.5t-14 100t14 100t42.5 88.5t71 63t100.5 23.5zM336 389q-33 0 -55 -18.5t-33 -47t-11 -58.5t11 -58.5t33 -47t55 -18.5t55 18.5t33 47t11 58.5t-11 58.5t-33 47t-55 18.5z" />
    <glyph glyph-name="uni1EB4" unicode="&#x1eb4;" horiz-adv-x="791" 
d="M474 1015q-27 0 -47 9t-35.5 20.5t-28.5 20.5t-27 9q-15 0 -20.5 -13.5t-5.5 -39.5h-93q0 35 8 71.5t31.5 62t68.5 25.5q37 0 61.5 -14.5t42.5 -29.5t35 -15q14 0 19.5 14t5.5 39h93q0 -34 -8 -71t-31 -62.5t-69 -25.5zM396 802q-60 0 -97.5 17t-57.5 41.5t-28 49
t-9.5 41.5l-1.5 17h119l1.5 -9.5t8.5 -22.5t22 -22.5t43 -9.5t43.5 9.5t22 22.5t8 22.5l1.5 9.5h119l-1.5 -17t-9.5 -41.5t-28 -49t-57.5 -41.5t-97.5 -17zM20 0l246 740h259l246 -740h-200l-39 124h-273l-39 -124h-200zM310 288h171l-85 273z" />
    <glyph glyph-name="uni1EB5" unicode="&#x1eb5;" horiz-adv-x="670" 
d="M413 805q-27 0 -47 9t-35.5 20.5t-28.5 20.5t-27 9q-15 0 -20.5 -13.5t-5.5 -39.5h-93q0 35 8 71.5t31.5 62t68.5 25.5q37 0 61.5 -14.5t42.5 -29.5t35 -15q14 0 19.5 14t5.5 39h93q0 -34 -8 -71t-31 -62.5t-69 -25.5zM335 592q-60 0 -97.5 17t-57.5 41.5t-28 49
t-9.5 41.5l-1.5 17h119l1.5 -9.5t8.5 -22.5t22 -22.5t43 -9.5t43.5 9.5t22 22.5t8 22.5l1.5 9.5h119l-1.5 -17t-9.5 -41.5t-28 -49t-57.5 -41.5t-97.5 -17zM273 540q39 0 67 -10.5t45.5 -23.5t26 -23.5l8.5 -10.5h8v58h190v-530h-190v58h-8l-8.5 -10.5t-26 -23.5
t-45.5 -23.5t-67 -10.5q-58 0 -100.5 23.5t-71 63t-42.5 88.5t-14 100t14 100t42.5 88.5t71 63t100.5 23.5zM336 389q-33 0 -55 -18.5t-33 -47t-11 -58.5t11 -58.5t33 -47t55 -18.5t55 18.5t33 47t11 58.5t-11 58.5t-33 47t-55 18.5z" />
    <glyph glyph-name="uni1EB6" unicode="&#x1eb6;" horiz-adv-x="791" 
d="M396 802q-60 0 -97.5 17t-57.5 41.5t-28 49t-9.5 41.5l-1.5 17h119l1.5 -9.5t8.5 -22.5t22 -22.5t43 -9.5t43.5 9.5t22 22.5t8 22.5l1.5 9.5h119l-1.5 -17t-9.5 -41.5t-28 -49t-57.5 -41.5t-97.5 -17zM20 0l246 740h259l246 -740h-200l-39 124h-273l-39 -124h-200z
M310 288h171l-85 273zM396 -260q-40 0 -64.5 26.5t-24.5 62.5q0 37 24.5 63t64.5 26q38 0 63.5 -26t25.5 -63q0 -36 -25.5 -62.5t-63.5 -26.5z" />
    <glyph glyph-name="uni1EB7" unicode="&#x1eb7;" horiz-adv-x="670" 
d="M335 592q-60 0 -97.5 19t-57.5 46.5t-28 55t-9.5 46.5l-1.5 19h119l1.5 -12t8.5 -28.5t22 -28.5t43 -12t43.5 12t22 28.5t8 28.5l1.5 12h119l-1.5 -19t-9.5 -46.5t-28 -55t-57.5 -46.5t-97.5 -19zM273 540q39 0 67 -10.5t45.5 -23.5t26 -23.5l8.5 -10.5h8v58h190v-530
h-190v58h-8l-8.5 -10.5t-26 -23.5t-45.5 -23.5t-67 -10.5q-58 0 -100.5 23.5t-71 63t-42.5 88.5t-14 100t14 100t42.5 88.5t71 63t100.5 23.5zM336 389q-33 0 -55 -18.5t-33 -47t-11 -58.5t11 -58.5t33 -47t55 -18.5t55 18.5t33 47t11 58.5t-11 58.5t-33 47t-55 18.5z
M335 -260q-40 0 -64.5 26t-24.5 63q0 38 24.5 63.5t64.5 25.5q38 0 63.5 -25.5t25.5 -63.5q0 -37 -25.5 -63t-63.5 -26z" />
    <glyph glyph-name="uni1EB8" unicode="&#x1eb8;" horiz-adv-x="656" 
d="M60 0v740h536v-166h-344v-120h299v-158h-299v-130h349v-166h-541zM285 -260q-40 0 -64.5 26.5t-24.5 62.5q0 37 24.5 63t64.5 26q38 0 63.5 -26t25.5 -63q0 -36 -25.5 -62.5t-63.5 -26.5z" />
    <glyph glyph-name="uni1EB9" unicode="&#x1eb9;" horiz-adv-x="624" 
d="M326 -10q-73 0 -126.5 23t-88.5 62.5t-52 89t-17 101.5q0 50 16.5 99t50.5 88.5t86.5 63t124.5 23.5q78 0 137 -33t92 -95.5t33 -151.5v-43h-349q3 -34 26.5 -60t66.5 -26q33 0 50 11.5t23 23l6 11.5h174l-5 -19t-19 -46.5t-42 -55.5t-73.5 -47t-113.5 -19zM232 322h169
q-1 41 -24 61.5t-61 20.5q-32 0 -56.5 -20t-27.5 -62zM320 -259q-40 0 -64.5 26.5t-24.5 62.5q0 37 24.5 63t64.5 26q38 0 63.5 -26t25.5 -63q0 -36 -25.5 -62.5t-63.5 -26.5z" />
    <glyph glyph-name="uni1EBA" unicode="&#x1eba;" horiz-adv-x="656" 
d="M278 795v33q0 15 6.5 27.5t21.5 19.5l16 8q19 10 30 19.5t11 25.5q0 12 -9 20.5t-23 8.5q-17 0 -24.5 -9t-9 -18.5l-1.5 -9.5h-101q-1 28 12 57t43 49t79 20q66 0 104 -34t38 -80q0 -40 -26.5 -64.5t-59.5 -42.5l-5 -3v-27h-102zM60 0v740h536v-166h-344v-120h299v-158
h-299v-130h349v-166h-541z" />
    <glyph glyph-name="uni1EBB" unicode="&#x1ebb;" horiz-adv-x="624" 
d="M270 586v33q0 15 6.5 27.5t21.5 19.5l16 8q19 10 30 19.5t11 25.5q0 12 -9 20.5t-23 8.5q-17 0 -24.5 -9t-9 -18.5l-1.5 -9.5h-101q-1 28 12 57t43 49t79 20q66 0 104 -34t38 -80q0 -40 -26.5 -64.5t-59.5 -42.5l-5 -3v-27h-102zM326 -10q-73 0 -126.5 23t-88.5 62.5
t-52 89t-17 101.5q0 50 16.5 99t50.5 88.5t86.5 63t124.5 23.5q78 0 137 -33t92 -95.5t33 -151.5v-43h-349q3 -34 26.5 -60t66.5 -26q33 0 50 11.5t23 23l6 11.5h174l-5 -19t-19 -46.5t-42 -55.5t-73.5 -47t-113.5 -19zM232 322h169q-1 41 -24 61.5t-61 20.5
q-32 0 -56.5 -20t-27.5 -62z" />
    <glyph glyph-name="uni1EBC" unicode="&#x1ebc;" horiz-adv-x="656" 
d="M406 822q-27 0 -47 9t-35.5 20.5t-28.5 20.5t-27 9q-15 0 -20.5 -13.5t-5.5 -39.5h-93q0 35 8 71.5t31.5 62t68.5 25.5q37 0 61.5 -14.5t42.5 -29.5t35 -15q14 0 19.5 14t5.5 39h93q0 -34 -8 -71t-31 -62.5t-69 -25.5zM60 0v740h536v-166h-344v-120h299v-158h-299v-130
h349v-166h-541z" />
    <glyph glyph-name="uni1EBD" unicode="&#x1ebd;" horiz-adv-x="624" 
d="M398 613q-27 0 -47 9t-35.5 20.5t-28.5 20.5t-27 9q-15 0 -20.5 -13.5t-5.5 -39.5h-93q0 35 8 71.5t31.5 62t68.5 25.5q37 0 61.5 -14.5t42.5 -29.5t35 -15q14 0 19.5 14t5.5 39h93q0 -34 -8 -71t-31 -62.5t-69 -25.5zM326 -10q-73 0 -126.5 23t-88.5 62.5t-52 89
t-17 101.5q0 50 16.5 99t50.5 88.5t86.5 63t124.5 23.5q78 0 137 -33t92 -95.5t33 -151.5v-43h-349q3 -34 26.5 -60t66.5 -26q33 0 50 11.5t23 23l6 11.5h174l-5 -19t-19 -46.5t-42 -55.5t-73.5 -47t-113.5 -19zM232 322h169q-1 41 -24 61.5t-61 20.5q-32 0 -56.5 -20
t-27.5 -62z" />
    <glyph glyph-name="uni1EBE" unicode="&#x1ebe;" horiz-adv-x="656" 
d="M599 929l-133 1l77 179h170zM119 799l135 159h147l135 -159h-141l-67 81l-68 -81h-141zM60 0v740h536v-166h-344v-120h299v-158h-299v-130h349v-166h-541z" />
    <glyph glyph-name="uni1EBF" unicode="&#x1ebf;" horiz-adv-x="624" 
d="M591 720l-133 1l77 179h170zM111 590l135 159h147l135 -159h-141l-67 81l-68 -81h-141zM326 -10q-73 0 -126.5 23t-88.5 62.5t-52 89t-17 101.5q0 50 16.5 99t50.5 88.5t86.5 63t124.5 23.5q78 0 137 -33t92 -95.5t33 -151.5v-43h-349q3 -34 26.5 -60t66.5 -26
q33 0 50 11.5t23 23l6 11.5h174l-5 -19t-19 -46.5t-42 -55.5t-73.5 -47t-113.5 -19zM232 322h169q-1 41 -24 61.5t-61 20.5q-32 0 -56.5 -20t-27.5 -62z" />
    <glyph glyph-name="uni1EC0" unicode="&#x1ec0;" horiz-adv-x="656" 
d="M487 929l-114 180h170l77 -179zM120 799l135 159h147l135 -159h-141l-67 81l-68 -81h-141zM60 0v740h536v-166h-344v-120h299v-158h-299v-130h349v-166h-541z" />
    <glyph glyph-name="uni1EC1" unicode="&#x1ec1;" horiz-adv-x="624" 
d="M479 720l-114 180h170l77 -179zM112 590l135 159h147l135 -159h-141l-67 81l-68 -81h-141zM326 -10q-73 0 -126.5 23t-88.5 62.5t-52 89t-17 101.5q0 50 16.5 99t50.5 88.5t86.5 63t124.5 23.5q78 0 137 -33t92 -95.5t33 -151.5v-43h-349q3 -34 26.5 -60t66.5 -26
q33 0 50 11.5t23 23l6 11.5h174l-5 -19t-19 -46.5t-42 -55.5t-73.5 -47t-113.5 -19zM232 322h169q-1 41 -24 61.5t-61 20.5q-32 0 -56.5 -20t-27.5 -62z" />
    <glyph glyph-name="uni1EC2" unicode="&#x1ec2;" horiz-adv-x="656" 
d="M496 907v33q0 15 6.5 27.5t21.5 19.5l16 8q19 10 30 19.5t11 25.5q0 12 -9 20.5t-23 8.5q-17 0 -24.5 -9t-9 -18.5l-1.5 -9.5h-101q-1 28 12 57t43 49t79 20q66 0 104 -34t38 -80q0 -40 -26.5 -64.5t-59.5 -42.5l-5 -3v-27h-102zM114 799l135 159h147l135 -159h-141
l-67 81l-68 -81h-141zM60 0v740h536v-166h-344v-120h299v-158h-299v-130h349v-166h-541z" />
    <glyph glyph-name="uni1EC3" unicode="&#x1ec3;" horiz-adv-x="624" 
d="M488 698v33q0 15 6.5 27.5t21.5 19.5l16 8q19 10 30 19.5t11 25.5q0 12 -9 20.5t-23 8.5q-17 0 -24.5 -9t-9 -18.5l-1.5 -9.5h-101q-1 28 12 57t43 49t79 20q66 0 104 -34t38 -80q0 -40 -26.5 -64.5t-59.5 -42.5l-5 -3v-27h-102zM106 590l135 159h147l135 -159h-141
l-67 81l-68 -81h-141zM326 -10q-73 0 -126.5 23t-88.5 62.5t-52 89t-17 101.5q0 50 16.5 99t50.5 88.5t86.5 63t124.5 23.5q78 0 137 -33t92 -95.5t33 -151.5v-43h-349q3 -34 26.5 -60t66.5 -26q33 0 50 11.5t23 23l6 11.5h174l-5 -19t-19 -46.5t-42 -55.5t-73.5 -47
t-113.5 -19zM232 322h169q-1 41 -24 61.5t-61 20.5q-32 0 -56.5 -20t-27.5 -62z" />
    <glyph glyph-name="uni1EC4" unicode="&#x1ec4;" horiz-adv-x="656" 
d="M402 992q-27 0 -47 9t-35.5 20.5t-28.5 20.5t-27 9q-15 0 -20.5 -13.5t-5.5 -39.5h-93q0 35 8 71.5t31.5 62t68.5 25.5q37 0 61.5 -14.5t42.5 -29.5t35 -15q14 0 19.5 14t5.5 39h93q0 -34 -8 -71t-31 -62.5t-69 -25.5zM119 799l135 159h147l135 -159h-141l-67 81l-68 -81
h-141zM60 0v740h536v-166h-344v-120h299v-158h-299v-130h349v-166h-541z" />
    <glyph glyph-name="uni1EC5" unicode="&#x1ec5;" horiz-adv-x="624" 
d="M394 783q-27 0 -47 9t-35.5 20.5t-28.5 20.5t-27 9q-15 0 -20.5 -13.5t-5.5 -39.5h-93q0 35 8 71.5t31.5 62t68.5 25.5q37 0 61.5 -14.5t42.5 -29.5t35 -15q14 0 19.5 14t5.5 39h93q0 -34 -8 -71t-31 -62.5t-69 -25.5zM111 590l135 159h147l135 -159h-141l-67 81l-68 -81
h-141zM326 -10q-73 0 -126.5 23t-88.5 62.5t-52 89t-17 101.5q0 50 16.5 99t50.5 88.5t86.5 63t124.5 23.5q78 0 137 -33t92 -95.5t33 -151.5v-43h-349q3 -34 26.5 -60t66.5 -26q33 0 50 11.5t23 23l6 11.5h174l-5 -19t-19 -46.5t-42 -55.5t-73.5 -47t-113.5 -19zM232 322
h169q-1 41 -24 61.5t-61 20.5q-32 0 -56.5 -20t-27.5 -62z" />
    <glyph glyph-name="uni1EC6" unicode="&#x1ec6;" horiz-adv-x="656" 
d="M120 799l135 159h147l135 -159h-141l-67 81l-68 -81h-141zM60 0v740h536v-166h-344v-120h299v-158h-299v-130h349v-166h-541zM285 -260q-40 0 -64.5 26.5t-24.5 62.5q0 37 24.5 63t64.5 26q38 0 63.5 -26t25.5 -63q0 -36 -25.5 -62.5t-63.5 -26.5z" />
    <glyph glyph-name="uni1EC7" unicode="&#x1ec7;" horiz-adv-x="624" 
d="M112 590l135 189h147l135 -189h-141l-67 102l-68 -102h-141zM326 -10q-73 0 -126.5 23t-88.5 62.5t-52 89t-17 101.5q0 50 16.5 99t50.5 88.5t86.5 63t124.5 23.5q78 0 137 -33t92 -95.5t33 -151.5v-43h-349q3 -34 26.5 -60t66.5 -26q33 0 50 11.5t23 23l6 11.5h174
l-5 -19t-19 -46.5t-42 -55.5t-73.5 -47t-113.5 -19zM232 322h169q-1 41 -24 61.5t-61 20.5q-32 0 -56.5 -20t-27.5 -62zM320 -259q-40 0 -64.5 26.5t-24.5 62.5q0 37 24.5 63t64.5 26q38 0 63.5 -26t25.5 -63q0 -36 -25.5 -62.5t-63.5 -26.5z" />
    <glyph glyph-name="uni1EC8" unicode="&#x1ec8;" horiz-adv-x="312" 
d="M106 795v33q0 15 6.5 27.5t21.5 19.5l16 8q19 10 30 19.5t11 25.5q0 12 -9 20.5t-23 8.5q-17 0 -24.5 -9t-9 -18.5l-1.5 -9.5h-101q-1 28 12 57t43 49t79 20q66 0 104 -34t38 -80q0 -40 -26.5 -64.5t-59.5 -42.5l-5 -3v-27h-102zM60 0v740h192v-740h-192z" />
    <glyph glyph-name="uni1EC9" unicode="&#x1ec9;" horiz-adv-x="320" 
d="M110 585v33q0 15 6.5 27.5t21.5 19.5l16 8q19 10 30 19.5t11 25.5q0 12 -9 20.5t-23 8.5q-17 0 -24.5 -9t-9 -18.5l-1.5 -9.5h-101q-1 28 12 57t43 49t79 20q66 0 104 -34t38 -80q0 -40 -26.5 -64.5t-59.5 -42.5l-5 -3v-27h-102zM65 0v530h190v-530h-190z" />
    <glyph glyph-name="uni1ECA" unicode="&#x1eca;" horiz-adv-x="312" 
d="M60 0v740h192v-740h-192zM156 -260q-40 0 -64.5 26.5t-24.5 62.5q0 37 24.5 63t64.5 26q38 0 63.5 -26t25.5 -63q0 -36 -25.5 -62.5t-63.5 -26.5z" />
    <glyph glyph-name="uni1ECB" unicode="&#x1ecb;" horiz-adv-x="320" 
d="M160 583q-47 0 -77.5 30.5t-30.5 72.5q0 44 30.5 74t77.5 30t78 -30t31 -74q0 -42 -31 -72.5t-78 -30.5zM65 0v530h190v-530h-190zM160 -260q-40 0 -64.5 26.5t-24.5 62.5q0 37 24.5 63t64.5 26q38 0 63.5 -26t25.5 -63q0 -36 -25.5 -62.5t-63.5 -26.5z" />
    <glyph glyph-name="uni1ECC" unicode="&#x1ecc;" horiz-adv-x="830" 
d="M415 -10q-96 0 -168 32.5t-120 87t-72.5 122.5t-24.5 139t24.5 138.5t72.5 121.5t120 86.5t168 32.5t168 -32.5t120.5 -86.5t72.5 -121.5t24 -138.5t-24 -139t-72.5 -122.5t-120.5 -87t-168 -32.5zM415 161q62 0 103 30.5t61.5 79t20.5 100.5t-20.5 100t-61.5 78.5
t-103 30.5q-61 0 -102 -30.5t-61.5 -78.5t-20.5 -100t20.5 -100.5t61.5 -79t102 -30.5zM415 -260q-40 0 -64.5 26.5t-24.5 62.5q0 37 24.5 63t64.5 26q38 0 63.5 -26t25.5 -63q0 -36 -25.5 -62.5t-63.5 -26.5z" />
    <glyph glyph-name="uni1ECD" unicode="&#x1ecd;" horiz-adv-x="662" 
d="M331 -10q-91 0 -156 38t-99 100.5t-34 136.5t34 136.5t99 100.5t156 38q92 0 156.5 -38t98.5 -100.5t34 -136.5t-34 -136.5t-98.5 -100.5t-156.5 -38zM331 142q46 0 72.5 35.5t26.5 87.5t-26.5 87.5t-72.5 35.5t-72.5 -35.5t-26.5 -87.5t26.5 -87.5t72.5 -35.5zM331 -260
q-40 0 -64.5 26.5t-24.5 62.5q0 37 24.5 63t64.5 26q38 0 63.5 -26t25.5 -63q0 -36 -25.5 -62.5t-63.5 -26.5z" />
    <glyph glyph-name="uni1ECE" unicode="&#x1ece;" horiz-adv-x="830" 
d="M365 805v33q0 15 6.5 27.5t21.5 19.5l16 8q19 10 30 19.5t11 25.5q0 12 -9 20.5t-23 8.5q-17 0 -24.5 -9t-9 -18.5l-1.5 -9.5h-101q-1 28 12 57t43 49t79 20q66 0 104 -34t38 -80q0 -40 -26.5 -64.5t-59.5 -42.5l-5 -3v-27h-102zM415 -10q-96 0 -168 32.5t-120 87
t-72.5 122.5t-24.5 139t24.5 138.5t72.5 121.5t120 86.5t168 32.5t168 -32.5t120.5 -86.5t72.5 -121.5t24 -138.5t-24 -139t-72.5 -122.5t-120.5 -87t-168 -32.5zM415 161q62 0 103 30.5t61.5 79t20.5 100.5t-20.5 100t-61.5 78.5t-103 30.5q-61 0 -102 -30.5t-61.5 -78.5
t-20.5 -100t20.5 -100.5t61.5 -79t102 -30.5z" />
    <glyph glyph-name="uni1ECF" unicode="&#x1ecf;" horiz-adv-x="662" 
d="M281 585v33q0 15 6.5 27.5t21.5 19.5l16 8q19 10 30 19.5t11 25.5q0 12 -9 20.5t-23 8.5q-17 0 -24.5 -9t-9 -18.5l-1.5 -9.5h-101q-1 28 12 57t43 49t79 20q66 0 104 -34t38 -80q0 -40 -26.5 -64.5t-59.5 -42.5l-5 -3v-27h-102zM331 -10q-91 0 -156 38t-99 100.5
t-34 136.5t34 136.5t99 100.5t156 38q92 0 156.5 -38t98.5 -100.5t34 -136.5t-34 -136.5t-98.5 -100.5t-156.5 -38zM331 142q46 0 72.5 35.5t26.5 87.5t-26.5 87.5t-72.5 35.5t-72.5 -35.5t-26.5 -87.5t26.5 -87.5t72.5 -35.5z" />
    <glyph glyph-name="uni1ED0" unicode="&#x1ed0;" horiz-adv-x="830" 
d="M686 939l-133 1l77 179h170zM206 809l135 159h147l135 -159h-141l-67 81l-68 -81h-141zM415 -10q-96 0 -168 32.5t-120 87t-72.5 122.5t-24.5 139t24.5 138.5t72.5 121.5t120 86.5t168 32.5t168 -32.5t120.5 -86.5t72.5 -121.5t24 -138.5t-24 -139t-72.5 -122.5
t-120.5 -87t-168 -32.5zM415 161q62 0 103 30.5t61.5 79t20.5 100.5t-20.5 100t-61.5 78.5t-103 30.5q-61 0 -102 -30.5t-61.5 -78.5t-20.5 -100t20.5 -100.5t61.5 -79t102 -30.5z" />
    <glyph glyph-name="uni1ED1" unicode="&#x1ed1;" horiz-adv-x="662" 
d="M602 719l-133 1l77 179h170zM122 589l135 159h147l135 -159h-141l-67 81l-68 -81h-141zM331 -10q-91 0 -156 38t-99 100.5t-34 136.5t34 136.5t99 100.5t156 38q92 0 156.5 -38t98.5 -100.5t34 -136.5t-34 -136.5t-98.5 -100.5t-156.5 -38zM331 142q46 0 72.5 35.5
t26.5 87.5t-26.5 87.5t-72.5 35.5t-72.5 -35.5t-26.5 -87.5t26.5 -87.5t72.5 -35.5z" />
    <glyph glyph-name="uni1ED2" unicode="&#x1ed2;" horiz-adv-x="830" 
d="M574 939l-114 180h170l77 -179zM207 809l135 159h147l135 -159h-141l-67 81l-68 -81h-141zM415 -10q-96 0 -168 32.5t-120 87t-72.5 122.5t-24.5 139t24.5 138.5t72.5 121.5t120 86.5t168 32.5t168 -32.5t120.5 -86.5t72.5 -121.5t24 -138.5t-24 -139t-72.5 -122.5
t-120.5 -87t-168 -32.5zM415 161q62 0 103 30.5t61.5 79t20.5 100.5t-20.5 100t-61.5 78.5t-103 30.5q-61 0 -102 -30.5t-61.5 -78.5t-20.5 -100t20.5 -100.5t61.5 -79t102 -30.5z" />
    <glyph glyph-name="uni1ED3" unicode="&#x1ed3;" horiz-adv-x="662" 
d="M490 719l-114 180h170l77 -179zM123 589l135 159h147l135 -159h-141l-67 81l-68 -81h-141zM331 -10q-91 0 -156 38t-99 100.5t-34 136.5t34 136.5t99 100.5t156 38q92 0 156.5 -38t98.5 -100.5t34 -136.5t-34 -136.5t-98.5 -100.5t-156.5 -38zM331 142q46 0 72.5 35.5
t26.5 87.5t-26.5 87.5t-72.5 35.5t-72.5 -35.5t-26.5 -87.5t26.5 -87.5t72.5 -35.5z" />
    <glyph glyph-name="uni1ED4" unicode="&#x1ed4;" horiz-adv-x="830" 
d="M583 917v33q0 15 6.5 27.5t21.5 19.5l16 8q19 10 30 19.5t11 25.5q0 12 -9 20.5t-23 8.5q-17 0 -24.5 -9t-9 -18.5l-1.5 -9.5h-101q-1 28 12 57t43 49t79 20q66 0 104 -34t38 -80q0 -40 -26.5 -64.5t-59.5 -42.5l-5 -3v-27h-102zM201 809l135 159h147l135 -159h-141
l-67 81l-68 -81h-141zM415 -10q-96 0 -168 32.5t-120 87t-72.5 122.5t-24.5 139t24.5 138.5t72.5 121.5t120 86.5t168 32.5t168 -32.5t120.5 -86.5t72.5 -121.5t24 -138.5t-24 -139t-72.5 -122.5t-120.5 -87t-168 -32.5zM415 161q62 0 103 30.5t61.5 79t20.5 100.5
t-20.5 100t-61.5 78.5t-103 30.5q-61 0 -102 -30.5t-61.5 -78.5t-20.5 -100t20.5 -100.5t61.5 -79t102 -30.5z" />
    <glyph glyph-name="uni1ED5" unicode="&#x1ed5;" horiz-adv-x="662" 
d="M499 697v33q0 15 6.5 27.5t21.5 19.5l16 8q19 10 30 19.5t11 25.5q0 12 -9 20.5t-23 8.5q-17 0 -24.5 -9t-9 -18.5l-1.5 -9.5h-101q-1 28 12 57t43 49t79 20q66 0 104 -34t38 -80q0 -40 -26.5 -64.5t-59.5 -42.5l-5 -3v-27h-102zM117 589l135 159h147l135 -159h-141
l-67 81l-68 -81h-141zM331 -10q-91 0 -156 38t-99 100.5t-34 136.5t34 136.5t99 100.5t156 38q92 0 156.5 -38t98.5 -100.5t34 -136.5t-34 -136.5t-98.5 -100.5t-156.5 -38zM331 142q46 0 72.5 35.5t26.5 87.5t-26.5 87.5t-72.5 35.5t-72.5 -35.5t-26.5 -87.5t26.5 -87.5
t72.5 -35.5z" />
    <glyph glyph-name="uni1ED6" unicode="&#x1ed6;" horiz-adv-x="830" 
d="M489 1002q-27 0 -47 9t-35.5 20.5t-28.5 20.5t-27 9q-15 0 -20.5 -13.5t-5.5 -39.5h-93q0 35 8 71.5t31.5 62t68.5 25.5q37 0 61.5 -14.5t42.5 -29.5t35 -15q14 0 19.5 14t5.5 39h93q0 -34 -8 -71t-31 -62.5t-69 -25.5zM206 809l135 159h147l135 -159h-141l-67 81
l-68 -81h-141zM415 -10q-96 0 -168 32.5t-120 87t-72.5 122.5t-24.5 139t24.5 138.5t72.5 121.5t120 86.5t168 32.5t168 -32.5t120.5 -86.5t72.5 -121.5t24 -138.5t-24 -139t-72.5 -122.5t-120.5 -87t-168 -32.5zM415 161q62 0 103 30.5t61.5 79t20.5 100.5t-20.5 100
t-61.5 78.5t-103 30.5q-61 0 -102 -30.5t-61.5 -78.5t-20.5 -100t20.5 -100.5t61.5 -79t102 -30.5z" />
    <glyph glyph-name="uni1ED7" unicode="&#x1ed7;" horiz-adv-x="662" 
d="M405 782q-27 0 -47 9t-35.5 20.5t-28.5 20.5t-27 9q-15 0 -20.5 -13.5t-5.5 -39.5h-93q0 35 8 71.5t31.5 62t68.5 25.5q37 0 61.5 -14.5t42.5 -29.5t35 -15q14 0 19.5 14t5.5 39h93q0 -34 -8 -71t-31 -62.5t-69 -25.5zM122 589l135 159h147l135 -159h-141l-67 81l-68 -81
h-141zM331 -10q-91 0 -156 38t-99 100.5t-34 136.5t34 136.5t99 100.5t156 38q92 0 156.5 -38t98.5 -100.5t34 -136.5t-34 -136.5t-98.5 -100.5t-156.5 -38zM331 142q46 0 72.5 35.5t26.5 87.5t-26.5 87.5t-72.5 35.5t-72.5 -35.5t-26.5 -87.5t26.5 -87.5t72.5 -35.5z" />
    <glyph glyph-name="uni1ED8" unicode="&#x1ed8;" horiz-adv-x="830" 
d="M207 809l135 159h147l135 -159h-141l-67 81l-68 -81h-141zM415 -10q-96 0 -168 32.5t-120 87t-72.5 122.5t-24.5 139t24.5 138.5t72.5 121.5t120 86.5t168 32.5t168 -32.5t120.5 -86.5t72.5 -121.5t24 -138.5t-24 -139t-72.5 -122.5t-120.5 -87t-168 -32.5zM415 161
q62 0 103 30.5t61.5 79t20.5 100.5t-20.5 100t-61.5 78.5t-103 30.5q-61 0 -102 -30.5t-61.5 -78.5t-20.5 -100t20.5 -100.5t61.5 -79t102 -30.5zM415 -260q-40 0 -64.5 26.5t-24.5 62.5q0 37 24.5 63t64.5 26q38 0 63.5 -26t25.5 -63q0 -36 -25.5 -62.5t-63.5 -26.5z" />
    <glyph glyph-name="uni1ED9" unicode="&#x1ed9;" horiz-adv-x="662" 
d="M123 589l135 189h147l135 -189h-141l-67 102l-68 -102h-141zM331 -10q-91 0 -156 38t-99 100.5t-34 136.5t34 136.5t99 100.5t156 38q92 0 156.5 -38t98.5 -100.5t34 -136.5t-34 -136.5t-98.5 -100.5t-156.5 -38zM331 142q46 0 72.5 35.5t26.5 87.5t-26.5 87.5
t-72.5 35.5t-72.5 -35.5t-26.5 -87.5t26.5 -87.5t72.5 -35.5zM331 -260q-40 0 -64.5 26.5t-24.5 62.5q0 37 24.5 63t64.5 26q38 0 63.5 -26t25.5 -63q0 -36 -25.5 -62.5t-63.5 -26.5z" />
    <glyph glyph-name="uni1EDA" unicode="&#x1eda;" horiz-adv-x="830" 
d="M473 809l-133 1l77 179h170zM415 -10q-96 0 -168 32.5t-120 87t-72.5 122.5t-24.5 139t24.5 138.5t72.5 121.5t120 86.5t168 32.5q16 0 31 -1h123q62 0 62 62v56h157v-80q0 -61 -25.5 -93.5t-81.5 -39.5q59 -55 89 -130t30 -153q0 -71 -24 -139t-72.5 -122.5t-120.5 -87
t-168 -32.5zM415 161q62 0 103 30.5t61.5 79t20.5 100.5t-20.5 100t-61.5 78.5t-103 30.5q-61 0 -102 -30.5t-61.5 -78.5t-20.5 -100t20.5 -100.5t61.5 -79t102 -30.5z" />
    <glyph glyph-name="uni1EDB" unicode="&#x1edb;" horiz-adv-x="662" 
d="M399 599l-133 1l77 179h170zM331 -10q-91 0 -156 38t-99 100.5t-34 136.5t34 136.5t99 100.5t156 38h121q40 0 40 40v78h147v-87q0 -103 -91 -117q35 -37 53.5 -86t18.5 -103q0 -74 -34 -136.5t-98.5 -100.5t-156.5 -38zM331 142q46 0 72.5 35.5t26.5 87.5t-26.5 87.5
t-72.5 35.5t-72.5 -35.5t-26.5 -87.5t26.5 -87.5t72.5 -35.5z" />
    <glyph glyph-name="uni1EDC" unicode="&#x1edc;" horiz-adv-x="830" 
d="M340 809l-114 180h170l77 -179zM415 -10q-96 0 -168 32.5t-120 87t-72.5 122.5t-24.5 139t24.5 138.5t72.5 121.5t120 86.5t168 32.5q16 0 31 -1h123q62 0 62 62v56h157v-80q0 -61 -25.5 -93.5t-81.5 -39.5q59 -55 89 -130t30 -153q0 -71 -24 -139t-72.5 -122.5
t-120.5 -87t-168 -32.5zM415 161q62 0 103 30.5t61.5 79t20.5 100.5t-20.5 100t-61.5 78.5t-103 30.5q-61 0 -102 -30.5t-61.5 -78.5t-20.5 -100t20.5 -100.5t61.5 -79t102 -30.5z" />
    <glyph glyph-name="uni1EDD" unicode="&#x1edd;" horiz-adv-x="662" 
d="M266 599l-114 180h170l77 -179zM331 -10q-91 0 -156 38t-99 100.5t-34 136.5t34 136.5t99 100.5t156 38h121q40 0 40 40v78h147v-87q0 -103 -91 -117q35 -37 53.5 -86t18.5 -103q0 -74 -34 -136.5t-98.5 -100.5t-156.5 -38zM331 142q46 0 72.5 35.5t26.5 87.5t-26.5 87.5
t-72.5 35.5t-72.5 -35.5t-26.5 -87.5t26.5 -87.5t72.5 -35.5z" />
    <glyph glyph-name="uni1EDE" unicode="&#x1ede;" horiz-adv-x="830" 
d="M355 795v33q0 15 6.5 27.5t21.5 19.5l16 8q19 10 30 19.5t11 25.5q0 12 -9 20.5t-23 8.5q-17 0 -24.5 -9t-9 -18.5l-1.5 -9.5h-101q-1 28 12 57t43 49t79 20q66 0 104 -34t38 -80q0 -40 -26.5 -64.5t-59.5 -42.5l-5 -3v-27h-102zM415 -10q-96 0 -168 32.5t-120 87
t-72.5 122.5t-24.5 139t24.5 138.5t72.5 121.5t120 86.5t168 32.5q16 0 31 -1h123q62 0 62 62v56h157v-80q0 -61 -25.5 -93.5t-81.5 -39.5q59 -55 89 -130t30 -153q0 -71 -24 -139t-72.5 -122.5t-120.5 -87t-168 -32.5zM415 161q62 0 103 30.5t61.5 79t20.5 100.5t-20.5 100
t-61.5 78.5t-103 30.5q-61 0 -102 -30.5t-61.5 -78.5t-20.5 -100t20.5 -100.5t61.5 -79t102 -30.5z" />
    <glyph glyph-name="uni1EDF" unicode="&#x1edf;" horiz-adv-x="662" 
d="M265 585v33q0 15 6.5 27.5t21.5 19.5l16 8q19 10 30 19.5t11 25.5q0 12 -9 20.5t-23 8.5q-17 0 -24.5 -9t-9 -18.5l-1.5 -9.5h-101q-1 28 12 57t43 49t79 20q66 0 104 -34t38 -80q0 -40 -26.5 -64.5t-59.5 -42.5l-5 -3v-27h-102zM331 -10q-91 0 -156 38t-99 100.5
t-34 136.5t34 136.5t99 100.5t156 38h121q40 0 40 40v78h147v-87q0 -103 -91 -117q35 -37 53.5 -86t18.5 -103q0 -74 -34 -136.5t-98.5 -100.5t-156.5 -38zM331 142q46 0 72.5 35.5t26.5 87.5t-26.5 87.5t-72.5 35.5t-72.5 -35.5t-26.5 -87.5t26.5 -87.5t72.5 -35.5z" />
    <glyph glyph-name="uni1EE0" unicode="&#x1ee0;" horiz-adv-x="830" 
d="M483 822q-27 0 -47 9t-35.5 20.5t-28.5 20.5t-27 9q-15 0 -20.5 -13.5t-5.5 -39.5h-93q0 35 8 71.5t31.5 62t68.5 25.5q37 0 61.5 -14.5t42.5 -29.5t35 -15q14 0 19.5 14t5.5 39h93q0 -34 -8 -71t-31 -62.5t-69 -25.5zM415 -10q-96 0 -168 32.5t-120 87t-72.5 122.5
t-24.5 139t24.5 138.5t72.5 121.5t120 86.5t168 32.5q16 0 31 -1h123q62 0 62 62v56h157v-80q0 -61 -25.5 -93.5t-81.5 -39.5q59 -55 89 -130t30 -153q0 -71 -24 -139t-72.5 -122.5t-120.5 -87t-168 -32.5zM415 161q62 0 103 30.5t61.5 79t20.5 100.5t-20.5 100t-61.5 78.5
t-103 30.5q-61 0 -102 -30.5t-61.5 -78.5t-20.5 -100t20.5 -100.5t61.5 -79t102 -30.5z" />
    <glyph glyph-name="uni1EE1" unicode="&#x1ee1;" horiz-adv-x="650" 
d="M382 612q-34 0 -57 15t-39.5 29.5t-33.5 14.5q-14 0 -20 -14t-6 -39h-83q0 40 7.5 76t29.5 59.5t65 23.5q34 0 57.5 -14.5t41 -29.5t32.5 -15q14 0 19.5 14.5t5.5 38.5h83q0 -39 -7.5 -75.5t-29 -60t-65.5 -23.5zM331 -10q-91 0 -156 38t-99 100.5t-34 136.5t34 136.5
t99 100.5t156 38h121q40 0 40 40v78h147v-87q0 -103 -91 -117q35 -37 53.5 -86t18.5 -103q0 -74 -34 -136.5t-98.5 -100.5t-156.5 -38zM331 142q46 0 72.5 35.5t26.5 87.5t-26.5 87.5t-72.5 35.5t-72.5 -35.5t-26.5 -87.5t26.5 -87.5t72.5 -35.5z" />
    <glyph glyph-name="uni1EE2" unicode="&#x1ee2;" horiz-adv-x="830" 
d="M415 -10q-96 0 -168 32.5t-120 87t-72.5 122.5t-24.5 139t24.5 138.5t72.5 121.5t120 86.5t168 32.5q16 0 31 -1h123q62 0 62 62v56h157v-80q0 -61 -25.5 -93.5t-81.5 -39.5q59 -55 89 -130t30 -153q0 -71 -24 -139t-72.5 -122.5t-120.5 -87t-168 -32.5zM415 161
q62 0 103 30.5t61.5 79t20.5 100.5t-20.5 100t-61.5 78.5t-103 30.5q-61 0 -102 -30.5t-61.5 -78.5t-20.5 -100t20.5 -100.5t61.5 -79t102 -30.5zM405 -260q-40 0 -64.5 26.5t-24.5 62.5q0 37 24.5 63t64.5 26q38 0 63.5 -26t25.5 -63q0 -36 -25.5 -62.5t-63.5 -26.5z" />
    <glyph glyph-name="uni1EE3" unicode="&#x1ee3;" horiz-adv-x="662" 
d="M331 -10q-91 0 -156 38t-99 100.5t-34 136.5t34 136.5t99 100.5t156 38h121q40 0 40 40v78h147v-87q0 -103 -91 -117q35 -37 53.5 -86t18.5 -103q0 -74 -34 -136.5t-98.5 -100.5t-156.5 -38zM331 142q46 0 72.5 35.5t26.5 87.5t-26.5 87.5t-72.5 35.5t-72.5 -35.5
t-26.5 -87.5t26.5 -87.5t72.5 -35.5zM388 -260q-40 0 -64.5 26.5t-24.5 62.5q0 37 24.5 63t64.5 26q38 0 63.5 -26t25.5 -63q0 -36 -25.5 -62.5t-63.5 -26.5z" />
    <glyph glyph-name="uni1EE4" unicode="&#x1ee4;" horiz-adv-x="746" 
d="M373 -10q-57 0 -113 16t-101 52t-72 95.5t-27 146.5v440h192v-440q0 -54 29 -92t92 -38t92 38t29 92v440h192v-440q0 -87 -27 -146.5t-72 -95.5t-101 -52t-113 -16zM362 -260q-40 0 -64.5 26.5t-24.5 62.5q0 37 24.5 63t64.5 26q38 0 63.5 -26t25.5 -63
q0 -36 -25.5 -62.5t-63.5 -26.5z" />
    <glyph glyph-name="uni1EE5" unicode="&#x1ee5;" horiz-adv-x="608" 
d="M215 -10q-58 0 -93.5 25t-51 65.5t-15.5 86.5v363h188v-316q0 -30 15 -50.5t48 -20.5q34 0 48 21.5t14 49.5v316h190v-530h-190v75h-6q-22 -40 -58 -62.5t-89 -22.5zM306 -260q-40 0 -64.5 26.5t-24.5 62.5q0 37 24.5 63t64.5 26q38 0 63.5 -26t25.5 -63
q0 -36 -25.5 -62.5t-63.5 -26.5z" />
    <glyph glyph-name="uni1EE6" unicode="&#x1ee6;" horiz-adv-x="746" 
d="M323 795v33q0 15 6.5 27.5t21.5 19.5l16 8q19 10 30 19.5t11 25.5q0 12 -9 20.5t-23 8.5q-17 0 -24.5 -9t-9 -18.5l-1.5 -9.5h-101q-1 28 12 57t43 49t79 20q66 0 104 -34t38 -80q0 -40 -26.5 -64.5t-59.5 -42.5l-5 -3v-27h-102zM373 -10q-57 0 -113 16t-101 52t-72 95.5
t-27 146.5v440h192v-440q0 -54 29 -92t92 -38t92 38t29 92v440h192v-440q0 -87 -27 -146.5t-72 -95.5t-101 -52t-113 -16z" />
    <glyph glyph-name="uni1EE7" unicode="&#x1ee7;" horiz-adv-x="608" 
d="M256 585v33q0 15 6.5 27.5t21.5 19.5l16 8q19 10 30 19.5t11 25.5q0 12 -9 20.5t-23 8.5q-17 0 -24.5 -9t-9 -18.5l-1.5 -9.5h-101q-1 28 12 57t43 49t79 20q66 0 104 -34t38 -80q0 -40 -26.5 -64.5t-59.5 -42.5l-5 -3v-27h-102zM215 -10q-58 0 -93.5 25t-51 65.5
t-15.5 86.5v363h188v-316q0 -30 15 -50.5t48 -20.5q34 0 48 21.5t14 49.5v316h190v-530h-190v75h-6q-22 -40 -58 -62.5t-89 -22.5z" />
    <glyph glyph-name="uni1EE8" unicode="&#x1ee8;" horiz-adv-x="746" 
d="M441 809l-133 1l77 179h170zM373 -10q-57 0 -113 16t-101 52t-72 95.5t-27 146.5v440h192v-440q0 -54 29 -92t92 -38t92 38t29 92v440h121q40 0 40 40v78h147v-87q0 -58 -30 -88.5t-86 -30.5v-352q0 -87 -27 -146.5t-72 -95.5t-101 -52t-113 -16z" />
    <glyph glyph-name="uni1EE9" unicode="&#x1ee9;" horiz-adv-x="608" 
d="M371 599l-133 1l77 179h170zM215 -10q-58 0 -93.5 25t-51 65.5t-15.5 86.5v363h188v-316q0 -30 15 -50.5t48 -20.5q34 0 48 21.5t14 49.5v316h121q40 0 40 40v78h147v-87q0 -58 -30.5 -88.5t-87.5 -30.5v-442h-190v75h-6q-22 -40 -58 -62.5t-89 -22.5z" />
    <glyph glyph-name="uni1EEA" unicode="&#x1eea;" horiz-adv-x="746" 
d="M308 809l-114 180h170l77 -179zM373 -10q-57 0 -113 16t-101 52t-72 95.5t-27 146.5v440h192v-440q0 -54 29 -92t92 -38t92 38t29 92v440h121q40 0 40 40v78h147v-87q0 -58 -30 -88.5t-86 -30.5v-352q0 -87 -27 -146.5t-72 -95.5t-101 -52t-113 -16z" />
    <glyph glyph-name="uni1EEB" unicode="&#x1eeb;" horiz-adv-x="608" 
d="M238 599l-114 180h170l77 -179zM215 -10q-58 0 -93.5 25t-51 65.5t-15.5 86.5v363h188v-316q0 -30 15 -50.5t48 -20.5q34 0 48 21.5t14 49.5v316h121q40 0 40 40v78h147v-87q0 -58 -30.5 -88.5t-87.5 -30.5v-442h-190v75h-6q-22 -40 -58 -62.5t-89 -22.5z" />
    <glyph glyph-name="uni1EEC" unicode="&#x1eec;" horiz-adv-x="746" 
d="M323 795v33q0 15 6.5 27.5t21.5 19.5l16 8q19 10 30 19.5t11 25.5q0 12 -9 20.5t-23 8.5q-17 0 -24.5 -9t-9 -18.5l-1.5 -9.5h-101q-1 28 12 57t43 49t79 20q66 0 104 -34t38 -80q0 -40 -26.5 -64.5t-59.5 -42.5l-5 -3v-27h-102zM373 -10q-57 0 -113 16t-101 52t-72 95.5
t-27 146.5v440h192v-440q0 -54 29 -92t92 -38t92 38t29 92v440h121q40 0 40 40v78h147v-87q0 -58 -30 -88.5t-86 -30.5v-352q0 -87 -27 -146.5t-72 -95.5t-101 -52t-113 -16z" />
    <glyph glyph-name="uni1EED" unicode="&#x1eed;" horiz-adv-x="608" 
d="M253 585v33q0 15 6.5 27.5t21.5 19.5l16 8q19 10 30 19.5t11 25.5q0 12 -9 20.5t-23 8.5q-17 0 -24.5 -9t-9 -18.5l-1.5 -9.5h-101q-1 28 12 57t43 49t79 20q66 0 104 -34t38 -80q0 -40 -26.5 -64.5t-59.5 -42.5l-5 -3v-27h-102zM215 -10q-58 0 -93.5 25t-51 65.5
t-15.5 86.5v363h188v-316q0 -30 15 -50.5t48 -20.5q34 0 48 21.5t14 49.5v316h121q40 0 40 40v78h147v-87q0 -58 -30.5 -88.5t-87.5 -30.5v-442h-190v75h-6q-22 -40 -58 -62.5t-89 -22.5z" />
    <glyph glyph-name="uni1EEE" unicode="&#x1eee;" horiz-adv-x="746" 
d="M451 822q-27 0 -47 9t-35.5 20.5t-28.5 20.5t-27 9q-15 0 -20.5 -13.5t-5.5 -39.5h-93q0 35 8 71.5t31.5 62t68.5 25.5q37 0 61.5 -14.5t42.5 -29.5t35 -15q14 0 19.5 14t5.5 39h93q0 -34 -8 -71t-31 -62.5t-69 -25.5zM373 -10q-57 0 -113 16t-101 52t-72 95.5t-27 146.5
v440h192v-440q0 -54 29 -92t92 -38t92 38t29 92v440h121q40 0 40 40v78h147v-87q0 -58 -30 -88.5t-86 -30.5v-352q0 -87 -27 -146.5t-72 -95.5t-101 -52t-113 -16z" />
    <glyph glyph-name="uni1EEF" unicode="&#x1eef;" horiz-adv-x="608" 
d="M381 612q-27 0 -47 9t-35.5 20.5t-28.5 20.5t-27 9q-15 0 -20.5 -13.5t-5.5 -39.5h-93q0 35 8 71.5t31.5 62t68.5 25.5q37 0 61.5 -14.5t42.5 -29.5t35 -15q14 0 19.5 14t5.5 39h93q0 -34 -8 -71t-31 -62.5t-69 -25.5zM215 -10q-58 0 -93.5 25t-51 65.5t-15.5 86.5v363
h188v-316q0 -30 15 -50.5t48 -20.5q34 0 48 21.5t14 49.5v316h121q40 0 40 40v78h147v-87q0 -58 -30.5 -88.5t-87.5 -30.5v-442h-190v75h-6q-22 -40 -58 -62.5t-89 -22.5z" />
    <glyph glyph-name="uni1EF0" unicode="&#x1ef0;" horiz-adv-x="746" 
d="M373 -10q-57 0 -113 16t-101 52t-72 95.5t-27 146.5v440h192v-440q0 -54 29 -92t92 -38t92 38t29 92v440h121q40 0 40 40v78h147v-87q0 -58 -30 -88.5t-86 -30.5v-352q0 -87 -27 -146.5t-72 -95.5t-101 -52t-113 -16zM373 -260q-40 0 -64.5 26.5t-24.5 62.5q0 37 24.5 63
t64.5 26q38 0 63.5 -26t25.5 -63q0 -36 -25.5 -62.5t-63.5 -26.5z" />
    <glyph glyph-name="uni1EF1" unicode="&#x1ef1;" horiz-adv-x="608" 
d="M215 -10q-58 0 -93.5 25t-51 65.5t-15.5 86.5v363h188v-316q0 -30 15 -50.5t48 -20.5q34 0 48 21.5t14 49.5v316h121q40 0 40 40v78h147v-87q0 -58 -30.5 -88.5t-87.5 -30.5v-442h-190v75h-6q-22 -40 -58 -62.5t-89 -22.5zM303 -260q-40 0 -64.5 26.5t-24.5 62.5
q0 37 24.5 63t64.5 26q38 0 63.5 -26t25.5 -63q0 -36 -25.5 -62.5t-63.5 -26.5z" />
    <glyph glyph-name="Ygrave" unicode="&#x1ef2;" horiz-adv-x="754" 
d="M312 809l-114 180h170l77 -179zM281 0v247l-261 493h210l147 -296l146 296h211l-261 -493v-247h-192z" />
    <glyph glyph-name="ygrave" unicode="&#x1ef3;" horiz-adv-x="606" 
d="M243 599l-114 180h170l77 -179zM109 -195q-30 0 -46.5 2l-16.5 2v150l12 -1t33 -1q40 0 66.5 8t46.5 34l-189 531h188l102 -320l98 320h188l-179 -495q-27 -76 -64 -127.5t-93.5 -77t-145.5 -25.5z" />
    <glyph glyph-name="uni1EF4" unicode="&#x1ef4;" horiz-adv-x="754" 
d="M281 0v247l-261 493h210l147 -296l146 296h211l-261 -493v-247h-192zM377 -260q-40 0 -64.5 26.5t-24.5 62.5q0 37 24.5 63t64.5 26q38 0 63.5 -26t25.5 -63q0 -36 -25.5 -62.5t-63.5 -26.5z" />
    <glyph glyph-name="uni1EF5" unicode="&#x1ef5;" horiz-adv-x="606" 
d="M109 -195q-30 0 -46.5 2l-16.5 2v150l12 -1t33 -1q40 0 66.5 8t46.5 34l-189 531h188l102 -320l98 320h188l-179 -495q-27 -76 -64 -127.5t-93.5 -77t-145.5 -25.5zM503 -260q-40 0 -64.5 26.5t-24.5 62.5q0 37 24.5 63t64.5 26q38 0 63.5 -26t25.5 -63
q0 -36 -25.5 -62.5t-63.5 -26.5z" />
    <glyph glyph-name="uni1EF6" unicode="&#x1ef6;" horiz-adv-x="754" 
d="M327 795v33q0 15 6.5 27.5t21.5 19.5l16 8q19 10 30 19.5t11 25.5q0 12 -9 20.5t-23 8.5q-17 0 -24.5 -9t-9 -18.5l-1.5 -9.5h-101q-1 28 12 57t43 49t79 20q66 0 104 -34t38 -80q0 -40 -26.5 -64.5t-59.5 -42.5l-5 -3v-27h-102zM281 0v247l-261 493h210l147 -296
l146 296h211l-261 -493v-247h-192z" />
    <glyph glyph-name="uni1EF7" unicode="&#x1ef7;" horiz-adv-x="606" 
d="M258 585v33q0 15 6.5 27.5t21.5 19.5l16 8q19 10 30 19.5t11 25.5q0 12 -9 20.5t-23 8.5q-17 0 -24.5 -9t-9 -18.5l-1.5 -9.5h-101q-1 28 12 57t43 49t79 20q66 0 104 -34t38 -80q0 -40 -26.5 -64.5t-59.5 -42.5l-5 -3v-27h-102zM109 -195q-30 0 -46.5 2l-16.5 2v150
l12 -1t33 -1q40 0 66.5 8t46.5 34l-189 531h188l102 -320l98 320h188l-179 -495q-27 -76 -64 -127.5t-93.5 -77t-145.5 -25.5z" />
    <glyph glyph-name="uni1EF8" unicode="&#x1ef8;" horiz-adv-x="754" 
d="M455 822q-27 0 -47 9t-35.5 20.5t-28.5 20.5t-27 9q-15 0 -20.5 -13.5t-5.5 -39.5h-93q0 35 8 71.5t31.5 62t68.5 25.5q37 0 61.5 -14.5t42.5 -29.5t35 -15q14 0 19.5 14t5.5 39h93q0 -34 -8 -71t-31 -62.5t-69 -25.5zM281 0v247l-261 493h210l147 -296l146 296h211
l-261 -493v-247h-192z" />
    <glyph glyph-name="uni1EF9" unicode="&#x1ef9;" horiz-adv-x="606" 
d="M386 612q-27 0 -47 9t-35.5 20.5t-28.5 20.5t-27 9q-15 0 -20.5 -13.5t-5.5 -39.5h-93q0 35 8 71.5t31.5 62t68.5 25.5q37 0 61.5 -14.5t42.5 -29.5t35 -15q14 0 19.5 14t5.5 39h93q0 -34 -8 -71t-31 -62.5t-69 -25.5zM109 -195q-30 0 -46.5 2l-16.5 2v150l12 -1t33 -1
q40 0 66.5 8t46.5 34l-189 531h188l102 -320l98 320h188l-179 -495q-27 -76 -64 -127.5t-93.5 -77t-145.5 -25.5z" />
    <glyph glyph-name="endash" unicode="&#x2013;" horiz-adv-x="718" 
d="M115 238v147h488v-147h-488z" />
    <glyph glyph-name="emdash" unicode="&#x2014;" horiz-adv-x="869" 
d="M115 238v147h639v-147h-639z" />
    <glyph glyph-name="quoteleft" unicode="&#x2018;" horiz-adv-x="245" 
d="M221 740l-89 -149q41 -3 67 -31.5t26 -67.5q0 -41 -28 -70t-73 -29q-44 0 -74 28.5t-30 76.5q0 25 12 55.5t39.5 72.5t71.5 103l8 11h70z" />
    <glyph glyph-name="quoteright" unicode="&#x2019;" horiz-adv-x="245" 
d="M24 403l89 149q-41 3 -67 31.5t-26 67.5q0 41 28 70t73 29q44 0 74 -28.5t30 -76.5q0 -25 -12 -55t-39 -72.5t-72 -103.5l-8 -11h-70z" />
    <glyph glyph-name="quotesinglbase" unicode="&#x201a;" horiz-adv-x="310" 
d="M89 -159l89 149q-41 3 -67 31.5t-26 67.5q0 41 28 70t73 29q44 0 74 -28.5t30 -76.5q0 -25 -12 -55t-39 -72.5t-72 -103.5l-8 -11h-70z" />
    <glyph glyph-name="quotedblleft" unicode="&#x201c;" horiz-adv-x="494" 
d="M226 740l-89 -149q41 -3 67 -31.5t26 -67.5q0 -41 -28 -70t-73 -29q-44 0 -74 28.5t-30 76.5q0 25 12 55.5t39.5 72.5t71.5 103l8 11h70zM470 740l-89 -149q41 -3 67 -31.5t26 -67.5q0 -41 -28 -70t-73 -29q-44 0 -74 28.5t-30 76.5q0 25 12 55.5t39.5 72.5t71.5 103
l8 11h70z" />
    <glyph glyph-name="quotedblright" unicode="&#x201d;" horiz-adv-x="489" 
d="M268 403l89 149q-41 3 -67 31.5t-26 67.5q0 41 28 70t73 29q44 0 74 -28.5t30 -76.5q0 -25 -12 -55t-39 -72.5t-72 -103.5l-8 -11h-70zM24 403l89 149q-41 3 -67 31.5t-26 67.5q0 41 28 70t73 29q44 0 74 -28.5t30 -76.5q0 -25 -12 -55t-39 -72.5t-72 -103.5l-8 -11h-70z
" />
    <glyph glyph-name="quotedblbase" unicode="&#x201e;" horiz-adv-x="619" 
d="M333 -159l89 149q-41 3 -67 31.5t-26 67.5q0 41 28 70t73 29q44 0 74 -28.5t30 -76.5q0 -25 -12 -55t-39 -72.5t-72 -103.5l-8 -11h-70zM89 -159l89 149q-41 3 -67 31.5t-26 67.5q0 41 28 70t73 29q44 0 74 -28.5t30 -76.5q0 -25 -12 -55t-39 -72.5t-72 -103.5l-8 -11
h-70z" />
    <glyph glyph-name="dagger" unicode="&#x2020;" horiz-adv-x="748" 
d="M294 165v339h-179v131h179v155h160v-155h179v-131h-179v-339h-160z" />
    <glyph glyph-name="daggerdbl" unicode="&#x2021;" horiz-adv-x="748" 
d="M294 165v117h-179v131h179v129h-179v131h179v117h160v-117h179v-131h-179v-129h179v-131h-179v-117h-160z" />
    <glyph glyph-name="bullet" unicode="&#x2022;" horiz-adv-x="580" 
d="M290 173q-51 0 -90.5 24t-62 64t-22.5 88q0 49 22.5 88.5t62 63t90.5 23.5t90.5 -23.5t62 -63t22.5 -88.5q0 -48 -22.5 -88t-62 -64t-90.5 -24z" />
    <glyph glyph-name="ellipsis" unicode="&#x2026;" horiz-adv-x="954" 
d="M480 -10q-43 0 -71 29.5t-28 69.5q0 41 28 70t71 29t71 -29t28 -70q0 -40 -28 -69.5t-71 -29.5zM754 -10q-43 0 -71 29.5t-28 69.5q0 41 28 70t71 29t71 -29t28 -70q0 -40 -28 -69.5t-71 -29.5zM200 -10q-43 0 -71 29.5t-28 69.5q0 41 28 70t71 29t71 -29t28 -70
q0 -40 -28 -69.5t-71 -29.5z" />
    <glyph glyph-name="perthousand" unicode="&#x2030;" horiz-adv-x="1278" 
d="M222 411q-59 0 -98.5 25t-59 64t-19.5 81t19.5 81t59 63.5t98.5 24.5t98 -24.5t58.5 -63.5t19.5 -81t-19.5 -81t-58.5 -64t-98 -25zM156 0l432 740h141l-432 -740h-141zM221 514q32 0 47.5 20.5t15.5 45.5t-15.5 45.5t-47.5 20.5q-31 0 -47 -20.5t-16 -45.5t16 -45.5
t47 -20.5zM1057 -10q-59 0 -98.5 25t-59 63.5t-19.5 81.5q0 42 19.5 81t59 63.5t98.5 24.5t98 -24.5t58.5 -63.5t19.5 -81q0 -43 -19.5 -81.5t-58.5 -63.5t-98 -25zM664 -10q-59 0 -98.5 25t-59 63.5t-19.5 81.5q0 42 19.5 81t59 63.5t98.5 24.5t98 -24.5t58.5 -63.5
t19.5 -81q0 -43 -19.5 -81.5t-58.5 -63.5t-98 -25zM1056 93q32 0 47.5 20.5t15.5 45.5t-15.5 45.5t-47.5 20.5q-31 0 -47 -20.5t-16 -45.5t16 -45.5t47 -20.5zM663 93q32 0 47.5 20.5t15.5 45.5t-15.5 45.5t-47.5 20.5q-31 0 -47 -20.5t-16 -45.5t16 -45.5t47 -20.5z" />
    <glyph glyph-name="guilsinglleft" unicode="&#x2039;" horiz-adv-x="475" 
d="M440 530l-211 -224l211 -226h-194l-216 225l216 225h194z" />
    <glyph glyph-name="guilsinglright" unicode="&#x203a;" horiz-adv-x="475" 
d="M35 80l211 224l-211 226h194l216 -225l-216 -225h-194z" />
    <glyph glyph-name="fraction" unicode="&#x2044;" horiz-adv-x="595" 
d="M30 0l419 700h126l-420 -700h-125z" />
    <glyph glyph-name="uni2070" unicode="&#x2070;" horiz-adv-x="493" 
d="M246 395q-68 0 -116.5 31.5t-74 84t-25.5 116.5q0 65 25.5 118t74 84.5t116.5 31.5q67 0 115.5 -31t75 -84t26.5 -119q0 -65 -26.5 -117.5t-75 -83.5t-115.5 -31zM246 519q31 0 49.5 28.5t18.5 79.5q0 54 -18.5 82t-49.5 28q-30 0 -48.5 -28.5t-18.5 -81.5
q0 -51 18.5 -79.5t48.5 -28.5z" />
    <glyph glyph-name="uni2074" unicode="&#x2074;" horiz-adv-x="502" 
d="M257 405v83l-213 1v99l167 272h180v-268h71v-104h-71v-83h-134zM170 592h87v143z" />
    <glyph glyph-name="uni2075" unicode="&#x2075;" horiz-adv-x="483" 
d="M245 396q-58 0 -94 15.5t-55.5 38.5t-28 45.5t-10 37.5t-1.5 14h137l3.5 -8.5t14.5 -17t32 -8.5q26 0 38.5 14t12.5 30q0 17 -12.5 31t-38.5 14q-19 0 -28.5 -9l-9.5 -9h-146l32 276h316v-119h-213l-8 -69l5 -1q0 1 10.5 9t30 16.5t48.5 8.5q50 0 84 -21t51.5 -54
t17.5 -70q0 -39 -20.5 -77t-62 -62.5t-105.5 -24.5z" />
    <glyph glyph-name="uni2076" unicode="&#x2076;" horiz-adv-x="489" 
d="M252 393q-68 0 -113 29.5t-67 77t-22 100.5q0 47 17 93t50.5 84t84.5 61t120 23q23 0 41.5 -2l18.5 -2v-119l-20 2t-40 2q-30 0 -59.5 -9t-51 -30.5t-26.5 -57.5q9 16 33 35.5t75 19.5q48 0 80.5 -20t49 -52.5t16.5 -68.5q0 -40 -20.5 -78.5t-62 -63t-104.5 -24.5z
M250 504q26 0 39.5 15.5t13.5 33.5t-13 33t-40 15q-26 0 -39 -15t-13 -33t13.5 -33.5t38.5 -15.5z" />
    <glyph glyph-name="uni2077" unicode="&#x2077;" horiz-adv-x="410" 
d="M94 405q4 64 20.5 118t39 96.5t45.5 73t39 47.5h-215v119h367v-97l-15 -15.5t-37 -45.5t-44.5 -73.5t-39 -99.5t-19.5 -123h-141z" />
    <glyph glyph-name="uni2078" unicode="&#x2078;" horiz-adv-x="478" 
d="M238 395q-43 0 -86.5 12.5t-73 41t-29.5 75.5q0 30 12.5 50t29 32t29 16.5l12.5 4.5v8l-11 4t-25.5 15t-26 30.5t-11.5 48.5q0 43 26.5 71t68 42.5t85.5 14.5t85.5 -14.5t68 -42.5t26.5 -71q0 -29 -11.5 -48.5t-26 -30.5t-25.5 -15l-11 -4v-8l12.5 -4.5t29 -16.5t29 -32
t12.5 -50q0 -47 -29.5 -75.5t-73 -41t-86.5 -12.5zM238 679q22 0 33 12.5t11 26.5q0 15 -11 27t-33 12t-32.5 -12t-10.5 -27q0 -14 10.5 -26.5t32.5 -12.5zM238 498q25 0 37 13t12 29t-12 29t-37 13q-24 0 -36.5 -13t-12.5 -29t12.5 -29t36.5 -13z" />
    <glyph glyph-name="uni2079" unicode="&#x2079;" horiz-adv-x="489" 
d="M237 868q69 0 113.5 -29.5t66.5 -77t22 -100.5q0 -47 -17 -93t-50.5 -84t-84.5 -61t-120 -23q-23 0 -41.5 2l-18.5 2v119l20.5 -2t39.5 -2q30 0 59.5 9t51 30.5t26.5 57.5q-9 -16 -33 -35.5t-75 -19.5q-48 0 -80.5 20.5t-49 52.5t-16.5 68q0 41 20.5 79t62.5 62.5
t104 24.5zM239 757q-26 0 -39.5 -15.5t-13.5 -33.5t13 -33t40 -15q26 0 39 15t13 33t-13 33.5t-39 15.5z" />
    <glyph glyph-name="uni2080" unicode="&#x2080;" horiz-adv-x="493" 
d="M246 -220q-68 0 -116.5 31.5t-74 84t-25.5 116.5q0 65 25.5 118t74 84.5t116.5 31.5q67 0 115.5 -31t75 -84t26.5 -119q0 -65 -26.5 -117.5t-75 -83.5t-115.5 -31zM246 -96q31 0 49.5 28.5t18.5 79.5q0 54 -18.5 82t-49.5 28q-30 0 -48.5 -28.5t-18.5 -81.5
q0 -51 18.5 -79.5t48.5 -28.5z" />
    <glyph glyph-name="uni2081" unicode="&#x2081;" horiz-adv-x="351" 
d="M271 245v-455h-134v294h-93v80l13 4q46 14 74.5 29t56.5 43l5 5h78z" />
    <glyph glyph-name="uni2082" unicode="&#x2082;" horiz-adv-x="472" 
d="M43 -210v100l114 82q30 21 55.5 39t41.5 36t16 38t-13.5 30t-32.5 10t-33.5 -12t-14.5 -39h-136q0 59 26.5 97t69.5 56.5t92 18.5q54 0 96.5 -19.5t66.5 -53t24 -75.5q0 -55 -44.5 -100t-128.5 -89h175v-119h-374z" />
    <glyph glyph-name="uni2083" unicode="&#x2083;" horiz-adv-x="490" 
d="M246 -220q-58 0 -94.5 15.5t-56.5 38.5t-29 46.5t-10.5 39l-1.5 15.5h134l2.5 -10.5t13.5 -21t38 -10.5q29 0 40.5 13t11.5 26q0 16 -13 24t-32 8h-63v98h60q24 0 35 10t11 24q0 16 -12 26t-35 10q-24 0 -34 -10t-12 -20.5l-2 -10.5h-130l1.5 15.5t9.5 38.5t27.5 46
t54.5 38.5t90 15.5q49 0 90.5 -15t66.5 -44t25 -71q0 -34 -15 -55.5t-33.5 -32t-28.5 -12.5v-6q32 -8 58 -31t26 -66q0 -41 -25.5 -70.5t-69 -45.5t-98.5 -16z" />
    <glyph glyph-name="uni2084" unicode="&#x2084;" horiz-adv-x="492" 
d="M247 -210v83l-213 1v99l167 272h180v-268h71v-104h-71v-83h-134zM160 -23h87v143z" />
    <glyph glyph-name="uni2085" unicode="&#x2085;" horiz-adv-x="487" 
d="M249 -219q-58 0 -94 15.5t-55.5 38.5t-28 45.5t-10 37.5t-1.5 14h137l3.5 -8.5t14.5 -17t32 -8.5q26 0 38.5 14t12.5 30q0 17 -12.5 31t-38.5 14q-19 0 -28.5 -9l-9.5 -9h-146l32 276h316v-119h-213l-8 -69l5 -1q0 1 10.5 9t30 16.5t48.5 8.5q50 0 84 -21t51.5 -54
t17.5 -70q0 -39 -20.5 -77t-62 -62.5t-105.5 -24.5z" />
    <glyph glyph-name="uni2086" unicode="&#x2086;" horiz-adv-x="489" 
d="M252 -222q-68 0 -113 29.5t-67 77t-22 100.5q0 47 17 93t50.5 84t84.5 61t120 23q23 0 41.5 -2l18.5 -2v-119l-20 2t-40 2q-30 0 -59.5 -9t-51 -30.5t-26.5 -57.5q9 16 33 35.5t75 19.5q48 0 80.5 -20t49 -52.5t16.5 -68.5q0 -40 -20.5 -78.5t-62 -63t-104.5 -24.5z
M250 -111q26 0 39.5 15.5t13.5 33.5t-13 33t-40 15q-26 0 -39 -15t-13 -33t13.5 -33.5t38.5 -15.5z" />
    <glyph glyph-name="uni2087" unicode="&#x2087;" horiz-adv-x="410" 
d="M94 -210q4 64 20.5 118t39 96.5t45.5 73t39 47.5h-215v119h367v-97l-15 -15.5t-37 -45.5t-44.5 -73.5t-39 -99.5t-19.5 -123h-141z" />
    <glyph glyph-name="uni2088" unicode="&#x2088;" horiz-adv-x="478" 
d="M238 -220q-43 0 -86.5 12.5t-73 41t-29.5 75.5q0 30 12.5 50t29 32t29 16.5l12.5 4.5v8l-11 4t-25.5 15t-26 30.5t-11.5 48.5q0 43 26.5 71t68 42.5t85.5 14.5t85.5 -14.5t68 -42.5t26.5 -71q0 -29 -11.5 -48.5t-26 -30.5t-25.5 -15l-11 -4v-8l12.5 -4.5t29 -16.5t29 -32
t12.5 -50q0 -47 -29.5 -75.5t-73 -41t-86.5 -12.5zM238 64q22 0 33 12.5t11 26.5q0 15 -11 27t-33 12t-32.5 -12t-10.5 -27q0 -14 10.5 -26.5t32.5 -12.5zM238 -117q25 0 37 13t12 29t-12 29t-37 13q-24 0 -36.5 -13t-12.5 -29t12.5 -29t36.5 -13z" />
    <glyph glyph-name="uni2089" unicode="&#x2089;" horiz-adv-x="489" 
d="M237 248q69 0 113.5 -29.5t66.5 -77t22 -100.5q0 -47 -17 -93t-50.5 -84t-84.5 -61t-120 -23q-23 0 -41.5 2l-18.5 2v119l20.5 -2t39.5 -2q30 0 59.5 9t51 30.5t26.5 57.5q-9 -16 -33 -35.5t-75 -19.5q-48 0 -80.5 20t-49 52.5t-16.5 68.5q0 41 20.5 79t62.5 62.5
t104 24.5zM239 137q-26 0 -39.5 -15.5t-13.5 -33.5t13 -33t40 -15q26 0 39 15t13 33t-13 33.5t-39 15.5z" />
    <glyph glyph-name="dong" unicode="&#x20ab;" horiz-adv-x="667" 
d="M257 140q-61 0 -101.5 29.5t-61 76.5t-20.5 97q0 51 20.5 97.5t61 76.5t101.5 30q42 0 67.5 -13.5t37 -26.5t10.5 -12h7v77h-97v88h97v40h158v-40h61v-88h-61v-427h-158v47h-7q1 1 -10.5 -12t-37 -26.5t-67.5 -13.5zM309 265q38 0 57 25t19 53q0 30 -19 55t-57 25
q-37 0 -56 -25t-19 -55q0 -28 19 -53t56 -25zM69 0v75h530v-75h-530z" />
    <glyph glyph-name="Euro" unicode="&#x20ac;" horiz-adv-x="661" 
d="M20 270v80h72v20v19h-72v80h84q18 76 65.5 140t126 102.5t189.5 38.5q34 0 67.5 -4t56 -8l22.5 -4v-165l-21 4t-51.5 8t-60.5 4q-74 0 -121 -33.5t-69 -82.5h230v-80h-250q-1 -9 -1 -19t1 -20h250v-80h-230q22 -49 69 -82t121 -33q30 0 60.5 4t51.5 8l21 4v-165l-22.5 -4
t-56 -8t-67.5 -4q-111 0 -189 38.5t-126 102t-66 139.5h-84z" />
    <glyph glyph-name="trademark" unicode="&#x2122;" horiz-adv-x="874" 
d="M407 390v350h157l47 -130l52 130h151v-350h-116v182l-41 -112h-94l-41 114v-184h-115zM139 390v250h-104v100h324v-100h-103v-250h-117z" />
    <glyph glyph-name="oneeighth" unicode="&#x215b;" horiz-adv-x="823" 
d="M159 0l419 700h126l-420 -700h-125zM195 699v-348h-114v216h-71v70l9 2q35 9 59.5 22.5t46.5 34.5l3 3h67zM742 -4q-34 0 -68.5 10t-57 31.5t-22.5 57.5q0 26 9.5 42t22.5 25t22.5 12.5l9.5 3.5v3l-14.5 6t-28.5 22t-14 47q0 34 20.5 56t53 33t67.5 11t67.5 -11
t53.5 -32.5t21 -54.5q0 -32 -15 -48.5t-30 -22.5l-15 -6v-3l10 -3.5t22.5 -12.5t22.5 -25t10 -42q0 -36 -22.5 -57.5t-56 -31.5t-68.5 -10zM742 216q18 0 27 10.5t9 23.5q0 12 -9 22t-27 10t-26.5 -10.5t-8.5 -23.5q0 -11 8.5 -21.5t26.5 -10.5zM742 73q20 0 29.5 11.5
t9.5 24.5t-9.5 24.5t-29.5 11.5q-19 0 -29 -11t-10 -25q0 -13 10 -24.5t29 -11.5z" />
    <glyph glyph-name="threeeighths" unicode="&#x215c;" horiz-adv-x="844" 
d="M175 348q-44 0 -72 12t-43 29t-21.5 34.5t-7.5 29.5l-1 12h104l2 -7.5t10.5 -15t28.5 -7.5q21 0 29.5 9.5t8.5 19.5q0 9 -7 17.5t-29 8.5h-36v76h36q19 0 27.5 9t8.5 19t-8.5 18.5t-28.5 8.5q-18 0 -26 -7t-10 -14l-2 -7h-101l2.5 17.5t14.5 40t40.5 40t80.5 17.5
q40 0 72.5 -12t52.5 -35t20 -55q0 -23 -10.5 -40t-24 -26t-23.5 -11v-4q10 -2 24.5 -8.5t26 -21t11.5 -41.5q0 -46 -40.5 -76t-108.5 -30zM234 0l419 700h126l-420 -700h-125zM817 -4q-34 0 -68.5 10t-57 31.5t-22.5 57.5q0 26 9.5 42t22.5 25t22.5 12.5l9.5 3.5v3l-14.5 6
t-28.5 22t-14 47q0 34 20.5 56t53 33t67.5 11t67.5 -11t53.5 -32.5t21 -54.5q0 -32 -15 -48.5t-30 -22.5l-15 -6v-3l10 -3.5t22.5 -12.5t22.5 -25t10 -42q0 -36 -22.5 -57.5t-56 -31.5t-68.5 -10zM817 216q18 0 27 10.5t9 23.5q0 12 -9 22t-27 10t-26.5 -10.5t-8.5 -23.5
q0 -11 8.5 -21.5t26.5 -10.5zM817 73q20 0 29.5 11.5t9.5 24.5t-9.5 24.5t-29.5 11.5q-19 0 -29 -11t-10 -25q0 -13 10 -24.5t29 -11.5z" />
    <glyph glyph-name="fiveeighths" unicode="&#x215d;" horiz-adv-x="895" 
d="M171 345q-44 0 -71 12t-41.5 30t-20.5 35.5t-7 29.5t-1 11h103l2.5 -8t10.5 -16t26 -8q20 0 30 12.5t10 26.5q0 15 -9.5 27.5t-28.5 12.5q-21 0 -28 -10.5l-7 -10.5h-107l25 214h238v-87h-160l-7 -60h2q0 -1 6.5 6.5t22.5 15t44 7.5q56 0 85 -34.5t29 -77.5
q0 -31 -15.5 -60.5t-48 -48.5t-82.5 -19zM256 0l419 700h126l-420 -700h-125zM839 -4q-34 0 -68.5 10t-57 31.5t-22.5 57.5q0 26 9.5 42t22.5 25t22.5 12.5l9.5 3.5v3l-14.5 6t-28.5 22t-14 47q0 34 20.5 56t53 33t67.5 11t67.5 -11t53.5 -32.5t21 -54.5q0 -32 -15 -48.5
t-30 -22.5l-15 -6v-3l10 -3.5t22.5 -12.5t22.5 -25t10 -42q0 -36 -22.5 -57.5t-56 -31.5t-68.5 -10zM839 216q18 0 27 10.5t9 23.5q0 12 -9 22t-27 10t-26.5 -10.5t-8.5 -23.5q0 -11 8.5 -21.5t26.5 -10.5zM839 73q20 0 29.5 11.5t9.5 24.5t-9.5 24.5t-29.5 11.5
q-19 0 -29 -11t-10 -25q0 -13 10 -24.5t29 -11.5z" />
    <glyph glyph-name="seveneighths" unicode="&#x215e;" horiz-adv-x="716" 
d="M58 350q4 67 23 118.5t42.5 86.5t39.5 53h-164v92h281v-74l-16 -18t-38 -52.5t-39.5 -86t-20.5 -119.5h-108zM148 0l419 700h126l-420 -700h-125zM731 -4q-34 0 -68.5 10t-57 31.5t-22.5 57.5q0 26 9.5 42t22.5 25t22.5 12.5l9.5 3.5v3l-14.5 6t-28.5 22t-14 47
q0 34 20.5 56t53 33t67.5 11t67.5 -11t53.5 -32.5t21 -54.5q0 -32 -15 -48.5t-30 -22.5l-15 -6v-3l10 -3.5t22.5 -12.5t22.5 -25t10 -42q0 -36 -22.5 -57.5t-56 -31.5t-68.5 -10zM731 216q18 0 27 10.5t9 23.5q0 12 -9 22t-27 10t-26.5 -10.5t-8.5 -23.5q0 -11 8.5 -21.5
t26.5 -10.5zM731 73q20 0 29.5 11.5t9.5 24.5t-9.5 24.5t-29.5 11.5q-19 0 -29 -11t-10 -25q0 -13 10 -24.5t29 -11.5z" />
    <glyph glyph-name="minus" unicode="&#x2212;" horiz-adv-x="678" 
d="M115 231v161h448v-161h-448z" />
    <glyph glyph-name="uni2215" unicode="&#x2215;" horiz-adv-x="564" 
d="M8 0l349 740h177l-349 -740h-177z" />
    <glyph glyph-name="approxequal" unicode="&#x2248;" horiz-adv-x="615" 
d="M386 388q-29 0 -50.5 9t-38 20.5t-30.5 20.5t-28 9q-16 0 -22 -14t-6 -39h-96q0 35 8.5 71.5t33.5 62t72 25.5q39 0 65 -14.5t45.5 -29.5t37.5 -15q27 0 27 53h96q0 -35 -8.5 -72t-33 -62t-72.5 -25zM386 156q-29 0 -50.5 9t-38 20.5t-30.5 20.5t-28 9q-16 0 -22 -14
t-6 -39h-96q0 35 8.5 71.5t33.5 62t72 25.5q39 0 65 -14.5t45.5 -29.5t37.5 -15q27 0 27 53h96q0 -35 -8.5 -72t-33 -62t-72.5 -25z" />
    <glyph glyph-name="notequal" unicode="&#x2260;" horiz-adv-x="770" 
d="M142 0l68 123h-95v153h180l43 78h-223v153h308l68 123h137l-68 -123h95v-153h-180l-43 -78h223v-153h-308l-68 -123h-137z" />
    <glyph glyph-name="lessequal" unicode="&#x2264;" horiz-adv-x="593" 
d="M519 148l-445 159v109l445 159v-137l-258 -75l258 -78v-137zM70 0v98h453v-98h-453z" />
    <glyph glyph-name="greaterequal" unicode="&#x2265;" horiz-adv-x="593" 
d="M74 148v137l258 78l-258 75v137l445 -159v-109zM70 0v98h453v-98h-453z" />
    <glyph glyph-name="i.loclTRK" horiz-adv-x="320" 
d="M160 583q-47 0 -77.5 30.5t-30.5 72.5q0 44 30.5 74t77.5 30t78 -30t31 -74q0 -42 -31 -72.5t-78 -30.5zM65 0v530h190v-530h-190z" />
    <glyph glyph-name="a.ss01" horiz-adv-x="589" 
d="M356 60q-11 -16 -28.5 -32t-46 -27t-71.5 -11q-79 0 -127 40.5t-48 111.5q0 78 59 119t159 51l110 11v21q0 30 -18 45t-47 15q-32 0 -46.5 -13t-18 -26l-3.5 -13h-176l3 19t15 47t38.5 56t73 47t119.5 19q69 0 116 -18t76 -46.5t41.5 -62t12.5 -65.5v-348h-186v60h-7z
M217 160q0 -22 17.5 -34.5t45.5 -12.5q35 0 59 22.5t24 65.5v15l-87 -9q-59 -6 -59 -47z" />
    <glyph glyph-name="aacute.ss01" horiz-adv-x="589" 
d="M371 599l-133 1l77 179h170zM356 60q-11 -16 -28.5 -32t-46 -27t-71.5 -11q-79 0 -127 40.5t-48 111.5q0 78 59 119t159 51l110 11v21q0 30 -18 45t-47 15q-32 0 -46.5 -13t-18 -26l-3.5 -13h-176l3 19t15 47t38.5 56t73 47t119.5 19q69 0 116 -18t76 -46.5t41.5 -62
t12.5 -65.5v-348h-186v60h-7zM217 160q0 -22 17.5 -34.5t45.5 -12.5q35 0 59 22.5t24 65.5v15l-87 -9q-59 -6 -59 -47z" />
    <glyph glyph-name="abreve.ss01" horiz-adv-x="589" 
d="M303 592q-60 0 -97.5 19t-57.5 46.5t-28 55t-9.5 46.5l-1.5 19h119l1.5 -12t8.5 -28.5t22 -28.5t43 -12t43.5 12t22 28.5t8 28.5l1.5 12h119l-1.5 -19t-9.5 -46.5t-28 -55t-57.5 -46.5t-97.5 -19zM356 60q-11 -16 -28.5 -32t-46 -27t-71.5 -11q-79 0 -127 40.5t-48 111.5
q0 78 59 119t159 51l110 11v21q0 30 -18 45t-47 15q-32 0 -46.5 -13t-18 -26l-3.5 -13h-176l3 19t15 47t38.5 56t73 47t119.5 19q69 0 116 -18t76 -46.5t41.5 -62t12.5 -65.5v-348h-186v60h-7zM217 160q0 -22 17.5 -34.5t45.5 -12.5q35 0 59 22.5t24 65.5v15l-87 -9
q-59 -6 -59 -47z" />
    <glyph glyph-name="uni1EAF.ss01" horiz-adv-x="589" 
d="M371 792l-133 1l77 179h170zM303 592q-60 0 -97.5 17t-57.5 41.5t-28 49t-9.5 41.5l-1.5 17h119l1.5 -9.5t8.5 -22.5t22 -22.5t43 -9.5t43.5 9.5t22 22.5t8 22.5l1.5 9.5h119l-1.5 -17t-9.5 -41.5t-28 -49t-57.5 -41.5t-97.5 -17zM356 60q-11 -16 -28.5 -32t-46 -27
t-71.5 -11q-79 0 -127 40.5t-48 111.5q0 78 59 119t159 51l110 11v21q0 30 -18 45t-47 15q-32 0 -46.5 -13t-18 -26l-3.5 -13h-176l3 19t15 47t38.5 56t73 47t119.5 19q69 0 116 -18t76 -46.5t41.5 -62t12.5 -65.5v-348h-186v60h-7zM217 160q0 -22 17.5 -34.5t45.5 -12.5
q35 0 59 22.5t24 65.5v15l-87 -9q-59 -6 -59 -47z" />
    <glyph glyph-name="uni1EB7.ss01" horiz-adv-x="589" 
d="M303 592q-60 0 -97.5 19t-57.5 46.5t-28 55t-9.5 46.5l-1.5 19h119l1.5 -12t8.5 -28.5t22 -28.5t43 -12t43.5 12t22 28.5t8 28.5l1.5 12h119l-1.5 -19t-9.5 -46.5t-28 -55t-57.5 -46.5t-97.5 -19zM356 60q-11 -16 -28.5 -32t-46 -27t-71.5 -11q-79 0 -127 40.5t-48 111.5
q0 78 59 119t159 51l110 11v21q0 30 -18 45t-47 15q-32 0 -46.5 -13t-18 -26l-3.5 -13h-176l3 19t15 47t38.5 56t73 47t119.5 19q69 0 116 -18t76 -46.5t41.5 -62t12.5 -65.5v-348h-186v60h-7zM217 160q0 -22 17.5 -34.5t45.5 -12.5q35 0 59 22.5t24 65.5v15l-87 -9
q-59 -6 -59 -47zM292 -260q-40 0 -64.5 26.5t-24.5 62.5q0 37 24.5 63t64.5 26q38 0 63.5 -26t25.5 -63q0 -36 -25.5 -62.5t-63.5 -26.5z" />
    <glyph glyph-name="uni1EB1.ss01" horiz-adv-x="589" 
d="M238 792l-114 180h170l77 -179zM303 592q-60 0 -97.5 17t-57.5 41.5t-28 49t-9.5 41.5l-1.5 17h119l1.5 -9.5t8.5 -22.5t22 -22.5t43 -9.5t43.5 9.5t22 22.5t8 22.5l1.5 9.5h119l-1.5 -17t-9.5 -41.5t-28 -49t-57.5 -41.5t-97.5 -17zM356 60q-11 -16 -28.5 -32t-46 -27
t-71.5 -11q-79 0 -127 40.5t-48 111.5q0 78 59 119t159 51l110 11v21q0 30 -18 45t-47 15q-32 0 -46.5 -13t-18 -26l-3.5 -13h-176l3 19t15 47t38.5 56t73 47t119.5 19q69 0 116 -18t76 -46.5t41.5 -62t12.5 -65.5v-348h-186v60h-7zM217 160q0 -22 17.5 -34.5t45.5 -12.5
q35 0 59 22.5t24 65.5v15l-87 -9q-59 -6 -59 -47z" />
    <glyph glyph-name="uni1EB3.ss01" horiz-adv-x="589" 
d="M253 778v33q0 15 6.5 27.5t21.5 19.5l16 8q19 10 30 19.5t11 25.5q0 12 -9 20.5t-23 8.5q-17 0 -24.5 -9t-9 -18.5l-1.5 -9.5h-101q-1 28 12 57t43 49t79 20q66 0 104 -34t38 -80q0 -40 -26.5 -64.5t-59.5 -42.5l-5 -3v-27h-102zM303 592q-60 0 -97.5 17t-57.5 41.5
t-28 49t-9.5 41.5l-1.5 17h119l1.5 -9.5t8.5 -22.5t22 -22.5t43 -9.5t43.5 9.5t22 22.5t8 22.5l1.5 9.5h119l-1.5 -17t-9.5 -41.5t-28 -49t-57.5 -41.5t-97.5 -17zM356 60q-11 -16 -28.5 -32t-46 -27t-71.5 -11q-79 0 -127 40.5t-48 111.5q0 78 59 119t159 51l110 11v21
q0 30 -18 45t-47 15q-32 0 -46.5 -13t-18 -26l-3.5 -13h-176l3 19t15 47t38.5 56t73 47t119.5 19q69 0 116 -18t76 -46.5t41.5 -62t12.5 -65.5v-348h-186v60h-7zM217 160q0 -22 17.5 -34.5t45.5 -12.5q35 0 59 22.5t24 65.5v15l-87 -9q-59 -6 -59 -47z" />
    <glyph glyph-name="uni1EB5.ss01" horiz-adv-x="589" 
d="M381 805q-27 0 -47 9t-35.5 20.5t-28.5 20.5t-27 9q-15 0 -20.5 -13.5t-5.5 -39.5h-93q0 35 8 71.5t31.5 62t68.5 25.5q37 0 61.5 -14.5t42.5 -29.5t35 -15q14 0 19.5 14t5.5 39h93q0 -34 -8 -71t-31 -62.5t-69 -25.5zM303 592q-60 0 -97.5 17t-57.5 41.5t-28 49
t-9.5 41.5l-1.5 17h119l1.5 -9.5t8.5 -22.5t22 -22.5t43 -9.5t43.5 9.5t22 22.5t8 22.5l1.5 9.5h119l-1.5 -17t-9.5 -41.5t-28 -49t-57.5 -41.5t-97.5 -17zM356 60q-11 -16 -28.5 -32t-46 -27t-71.5 -11q-79 0 -127 40.5t-48 111.5q0 78 59 119t159 51l110 11v21
q0 30 -18 45t-47 15q-32 0 -46.5 -13t-18 -26l-3.5 -13h-176l3 19t15 47t38.5 56t73 47t119.5 19q69 0 116 -18t76 -46.5t41.5 -62t12.5 -65.5v-348h-186v60h-7zM217 160q0 -22 17.5 -34.5t45.5 -12.5q35 0 59 22.5t24 65.5v15l-87 -9q-59 -6 -59 -47z" />
    <glyph glyph-name="acircumflex.ss01" horiz-adv-x="589" 
d="M95 589l135 189h147l135 -189h-141l-67 102l-68 -102h-141zM356 60q-11 -16 -28.5 -32t-46 -27t-71.5 -11q-79 0 -127 40.5t-48 111.5q0 78 59 119t159 51l110 11v21q0 30 -18 45t-47 15q-32 0 -46.5 -13t-18 -26l-3.5 -13h-176l3 19t15 47t38.5 56t73 47t119.5 19
q69 0 116 -18t76 -46.5t41.5 -62t12.5 -65.5v-348h-186v60h-7zM217 160q0 -22 17.5 -34.5t45.5 -12.5q35 0 59 22.5t24 65.5v15l-87 -9q-59 -6 -59 -47z" />
    <glyph glyph-name="uni1EA5.ss01" horiz-adv-x="589" 
d="M574 719l-133 1l77 179h170zM94 589l135 159h147l135 -159h-141l-67 81l-68 -81h-141zM356 60q-11 -16 -28.5 -32t-46 -27t-71.5 -11q-79 0 -127 40.5t-48 111.5q0 78 59 119t159 51l110 11v21q0 30 -18 45t-47 15q-32 0 -46.5 -13t-18 -26l-3.5 -13h-176l3 19t15 47
t38.5 56t73 47t119.5 19q69 0 116 -18t76 -46.5t41.5 -62t12.5 -65.5v-348h-186v60h-7zM217 160q0 -22 17.5 -34.5t45.5 -12.5q35 0 59 22.5t24 65.5v15l-87 -9q-59 -6 -59 -47z" />
    <glyph glyph-name="uni1EAD.ss01" horiz-adv-x="589" 
d="M95 589l135 189h147l135 -189h-141l-67 102l-68 -102h-141zM356 60q-11 -16 -28.5 -32t-46 -27t-71.5 -11q-79 0 -127 40.5t-48 111.5q0 78 59 119t159 51l110 11v21q0 30 -18 45t-47 15q-32 0 -46.5 -13t-18 -26l-3.5 -13h-176l3 19t15 47t38.5 56t73 47t119.5 19
q69 0 116 -18t76 -46.5t41.5 -62t12.5 -65.5v-348h-186v60h-7zM217 160q0 -22 17.5 -34.5t45.5 -12.5q35 0 59 22.5t24 65.5v15l-87 -9q-59 -6 -59 -47zM292 -260q-40 0 -64.5 26.5t-24.5 62.5q0 37 24.5 63t64.5 26q38 0 63.5 -26t25.5 -63q0 -36 -25.5 -62.5t-63.5 -26.5z
" />
    <glyph glyph-name="uni1EA7.ss01" horiz-adv-x="589" 
d="M462 719l-114 180h170l77 -179zM95 589l135 159h147l135 -159h-141l-67 81l-68 -81h-141zM356 60q-11 -16 -28.5 -32t-46 -27t-71.5 -11q-79 0 -127 40.5t-48 111.5q0 78 59 119t159 51l110 11v21q0 30 -18 45t-47 15q-32 0 -46.5 -13t-18 -26l-3.5 -13h-176l3 19t15 47
t38.5 56t73 47t119.5 19q69 0 116 -18t76 -46.5t41.5 -62t12.5 -65.5v-348h-186v60h-7zM217 160q0 -22 17.5 -34.5t45.5 -12.5q35 0 59 22.5t24 65.5v15l-87 -9q-59 -6 -59 -47z" />
    <glyph glyph-name="uni1EA9.ss01" horiz-adv-x="589" 
d="M471 697v33q0 15 6.5 27.5t21.5 19.5l16 8q19 10 30 19.5t11 25.5q0 12 -9 20.5t-23 8.5q-17 0 -24.5 -9t-9 -18.5l-1.5 -9.5h-101q-1 28 12 57t43 49t79 20q66 0 104 -34t38 -80q0 -40 -26.5 -64.5t-59.5 -42.5l-5 -3v-27h-102zM89 589l135 159h147l135 -159h-141
l-67 81l-68 -81h-141zM356 60q-11 -16 -28.5 -32t-46 -27t-71.5 -11q-79 0 -127 40.5t-48 111.5q0 78 59 119t159 51l110 11v21q0 30 -18 45t-47 15q-32 0 -46.5 -13t-18 -26l-3.5 -13h-176l3 19t15 47t38.5 56t73 47t119.5 19q69 0 116 -18t76 -46.5t41.5 -62t12.5 -65.5
v-348h-186v60h-7zM217 160q0 -22 17.5 -34.5t45.5 -12.5q35 0 59 22.5t24 65.5v15l-87 -9q-59 -6 -59 -47z" />
    <glyph glyph-name="uni1EAB.ss01" horiz-adv-x="589" 
d="M377 782q-27 0 -47 9t-35.5 20.5t-28.5 20.5t-27 9q-15 0 -20.5 -13.5t-5.5 -39.5h-93q0 35 8 71.5t31.5 62t68.5 25.5q37 0 61.5 -14.5t42.5 -29.5t35 -15q14 0 19.5 14t5.5 39h93q0 -34 -8 -71t-31 -62.5t-69 -25.5zM94 589l135 159h147l135 -159h-141l-67 81l-68 -81
h-141zM356 60q-11 -16 -28.5 -32t-46 -27t-71.5 -11q-79 0 -127 40.5t-48 111.5q0 78 59 119t159 51l110 11v21q0 30 -18 45t-47 15q-32 0 -46.5 -13t-18 -26l-3.5 -13h-176l3 19t15 47t38.5 56t73 47t119.5 19q69 0 116 -18t76 -46.5t41.5 -62t12.5 -65.5v-348h-186v60h-7z
M217 160q0 -22 17.5 -34.5t45.5 -12.5q35 0 59 22.5t24 65.5v15l-87 -9q-59 -6 -59 -47z" />
    <glyph glyph-name="adieresis.ss01" horiz-adv-x="589" 
d="M428 578q-45 0 -73.5 28.5t-28.5 68.5q0 41 28.5 69.5t73.5 28.5q44 0 73 -28.5t29 -69.5q0 -40 -29 -68.5t-73 -28.5zM177 578q-45 0 -73.5 28.5t-28.5 68.5q0 41 28.5 69.5t73.5 28.5q44 0 73 -28.5t29 -69.5q0 -40 -29 -68.5t-73 -28.5zM356 60q-11 -16 -28.5 -32
t-46 -27t-71.5 -11q-79 0 -127 40.5t-48 111.5q0 78 59 119t159 51l110 11v21q0 30 -18 45t-47 15q-32 0 -46.5 -13t-18 -26l-3.5 -13h-176l3 19t15 47t38.5 56t73 47t119.5 19q69 0 116 -18t76 -46.5t41.5 -62t12.5 -65.5v-348h-186v60h-7zM217 160q0 -22 17.5 -34.5
t45.5 -12.5q35 0 59 22.5t24 65.5v15l-87 -9q-59 -6 -59 -47z" />
    <glyph glyph-name="uni1EA1.ss01" horiz-adv-x="589" 
d="M356 60q-11 -16 -28.5 -32t-46 -27t-71.5 -11q-79 0 -127 40.5t-48 111.5q0 78 59 119t159 51l110 11v21q0 30 -18 45t-47 15q-32 0 -46.5 -13t-18 -26l-3.5 -13h-176l3 19t15 47t38.5 56t73 47t119.5 19q69 0 116 -18t76 -46.5t41.5 -62t12.5 -65.5v-348h-186v60h-7z
M217 160q0 -22 17.5 -34.5t45.5 -12.5q35 0 59 22.5t24 65.5v15l-87 -9q-59 -6 -59 -47zM292 -260q-40 0 -64.5 26.5t-24.5 62.5q0 37 24.5 63t64.5 26q38 0 63.5 -26t25.5 -63q0 -36 -25.5 -62.5t-63.5 -26.5z" />
    <glyph glyph-name="agrave.ss01" horiz-adv-x="589" 
d="M238 599l-114 180h170l77 -179zM356 60q-11 -16 -28.5 -32t-46 -27t-71.5 -11q-79 0 -127 40.5t-48 111.5q0 78 59 119t159 51l110 11v21q0 30 -18 45t-47 15q-32 0 -46.5 -13t-18 -26l-3.5 -13h-176l3 19t15 47t38.5 56t73 47t119.5 19q69 0 116 -18t76 -46.5t41.5 -62
t12.5 -65.5v-348h-186v60h-7zM217 160q0 -22 17.5 -34.5t45.5 -12.5q35 0 59 22.5t24 65.5v15l-87 -9q-59 -6 -59 -47z" />
    <glyph glyph-name="uni1EA3.ss01" horiz-adv-x="589" 
d="M253 585v33q0 15 6.5 27.5t21.5 19.5l16 8q19 10 30 19.5t11 25.5q0 12 -9 20.5t-23 8.5q-17 0 -24.5 -9t-9 -18.5l-1.5 -9.5h-101q-1 28 12 57t43 49t79 20q66 0 104 -34t38 -80q0 -40 -26.5 -64.5t-59.5 -42.5l-5 -3v-27h-102zM356 60q-11 -16 -28.5 -32t-46 -27
t-71.5 -11q-79 0 -127 40.5t-48 111.5q0 78 59 119t159 51l110 11v21q0 30 -18 45t-47 15q-32 0 -46.5 -13t-18 -26l-3.5 -13h-176l3 19t15 47t38.5 56t73 47t119.5 19q69 0 116 -18t76 -46.5t41.5 -62t12.5 -65.5v-348h-186v60h-7zM217 160q0 -22 17.5 -34.5t45.5 -12.5
q35 0 59 22.5t24 65.5v15l-87 -9q-59 -6 -59 -47z" />
    <glyph glyph-name="amacron.ss01" horiz-adv-x="589" 
d="M133 608v102h340v-102h-340zM356 60q-11 -16 -28.5 -32t-46 -27t-71.5 -11q-79 0 -127 40.5t-48 111.5q0 78 59 119t159 51l110 11v21q0 30 -18 45t-47 15q-32 0 -46.5 -13t-18 -26l-3.5 -13h-176l3 19t15 47t38.5 56t73 47t119.5 19q69 0 116 -18t76 -46.5t41.5 -62
t12.5 -65.5v-348h-186v60h-7zM217 160q0 -22 17.5 -34.5t45.5 -12.5q35 0 59 22.5t24 65.5v15l-87 -9q-59 -6 -59 -47z" />
    <glyph glyph-name="aogonek.ss01" horiz-adv-x="589" 
d="M523 -194q-82 0 -118 32t-36 75q0 31 15 52.5t34 34.5h-55v60h-7q-11 -16 -28.5 -32t-46 -27t-71.5 -11q-79 0 -127 40.5t-48 111.5q0 78 59 119t159 51l110 11v21q0 30 -18 45t-47 15q-32 0 -46.5 -13t-18 -26l-3.5 -13h-176l3 19t15 47t38.5 56t73 47t119.5 19
q69 0 116 -18t76 -46.5t41.5 -62t12.5 -65.5v-348l-12 -6.5t-24.5 -18.5t-12.5 -30q0 -13 12 -24t40 -11q12 0 22 1.5l10 1.5v-102l-17.5 -2.5t-43.5 -2.5zM217 160q0 -22 17.5 -34.5t45.5 -12.5q35 0 59 22.5t24 65.5v15l-87 -9q-59 -6 -59 -47z" />
    <glyph glyph-name="aring.ss01" horiz-adv-x="589" 
d="M303 578q-39 0 -71 19t-51 51t-19 71t19 70.5t51 50.5t71 19t71 -19t51 -50.5t19 -70.5t-19 -71t-51 -51t-71 -19zM303 668q21 0 36 14.5t15 36.5q0 21 -15 35.5t-36 14.5t-36 -14.5t-15 -35.5q0 -22 15 -36.5t36 -14.5zM356 60q-11 -16 -28.5 -32t-46 -27t-71.5 -11
q-79 0 -127 40.5t-48 111.5q0 78 59 119t159 51l110 11v21q0 30 -18 45t-47 15q-32 0 -46.5 -13t-18 -26l-3.5 -13h-176l3 19t15 47t38.5 56t73 47t119.5 19q69 0 116 -18t76 -46.5t41.5 -62t12.5 -65.5v-348h-186v60h-7zM217 160q0 -22 17.5 -34.5t45.5 -12.5q35 0 59 22.5
t24 65.5v15l-87 -9q-59 -6 -59 -47z" />
    <glyph glyph-name="atilde.ss01" horiz-adv-x="589" 
d="M381 612q-27 0 -47 9t-35.5 20.5t-28.5 20.5t-27 9q-15 0 -20.5 -13.5t-5.5 -39.5h-93q0 35 8 71.5t31.5 62t68.5 25.5q37 0 61.5 -14.5t42.5 -29.5t35 -15q14 0 19.5 14t5.5 39h93q0 -34 -8 -71t-31 -62.5t-69 -25.5zM356 60q-11 -16 -28.5 -32t-46 -27t-71.5 -11
q-79 0 -127 40.5t-48 111.5q0 78 59 119t159 51l110 11v21q0 30 -18 45t-47 15q-32 0 -46.5 -13t-18 -26l-3.5 -13h-176l3 19t15 47t38.5 56t73 47t119.5 19q69 0 116 -18t76 -46.5t41.5 -62t12.5 -65.5v-348h-186v60h-7zM217 160q0 -22 17.5 -34.5t45.5 -12.5q35 0 59 22.5
t24 65.5v15l-87 -9q-59 -6 -59 -47z" />
    <glyph glyph-name="zero.dnom" horiz-adv-x="399" 
d="M199 -2q-53 0 -91 24t-58 64.5t-20 89.5q0 51 20 92t58 65.5t91 24.5q54 0 92 -24.5t58 -65.5t20 -92q0 -49 -20.5 -89.5t-58.5 -64.5t-91 -24zM199 98q22 0 35.5 19t13.5 59q0 41 -13.5 61t-35.5 20q-20 0 -33.5 -19t-13.5 -62q0 -41 13.5 -59.5t33.5 -18.5z" />
    <glyph glyph-name="one.dnom" horiz-adv-x="129" 
d="M195 349v-348h-114v216h-71v70l9 2q35 9 59.5 22.5t46.5 34.5l3 3h67z" />
    <glyph glyph-name="two.dnom" horiz-adv-x="176" 
d="M-148 3v77l33 22q74 50 108.5 76t34.5 53q0 17 -10 24t-22 7q-14 0 -25 -9.5t-11 -31.5h-110q0 47 21 77.5t55 45t73 14.5q63 0 104.5 -33.5t41.5 -86.5q0 -41 -29 -75.5t-95 -68.5h125v-91h-294z" />
    <glyph glyph-name="three.dnom" horiz-adv-x="204" 
d="M175 -2q-44 0 -72 12t-43 29.5t-21.5 34.5t-7.5 29l-1 12h104l2 -7.5t10.5 -15t28.5 -7.5q21 0 29.5 9.5t8.5 19.5q0 9 -7 17.5t-29 8.5h-36v76h36q19 0 27.5 9t8.5 19t-8.5 18.5t-28.5 8.5q-18 0 -26 -7t-10 -14l-2 -7h-101l2.5 17.5t14.5 40t40.5 40t80.5 17.5
q40 0 72.5 -12t52.5 -35t20 -55q0 -23 -10.5 -40t-24 -26t-23.5 -11v-4q10 -2 24.5 -8.5t26 -21t11.5 -41.5q0 -46 -40.5 -76t-108.5 -30z" />
    <glyph glyph-name="four.dnom" horiz-adv-x="192" 
d="M4 3v64h-164v76l130 210h151v-202h46v-84h-46v-64h-117zM-56 151h60v98z" />
    <glyph glyph-name="five.dnom" horiz-adv-x="226" 
d="M171 -5q-44 0 -71 12t-41.5 30t-20.5 35.5t-7 29.5t-1 11h103l2.5 -8t10.5 -16t26 -8q20 0 30 12.5t10 26.5q0 15 -9.5 27.5t-28.5 12.5q-21 0 -28 -10.5l-7 -10.5h-107l25 214h238v-87h-160l-7 -60h2q0 -1 6.5 6.5t22.5 15t44 7.5q56 0 85 -34.5t29 -77.5
q0 -31 -15.5 -60.5t-48 -48.5t-82.5 -19z" />
    <glyph glyph-name="six.dnom" horiz-adv-x="359" 
d="M190 -5q-53 0 -88 23t-51.5 59t-16.5 76q0 49 23 94.5t70 75t118 29.5q19 0 33 -1.5l14 -1.5v-90l-15.5 1.5t-32.5 1.5q-33 0 -63.5 -15.5t-37.5 -53.5q8 13 26.5 26.5t54.5 13.5q56 0 84 -33.5t28 -75.5q0 -31 -16 -61t-48 -49t-82 -19zM192 81q20 0 30 12t10 26
q0 15 -10 27t-30 12t-30 -12t-10 -27q0 -14 10 -26t30 -12z" />
    <glyph glyph-name="seven.dnom" horiz-adv-x="118" 
d="M58 0q4 67 23 118.5t42.5 86.5t39.5 53h-164v92h281v-74l-16 -18t-38 -52.5t-39.5 -86t-20.5 -119.5h-108z" />
    <glyph glyph-name="eight.dnom" horiz-adv-x="195" 
d="M18 -4q-34 0 -68.5 10t-57 31.5t-22.5 57.5q0 26 9.5 42t22.5 25t22.5 12.5l9.5 3.5v3l-14 6t-28.5 22t-14.5 47q0 34 20.5 56t53 33t67.5 11t67.5 -11t53.5 -32.5t21 -54.5q0 -32 -15 -48.5t-30 -22.5l-15 -6v-3l10 -3.5t22.5 -12.5t22.5 -25t10 -42q0 -36 -22.5 -57.5
t-56 -31.5t-68.5 -10zM18 216q18 0 27 10.5t9 23.5q0 12 -9 22t-27 10t-26.5 -10.5t-8.5 -23.5q0 -11 8.5 -21.5t26.5 -10.5zM18 73q20 0 29.5 11.5t9.5 24.5t-9.5 24.5t-29.5 11.5q-19 0 -29 -11t-10 -25q0 -13 10 -24.5t29 -11.5z" />
    <glyph glyph-name="nine.dnom" horiz-adv-x="359" 
d="M169 352q54 0 88.5 -23t51 -59t16.5 -76q0 -48 -23 -94t-69.5 -75.5t-118.5 -29.5q-19 0 -33 1.5l-14 1.5v90l15.5 -1.5t32.5 -1.5q33 0 63.5 15.5t37.5 53.5q-8 -13 -26.5 -26.5t-54.5 -13.5q-55 0 -83.5 33.5t-28.5 75.5q0 32 16 61.5t48.5 48.5t81.5 19zM167 266
q-20 0 -30 -12t-10 -26q0 -15 10 -27t30 -12t30 12t10 27q0 14 -10 26t-30 12z" />
    <glyph glyph-name="zero.numr" horiz-adv-x="399" 
d="M199 348q-53 0 -91 24t-58 64.5t-20 89.5q0 51 20 92t58 65.5t91 24.5q54 0 92 -24.5t58 -65.5t20 -92q0 -49 -20.5 -89.5t-58.5 -64.5t-91 -24zM199 448q22 0 35.5 19t13.5 59q0 41 -13.5 61t-35.5 20q-20 0 -33.5 -19t-13.5 -62q0 -41 13.5 -59.5t33.5 -18.5z" />
    <glyph glyph-name="one.numr" horiz-adv-x="129" 
d="M195 699v-348h-114v216h-71v70l9 2q35 9 59.5 22.5t46.5 34.5l3 3h67z" />
    <glyph glyph-name="two.numr" horiz-adv-x="176" 
d="M-148 353v77l33 22q74 50 108.5 76t34.5 53q0 17 -10 24t-22 7q-14 0 -25 -9.5t-11 -31.5h-110q0 47 21 77.5t55 45t73 14.5q63 0 104.5 -33.5t41.5 -86.5q0 -41 -29 -75.5t-95 -68.5h125v-91h-294z" />
    <glyph glyph-name="three.numr" horiz-adv-x="204" 
d="M175 348q-44 0 -72 12t-43 29t-21.5 34.5t-7.5 29.5l-1 12h104l2 -7.5t10.5 -15t28.5 -7.5q21 0 29.5 9.5t8.5 19.5q0 9 -7 17.5t-29 8.5h-36v76h36q19 0 27.5 9t8.5 19t-8.5 18.5t-28.5 8.5q-18 0 -26 -7t-10 -14l-2 -7h-101l2.5 17.5t14.5 40t40.5 40t80.5 17.5
q40 0 72.5 -12t52.5 -35t20 -55q0 -23 -10.5 -40t-24 -26t-23.5 -11v-4q10 -2 24.5 -8.5t26 -21t11.5 -41.5q0 -46 -40.5 -76t-108.5 -30z" />
    <glyph glyph-name="four.numr" horiz-adv-x="192" 
d="M4 353v64h-164v76l130 210h151v-202h46v-84h-46v-64h-117zM-56 501h60v98z" />
    <glyph glyph-name="five.numr" horiz-adv-x="226" 
d="M171 345q-44 0 -71 12t-41.5 30t-20.5 35.5t-7 29.5t-1 11h103l2.5 -8t10.5 -16t26 -8q20 0 30 12.5t10 26.5q0 15 -9.5 27.5t-28.5 12.5q-21 0 -28 -10.5l-7 -10.5h-107l25 214h238v-87h-160l-7 -60h2q0 -1 6.5 6.5t22.5 15t44 7.5q56 0 85 -34.5t29 -77.5
q0 -31 -15.5 -60.5t-48 -48.5t-82.5 -19z" />
    <glyph glyph-name="six.numr" horiz-adv-x="359" 
d="M190 345q-53 0 -88 23t-51.5 59t-16.5 76q0 49 23 94.5t70 75t118 29.5q19 0 33 -1.5l14 -1.5v-90l-15.5 1.5t-32.5 1.5q-33 0 -63.5 -15.5t-37.5 -53.5q8 13 26.5 26.5t54.5 13.5q56 0 84 -33.5t28 -75.5q0 -31 -16 -61t-48 -49t-82 -19zM192 431q20 0 30 12t10 26
q0 15 -10 27t-30 12t-30 -12t-10 -27q0 -14 10 -26t30 -12z" />
    <glyph glyph-name="seven.numr" horiz-adv-x="118" 
d="M58 350q4 67 23 118.5t42.5 86.5t39.5 53h-164v92h281v-74l-16 -18t-38 -52.5t-39.5 -86t-20.5 -119.5h-108z" />
    <glyph glyph-name="eight.numr" horiz-adv-x="195" 
d="M18 346q-34 0 -68.5 9.5t-57 31.5t-22.5 58q0 26 9.5 42t22.5 25t22.5 12.5l9.5 3.5v3l-14 6t-28.5 22t-14.5 47q0 34 20.5 56t53 33t67.5 11t67.5 -11t53.5 -32.5t21 -54.5q0 -32 -15 -48.5t-30 -22.5l-15 -6v-3l10 -3.5t22.5 -12.5t22.5 -25t10 -42q0 -36 -22.5 -58
t-56 -31.5t-68.5 -9.5zM18 566q18 0 27 10.5t9 23.5q0 12 -9 22t-27 10t-26.5 -10.5t-8.5 -23.5q0 -11 8.5 -21.5t26.5 -10.5zM18 423q20 0 29.5 11.5t9.5 24.5t-9.5 24.5t-29.5 11.5q-19 0 -29 -11t-10 -25q0 -13 10 -24.5t29 -11.5z" />
    <glyph glyph-name="nine.numr" horiz-adv-x="359" 
d="M169 702q54 0 88.5 -23t51 -59t16.5 -76q0 -48 -23 -94t-69.5 -75.5t-118.5 -29.5q-19 0 -33 1.5l-14 1.5v90l15.5 -1.5t32.5 -1.5q33 0 63.5 15.5t37.5 53.5q-8 -13 -26.5 -26.5t-54.5 -13.5q-55 0 -83.5 33.5t-28.5 75.5q0 32 16 61.5t48.5 48.5t81.5 19zM167 616
q-20 0 -30 -12t-10 -26q0 -15 10 -27t30 -12t30 12t10 27q0 14 -10 26t-30 12z" />
    <glyph glyph-name="colon.case" horiz-adv-x="368" 
d="M184 436q-43 0 -71 29.5t-28 69.5q0 41 28 70t71 29t71 -29t28 -70q0 -40 -28 -69.5t-71 -29.5zM184 84q-43 0 -71 29.5t-28 69.5q0 41 28 70t71 29t71 -29t28 -70q0 -40 -28 -69.5t-71 -29.5z" />
    <glyph glyph-name="parenleft.case" horiz-adv-x="487" 
d="M456 -184q-96 9 -170.5 55.5t-126.5 120.5t-78.5 166t-26.5 192t26.5 192t78.5 166t126.5 120.5t170.5 55.5v-171q-51 -7 -89.5 -40t-64 -84t-38.5 -112.5t-13 -126.5q0 -64 13 -126t38.5 -113t64 -84t89.5 -40v-171z" />
    <glyph glyph-name="parenright.case" horiz-adv-x="487" 
d="M31 884q96 -9 170.5 -55.5t126.5 -120.5t78.5 -166t26.5 -192t-26.5 -192t-78.5 -166t-126.5 -120.5t-170.5 -55.5v171q51 7 89.5 40t64 84t38.5 113t13 126q0 65 -13 126.5t-38.5 112.5t-64 84t-89.5 40v171z" />
    <glyph glyph-name="braceleft.case" horiz-adv-x="516" 
d="M366 -191q-112 0 -171 59t-59 171v172q0 60 -60 60h-46v160h46q60 0 60 60v172q0 112 59 171t171 59h110v-161h-85q-60 0 -60 -60v-181q0 -59 -18 -89.5t-72 -46.5v-8q54 -16 72 -47.5t18 -88.5v-181q0 -60 60 -60h85v-161h-110z" />
    <glyph glyph-name="braceright.case" horiz-adv-x="516" 
d="M150 893q112 0 171 -59t59 -171v-172q0 -60 60 -60h46v-160h-46q-60 0 -60 -60v-172q0 -112 -59 -171t-171 -59h-110v161h85q60 0 60 60v181q0 59 18 89.5t72 46.5v8q-54 17 -72 48t-18 88v181q0 60 -60 60h-85v161h110z" />
    <glyph glyph-name="bracketleft.case" horiz-adv-x="574" 
d="M100 -191v1084h374v-161h-179v-762h179v-161h-374z" />
    <glyph glyph-name="bracketright.case" horiz-adv-x="574" 
d="M474 893v-1084h-374v161h179v762h-179v161h374z" />
    <glyph glyph-name="uni03060301" 
d="M243 792l-133 1l77 179h170zM175 592q-60 0 -97.5 17t-57.5 41.5t-28 49t-9.5 41.5l-1.5 17h119l1.5 -9.5t8.5 -22.5t22 -22.5t43 -9.5t43.5 9.5t22 22.5t8 22.5l1.5 9.5h119l-1.5 -17t-9.5 -41.5t-28 -49t-57.5 -41.5t-97.5 -17z" />
    <glyph glyph-name="uni03060300" 
d="M110 792l-114 180h170l77 -179zM175 592q-60 0 -97.5 17t-57.5 41.5t-28 49t-9.5 41.5l-1.5 17h119l1.5 -9.5t8.5 -22.5t22 -22.5t43 -9.5t43.5 9.5t22 22.5t8 22.5l1.5 9.5h119l-1.5 -17t-9.5 -41.5t-28 -49t-57.5 -41.5t-97.5 -17z" />
    <glyph glyph-name="uni03060309" 
d="M125 778v33q0 15 6.5 27.5t21.5 19.5l16 8q19 10 30 19.5t11 25.5q0 12 -9 20.5t-23 8.5q-17 0 -24.5 -9t-9 -18.5l-1.5 -9.5h-101q-1 28 12 57t43 49t79 20q66 0 104 -34t38 -80q0 -40 -26.5 -64.5t-59.5 -42.5l-5 -3v-27h-102zM175 592q-60 0 -97.5 17t-57.5 41.5
t-28 49t-9.5 41.5l-1.5 17h119l1.5 -9.5t8.5 -22.5t22 -22.5t43 -9.5t43.5 9.5t22 22.5t8 22.5l1.5 9.5h119l-1.5 -17t-9.5 -41.5t-28 -49t-57.5 -41.5t-97.5 -17z" />
    <glyph glyph-name="uni03060303" 
d="M253 805q-27 0 -47 9t-35.5 20.5t-28.5 20.5t-27 9q-15 0 -20.5 -13.5t-5.5 -39.5h-93q0 35 8 71.5t31.5 62t68.5 25.5q37 0 61.5 -14.5t42.5 -29.5t35 -15q14 0 19.5 14t5.5 39h93q0 -34 -8 -71t-31 -62.5t-69 -25.5zM175 592q-60 0 -97.5 17t-57.5 41.5t-28 49
t-9.5 41.5l-1.5 17h119l1.5 -9.5t8.5 -22.5t22 -22.5t43 -9.5t43.5 9.5t22 22.5t8 22.5l1.5 9.5h119l-1.5 -17t-9.5 -41.5t-28 -49t-57.5 -41.5t-97.5 -17z" />
    <glyph glyph-name="uni03020301" 
d="M514 719l-133 1l77 179h170zM34 589l135 159h147l135 -159h-141l-67 81l-68 -81h-141z" />
    <glyph glyph-name="uni03020300" 
d="M401 719l-114 180h170l77 -179zM34 589l135 159h147l135 -159h-141l-67 81l-68 -81h-141z" />
    <glyph glyph-name="uni03020309" 
d="M416 697v33q0 15 6.5 27.5t21.5 19.5l16 8q19 10 30 19.5t11 25.5q0 12 -9 20.5t-23 8.5q-17 0 -24.5 -9t-9 -18.5l-1.5 -9.5h-101q-1 28 12 57t43 49t79 20q66 0 104 -34t38 -80q0 -40 -26.5 -64.5t-59.5 -42.5l-5 -3v-27h-102zM34 589l135 159h147l135 -159h-141
l-67 81l-68 -81h-141z" />
    <glyph glyph-name="uni03020303" 
d="M317 782q-27 0 -47 9t-35.5 20.5t-28.5 20.5t-27 9q-15 0 -20.5 -13.5t-5.5 -39.5h-93q0 35 8 71.5t31 62t69 25.5q37 0 61.5 -14.5t42.5 -29.5t35 -15q14 0 19.5 14t5.5 39h93q0 -34 -8 -71t-31 -62.5t-69 -25.5zM34 589l135 159h147l135 -159h-141l-67 81l-68 -81h-141
z" />
    </font>
</defs>
</svg>
