<?xml version="1.0" standalone="no"?>
<!DOCTYPE svg PUBLIC "-//W3C//DTD SVG 1.1//EN" "http://www.w3.org/Graphics/SVG/1.1/DTD/svg11.dtd" >
<svg xmlns="http://www.w3.org/2000/svg" xmlns:xlink="http://www.w3.org/1999/xlink" version="1.1">
<metadata>
Created by FontForge 20170731 at Sun Aug 15 09:04:23 2021
 By Aleksey,,,
Copyright 2021 The Be Vietnam Pro Project Authors (https://github.com/bettergui/BeVietnamPro)
</metadata>
<defs>
<font id="BeVietnamPro-ExtraLightItalic" horiz-adv-x="0" >
  <font-face 
    font-family="Be Vietnam Pro ExtraLight"
    font-weight="200"
    font-style="italic"
    font-stretch="normal"
    units-per-em="1000"
    panose-1="0 0 0 0 0 0 0 0 0 0"
    ascent="800"
    descent="-200"
    x-height="530"
    cap-height="740"
    bbox="-131 -257 1034 1151"
    underline-thickness="50"
    underline-position="-175"
    slope="-12"
    unicode-range="U+000D-2265"
  />
<missing-glyph horiz-adv-x="500" 
 />
    <glyph glyph-name="f_f.liga" unicode="ff" horiz-adv-x="665" 
d="M66 0l103 484h-97l9 46h98l19 88q14 68 55.5 110t116.5 42q20 0 36.5 -3l16.5 -3l-9 -45l-15.5 2.5t-31.5 2.5q-51 0 -77.5 -30t-37.5 -78l-18 -86h264l19 88q14 68 55.5 110t116.5 42q21 0 37.5 -3l16.5 -3l-10 -45l-15.5 2.5t-31.5 2.5q-51 0 -77.5 -30t-36.5 -78
l-19 -86h125l-9 -46h-125l-103 -484h-55l103 484h-265l-102 -484h-56z" />
    <glyph glyph-name="f_f_i.liga" unicode="ffi" horiz-adv-x="895" 
d="M66 0l103 484h-97l9 46h98l19 88q14 68 55.5 110t116.5 42q20 0 36.5 -3l16.5 -3l-9 -45l-15.5 2.5t-31.5 2.5q-51 0 -77.5 -30t-37.5 -78l-18 -86h264l19 88q14 68 55.5 110t116.5 42q21 0 37.5 -3l16.5 -3l-10 -45l-15.5 2.5t-31.5 2.5q-51 0 -77.5 -30t-36.5 -78
l-19 -86h307l-113 -530h-55l103 484h-251l-103 -484h-55l103 484h-265l-102 -484h-56zM863 629q-19 0 -31.5 13t-12.5 31t12.5 31.5t31.5 13.5q18 0 31 -13.5t13 -31.5t-13 -31t-31 -13z" />
    <glyph glyph-name="f_i.liga" unicode="fi" horiz-adv-x="575" 
d="M66 0l103 484h-97l9 46h98l19 88q14 68 55.5 110t116.5 42q20 0 36.5 -3l16.5 -3l-9 -45l-15.5 2.5t-31.5 2.5q-51 0 -77.5 -30t-37.5 -78l-18 -86h306l-113 -530h-54l103 484h-252l-102 -484h-56zM543 629q-19 0 -31.5 13t-12.5 31t12.5 31.5t31.5 13.5t32 -13.5
t13 -31.5t-13 -31t-32 -13z" />
    <glyph glyph-name="colon_b_e_colon.liga" unicode="&#x3a;be&#x3a;" horiz-adv-x="795" 
d="M200 458l61 177h146q55 0 84 16.5t41 43t14 55.5q43 -13 63 -43t20 -74q0 -78 -57.5 -126.5t-154.5 -48.5h-217zM44 0l93 267h229q78 0 120 25t58 65t13 83q61 -13 97 -60t36 -114q0 -54 -23.5 -102.5t-65.5 -85t-97.5 -57.5t-119.5 -21h-340z" />
    <glyph glyph-name="colon_d_d_colon.liga" unicode="&#x3a;dd&#x3a;" horiz-adv-x="599" 
d="M219 126q-50 0 -83.5 24.5t-50 63.5t-16.5 84q0 42 14 84t40.5 77t64.5 56.5t87 21.5q37 0 61.5 -12t39.5 -28.5t22 -31t9 -19.5h3l32 145h-103l9 41h102l15 68h51l-14 -68h71l-8 -41h-72l-97 -457h-52l14 65h-4l-8 -11t-24.5 -25.5t-42 -25.5t-60.5 -11zM120 299
q0 -34 11.5 -63t35.5 -47t61 -18q50 0 86 30t55 75t19 90q0 50 -26 87.5t-83 37.5q-50 0 -85.5 -29.5t-54.5 -74t-19 -88.5zM1 0l9 42h479l-9 -42h-479z" />
    <glyph glyph-name="colon_s_t_a_r_colon.liga" unicode="&#x3a;star&#x3a;" horiz-adv-x="831" 
d="M171 51l133 250l-176 134l241 5l133 232l35 -232l239 -5l-233 -134l26 -250l-162 154z" />
    <glyph glyph-name=".notdef" horiz-adv-x="500" 
 />
    <glyph glyph-name=".null" 
 />
    <glyph glyph-name="nonmarkingreturn" horiz-adv-x="333" 
 />
    <glyph glyph-name="CR" unicode="&#xd;" horiz-adv-x="600" 
 />
    <glyph glyph-name="space" unicode=" " horiz-adv-x="230" 
 />
    <glyph glyph-name="exclam" unicode="!" horiz-adv-x="244" 
d="M82 156l120 584h54l-126 -584h-48zM82 -10q-19 0 -31.5 13t-12.5 32q0 18 12.5 31t31.5 13q18 0 31 -13t13 -31q0 -19 -13 -32t-31 -13z" />
    <glyph glyph-name="quotedbl" unicode="&#x22;" horiz-adv-x="275" 
d="M236 572l39 168h56l-55 -168h-40zM124 572l39 168h55l-55 -168h-39z" />
    <glyph glyph-name="numbersign" unicode="#" horiz-adv-x="734" 
d="M79 0l90 218h-147l22 52h147l82 199h-144l22 52h144l90 219h56l-90 -219h196l90 219h56l-91 -219h149l-22 -52h-148l-83 -199h146l-22 -52h-145l-90 -218h-56l90 218h-196l-90 -218h-56zM247 270h196l82 199h-196z" />
    <glyph glyph-name="dollar" unicode="$" horiz-adv-x="635" 
d="M228 -99l20 93q-64 9 -103 34t-60.5 57t-30 62t-10 50l-1.5 20h56l1 -15t8 -38.5t23.5 -48t47.5 -44t80 -26.5l67 317l-29 14q-37 17 -69 40.5t-51.5 57.5t-19.5 83q0 54 30 98t83 70t122 26q9 0 16 -1l19 89h48l-20 -94q51 -10 83.5 -33.5t50 -52.5t24.5 -56t8 -44.5
l1 -17.5h-54l-2.5 19.5t-13.5 47t-36.5 52t-71.5 35.5l-63 -297l16 -8q40 -18 75 -42t57.5 -60t22.5 -91q0 -60 -34 -106.5t-90 -73t-124 -26.5h-9l-19 -90h-48zM322 425l16 -7l60 282h-6q-78 0 -128 -38.5t-50 -102.5q0 -51 31 -81.5t77 -52.5zM377 338l-8 4l-63 -300
q49 1 92 19.5t70 53t27 82.5q0 55 -34.5 86.5t-83.5 54.5z" />
    <glyph glyph-name="percent" unicode="%" horiz-adv-x="776" 
d="M248 474q-60 0 -88.5 37t-28.5 85q0 37 17 72.5t50 58.5t82 23q40 0 66.5 -17t39 -44.5t12.5 -59.5q0 -37 -17 -72.5t-50.5 -59t-82.5 -23.5zM108 0l554 740h54l-554 -740h-54zM250 512q34 0 58 18t36 45t12 54q0 33 -18.5 58.5t-59.5 25.5q-34 0 -57.5 -17.5t-36 -44.5
t-12.5 -55q0 -32 19 -58t59 -26zM544 -10q-61 0 -89.5 37t-28.5 85q0 37 17 72.5t50 58.5t82 23q40 0 66.5 -17t39 -44.5t12.5 -59.5q0 -37 -17 -72.5t-50.5 -59t-81.5 -23.5zM545 28q34 0 58 17.5t36.5 44.5t12.5 55q0 32 -19 58t-59 26q-35 0 -58.5 -18t-36 -44.5
t-12.5 -54.5q0 -33 19 -58.5t59 -25.5z" />
    <glyph glyph-name="ampersand" unicode="&#x26;" horiz-adv-x="652" 
d="M239 -10q-68 0 -118 26t-78 70.5t-28 100.5q0 64 32 109t81 75.5t101 50.5q-26 43 -40.5 81t-14.5 78q0 57 24 94.5t62 56.5t79 19q40 0 76.5 -17t59 -49.5t22.5 -80.5q0 -42 -18 -74t-47 -56t-63 -41t-65 -29l-3 -1l12 -18t13 -18l135 -197q30 47 52 112t34 148h50
q-14 -99 -41.5 -174t-64.5 -128l88 -128h-64l-59 86q-46 -50 -101.5 -73t-115.5 -23zM224 582q0 -34 14 -68t39 -74l12 5q19 7 46 19t53 31t43 45.5t17 62.5q0 50 -33.5 76t-74.5 26q-29 0 -55.5 -13.5t-43.5 -40.5t-17 -69zM69 191q0 -66 47.5 -109.5t126.5 -43.5
q53 0 100 22t86 66l-137 202q-11 15 -20.5 29t-18.5 28q-30 -11 -62.5 -27t-60 -39t-44.5 -54t-17 -74z" />
    <glyph glyph-name="quotesingle" unicode="'" horiz-adv-x="162" 
d="M124 572l39 168h55l-55 -168h-39z" />
    <glyph glyph-name="parenleft" unicode="(" horiz-adv-x="378" 
d="M232 -193q-63 26 -104.5 82.5t-62 132.5t-20.5 161q0 82 17.5 167t51.5 164t83 144t112 107.5t139 53.5l-11 -50q-62 -14 -114.5 -53.5t-93.5 -99t-69.5 -131.5t-43.5 -150t-15 -155q0 -72 16.5 -136.5t48 -113.5t77.5 -73z" />
    <glyph glyph-name="parenright" unicode=")" horiz-adv-x="409" 
d="M179 815q63 -26 104.5 -82.5t62 -132.5t20.5 -161q0 -82 -17.5 -167t-51.5 -164t-83 -144t-112 -107.5t-139 -53.5l11 50q62 14 114.5 53.5t93.5 99t69.5 131.5t43.5 150t15 155q0 72 -16.5 136.5t-48 113.5t-77.5 73z" />
    <glyph glyph-name="asterisk" unicode="*" horiz-adv-x="496" 
d="M215 358l-39 28l102 138l-164 52l15 47l163 -55l-1 172h48v-172l163 55l14 -47l-162 -52l100 -138l-39 -28l-100 138z" />
    <glyph glyph-name="plus" unicode="+" horiz-adv-x="582" 
d="M235 127l34 161h-161l10 50h161l35 161h49l-34 -161h161l-10 -50h-162l-34 -161h-49z" />
    <glyph glyph-name="comma" unicode="," horiz-adv-x="250" 
d="M31 -90l52 84q-21 1 -32.5 15t-11.5 31q0 20 13 33.5t34 13.5q20 0 34.5 -12t14.5 -35q0 -19 -14 -42t-44 -69l-13 -19h-33z" />
    <glyph glyph-name="hyphen" unicode="-" horiz-adv-x="588" 
d="M113 288l5 50h372l-5 -50h-372z" />
    <glyph glyph-name="period" unicode="." horiz-adv-x="248" 
d="M86 -7q-20 0 -33.5 14t-13.5 33t13.5 33t33.5 14q19 0 33 -14t14 -33t-14 -33t-33 -14z" />
    <glyph glyph-name="slash" unicode="/" horiz-adv-x="504" 
d="M-17 -129l547 949h58l-547 -949h-58z" />
    <glyph glyph-name="zero" unicode="0" horiz-adv-x="612" 
d="M263 -10q-71 0 -116 38t-66.5 102t-21.5 140q0 64 14.5 132t42 130t66.5 111t88 78t107 29q70 0 115 -38.5t66.5 -102t21.5 -139.5q0 -65 -14.5 -132.5t-41.5 -129.5t-66 -111.5t-88 -78t-107 -28.5zM264 42q47 0 87 26t72 70.5t54.5 100.5t34.5 116t12 117
q0 61 -15.5 112.5t-48 82t-84.5 30.5q-47 0 -87 -26t-72 -70.5t-54.5 -100.5t-34.5 -116t-12 -117q0 -61 15.5 -112.5t48 -82t84.5 -30.5z" />
    <glyph glyph-name="one" unicode="1" horiz-adv-x="331" 
d="M329 740l-157 -740h-56l132 619h-129l8 33l25 5q55 10 84 27.5t54 45.5l8 10h31z" />
    <glyph glyph-name="two" unicode="2" horiz-adv-x="607" 
d="M6 0l9 42l226 180q53 42 102.5 81.5t89.5 79.5t63.5 82.5t23.5 89.5q0 66 -44 104.5t-112 38.5q-54 0 -89 -19t-55 -46.5t-29.5 -55t-12 -46l-2.5 -18.5h-54l2.5 17t10 44t23.5 57.5t43 57.5t67.5 44t98.5 17q63 0 110 -25t73.5 -68.5t26.5 -98.5q0 -71 -41 -131
t-109.5 -118.5t-151.5 -122.5l-170 -133h405l-11 -53h-493z" />
    <glyph glyph-name="three" unicode="3" horiz-adv-x="610" 
d="M289 -10q-63 0 -106.5 16.5t-71 42t-42.5 54t-21.5 54.5t-7.5 42l-1 16h54l1.5 -17.5t10.5 -43.5t29.5 -52t58 -44t96.5 -18q67 0 112.5 25t69 65t23.5 86q0 41 -17.5 69t-44.5 44.5t-58 24t-59 7.5h-84l10 48h91q53 0 97 17.5t70.5 51.5t26.5 83q0 62 -42.5 100.5
t-115.5 38.5q-53 0 -87.5 -16t-54 -39.5t-28.5 -46.5t-11.5 -39l-2.5 -16h-53l3.5 21t15.5 52t37.5 61.5t69.5 51.5t113 21q66 0 113.5 -24.5t73 -66t25.5 -94.5q0 -41 -14.5 -71.5t-36 -51t-44 -32.5t-39 -18t-20.5 -7v-4q4 -1 23 -10t42.5 -28.5t40.5 -51.5t17 -79
q0 -54 -30 -105t-88.5 -84t-143.5 -33z" />
    <glyph glyph-name="four" unicode="4" horiz-adv-x="636" 
d="M349 0l39 185l-365 1l11 51l464 503h64l-107 -505h129l-11 -50h-129l-39 -185h-56zM96 235h303l91 427z" />
    <glyph glyph-name="five" unicode="5" horiz-adv-x="643" 
d="M295 -10q-59 0 -99.5 16.5t-66 42t-39.5 54.5t-19.5 54.5t-6.5 42l-1 16.5h53l1.5 -18t9 -44t26 -52.5t53 -44t90.5 -17.5q74 0 124.5 34t76.5 86.5t26 107.5q0 47 -19.5 87.5t-59 66t-99.5 25.5q-52 0 -90 -16.5t-61.5 -37.5t-35 -37.5l-11.5 -16.5h-51l120 401h394
l-10 -51h-348l-81 -270h2l11.5 11.5t34 27t56.5 27t78 11.5q76 0 126 -32.5t75 -84.5t25 -111q0 -50 -18 -99.5t-54 -90t-89 -64.5t-123 -24z" />
    <glyph glyph-name="six" unicode="6" horiz-adv-x="661" 
d="M322 -10q-85 0 -139 37t-79.5 98t-25.5 134q0 67 19.5 136.5t56.5 133t91 113.5t122.5 79t150.5 29q62 0 95 -8l33 -8l-11 -52l-32 8t-85 8q-72 0 -132.5 -26.5t-108 -72.5t-80.5 -105.5t-51 -124.5q15 26 41.5 54t67.5 47.5t99 19.5q77 0 127 -33t74.5 -86t24.5 -111
q0 -49 -16.5 -97t-49 -87t-81 -62.5t-111.5 -23.5zM322 40q66 0 111 32.5t68 83t23 103.5q0 47 -19 88.5t-57 68t-97 26.5q-69 0 -115.5 -32.5t-70.5 -82.5t-24 -103q0 -47 20 -89t60 -68.5t101 -26.5z" />
    <glyph glyph-name="seven" unicode="7" horiz-adv-x="558" 
d="M124 0q23 105 62.5 197.5t87.5 172t96.5 142.5t89.5 107.5t66 68.5h-412l11 52h482l-9 -45l-24.5 -24t-64.5 -68.5t-87.5 -106.5t-94.5 -139.5t-85 -167.5t-59 -189h-59z" />
    <glyph glyph-name="eight" unicode="8" horiz-adv-x="597" 
d="M286 -10q-82 0 -135.5 29t-79.5 75t-26 98q0 45 19 88t57.5 76t95.5 49v4q-47 24 -71.5 64t-24.5 84q0 49 27.5 93t80 72t128.5 28q72 0 120.5 -25t74 -65.5t25.5 -87.5q0 -55 -36 -105t-110 -72v-5q59 -26 86.5 -73.5t27.5 -100.5q0 -55 -29.5 -107t-87 -85.5
t-142.5 -33.5zM343 423q60 0 100 21t59.5 54t19.5 68q0 34 -18 65t-55 50t-92 19q-60 0 -100 -21t-60 -54t-20 -68q0 -34 18.5 -65t55.5 -50t92 -19zM283 40q68 0 113.5 26t68.5 67t23 84q0 41 -20 77t-60 58.5t-101 22.5q-69 0 -114.5 -26.5t-68.5 -67t-23 -83.5
q0 -40 20 -76.5t60.5 -59t101.5 -22.5z" />
    <glyph glyph-name="nine" unicode="9" horiz-adv-x="661" 
d="M384 750q85 0 138.5 -37t79.5 -98t26 -134q0 -67 -19.5 -136.5t-57 -133t-91 -113.5t-122.5 -79t-151 -29q-61 0 -94 8l-33 8l11 52l31.5 -8t84.5 -8q73 0 133.5 26.5t108 72.5t80.5 105.5t51 124.5q-15 -26 -42 -54t-67.5 -47.5t-98.5 -19.5q-77 0 -127.5 33t-75 86
t-24.5 111q0 49 17 97t49.5 87t81 62.5t111.5 23.5zM384 700q-66 0 -111 -32.5t-68 -83t-23 -103.5q0 -47 18.5 -89t57 -68t97.5 -26q68 0 115 32.5t70.5 83t23.5 102.5q0 47 -19.5 89t-59.5 68.5t-101 26.5z" />
    <glyph glyph-name="colon" unicode=":" horiz-adv-x="250" 
d="M183 447q-20 0 -33.5 13.5t-13.5 33.5q0 19 13.5 32.5t33.5 13.5q19 0 33 -13.5t14 -32.5q0 -20 -14 -33.5t-33 -13.5zM85 -10q-20 0 -33 14t-13 33t13 32.5t33 13.5t33.5 -13.5t13.5 -32.5t-13.5 -33t-33.5 -14z" />
    <glyph glyph-name="semicolon" unicode=";" horiz-adv-x="251" 
d="M183 447q-20 0 -33.5 13.5t-13.5 33.5q0 19 13.5 32.5t33.5 13.5q19 0 33 -13.5t14 -32.5q0 -20 -14 -33.5t-33 -13.5zM30 -93l52 84q-21 1 -32.5 14.5t-11.5 31.5q0 19 13 32.5t35 13.5q19 0 33.5 -11.5t14.5 -34.5q0 -19 -13.5 -42.5t-44.5 -68.5l-12 -19h-34z" />
    <glyph glyph-name="less" unicode="&#x3c;" horiz-adv-x="547" 
d="M435 127l-333 187l7 36l414 187l-11 -57l-343 -153l278 -153z" />
    <glyph glyph-name="equal" unicode="=" horiz-adv-x="687" 
d="M132 404l10 50h477l-10 -50h-477zM85 183l10 50h477l-10 -50h-477z" />
    <glyph glyph-name="greater" unicode="&#x3e;" horiz-adv-x="547" 
d="M84 127l12 57l342 153l-277 153l11 47l334 -187l-8 -36z" />
    <glyph glyph-name="question" unicode="?" horiz-adv-x="584" 
d="M231 156l2 19q6 46 29 80t55 61t66.5 51.5t65 51.5t49.5 60t19 78q0 65 -44.5 103.5t-110.5 38.5q-53 0 -87.5 -19t-54.5 -46.5t-30 -55t-13 -46l-3 -18.5h-54l2.5 17t10.5 44t24 57t43 57t67.5 44t97.5 17q61 0 108 -24.5t73.5 -67t26.5 -98.5q0 -51 -19.5 -89.5
t-50 -68t-66 -55t-68 -50.5t-55 -54.5t-27.5 -68.5l-3 -18h-53zM241 -10q-19 0 -31.5 13.5t-12.5 31.5t12.5 31t31.5 13t32 -13t13 -31q0 -19 -13 -32t-32 -13z" />
    <glyph glyph-name="at" unicode="@" horiz-adv-x="935" 
d="M442 -94q-97 0 -169.5 31t-119.5 84.5t-70.5 121.5t-23.5 141q0 83 29 164.5t86 148.5t140.5 107.5t192.5 40.5q100 0 172.5 -31.5t118.5 -84t68 -117.5t22 -131q0 -54 -13.5 -104t-39 -89.5t-60.5 -62t-79 -22.5q-41 0 -63.5 15.5t-33 35.5t-13 35.5l-2.5 15.5h-4
l-9.5 -15.5t-29 -35.5t-50 -35.5t-72.5 -15.5q-51 0 -85 25t-50.5 66.5t-16.5 89.5q0 45 14 91t41 84t66 61t87 23q41 0 67 -15t41 -34.5t21 -34l6 -14.5h4l19 90h50l-43 -204q-7 -33 -10 -65.5t1.5 -59t20 -43t46.5 -16.5q40 0 71.5 33t50 86.5t18.5 114.5
q0 58 -19.5 114.5t-59.5 102t-103 73t-150 27.5q-97 0 -171 -36t-124 -96t-75.5 -133t-25.5 -147q0 -65 20 -125t61 -106.5t103.5 -74t146.5 -27.5q53 0 98 9t78.5 20t52 20l18.5 9l17 -43l-18.5 -9.5t-53.5 -21.5t-83 -21.5t-108 -9.5zM429 146q38 0 68 19t51 50t31.5 68.5
t10.5 74.5t-11.5 69t-36.5 52t-64 20q-51 0 -87 -32.5t-55.5 -81t-19.5 -98.5q0 -37 12 -69t37 -52t64 -20z" />
    <glyph glyph-name="A" unicode="A" horiz-adv-x="673" 
d="M-6 0l422 740h68l108 -740h-56l-30 206h-332l-116 -206h-64zM203 256h296l-59 416z" />
    <glyph glyph-name="B" unicode="B" horiz-adv-x="648" 
d="M32 0l157 740h257q62 0 102.5 -23.5t60 -60.5t19.5 -80q0 -40 -16.5 -79t-49.5 -70t-80 -46l-1 -4q53 -17 80.5 -57.5t27.5 -91.5q0 -39 -16.5 -79t-49.5 -74t-81 -54.5t-111 -20.5h-299zM441 689h-206l-62 -289h220q57 0 97 26t61.5 65t21.5 79q0 47 -32 83t-100 36z
M385 352h-222l-64 -301h235q64 0 108.5 26.5t67.5 67t23 81.5q0 50 -36 88t-112 38z" />
    <glyph glyph-name="C" unicode="C" horiz-adv-x="747" 
d="M356 -10q-75 0 -129.5 26.5t-90.5 71.5t-53.5 103.5t-17.5 122.5q0 77 25 154t74.5 141t122.5 102.5t169 38.5q67 0 112 -18t73.5 -46t43.5 -60t21 -60t7 -46l1 -18h-57l-1 19.5t-9.5 49t-29.5 58.5t-60.5 49t-103.5 20q-81 0 -143 -34t-103.5 -89.5t-63 -123
t-21.5 -134.5q0 -73 25.5 -135.5t78 -101t133.5 -38.5q63 0 107.5 20t74.5 49t47.5 58.5t25 49l7.5 19.5h58l-6 -18t-20 -46t-38 -60t-60 -60t-85 -46t-114 -18z" />
    <glyph glyph-name="D" unicode="D" horiz-adv-x="710" 
d="M32 0l157 740h177q79 0 137 -25t96 -68t56.5 -98.5t18.5 -116.5q0 -76 -28 -152.5t-82.5 -139.5t-134 -101.5t-181.5 -38.5h-216zM362 689h-128l-135 -638h150q89 0 157 34t115 89.5t71.5 122t24.5 132.5q0 69 -27.5 128t-84 95.5t-143.5 36.5z" />
    <glyph glyph-name="E" unicode="E" horiz-adv-x="573" 
d="M32 0l157 740h426l-11 -51h-370l-60 -285h322l-11 -51h-322l-64 -302h375l-10 -51h-432z" />
    <glyph glyph-name="F" unicode="F" horiz-adv-x="576" 
d="M32 0l157 740h435l-11 -51h-379l-62 -295h330l-10 -51h-331l-73 -343h-56z" />
    <glyph glyph-name="G" unicode="G" horiz-adv-x="759" 
d="M360 -10q-76 0 -131.5 26t-91.5 71.5t-54 103.5t-18 122q0 78 25 155t74.5 141t122.5 102.5t169 38.5q67 0 112 -18t73.5 -46t43.5 -60t21 -60t7 -46l1 -18h-57l-1 19.5t-9.5 49t-29.5 58.5t-60.5 49t-103.5 20q-81 0 -143 -34t-103.5 -89.5t-63 -123t-21.5 -135.5
q0 -72 25.5 -134.5t79 -101t136.5 -38.5q62 0 111 23.5t83.5 63.5t55.5 90.5t28 103.5h-229l10 49h282l-8 -53q-9 -64 -34.5 -123t-67 -105.5t-100 -73.5t-134.5 -27z" />
    <glyph glyph-name="H" unicode="H" horiz-adv-x="672" 
d="M32 0l157 740h56l-70 -330h385l70 330h56l-157 -740h-56l77 360h-385l-77 -360h-56z" />
    <glyph glyph-name="I" unicode="I" horiz-adv-x="231" 
d="M32 0l157 740h56l-157 -740h-56z" />
    <glyph glyph-name="J" unicode="J" horiz-adv-x="450" 
d="M80 -10q-33 0 -58 4l-25 4l10 51l25.5 -3.5t53.5 -3.5q85 0 140 49t72 130l110 519h56l-110 -519q-23 -110 -93.5 -170.5t-180.5 -60.5z" />
    <glyph glyph-name="K" unicode="K" horiz-adv-x="595" 
d="M32 0l157 740h56l-71 -337l410 336h80l-446 -362l312 -377h-69l-297 359l-76 -359h-56z" />
    <glyph glyph-name="L" unicode="L" horiz-adv-x="584" 
d="M32 0l157 740h56l-146 -689h387l-11 -51h-443z" />
    <glyph glyph-name="M" unicode="M" horiz-adv-x="853" 
d="M32 0l157 740h75l159 -484l366 484h78l-157 -740h-56l140 658l-354 -467h-52l-158 474l-142 -665h-56z" />
    <glyph glyph-name="N" unicode="N" horiz-adv-x="724" 
d="M32 0l157 740h54l302 -645l137 645h56l-157 -740h-53l-303 645l-137 -645h-56z" />
    <glyph glyph-name="O" unicode="O" horiz-adv-x="784" 
d="M357 -10q-75 0 -130.5 26t-91 70.5t-53 102t-17.5 120.5q0 78 26 156t76 142.5t122.5 103.5t165.5 39q75 0 130 -26t90.5 -71t53 -102t17.5 -120q0 -78 -26 -156t-75.5 -142.5t-122 -103.5t-165.5 -39zM358 42q79 0 140.5 34.5t104 91.5t64.5 126t22 137q0 70 -25 131
t-77 98.5t-133 37.5q-79 0 -140.5 -35t-104.5 -92t-65 -125.5t-22 -136.5q0 -70 25.5 -131t77.5 -98.5t133 -37.5z" />
    <glyph glyph-name="P" unicode="P" horiz-adv-x="609" 
d="M32 0l157 740h203q77 0 128 -29.5t76 -76t25 -99.5q0 -46 -18.5 -91.5t-54.5 -82.5t-88.5 -59t-120.5 -22h-191l-60 -280h-56zM388 689h-154l-75 -358h183q72 0 121.5 30.5t75 76.5t25.5 94q0 40 -19 76t-58 58.5t-99 22.5z" />
    <glyph glyph-name="Q" unicode="Q" horiz-adv-x="792" 
d="M357 -10q-75 0 -130.5 26t-91 70.5t-53 102t-17.5 120.5q0 78 26 156t76 142.5t122.5 103.5t165.5 39q75 0 130 -26t90.5 -71t53 -102t17.5 -120q0 -86 -32 -173t-92 -152l89 -106h-68l-60 70q-45 -37 -101.5 -58.5t-124.5 -21.5zM358 42q57 0 104.5 19t85.5 50l-121 144
l40 34l119 -141q50 58 76.5 133t26.5 150q0 70 -25 131t-77 98.5t-133 37.5q-79 0 -140.5 -35t-104.5 -92t-65 -125.5t-22 -136.5q0 -70 25.5 -131t77.5 -98.5t133 -37.5z" />
    <glyph glyph-name="R" unicode="R" horiz-adv-x="616" 
d="M32 0l157 740h200q72 0 118.5 -26.5t69.5 -68.5t23 -90q0 -50 -25 -98.5t-73 -82t-117 -40.5l126 -334h-58l-125 332h-169l-71 -332h-56zM388 689h-154l-64 -306h187q60 0 101.5 25.5t63 65t21.5 79.5q0 36 -16.5 66.5t-51 50t-87.5 19.5z" />
    <glyph glyph-name="S" unicode="S" horiz-adv-x="636" 
d="M304 -10q-67 0 -113 16.5t-74.5 42t-44 54.5t-21.5 55t-7 42l-1 16h56l1.5 -17.5t10.5 -43.5t30.5 -52t60.5 -43.5t102 -17.5q50 0 93.5 18.5t70.5 53t27 82.5q0 55 -34.5 86.5t-83.5 54.5l-80 38q-37 18 -69 41t-51.5 57t-19.5 84q0 54 30 97.5t83 69.5t122 26
q71 0 115 -21t68 -52.5t34 -62.5t11.5 -52l1.5 -21h-54l-2 16t-10 39.5t-26.5 47.5t-52 40t-85.5 16q-78 0 -128 -39t-50 -102q0 -52 31 -82.5t77 -51.5l75 -35q40 -19 75 -43t57.5 -60t22.5 -90q0 -61 -34 -107.5t-90 -73t-124 -26.5z" />
    <glyph glyph-name="T" unicode="T" horiz-adv-x="640" 
d="M235 0l146 689h-254l11 51h573l-11 -51h-263l-146 -689h-56z" />
    <glyph glyph-name="U" unicode="U" horiz-adv-x="706" 
d="M312 -10q-89 0 -144 38.5t-75 103t-3 143.5l99 465h56l-99 -469q-22 -104 23.5 -165.5t147.5 -61.5q67 0 117.5 28t83 78t45.5 115l101 475h56l-101 -475q-16 -79 -55.5 -141t-102 -98t-149.5 -36z" />
    <glyph glyph-name="V" unicode="V" horiz-adv-x="657" 
d="M232 0l-108 740h56l95 -672l383 672h63l-422 -740h-67z" />
    <glyph glyph-name="W" unicode="W" horiz-adv-x="980" 
d="M180 0l-46 740h54l41 -656l324 656h58l47 -656l315 656h61l-360 -740h-63l-46 651l-321 -651h-64z" />
    <glyph glyph-name="X" unicode="X" horiz-adv-x="651" 
d="M-8 0l333 378l-165 362h60l147 -326l287 326h71l-330 -376l164 -364h-58l-148 329l-290 -329h-71z" />
    <glyph glyph-name="Y" unicode="Y" horiz-adv-x="641" 
d="M232 0l58 274l-165 466h57l144 -409l317 409h67l-364 -467l-58 -273h-56z" />
    <glyph glyph-name="Z" unicode="Z" horiz-adv-x="630" 
d="M9 0l10 46l560 643h-424l11 51h497l-10 -46l-559 -641h424l-12 -53h-497z" />
    <glyph glyph-name="bracketleft" unicode="[" horiz-adv-x="433" 
d="M-8 -191l215 1015h267l-10 -49h-212l-195 -916h213l-11 -50h-267z" />
    <glyph glyph-name="backslash" unicode="\" horiz-adv-x="485" 
d="M327 -129h-50l-144 949h50z" />
    <glyph glyph-name="bracketright" unicode="]" horiz-adv-x="409" 
d="M441 824l-216 -1015h-267l10 50h213l194 916h-212l11 49h267z" />
    <glyph glyph-name="asciicircum" unicode="^" horiz-adv-x="491" 
d="M170 583l147 157h52l81 -157h-50l-61 120l-110 -120h-59z" />
    <glyph glyph-name="underscore" unicode="_" horiz-adv-x="683" 
d="M41 -49l6 49h466l-5 -49h-467z" />
    <glyph glyph-name="grave" unicode="`" horiz-adv-x="202" 
d="M228 615l-68 162h55l58 -161z" />
    <glyph glyph-name="a" unicode="a" horiz-adv-x="608" 
d="M331 540q51 0 84.5 -17t53.5 -40t29 -43t11 -25h5l24 115h56l-114 -530h-55l20 92h-4l-11.5 -15.5t-34.5 -35.5t-58 -35.5t-82 -15.5q-67 0 -111.5 32.5t-66.5 84.5t-22 112q0 57 18.5 114t54 103.5t86.5 75t117 28.5zM332 490q-53 0 -94 -24t-70 -64.5t-44 -88.5
t-15 -95t16 -87.5t50 -65.5t86 -25q53 0 94 24.5t70 64.5t44.5 88.5t15.5 95.5q0 48 -16 88t-50 64.5t-87 24.5z" />
    <glyph glyph-name="b" unicode="b" horiz-adv-x="623" 
d="M295 -10q-51 0 -84.5 17t-53.5 40t-29 43t-11 25h-5l-24 -115h-56l163 760h55l-69 -322h4l11.5 15.5t34.5 35.5t58 35.5t82 15.5q67 0 111.5 -32.5t66.5 -84.5t22 -112q0 -57 -18.5 -114t-54 -103.5t-86.5 -75t-117 -28.5zM294 40q53 0 94 24t70 64.5t44 88.5t15 95
t-16 87.5t-50 65.5t-86 25q-53 0 -94 -24.5t-70 -64.5t-44.5 -88.5t-15.5 -95.5q0 -48 16 -88t50 -64.5t87 -24.5z" />
    <glyph glyph-name="c" unicode="c" horiz-adv-x="576" 
d="M266 -10q-72 0 -118.5 32t-69 84.5t-22.5 113.5q0 62 19 119t55.5 102.5t90 72t122.5 26.5q58 0 94.5 -18t56 -45t27.5 -54t9.5 -45l1.5 -18h-53l-1 13t-7 32.5t-20.5 39t-41.5 32.5t-70 13q-73 0 -123.5 -38t-77.5 -98.5t-27 -130.5q0 -49 17 -90.5t52 -67t89 -25.5
q53 0 87.5 19.5t54.5 45.5t28 45.5l8 19.5h56l-7 -18t-22.5 -45t-43 -54t-68 -45t-96.5 -18z" />
    <glyph glyph-name="d" unicode="d" horiz-adv-x="625" 
d="M255 -10q-67 0 -111.5 32.5t-66.5 84.5t-22 112q0 57 18.5 114t54 103.5t86.5 75t117 28.5q51 0 84.5 -17t53.5 -40t29 -43t11 -25h5l74 345h55l-163 -760h-55l20 92h-4l-11.5 -15.5t-34.5 -35.5t-58 -35.5t-82 -15.5zM261 40q53 0 94 24.5t70 64.5t44.5 88.5t15.5 95.5
q0 48 -16 88t-50 64.5t-87 24.5t-94 -24t-70 -64.5t-44 -88.5t-15 -95t16 -87.5t50 -65.5t86 -25z" />
    <glyph glyph-name="e" unicode="e" horiz-adv-x="578" 
d="M264 -10q-72 0 -118.5 32t-69 83.5t-22.5 111.5q0 58 19.5 115t56.5 104t89.5 75.5t118.5 28.5q63 0 104.5 -23.5t63 -63.5t25.5 -89t-7 -100l-2 -12h-411q-6 -57 8.5 -105t51 -77.5t96.5 -29.5q50 0 84 17t55 39.5t30 40l9 17.5h53l-7.5 -16.5t-23.5 -41t-43.5 -49
t-66.5 -41t-93 -16.5zM120 298h356q8 50 -2 93.5t-43.5 71t-95.5 27.5q-55 0 -98.5 -26t-73 -70t-43.5 -96z" />
    <glyph glyph-name="f" unicode="f" horiz-adv-x="346" 
d="M66 0l103 484h-97l9 46h98l19 88q14 68 55.5 110t116.5 42q20 0 36.5 -3l16.5 -3l-9 -45l-15.5 2.5t-31.5 2.5q-51 0 -77.5 -30t-37.5 -78l-18 -86h125l-10 -46h-125l-102 -484h-56z" />
    <glyph glyph-name="g" unicode="g" horiz-adv-x="619" 
d="M216 -210q-62 0 -101.5 16.5t-61 40.5t-30 47.5t-10 40l-1.5 16.5h55l1 -11t7.5 -28t22 -33.5t44.5 -27.5t75 -11q72 0 117 28.5t69.5 73t34.5 91.5l13 62h-4l-11 -15t-33.5 -34t-57.5 -33.5t-84 -14.5q-69 0 -114.5 31.5t-68 82.5t-22.5 111q0 56 18.5 112t54.5 102.5
t88 74.5t118 28q53 0 88.5 -18.5t55.5 -42t28 -42l8 -18.5h5l23 111h55l-106 -500q-26 -120 -96.5 -180t-179.5 -60zM270 48q53 0 94.5 23.5t70.5 62.5t44 85.5t15 92.5q0 48 -17 88.5t-52 65t-90 24.5q-53 0 -94.5 -23t-70.5 -61.5t-44 -85t-15 -92.5q0 -47 17 -88.5
t52.5 -66.5t89.5 -25z" />
    <glyph glyph-name="h" unicode="h" horiz-adv-x="566" 
d="M32 0l162 760h56l-71 -329h4q7 11 20.5 29t35.5 36.5t52.5 31t69.5 12.5q58 0 95.5 -28t51.5 -74.5t2 -101.5l-71 -336h-55l72 340q9 40 0 74.5t-35.5 55.5t-73.5 21q-55 0 -95.5 -30.5t-66.5 -79.5t-39 -107l-58 -274h-56z" />
    <glyph glyph-name="i" unicode="i" horiz-adv-x="229" 
d="M197 629q-19 0 -31.5 13t-12.5 31t12.5 31t31.5 13t32 -13t13 -31t-13 -31t-32 -13zM27 0l113 530h54l-113 -530h-54z" />
    <glyph glyph-name="j" unicode="j" horiz-adv-x="270" 
d="M238 629q-19 0 -31.5 13t-12.5 31t12.5 31t31.5 13q18 0 31.5 -13t13.5 -31t-13.5 -31t-31.5 -13zM-75 -206q-22 0 -39 2.5l-17 2.5l10 48l15 -2t33 -2q53 0 87 33.5t47 90.5l120 563h54l-121 -566q-10 -47 -33.5 -85.5t-62 -61.5t-93.5 -23z" />
    <glyph glyph-name="k" unicode="k" horiz-adv-x="513" 
d="M32 0l162 760h56l-98 -456l297 226h83l-322 -243l212 -287h-67l-207 282l-60 -282h-56z" />
    <glyph glyph-name="l" unicode="l" horiz-adv-x="232" 
d="M32 0l163 760h55l-162 -760h-56z" />
    <glyph glyph-name="m" unicode="m" horiz-adv-x="894" 
d="M27 0l113 530h55l-21 -99h4q11 18 35 43.5t61 45.5t86 20q60 0 97.5 -34t43.5 -93q16 27 43.5 56.5t67 50t89.5 20.5q52 0 87.5 -25t49.5 -70t1 -105l-72 -340h-55l71 339q16 71 -10 111t-86 40q-53 0 -94.5 -30.5t-70 -82t-42.5 -115.5l-56 -262h-55l72 339
q15 70 -10.5 110.5t-85.5 40.5q-53 0 -95 -31.5t-70.5 -83.5t-41.5 -114l-55 -261h-56z" />
    <glyph glyph-name="n" unicode="n" horiz-adv-x="561" 
d="M27 0l113 530h56l-22 -99h4q7 11 20.5 29t35.5 36.5t52.5 31t69.5 12.5q58 0 95.5 -28t51.5 -74.5t2 -101.5l-71 -336h-55l72 340q9 40 0 74.5t-35.5 55.5t-73.5 21q-55 0 -95.5 -30.5t-66.5 -79.5t-39 -107l-58 -274h-56z" />
    <glyph glyph-name="o" unicode="o" horiz-adv-x="599" 
d="M265 -10q-72 0 -118.5 32.5t-69 85t-22.5 112.5q0 56 19 112.5t55 103.5t88.5 75.5t120.5 28.5q72 0 118.5 -32.5t69 -84.5t22.5 -113q0 -56 -19 -112.5t-55.5 -103.5t-89 -75.5t-119.5 -28.5zM267 40q53 0 95.5 24t71.5 63.5t44 87t15 94.5q0 48 -17 89t-51.5 66.5
t-88.5 25.5t-96 -24t-71.5 -63.5t-44.5 -87t-15 -94.5q0 -48 17 -89t52 -66.5t89 -25.5z" />
    <glyph glyph-name="p" unicode="p" horiz-adv-x="623" 
d="M-10 -195l156 725h55l-20 -92h4l11.5 15.5t34.5 35.5t58 35.5t82 15.5q67 0 111.5 -32.5t66.5 -84.5t22 -112q0 -57 -18.5 -114t-54 -103.5t-86.5 -75t-117 -28.5q-51 0 -84.5 17t-53.5 40t-29 43t-11 25h-5l-66 -310h-56zM141 217q0 -48 16 -88t50 -64.5t87 -24.5t94 24
t70 64.5t44 88.5t15 95t-16 87.5t-50 65.5t-86 25q-53 0 -94 -24.5t-70 -64.5t-44.5 -88.5t-15.5 -95.5z" />
    <glyph glyph-name="q" unicode="q" horiz-adv-x="624" 
d="M383 -195l62 287h-5l-11 -15.5t-34 -35.5t-58 -35.5t-82 -15.5q-67 0 -111.5 32.5t-66.5 84.5t-22 112q0 57 18.5 114t54 103.5t86.5 75t117 28.5q51 0 84.5 -17t53.5 -40t29 -43t11 -25h5l24 115h56l-156 -725h-55zM261 40q53 0 94 24.5t70 64.5t44.5 88.5t15.5 95.5
q0 48 -16 88t-50 64.5t-87 24.5t-94 -24t-70 -64.5t-44 -88.5t-15 -95t16 -87.5t50 -65.5t86 -25z" />
    <glyph glyph-name="r" unicode="r" horiz-adv-x="380" 
d="M27 0l113 530h56l-16 -71h4q23 31 61 56t95 25q19 0 34 -2l15 -2l-11 -53l-14.5 2t-31.5 2q-41 0 -78.5 -20t-66.5 -66.5t-46 -125.5l-58 -275h-56z" />
    <glyph glyph-name="s" unicode="s" horiz-adv-x="480" 
d="M212 -10q-57 0 -93 16.5t-55.5 41.5t-27.5 49.5t-9.5 41l-1.5 16.5h55l2 -17.5t13.5 -40t39 -40t78.5 -17.5q59 0 97.5 28t38.5 72q0 37 -23.5 57t-55.5 35l-61 29q-45 20 -74.5 50.5t-29.5 80.5q0 41 21 74.5t60.5 53.5t93.5 20q52 0 84.5 -15.5t50.5 -38t26 -45t10 -38
l2 -15.5h-54l-2.5 15.5t-14 36t-36 36t-68.5 15.5q-53 0 -86 -25.5t-33 -68.5q0 -33 21 -53t52 -34l61 -28q26 -12 51.5 -29t42.5 -43t17 -66q0 -44 -24 -79t-67.5 -55t-100.5 -20z" />
    <glyph glyph-name="t" unicode="t" horiz-adv-x="380" 
d="M209 -10q-66 0 -93.5 38.5t-12.5 107.5l74 348h-92l10 46h92l29 134h54l-28 -134h126l-10 -46h-126l-76 -357q-9 -42 5.5 -65.5t60.5 -23.5q23 0 45.5 4l22.5 4l-10 -47l-21 -4.5t-50 -4.5z" />
    <glyph glyph-name="u" unicode="u" horiz-adv-x="553" 
d="M202 -10q-79 0 -116.5 54.5t-17.5 149.5l71 336h56l-72 -337q-15 -74 9 -114t87 -40q58 0 100.5 32.5t69.5 86t40 114.5l54 258h56l-112 -530h-56l20 96h-4q-11 -16 -34.5 -41.5t-60.5 -45t-90 -19.5z" />
    <glyph glyph-name="v" unicode="v" horiz-adv-x="528" 
d="M174 0l-94 530h56l80 -462l279 462h63l-321 -530h-63z" />
    <glyph glyph-name="w" unicode="w" horiz-adv-x="822" 
d="M143 0l-63 530h55l53 -451l246 451h58l54 -451l245 451h61l-290 -530h-60l-54 448l-245 -448h-60z" />
    <glyph glyph-name="x" unicode="x" horiz-adv-x="546" 
d="M-15 0l245 273l-122 257h59l107 -225l202 225h71l-247 -273l123 -257h-59l-107 225l-202 -225h-70z" />
    <glyph glyph-name="y" unicode="y" horiz-adv-x="536" 
d="M-25 -196q-19 0 -31 2l-12 2l10 50l13.5 -1.5t28.5 -1.5q53 0 102.5 34t91.5 102l4 8l-94 531h55l82 -463l278 463h63l-337 -554q-53 -88 -116.5 -130t-137.5 -42z" />
    <glyph glyph-name="z" unicode="z" horiz-adv-x="502" 
d="M-12 0l9 40l427 444h-313l11 46h387l-9 -40l-428 -444h333l-9 -46h-408z" />
    <glyph glyph-name="braceleft" unicode="{" horiz-adv-x="403" 
d="M180 -188q-63 0 -88 36t-14 87l62 292q6 32 -6 50.5t-48 18.5h-27l10 47h26q69 0 85 73l62 290q12 58 48.5 89.5t91.5 31.5h109l-10 -50h-99q-71 0 -86 -71l-62 -291q-7 -34 -22.5 -57.5t-51.5 -36.5v-3q30 -13 35.5 -38.5t-2.5 -59.5l-62 -290q-7 -33 7.5 -51t46.5 -18
h101l-11 -49h-95z" />
    <glyph glyph-name="bar" unicode="|" horiz-adv-x="402" 
d="M63 -222l249 1172h52l-249 -1172h-52z" />
    <glyph glyph-name="braceright" unicode="}" horiz-adv-x="403" 
d="M255 827q62 0 87.5 -36t14.5 -87l-62 -292q-7 -32 5.5 -50.5t48.5 -18.5h27l-10 -47h-27q-69 0 -84 -74l-62 -289q-12 -59 -49 -90t-91 -31h-110l11 49h99q70 0 86 72l61 291q8 34 23.5 57.5t50.5 36.5l1 3q-30 13 -35.5 38t2.5 59l62 291q7 33 -7.5 50.5t-46.5 17.5
h-101l10 50h96z" />
    <glyph glyph-name="asciitilde" unicode="~" horiz-adv-x="442" 
d="M296 320q-23 0 -38 12t-26 27.5t-21.5 27t-26.5 11.5q-18 0 -30 -20t-18 -53h-39q9 48 30 80t60 32q24 0 39 -11.5t26 -27t21 -27.5t25 -12q18 0 29.5 19.5t17.5 53.5h39q-9 -45 -29.5 -78.5t-58.5 -33.5z" />
    <glyph glyph-name="uni00A0" unicode="&#xa0;" horiz-adv-x="230" 
 />
    <glyph glyph-name="exclamdown" unicode="&#xa1;" horiz-adv-x="243" 
d="M179 534q19 0 31.5 -13.5t12.5 -31.5t-12.5 -31t-31.5 -13t-32 13t-13 31q0 19 13 32t32 13zM4 -216l126 584h49l-120 -584h-55z" />
    <glyph glyph-name="cent" unicode="&#xa2;" horiz-adv-x="576" 
d="M197 -86l17 81q-54 12 -89 45t-52 80t-17 100q0 60 18 116t53 101t86 72.5t116 30.5l17 76h47l-16 -78q48 -6 77.5 -25.5t46 -45.5t23 -50.5t7.5 -40.5l1 -16h-53l-1.5 17.5t-11 41t-33 43.5t-67.5 26l-95 -448q52 0 86.5 20t54 45.5t27.5 45l8 19.5h56l-7 -18t-22.5 -45
t-43 -54t-68 -45t-96.5 -18h-6l-16 -76h-47zM111 223q0 -62 27.5 -112t86.5 -66l94 444q-66 -5 -112.5 -43.5t-71 -97.5t-24.5 -125z" />
    <glyph glyph-name="sterling" unicode="&#xa3;" horiz-adv-x="593" 
d="M13 0l11 53q52 9 94.5 37t68 70t25.5 93q0 19 -3.5 38t-8.5 37h-116l9 41h94q-10 33 -19 67t-9 72q0 67 33.5 122t96 87.5t149.5 32.5q45 0 81.5 -6.5t58 -13l21.5 -6.5l-11 -51l-20.5 6.5t-54.5 13t-75 6.5q-73 0 -122.5 -25.5t-75.5 -68.5t-26 -97q0 -37 10 -70.5
t20 -68.5h228l-9 -41h-208q4 -16 6.5 -33t2.5 -36q0 -48 -15 -83t-37 -59.5t-44 -39t-36.5 -21l-14.5 -6.5h386l-11 -50h-479z" />
    <glyph glyph-name="currency" unicode="&#xa4;" horiz-adv-x="567" 
d="M94 137l-31 29l74 74q-20 24 -31.5 55t-11.5 66q0 66 40 116l-71 70l31 31l70 -70q24 21 56 33.5t67 12.5q34 0 65.5 -11.5t55.5 -31.5l67 67l29 -31l-66 -66q20 -25 31 -56t11 -64q0 -36 -11.5 -67.5t-33.5 -57.5l69 -70l-29 -29l-71 69q-52 -38 -117 -38
q-34 0 -64.5 11t-55.5 31zM287 213q41 0 74.5 20t53.5 53t20 74t-20 74.5t-53.5 53.5t-74.5 20t-74.5 -20t-53.5 -53.5t-20 -74.5t20 -74t53.5 -53t74.5 -20z" />
    <glyph glyph-name="yen" unicode="&#xa5;" horiz-adv-x="641" 
d="M232 0l46 216h-170l10 44h170l2 14l-17 48h-143l10 45h117l-132 373h57l144 -409l317 409h67l-290 -373h129l-9 -45h-155l-39 -49l-3 -13h184l-10 -44h-183l-46 -216h-56z" />
    <glyph glyph-name="brokenbar" unicode="&#xa6;" horiz-adv-x="402" 
d="M200 425l112 526h52l-112 -526h-52zM63 -222l103 485h52l-103 -485h-52z" />
    <glyph glyph-name="section" unicode="&#xa7;" horiz-adv-x="654" 
d="M251 -236q-63 0 -106.5 16.5t-71.5 42.5t-44 55t-23 54.5t-9 42l-2 16.5h55l2.5 -17.5t13 -44t32 -52.5t59 -44t95.5 -18q56 0 101 18.5t70.5 53.5t25.5 84q0 55 -32.5 90t-83.5 53l-119 43q-64 24 -101.5 61.5t-37.5 88.5q0 44 18.5 71.5t45.5 42.5t52.5 21t37.5 8l1 4
q-29 22 -50.5 54.5t-21.5 82.5q0 57 29.5 101t82.5 69t123 25q68 0 111.5 -21.5t68 -53t35.5 -63t14 -52.5l3 -21h-55l-1.5 16t-10 40t-27 48t-52.5 40.5t-87 16.5q-51 0 -91 -17.5t-63.5 -49t-23.5 -74.5q0 -52 31 -85t81 -52l118 -43q66 -25 103.5 -62t37.5 -89
q0 -43 -19 -70.5t-46 -42.5t-52.5 -21t-37.5 -8l-2 -4q36 -23 57 -58t21 -85q0 -62 -31.5 -110t-88.5 -74.5t-135 -26.5zM377 151q1 0 16.5 1t38 5t45 15t37.5 31t15 53q0 35 -24.5 63t-83.5 50l-139 52q-1 0 -16.5 -1t-38 -5t-45 -15t-37.5 -31t-15 -53q0 -35 24.5 -63
t84.5 -51z" />
    <glyph glyph-name="dieresis" unicode="&#xa8;" horiz-adv-x="265" 
d="M241 624q-19 0 -31.5 13t-12.5 31t12.5 31.5t31.5 13.5q18 0 31 -13.5t13 -31.5t-13 -31t-31 -13zM85 624q-19 0 -31.5 13t-12.5 31t12.5 31.5t31.5 13.5q18 0 31 -13.5t13 -31.5t-13 -31t-31 -13z" />
    <glyph glyph-name="copyright" unicode="&#xa9;" horiz-adv-x="800" 
d="M375 -4q-79 0 -137 26.5t-96.5 72.5t-57.5 103.5t-19 120.5q0 71 24.5 141.5t73 128.5t119.5 92.5t163 34.5q79 0 137.5 -26.5t97 -72t57.5 -103.5t19 -120q0 -72 -25 -142.5t-73 -128.5t-119 -92.5t-164 -34.5zM376 40q81 0 143.5 31t104.5 82.5t63.5 113.5t21.5 126
q0 72 -28.5 135.5t-87 103t-148.5 39.5q-81 0 -143.5 -30.5t-104.5 -82t-63.5 -114t-21.5 -125.5q0 -72 28.5 -136t87 -103.5t148.5 -39.5zM388 136q-58 0 -95.5 25.5t-56 67t-18.5 89.5q0 45 15.5 91t45.5 83.5t73 60.5t98 23q47 0 76 -14.5t45 -36.5t22.5 -43.5t7.5 -36
l1 -14.5h-47l-1.5 15t-10.5 35t-31.5 35.5t-64.5 15.5q-43 0 -76.5 -19t-56.5 -50t-35 -68t-12 -74q0 -38 13 -70.5t40.5 -52t70.5 -19.5q41 0 68 15t42.5 35t22 35.5l6.5 15.5h49l-5.5 -14.5t-18.5 -36t-34.5 -43t-54 -36t-78.5 -14.5z" />
    <glyph glyph-name="ordfeminine" unicode="&#xaa;" horiz-adv-x="391" 
d="M308 471q-1 -1 -12 -14t-33.5 -26t-55.5 -13q-44 0 -70.5 24.5t-26.5 62.5q0 39 29.5 67.5t90.5 31.5l111 5l4 18q4 18 1 37t-18 32t-47 13q-28 0 -45 -9t-25.5 -21t-11.5 -21l-3 -9h-48l5 15t19 35t40.5 35.5t69.5 15.5q64 0 93.5 -38t18.5 -91l-42 -197h-49l9 47h-4z
M159 509q0 -26 19 -39.5t44 -13.5q40 0 70 29.5t38 70.5l3 16l-98 -4q-36 -2 -56 -17t-20 -42z" />
    <glyph glyph-name="guillemotleft" unicode="&#xab;" horiz-adv-x="595" 
d="M456 115l-159 206l246 205h71l-254 -211l154 -200h-58zM215 115l-159 206l246 205h71l-254 -211l154 -200h-58z" />
    <glyph glyph-name="logicalnot" unicode="&#xac;" horiz-adv-x="655" 
d="M124 481l10 49h495l-10 -49v0l-43 -201h-54l43 201h-441z" />
    <glyph glyph-name="uni00AD" unicode="&#xad;" horiz-adv-x="600" 
d="M113 288l5 50h372l-5 -50h-372z" />
    <glyph glyph-name="registered" unicode="&#xae;" horiz-adv-x="420" 
d="M260 400q-53 0 -87.5 22.5t-51.5 59.5t-17 78q0 47 21.5 92.5t63.5 75t104 29.5q53 0 87.5 -23t51.5 -60t17 -78q0 -47 -21.5 -92.5t-63.5 -74.5t-104 -29zM260 425q53 0 89.5 25.5t55 65t18.5 79.5q0 36 -14 67t-43 50t-74 19q-52 0 -88.5 -25.5t-55 -65t-18.5 -80.5
q0 -35 14 -66t43 -50t73 -19zM196 482l41 193h61q31 0 46 -16.5t15 -35.5q0 -20 -13.5 -38t-40.5 -23l29 -80h-30l-28 79h-34l-17 -79h-29zM298 649h-37l-14 -63h43q19 0 29 11t10 25q0 11 -8 19t-23 8z" />
    <glyph glyph-name="macron" unicode="&#xaf;" horiz-adv-x="340" 
d="M113 636l10 44h288l-10 -44h-288z" />
    <glyph glyph-name="degree" unicode="&#xb0;" horiz-adv-x="455" 
d="M296 413q-46 0 -84.5 22.5t-61 61t-22.5 84.5q0 47 22.5 85t61 61t84.5 23q47 0 85 -23t61 -61t23 -85q0 -46 -23 -84.5t-61 -61t-85 -22.5zM296 460q33 0 60.5 16.5t44 44t16.5 60.5q0 34 -16.5 61.5t-44 44t-60.5 16.5t-60.5 -16.5t-44 -44t-16.5 -61.5q0 -33 16 -60.5
t43.5 -44t61.5 -16.5z" />
    <glyph glyph-name="plusminus" unicode="&#xb1;" horiz-adv-x="621" 
d="M258 150l35 162h-162l11 49h161l34 161h50l-35 -161h162l-11 -49h-161l-34 -162h-50zM46 0l9 43h411l-9 -43h-411z" />
    <glyph glyph-name="uni00B2" unicode="&#xb2;" horiz-adv-x="398" 
d="M106 420l8 35l115 87q59 45 99 82.5t40 81.5q0 29 -20.5 47.5t-53.5 18.5q-31 0 -48.5 -13t-26 -30t-10.5 -29.5l-2 -12.5h-47l2 13t9 32t21.5 38t40 32t63.5 13q57 0 89 -31t32 -76q0 -37 -21 -68.5t-57 -62t-81 -62.5l-67 -51h197l-9 -44h-273z" />
    <glyph glyph-name="uni00B3" unicode="&#xb3;" horiz-adv-x="390" 
d="M245 415q-42 0 -68.5 12t-40.5 30t-20 36t-7 30.5l-1 12.5h46l2 -12t10 -27.5t27 -27.5t53 -12q47 0 71 24.5t24 54.5q0 35 -27 50.5t-55 15.5h-47l8 39h50q39 0 64.5 18.5t25.5 51.5q0 28 -20 46t-54 18q-31 0 -49 -11.5t-26 -26t-10.5 -25.5l-2.5 -11h-44l3.5 17.5
t16 40t39.5 39.5t75 17q57 0 88.5 -29t31.5 -69q0 -32 -15.5 -51.5t-35 -30t-29.5 -13.5l-1 -2q8 -3 23.5 -13t28 -28t12.5 -47q0 -28 -16.5 -55t-49 -44.5t-80.5 -17.5z" />
    <glyph glyph-name="acute" unicode="&#xb4;" horiz-adv-x="202" 
d="M156 615l-46 1l79 161h57z" />
    <glyph glyph-name="uni00B5" unicode="&#xb5;" horiz-adv-x="642" 
d="M8 -199l155 729h55l-72 -337q-15 -74 10.5 -114t86.5 -40q57 0 98.5 31.5t68 80.5t37.5 101l59 278h55l-86 -403q-10 -46 1.5 -67.5t52.5 -21.5q16 0 26 2l10 2l-10 -47l-11 -2.5t-31 -2.5q-51 0 -76.5 24.5t-17.5 84.5h-5q-6 -10 -19.5 -28t-34.5 -36.5t-51 -31.5
t-69 -13q-41 0 -66.5 11t-40 25.5t-20 25.5l-5.5 11l-4 -1q1 -15 -3 -59.5t-15 -94.5l-23 -107h-55z" />
    <glyph glyph-name="paragraph" unicode="&#xb6;" horiz-adv-x="504" 
d="M253 0h-41l75 354h-11q-62 0 -102 22.5t-59.5 59t-19.5 76.5q0 46 23.5 89t69 71t111.5 28h218l-149 -700h-41l139 652h-75z" />
    <glyph glyph-name="periodcentered" unicode="&#xb7;" horiz-adv-x="255" 
d="M100 331q-20 0 -33.5 14t-13.5 33t13.5 33t33.5 14q19 0 33 -14t14 -33t-14 -33t-33 -14z" />
    <glyph glyph-name="cedilla" unicode="&#xb8;" horiz-adv-x="234" 
d="M56 -249q-31 0 -53.5 6l-22.5 6l8 38l22.5 -5t45.5 -5q41 0 58.5 18t17.5 39t-15 36.5t-45 15.5q-24 0 -39.5 -8.5t-14.5 -8.5l-19 25l79 99h48l-57 -71q7 1 16 1q46 0 70.5 -26.5t24.5 -59.5q0 -37 -30 -68.5t-94 -31.5z" />
    <glyph glyph-name="uni00B9" unicode="&#xb9;" horiz-adv-x="257" 
d="M280 810l-83 -390h-48l65 309h-71l7 28l14 4q31 7 49 17t35 27l4 5h28z" />
    <glyph glyph-name="ordmasculine" unicode="&#xba;" horiz-adv-x="415" 
d="M256 418q-46 0 -75 20t-43.5 51.5t-14.5 68.5q0 45 20.5 89.5t59.5 73.5t95 29q45 0 74.5 -20t44 -51.5t14.5 -68.5q0 -45 -21 -89t-60 -73.5t-94 -29.5zM258 461q39 0 66.5 23t42 57t14.5 68q0 39 -21 68.5t-64 29.5q-39 0 -66.5 -22.5t-42.5 -56.5t-15 -69
q0 -39 21 -68.5t65 -29.5z" />
    <glyph glyph-name="guillemotright" unicode="&#xbb;" horiz-adv-x="595" 
d="M253 115l254 211l-154 200h58l160 -206l-247 -205h-71zM12 115l254 211l-154 200h58l160 -206l-247 -205h-71z" />
    <glyph glyph-name="onequarter" unicode="&#xbc;" horiz-adv-x="821" 
d="M249 710l-75 -355h-51l58 275l-66 -1l6 31l13 3q27 7 45.5 16t36.5 27l4 4h29zM183 0l377 700h55l-378 -700h-54zM667 -1l17 80h-174l10 45l209 230h65l-49 -231h58l-8 -44h-59l-18 -80h-51zM577 123h117l36 167z" />
    <glyph glyph-name="onehalf" unicode="&#xbd;" horiz-adv-x="830" 
d="M249 710l-75 -355h-51l58 275l-66 -1l6 31l13 3q27 7 45.5 16t36.5 27l4 4h29zM183 0l377 700h55l-378 -700h-54zM534 -1l8 35l103 78q53 39 89 72t36 71q0 27 -18 42.5t-47 15.5q-27 0 -42 -11t-22.5 -25.5t-9 -25.5l-1.5 -11h-49l3 18t15 41.5t38 41.5t71 18
q53 0 83 -29.5t30 -71.5q0 -33 -20 -62t-53 -56t-72 -56l-55 -41h175l-10 -44h-252z" />
    <glyph glyph-name="threequarters" unicode="&#xbe;" horiz-adv-x="920" 
d="M210 350q-49 0 -75.5 17t-37 39t-12.5 39l-2 17h49l1.5 -10.5t8.5 -24t23 -23.5t46 -10q40 0 61 21t21 47q0 29 -23 42.5t-47 13.5h-44l9 41h47q32 0 53.5 16t21.5 43q0 23 -17 38.5t-46 15.5q-27 0 -42.5 -9.5t-22.5 -22t-9 -22l-2 -9.5h-48l3 16t15 37t37.5 37t70.5 16
q54 0 83 -27t29 -63q0 -35 -22 -56.5t-50 -29.5l-1 -3q21 -8 39.5 -27t18.5 -51q0 -26 -15.5 -50.5t-45.5 -41t-75 -16.5zM308 0l378 700h54l-378 -700h-54zM792 -1l18 80h-175l10 45l209 230h66l-50 -231h59l-9 -44h-59l-17 -80h-52zM702 123h117l36 167z" />
    <glyph glyph-name="questiondown" unicode="&#xbf;" horiz-adv-x="584" 
d="M339 538q19 0 32 -13t13 -32q0 -18 -13 -31t-32 -13t-32 13t-13 31q0 19 13 32t32 13zM215 -222q-61 0 -108 24.5t-73.5 67t-26.5 98.5q0 51 19.5 89.5t50.5 68t66 55t67.5 50.5t55 54.5t28.5 68.5l2 18h53l-2 -19q-6 -46 -28.5 -80t-55 -61t-67 -51.5t-64.5 -51.5
t-49 -60t-19 -78q0 -65 44.5 -103.5t109.5 -38.5q53 0 87.5 19t55 46.5t30 55t12.5 46l3 18.5h54l-2.5 -17t-10.5 -44t-24 -57t-43 -57t-67.5 -44t-97.5 -17z" />
    <glyph glyph-name="Agrave" unicode="&#xc0;" horiz-adv-x="673" 
d="M439 825l-68 162h55l57 -161zM-6 0l422 740h68l108 -740h-56l-30 206h-331l-117 -206h-64zM203 256h296l-59 416z" />
    <glyph glyph-name="Aacute" unicode="&#xc1;" horiz-adv-x="673" 
d="M491 825l-46 1l79 161h57zM-6 0l422 740h68l108 -740h-56l-30 206h-331l-117 -206h-64zM203 256h296l-59 416z" />
    <glyph glyph-name="Acircumflex" unicode="&#xc2;" horiz-adv-x="673" 
d="M323 817l144 141h52l85 -141h-51l-63 107l-107 -107h-60zM-6 0l422 740h68l108 -740h-56l-30 206h-331l-117 -206h-64zM203 256h296l-59 416z" />
    <glyph glyph-name="Atilde" unicode="&#xc3;" horiz-adv-x="673" 
d="M538 829q-24 0 -39 12t-26 27.5t-21.5 27t-26.5 11.5q-18 0 -30 -20t-17 -52h-42q10 50 31.5 81.5t60.5 31.5q24 0 39.5 -11.5t26 -26.5t21 -27t25.5 -12q34 0 46 72h41q-9 -48 -30 -81t-59 -33zM-6 0l422 740h68l108 -740h-56l-30 206h-331l-117 -206h-64zM203 256h296
l-59 416z" />
    <glyph glyph-name="Adieresis" unicode="&#xc4;" horiz-adv-x="673" 
d="M556 834q-19 0 -31.5 13t-12.5 31t12.5 31t31.5 13t32 -13t13 -31t-13 -31t-32 -13zM400 834q-19 0 -31.5 13t-12.5 31t12.5 31t31.5 13t32 -13t13 -31t-13 -31t-32 -13zM-6 0l422 740h68l108 -740h-56l-30 206h-331l-117 -206h-64zM203 256h296l-59 416z" />
    <glyph glyph-name="Aring" unicode="&#xc5;" horiz-adv-x="673" 
d="M475 820q-44 0 -74.5 30.5t-30.5 74.5q0 43 30.5 74t74.5 31t74.5 -31t30.5 -74q0 -44 -30.5 -74.5t-74.5 -30.5zM475 863q26 0 44 18t18 44q0 25 -18 43.5t-44 18.5t-44 -18.5t-18 -43.5q0 -26 18 -44t44 -18zM-6 0l422 740h68l108 -740h-56l-30 206h-331l-117 -206h-64
zM203 256h296l-59 416z" />
    <glyph glyph-name="AE" unicode="&#xc6;" horiz-adv-x="954" 
d="M-6 0l542 740h460l-11 -51h-370l-60 -285h321l-10 -51h-322l-64 -302h375l-11 -51h-431l44 206h-246l-151 -206h-66zM248 256h219l90 421z" />
    <glyph glyph-name="Ccedilla" unicode="&#xc7;" horiz-adv-x="747" 
d="M304 -253q-31 0 -53 6l-22 6l8 39l22.5 -5.5t45.5 -5.5q40 0 58 18.5t18 39.5q0 20 -15.5 35.5t-44.5 15.5q-24 0 -39.5 -8t-14.5 -8l-20 24l71 88q-87 9 -142.5 55.5t-83 116.5t-27.5 150q0 77 25 154t74.5 141t122.5 102.5t169 38.5q67 0 112 -18t73.5 -46t43.5 -60
t21 -60t7 -46l1 -18h-57l-1 19.5t-9.5 49t-29.5 58.5t-60.5 49t-103.5 20q-81 0 -143 -34t-103.5 -89.5t-63 -123t-21.5 -134.5q0 -73 25.5 -135.5t78 -101t133.5 -38.5q63 0 107.5 20t74.5 49t47.5 58.5t25 49l7.5 19.5h58l-6 -18t-20 -46t-37.5 -60t-58 -60t-82.5 -46
t-111 -18l-46 -57q7 1 15 1q47 0 71 -26.5t24 -60.5q0 -37 -30 -68.5t-94 -31.5z" />
    <glyph glyph-name="Egrave" unicode="&#xc8;" horiz-adv-x="573" 
d="M377 825l-68 162h55l57 -161zM32 0l157 740h426l-11 -51h-370l-60 -285h322l-11 -51h-322l-64 -302h375l-10 -51h-432z" />
    <glyph glyph-name="Eacute" unicode="&#xc9;" horiz-adv-x="573" 
d="M429 825l-46 1l79 161h57zM32 0l157 740h426l-11 -51h-370l-60 -285h322l-11 -51h-322l-64 -302h375l-10 -51h-432z" />
    <glyph glyph-name="Ecircumflex" unicode="&#xca;" horiz-adv-x="573" 
d="M261 817l144 141h52l85 -141h-51l-63 107l-107 -107h-60zM32 0l157 740h426l-11 -51h-370l-60 -285h322l-11 -51h-322l-64 -302h375l-10 -51h-432z" />
    <glyph glyph-name="Edieresis" unicode="&#xcb;" horiz-adv-x="573" 
d="M494 834q-19 0 -31.5 13t-12.5 31t12.5 31t31.5 13t32 -13t13 -31t-13 -31t-32 -13zM338 834q-19 0 -31.5 13t-12.5 31t12.5 31t31.5 13t32 -13t13 -31t-13 -31t-32 -13zM32 0l157 740h426l-11 -51h-370l-60 -285h322l-11 -51h-322l-64 -302h375l-10 -51h-432z" />
    <glyph glyph-name="Igrave" unicode="&#xcc;" horiz-adv-x="231" 
d="M204 812l-68 162h55l58 -162h-45zM32 0l157 740h56l-157 -740h-56z" />
    <glyph glyph-name="Iacute" unicode="&#xcd;" horiz-adv-x="231" 
d="M256 812h-46l80 162h56zM32 0l157 740h56l-157 -740h-56z" />
    <glyph glyph-name="Icircumflex" unicode="&#xce;" horiz-adv-x="231" 
d="M92 804l147 157h52l81 -157h-50l-61 120l-110 -120h-59zM32 0l157 740h56l-157 -740h-56z" />
    <glyph glyph-name="Idieresis" unicode="&#xcf;" horiz-adv-x="231" 
d="M322 820q-19 0 -31.5 13.5t-12.5 31.5t12.5 31t31.5 13q18 0 31 -13t13 -31q0 -19 -13 -32t-31 -13zM166 820q-19 0 -31.5 13.5t-12.5 31.5t12.5 31t31.5 13q18 0 31 -13t13 -31q0 -19 -13 -32t-31 -13zM32 0l157 740h56l-157 -740h-56z" />
    <glyph glyph-name="Eth" unicode="&#xd0;" horiz-adv-x="757" 
d="M79 0l73 345h-105l11 50h105l73 345h176q79 0 137.5 -25t96 -68t56 -98.5t18.5 -116.5q0 -76 -28 -152.5t-82.5 -139.5t-133.5 -101.5t-181 -38.5h-216zM367 345h-159l-62 -294h150q88 0 156.5 34t115.5 89.5t71 122t24 132.5q0 69 -27 128t-83.5 95.5t-144.5 36.5h-127
l-62 -294h159z" />
    <glyph glyph-name="Ntilde" unicode="&#xd1;" horiz-adv-x="724" 
d="M559 829q-24 0 -39 12t-26 27.5t-21.5 27t-26.5 11.5q-18 0 -30 -20t-17 -52h-42q10 50 31.5 81.5t60.5 31.5q24 0 39.5 -11.5t26 -26.5t21 -27t25.5 -12q34 0 46 72h41q-9 -48 -30 -81t-59 -33zM32 0l157 740h54l302 -645l137 645h56l-157 -740h-53l-303 645l-137 -645
h-56z" />
    <glyph glyph-name="Ograve" unicode="&#xd2;" horiz-adv-x="784" 
d="M459 825l-68 162h55l57 -161zM357 -10q-75 0 -130.5 26t-91 70.5t-53 102t-17.5 120.5q0 78 26 156t76 142.5t122.5 103.5t165.5 39q75 0 130 -26t90.5 -71t53 -102t17.5 -120q0 -78 -26 -156t-75.5 -142.5t-122 -103.5t-165.5 -39zM358 42q79 0 140.5 34.5t104 91.5
t64.5 126t22 137q0 70 -25 131t-77 98.5t-133 37.5q-79 0 -140.5 -35t-104.5 -92t-65 -125.5t-22 -136.5q0 -70 25.5 -131t77.5 -98.5t133 -37.5z" />
    <glyph glyph-name="Oacute" unicode="&#xd3;" horiz-adv-x="784" 
d="M511 825l-46 1l79 161h57zM357 -10q-75 0 -130.5 26t-91 70.5t-53 102t-17.5 120.5q0 78 26 156t76 142.5t122.5 103.5t165.5 39q75 0 130 -26t90.5 -71t53 -102t17.5 -120q0 -78 -26 -156t-75.5 -142.5t-122 -103.5t-165.5 -39zM358 42q79 0 140.5 34.5t104 91.5
t64.5 126t22 137q0 70 -25 131t-77 98.5t-133 37.5q-79 0 -140.5 -35t-104.5 -92t-65 -125.5t-22 -136.5q0 -70 25.5 -131t77.5 -98.5t133 -37.5z" />
    <glyph glyph-name="Ocircumflex" unicode="&#xd4;" horiz-adv-x="784" 
d="M343 817l144 141h52l85 -141h-51l-63 107l-107 -107h-60zM357 -10q-75 0 -130.5 26t-91 70.5t-53 102t-17.5 120.5q0 78 26 156t76 142.5t122.5 103.5t165.5 39q75 0 130 -26t90.5 -71t53 -102t17.5 -120q0 -78 -26 -156t-75.5 -142.5t-122 -103.5t-165.5 -39zM358 42
q79 0 140.5 34.5t104 91.5t64.5 126t22 137q0 70 -25 131t-77 98.5t-133 37.5q-79 0 -140.5 -35t-104.5 -92t-65 -125.5t-22 -136.5q0 -70 25.5 -131t77.5 -98.5t133 -37.5z" />
    <glyph glyph-name="Otilde" unicode="&#xd5;" horiz-adv-x="784" 
d="M558 829q-24 0 -39 12t-26 27.5t-21.5 27t-26.5 11.5q-18 0 -30 -20t-17 -52h-42q10 50 31.5 81.5t60.5 31.5q24 0 39.5 -11.5t26 -26.5t21 -27t25.5 -12q34 0 46 72h41q-9 -48 -30 -81t-59 -33zM357 -10q-75 0 -130.5 26t-91 70.5t-53 102t-17.5 120.5q0 78 26 156
t76 142.5t122.5 103.5t165.5 39q75 0 130 -26t90.5 -71t53 -102t17.5 -120q0 -78 -26 -156t-75.5 -142.5t-122 -103.5t-165.5 -39zM358 42q79 0 140.5 34.5t104 91.5t64.5 126t22 137q0 70 -25 131t-77 98.5t-133 37.5q-79 0 -140.5 -35t-104.5 -92t-65 -125.5t-22 -136.5
q0 -70 25.5 -131t77.5 -98.5t133 -37.5z" />
    <glyph glyph-name="Odieresis" unicode="&#xd6;" horiz-adv-x="784" 
d="M576 834q-19 0 -31.5 13t-12.5 31t12.5 31t31.5 13t32 -13t13 -31t-13 -31t-32 -13zM420 834q-19 0 -31.5 13t-12.5 31t12.5 31t31.5 13t32 -13t13 -31t-13 -31t-32 -13zM357 -10q-75 0 -130.5 26t-91 70.5t-53 102t-17.5 120.5q0 78 26 156t76 142.5t122.5 103.5
t165.5 39q75 0 130 -26t90.5 -71t53 -102t17.5 -120q0 -78 -26 -156t-75.5 -142.5t-122 -103.5t-165.5 -39zM358 42q79 0 140.5 34.5t104 91.5t64.5 126t22 137q0 70 -25 131t-77 98.5t-133 37.5q-79 0 -140.5 -35t-104.5 -92t-65 -125.5t-22 -136.5q0 -70 25.5 -131
t77.5 -98.5t133 -37.5z" />
    <glyph glyph-name="multiply" unicode="&#xd7;" horiz-adv-x="517" 
d="M88 197l144 119l-89 114l37 35l91 -116l141 116l32 -37l-143 -118l90 -113l-37 -35l-92 116l-143 -118z" />
    <glyph glyph-name="Oslash" unicode="&#xd8;" horiz-adv-x="784" 
d="M37 -23l96 112q-35 44 -51.5 101t-16.5 119q0 78 26 156t76 142.5t122.5 103.5t165.5 39q59 0 106 -17t82 -46l65 77h66l-97 -113q35 -44 52 -101t17 -119q0 -78 -26 -156t-75.5 -142.5t-122 -103.5t-165.5 -39q-60 0 -107 17t-82 46l-65 -76h-66zM122 309q0 -49 12 -94
t37 -81l435 510q-28 25 -66 39.5t-86 14.5q-79 0 -140.5 -35t-104.5 -92t-65 -125.5t-22 -136.5zM358 42q79 0 140.5 34.5t104 91.5t64.5 126t22 137q0 49 -12 94.5t-37 81.5l-436 -511q29 -25 67 -39.5t87 -14.5z" />
    <glyph glyph-name="Ugrave" unicode="&#xd9;" horiz-adv-x="706" 
d="M442 825l-67 162h55l57 -161zM312 -10q-89 0 -144 38.5t-75 103t-3 143.5l99 465h56l-99 -469q-22 -104 23.5 -165.5t147.5 -61.5q67 0 117.5 28t83 78t45.5 115l101 475h56l-101 -475q-16 -79 -55.5 -141t-102 -98t-149.5 -36z" />
    <glyph glyph-name="Uacute" unicode="&#xda;" horiz-adv-x="706" 
d="M494 825l-46 1l80 161h56zM312 -10q-89 0 -144 38.5t-75 103t-3 143.5l99 465h56l-99 -469q-22 -104 23.5 -165.5t147.5 -61.5q67 0 117.5 28t83 78t45.5 115l101 475h56l-101 -475q-16 -79 -55.5 -141t-102 -98t-149.5 -36z" />
    <glyph glyph-name="Ucircumflex" unicode="&#xdb;" horiz-adv-x="706" 
d="M330 817l148 157h51l82 -157h-51l-60 120l-110 -120h-60zM312 -10q-89 0 -144 38.5t-75 103t-3 143.5l99 465h56l-99 -469q-22 -104 23.5 -165.5t147.5 -61.5q67 0 117.5 28t83 78t45.5 115l101 475h56l-101 -475q-16 -79 -55.5 -141t-102 -98t-149.5 -36z" />
    <glyph glyph-name="Udieresis" unicode="&#xdc;" horiz-adv-x="706" 
d="M560 834q-19 0 -31.5 13t-12.5 31t12.5 31t31.5 13t32 -13t13 -31t-13 -31t-32 -13zM404 834q-19 0 -31.5 13t-12.5 31t12.5 31t31.5 13t32 -13t13 -31t-13 -31t-32 -13zM312 -10q-89 0 -144 38.5t-75 103t-3 143.5l99 465h56l-99 -469q-22 -104 23.5 -165.5t147.5 -61.5
q67 0 117.5 28t83 78t45.5 115l101 475h56l-101 -475q-16 -79 -55.5 -141t-102 -98t-149.5 -36z" />
    <glyph glyph-name="Yacute" unicode="&#xdd;" horiz-adv-x="616" 
d="M440 825l-46 1l80 161h56zM220 0l58 274l-165 466h57l144 -409l317 409h67l-364 -467l-58 -273h-56z" />
    <glyph glyph-name="Thorn" unicode="&#xde;" horiz-adv-x="616" 
d="M32 0l157 740h56l-29 -140h153q78 0 129 -29t75.5 -76t24.5 -100q0 -46 -18 -91.5t-54 -82.5t-88.5 -59t-121.5 -22h-198l-30 -140h-56zM366 549h-161l-76 -358h191q72 0 121.5 30.5t75 76.5t25.5 94q0 40 -19 76t-58 58.5t-99 22.5z" />
    <glyph glyph-name="germandbls" unicode="&#xdf;" horiz-adv-x="606" 
d="M402 753q86 0 139.5 -47t53.5 -123q0 -65 -43 -119.5t-123 -76.5v-3q30 -8 57 -32.5t44.5 -59.5t17.5 -74q0 -63 -35.5 -114.5t-98.5 -82.5t-146 -31q-24 0 -48 1.5t-41 3l-17 1.5l9 50l16 -1.5t38 -3t41 -1.5q69 0 119.5 24t77.5 65t27 91q0 61 -41 101.5t-110 40.5h-91
l11 48h91q54 0 96.5 23t66.5 61.5t24 84.5q0 61 -40.5 92t-96.5 31q-44 0 -85 -16.5t-72.5 -57t-46.5 -111.5l-110 -520h-55l112 524q24 115 92 173.5t167 58.5z" />
    <glyph glyph-name="agrave" unicode="&#xe0;" horiz-adv-x="607" 
d="M349 615l-68 162h55l57 -161zM334 540q51 0 84.5 -17t53.5 -40t29 -43t11 -25h5l25 115h55l-113 -530h-56l20 92h-4l-11.5 -15.5t-34.5 -35.5t-58 -35.5t-82 -15.5q-67 0 -111.5 32.5t-66.5 84.5t-22 112q0 57 18.5 114t54 103.5t87 75t116.5 28.5zM336 490
q-53 0 -94.5 -24t-70 -64.5t-43.5 -88.5t-15 -95t16 -87.5t49.5 -65.5t86.5 -25q52 0 93.5 24.5t70.5 64.5t44 88.5t15 95.5q0 48 -16 88t-49.5 64.5t-86.5 24.5z" />
    <glyph glyph-name="aacute" unicode="&#xe1;" horiz-adv-x="607" 
d="M401 615l-46 1l79 161h57zM334 540q51 0 84.5 -17t53.5 -40t29 -43t11 -25h5l25 115h55l-113 -530h-56l20 92h-4l-11.5 -15.5t-34.5 -35.5t-58 -35.5t-82 -15.5q-67 0 -111.5 32.5t-66.5 84.5t-22 112q0 57 18.5 114t54 103.5t87 75t116.5 28.5zM336 490q-53 0 -94.5 -24
t-70 -64.5t-43.5 -88.5t-15 -95t16 -87.5t49.5 -65.5t86.5 -25q52 0 93.5 24.5t70.5 64.5t44 88.5t15 95.5q0 48 -16 88t-49.5 64.5t-86.5 24.5z" />
    <glyph glyph-name="acircumflex" unicode="&#xe2;" horiz-adv-x="607" 
d="M237 607l147 157h52l81 -157h-51l-60 120l-110 -120h-59zM334 540q51 0 84.5 -17t53.5 -40t29 -43t11 -25h5l25 115h55l-113 -530h-56l20 92h-4l-11.5 -15.5t-34.5 -35.5t-58 -35.5t-82 -15.5q-67 0 -111.5 32.5t-66.5 84.5t-22 112q0 57 18.5 114t54 103.5t87 75
t116.5 28.5zM336 490q-53 0 -94.5 -24t-70 -64.5t-43.5 -88.5t-15 -95t16 -87.5t49.5 -65.5t86.5 -25q52 0 93.5 24.5t70.5 64.5t44 88.5t15 95.5q0 48 -16 88t-49.5 64.5t-86.5 24.5z" />
    <glyph glyph-name="atilde" unicode="&#xe3;" horiz-adv-x="607" 
d="M448 619q-24 0 -39 12t-26 27.5t-21.5 27t-26.5 11.5q-18 0 -30 -20t-17 -52h-42q10 50 31.5 81.5t60.5 31.5q24 0 39.5 -11.5t26 -26.5t21 -27t25.5 -12q34 0 46 72h41q-9 -48 -30 -81t-59 -33zM334 540q51 0 84.5 -17t53.5 -40t29 -43t11 -25h5l25 115h55l-113 -530
h-56l20 92h-4l-11.5 -15.5t-34.5 -35.5t-58 -35.5t-82 -15.5q-67 0 -111.5 32.5t-66.5 84.5t-22 112q0 57 18.5 114t54 103.5t87 75t116.5 28.5zM336 490q-53 0 -94.5 -24t-70 -64.5t-43.5 -88.5t-15 -95t16 -87.5t49.5 -65.5t86.5 -25q52 0 93.5 24.5t70.5 64.5t44 88.5
t15 95.5q0 48 -16 88t-49.5 64.5t-86.5 24.5z" />
    <glyph glyph-name="adieresis" unicode="&#xe4;" horiz-adv-x="607" 
d="M467 624q-19 0 -31.5 13t-12.5 31t12.5 31.5t31.5 13.5q18 0 31 -13.5t13 -31.5t-13 -31t-31 -13zM311 624q-19 0 -31.5 13t-12.5 31t12.5 31.5t31.5 13.5q18 0 31 -13.5t13 -31.5t-13 -31t-31 -13zM334 540q51 0 84.5 -17t53.5 -40t29 -43t11 -25h5l25 115h55l-113 -530
h-56l20 92h-4l-11.5 -15.5t-34.5 -35.5t-58 -35.5t-82 -15.5q-67 0 -111.5 32.5t-66.5 84.5t-22 112q0 57 18.5 114t54 103.5t87 75t116.5 28.5zM336 490q-53 0 -94.5 -24t-70 -64.5t-43.5 -88.5t-15 -95t16 -87.5t49.5 -65.5t86.5 -25q52 0 93.5 24.5t70.5 64.5t44 88.5
t15 95.5q0 48 -16 88t-49.5 64.5t-86.5 24.5z" />
    <glyph glyph-name="aring" unicode="&#xe5;" horiz-adv-x="607" 
d="M385 610q-44 0 -74.5 30.5t-30.5 74.5q0 43 30.5 74t74.5 31t74.5 -31t30.5 -74q0 -44 -30.5 -74.5t-74.5 -30.5zM385 653q26 0 44 18t18 44q0 25 -18 43.5t-44 18.5t-44 -18.5t-18 -43.5q0 -26 18 -44t44 -18zM334 540q51 0 84.5 -17t53.5 -40t29 -43t11 -25h5l25 115
h55l-113 -530h-56l20 92h-4l-11.5 -15.5t-34.5 -35.5t-58 -35.5t-82 -15.5q-67 0 -111.5 32.5t-66.5 84.5t-22 112q0 57 18.5 114t54 103.5t87 75t116.5 28.5zM336 490q-53 0 -94.5 -24t-70 -64.5t-43.5 -88.5t-15 -95t16 -87.5t49.5 -65.5t86.5 -25q52 0 93.5 24.5
t70.5 64.5t44 88.5t15 95.5q0 48 -16 88t-49.5 64.5t-86.5 24.5z" />
    <glyph glyph-name="ae" unicode="&#xe6;" horiz-adv-x="931" 
d="M193 -10q-74 0 -118 40.5t-44 103.5t48 108t142 49l197 8l8 39q5 24 3.5 50.5t-13.5 50t-38.5 38t-71.5 14.5q-52 0 -83 -17.5t-47.5 -40.5t-22 -40.5l-5.5 -17.5h-55l5 17t18 41.5t37 49t62 41t92 16.5q67 0 111 -30.5t56 -89.5h3q36 54 91 87t123 33q63 0 104.5 -23.5
t63 -63.5t26 -89t-6.5 -100l-3 -12h-411q-6 -56 8.5 -104.5t51.5 -78t97 -29.5q50 0 84 17t54.5 39.5t29.5 40l9 17.5h53l-7 -16.5t-23.5 -41t-43.5 -49t-66.5 -41t-93.5 -16.5q-85 0 -134 45t-65 110h-3l-7.5 -15.5t-23.5 -38.5t-42 -46.5t-62.5 -39t-86.5 -15.5zM473 298
h357q8 50 -2.5 93.5t-44 71t-95.5 27.5q-55 0 -98 -26t-73 -70t-44 -96zM202 36q51 0 92 26.5t69 68.5t38 91l6 31l-183 -7q-64 -3 -101.5 -31t-37.5 -78q0 -49 34.5 -75t82.5 -26z" />
    <glyph glyph-name="ccedilla" unicode="&#xe7;" horiz-adv-x="559" 
d="M193 -257q-31 0 -53.5 6l-22.5 6l8 39l23 -5.5t45 -5.5q41 0 59 18.5t18 39.5q0 20 -15.5 35.5t-45.5 15.5q-23 0 -38.5 -8l-15.5 -8l-19 24l75 94q-57 9 -94 42t-55 81t-18 103q0 62 19 119t55.5 102.5t90 72t122.5 26.5q58 0 94.5 -18t56 -45t27.5 -54t9.5 -45l1.5 -18
h-53l-1 13t-7 32.5t-20.5 39t-41.5 32.5t-70 13q-73 0 -123.5 -38t-77.5 -98.5t-27 -130.5q0 -49 17 -90.5t52 -67t89 -25.5q53 0 87.5 19.5t54.5 45.5t28 45.5l8 19.5h56l-7 -18t-22.5 -45t-42.5 -54t-67.5 -45t-95.5 -18l-50 -61q7 1 16 1q47 0 71 -26.5t24 -60.5
q0 -37 -30 -68.5t-94 -31.5z" />
    <glyph glyph-name="egrave" unicode="&#xe8;" horiz-adv-x="561" 
d="M331 614l-67 162h55l57 -162h-45zM252 -10q-72 0 -118.5 32t-69 83.5t-22.5 111.5q0 58 19.5 115t56.5 104t89.5 75.5t118.5 28.5q63 0 104.5 -23.5t63 -63.5t25.5 -89t-7 -100l-2 -12h-411q-6 -57 8.5 -105t51 -77.5t96.5 -29.5q50 0 84 17t55 39.5t30 40l9 17.5h53
l-7.5 -16.5t-23.5 -41t-43.5 -49t-66.5 -41t-93 -16.5zM108 298h356q8 50 -2 93.5t-43.5 71t-95.5 27.5q-55 0 -98.5 -26t-73 -70t-43.5 -96z" />
    <glyph glyph-name="eacute" unicode="&#xe9;" horiz-adv-x="561" 
d="M383 614h-46l80 162h56zM252 -10q-72 0 -118.5 32t-69 83.5t-22.5 111.5q0 58 19.5 115t56.5 104t89.5 75.5t118.5 28.5q63 0 104.5 -23.5t63 -63.5t25.5 -89t-7 -100l-2 -12h-411q-6 -57 8.5 -105t51 -77.5t96.5 -29.5q50 0 84 17t55 39.5t30 40l9 17.5h53l-7.5 -16.5
t-23.5 -41t-43.5 -49t-66.5 -41t-93 -16.5zM108 298h356q8 50 -2 93.5t-43.5 71t-95.5 27.5q-55 0 -98.5 -26t-73 -70t-43.5 -96z" />
    <glyph glyph-name="ecircumflex" unicode="&#xea;" horiz-adv-x="561" 
d="M219 606l148 157h51l82 -157h-51l-60 120l-110 -120h-60zM252 -10q-72 0 -118.5 32t-69 83.5t-22.5 111.5q0 58 19.5 115t56.5 104t89.5 75.5t118.5 28.5q63 0 104.5 -23.5t63 -63.5t25.5 -89t-7 -100l-2 -12h-411q-6 -57 8.5 -105t51 -77.5t96.5 -29.5q50 0 84 17
t55 39.5t30 40l9 17.5h53l-7.5 -16.5t-23.5 -41t-43.5 -49t-66.5 -41t-93 -16.5zM108 298h356q8 50 -2 93.5t-43.5 71t-95.5 27.5q-55 0 -98.5 -26t-73 -70t-43.5 -96z" />
    <glyph glyph-name="edieresis" unicode="&#xeb;" horiz-adv-x="561" 
d="M449 622q-19 0 -31.5 13.5t-12.5 31.5t12.5 31t31.5 13t32 -13t13 -31q0 -19 -13 -32t-32 -13zM293 622q-19 0 -31.5 13.5t-12.5 31.5t12.5 31t31.5 13t32 -13t13 -31q0 -19 -13 -32t-32 -13zM252 -10q-72 0 -118.5 32t-69 83.5t-22.5 111.5q0 58 19.5 115t56.5 104
t89.5 75.5t118.5 28.5q63 0 104.5 -23.5t63 -63.5t25.5 -89t-7 -100l-2 -12h-411q-6 -57 8.5 -105t51 -77.5t96.5 -29.5q50 0 84 17t55 39.5t30 40l9 17.5h53l-7.5 -16.5t-23.5 -41t-43.5 -49t-66.5 -41t-93 -16.5zM108 298h356q8 50 -2 93.5t-43.5 71t-95.5 27.5
q-55 0 -98.5 -26t-73 -70t-43.5 -96z" />
    <glyph glyph-name="igrave" unicode="&#xec;" horiz-adv-x="229" 
d="M156 615l-68 162h55l57 -161zM27 0l113 530h54l-113 -530h-54z" />
    <glyph glyph-name="iacute" unicode="&#xed;" horiz-adv-x="229" 
d="M208 615l-46 1l79 161h57zM27 0l113 530h54l-113 -530h-54z" />
    <glyph glyph-name="icircumflex" unicode="&#xee;" horiz-adv-x="229" 
d="M44 607l147 157h52l81 -157h-51l-60 120l-110 -120h-59zM27 0l113 530h54l-113 -530h-54z" />
    <glyph glyph-name="idieresis" unicode="&#xef;" horiz-adv-x="229" 
d="M273 624q-19 0 -31.5 13t-12.5 31t12.5 31t31.5 13t32 -13t13 -31t-13 -31t-32 -13zM117 624q-19 0 -31.5 13t-12.5 31t12.5 31t31.5 13t32 -13t13 -31t-13 -31t-32 -13zM27 0l113 530h54l-113 -530h-54z" />
    <glyph glyph-name="eth" unicode="&#xf0;" horiz-adv-x="615" 
d="M270 -10q-74 0 -121.5 32.5t-70.5 85t-23 112.5q0 57 19 113t54.5 102.5t87.5 74.5t118 28q58 0 95 -20.5t58.5 -50.5t32.5 -58q-12 66 -40.5 118.5t-65.5 92.5t-76 68l-126 -64l-13 39l101 52q-48 30 -82 43l-34 13l20 42l20.5 -7.5t53 -23.5t71.5 -42l139 72l12 -40
l-113 -59q46 -35 88.5 -85.5t69.5 -117t27 -150.5q0 -74 -22 -140.5t-62.5 -118t-95.5 -81.5t-122 -30zM271 40q54 0 96 24t71.5 63.5t44.5 86.5t15 94q0 48 -17 89.5t-52.5 67t-91.5 25.5q-53 0 -95.5 -24t-71.5 -63.5t-44 -87t-15 -93.5q0 -49 17 -90.5t52.5 -66.5
t90.5 -25z" />
    <glyph glyph-name="ntilde" unicode="&#xf1;" horiz-adv-x="561" 
d="M433 619q-24 0 -39 12t-26 27.5t-21.5 27t-26.5 11.5q-18 0 -30 -20t-17 -52h-42q10 50 31.5 81.5t60.5 31.5q24 0 39.5 -11.5t26 -26.5t21 -27t25.5 -12q34 0 46 72h41q-9 -48 -30 -81t-59 -33zM27 0l113 530h56l-22 -99h4q7 11 20.5 29t35.5 36.5t52.5 31t69.5 12.5
q58 0 95.5 -28t51.5 -74.5t2 -101.5l-71 -336h-55l72 340q9 40 0 74.5t-35.5 55.5t-73.5 21q-55 0 -95.5 -30.5t-66.5 -79.5t-39 -107l-58 -274h-56z" />
    <glyph glyph-name="ograve" unicode="&#xf2;" horiz-adv-x="582" 
d="M323 615l-67 162h55l57 -161zM253 -10q-72 0 -118.5 32.5t-69 85t-22.5 112.5q0 56 19 112.5t55 103.5t88.5 75.5t120.5 28.5q72 0 118.5 -32.5t69 -84.5t22.5 -113q0 -56 -19 -112.5t-55.5 -103.5t-89 -75.5t-119.5 -28.5zM255 40q53 0 95.5 24t71.5 63.5t44 87t15 94.5
q0 48 -17 89t-51.5 66.5t-88.5 25.5t-96 -24t-71.5 -63.5t-44.5 -87t-15 -94.5q0 -48 17 -89t52 -66.5t89 -25.5z" />
    <glyph glyph-name="oacute" unicode="&#xf3;" horiz-adv-x="582" 
d="M375 615l-46 1l80 161h56zM253 -10q-72 0 -118.5 32.5t-69 85t-22.5 112.5q0 56 19 112.5t55 103.5t88.5 75.5t120.5 28.5q72 0 118.5 -32.5t69 -84.5t22.5 -113q0 -56 -19 -112.5t-55.5 -103.5t-89 -75.5t-119.5 -28.5zM255 40q53 0 95.5 24t71.5 63.5t44 87t15 94.5
q0 48 -17 89t-51.5 66.5t-88.5 25.5t-96 -24t-71.5 -63.5t-44.5 -87t-15 -94.5q0 -48 17 -89t52 -66.5t89 -25.5z" />
    <glyph glyph-name="ocircumflex" unicode="&#xf4;" horiz-adv-x="582" 
d="M211 607l148 157h51l82 -157h-51l-60 120l-110 -120h-60zM253 -10q-72 0 -118.5 32.5t-69 85t-22.5 112.5q0 56 19 112.5t55 103.5t88.5 75.5t120.5 28.5q72 0 118.5 -32.5t69 -84.5t22.5 -113q0 -56 -19 -112.5t-55.5 -103.5t-89 -75.5t-119.5 -28.5zM255 40
q53 0 95.5 24t71.5 63.5t44 87t15 94.5q0 48 -17 89t-51.5 66.5t-88.5 25.5t-96 -24t-71.5 -63.5t-44.5 -87t-15 -94.5q0 -48 17 -89t52 -66.5t89 -25.5z" />
    <glyph glyph-name="otilde" unicode="&#xf5;" horiz-adv-x="582" 
d="M422 619q-23 0 -38 12t-26 27.5t-22 27t-26 11.5q-18 0 -30 -20t-18 -52h-41q9 50 30.5 81.5t60.5 31.5q25 0 40.5 -11.5t26 -26.5t21 -27t25.5 -12q34 0 46 72h41q-9 -48 -30 -81t-60 -33zM253 -10q-72 0 -118.5 32.5t-69 85t-22.5 112.5q0 56 19 112.5t55 103.5
t88.5 75.5t120.5 28.5q72 0 118.5 -32.5t69 -84.5t22.5 -113q0 -56 -19 -112.5t-55.5 -103.5t-89 -75.5t-119.5 -28.5zM255 40q53 0 95.5 24t71.5 63.5t44 87t15 94.5q0 48 -17 89t-51.5 66.5t-88.5 25.5t-96 -24t-71.5 -63.5t-44.5 -87t-15 -94.5q0 -48 17 -89t52 -66.5
t89 -25.5z" />
    <glyph glyph-name="odieresis" unicode="&#xf6;" horiz-adv-x="582" 
d="M441 624q-19 0 -31.5 13t-12.5 31t12.5 31t31.5 13t32 -13t13 -31t-13 -31t-32 -13zM285 624q-19 0 -31.5 13t-12.5 31t12.5 31t31.5 13t32 -13t13 -31t-13 -31t-32 -13zM253 -10q-72 0 -118.5 32.5t-69 85t-22.5 112.5q0 56 19 112.5t55 103.5t88.5 75.5t120.5 28.5
q72 0 118.5 -32.5t69 -84.5t22.5 -113q0 -56 -19 -112.5t-55.5 -103.5t-89 -75.5t-119.5 -28.5zM255 40q53 0 95.5 24t71.5 63.5t44 87t15 94.5q0 48 -17 89t-51.5 66.5t-88.5 25.5t-96 -24t-71.5 -63.5t-44.5 -87t-15 -94.5q0 -48 17 -89t52 -66.5t89 -25.5z" />
    <glyph glyph-name="divide" unicode="&#xf7;" horiz-adv-x="598" 
d="M339 425q-20 0 -33 13.5t-13 33.5q0 19 13 32.5t33 13.5t33.5 -13.5t13.5 -32.5q0 -20 -13.5 -33.5t-33.5 -13.5zM107 285l10 48h388l-10 -48h-388zM271 99q-20 0 -33 14t-13 33t13 32.5t33 13.5t33.5 -13.5t13.5 -32.5t-13.5 -33t-33.5 -14z" />
    <glyph glyph-name="oslash" unicode="&#xf8;" horiz-adv-x="599" 
d="M103 -50l41 74q-46 31 -67.5 83.5t-21.5 112.5q0 56 19 112.5t55 103.5t88.5 75.5t120.5 28.5q44 0 81 -14l30 55h49l-41 -74q46 -31 68.5 -84t22.5 -113q0 -56 -19 -112.5t-55.5 -103.5t-89 -75.5t-119.5 -28.5q-46 0 -83 14l-30 -54h-49zM109 221q0 -45 15 -85t46 -64
l224 408q-27 10 -58 10q-54 0 -96 -24t-71.5 -63.5t-44.5 -87t-15 -94.5zM267 40q53 0 95.5 24t71.5 63.5t44 87t15 94.5q0 46 -15 86t-47 64l-224 -409q27 -10 60 -10z" />
    <glyph glyph-name="ugrave" unicode="&#xf9;" horiz-adv-x="553" 
d="M328 615l-68 162h55l57 -161zM202 -10q-79 0 -116.5 54.5t-17.5 149.5l71 336h56l-72 -337q-15 -74 9 -114t87 -40q58 0 100.5 32.5t69.5 86t40 114.5l54 258h56l-112 -530h-56l20 96h-4q-11 -16 -34.5 -41.5t-60.5 -45t-90 -19.5z" />
    <glyph glyph-name="uacute" unicode="&#xfa;" horiz-adv-x="553" 
d="M380 615l-46 1l79 161h57zM202 -10q-79 0 -116.5 54.5t-17.5 149.5l71 336h56l-72 -337q-15 -74 9 -114t87 -40q58 0 100.5 32.5t69.5 86t40 114.5l54 258h56l-112 -530h-56l20 96h-4q-11 -16 -34.5 -41.5t-60.5 -45t-90 -19.5z" />
    <glyph glyph-name="ucircumflex" unicode="&#xfb;" horiz-adv-x="553" 
d="M216 607l147 157h52l81 -157h-51l-60 120l-110 -120h-59zM202 -10q-79 0 -116.5 54.5t-17.5 149.5l71 336h56l-72 -337q-15 -74 9 -114t87 -40q58 0 100.5 32.5t69.5 86t40 114.5l54 258h56l-112 -530h-56l20 96h-4q-11 -16 -34.5 -41.5t-60.5 -45t-90 -19.5z" />
    <glyph glyph-name="udieresis" unicode="&#xfc;" horiz-adv-x="553" 
d="M445 624q-19 0 -31.5 13t-12.5 31t12.5 31t31.5 13t32 -13t13 -31t-13 -31t-32 -13zM289 624q-19 0 -31.5 13t-12.5 31t12.5 31t31.5 13t32 -13t13 -31t-13 -31t-32 -13zM202 -10q-79 0 -116.5 54.5t-17.5 149.5l71 336h56l-72 -337q-15 -74 9 -114t87 -40
q58 0 100.5 32.5t69.5 86t40 114.5l54 258h56l-112 -530h-56l20 96h-4q-11 -16 -34.5 -41.5t-60.5 -45t-90 -19.5z" />
    <glyph glyph-name="yacute" unicode="&#xfd;" horiz-adv-x="536" 
d="M354 615l-46 1l79 161h57zM-25 -196q-19 0 -31 2l-12 2l10 50l13.5 -1.5t28.5 -1.5q53 0 102.5 34t91.5 102l4 8l-94 531h55l82 -463l278 463h63l-337 -554q-53 -88 -116.5 -130t-137.5 -42z" />
    <glyph glyph-name="thorn" unicode="&#xfe;" horiz-adv-x="623" 
d="M-10 -195l156 725v0l49 230h55l-49 -230v0l-20 -92h4l11.5 15.5t34.5 35.5t58 35.5t82 15.5q67 0 111.5 -32.5t66.5 -84.5t22 -112q0 -57 -18.5 -114t-54 -103.5t-86.5 -75t-117 -28.5q-51 0 -84.5 17t-53.5 40t-29 43t-11 25h-5l-24 -115v0l-42 -195h-56zM141 217
q0 -48 16 -88t50 -64.5t87 -24.5t94 24t70 64.5t44 88.5t15 95t-16 87.5t-50 65.5t-86 25q-53 0 -94 -24.5t-70 -64.5t-44.5 -88.5t-15.5 -95.5z" />
    <glyph glyph-name="ydieresis" unicode="&#xff;" horiz-adv-x="536" 
d="M419 624q-19 0 -31.5 13t-12.5 31t12.5 31t31.5 13t32 -13t13 -31t-13 -31t-32 -13zM263 624q-19 0 -31.5 13t-12.5 31t12.5 31t31.5 13t32 -13t13 -31t-13 -31t-32 -13zM-25 -196q-19 0 -31 2l-12 2l10 50l13.5 -1.5t28.5 -1.5q53 0 102.5 34t91.5 102l4 8l-94 531h55
l82 -463l278 463h63l-337 -554q-53 -88 -116.5 -130t-137.5 -42z" />
    <glyph glyph-name="Amacron" unicode="&#x100;" horiz-adv-x="673" 
d="M328 846l9 44h288l-9 -44h-288zM-6 0l422 740h68l108 -740h-56l-30 206h-331l-117 -206h-64zM203 256h296l-59 416z" />
    <glyph glyph-name="amacron" unicode="&#x101;" horiz-adv-x="607" 
d="M238 636l9 44h288l-9 -44h-288zM334 540q51 0 84.5 -17t53.5 -40t29 -43t11 -25h5l25 115h55l-113 -530h-56l20 92h-4l-11.5 -15.5t-34.5 -35.5t-58 -35.5t-82 -15.5q-67 0 -111.5 32.5t-66.5 84.5t-22 112q0 57 18.5 114t54 103.5t87 75t116.5 28.5zM336 490
q-53 0 -94.5 -24t-70 -64.5t-43.5 -88.5t-15 -95t16 -87.5t49.5 -65.5t86.5 -25q52 0 93.5 24.5t70.5 64.5t44 88.5t15 95.5q0 48 -16 88t-49.5 64.5t-86.5 24.5z" />
    <glyph glyph-name="Abreve" unicode="&#x102;" horiz-adv-x="673" 
d="M475 820q-41 0 -65.5 12.5t-37 30.5t-17.5 36t-5 30v12h44v-12t6 -28t23.5 -28t51.5 -12q35 0 57 12t35 28t18.5 28l5.5 12h44l-6.5 -18t-23.5 -42t-48.5 -42.5t-81.5 -18.5zM-6 0l422 740h68l108 -740h-56l-30 206h-331l-117 -206h-64zM203 256h296l-59 416z" />
    <glyph glyph-name="abreve" unicode="&#x103;" horiz-adv-x="607" 
d="M385 610q-42 0 -67 14t-37 34.5t-15.5 41t-3 34.5l0.5 14h45l-1 -14.5t4 -33.5t21.5 -33.5t52.5 -14.5t59 14.5t36 33.5t18 33.5l5 14.5h45l-3.5 -14t-13 -34.5t-27.5 -41t-47 -34.5t-72 -14zM334 540q51 0 84.5 -17t53.5 -40t29 -43t11 -25h5l25 115h55l-113 -530h-56
l20 92h-4l-11.5 -15.5t-34.5 -35.5t-58 -35.5t-82 -15.5q-67 0 -111.5 32.5t-66.5 84.5t-22 112q0 57 18.5 114t54 103.5t87 75t116.5 28.5zM336 490q-53 0 -94.5 -24t-70 -64.5t-43.5 -88.5t-15 -95t16 -87.5t49.5 -65.5t86.5 -25q52 0 93.5 24.5t70.5 64.5t44 88.5
t15 95.5q0 48 -16 88t-49.5 64.5t-86.5 24.5z" />
    <glyph glyph-name="Aogonek" unicode="&#x104;" horiz-adv-x="673" 
d="M-6 0l422 740h68l108 -740h-19l-11 -5t-26 -14.5t-26 -24t-11 -33.5q0 -39 52 -39q15 0 27.5 2.5l12.5 2.5l-8 -38l-12 -3t-31 -3q-40 0 -63 18.5t-23 50.5q0 27 14.5 46t33.5 31t32 18l-28 197h-331l-117 -206h-64zM203 256h296l-59 416z" />
    <glyph glyph-name="aogonek" unicode="&#x105;" horiz-adv-x="607" 
d="M451 -155q-40 0 -63 18.5t-23 50.5q0 34 21.5 55t42.5 32l19 91h-4l-11.5 -15.5t-34.5 -35.5t-58 -35.5t-82 -15.5q-67 0 -111.5 32.5t-66.5 84.5t-22 112q0 57 18.5 114t54 103.5t87 75t116.5 28.5q51 0 84.5 -17t53.5 -40t29 -43t11 -25h5l25 115h55l-113 -530l-11 -5
t-26 -14.5t-26 -24t-11 -33.5q0 -39 52 -39q15 0 27.5 2.5l12.5 2.5l-8 -38l-12 -3t-31 -3zM336 490q-53 0 -94.5 -24t-70 -64.5t-43.5 -88.5t-15 -95t16 -87.5t49.5 -65.5t86.5 -25q52 0 93.5 24.5t70.5 64.5t44 88.5t15 95.5q0 48 -16 88t-49.5 64.5t-86.5 24.5z" />
    <glyph glyph-name="Cacute" unicode="&#x106;" horiz-adv-x="747" 
d="M524 825l-46 1l80 161h56zM356 -10q-75 0 -129.5 26.5t-90.5 71.5t-53.5 103.5t-17.5 122.5q0 77 25 154t74.5 141t122.5 102.5t169 38.5q67 0 112 -18t73.5 -46t43.5 -60t21 -60t7 -46l1 -18h-57l-1 19.5t-9.5 49t-29.5 58.5t-60.5 49t-103.5 20q-81 0 -143 -34
t-103.5 -89.5t-63 -123t-21.5 -134.5q0 -73 25.5 -135.5t78 -101t133.5 -38.5q63 0 107.5 20t74.5 49t47.5 58.5t25 49l7.5 19.5h58l-6 -18t-20 -46t-38 -60t-60 -60t-85 -46t-114 -18z" />
    <glyph glyph-name="cacute" unicode="&#x107;" horiz-adv-x="559" 
d="M394 615l-46 1l80 161h56zM254 -10q-72 0 -118.5 32t-69 84.5t-22.5 113.5q0 62 19 119t55.5 102.5t90 72t122.5 26.5q58 0 94.5 -18t56 -45t27.5 -54t9.5 -45l1.5 -18h-53l-1 13t-7 32.5t-20.5 39t-41.5 32.5t-70 13q-73 0 -123.5 -38t-77.5 -98.5t-27 -130.5
q0 -49 17 -90.5t52 -67t89 -25.5q53 0 87.5 19.5t54.5 45.5t28 45.5l8 19.5h56l-7 -18t-22.5 -45t-43 -54t-68 -45t-96.5 -18z" />
    <glyph glyph-name="Cdotaccent" unicode="&#x10a;" horiz-adv-x="747" 
d="M514 839q-19 0 -31.5 13t-12.5 31t12.5 31t31.5 13q18 0 31 -13t13 -31t-13 -31t-31 -13zM356 -10q-75 0 -129.5 26.5t-90.5 71.5t-53.5 103.5t-17.5 122.5q0 77 25 154t74.5 141t122.5 102.5t169 38.5q67 0 112 -18t73.5 -46t43.5 -60t21 -60t7 -46l1 -18h-57l-1 19.5
t-9.5 49t-29.5 58.5t-60.5 49t-103.5 20q-81 0 -143 -34t-103.5 -89.5t-63 -123t-21.5 -134.5q0 -73 25.5 -135.5t78 -101t133.5 -38.5q63 0 107.5 20t74.5 49t47.5 58.5t25 49l7.5 19.5h58l-6 -18t-20 -46t-38 -60t-60 -60t-85 -46t-114 -18z" />
    <glyph glyph-name="cdotaccent" unicode="&#x10b;" horiz-adv-x="559" 
d="M384 629q-19 0 -31.5 13t-12.5 31t12.5 31t31.5 13q18 0 31 -13t13 -31t-13 -31t-31 -13zM254 -10q-72 0 -118.5 32t-69 84.5t-22.5 113.5q0 62 19 119t55.5 102.5t90 72t122.5 26.5q58 0 94.5 -18t56 -45t27.5 -54t9.5 -45l1.5 -18h-53l-1 13t-7 32.5t-20.5 39
t-41.5 32.5t-70 13q-73 0 -123.5 -38t-77.5 -98.5t-27 -130.5q0 -49 17 -90.5t52 -67t89 -25.5q53 0 87.5 19.5t54.5 45.5t28 45.5l8 19.5h56l-7 -18t-22.5 -45t-43 -54t-68 -45t-96.5 -18z" />
    <glyph glyph-name="Ccaron" unicode="&#x10c;" horiz-adv-x="747" 
d="M468 817l-81 157h51l60 -120l110 120h59l-147 -157h-52zM356 -10q-75 0 -129.5 26.5t-90.5 71.5t-53.5 103.5t-17.5 122.5q0 77 25 154t74.5 141t122.5 102.5t169 38.5q67 0 112 -18t73.5 -46t43.5 -60t21 -60t7 -46l1 -18h-57l-1 19.5t-9.5 49t-29.5 58.5t-60.5 49
t-103.5 20q-81 0 -143 -34t-103.5 -89.5t-63 -123t-21.5 -134.5q0 -73 25.5 -135.5t78 -101t133.5 -38.5q63 0 107.5 20t74.5 49t47.5 58.5t25 49l7.5 19.5h58l-6 -18t-20 -46t-38 -60t-60 -60t-85 -46t-114 -18z" />
    <glyph glyph-name="ccaron" unicode="&#x10d;" horiz-adv-x="559" 
d="M338 607l-81 157h51l60 -120l110 120h59l-147 -157h-52zM254 -10q-72 0 -118.5 32t-69 84.5t-22.5 113.5q0 62 19 119t55.5 102.5t90 72t122.5 26.5q58 0 94.5 -18t56 -45t27.5 -54t9.5 -45l1.5 -18h-53l-1 13t-7 32.5t-20.5 39t-41.5 32.5t-70 13q-73 0 -123.5 -38
t-77.5 -98.5t-27 -130.5q0 -49 17 -90.5t52 -67t89 -25.5q53 0 87.5 19.5t54.5 45.5t28 45.5l8 19.5h56l-7 -18t-22.5 -45t-43 -54t-68 -45t-96.5 -18z" />
    <glyph glyph-name="Dcaron" unicode="&#x10e;" horiz-adv-x="710" 
d="M382 817l-81 157h50l61 -120l110 120h59l-147 -157h-52zM32 0l157 740h177q79 0 137 -25t96 -68t56.5 -98.5t18.5 -116.5q0 -76 -28 -152.5t-82.5 -139.5t-134 -101.5t-181.5 -38.5h-216zM362 689h-128l-135 -638h150q89 0 157 34t115 89.5t71.5 122t24.5 132.5
q0 69 -27.5 128t-84 95.5t-143.5 36.5z" />
    <glyph glyph-name="dcaron" unicode="&#x10f;" horiz-adv-x="653" 
d="M255 -10q-67 0 -111.5 32.5t-66.5 84.5t-22 112q0 57 18.5 114t54 103.5t86.5 75t117 28.5q51 0 84.5 -17t53.5 -40t29 -43t11 -25h5l74 345h55l-163 -760h-55l20 92h-4l-11.5 -15.5t-34.5 -35.5t-58 -35.5t-82 -15.5zM696 592l40 168h55l-55 -168h-40zM261 40
q53 0 94 24.5t70 64.5t44.5 88.5t15.5 95.5q0 48 -16 88t-50 64.5t-87 24.5t-94 -24t-70 -64.5t-44 -88.5t-15 -95t16 -87.5t50 -65.5t86 -25z" />
    <glyph glyph-name="Dcroat" unicode="&#x110;" horiz-adv-x="757" 
d="M79 0l73 345h-105l11 50h105l73 345h176q79 0 137.5 -25t96 -68t56 -98.5t18.5 -116.5q0 -76 -28 -152.5t-82.5 -139.5t-133.5 -101.5t-181 -38.5h-216zM367 345h-159l-62 -294h150q88 0 156.5 34t115.5 89.5t71 122t24 132.5q0 69 -27 128t-83.5 95.5t-144.5 36.5h-127
l-62 -294h159z" />
    <glyph glyph-name="dcroat" unicode="&#x111;" horiz-adv-x="638" 
d="M255 -10q-67 0 -111.5 32.5t-66.5 84.5t-22 112q0 57 18.5 114t54 103.5t86.5 75t117 28.5q51 0 84.5 -17t53.5 -40t29 -43t11 -25h5l44 206h-139l10 47h139l20 92h55l-20 -92h96l-10 -47h-96l-133 -621h-55l20 92h-4l-11.5 -15.5t-34.5 -35.5t-58 -35.5t-82 -15.5z
M261 40q53 0 94 24.5t70 64.5t44.5 88.5t15.5 95.5q0 48 -16 88t-50 64.5t-87 24.5t-94 -24t-70 -64.5t-44 -88.5t-15 -95t16 -87.5t50 -65.5t86 -25z" />
    <glyph glyph-name="Emacron" unicode="&#x112;" horiz-adv-x="573" 
d="M266 846l9 44h288l-9 -44h-288zM32 0l157 740h426l-11 -51h-370l-60 -285h322l-11 -51h-322l-64 -302h375l-10 -51h-432z" />
    <glyph glyph-name="emacron" unicode="&#x113;" horiz-adv-x="561" 
d="M221 634l9 44h288l-9 -44h-288zM252 -10q-72 0 -118.5 32t-69 83.5t-22.5 111.5q0 58 19.5 115t56.5 104t89.5 75.5t118.5 28.5q63 0 104.5 -23.5t63 -63.5t25.5 -89t-7 -100l-2 -12h-411q-6 -57 8.5 -105t51 -77.5t96.5 -29.5q50 0 84 17t55 39.5t30 40l9 17.5h53
l-7.5 -16.5t-23.5 -41t-43.5 -49t-66.5 -41t-93 -16.5zM108 298h356q8 50 -2 93.5t-43.5 71t-95.5 27.5q-55 0 -98.5 -26t-73 -70t-43.5 -96z" />
    <glyph glyph-name="Edotaccent" unicode="&#x116;" horiz-adv-x="573" 
d="M418 839q-19 0 -31.5 13t-12.5 31t12.5 31t31.5 13t32 -13t13 -31t-13 -31t-32 -13zM32 0l157 740h426l-11 -51h-370l-60 -285h322l-11 -51h-322l-64 -302h375l-10 -51h-432z" />
    <glyph glyph-name="edotaccent" unicode="&#x117;" horiz-adv-x="561" 
d="M373 627q-19 0 -31.5 13.5t-12.5 31.5t12.5 31t31.5 13q18 0 31 -13t13 -31q0 -19 -13 -32t-31 -13zM252 -10q-72 0 -118.5 32t-69 83.5t-22.5 111.5q0 58 19.5 115t56.5 104t89.5 75.5t118.5 28.5q63 0 104.5 -23.5t63 -63.5t25.5 -89t-7 -100l-2 -12h-411
q-6 -57 8.5 -105t51 -77.5t96.5 -29.5q50 0 84 17t55 39.5t30 40l9 17.5h53l-7.5 -16.5t-23.5 -41t-43.5 -49t-66.5 -41t-93 -16.5zM108 298h356q8 50 -2 93.5t-43.5 71t-95.5 27.5q-55 0 -98.5 -26t-73 -70t-43.5 -96z" />
    <glyph glyph-name="Eogonek" unicode="&#x118;" horiz-adv-x="573" 
d="M32 0l157 740h426l-11 -51h-370l-60 -285h322l-11 -51h-322l-64 -302h375l-10 -51l-11 -5t-26 -14.5t-26 -24t-11 -33.5q0 -39 52 -39q15 0 27.5 2.5l12.5 2.5l-8 -38l-12 -3t-31 -3q-40 0 -63 18.5t-23 50.5q0 33 20.5 54t41.5 32h-375z" />
    <glyph glyph-name="eogonek" unicode="&#x119;" horiz-adv-x="561" 
d="M259 -162q-41 0 -64 18.5t-23 50.5t19 52t39 32q-64 5 -105.5 37.5t-62 82t-20.5 106.5q0 58 19.5 115t56.5 104t89.5 75.5t118.5 28.5q63 0 104.5 -23.5t63 -63.5t25.5 -89t-7 -100l-2 -12h-411q-6 -57 8.5 -105t51 -77.5t96.5 -29.5q50 0 84 17t55 39.5t30 40l9 17.5
h53l-10 -22t-32.5 -51.5t-60.5 -55t-94 -32.5q-6 -3 -23 -12t-32.5 -25.5t-15.5 -39.5q0 -39 52 -39q14 0 27 2.5l13 2.5l-8 -38l-12 -3t-31 -3zM108 298h356q8 50 -2 93.5t-43.5 71t-95.5 27.5q-55 0 -98.5 -26t-73 -70t-43.5 -96z" />
    <glyph glyph-name="Ecaron" unicode="&#x11a;" horiz-adv-x="573" 
d="M373 817l-82 157h51l60 -120l110 120h60l-148 -157h-51zM32 0l157 740h426l-11 -51h-370l-60 -285h322l-11 -51h-322l-64 -302h375l-10 -51h-432z" />
    <glyph glyph-name="ecaron" unicode="&#x11b;" horiz-adv-x="561" 
d="M327 606l-81 157h51l60 -120l110 120h59l-147 -157h-52zM252 -10q-72 0 -118.5 32t-69 83.5t-22.5 111.5q0 58 19.5 115t56.5 104t89.5 75.5t118.5 28.5q63 0 104.5 -23.5t63 -63.5t25.5 -89t-7 -100l-2 -12h-411q-6 -57 8.5 -105t51 -77.5t96.5 -29.5q50 0 84 17
t55 39.5t30 40l9 17.5h53l-7.5 -16.5t-23.5 -41t-43.5 -49t-66.5 -41t-93 -16.5zM108 298h356q8 50 -2 93.5t-43.5 71t-95.5 27.5q-55 0 -98.5 -26t-73 -70t-43.5 -96z" />
    <glyph glyph-name="Gbreve" unicode="&#x11e;" horiz-adv-x="759" 
d="M490 820q-43 0 -68 14t-37 34.5t-15.5 41t-3 34.5l0.5 14h45l-1 -14.5t4 -33.5t22 -33.5t53 -14.5t59 14.5t36 33.5t18 33.5l5 14.5h45l-3.5 -14t-13.5 -34.5t-28 -41t-47 -34.5t-71 -14zM360 -10q-76 0 -131.5 26t-91.5 71.5t-54 103.5t-18 122q0 78 25 155t74.5 141
t122.5 102.5t169 38.5q67 0 112 -18t73.5 -46t43.5 -60t21 -60t7 -46l1 -18h-57l-1 19.5t-9.5 49t-29.5 58.5t-60.5 49t-103.5 20q-81 0 -143 -34t-103.5 -89.5t-63 -123t-21.5 -135.5q0 -72 25.5 -134.5t79 -101t136.5 -38.5q62 0 111 23.5t83.5 63.5t55.5 90.5t28 103.5
h-229l10 49h282l-8 -53q-9 -64 -34.5 -123t-67 -105.5t-100 -73.5t-134.5 -27z" />
    <glyph glyph-name="gbreve" unicode="&#x11f;" horiz-adv-x="607" 
d="M384 610q-42 0 -67 14t-37 34.5t-16 41t-3 34.5l1 14h45l-1 -14.5t3.5 -33.5t21.5 -33.5t53 -14.5t59 14.5t36 33.5t18 33.5l5 14.5h45l-3.5 -14t-13 -34.5t-28 -41t-47.5 -34.5t-71 -14zM204 -210q-62 0 -101.5 16.5t-61 40.5t-30 47.5t-10 40l-1.5 16.5h55l1 -11
t7.5 -28t22 -33.5t44.5 -27.5t75 -11q72 0 117 28.5t69.5 73t34.5 91.5l13 62h-4l-11 -15t-33.5 -34t-57.5 -33.5t-84 -14.5q-69 0 -114.5 31.5t-68 82.5t-22.5 111q0 56 18.5 112t54.5 102.5t88 74.5t118 28q53 0 88.5 -18.5t55.5 -42t28 -42l8 -18.5h5l23 111h55
l-106 -500q-26 -120 -96.5 -180t-179.5 -60zM258 48q53 0 94.5 23.5t70.5 62.5t44 85.5t15 92.5q0 48 -17 88.5t-52 65t-90 24.5q-53 0 -94.5 -23t-70.5 -61.5t-44 -85t-15 -92.5q0 -47 17 -88.5t52.5 -66.5t89.5 -25z" />
    <glyph glyph-name="Gdotaccent" unicode="&#x120;" horiz-adv-x="759" 
d="M494 839q-19 0 -31.5 13t-12.5 31t12.5 31t31.5 13t32 -13t13 -31t-13 -31t-32 -13zM360 -10q-76 0 -131.5 26t-91.5 71.5t-54 103.5t-18 122q0 78 25 155t74.5 141t122.5 102.5t169 38.5q67 0 112 -18t73.5 -46t43.5 -60t21 -60t7 -46l1 -18h-57l-1 19.5t-9.5 49
t-29.5 58.5t-60.5 49t-103.5 20q-81 0 -143 -34t-103.5 -89.5t-63 -123t-21.5 -135.5q0 -72 25.5 -134.5t79 -101t136.5 -38.5q62 0 111 23.5t83.5 63.5t55.5 90.5t28 103.5h-229l10 49h282l-8 -53q-9 -64 -34.5 -123t-67 -105.5t-100 -73.5t-134.5 -27z" />
    <glyph glyph-name="gdotaccent" unicode="&#x121;" horiz-adv-x="607" 
d="M389 629q-19 0 -31.5 13t-12.5 31t12.5 31t31.5 13q18 0 31 -13t13 -31t-13 -31t-31 -13zM204 -210q-62 0 -101.5 16.5t-61 40.5t-30 47.5t-10 40l-1.5 16.5h55l1 -11t7.5 -28t22 -33.5t44.5 -27.5t75 -11q72 0 117 28.5t69.5 73t34.5 91.5l13 62h-4l-11 -15t-33.5 -34
t-57.5 -33.5t-84 -14.5q-69 0 -114.5 31.5t-68 82.5t-22.5 111q0 56 18.5 112t54.5 102.5t88 74.5t118 28q53 0 88.5 -18.5t55.5 -42t28 -42l8 -18.5h5l23 111h55l-106 -500q-26 -120 -96.5 -180t-179.5 -60zM258 48q53 0 94.5 23.5t70.5 62.5t44 85.5t15 92.5
q0 48 -17 88.5t-52 65t-90 24.5q-53 0 -94.5 -23t-70.5 -61.5t-44 -85t-15 -92.5q0 -47 17 -88.5t52.5 -66.5t89.5 -25z" />
    <glyph glyph-name="Hbar" unicode="&#x126;" horiz-adv-x="765" 
d="M79 0l129 608h-96l10 50h96l18 82h56l-18 -82h385l18 82h56l-18 -82h97l-11 -50h-96l-129 -608h-56l76 360h-385l-76 -360h-56zM222 410h385l42 198h-385z" />
    <glyph glyph-name="hbar" unicode="&#x127;" horiz-adv-x="604" 
d="M70 0l133 621h-99l10 47h99l19 92h56l-20 -92h136l-10 -47h-136l-19 -91v0l-1 -5l-20 -94h3q7 11 20.5 29t35.5 36.5t52.5 31t69.5 12.5q58 0 95.5 -28t51.5 -74.5t2 -101.5l-71 -336h-55l72 340q9 40 0 74.5t-35.5 55.5t-73.5 21q-55 0 -95.5 -30.5t-66.5 -79.5
t-39 -107l-58 -274h-56z" />
    <glyph glyph-name="Itilde" unicode="&#x128;" horiz-adv-x="231" 
d="M303 816q-24 0 -39 11.5t-25.5 27t-21.5 27.5t-26 12q-19 0 -31 -20t-17 -53h-41q9 50 30.5 82t60.5 32q25 0 40 -11.5t26 -27t21 -27t25 -11.5q34 0 46 72h42q-10 -48 -31 -81t-59 -33zM32 0l157 740h56l-157 -740h-56z" />
    <glyph glyph-name="itilde" unicode="&#x129;" horiz-adv-x="229" 
d="M255 619q-24 0 -39 12t-26 27.5t-21.5 27t-26.5 11.5q-18 0 -30 -20t-17 -52h-42q10 50 31.5 81.5t60.5 31.5q24 0 39.5 -11.5t26 -26.5t21 -27t25.5 -12q34 0 46 72h41q-9 -48 -30 -81t-59 -33zM27 0l113 530h54l-113 -530h-54z" />
    <glyph glyph-name="Imacron" unicode="&#x12a;" horiz-adv-x="231" 
d="M93 832l10 44h288l-10 -44h-288zM32 0l157 740h56l-157 -740h-56z" />
    <glyph glyph-name="imacron" unicode="&#x12b;" horiz-adv-x="229" 
d="M45 636l9 44h288l-9 -44h-288zM27 0l113 530h54l-113 -530h-54z" />
    <glyph glyph-name="Iogonek" unicode="&#x12e;" horiz-adv-x="231" 
d="M56 -155q-41 0 -64 18.5t-23 50.5q0 33 21.5 54t41.5 32l157 740h56l-157 -740l-11 -5t-25.5 -14.5t-25.5 -24t-11 -33.5q0 -39 52 -39q15 0 27.5 2.5l12.5 2.5l-8 -38l-12 -3t-31 -3z" />
    <glyph glyph-name="iogonek" unicode="&#x12f;" horiz-adv-x="229" 
d="M197 629q-19 0 -31.5 13t-12.5 31t12.5 31t31.5 13t32 -13t13 -31t-13 -31t-32 -13zM49 -155q-41 0 -64 18.5t-23 50.5q0 34 22 55t43 32l113 529h54l-113 -530l-11 -5t-25.5 -14.5t-25.5 -24t-11 -33.5q0 -39 52 -39q15 0 27.5 2.5l12.5 2.5l-8 -38l-12 -3t-31 -3z" />
    <glyph glyph-name="Idotaccent" unicode="&#x130;" horiz-adv-x="231" 
d="M245 825q-19 0 -31.5 13.5t-12.5 31.5t12.5 31t31.5 13t32 -13t13 -31q0 -19 -13 -32t-32 -13zM32 0l157 740h56l-157 -740h-56z" />
    <glyph glyph-name="dotlessi" unicode="&#x131;" horiz-adv-x="229" 
d="M27 0l113 530h54l-113 -530h-54z" />
    <glyph glyph-name="Lacute" unicode="&#x139;" horiz-adv-x="584" 
d="M259 825l-46 1l80 161h56zM32 0l157 740h56l-146 -689h387l-11 -51h-443z" />
    <glyph glyph-name="lacute" unicode="&#x13a;" horiz-adv-x="232" 
d="M282 927l-46 1l79 161h57zM32 0l163 760h55l-162 -760h-56z" />
    <glyph glyph-name="Lcaron" unicode="&#x13d;" horiz-adv-x="584" 
d="M203 817l-81 157h51l60 -120l110 120h59l-147 -157h-52zM32 0l157 740h56l-146 -689h387l-11 -51h-443z" />
    <glyph glyph-name="lcaron" unicode="&#x13e;" horiz-adv-x="234" 
d="M32 0l163 760h55l-162 -760h-56zM277 592l40 168h55l-55 -168h-40z" />
    <glyph glyph-name="Lslash" unicode="&#x141;" horiz-adv-x="625" 
d="M73 0l72 338l-118 -44l10 53l119 45l74 348h56l-69 -326l155 58l-10 -53l-156 -58l-66 -310h386l-10 -51h-443z" />
    <glyph glyph-name="lslash" unicode="&#x142;" horiz-adv-x="385" 
d="M113 0l75 347l-142 -53l10 53l143 54l77 359h55l-72 -337l132 49l-10 -53l-133 -50l-79 -369h-56z" />
    <glyph glyph-name="Nacute" unicode="&#x143;" horiz-adv-x="724" 
d="M512 825l-46 1l79 161h57zM32 0l157 740h54l302 -645l137 645h56l-157 -740h-53l-303 645l-137 -645h-56z" />
    <glyph glyph-name="nacute" unicode="&#x144;" horiz-adv-x="561" 
d="M386 615l-46 1l79 161h57zM27 0l113 530h56l-22 -99h4q7 11 20.5 29t35.5 36.5t52.5 31t69.5 12.5q58 0 95.5 -28t51.5 -74.5t2 -101.5l-71 -336h-55l72 340q9 40 0 74.5t-35.5 55.5t-73.5 21q-55 0 -95.5 -30.5t-66.5 -79.5t-39 -107l-58 -274h-56z" />
    <glyph glyph-name="Ncaron" unicode="&#x147;" horiz-adv-x="724" 
d="M456 817l-82 157h51l60 -120l110 120h60l-148 -157h-51zM32 0l157 740h54l302 -645l137 645h56l-157 -740h-53l-303 645l-137 -645h-56z" />
    <glyph glyph-name="ncaron" unicode="&#x148;" horiz-adv-x="561" 
d="M330 607l-82 157h51l60 -120l110 120h60l-148 -157h-51zM27 0l113 530h56l-22 -99h4q7 11 20.5 29t35.5 36.5t52.5 31t69.5 12.5q58 0 95.5 -28t51.5 -74.5t2 -101.5l-71 -336h-55l72 340q9 40 0 74.5t-35.5 55.5t-73.5 21q-55 0 -95.5 -30.5t-66.5 -79.5t-39 -107
l-58 -274h-56z" />
    <glyph glyph-name="Omacron" unicode="&#x14c;" horiz-adv-x="784" 
d="M348 846l9 44h288l-9 -44h-288zM357 -10q-75 0 -130.5 26t-91 70.5t-53 102t-17.5 120.5q0 78 26 156t76 142.5t122.5 103.5t165.5 39q75 0 130 -26t90.5 -71t53 -102t17.5 -120q0 -78 -26 -156t-75.5 -142.5t-122 -103.5t-165.5 -39zM358 42q79 0 140.5 34.5t104 91.5
t64.5 126t22 137q0 70 -25 131t-77 98.5t-133 37.5q-79 0 -140.5 -35t-104.5 -92t-65 -125.5t-22 -136.5q0 -70 25.5 -131t77.5 -98.5t133 -37.5z" />
    <glyph glyph-name="omacron" unicode="&#x14d;" horiz-adv-x="582" 
d="M213 636l9 44h288l-9 -44h-288zM253 -10q-72 0 -118.5 32.5t-69 85t-22.5 112.5q0 56 19 112.5t55 103.5t88.5 75.5t120.5 28.5q72 0 118.5 -32.5t69 -84.5t22.5 -113q0 -56 -19 -112.5t-55.5 -103.5t-89 -75.5t-119.5 -28.5zM255 40q53 0 95.5 24t71.5 63.5t44 87
t15 94.5q0 48 -17 89t-51.5 66.5t-88.5 25.5t-96 -24t-71.5 -63.5t-44.5 -87t-15 -94.5q0 -48 17 -89t52 -66.5t89 -25.5z" />
    <glyph glyph-name="Ohungarumlaut" unicode="&#x150;" horiz-adv-x="784" 
d="M438 825l-51 1l99 161h61zM571 825l-51 1l102 161h61zM357 -10q-75 0 -130.5 26t-91 70.5t-53 102t-17.5 120.5q0 78 26 156t76 142.5t122.5 103.5t165.5 39q75 0 130 -26t90.5 -71t53 -102t17.5 -120q0 -78 -26 -156t-75.5 -142.5t-122 -103.5t-165.5 -39zM358 42
q79 0 140.5 34.5t104 91.5t64.5 126t22 137q0 70 -25 131t-77 98.5t-133 37.5q-79 0 -140.5 -35t-104.5 -92t-65 -125.5t-22 -136.5q0 -70 25.5 -131t77.5 -98.5t133 -37.5z" />
    <glyph glyph-name="ohungarumlaut" unicode="&#x151;" horiz-adv-x="582" 
d="M302 615l-50 1l99 161h60zM436 615l-51 1l102 161h61zM253 -10q-72 0 -118.5 32.5t-69 85t-22.5 112.5q0 56 19 112.5t55 103.5t88.5 75.5t120.5 28.5q72 0 118.5 -32.5t69 -84.5t22.5 -113q0 -56 -19 -112.5t-55.5 -103.5t-89 -75.5t-119.5 -28.5zM255 40q53 0 95.5 24
t71.5 63.5t44 87t15 94.5q0 48 -17 89t-51.5 66.5t-88.5 25.5t-96 -24t-71.5 -63.5t-44.5 -87t-15 -94.5q0 -48 17 -89t52 -66.5t89 -25.5z" />
    <glyph glyph-name="OE" unicode="&#x152;" horiz-adv-x="932" 
d="M974 740l-11 -51h-373l-61 -285h325l-10 -51h-326l-63 -302h378l-11 -51h-452q-79 0 -137 25t-95.5 68.5t-56 98.5t-18.5 116q0 76 28 152.5t82.5 139.5t133.5 101.5t181 38.5h486zM120 311q0 -69 27 -128t83.5 -95.5t144.5 -36.5h24l135 638h-47q-88 0 -156.5 -34
t-115.5 -89.5t-71 -122t-24 -132.5z" />
    <glyph glyph-name="oe" unicode="&#x153;" horiz-adv-x="1010" 
d="M265 -10q-72 0 -118.5 32.5t-69 85t-22.5 112.5q0 56 19 112.5t55 103.5t88.5 75.5t120.5 28.5q82 0 130.5 -43.5t65.5 -108.5q35 66 95.5 109t140.5 43q63 0 104.5 -23.5t63 -63.5t26 -89t-6.5 -100l-3 -12h-411q-5 -58 10 -106.5t51.5 -77t95.5 -28.5q50 0 84 17
t54.5 39.5t29.5 40l9 17.5h53l-7 -16.5t-23.5 -41t-43.5 -49t-66.5 -41t-93.5 -16.5q-82 0 -130 42.5t-66 107.5q-34 -65 -94 -107.5t-141 -42.5zM552 298h357q8 50 -2.5 93.5t-44 71t-95.5 27.5q-55 0 -98 -26t-73 -70t-44 -96zM267 40q54 0 96 24.5t71 65t44 87.5t15 93
q0 48 -17 88.5t-51.5 66t-88.5 25.5t-96 -24t-71.5 -63.5t-44.5 -87t-15 -94.5q0 -48 17 -89t52 -66.5t89 -25.5z" />
    <glyph glyph-name="Racute" unicode="&#x154;" horiz-adv-x="612" 
d="M435 825l-46 1l80 161h56zM32 0l157 740h200q72 0 118.5 -26.5t69.5 -68.5t23 -90q0 -50 -25 -98.5t-73 -82t-117 -40.5l126 -334h-58l-125 332h-169l-71 -332h-56zM388 689h-154l-64 -306h187q60 0 101.5 25.5t63 65t21.5 79.5q0 36 -16.5 66.5t-51 50t-87.5 19.5z" />
    <glyph glyph-name="racute" unicode="&#x155;" horiz-adv-x="378" 
d="M301 615l-46 1l79 161h57zM32 0l113 530h56l-16 -71h4q23 31 61 56t95 25q19 0 34 -2l15 -2l-11 -53l-14.5 2t-31.5 2q-41 0 -78.5 -20t-66.5 -66.5t-46 -125.5l-58 -275h-56z" />
    <glyph glyph-name="Rcaron" unicode="&#x158;" horiz-adv-x="612" 
d="M379 817l-81 157h51l60 -120l110 120h59l-147 -157h-52zM32 0l157 740h200q72 0 118.5 -26.5t69.5 -68.5t23 -90q0 -50 -25 -98.5t-73 -82t-117 -40.5l126 -334h-58l-125 332h-169l-71 -332h-56zM388 689h-154l-64 -306h187q60 0 101.5 25.5t63 65t21.5 79.5
q0 36 -16.5 66.5t-51 50t-87.5 19.5z" />
    <glyph glyph-name="rcaron" unicode="&#x159;" horiz-adv-x="378" 
d="M245 607l-82 157h51l60 -120l110 120h60l-148 -157h-51zM32 0l113 530h56l-16 -71h4q23 31 61 56t95 25q19 0 34 -2l15 -2l-11 -53l-14.5 2t-31.5 2q-41 0 -78.5 -20t-66.5 -66.5t-46 -125.5l-58 -275h-56z" />
    <glyph glyph-name="Sacute" unicode="&#x15a;" horiz-adv-x="605" 
d="M445 825l-46 1l79 161h57zM290 -10q-67 0 -113 16.5t-74.5 42t-44 54.5t-21.5 55t-7 42l-1 16h55l1.5 -17.5t10.5 -43.5t30.5 -52t61 -43.5t102.5 -17.5q49 0 92.5 18.5t71 53t27.5 82.5q0 55 -34.5 86.5t-83.5 54.5l-80 38q-38 18 -69.5 41t-51 57t-19.5 84
q0 54 30 97.5t83 69.5t122 26q70 0 114.5 -21t68.5 -52.5t34 -62.5t11.5 -52l1.5 -21h-54l-2 16t-10 39.5t-26.5 47.5t-52 40t-85.5 16q-78 0 -128 -39t-50 -102q0 -52 31 -82.5t77 -51.5l75 -35q39 -19 74.5 -43t58 -60t22.5 -90q0 -61 -34 -107.5t-90.5 -73t-123.5 -26.5z
" />
    <glyph glyph-name="sacute" unicode="&#x15b;" horiz-adv-x="488" 
d="M329 615l-46 1l80 161h56zM212 -10q-57 0 -93 16.5t-55.5 41.5t-27.5 49.5t-9.5 41l-1.5 16.5h55l2 -17.5t13.5 -40t39 -40t78.5 -17.5q59 0 97.5 28t38.5 72q0 37 -23.5 57t-55.5 35l-61 29q-45 20 -74.5 50.5t-29.5 80.5q0 41 21 74.5t60.5 53.5t93.5 20
q52 0 84.5 -15.5t50.5 -38t26 -45t10 -38l2 -15.5h-54l-2.5 15.5t-14 36t-36 36t-68.5 15.5q-53 0 -86 -25.5t-33 -68.5q0 -33 21 -53t52 -34l61 -28q26 -12 51.5 -29t42.5 -43t17 -66q0 -44 -24 -79t-67.5 -55t-100.5 -20z" />
    <glyph glyph-name="Scedilla" unicode="&#x15e;" horiz-adv-x="605" 
d="M290 -10h-5l-46 -57q7 1 16 1q46 0 70.5 -26.5t24.5 -60.5q0 -37 -30 -68.5t-94 -31.5q-31 0 -53.5 6l-22.5 6l8 39l22.5 -5.5t45.5 -5.5q41 0 58.5 18.5t17.5 39.5q0 20 -15 35.5t-45 15.5q-24 0 -39.5 -8t-14.5 -8l-19 24l71 89q-66 8 -106.5 33t-62.5 57t-31 62.5
t-10 50.5l-1 20h55l1.5 -17.5t10.5 -43.5t30.5 -52t61 -43.5t102.5 -17.5q49 0 92.5 18.5t71 53t27.5 82.5q0 55 -34.5 86.5t-83.5 54.5l-80 38q-38 18 -69.5 41t-51 57t-19.5 84q0 54 30 97.5t83 69.5t122 26q70 0 114.5 -21t68.5 -52.5t34 -62.5t11.5 -52l1.5 -21h-54
l-2 16t-10 39.5t-26.5 47.5t-52 40t-85.5 16q-78 0 -128 -39t-50 -102q0 -52 31 -82.5t77 -51.5l75 -35q39 -19 74.5 -43t58 -60t22.5 -90q0 -61 -34 -107.5t-90.5 -73t-123.5 -26.5z" />
    <glyph glyph-name="scedilla" unicode="&#x15f;" horiz-adv-x="488" 
d="M155 -253q-31 0 -53 6l-22 6l8 39l22.5 -5.5t45.5 -5.5q40 0 58 18.5t18 39.5q0 20 -15.5 35.5t-44.5 15.5q-24 0 -39.5 -8t-14.5 -8l-20 24l72 89q-45 7 -72.5 25.5t-42.5 41.5t-21.5 45t-7.5 36l-1 14h55l2 -17.5t13.5 -40t39 -40t78.5 -17.5q59 0 97.5 28t38.5 72
q0 37 -23.5 57t-55.5 35l-61 29q-45 20 -74.5 50.5t-29.5 80.5q0 41 21 74.5t60.5 53.5t93.5 20q52 0 84.5 -15.5t50.5 -38t26 -45t10 -38l2 -15.5h-54l-2.5 15.5t-14 36t-36 36t-68.5 15.5q-53 0 -86 -25.5t-33 -68.5q0 -33 21 -53t52 -34l61 -28q26 -12 51.5 -29t42.5 -43
t17 -66q0 -44 -24 -79t-67 -55t-98 -20l-46 -57q7 1 15 1q47 0 71 -26.5t24 -60.5q0 -37 -30 -68.5t-94 -31.5z" />
    <glyph glyph-name="Scaron" unicode="&#x160;" horiz-adv-x="605" 
d="M389 817l-82 157h51l60 -120l110 120h60l-148 -157h-51zM290 -10q-67 0 -113 16.5t-74.5 42t-44 54.5t-21.5 55t-7 42l-1 16h55l1.5 -17.5t10.5 -43.5t30.5 -52t61 -43.5t102.5 -17.5q49 0 92.5 18.5t71 53t27.5 82.5q0 55 -34.5 86.5t-83.5 54.5l-80 38q-38 18 -69.5 41
t-51 57t-19.5 84q0 54 30 97.5t83 69.5t122 26q70 0 114.5 -21t68.5 -52.5t34 -62.5t11.5 -52l1.5 -21h-54l-2 16t-10 39.5t-26.5 47.5t-52 40t-85.5 16q-78 0 -128 -39t-50 -102q0 -52 31 -82.5t77 -51.5l75 -35q39 -19 74.5 -43t58 -60t22.5 -90q0 -61 -34 -107.5
t-90.5 -73t-123.5 -26.5z" />
    <glyph glyph-name="scaron" unicode="&#x161;" horiz-adv-x="488" 
d="M477 740l-144 -141h-51l-85 141h51l63 -107l106 107h60zM212 -10q-57 0 -93 16.5t-55.5 41.5t-27.5 49.5t-9.5 41l-1.5 16.5h55l2 -17.5t13.5 -40t39 -40t78.5 -17.5q59 0 97.5 28t38.5 72q0 37 -23.5 57t-55.5 35l-61 29q-45 20 -74.5 50.5t-29.5 80.5q0 41 21 74.5
t60.5 53.5t93.5 20q52 0 84.5 -15.5t50.5 -38t26 -45t10 -38l2 -15.5h-54l-2.5 15.5t-14 36t-36 36t-68.5 15.5q-53 0 -86 -25.5t-33 -68.5q0 -33 21 -53t52 -34l61 -28q26 -12 51.5 -29t42.5 -43t17 -66q0 -44 -24 -79t-67.5 -55t-100.5 -20z" />
    <glyph glyph-name="uni0162" unicode="&#x162;" horiz-adv-x="623" 
d="M232 0l146 689h-244l10 51h554l-11 -51h-253l-146 -689l-54 -67q7 1 16 1q46 0 70.5 -26.5t24.5 -60.5q0 -37 -30 -68.5t-94 -31.5q-31 0 -53.5 6l-22.5 6l8 39l22.5 -5.5t45.5 -5.5q41 0 58.5 18.5t17.5 39.5q0 20 -15 35.5t-45 15.5q-24 0 -39.5 -8t-14.5 -8l-19 24
l77 96h-9z" />
    <glyph glyph-name="uni0163" unicode="&#x163;" horiz-adv-x="374" 
d="M147 -257q-31 0 -53.5 6l-22.5 6l8 39l22.5 -5.5t45.5 -5.5q41 0 58.5 18.5t17.5 39.5q0 20 -15 35.5t-45 15.5q-24 0 -39.5 -8t-14.5 -8l-19 24l76 95q-44 11 -61 47.5t-5 93.5l75 348h-93l10 46h92l29 134h55l-29 -134h126l-9 -46h-127l-76 -357q-8 -42 6 -65.5
t60 -23.5q24 0 46.5 4l22.5 4l-10 -47l-21 -4.5t-48 -4.5l-49 -61q7 1 16 1q46 0 70.5 -26.5t24.5 -60.5q0 -37 -30 -68.5t-94 -31.5z" />
    <glyph glyph-name="Tcaron" unicode="&#x164;" horiz-adv-x="623" 
d="M398 817l-82 157h51l60 -120l110 120h60l-148 -157h-51zM232 0l146 689h-244l10 51h554l-11 -51h-253l-146 -689h-56z" />
    <glyph glyph-name="tcaron" unicode="&#x165;" horiz-adv-x="324" 
d="M325 620l39 168h55l-55 -168h-39zM209 -10q-66 0 -93.5 38.5t-12.5 107.5l74 348h-92l10 46h92l29 134h54l-28 -134h126l-10 -46h-126l-76 -357q-9 -42 5.5 -65.5t60.5 -23.5q23 0 45.5 4l22.5 4l-10 -47l-21 -4.5t-50 -4.5z" />
    <glyph glyph-name="Tbar" unicode="&#x166;" horiz-adv-x="620" 
d="M225 0l76 355h-182l11 50h181l60 284h-244l11 51h553l-11 -51h-253l-60 -284h203l-10 -50h-203l-76 -355h-56z" />
    <glyph glyph-name="tbar" unicode="&#x167;" horiz-adv-x="380" 
d="M209 -10q-66 0 -93.5 38.5t-12.5 107.5l35 163h-85l10 49h85l29 136h-92l10 46h92l29 134h54l-28 -134h126l-10 -46h-126l-29 -136h108l-10 -49h-108l-37 -172q-9 -42 5.5 -65.5t60.5 -23.5q23 0 45.5 4l22.5 4l-10 -47l-21 -4.5t-50 -4.5z" />
    <glyph glyph-name="Utilde" unicode="&#x168;" horiz-adv-x="706" 
d="M541 829q-23 0 -38 12t-26 27.5t-22 27t-26 11.5q-18 0 -30 -20t-18 -52h-41q9 50 30.5 81.5t60.5 31.5q25 0 40.5 -11.5t26 -26.5t21 -27t25.5 -12q34 0 46 72h41q-9 -48 -30 -81t-60 -33zM312 -10q-89 0 -144 38.5t-75 103t-3 143.5l99 465h56l-99 -469
q-22 -104 23.5 -165.5t147.5 -61.5q67 0 117.5 28t83 78t45.5 115l101 475h56l-101 -475q-16 -79 -55.5 -141t-102 -98t-149.5 -36z" />
    <glyph glyph-name="utilde" unicode="&#x169;" horiz-adv-x="553" 
d="M427 619q-24 0 -39 12t-26 27.5t-21.5 27t-26.5 11.5q-18 0 -30 -20t-17 -52h-42q10 50 31.5 81.5t60.5 31.5q24 0 39.5 -11.5t26 -26.5t21 -27t25.5 -12q34 0 46 72h41q-9 -48 -30 -81t-59 -33zM202 -10q-79 0 -116.5 54.5t-17.5 149.5l71 336h56l-72 -337
q-15 -74 9 -114t87 -40q58 0 100.5 32.5t69.5 86t40 114.5l54 258h56l-112 -530h-56l20 96h-4q-11 -16 -34.5 -41.5t-60.5 -45t-90 -19.5z" />
    <glyph glyph-name="Umacron" unicode="&#x16a;" horiz-adv-x="706" 
d="M332 846l9 44h288l-9 -44h-288zM312 -10q-89 0 -144 38.5t-75 103t-3 143.5l99 465h56l-99 -469q-22 -104 23.5 -165.5t147.5 -61.5q67 0 117.5 28t83 78t45.5 115l101 475h56l-101 -475q-16 -79 -55.5 -141t-102 -98t-149.5 -36z" />
    <glyph glyph-name="umacron" unicode="&#x16b;" horiz-adv-x="553" 
d="M217 636l9 44h288l-9 -44h-288zM202 -10q-79 0 -116.5 54.5t-17.5 149.5l71 336h56l-72 -337q-15 -74 9 -114t87 -40q58 0 100.5 32.5t69.5 86t40 114.5l54 258h56l-112 -530h-56l20 96h-4q-11 -16 -34.5 -41.5t-60.5 -45t-90 -19.5z" />
    <glyph glyph-name="Uring" unicode="&#x16e;" horiz-adv-x="706" 
d="M479 820q-44 0 -74.5 30.5t-30.5 74.5q0 43 30.5 74t74.5 31q43 0 73.5 -31t30.5 -74q0 -44 -30.5 -74.5t-73.5 -30.5zM479 863q25 0 43.5 18t18.5 44q0 25 -18.5 43.5t-43.5 18.5q-26 0 -44.5 -18.5t-18.5 -43.5q0 -26 18.5 -44t44.5 -18zM312 -10q-89 0 -144 38.5
t-75 103t-3 143.5l99 465h56l-99 -469q-22 -104 23.5 -165.5t147.5 -61.5q67 0 117.5 28t83 78t45.5 115l101 475h56l-101 -475q-16 -79 -55.5 -141t-102 -98t-149.5 -36z" />
    <glyph glyph-name="uring" unicode="&#x16f;" horiz-adv-x="553" 
d="M364 610q-44 0 -74.5 30.5t-30.5 74.5q0 43 30.5 74t74.5 31t74.5 -31t30.5 -74q0 -44 -30.5 -74.5t-74.5 -30.5zM364 653q26 0 44 18t18 44q0 25 -18 43.5t-44 18.5t-44 -18.5t-18 -43.5q0 -26 18 -44t44 -18zM202 -10q-79 0 -116.5 54.5t-17.5 149.5l71 336h56
l-72 -337q-15 -74 9 -114t87 -40q58 0 100.5 32.5t69.5 86t40 114.5l54 258h56l-112 -530h-56l20 96h-4q-11 -16 -34.5 -41.5t-60.5 -45t-90 -19.5z" />
    <glyph glyph-name="Uhungarumlaut" unicode="&#x170;" horiz-adv-x="706" 
d="M421 825l-50 1l99 161h60zM555 825l-51 1l102 161h61zM312 -10q-89 0 -144 38.5t-75 103t-3 143.5l99 465h56l-99 -469q-22 -104 23.5 -165.5t147.5 -61.5q67 0 117.5 28t83 78t45.5 115l101 475h56l-101 -475q-16 -79 -55.5 -141t-102 -98t-149.5 -36z" />
    <glyph glyph-name="uhungarumlaut" unicode="&#x171;" horiz-adv-x="553" 
d="M307 615l-51 1l99 161h61zM440 615l-51 1l102 161h61zM202 -10q-79 0 -116.5 54.5t-17.5 149.5l71 336h56l-72 -337q-15 -74 9 -114t87 -40q58 0 100.5 32.5t69.5 86t40 114.5l54 258h56l-112 -530h-56l20 96h-4q-11 -16 -34.5 -41.5t-60.5 -45t-90 -19.5z" />
    <glyph glyph-name="Uogonek" unicode="&#x172;" horiz-adv-x="706" 
d="M306 -162q-40 0 -63 18.5t-23 50.5t19 52.5t40 32.5q-78 7 -125 46.5t-63 101t-1 135.5l99 465h56l-99 -469q-22 -104 23.5 -165.5t147.5 -61.5q67 0 117.5 28t83 78t45.5 115l101 475h56l-101 -475q-16 -76 -53 -136.5t-95.5 -97t-138.5 -40.5q-10 -4 -25.5 -14
t-28.5 -25t-13 -36q0 -39 52 -39q15 0 27.5 2.5l12.5 2.5l-8 -38l-12 -3t-31 -3z" />
    <glyph glyph-name="uogonek" unicode="&#x173;" horiz-adv-x="553" 
d="M202 -10q-79 0 -116.5 54.5t-17.5 149.5l71 336h56l-72 -337q-15 -74 9 -114t87 -40q58 0 100.5 32.5t69.5 86t40 114.5l54 258h56l-112 -530h-1l-11 -5t-26 -14.5t-26 -24t-11 -33.5q0 -39 52 -39q15 0 27.5 2.5l12.5 2.5l-8 -38l-12 -3t-31 -3q-40 0 -63 18.5t-23 50.5
q0 34 22 55.5t43 31.5l19 95h-4q-11 -16 -34.5 -41.5t-60.5 -45t-90 -19.5z" />
    <glyph glyph-name="Wcircumflex" unicode="&#x174;" horiz-adv-x="943" 
d="M440 817l147 157h52l81 -157h-50l-61 120l-110 -120h-59zM160 0l-47 740h54l41 -656l325 656h57l47 -656l315 656h61l-359 -740h-64l-45 651l-322 -651h-63z" />
    <glyph glyph-name="wcircumflex" unicode="&#x175;" horiz-adv-x="822" 
d="M342 607l147 157h52l81 -157h-51l-60 120l-110 -120h-59zM143 0l-63 530h55l53 -451l246 451h58l54 -451l245 451h61l-290 -530h-60l-54 448l-245 -448h-60z" />
    <glyph glyph-name="Ycircumflex" unicode="&#x176;" horiz-adv-x="616" 
d="M276 817l148 157h51l82 -157h-51l-60 120l-110 -120h-60zM220 0l58 274l-165 466h57l144 -409l317 409h67l-364 -467l-58 -273h-56z" />
    <glyph glyph-name="ycircumflex" unicode="&#x177;" horiz-adv-x="536" 
d="M190 607l147 157h52l81 -157h-51l-60 120l-110 -120h-59zM-25 -196q-19 0 -31 2l-12 2l10 50l13.5 -1.5t28.5 -1.5q53 0 102.5 34t91.5 102l4 8l-94 531h55l82 -463l278 463h63l-337 -554q-53 -88 -116.5 -130t-137.5 -42z" />
    <glyph glyph-name="Ydieresis" unicode="&#x178;" horiz-adv-x="616" 
d="M506 834q-19 0 -31.5 13t-12.5 31t12.5 31t31.5 13t32 -13t13 -31t-13 -31t-32 -13zM350 834q-19 0 -31.5 13t-12.5 31t12.5 31t31.5 13t32 -13t13 -31t-13 -31t-32 -13zM220 0l58 274l-165 466h57l144 -409l317 409h67l-364 -467l-58 -273h-56z" />
    <glyph glyph-name="Zacute" unicode="&#x179;" horiz-adv-x="630" 
d="M453 825l-46 1l80 161h56zM9 0l10 46l560 643h-424l11 51h497l-10 -46l-559 -641h424l-12 -53h-497z" />
    <glyph glyph-name="zacute" unicode="&#x17a;" horiz-adv-x="502" 
d="M345 611h-46l80 162h56zM-12 0l9 40l427 444h-313l11 46h387l-9 -40l-428 -444h333l-9 -46h-408z" />
    <glyph glyph-name="Zdotaccent" unicode="&#x17b;" horiz-adv-x="630" 
d="M443 839q-19 0 -31.5 13t-12.5 31t12.5 31t31.5 13q18 0 31 -13t13 -31t-13 -31t-31 -13zM9 0l10 46l560 643h-424l11 51h497l-10 -46l-559 -641h424l-12 -53h-497z" />
    <glyph glyph-name="zdotaccent" unicode="&#x17c;" horiz-adv-x="502" 
d="M334 624q-19 0 -31.5 13.5t-12.5 31.5t12.5 31t31.5 13t32 -13t13 -31q0 -19 -13 -32t-32 -13zM-12 0l9 40l427 444h-313l11 46h387l-9 -40l-428 -444h333l-9 -46h-408z" />
    <glyph glyph-name="Zcaron" unicode="&#x17d;" horiz-adv-x="630" 
d="M397 817l-81 157h51l60 -120l110 120h59l-147 -157h-52zM9 0l10 46l560 643h-424l11 51h497l-10 -46l-559 -641h424l-12 -53h-497z" />
    <glyph glyph-name="zcaron" unicode="&#x17e;" horiz-adv-x="502" 
d="M296 603l-82 157h51l60 -120l110 120h60l-148 -157h-51zM-12 0l9 40l427 444h-313l11 46h387l-9 -40l-428 -444h333l-9 -46h-408z" />
    <glyph glyph-name="Ohorn" unicode="&#x1a0;" horiz-adv-x="784" 
d="M357 -10q-75 0 -130.5 26t-91 70.5t-53 102t-17.5 120.5q0 78 26 156t76 142.5t122.5 103.5t165.5 39v0v0h157q30 0 45 12.5t21 40.5l8 41h52l-10 -47q-17 -87 -106 -87h-11q69 -42 102 -117.5t33 -161.5q0 -78 -26 -156t-75.5 -142.5t-122 -103.5t-165.5 -39zM358 42
q79 0 140.5 34.5t104 91.5t64.5 126t22 137q0 70 -25 131t-77 98.5t-133 37.5q-79 0 -140.5 -35t-104.5 -92t-65 -125.5t-22 -136.5q0 -70 25.5 -131t77.5 -98.5t133 -37.5z" />
    <glyph glyph-name="ohorn" unicode="&#x1a1;" horiz-adv-x="599" 
d="M265 -10q-72 0 -118.5 32.5t-69 85t-22.5 112.5q0 56 19 112.5t55 103.5t88.5 75.5t120.5 28.5h114q32 0 48.5 13.5t21.5 42.5l8 38h48l-9 -43q-17 -88 -107 -88q44 -32 65 -83.5t21 -109.5q0 -56 -19 -112.5t-55.5 -103.5t-89 -75.5t-119.5 -28.5zM267 40q53 0 95.5 24
t71.5 63.5t44 87t15 94.5q0 48 -17 89t-51.5 66.5t-88.5 25.5t-96 -24t-71.5 -63.5t-44.5 -87t-15 -94.5q0 -48 17 -89t52 -66.5t89 -25.5z" />
    <glyph glyph-name="Uhorn" unicode="&#x1af;" horiz-adv-x="706" 
d="M312 -10q-89 0 -144 38.5t-74.5 103t-3.5 143.5l99 465h56l-99 -469q-22 -104 23.5 -165.5t147.5 -61.5q67 0 117.5 28t83 78t45.5 115l101 475h53q55 0 66 53l8 41h51l-9 -47q-18 -87 -106 -87h-15l-93 -435q-16 -79 -55.5 -141t-102 -98t-149.5 -36z" />
    <glyph glyph-name="uhorn" unicode="&#x1b0;" horiz-adv-x="553" 
d="M202 -10q-79 0 -116.5 54.5t-17.5 149.5l71 336h56l-72 -337q-15 -74 9 -114t87 -40q58 0 100.5 32.5t69.5 86t40 114.5l54 258h41q32 0 48.5 13.5t21.5 42.5l8 38h48l-9 -43q-17 -88 -107 -88h-3l-104 -493h-56l20 96h-4q-11 -16 -34.5 -41.5t-60.5 -45t-90 -19.5z" />
    <glyph glyph-name="Gcaron" unicode="&#x1e6;" horiz-adv-x="759" 
d="M449 817l-81 157h50l61 -120l110 120h59l-147 -157h-52zM360 -10q-76 0 -131.5 26t-91.5 71.5t-54 103.5t-18 122q0 78 25 155t74.5 141t122.5 102.5t169 38.5q67 0 112 -18t73.5 -46t43.5 -60t21 -60t7 -46l1 -18h-57l-1 19.5t-9.5 49t-29.5 58.5t-60.5 49t-103.5 20
q-81 0 -143 -34t-103.5 -89.5t-63 -123t-21.5 -135.5q0 -72 25.5 -134.5t79 -101t136.5 -38.5q62 0 111 23.5t83.5 63.5t55.5 90.5t28 103.5h-229l10 49h282l-8 -53q-9 -64 -34.5 -123t-67 -105.5t-100 -73.5t-134.5 -27z" />
    <glyph glyph-name="gcaron" unicode="&#x1e7;" horiz-adv-x="607" 
d="M343 607l-81 157h51l60 -120l110 120h59l-147 -157h-52zM204 -210q-62 0 -101.5 16.5t-61 40.5t-30 47.5t-10 40l-1.5 16.5h55l1 -11t7.5 -28t22 -33.5t44.5 -27.5t75 -11q72 0 117 28.5t69.5 73t34.5 91.5l13 62h-4l-11 -15t-33.5 -34t-57.5 -33.5t-84 -14.5
q-69 0 -114.5 31.5t-68 82.5t-22.5 111q0 56 18.5 112t54.5 102.5t88 74.5t118 28q53 0 88.5 -18.5t55.5 -42t28 -42l8 -18.5h5l23 111h55l-106 -500q-26 -120 -96.5 -180t-179.5 -60zM258 48q53 0 94.5 23.5t70.5 62.5t44 85.5t15 92.5q0 48 -17 88.5t-52 65t-90 24.5
q-53 0 -94.5 -23t-70.5 -61.5t-44 -85t-15 -92.5q0 -47 17 -88.5t52.5 -66.5t89.5 -25z" />
    <glyph glyph-name="circumflex" unicode="&#x2c6;" horiz-adv-x="491" 
d="M170 583l147 157h52l81 -157h-50l-61 120l-110 -120h-59z" />
    <glyph glyph-name="caron" unicode="&#x2c7;" horiz-adv-x="346" 
d="M217 604l-81 157h50l61 -120l110 120h59l-147 -157h-52z" />
    <glyph glyph-name="breve" unicode="&#x2d8;" horiz-adv-x="366" 
d="M318 610q-43 0 -68 14t-37 34.5t-15.5 41t-3 34.5l0.5 14h45l-1 -14.5t4 -33.5t22 -33.5t53 -14.5t59 14.5t36 33.5t18 33.5l5 14.5h45l-3.5 -14t-13.5 -34.5t-28 -41t-47 -34.5t-71 -14z" />
    <glyph glyph-name="dotaccent" unicode="&#x2d9;" horiz-adv-x="126" 
d="M83 629q-19 0 -31.5 13t-12.5 31t12.5 31.5t31.5 13.5q18 0 31 -13.5t13 -31.5t-13 -31t-31 -13z" />
    <glyph glyph-name="ring" unicode="&#x2da;" horiz-adv-x="324" 
d="M259 608q-43 0 -74 31t-31 74q0 44 31 74.5t74 30.5q44 0 74.5 -30.5t30.5 -74.5q0 -43 -30.5 -74t-74.5 -31zM259 651q26 0 44 18t18 44t-18 44.5t-44 18.5t-44 -18.5t-18 -44.5t18 -44t44 -18z" />
    <glyph glyph-name="ogonek" unicode="&#x2db;" horiz-adv-x="189" 
d="M91 -175q-41 0 -64 18.5t-23 50.5q0 27 14.5 46t34 31t34 17.5l14.5 5.5l22 -14l-11 -5t-25.5 -14.5t-25.5 -24t-11 -34.5q0 -38 52 -38q14 0 27 2.5l13 2.5l-8 -38l-12 -3t-31 -3z" />
    <glyph glyph-name="tilde" unicode="&#x2dc;" horiz-adv-x="370" 
d="M370 619q-23 0 -38 12t-26 27.5t-22 27t-26 11.5q-18 0 -30 -20t-18 -52h-41q9 50 30.5 81.5t60.5 31.5q25 0 40.5 -11.5t26 -26.5t21 -27t25.5 -12q34 0 46 72h41q-9 -48 -30 -81t-60 -33z" />
    <glyph glyph-name="gravecomb" unicode="&#x300;" 
d="M221 615l-68 162h55l58 -161z" />
    <glyph glyph-name="acutecomb" unicode="&#x301;" 
d="M186 615l-46 1l79 161h57z" />
    <glyph glyph-name="uni0302" unicode="&#x302;" 
d="M102 607l147 157h52l81 -157h-51l-60 120l-110 -120h-59z" />
    <glyph glyph-name="tildecomb" unicode="&#x303;" 
d="M348 619q-23 0 -38 12t-26 27.5t-22 27t-26 11.5q-18 0 -30 -20t-18 -52h-41q9 50 30.5 81.5t60.5 31.5q25 0 40.5 -11.5t26 -26.5t21 -27t25.5 -12q34 0 46 72h41q-9 -48 -30 -81t-60 -33z" />
    <glyph glyph-name="uni0304" unicode="&#x304;" 
d="M113 636l10 44h288l-10 -44h-288z" />
    <glyph glyph-name="uni0306" unicode="&#x306;" 
d="M320 610q-43 0 -68 14t-37 34.5t-15.5 41t-3 34.5l0.5 14h45l-1 -14.5t4 -33.5t22 -33.5t53 -14.5t59 14.5t36 33.5t18 33.5l5 14.5h45l-3.5 -14t-13.5 -34.5t-28 -41t-47 -34.5t-71 -14z" />
    <glyph glyph-name="uni0307" unicode="&#x307;" 
d="M133 629q-19 0 -31.5 13t-12.5 31t12.5 31t31.5 13t32 -13t13 -31t-13 -31t-32 -13z" />
    <glyph glyph-name="uni0308" unicode="&#x308;" 
d="M285 624q-19 0 -31.5 13t-12.5 31t12.5 31t31.5 13t32 -13t13 -31t-13 -31t-32 -13zM129 624q-19 0 -31.5 13t-12.5 31t12.5 31t31.5 13t32 -13t13 -31t-13 -31t-32 -13z" />
    <glyph glyph-name="hookabovecomb" unicode="&#x309;" 
d="M223 601l7 33q4 18 20 25l14 6q29 13 44 28t15 34q0 14 -10.5 25.5t-34.5 11.5q-26 0 -37.5 -11.5t-14 -23.5l-2.5 -12h-39l2.5 12.5t11.5 29t28.5 29t52.5 12.5q44 0 64 -23t20 -50q0 -32 -26 -54t-69 -40l-7 -32h-39z" />
    <glyph glyph-name="uni030A" unicode="&#x30a;" 
d="M259 608q-43 0 -74 31t-31 74q0 44 31 74.5t74 30.5q44 0 74.5 -30.5t30.5 -74.5q0 -43 -30.5 -74t-74.5 -31zM259 651q26 0 44 18t18 44t-18 44.5t-44 18.5t-44 -18.5t-18 -44.5t18 -44t44 -18z" />
    <glyph glyph-name="uni030B" unicode="&#x30b;" 
d="M267 615l-50 1l98 161h61zM400 615l-51 1l102 161h62z" />
    <glyph glyph-name="uni030C" unicode="&#x30c;" 
d="M228 607l-81 157h50l61 -120l110 120h59l-147 -157h-52z" />
    <glyph glyph-name="uni0312" unicode="&#x312;" 
d="M247 780l-46 -75q21 -1 33 -15t12 -31q0 -20 -13.5 -33.5t-34.5 -13.5q-19 0 -33.5 12t-14.5 35q0 19 12.5 41t39.5 61l12 19h33z" />
    <glyph glyph-name="uni031B" unicode="&#x31b;" 
d="M395 624l-9 -43q-17 -88 -107 -88h-121l8 37h103q31 0 47.5 13.5t22.5 42.5l7 38h49z" />
    <glyph glyph-name="dotbelowcomb" unicode="&#x323;" 
d="M46 -204q-20 0 -33.5 14t-13.5 33t13.5 33t33.5 14q19 0 33 -14t14 -33t-14 -33t-33 -14z" />
    <glyph glyph-name="uni0326" unicode="&#x326;" 
d="M-5 -235l46 76q-21 1 -33 14.5t-12 31.5q0 19 13.5 32.5t34.5 13.5q19 0 33.5 -12t14.5 -34q0 -20 -12.5 -42t-39.5 -61l-12 -19h-33z" />
    <glyph glyph-name="uni0327" unicode="&#x327;" 
d="M52 -249q-31 0 -53 6l-22 6l8 38l22.5 -5t45.5 -5q40 0 58 18t18 39t-15.5 36.5t-44.5 15.5q-24 0 -39.5 -8.5t-14.5 -8.5l-20 25l80 99h47l-56 -71q7 1 15 1q47 0 71 -26.5t24 -59.5q0 -37 -30 -68.5t-94 -31.5z" />
    <glyph glyph-name="uni0328" unicode="&#x328;" 
d="M91 -175q-41 0 -64 18.5t-23 50.5q0 27 14.5 46t34 31t34 17.5l14.5 5.5l22 -14l-11 -5t-25.5 -14.5t-25.5 -24t-11 -34.5q0 -38 52 -38q14 0 27 2.5l13 2.5l-8 -38l-12 -3t-31 -3z" />
    <glyph glyph-name="uni1E20" unicode="&#x1e20;" horiz-adv-x="759" 
d="M342 846l10 44h288l-10 -44h-288zM360 -10q-76 0 -131.5 26t-91.5 71.5t-54 103.5t-18 122q0 78 25 155t74.5 141t122.5 102.5t169 38.5q67 0 112 -18t73.5 -46t43.5 -60t21 -60t7 -46l1 -18h-57l-1 19.5t-9.5 49t-29.5 58.5t-60.5 49t-103.5 20q-81 0 -143 -34
t-103.5 -89.5t-63 -123t-21.5 -135.5q0 -72 25.5 -134.5t79 -101t136.5 -38.5q62 0 111 23.5t83.5 63.5t55.5 90.5t28 103.5h-229l10 49h282l-8 -53q-9 -64 -34.5 -123t-67 -105.5t-100 -73.5t-134.5 -27z" />
    <glyph glyph-name="uni1E21" unicode="&#x1e21;" horiz-adv-x="607" 
d="M237 636l9 44h288l-9 -44h-288zM204 -210q-62 0 -101.5 16.5t-61 40.5t-30 47.5t-10 40l-1.5 16.5h55l1 -11t7.5 -28t22 -33.5t44.5 -27.5t75 -11q72 0 117 28.5t69.5 73t34.5 91.5l13 62h-4l-11 -15t-33.5 -34t-57.5 -33.5t-84 -14.5q-69 0 -114.5 31.5t-68 82.5
t-22.5 111q0 56 18.5 112t54.5 102.5t88 74.5t118 28q53 0 88.5 -18.5t55.5 -42t28 -42l8 -18.5h5l23 111h55l-106 -500q-26 -120 -96.5 -180t-179.5 -60zM258 48q53 0 94.5 23.5t70.5 62.5t44 85.5t15 92.5q0 48 -17 88.5t-52 65t-90 24.5q-53 0 -94.5 -23t-70.5 -61.5
t-44 -85t-15 -92.5q0 -47 17 -88.5t52.5 -66.5t89.5 -25z" />
    <glyph glyph-name="Wgrave" unicode="&#x1e80;" horiz-adv-x="943" 
d="M552 825l-68 162h55l58 -161zM160 0l-47 740h54l41 -656l325 656h57l47 -656l315 656h61l-359 -740h-64l-45 651l-322 -651h-63z" />
    <glyph glyph-name="wgrave" unicode="&#x1e81;" horiz-adv-x="822" 
d="M454 615l-68 162h55l57 -161zM143 0l-63 530h55l53 -451l246 451h58l54 -451l245 451h61l-290 -530h-60l-54 448l-245 -448h-60z" />
    <glyph glyph-name="Wacute" unicode="&#x1e82;" horiz-adv-x="943" 
d="M604 825l-46 1l80 161h56zM160 0l-47 740h54l41 -656l325 656h57l47 -656l315 656h61l-359 -740h-64l-45 651l-322 -651h-63z" />
    <glyph glyph-name="wacute" unicode="&#x1e83;" horiz-adv-x="822" 
d="M506 615l-46 1l79 161h57zM143 0l-63 530h55l53 -451l246 451h58l54 -451l245 451h61l-290 -530h-60l-54 448l-245 -448h-60z" />
    <glyph glyph-name="Wdieresis" unicode="&#x1e84;" horiz-adv-x="943" 
d="M670 834q-19 0 -31.5 13t-12.5 31t12.5 31t31.5 13q18 0 31 -13t13 -31t-13 -31t-31 -13zM514 834q-19 0 -31.5 13t-12.5 31t12.5 31t31.5 13q18 0 31 -13t13 -31t-13 -31t-31 -13zM160 0l-47 740h54l41 -656l325 656h57l47 -656l315 656h61l-359 -740h-64l-45 651
l-322 -651h-63z" />
    <glyph glyph-name="wdieresis" unicode="&#x1e85;" horiz-adv-x="822" 
d="M571 624q-19 0 -31.5 13t-12.5 31t12.5 31t31.5 13t32 -13t13 -31t-13 -31t-32 -13zM415 624q-19 0 -31.5 13t-12.5 31t12.5 31t31.5 13t32 -13t13 -31t-13 -31t-32 -13zM143 0l-63 530h55l53 -451l246 451h58l54 -451l245 451h61l-290 -530h-60l-54 448l-245 -448h-60z
" />
    <glyph glyph-name="uni1E9E" unicode="&#x1e9e;" horiz-adv-x="634" 
d="M267 -10q-25 0 -49 1.5t-39.5 3l-15.5 1.5l9 50l15 -1.5t36.5 -3t42.5 -1.5q76 0 133 22.5t88.5 64.5t31.5 100q0 59 -47.5 95.5t-140.5 36.5h-10l9 43l259 279l-17 4.5t-45.5 9.5t-63.5 5q-105 0 -178 -58t-100 -183l-99 -462h-55l100 470q28 132 112.5 207.5
t221.5 75.5q54 0 98 -9t70 -18l26 -9l-7 -34l-258 -280q61 -4 101 -30t59.5 -64.5t19.5 -78.5q0 -71 -37 -124.5t-106 -83t-164 -29.5z" />
    <glyph glyph-name="uni1EA0" unicode="&#x1ea0;" horiz-adv-x="673" 
d="M-6 0l422 740h68l108 -740h-56l-30 206h-331l-117 -206h-64zM203 256h296l-59 416zM247 -204q-20 0 -33 14t-13 33t13 33t33 14t33.5 -14t13.5 -33t-13.5 -33t-33.5 -14z" />
    <glyph glyph-name="uni1EA1" unicode="&#x1ea1;" horiz-adv-x="607" 
d="M334 540q51 0 84.5 -17t53.5 -40t29 -43t11 -25h5l25 115h55l-113 -530h-56l20 92h-4l-11.5 -15.5t-34.5 -35.5t-58 -35.5t-82 -15.5q-67 0 -111.5 32.5t-66.5 84.5t-22 112q0 57 18.5 114t54 103.5t87 75t116.5 28.5zM336 490q-53 0 -94.5 -24t-70 -64.5t-43.5 -88.5
t-15 -95t16 -87.5t49.5 -65.5t86.5 -25q52 0 93.5 24.5t70.5 64.5t44 88.5t15 95.5q0 48 -16 88t-49.5 64.5t-86.5 24.5zM214 -204q-20 0 -33 14t-13 33t13 33t33 14t33.5 -14t13.5 -33t-13.5 -33t-33.5 -14z" />
    <glyph glyph-name="uni1EA2" unicode="&#x1ea2;" horiz-adv-x="673" 
d="M439 811l7 33q3 18 20 25l14 6q29 13 44 28t15 34q0 14 -10.5 25.5t-34.5 11.5q-26 0 -37.5 -11.5t-14.5 -23.5l-3 -12h-38l2.5 12.5t11.5 29t28 29t53 12.5q43 0 63.5 -23t20.5 -50q0 -32 -26 -54t-69 -40l-7 -32h-39zM-6 0l422 740h68l108 -740h-56l-30 206h-331
l-117 -206h-64zM203 256h296l-59 416z" />
    <glyph glyph-name="uni1EA3" unicode="&#x1ea3;" horiz-adv-x="607" 
d="M349 601l7 33q3 18 20 25l14 6q29 13 44 28t15 34q0 14 -11 25.5t-34 11.5q-26 0 -37.5 -11.5t-14.5 -23.5l-3 -12h-38l2.5 12.5t11.5 29t28 29t53 12.5q43 0 63.5 -23t20.5 -50q0 -32 -26 -54t-69 -40l-7 -32h-39zM334 540q51 0 84.5 -17t53.5 -40t29 -43t11 -25h5
l25 115h55l-113 -530h-56l20 92h-4l-11.5 -15.5t-34.5 -35.5t-58 -35.5t-82 -15.5q-67 0 -111.5 32.5t-66.5 84.5t-22 112q0 57 18.5 114t54 103.5t87 75t116.5 28.5zM336 490q-53 0 -94.5 -24t-70 -64.5t-43.5 -88.5t-15 -95t16 -87.5t49.5 -65.5t86.5 -25q52 0 93.5 24.5
t70.5 64.5t44 88.5t15 95.5q0 48 -16 88t-49.5 64.5t-86.5 24.5z" />
    <glyph glyph-name="uni1EA4" unicode="&#x1ea4;" horiz-adv-x="673" 
d="M654 939l-46 1l80 161h56zM327 817l144 141h51l85 -141h-51l-63 107l-106 -107h-60zM-6 0l422 740h68l108 -740h-56l-30 206h-331l-117 -206h-64zM203 256h296l-59 416z" />
    <glyph glyph-name="uni1EA5" unicode="&#x1ea5;" horiz-adv-x="607" 
d="M564 729l-46 1l80 161h56zM237 607l144 141h51l85 -141h-51l-63 107l-106 -107h-60zM334 540q51 0 84.5 -17t53.5 -40t29 -43t11 -25h5l25 115h55l-113 -530h-56l20 92h-4l-11.5 -15.5t-34.5 -35.5t-58 -35.5t-82 -15.5q-67 0 -111.5 32.5t-66.5 84.5t-22 112
q0 57 18.5 114t54 103.5t87 75t116.5 28.5zM336 490q-53 0 -94.5 -24t-70 -64.5t-43.5 -88.5t-15 -95t16 -87.5t49.5 -65.5t86.5 -25q52 0 93.5 24.5t70.5 64.5t44 88.5t15 95.5q0 48 -16 88t-49.5 64.5t-86.5 24.5z" />
    <glyph glyph-name="uni1EA6" unicode="&#x1ea6;" horiz-adv-x="673" 
d="M611 939l-68 162h55l58 -161zM327 817l144 141h51l85 -141h-51l-63 107l-106 -107h-60zM-6 0l422 740h68l108 -740h-56l-30 206h-331l-117 -206h-64zM203 256h296l-59 416z" />
    <glyph glyph-name="uni1EA7" unicode="&#x1ea7;" horiz-adv-x="607" 
d="M521 729l-68 162h55l58 -161zM237 607l144 141h51l85 -141h-51l-63 107l-106 -107h-60zM334 540q51 0 84.5 -17t53.5 -40t29 -43t11 -25h5l25 115h55l-113 -530h-56l20 92h-4l-11.5 -15.5t-34.5 -35.5t-58 -35.5t-82 -15.5q-67 0 -111.5 32.5t-66.5 84.5t-22 112
q0 57 18.5 114t54 103.5t87 75t116.5 28.5zM336 490q-53 0 -94.5 -24t-70 -64.5t-43.5 -88.5t-15 -95t16 -87.5t49.5 -65.5t86.5 -25q52 0 93.5 24.5t70.5 64.5t44 88.5t15 95.5q0 48 -16 88t-49.5 64.5t-86.5 24.5z" />
    <glyph glyph-name="uni1EA8" unicode="&#x1ea8;" horiz-adv-x="673" 
d="M599 925l7 33q4 18 20 25l14 6q29 13 44 28t15 34q0 14 -10.5 25.5t-34.5 11.5q-26 0 -37.5 -11.5t-14 -23.5l-2.5 -12h-39l2.5 12.5t11.5 29t28.5 29t52.5 12.5q44 0 64 -22.5t20 -50.5q0 -32 -26 -54t-69 -40l-7 -32h-39zM323 817l144 141h52l85 -141h-51l-63 107
l-107 -107h-60zM-6 0l422 740h68l108 -740h-56l-30 206h-331l-117 -206h-64zM203 256h296l-59 416z" />
    <glyph glyph-name="uni1EA9" unicode="&#x1ea9;" horiz-adv-x="607" 
d="M509 715l7 33q4 18 20 25l14 6q29 13 44 28t15 34q0 14 -10.5 25.5t-34.5 11.5q-26 0 -37.5 -11.5t-14 -23.5l-2.5 -12h-39l2.5 12.5t11.5 29t28.5 29t52.5 12.5q44 0 64 -23t20 -50q0 -32 -26 -54t-69 -40l-7 -32h-39zM233 607l144 141h52l85 -141h-51l-63 107
l-107 -107h-60zM334 540q51 0 84.5 -17t53.5 -40t29 -43t11 -25h5l25 115h55l-113 -530h-56l20 92h-4l-11.5 -15.5t-34.5 -35.5t-58 -35.5t-82 -15.5q-67 0 -111.5 32.5t-66.5 84.5t-22 112q0 57 18.5 114t54 103.5t87 75t116.5 28.5zM336 490q-53 0 -94.5 -24t-70 -64.5
t-43.5 -88.5t-15 -95t16 -87.5t49.5 -65.5t86.5 -25q52 0 93.5 24.5t70.5 64.5t44 88.5t15 95.5q0 48 -16 88t-49.5 64.5t-86.5 24.5z" />
    <glyph glyph-name="uni1EAA" unicode="&#x1eaa;" horiz-adv-x="673" 
d="M566 998q-24 0 -39 11.5t-25.5 27t-21.5 27t-26 11.5q-19 0 -31 -19.5t-17 -52.5h-41q9 50 30.5 82t60.5 32q25 0 40 -12t26 -27t21 -26.5t25 -11.5q34 0 46 72h42q-10 -49 -31 -81.5t-59 -32.5zM324 817l144 141h52l84 -141h-50l-63 107l-107 -107h-60zM-6 0l422 740h68
l108 -740h-56l-30 206h-331l-117 -206h-64zM203 256h296l-59 416z" />
    <glyph glyph-name="uni1EAB" unicode="&#x1eab;" horiz-adv-x="607" 
d="M476 788q-24 0 -39 11.5t-25.5 27t-21.5 27t-26 11.5q-19 0 -31 -19.5t-17 -52.5h-41q9 50 30.5 82t60.5 32q25 0 40 -12t26 -27t21 -26.5t25 -11.5q34 0 46 72h42q-10 -49 -31 -81.5t-59 -32.5zM234 607l144 141h52l84 -141h-50l-63 107l-107 -107h-60zM334 540
q51 0 84.5 -17t53.5 -40t29 -43t11 -25h5l25 115h55l-113 -530h-56l20 92h-4l-11.5 -15.5t-34.5 -35.5t-58 -35.5t-82 -15.5q-67 0 -111.5 32.5t-66.5 84.5t-22 112q0 57 18.5 114t54 103.5t87 75t116.5 28.5zM336 490q-53 0 -94.5 -24t-70 -64.5t-43.5 -88.5t-15 -95
t16 -87.5t49.5 -65.5t86.5 -25q52 0 93.5 24.5t70.5 64.5t44 88.5t15 95.5q0 48 -16 88t-49.5 64.5t-86.5 24.5z" />
    <glyph glyph-name="uni1EAC" unicode="&#x1eac;" horiz-adv-x="673" 
d="M323 817l144 141h52l85 -141h-51l-63 107l-107 -107h-60zM-6 0l422 740h68l108 -740h-56l-30 206h-331l-117 -206h-64zM203 256h296l-59 416zM247 -204q-20 0 -33 14t-13 33t13 33t33 14t33.5 -14t13.5 -33t-13.5 -33t-33.5 -14z" />
    <glyph glyph-name="uni1EAD" unicode="&#x1ead;" horiz-adv-x="607" 
d="M237 607l147 157h52l81 -157h-51l-60 120l-110 -120h-59zM334 540q51 0 84.5 -17t53.5 -40t29 -43t11 -25h5l25 115h55l-113 -530h-56l20 92h-4l-11.5 -15.5t-34.5 -35.5t-58 -35.5t-82 -15.5q-67 0 -111.5 32.5t-66.5 84.5t-22 112q0 57 18.5 114t54 103.5t87 75
t116.5 28.5zM336 490q-53 0 -94.5 -24t-70 -64.5t-43.5 -88.5t-15 -95t16 -87.5t49.5 -65.5t86.5 -25q52 0 93.5 24.5t70.5 64.5t44 88.5t15 95.5q0 48 -16 88t-49.5 64.5t-86.5 24.5zM214 -204q-20 0 -33 14t-13 33t13 33t33 14t33.5 -14t13.5 -33t-13.5 -33t-33.5 -14z
" />
    <glyph glyph-name="uni1EAE" unicode="&#x1eae;" horiz-adv-x="673" 
d="M520 966h-46l80 161h56zM475 820q-41 0 -65.5 12.5t-37 30.5t-17.5 36t-5 30v12h44v-12t6 -28t23.5 -28t51.5 -12q35 0 57 12t35 28t18.5 28l5.5 12h44l-6.5 -18t-23.5 -42t-48.5 -42.5t-81.5 -18.5zM-6 0l422 740h68l108 -740h-56l-30 206h-331l-117 -206h-64zM203 256
h296l-59 416z" />
    <glyph glyph-name="uni1EAF" unicode="&#x1eaf;" horiz-adv-x="607" 
d="M430 756h-46l80 161h56zM385 610q-41 0 -65.5 12.5t-37 30.5t-17.5 36t-5 30v12h44v-12t6 -28t23.5 -28t51.5 -12q35 0 57 12t35 28t18.5 28l5.5 12h44l-6.5 -18t-23.5 -42t-48.5 -42.5t-81.5 -18.5zM334 540q51 0 84.5 -17t53.5 -40t29 -43t11 -25h5l25 115h55
l-113 -530h-56l20 92h-4l-11.5 -15.5t-34.5 -35.5t-58 -35.5t-82 -15.5q-67 0 -111.5 32.5t-66.5 84.5t-22 112q0 57 18.5 114t54 103.5t87 75t116.5 28.5zM336 490q-53 0 -94.5 -24t-70 -64.5t-43.5 -88.5t-15 -95t16 -87.5t49.5 -65.5t86.5 -25q52 0 93.5 24.5t70.5 64.5
t44 88.5t15 95.5q0 48 -16 88t-49.5 64.5t-86.5 24.5z" />
    <glyph glyph-name="uni1EB0" unicode="&#x1eb0;" horiz-adv-x="673" 
d="M468 966l-67 161h55l57 -161h-45zM475 820q-41 0 -65.5 12.5t-37 30.5t-17.5 36t-5 30v12h44v-12t6 -28t23.5 -28t51.5 -12q35 0 57 12t35 28t18.5 28l5.5 12h44l-6.5 -18t-23.5 -42t-48.5 -42.5t-81.5 -18.5zM-6 0l422 740h68l108 -740h-56l-30 206h-331l-117 -206h-64z
M203 256h296l-59 416z" />
    <glyph glyph-name="uni1EB1" unicode="&#x1eb1;" horiz-adv-x="607" 
d="M378 756l-67 161h55l57 -161h-45zM385 610q-41 0 -65.5 12.5t-37 30.5t-17.5 36t-5 30v12h44v-12t6 -28t23.5 -28t51.5 -12q35 0 57 12t35 28t18.5 28l5.5 12h44l-6.5 -18t-23.5 -42t-48.5 -42.5t-81.5 -18.5zM334 540q51 0 84.5 -17t53.5 -40t29 -43t11 -25h5l25 115h55
l-113 -530h-56l20 92h-4l-11.5 -15.5t-34.5 -35.5t-58 -35.5t-82 -15.5q-67 0 -111.5 32.5t-66.5 84.5t-22 112q0 57 18.5 114t54 103.5t87 75t116.5 28.5zM336 490q-53 0 -94.5 -24t-70 -64.5t-43.5 -88.5t-15 -95t16 -87.5t49.5 -65.5t86.5 -25q52 0 93.5 24.5t70.5 64.5
t44 88.5t15 95.5q0 48 -16 88t-49.5 64.5t-86.5 24.5z" />
    <glyph glyph-name="uni1EB2" unicode="&#x1eb2;" horiz-adv-x="673" 
d="M468 952l7 32q4 18 20 25l15 7q28 12 43.5 27t15.5 34q0 14 -11 26t-34 12q-26 0 -37.5 -12t-14.5 -23.5l-3 -11.5h-39l2.5 12.5t12 29t28.5 29t52 12.5q44 0 64 -23t20 -51q0 -32 -26 -54t-68 -39l-7 -32h-40zM475 820q-41 0 -65.5 12.5t-37 30.5t-17.5 36t-5 30v12h44
v-12t6 -28t23.5 -28t51.5 -12q35 0 57 12t35 28t18.5 28l5.5 12h44l-6.5 -18t-23.5 -42t-48.5 -42.5t-81.5 -18.5zM-6 0l422 740h68l108 -740h-56l-30 206h-331l-117 -206h-64zM203 256h296l-59 416z" />
    <glyph glyph-name="uni1EB3" unicode="&#x1eb3;" horiz-adv-x="607" 
d="M378 742l7 32q4 18 20 25l15 7q28 12 43.5 27t15.5 34q0 14 -11 26t-34 12q-26 0 -37.5 -12t-14.5 -23.5l-3 -11.5h-39l2.5 12.5t12 29t28.5 29t52 12.5q44 0 64 -23t20 -51q0 -32 -26 -54t-68 -39l-7 -32h-40zM385 610q-41 0 -65.5 12.5t-37 30.5t-17.5 36t-5 30v12h44
v-12t6 -28t23.5 -28t51.5 -12q35 0 57 12t35 28t18.5 28l5.5 12h44l-6.5 -18t-23.5 -42t-48.5 -42.5t-81.5 -18.5zM334 540q51 0 84.5 -17t53.5 -40t29 -43t11 -25h5l25 115h55l-113 -530h-56l20 92h-4l-11.5 -15.5t-34.5 -35.5t-58 -35.5t-82 -15.5q-67 0 -111.5 32.5
t-66.5 84.5t-22 112q0 57 18.5 114t54 103.5t87 75t116.5 28.5zM336 490q-53 0 -94.5 -24t-70 -64.5t-43.5 -88.5t-15 -95t16 -87.5t49.5 -65.5t86.5 -25q52 0 93.5 24.5t70.5 64.5t44 88.5t15 95.5q0 48 -16 88t-49.5 64.5t-86.5 24.5z" />
    <glyph glyph-name="uni1EB4" unicode="&#x1eb4;" horiz-adv-x="673" 
d="M567 986q-23 0 -38 12t-26 27.5t-22 27t-26 11.5q-18 0 -30 -20t-18 -52h-41q9 50 30.5 81.5t60.5 31.5q25 0 40.5 -11.5t26 -26.5t21 -27t25.5 -12q34 0 46 72h41q-9 -48 -30 -81t-60 -33zM475 820q-41 0 -65.5 12.5t-37 30.5t-17.5 36t-5 30v12h44v-12t6 -28t23.5 -28
t51.5 -12q35 0 57 12t35 28t18.5 28l5.5 12h44l-6.5 -18t-23.5 -42t-48.5 -42.5t-81.5 -18.5zM-6 0l422 740h68l108 -740h-56l-30 206h-331l-117 -206h-64zM203 256h296l-59 416z" />
    <glyph glyph-name="uni1EB5" unicode="&#x1eb5;" horiz-adv-x="607" 
d="M477 776q-23 0 -38 12t-26 27.5t-22 27t-26 11.5q-18 0 -30 -20t-18 -52h-41q9 50 30.5 81.5t60.5 31.5q25 0 40.5 -11.5t26 -26.5t21 -27t25.5 -12q34 0 46 72h41q-9 -48 -30 -81t-60 -33zM385 610q-41 0 -65.5 12.5t-37 30.5t-17.5 36t-5 30v12h44v-12t6 -28t23.5 -28
t51.5 -12q35 0 57 12t35 28t18.5 28l5.5 12h44l-6.5 -18t-23.5 -42t-48.5 -42.5t-81.5 -18.5zM334 540q51 0 84.5 -17t53.5 -40t29 -43t11 -25h5l25 115h55l-113 -530h-56l20 92h-4l-11.5 -15.5t-34.5 -35.5t-58 -35.5t-82 -15.5q-67 0 -111.5 32.5t-66.5 84.5t-22 112
q0 57 18.5 114t54 103.5t87 75t116.5 28.5zM336 490q-53 0 -94.5 -24t-70 -64.5t-43.5 -88.5t-15 -95t16 -87.5t49.5 -65.5t86.5 -25q52 0 93.5 24.5t70.5 64.5t44 88.5t15 95.5q0 48 -16 88t-49.5 64.5t-86.5 24.5z" />
    <glyph glyph-name="uni1EB6" unicode="&#x1eb6;" horiz-adv-x="673" 
d="M475 820q-42 0 -67 14t-37 34.5t-15.5 41t-3 34.5l0.5 14h45l-1 -14.5t4 -33.5t21.5 -33.5t52.5 -14.5t59 14.5t36 33.5t18 33.5l5 14.5h45l-3.5 -14t-13 -34.5t-27.5 -41t-47 -34.5t-72 -14zM-6 0l422 740h68l108 -740h-56l-30 206h-331l-117 -206h-64zM203 256h296
l-59 416zM247 -204q-20 0 -33 14t-13 33t13 33t33 14t33.5 -14t13.5 -33t-13.5 -33t-33.5 -14z" />
    <glyph glyph-name="uni1EB7" unicode="&#x1eb7;" horiz-adv-x="607" 
d="M385 610q-42 0 -67 14t-37 34.5t-15.5 41t-3 34.5l0.5 14h45l-1 -14.5t4 -33.5t21.5 -33.5t52.5 -14.5t59 14.5t36 33.5t18 33.5l5 14.5h45l-3.5 -14t-13 -34.5t-27.5 -41t-47 -34.5t-72 -14zM334 540q51 0 84.5 -17t53.5 -40t29 -43t11 -25h5l25 115h55l-113 -530h-56
l20 92h-4l-11.5 -15.5t-34.5 -35.5t-58 -35.5t-82 -15.5q-67 0 -111.5 32.5t-66.5 84.5t-22 112q0 57 18.5 114t54 103.5t87 75t116.5 28.5zM336 490q-53 0 -94.5 -24t-70 -64.5t-43.5 -88.5t-15 -95t16 -87.5t49.5 -65.5t86.5 -25q52 0 93.5 24.5t70.5 64.5t44 88.5
t15 95.5q0 48 -16 88t-49.5 64.5t-86.5 24.5zM214 -204q-20 0 -33 14t-13 33t13 33t33 14t33.5 -14t13.5 -33t-13.5 -33t-33.5 -14z" />
    <glyph glyph-name="uni1EB8" unicode="&#x1eb8;" horiz-adv-x="573" 
d="M32 0l157 740h426l-11 -51h-370l-60 -285h322l-11 -51h-322l-64 -302h375l-10 -51h-432zM214 -204q-20 0 -33 14t-13 33t13 33t33 14t33.5 -14t13.5 -33t-13.5 -33t-33.5 -14z" />
    <glyph glyph-name="uni1EB9" unicode="&#x1eb9;" horiz-adv-x="561" 
d="M252 -10q-72 0 -118.5 32t-69 83.5t-22.5 111.5q0 58 19.5 115t56.5 104t89.5 75.5t118.5 28.5q63 0 104.5 -23.5t63 -63.5t25.5 -89t-7 -100l-2 -12h-411q-6 -57 8.5 -105t51 -77.5t96.5 -29.5q50 0 84 17t55 39.5t30 40l9 17.5h53l-7.5 -16.5t-23.5 -41t-43.5 -49
t-66.5 -41t-93 -16.5zM108 298h356q8 50 -2 93.5t-43.5 71t-95.5 27.5q-55 0 -98.5 -26t-73 -70t-43.5 -96zM205 -204q-20 0 -33 14t-13 33t13 33t33 14t33.5 -14t13.5 -33t-13.5 -33t-33.5 -14z" />
    <glyph glyph-name="uni1EBA" unicode="&#x1eba;" horiz-adv-x="573" 
d="M377 811l7 33q3 18 20 25l14 6q29 13 44 28t15 34q0 14 -11 25.5t-34 11.5q-26 0 -37.5 -11.5t-14.5 -23.5l-3 -12h-38l2.5 12.5t11.5 29t28 29t53 12.5q43 0 63.5 -23t20.5 -50q0 -32 -26 -54t-69 -40l-7 -32h-39zM32 0l157 740h426l-11 -51h-370l-60 -285h322l-11 -51
h-322l-64 -302h375l-10 -51h-432z" />
    <glyph glyph-name="uni1EBB" unicode="&#x1ebb;" horiz-adv-x="561" 
d="M331 600l7 32q4 18 20 26l15 6q28 13 43.5 27.5t15.5 34.5q0 13 -11 25t-34 12q-26 0 -37.5 -11.5t-14.5 -23.5l-3 -12h-39l2.5 12.5t12 29t28.5 29t52 12.5q44 0 64 -23t20 -50q0 -32 -26 -54t-68 -40l-7 -32h-40zM252 -10q-72 0 -118.5 32t-69 83.5t-22.5 111.5
q0 58 19.5 115t56.5 104t89.5 75.5t118.5 28.5q63 0 104.5 -23.5t63 -63.5t25.5 -89t-7 -100l-2 -12h-411q-6 -57 8.5 -105t51 -77.5t96.5 -29.5q50 0 84 17t55 39.5t30 40l9 17.5h53l-7.5 -16.5t-23.5 -41t-43.5 -49t-66.5 -41t-93 -16.5zM108 298h356q8 50 -2 93.5
t-43.5 71t-95.5 27.5q-55 0 -98.5 -26t-73 -70t-43.5 -96z" />
    <glyph glyph-name="uni1EBC" unicode="&#x1ebc;" horiz-adv-x="573" 
d="M476 829q-24 0 -39 12t-26 27.5t-21.5 27t-26.5 11.5q-18 0 -30 -20t-17 -52h-42q10 50 31.5 81.5t60.5 31.5q24 0 39.5 -11.5t26 -26.5t21 -27t25.5 -12q34 0 46 72h41q-9 -48 -30 -81t-59 -33zM32 0l157 740h426l-11 -51h-370l-60 -285h322l-11 -51h-322l-64 -302h375
l-10 -51h-432z" />
    <glyph glyph-name="uni1EBD" unicode="&#x1ebd;" horiz-adv-x="561" 
d="M430 618q-23 0 -38 11.5t-26 27t-22 27.5t-26 12q-18 0 -30 -20t-18 -53h-41q9 50 30.5 82t60.5 32q25 0 40.5 -11.5t26 -27t21 -27t25.5 -11.5q34 0 46 72h41q-9 -48 -30 -81t-60 -33zM252 -10q-72 0 -118.5 32t-69 83.5t-22.5 111.5q0 58 19.5 115t56.5 104t89.5 75.5
t118.5 28.5q63 0 104.5 -23.5t63 -63.5t25.5 -89t-7 -100l-2 -12h-411q-6 -57 8.5 -105t51 -77.5t96.5 -29.5q50 0 84 17t55 39.5t30 40l9 17.5h53l-7.5 -16.5t-23.5 -41t-43.5 -49t-66.5 -41t-93 -16.5zM108 298h356q8 50 -2 93.5t-43.5 71t-95.5 27.5q-55 0 -98.5 -26
t-73 -70t-43.5 -96z" />
    <glyph glyph-name="uni1EBE" unicode="&#x1ebe;" horiz-adv-x="573" 
d="M592 939l-46 1l80 161h56zM265 817l144 141h51l85 -141h-51l-63 107l-106 -107h-60zM32 0l157 740h426l-11 -51h-370l-60 -285h322l-11 -51h-322l-64 -302h375l-10 -51h-432z" />
    <glyph glyph-name="uni1EBF" unicode="&#x1ebf;" horiz-adv-x="561" 
d="M547 728h-46l80 162h56zM219 606l144 141h52l85 -141h-51l-63 107l-107 -107h-60zM252 -10q-72 0 -118.5 32t-69 83.5t-22.5 111.5q0 58 19.5 115t56.5 104t89.5 75.5t118.5 28.5q63 0 104.5 -23.5t63 -63.5t25.5 -89t-7 -100l-2 -12h-411q-6 -57 8.5 -105t51 -77.5
t96.5 -29.5q50 0 84 17t55 39.5t30 40l9 17.5h53l-7.5 -16.5t-23.5 -41t-43.5 -49t-66.5 -41t-93 -16.5zM108 298h356q8 50 -2 93.5t-43.5 71t-95.5 27.5q-55 0 -98.5 -26t-73 -70t-43.5 -96z" />
    <glyph glyph-name="uni1EC0" unicode="&#x1ec0;" horiz-adv-x="573" 
d="M549 939l-68 162h55l58 -161zM265 817l144 141h51l85 -141h-51l-63 107l-106 -107h-60zM32 0l157 740h426l-11 -51h-370l-60 -285h322l-11 -51h-322l-64 -302h375l-10 -51h-432z" />
    <glyph glyph-name="uni1EC1" unicode="&#x1ec1;" horiz-adv-x="561" 
d="M504 728l-68 162h55l57 -162h-44zM219 606l144 141h52l85 -141h-51l-63 107l-107 -107h-60zM252 -10q-72 0 -118.5 32t-69 83.5t-22.5 111.5q0 58 19.5 115t56.5 104t89.5 75.5t118.5 28.5q63 0 104.5 -23.5t63 -63.5t25.5 -89t-7 -100l-2 -12h-411q-6 -57 8.5 -105
t51 -77.5t96.5 -29.5q50 0 84 17t55 39.5t30 40l9 17.5h53l-7.5 -16.5t-23.5 -41t-43.5 -49t-66.5 -41t-93 -16.5zM108 298h356q8 50 -2 93.5t-43.5 71t-95.5 27.5q-55 0 -98.5 -26t-73 -70t-43.5 -96z" />
    <glyph glyph-name="uni1EC2" unicode="&#x1ec2;" horiz-adv-x="573" 
d="M537 925l7 33q4 18 20 25l14 6q29 13 44 28t15 34q0 14 -10.5 25.5t-34.5 11.5q-26 0 -37.5 -11.5t-14 -23.5l-2.5 -12h-39l2.5 12.5t11.5 29t28.5 29t52.5 12.5q44 0 64 -22.5t20 -50.5q0 -32 -26 -54t-69 -40l-7 -32h-39zM261 817l144 141h52l85 -141h-51l-63 107
l-107 -107h-60zM32 0l157 740h426l-11 -51h-370l-60 -285h322l-11 -51h-322l-64 -302h375l-10 -51h-432z" />
    <glyph glyph-name="uni1EC3" unicode="&#x1ec3;" horiz-adv-x="561" 
d="M492 714l7 32q3 18 20 26l14 6q29 13 44 27.5t15 34.5q0 13 -10.5 25t-34.5 12q-26 0 -37.5 -11.5t-14.5 -23.5l-3 -12h-38l2.5 12.5t11.5 29t28 29t53 12.5q43 0 63.5 -23t20.5 -50q0 -32 -26 -54t-69 -40l-7 -32h-39zM216 606l144 141h52l84 -141h-50l-63 107
l-107 -107h-60zM252 -10q-72 0 -118.5 32t-69 83.5t-22.5 111.5q0 58 19.5 115t56.5 104t89.5 75.5t118.5 28.5q63 0 104.5 -23.5t63 -63.5t25.5 -89t-7 -100l-2 -12h-411q-6 -57 8.5 -105t51 -77.5t96.5 -29.5q50 0 84 17t55 39.5t30 40l9 17.5h53l-7.5 -16.5t-23.5 -41
t-43.5 -49t-66.5 -41t-93 -16.5zM108 298h356q8 50 -2 93.5t-43.5 71t-95.5 27.5q-55 0 -98.5 -26t-73 -70t-43.5 -96z" />
    <glyph glyph-name="uni1EC4" unicode="&#x1ec4;" horiz-adv-x="573" 
d="M504 998q-24 0 -39 11.5t-25.5 27t-21.5 27t-26 11.5q-19 0 -31 -19.5t-17 -52.5h-41q9 50 30.5 82t60.5 32q25 0 40 -12t26 -27t21 -26.5t25 -11.5q34 0 46 72h42q-10 -49 -31 -81.5t-59 -32.5zM262 817l144 141h52l84 -141h-50l-63 107l-107 -107h-60zM32 0l157 740
h426l-11 -51h-370l-60 -285h322l-11 -51h-322l-64 -302h375l-10 -51h-432z" />
    <glyph glyph-name="uni1EC5" unicode="&#x1ec5;" horiz-adv-x="561" 
d="M459 786q-24 0 -39 12t-26 27.5t-21.5 27t-26.5 11.5q-18 0 -30 -20t-17 -52h-42q10 50 31.5 81.5t60.5 31.5q24 0 39.5 -11.5t26 -26.5t21 -27t25.5 -12q34 0 46 72h41q-9 -48 -30 -81t-59 -33zM217 606l144 141h51l85 -141h-51l-63 107l-106 -107h-60zM252 -10
q-72 0 -118.5 32t-69 83.5t-22.5 111.5q0 58 19.5 115t56.5 104t89.5 75.5t118.5 28.5q63 0 104.5 -23.5t63 -63.5t25.5 -89t-7 -100l-2 -12h-411q-6 -57 8.5 -105t51 -77.5t96.5 -29.5q50 0 84 17t55 39.5t30 40l9 17.5h53l-7.5 -16.5t-23.5 -41t-43.5 -49t-66.5 -41
t-93 -16.5zM108 298h356q8 50 -2 93.5t-43.5 71t-95.5 27.5q-55 0 -98.5 -26t-73 -70t-43.5 -96z" />
    <glyph glyph-name="uni1EC6" unicode="&#x1ec6;" horiz-adv-x="573" 
d="M261 817l144 141h52l85 -141h-51l-63 107l-107 -107h-60zM32 0l157 740h426l-11 -51h-370l-60 -285h322l-11 -51h-322l-64 -302h375l-10 -51h-432zM214 -204q-20 0 -33 14t-13 33t13 33t33 14t33.5 -14t13.5 -33t-13.5 -33t-33.5 -14z" />
    <glyph glyph-name="uni1EC7" unicode="&#x1ec7;" horiz-adv-x="561" 
d="M219 606l148 157h51l82 -157h-51l-60 120l-110 -120h-60zM252 -10q-72 0 -118.5 32t-69 83.5t-22.5 111.5q0 58 19.5 115t56.5 104t89.5 75.5t118.5 28.5q63 0 104.5 -23.5t63 -63.5t25.5 -89t-7 -100l-2 -12h-411q-6 -57 8.5 -105t51 -77.5t96.5 -29.5q50 0 84 17
t55 39.5t30 40l9 17.5h53l-7.5 -16.5t-23.5 -41t-43.5 -49t-66.5 -41t-93 -16.5zM108 298h356q8 50 -2 93.5t-43.5 71t-95.5 27.5q-55 0 -98.5 -26t-73 -70t-43.5 -96zM205 -204q-20 0 -33 14t-13 33t13 33t33 14t33.5 -14t13.5 -33t-13.5 -33t-33.5 -14z" />
    <glyph glyph-name="uni1EC8" unicode="&#x1ec8;" horiz-adv-x="231" 
d="M204 798l7 32q4 18 20 26l14 6q29 13 44 27.5t15 34.5q0 13 -10.5 25t-34.5 12q-26 0 -37.5 -11.5t-14 -23.5l-2.5 -12h-39l2.5 12.5t11.5 29t28.5 29t52.5 12.5q44 0 64 -23t20 -50q0 -32 -26 -54t-69 -40l-7 -32h-39zM32 0l157 740h56l-157 -740h-56z" />
    <glyph glyph-name="uni1EC9" unicode="&#x1ec9;" horiz-adv-x="229" 
d="M156 601l7 33q3 18 20 25l14 6q29 13 44 28t15 34q0 14 -10.5 25.5t-34.5 11.5q-26 0 -37.5 -11.5t-14.5 -23.5l-3 -12h-38l2.5 12.5t11.5 29t28 29t53 12.5q43 0 63.5 -23t20.5 -50q0 -32 -26 -54t-69 -40l-7 -32h-39zM27 0l113 530h54l-113 -530h-54z" />
    <glyph glyph-name="uni1ECA" unicode="&#x1eca;" horiz-adv-x="231" 
d="M32 0l157 740h56l-157 -740h-56zM27 -204q-20 0 -33 14t-13 33t13 33t33 14t33.5 -14t13.5 -33t-13.5 -33t-33.5 -14z" />
    <glyph glyph-name="uni1ECB" unicode="&#x1ecb;" horiz-adv-x="229" 
d="M197 629q-19 0 -31.5 13t-12.5 31t12.5 31.5t31.5 13.5t32 -13.5t13 -31.5t-13 -31t-32 -13zM27 0l113 530h54l-113 -530h-54zM21 -204q-20 0 -33.5 14t-13.5 33t13.5 33t33.5 14q19 0 33 -14t14 -33t-14 -33t-33 -14z" />
    <glyph glyph-name="uni1ECC" unicode="&#x1ecc;" horiz-adv-x="784" 
d="M357 -10q-75 0 -130.5 26t-91 70.5t-53 102t-17.5 120.5q0 78 26 156t76 142.5t122.5 103.5t165.5 39q75 0 130 -26t90.5 -71t53 -102t17.5 -120q0 -78 -26 -156t-75.5 -142.5t-122 -103.5t-165.5 -39zM358 42q79 0 140.5 34.5t104 91.5t64.5 126t22 137q0 70 -25 131
t-77 98.5t-133 37.5q-79 0 -140.5 -35t-104.5 -92t-65 -125.5t-22 -136.5q0 -70 25.5 -131t77.5 -98.5t133 -37.5zM303 -204q-20 0 -33.5 14t-13.5 33t13.5 33t33.5 14q19 0 33 -14t14 -33t-14 -33t-33 -14z" />
    <glyph glyph-name="uni1ECD" unicode="&#x1ecd;" horiz-adv-x="582" 
d="M253 -10q-72 0 -118.5 32.5t-69 85t-22.5 112.5q0 56 19 112.5t55 103.5t88.5 75.5t120.5 28.5q72 0 118.5 -32.5t69 -84.5t22.5 -113q0 -56 -19 -112.5t-55.5 -103.5t-89 -75.5t-119.5 -28.5zM255 40q53 0 95.5 24t71.5 63.5t44 87t15 94.5q0 48 -17 89t-51.5 66.5
t-88.5 25.5t-96 -24t-71.5 -63.5t-44.5 -87t-15 -94.5q0 -48 17 -89t52 -66.5t89 -25.5zM199 -204q-20 0 -33 14t-13 33t13 33t33 14t33.5 -14t13.5 -33t-13.5 -33t-33.5 -14z" />
    <glyph glyph-name="uni1ECE" unicode="&#x1ece;" horiz-adv-x="784" 
d="M459 811l7 33q3 18 20 25l14 6q29 13 44 28t15 34q0 14 -10.5 25.5t-34.5 11.5q-26 0 -37.5 -11.5t-14.5 -23.5l-3 -12h-38l2.5 12.5t11.5 29t28 29t53 12.5q43 0 63.5 -23t20.5 -50q0 -32 -26 -54t-69 -40l-7 -32h-39zM357 -10q-75 0 -130.5 26t-91 70.5t-53 102
t-17.5 120.5q0 78 26 156t76 142.5t122.5 103.5t165.5 39q75 0 130 -26t90.5 -71t53 -102t17.5 -120q0 -78 -26 -156t-75.5 -142.5t-122 -103.5t-165.5 -39zM358 42q79 0 140.5 34.5t104 91.5t64.5 126t22 137q0 70 -25 131t-77 98.5t-133 37.5q-79 0 -140.5 -35t-104.5 -92
t-65 -125.5t-22 -136.5q0 -70 25.5 -131t77.5 -98.5t133 -37.5z" />
    <glyph glyph-name="uni1ECF" unicode="&#x1ecf;" horiz-adv-x="582" 
d="M323 601l7 33q4 18 20 25l15 6q28 13 43.5 28t15.5 34q0 14 -11 25.5t-34 11.5q-26 0 -37.5 -11.5t-14.5 -23.5l-3 -12h-39l2.5 12.5t12 29t28.5 29t52 12.5q44 0 64 -23t20 -50q0 -32 -26 -54t-68 -40l-7 -32h-40zM253 -10q-72 0 -118.5 32.5t-69 85t-22.5 112.5
q0 56 19 112.5t55 103.5t88.5 75.5t120.5 28.5q72 0 118.5 -32.5t69 -84.5t22.5 -113q0 -56 -19 -112.5t-55.5 -103.5t-89 -75.5t-119.5 -28.5zM255 40q53 0 95.5 24t71.5 63.5t44 87t15 94.5q0 48 -17 89t-51.5 66.5t-88.5 25.5t-96 -24t-71.5 -63.5t-44.5 -87t-15 -94.5
q0 -48 17 -89t52 -66.5t89 -25.5z" />
    <glyph glyph-name="uni1ED0" unicode="&#x1ed0;" horiz-adv-x="784" 
d="M674 939l-46 1l80 161h56zM347 817l144 141h51l85 -141h-51l-63 107l-106 -107h-60zM357 -10q-75 0 -130.5 26t-91 70.5t-53 102t-17.5 120.5q0 78 26 156t76 142.5t122.5 103.5t165.5 39q75 0 130 -26t90.5 -71t53 -102t17.5 -120q0 -78 -26 -156t-75.5 -142.5
t-122 -103.5t-165.5 -39zM358 42q79 0 140.5 34.5t104 91.5t64.5 126t22 137q0 70 -25 131t-77 98.5t-133 37.5q-79 0 -140.5 -35t-104.5 -92t-65 -125.5t-22 -136.5q0 -70 25.5 -131t77.5 -98.5t133 -37.5z" />
    <glyph glyph-name="uni1ED1" unicode="&#x1ed1;" horiz-adv-x="582" 
d="M539 729l-46 1l80 161h56zM211 607l144 141h52l85 -141h-51l-63 107l-107 -107h-60zM253 -10q-72 0 -118.5 32.5t-69 85t-22.5 112.5q0 56 19 112.5t55 103.5t88.5 75.5t120.5 28.5q72 0 118.5 -32.5t69 -84.5t22.5 -113q0 -56 -19 -112.5t-55.5 -103.5t-89 -75.5
t-119.5 -28.5zM255 40q53 0 95.5 24t71.5 63.5t44 87t15 94.5q0 48 -17 89t-51.5 66.5t-88.5 25.5t-96 -24t-71.5 -63.5t-44.5 -87t-15 -94.5q0 -48 17 -89t52 -66.5t89 -25.5z" />
    <glyph glyph-name="uni1ED2" unicode="&#x1ed2;" horiz-adv-x="784" 
d="M631 939l-68 162h55l58 -161zM347 817l144 141h51l85 -141h-51l-63 107l-106 -107h-60zM357 -10q-75 0 -130.5 26t-91 70.5t-53 102t-17.5 120.5q0 78 26 156t76 142.5t122.5 103.5t165.5 39q75 0 130 -26t90.5 -71t53 -102t17.5 -120q0 -78 -26 -156t-75.5 -142.5
t-122 -103.5t-165.5 -39zM358 42q79 0 140.5 34.5t104 91.5t64.5 126t22 137q0 70 -25 131t-77 98.5t-133 37.5q-79 0 -140.5 -35t-104.5 -92t-65 -125.5t-22 -136.5q0 -70 25.5 -131t77.5 -98.5t133 -37.5z" />
    <glyph glyph-name="uni1ED3" unicode="&#x1ed3;" horiz-adv-x="582" 
d="M496 729l-68 162h55l57 -161zM211 607l144 141h52l85 -141h-51l-63 107l-107 -107h-60zM253 -10q-72 0 -118.5 32.5t-69 85t-22.5 112.5q0 56 19 112.5t55 103.5t88.5 75.5t120.5 28.5q72 0 118.5 -32.5t69 -84.5t22.5 -113q0 -56 -19 -112.5t-55.5 -103.5t-89 -75.5
t-119.5 -28.5zM255 40q53 0 95.5 24t71.5 63.5t44 87t15 94.5q0 48 -17 89t-51.5 66.5t-88.5 25.5t-96 -24t-71.5 -63.5t-44.5 -87t-15 -94.5q0 -48 17 -89t52 -66.5t89 -25.5z" />
    <glyph glyph-name="uni1ED4" unicode="&#x1ed4;" horiz-adv-x="784" 
d="M619 925l7 33q4 18 20 25l14 6q29 13 44 28t15 34q0 14 -10.5 25.5t-34.5 11.5q-26 0 -37.5 -11.5t-14 -23.5l-2.5 -12h-39l2.5 12.5t11.5 29t28.5 29t52.5 12.5q44 0 64 -22.5t20 -50.5q0 -32 -26 -54t-69 -40l-7 -32h-39zM343 817l144 141h52l85 -141h-51l-63 107
l-107 -107h-60zM357 -10q-75 0 -130.5 26t-91 70.5t-53 102t-17.5 120.5q0 78 26 156t76 142.5t122.5 103.5t165.5 39q75 0 130 -26t90.5 -71t53 -102t17.5 -120q0 -78 -26 -156t-75.5 -142.5t-122 -103.5t-165.5 -39zM358 42q79 0 140.5 34.5t104 91.5t64.5 126t22 137
q0 70 -25 131t-77 98.5t-133 37.5q-79 0 -140.5 -35t-104.5 -92t-65 -125.5t-22 -136.5q0 -70 25.5 -131t77.5 -98.5t133 -37.5z" />
    <glyph glyph-name="uni1ED5" unicode="&#x1ed5;" horiz-adv-x="582" 
d="M484 715l7 33q3 18 20 25l14 6q29 13 44 28t15 34q0 14 -10.5 25.5t-34.5 11.5q-26 0 -37.5 -11.5t-14.5 -23.5l-3 -12h-38l2.5 12.5t11.5 29t28 29t53 12.5q43 0 63.5 -23t20.5 -50q0 -32 -26 -54t-69 -40l-7 -32h-39zM208 607l144 141h52l84 -141h-50l-63 107
l-107 -107h-60zM253 -10q-72 0 -118.5 32.5t-69 85t-22.5 112.5q0 56 19 112.5t55 103.5t88.5 75.5t120.5 28.5q72 0 118.5 -32.5t69 -84.5t22.5 -113q0 -56 -19 -112.5t-55.5 -103.5t-89 -75.5t-119.5 -28.5zM255 40q53 0 95.5 24t71.5 63.5t44 87t15 94.5q0 48 -17 89
t-51.5 66.5t-88.5 25.5t-96 -24t-71.5 -63.5t-44.5 -87t-15 -94.5q0 -48 17 -89t52 -66.5t89 -25.5z" />
    <glyph glyph-name="uni1ED6" unicode="&#x1ed6;" horiz-adv-x="784" 
d="M586 998q-24 0 -39 11.5t-25.5 27t-21.5 27t-26 11.5q-19 0 -31 -19.5t-17 -52.5h-41q9 50 30.5 82t60.5 32q25 0 40 -12t26 -27t21 -26.5t25 -11.5q34 0 46 72h42q-10 -49 -31 -81.5t-59 -32.5zM344 817l144 141h52l84 -141h-50l-63 107l-107 -107h-60zM357 -10
q-75 0 -130.5 26t-91 70.5t-53 102t-17.5 120.5q0 78 26 156t76 142.5t122.5 103.5t165.5 39q75 0 130 -26t90.5 -71t53 -102t17.5 -120q0 -78 -26 -156t-75.5 -142.5t-122 -103.5t-165.5 -39zM358 42q79 0 140.5 34.5t104 91.5t64.5 126t22 137q0 70 -25 131t-77 98.5
t-133 37.5q-79 0 -140.5 -35t-104.5 -92t-65 -125.5t-22 -136.5q0 -70 25.5 -131t77.5 -98.5t133 -37.5z" />
    <glyph glyph-name="uni1ED7" unicode="&#x1ed7;" horiz-adv-x="582" 
d="M451 788q-24 0 -39 11.5t-26 27t-21.5 27t-26.5 11.5q-18 0 -30 -19.5t-17 -52.5h-42q10 50 31.5 82t60.5 32q24 0 39.5 -12t26 -27t21 -26.5t25.5 -11.5q34 0 46 72h41q-9 -49 -30 -81.5t-59 -32.5zM209 607l144 141h51l85 -141h-51l-63 107l-106 -107h-60zM253 -10
q-72 0 -118.5 32.5t-69 85t-22.5 112.5q0 56 19 112.5t55 103.5t88.5 75.5t120.5 28.5q72 0 118.5 -32.5t69 -84.5t22.5 -113q0 -56 -19 -112.5t-55.5 -103.5t-89 -75.5t-119.5 -28.5zM255 40q53 0 95.5 24t71.5 63.5t44 87t15 94.5q0 48 -17 89t-51.5 66.5t-88.5 25.5
t-96 -24t-71.5 -63.5t-44.5 -87t-15 -94.5q0 -48 17 -89t52 -66.5t89 -25.5z" />
    <glyph glyph-name="uni1ED8" unicode="&#x1ed8;" horiz-adv-x="784" 
d="M343 817l144 141h52l85 -141h-51l-63 107l-107 -107h-60zM357 -10q-75 0 -130.5 26t-91 70.5t-53 102t-17.5 120.5q0 78 26 156t76 142.5t122.5 103.5t165.5 39q75 0 130 -26t90.5 -71t53 -102t17.5 -120q0 -78 -26 -156t-75.5 -142.5t-122 -103.5t-165.5 -39zM358 42
q79 0 140.5 34.5t104 91.5t64.5 126t22 137q0 70 -25 131t-77 98.5t-133 37.5q-79 0 -140.5 -35t-104.5 -92t-65 -125.5t-22 -136.5q0 -70 25.5 -131t77.5 -98.5t133 -37.5zM303 -204q-20 0 -33.5 14t-13.5 33t13.5 33t33.5 14q19 0 33 -14t14 -33t-14 -33t-33 -14z" />
    <glyph glyph-name="uni1ED9" unicode="&#x1ed9;" horiz-adv-x="582" 
d="M211 607l148 157h51l82 -157h-51l-60 120l-110 -120h-60zM253 -10q-72 0 -118.5 32.5t-69 85t-22.5 112.5q0 56 19 112.5t55 103.5t88.5 75.5t120.5 28.5q72 0 118.5 -32.5t69 -84.5t22.5 -113q0 -56 -19 -112.5t-55.5 -103.5t-89 -75.5t-119.5 -28.5zM255 40
q53 0 95.5 24t71.5 63.5t44 87t15 94.5q0 48 -17 89t-51.5 66.5t-88.5 25.5t-96 -24t-71.5 -63.5t-44.5 -87t-15 -94.5q0 -48 17 -89t52 -66.5t89 -25.5zM199 -204q-20 0 -33 14t-13 33t13 33t33 14t33.5 -14t13.5 -33t-13.5 -33t-33.5 -14z" />
    <glyph glyph-name="uni1EDA" unicode="&#x1eda;" horiz-adv-x="784" 
d="M514 825l-46 1l80 161h56zM357 -10q-75 0 -130.5 26t-91 70.5t-53 102t-17.5 120.5q0 78 26 156t76 142.5t122.5 103.5t165.5 39v0v0h157q30 0 45 12.5t21 40.5l8 41h52l-10 -47q-17 -87 -106 -87h-11q69 -42 102 -117.5t33 -161.5q0 -78 -26 -156t-75.5 -142.5
t-122 -103.5t-165.5 -39zM358 42q79 0 140.5 34.5t104 91.5t64.5 126t22 137q0 70 -25 131t-77 98.5t-133 37.5q-79 0 -140.5 -35t-104.5 -92t-65 -125.5t-22 -136.5q0 -70 25.5 -131t77.5 -98.5t133 -37.5z" />
    <glyph glyph-name="uni1EDB" unicode="&#x1edb;" horiz-adv-x="582" 
d="M356 615l-46 1l79 161h57zM253 -10q-72 0 -118.5 32.5t-69 85t-22.5 112.5q0 56 19 112.5t55 103.5t88.5 75.5t120.5 28.5h114q32 0 48.5 13.5t21.5 42.5l8 38h48l-9 -43q-17 -88 -107 -88q44 -32 65 -83.5t21 -109.5q0 -56 -19 -112.5t-55.5 -103.5t-89 -75.5
t-119.5 -28.5zM255 40q53 0 95.5 24t71.5 63.5t44 87t15 94.5q0 48 -17 89t-51.5 66.5t-88.5 25.5t-96 -24t-71.5 -63.5t-44.5 -87t-15 -94.5q0 -48 17 -89t52 -66.5t89 -25.5z" />
    <glyph glyph-name="uni1EDC" unicode="&#x1edc;" horiz-adv-x="784" 
d="M462 825l-68 162h55l58 -161zM357 -10q-75 0 -130.5 26t-91 70.5t-53 102t-17.5 120.5q0 78 26 156t76 142.5t122.5 103.5t165.5 39v0v0h157q30 0 45 12.5t21 40.5l8 41h52l-10 -47q-17 -87 -106 -87h-11q69 -42 102 -117.5t33 -161.5q0 -78 -26 -156t-75.5 -142.5
t-122 -103.5t-165.5 -39zM358 42q79 0 140.5 34.5t104 91.5t64.5 126t22 137q0 70 -25 131t-77 98.5t-133 37.5q-79 0 -140.5 -35t-104.5 -92t-65 -125.5t-22 -136.5q0 -70 25.5 -131t77.5 -98.5t133 -37.5z" />
    <glyph glyph-name="uni1EDD" unicode="&#x1edd;" horiz-adv-x="582" 
d="M304 615l-68 162h55l57 -161zM253 -10q-72 0 -118.5 32.5t-69 85t-22.5 112.5q0 56 19 112.5t55 103.5t88.5 75.5t120.5 28.5h114q32 0 48.5 13.5t21.5 42.5l8 38h48l-9 -43q-17 -88 -107 -88q44 -32 65 -83.5t21 -109.5q0 -56 -19 -112.5t-55.5 -103.5t-89 -75.5
t-119.5 -28.5zM255 40q53 0 95.5 24t71.5 63.5t44 87t15 94.5q0 48 -17 89t-51.5 66.5t-88.5 25.5t-96 -24t-71.5 -63.5t-44.5 -87t-15 -94.5q0 -48 17 -89t52 -66.5t89 -25.5z" />
    <glyph glyph-name="uni1EDE" unicode="&#x1ede;" horiz-adv-x="784" 
d="M462 811l7 33q4 18 20 25l14 6q29 13 44 28t15 34q0 14 -10.5 25.5t-34.5 11.5q-26 0 -37.5 -11.5t-14 -23.5l-2.5 -12h-39l2.5 12.5t11.5 29t28.5 29t52.5 12.5q44 0 64 -23t20 -50q0 -32 -26 -54t-69 -40l-7 -32h-39zM357 -10q-75 0 -130.5 26t-91 70.5t-53 102
t-17.5 120.5q0 78 26 156t76 142.5t122.5 103.5t165.5 39v0v0h157q30 0 45 12.5t21 40.5l8 41h52l-10 -47q-17 -87 -106 -87h-11q69 -42 102 -117.5t33 -161.5q0 -78 -26 -156t-75.5 -142.5t-122 -103.5t-165.5 -39zM358 42q79 0 140.5 34.5t104 91.5t64.5 126t22 137
q0 70 -25 131t-77 98.5t-133 37.5q-79 0 -140.5 -35t-104.5 -92t-65 -125.5t-22 -136.5q0 -70 25.5 -131t77.5 -98.5t133 -37.5z" />
    <glyph glyph-name="uni1EDF" unicode="&#x1edf;" horiz-adv-x="582" 
d="M304 601l7 33q3 18 20 25l14 6q29 13 44 28t15 34q0 14 -11 25.5t-34 11.5q-26 0 -37.5 -11.5t-14.5 -23.5l-3 -12h-38l2.5 12.5t11.5 29t28 29t53 12.5q43 0 63.5 -23t20.5 -50q0 -32 -26 -54t-69 -40l-7 -32h-39zM253 -10q-72 0 -118.5 32.5t-69 85t-22.5 112.5
q0 56 19 112.5t55 103.5t88.5 75.5t120.5 28.5h114q32 0 48.5 13.5t21.5 42.5l8 38h48l-9 -43q-17 -88 -107 -88q44 -32 65 -83.5t21 -109.5q0 -56 -19 -112.5t-55.5 -103.5t-89 -75.5t-119.5 -28.5zM255 40q53 0 95.5 24t71.5 63.5t44 87t15 94.5q0 48 -17 89t-51.5 66.5
t-88.5 25.5t-96 -24t-71.5 -63.5t-44.5 -87t-15 -94.5q0 -48 17 -89t52 -66.5t89 -25.5z" />
    <glyph glyph-name="uni1EE0" unicode="&#x1ee0;" horiz-adv-x="784" 
d="M561 829q-24 0 -39 12t-25.5 27.5t-21.5 27t-26 11.5q-19 0 -31 -20t-17 -52h-41q9 50 30.5 81.5t60.5 31.5q25 0 40 -11.5t26 -26.5t21 -27t25 -12q34 0 46 72h42q-10 -48 -31 -81t-59 -33zM357 -10q-75 0 -130.5 26t-91 70.5t-53 102t-17.5 120.5q0 78 26 156t76 142.5
t122.5 103.5t165.5 39v0v0h157q30 0 45 12.5t21 40.5l8 41h52l-10 -47q-17 -87 -106 -87h-11q69 -42 102 -117.5t33 -161.5q0 -78 -26 -156t-75.5 -142.5t-122 -103.5t-165.5 -39zM358 42q79 0 140.5 34.5t104 91.5t64.5 126t22 137q0 70 -25 131t-77 98.5t-133 37.5
q-79 0 -140.5 -35t-104.5 -92t-65 -125.5t-22 -136.5q0 -70 25.5 -131t77.5 -98.5t133 -37.5z" />
    <glyph glyph-name="uni1EE1" unicode="&#x1ee1;" horiz-adv-x="582" 
d="M402 619q-23 0 -38 12t-26 27.5t-21.5 27t-25.5 11.5q-18 0 -29.5 -20t-16.5 -52h-41q9 50 30 81.5t59 31.5q24 0 39.5 -11.5t26 -26.5t21 -27t24.5 -12q34 0 45 72h41q-9 -48 -29.5 -81t-58.5 -33zM253 -10q-72 0 -118.5 32.5t-69 85t-22.5 112.5q0 56 19 112.5
t55 103.5t88.5 75.5t120.5 28.5h114q32 0 48.5 13.5t21.5 42.5l8 38h48l-9 -43q-17 -88 -107 -88q44 -32 65 -83.5t21 -109.5q0 -56 -19 -112.5t-55.5 -103.5t-89 -75.5t-119.5 -28.5zM255 40q53 0 95.5 24t71.5 63.5t44 87t15 94.5q0 48 -17 89t-51.5 66.5t-88.5 25.5
t-96 -24t-71.5 -63.5t-44.5 -87t-15 -94.5q0 -48 17 -89t52 -66.5t89 -25.5z" />
    <glyph glyph-name="uni1EE2" unicode="&#x1ee2;" horiz-adv-x="784" 
d="M357 -10q-75 0 -130.5 26t-91 70.5t-53 102t-17.5 120.5q0 78 26 156t76 142.5t122.5 103.5t165.5 39v0v0h157q30 0 45 12.5t21 40.5l8 41h52l-10 -47q-17 -87 -106 -87h-11q69 -42 102 -117.5t33 -161.5q0 -78 -26 -156t-75.5 -142.5t-122 -103.5t-165.5 -39zM358 42
q79 0 140.5 34.5t104 91.5t64.5 126t22 137q0 70 -25 131t-77 98.5t-133 37.5q-79 0 -140.5 -35t-104.5 -92t-65 -125.5t-22 -136.5q0 -70 25.5 -131t77.5 -98.5t133 -37.5zM303 -204q-20 0 -33.5 14t-13.5 33t13.5 33t33.5 14q19 0 33 -14t14 -33t-14 -33t-33 -14z" />
    <glyph glyph-name="uni1EE3" unicode="&#x1ee3;" horiz-adv-x="582" 
d="M253 -10q-72 0 -118.5 32.5t-69 85t-22.5 112.5q0 56 19 112.5t55 103.5t88.5 75.5t120.5 28.5h114q32 0 48.5 13.5t21.5 42.5l8 38h48l-9 -43q-17 -88 -107 -88q44 -32 65 -83.5t21 -109.5q0 -56 -19 -112.5t-55.5 -103.5t-89 -75.5t-119.5 -28.5zM255 40q53 0 95.5 24
t71.5 63.5t44 87t15 94.5q0 48 -17 89t-51.5 66.5t-88.5 25.5t-96 -24t-71.5 -63.5t-44.5 -87t-15 -94.5q0 -48 17 -89t52 -66.5t89 -25.5zM202 -204q-20 0 -33.5 14t-13.5 33t13.5 33t33.5 14q19 0 33 -14t14 -33t-14 -33t-33 -14z" />
    <glyph glyph-name="uni1EE4" unicode="&#x1ee4;" horiz-adv-x="706" 
d="M312 -10q-89 0 -144 38.5t-75 103t-3 143.5l99 465h56l-99 -469q-22 -104 23.5 -165.5t147.5 -61.5q67 0 117.5 28t83 78t45.5 115l101 475h56l-101 -475q-16 -79 -55.5 -141t-102 -98t-149.5 -36zM264 -204q-20 0 -33 14t-13 33t13 33t33 14t33.5 -14t13.5 -33
t-13.5 -33t-33.5 -14z" />
    <glyph glyph-name="uni1EE5" unicode="&#x1ee5;" horiz-adv-x="553" 
d="M202 -10q-79 0 -116.5 54.5t-17.5 149.5l71 336h56l-72 -337q-15 -74 9 -114t87 -40q58 0 100.5 32.5t69.5 86t40 114.5l54 258h56l-112 -530h-56l20 96h-4q-11 -16 -34.5 -41.5t-60.5 -45t-90 -19.5zM193 -204q-20 0 -33 14t-13 33t13 33t33 14t33.5 -14t13.5 -33
t-13.5 -33t-33.5 -14z" />
    <glyph glyph-name="uni1EE6" unicode="&#x1ee6;" horiz-adv-x="706" 
d="M442 811l7 33q4 18 20 25l15 6q28 13 43.5 28t15.5 34q0 14 -11 25.5t-34 11.5q-26 0 -37.5 -11.5t-14.5 -23.5l-3 -12h-39l2.5 12.5t12 29t28.5 29t52 12.5q44 0 64 -23t20 -50q0 -32 -26 -54t-68 -40l-7 -32h-40zM312 -10q-89 0 -144 38.5t-75 103t-3 143.5l99 465h56
l-99 -469q-22 -104 23.5 -165.5t147.5 -61.5q67 0 117.5 28t83 78t45.5 115l101 475h56l-101 -475q-16 -79 -55.5 -141t-102 -98t-149.5 -36z" />
    <glyph glyph-name="uni1EE7" unicode="&#x1ee7;" horiz-adv-x="553" 
d="M328 601l7 33q3 18 20 25l14 6q29 13 44 28t15 34q0 14 -11 25.5t-34 11.5q-26 0 -37.5 -11.5t-14.5 -23.5l-3 -12h-38l2.5 12.5t11.5 29t28 29t53 12.5q43 0 63.5 -23t20.5 -50q0 -32 -26 -54t-69 -40l-7 -32h-39zM202 -10q-79 0 -116.5 54.5t-17.5 149.5l71 336h56
l-72 -337q-15 -74 9 -114t87 -40q58 0 100.5 32.5t69.5 86t40 114.5l54 258h56l-112 -530h-56l20 96h-4q-11 -16 -34.5 -41.5t-60.5 -45t-90 -19.5z" />
    <glyph glyph-name="uni1EE8" unicode="&#x1ee8;" horiz-adv-x="706" 
d="M491 825l-46 1l80 161h56zM312 -10q-89 0 -144 38.5t-74.5 103t-3.5 143.5l99 465h56l-99 -469q-22 -104 23.5 -165.5t147.5 -61.5q67 0 117.5 28t83 78t45.5 115l101 475h53q55 0 66 53l8 41h51l-9 -47q-18 -87 -106 -87h-15l-93 -435q-16 -79 -55.5 -141t-102 -98
t-149.5 -36z" />
    <glyph glyph-name="uni1EE9" unicode="&#x1ee9;" horiz-adv-x="553" 
d="M368 615l-46 1l80 161h56zM202 -10q-79 0 -116.5 54.5t-17.5 149.5l71 336h56l-72 -337q-15 -74 9 -114t87 -40q58 0 100.5 32.5t69.5 86t40 114.5l54 258h41q32 0 48.5 13.5t21.5 42.5l8 38h48l-9 -43q-17 -88 -107 -88h-3l-104 -493h-56l20 96h-4q-11 -16 -34.5 -41.5
t-60.5 -45t-90 -19.5z" />
    <glyph glyph-name="uni1EEA" unicode="&#x1eea;" horiz-adv-x="706" 
d="M439 825l-68 162h55l58 -161zM312 -10q-89 0 -144 38.5t-74.5 103t-3.5 143.5l99 465h56l-99 -469q-22 -104 23.5 -165.5t147.5 -61.5q67 0 117.5 28t83 78t45.5 115l101 475h53q55 0 66 53l8 41h51l-9 -47q-18 -87 -106 -87h-15l-93 -435q-16 -79 -55.5 -141t-102 -98
t-149.5 -36z" />
    <glyph glyph-name="uni1EEB" unicode="&#x1eeb;" horiz-adv-x="553" 
d="M316 615l-68 162h55l58 -161zM202 -10q-79 0 -116.5 54.5t-17.5 149.5l71 336h56l-72 -337q-15 -74 9 -114t87 -40q58 0 100.5 32.5t69.5 86t40 114.5l54 258h41q32 0 48.5 13.5t21.5 42.5l8 38h48l-9 -43q-17 -88 -107 -88h-3l-104 -493h-56l20 96h-4
q-11 -16 -34.5 -41.5t-60.5 -45t-90 -19.5z" />
    <glyph glyph-name="uni1EEC" unicode="&#x1eec;" horiz-adv-x="706" 
d="M439 811l7 33q4 18 20 25l14 6q29 13 44 28t15 34q0 14 -10.5 25.5t-34.5 11.5q-26 0 -37.5 -11.5t-14 -23.5l-2.5 -12h-39l2.5 12.5t11.5 29t28.5 29t52.5 12.5q44 0 64 -23t20 -50q0 -32 -26 -54t-69 -40l-7 -32h-39zM312 -10q-89 0 -144 38.5t-74.5 103t-3.5 143.5
l99 465h56l-99 -469q-22 -104 23.5 -165.5t147.5 -61.5q67 0 117.5 28t83 78t45.5 115l101 475h53q55 0 66 53l8 41h51l-9 -47q-18 -87 -106 -87h-15l-93 -435q-16 -79 -55.5 -141t-102 -98t-149.5 -36z" />
    <glyph glyph-name="uni1EED" unicode="&#x1eed;" horiz-adv-x="553" 
d="M316 601l7 33q4 18 20 25l14 6q29 13 44 28t15 34q0 14 -10.5 25.5t-34.5 11.5q-26 0 -37.5 -11.5t-14 -23.5l-2.5 -12h-39l2.5 12.5t11.5 29t28.5 29t52.5 12.5q44 0 64 -23t20 -50q0 -32 -26 -54t-69 -40l-7 -32h-39zM202 -10q-79 0 -116.5 54.5t-17.5 149.5l71 336h56
l-72 -337q-15 -74 9 -114t87 -40q58 0 100.5 32.5t69.5 86t40 114.5l54 258h41q32 0 48.5 13.5t21.5 42.5l8 38h48l-9 -43q-17 -88 -107 -88h-3l-104 -493h-56l20 96h-4q-11 -16 -34.5 -41.5t-60.5 -45t-90 -19.5z" />
    <glyph glyph-name="uni1EEE" unicode="&#x1eee;" horiz-adv-x="706" 
d="M538 829q-24 0 -39 12t-25.5 27.5t-21.5 27t-26 11.5q-19 0 -31 -20t-17 -52h-41q9 50 30.5 81.5t60.5 31.5q25 0 40 -11.5t26 -26.5t21 -27t25 -12q34 0 46 72h42q-10 -48 -31 -81t-59 -33zM312 -10q-89 0 -144 38.5t-74.5 103t-3.5 143.5l99 465h56l-99 -469
q-22 -104 23.5 -165.5t147.5 -61.5q67 0 117.5 28t83 78t45.5 115l101 475h53q55 0 66 53l8 41h51l-9 -47q-18 -87 -106 -87h-15l-93 -435q-16 -79 -55.5 -141t-102 -98t-149.5 -36z" />
    <glyph glyph-name="uni1EEF" unicode="&#x1eef;" horiz-adv-x="553" 
d="M415 619q-24 0 -39 12t-25.5 27.5t-21.5 27t-26 11.5q-19 0 -31 -20t-17 -52h-41q9 50 30.5 81.5t60.5 31.5q25 0 40 -11.5t26 -26.5t21 -27t25 -12q34 0 46 72h42q-10 -48 -31 -81t-59 -33zM202 -10q-79 0 -116.5 54.5t-17.5 149.5l71 336h56l-72 -337q-15 -74 9 -114
t87 -40q58 0 100.5 32.5t69.5 86t40 114.5l54 258h41q32 0 48.5 13.5t21.5 42.5l8 38h48l-9 -43q-17 -88 -107 -88h-3l-104 -493h-56l20 96h-4q-11 -16 -34.5 -41.5t-60.5 -45t-90 -19.5z" />
    <glyph glyph-name="uni1EF0" unicode="&#x1ef0;" horiz-adv-x="706" 
d="M312 -10q-89 0 -144 38.5t-74.5 103t-3.5 143.5l99 465h56l-99 -469q-22 -104 23.5 -165.5t147.5 -61.5q67 0 117.5 28t83 78t45.5 115l101 475h53q55 0 66 53l8 41h51l-9 -47q-18 -87 -106 -87h-15l-93 -435q-16 -79 -55.5 -141t-102 -98t-149.5 -36zM261 -204
q-20 0 -33.5 14t-13.5 33t13.5 33t33.5 14q19 0 33 -14t14 -33t-14 -33t-33 -14z" />
    <glyph glyph-name="uni1EF1" unicode="&#x1ef1;" horiz-adv-x="553" 
d="M202 -10q-79 0 -116.5 54.5t-17.5 149.5l71 336h56l-72 -337q-15 -74 9 -114t87 -40q58 0 100.5 32.5t69.5 86t40 114.5l54 258h41q32 0 48.5 13.5t21.5 42.5l8 38h48l-9 -43q-17 -88 -107 -88h-3l-104 -493h-56l20 96h-4q-11 -16 -34.5 -41.5t-60.5 -45t-90 -19.5z
M182 -204q-20 0 -33.5 14t-13.5 33t13.5 33t33.5 14q19 0 33 -14t14 -33t-14 -33t-33 -14z" />
    <glyph glyph-name="Ygrave" unicode="&#x1ef2;" horiz-adv-x="616" 
d="M388 825l-67 162h55l57 -161zM220 0l58 274l-165 466h57l144 -409l317 409h67l-364 -467l-58 -273h-56z" />
    <glyph glyph-name="ygrave" unicode="&#x1ef3;" horiz-adv-x="536" 
d="M302 615l-68 162h55l57 -161zM-25 -196q-19 0 -31 2l-12 2l10 50l13.5 -1.5t28.5 -1.5q53 0 102.5 34t91.5 102l4 8l-94 531h55l82 -463l278 463h63l-337 -554q-53 -88 -116.5 -130t-137.5 -42z" />
    <glyph glyph-name="uni1EF4" unicode="&#x1ef4;" horiz-adv-x="616" 
d="M220 0l58 274l-165 466h57l144 -409l317 409h67l-364 -467l-58 -273h-56zM219 -204q-20 0 -33.5 14t-13.5 33t13.5 33t33.5 14q19 0 33 -14t14 -33t-14 -33t-33 -14z" />
    <glyph glyph-name="uni1EF5" unicode="&#x1ef5;" horiz-adv-x="536" 
d="M-25 -196q-19 0 -31 2l-12 2l10 50l13.5 -1.5t28.5 -1.5q53 0 102.5 34t91.5 102l4 8l-94 531h55l82 -463l278 463h63l-337 -554q-53 -88 -116.5 -130t-137.5 -42zM282 -204q-20 0 -33.5 14t-13.5 33t13.5 33t33.5 14q19 0 33 -14t14 -33t-14 -33t-33 -14z" />
    <glyph glyph-name="uni1EF6" unicode="&#x1ef6;" horiz-adv-x="616" 
d="M388 811l7 33q4 18 20 25l15 6q28 13 43.5 28t15.5 34q0 14 -11 25.5t-34 11.5q-26 0 -37.5 -11.5t-14.5 -23.5l-3 -12h-39l2.5 12.5t12 29t28.5 29t52 12.5q44 0 64 -23t20 -50q0 -32 -26 -54t-68 -40l-7 -32h-40zM220 0l58 274l-165 466h57l144 -409l317 409h67
l-364 -467l-58 -273h-56z" />
    <glyph glyph-name="uni1EF7" unicode="&#x1ef7;" horiz-adv-x="536" 
d="M302 601l7 33q3 18 20 25l14 6q29 13 44 28t15 34q0 14 -11 25.5t-34 11.5q-26 0 -37.5 -11.5t-14.5 -23.5l-3 -12h-38l2.5 12.5t11.5 29t28 29t53 12.5q43 0 63.5 -23t20.5 -50q0 -32 -26 -54t-69 -40l-7 -32h-39zM-25 -196q-19 0 -31 2l-12 2l10 50l13.5 -1.5
t28.5 -1.5q53 0 102.5 34t91.5 102l4 8l-94 531h55l82 -463l278 463h63l-337 -554q-53 -88 -116.5 -130t-137.5 -42z" />
    <glyph glyph-name="uni1EF8" unicode="&#x1ef8;" horiz-adv-x="616" 
d="M487 829q-23 0 -38 12t-26 27.5t-22 27t-26 11.5q-18 0 -30 -20t-18 -52h-41q9 50 30.5 81.5t60.5 31.5q25 0 40.5 -11.5t26 -26.5t21 -27t25.5 -12q34 0 46 72h41q-9 -48 -30 -81t-60 -33zM220 0l58 274l-165 466h57l144 -409l317 409h67l-364 -467l-58 -273h-56z" />
    <glyph glyph-name="uni1EF9" unicode="&#x1ef9;" horiz-adv-x="536" 
d="M401 619q-24 0 -39 12t-26 27.5t-21.5 27t-26.5 11.5q-18 0 -30 -20t-17 -52h-42q10 50 31.5 81.5t60.5 31.5q24 0 39.5 -11.5t26 -26.5t21 -27t25.5 -12q34 0 46 72h41q-9 -48 -30 -81t-59 -33zM-25 -196q-19 0 -31 2l-12 2l10 50l13.5 -1.5t28.5 -1.5q53 0 102.5 34
t91.5 102l4 8l-94 531h55l82 -463l278 463h63l-337 -554q-53 -88 -116.5 -130t-137.5 -42z" />
    <glyph glyph-name="endash" unicode="&#x2013;" horiz-adv-x="638" 
d="M113 288l6 50h421l-5 -50h-422z" />
    <glyph glyph-name="emdash" unicode="&#x2014;" horiz-adv-x="801" 
d="M113 288l7 50h583l-7 -50h-583z" />
    <glyph glyph-name="quoteleft" unicode="&#x2018;" horiz-adv-x="199" 
d="M205 740l-51 -84q20 -1 32 -14.5t12 -31.5q0 -19 -13.5 -32.5t-34.5 -13.5q-19 0 -33.5 11.5t-14.5 34.5q0 20 13.5 43t44.5 68l12 19h33z" />
    <glyph glyph-name="quoteright" unicode="&#x2019;" horiz-adv-x="192" 
d="M107 574l51 84q-20 1 -32 14.5t-12 31.5q0 19 13.5 32.5t34.5 13.5q19 0 33.5 -12t14.5 -34q0 -20 -13.5 -43t-44.5 -69l-12 -18h-33z" />
    <glyph glyph-name="quotesinglbase" unicode="&#x201a;" horiz-adv-x="294" 
d="M30 -90l52 84q-21 1 -32.5 15t-11.5 31q0 20 13 33.5t34 13.5q20 0 34.5 -12t14.5 -35q0 -19 -14 -42t-44 -69l-13 -19h-33z" />
    <glyph glyph-name="quotedblleft" unicode="&#x201c;" horiz-adv-x="342" 
d="M205 740l-51 -84q20 -1 32 -14.5t12 -31.5q0 -19 -13.5 -32.5t-34.5 -13.5q-19 0 -33.5 11.5t-14.5 34.5q0 20 13.5 43t44.5 68l12 19h33zM349 740l-52 -84q21 -1 32.5 -14.5t11.5 -31.5q0 -19 -13 -32.5t-35 -13.5q-19 0 -33.5 11.5t-14.5 34.5q0 20 13.5 43t44.5 68
l12 19h34z" />
    <glyph glyph-name="quotedblright" unicode="&#x201d;" horiz-adv-x="335" 
d="M250 574l52 84q-21 1 -32.5 14.5t-11.5 31.5q0 19 13 32.5t34 13.5q20 0 34.5 -12t14.5 -34q0 -20 -14 -43t-44 -69l-13 -18h-33zM107 574l51 84q-20 1 -32 14.5t-12 31.5q0 19 13.5 32.5t34.5 13.5q19 0 33.5 -12t14.5 -34q0 -20 -13.5 -43t-44.5 -69l-12 -18h-33z" />
    <glyph glyph-name="quotedblbase" unicode="&#x201e;" horiz-adv-x="394" 
d="M174 -90l52 84q-21 1 -32.5 15t-11.5 31q0 20 13 33.5t35 13.5q19 0 33.5 -12t14.5 -35q0 -19 -13.5 -42t-44.5 -69l-12 -19h-34zM31 -90l52 84q-21 1 -32.5 15t-11.5 31q0 20 13 33.5t34 13.5q20 0 34.5 -12t14.5 -35q0 -19 -14 -42t-44 -69l-13 -19h-33z" />
    <glyph glyph-name="dagger" unicode="&#x2020;" horiz-adv-x="625" 
d="M287 282l62 289h-182l10 47h182l36 172h51l-37 -172h182l-10 -47h-182l-61 -289h-51z" />
    <glyph glyph-name="daggerdbl" unicode="&#x2021;" horiz-adv-x="625" 
d="M288 282l32 150h-182l10 47h182l24 114h-181l9 47h182l32 150h51l-32 -150h181l-9 -47h-182l-24 -114h181l-10 -47h-181l-32 -150h-51z" />
    <glyph glyph-name="bullet" unicode="&#x2022;" horiz-adv-x="456" 
d="M250 264q-34 0 -61.5 16.5t-43 44t-15.5 60.5t15.5 60t43 43.5t61.5 16.5t61.5 -16.5t43.5 -43.5t16 -60t-16 -61t-43.5 -44t-61.5 -16z" />
    <glyph glyph-name="ellipsis" unicode="&#x2026;" horiz-adv-x="726" 
d="M316 -7q-20 0 -33.5 14t-13.5 33t13.5 33t33.5 14q19 0 33 -14t14 -33t-14 -33t-33 -14zM561 -7q-20 0 -33.5 14t-13.5 33t13.5 33t33.5 14q19 0 33 -14t14 -33t-14 -33t-33 -14zM76 -7q-20 0 -33.5 14t-13.5 33t13.5 33t33.5 14q19 0 33 -14t14 -33t-14 -33t-33 -14z
" />
    <glyph glyph-name="perthousand" unicode="&#x2030;" horiz-adv-x="1081" 
d="M248 474q-60 0 -88.5 37t-28.5 85q0 37 17 72.5t50 58.5t82 23q40 0 66.5 -17t39 -44.5t12.5 -59.5q0 -37 -17 -72.5t-50.5 -59t-82.5 -23.5zM108 0l554 740h54l-554 -740h-54zM250 512q34 0 58 18t36 45t12 54q0 33 -18.5 58.5t-59.5 25.5q-34 0 -57.5 -17.5t-36 -44.5
t-12.5 -55q0 -32 19 -58t59 -26zM849 -10q-60 0 -88.5 37t-28.5 85q0 37 17 72.5t50 58.5t82 23q40 0 66 -17t39 -44.5t13 -59.5q0 -37 -17 -72.5t-50.5 -59t-82.5 -23.5zM544 -10q-61 0 -89.5 37t-28.5 85q0 37 17 72.5t50 58.5t82 23q40 0 66.5 -17t39 -44.5t12.5 -59.5
q0 -37 -17 -72.5t-50.5 -59t-81.5 -23.5zM851 28q34 0 57.5 17.5t36 44.5t12.5 55q0 32 -18.5 58t-59.5 26q-34 0 -58 -18t-36 -44.5t-12 -54.5q0 -33 19 -58.5t59 -25.5zM545 28q34 0 58 17.5t36.5 44.5t12.5 55q0 32 -19 58t-59 26q-35 0 -58.5 -18t-36 -44.5t-12.5 -54.5
q0 -33 19 -58.5t59 -25.5z" />
    <glyph glyph-name="guilsinglleft" unicode="&#x2039;" horiz-adv-x="354" 
d="M368 526l-254 -211l154 -200h-58l-159 206l246 205h71z" />
    <glyph glyph-name="guilsinglright" unicode="&#x203a;" horiz-adv-x="354" 
d="M12 115l254 211l-154 200h58l160 -206l-247 -205h-71z" />
    <glyph glyph-name="fraction" unicode="&#x2044;" horiz-adv-x="471" 
d="M41 0l377 700h55l-379 -700h-53z" />
    <glyph glyph-name="uni2070" unicode="&#x2070;" horiz-adv-x="396" 
d="M235 415q-41 0 -67.5 21.5t-39 56t-12.5 75.5q0 42 12 85.5t35 80t55.5 59t73.5 22.5t67.5 -21t39.5 -56t13 -76q0 -42 -12 -85.5t-35 -80t-56 -59t-74 -22.5zM238 458q28 0 51 19t39.5 50t25.5 66.5t9 69.5q0 44 -17.5 76t-54.5 32q-28 0 -51 -19t-39.5 -49.5
t-25.5 -66.5t-9 -69q0 -45 17 -77t55 -32z" />
    <glyph glyph-name="uni2074" unicode="&#x2074;" horiz-adv-x="390" 
d="M273 420l19 91l-192 1l9 43l234 255h62l-55 -257h65l-9 -42h-65l-20 -91h-48zM160 553h141l42 200z" />
    <glyph glyph-name="uni2075" unicode="&#x2075;" horiz-adv-x="415" 
d="M262 415q-40 0 -65 12t-39 30.5t-19.5 36.5t-6.5 30l-1 12h46l1.5 -12t9 -28t25 -28t49.5 -12q35 0 58.5 15.5t35.5 40t12 48.5q0 33 -20.5 58t-62.5 25q-33 0 -53 -12.5t-29.5 -25l-9.5 -12.5h-46l63 217h223l-9 -43h-183l-36 -122h1l10 9t30 18.5t50 9.5
q40 0 66.5 -17.5t40 -44.5t13.5 -58q0 -35 -17.5 -69t-51.5 -56t-85 -22z" />
    <glyph glyph-name="uni2076" unicode="&#x2076;" horiz-adv-x="430" 
d="M273 415q-70 0 -103 43t-33 103q0 44 16 89t47 82.5t75.5 60t100.5 22.5q33 0 52 -4l19 -4l-10 -44l-17.5 4.5t-44.5 4.5q-66 0 -112 -40t-67 -101q13 18 36.5 33t62.5 15q40 0 67 -17.5t40.5 -45.5t13.5 -59q0 -34 -16 -67t-48 -54t-79 -21zM273 457q45 0 69.5 31.5
t24.5 68.5q0 32 -20 58t-61 26q-31 0 -53 -15t-33 -38t-11 -48q0 -32 20.5 -57.5t63.5 -25.5z" />
    <glyph glyph-name="uni2077" unicode="&#x2077;" horiz-adv-x="352" 
d="M147 416q15 67 41.5 124t57.5 101.5t58.5 75t44.5 46.5h-209l9 43h266l-7 -36l-17.5 -17t-44.5 -48.5t-56 -75t-54 -98t-38 -115.5h-51z" />
    <glyph glyph-name="uni2078" unicode="&#x2078;" horiz-adv-x="379" 
d="M252 415q-68 0 -100.5 32.5t-32.5 73.5q0 32 21.5 65t69.5 46v2q-26 12 -39.5 33t-13.5 45q0 25 15.5 49t45 39t72.5 15q61 0 92 -29t31 -66q0 -29 -18.5 -55t-58.5 -38v-3q33 -14 48 -38.5t15 -52.5q0 -29 -16.5 -56t-49 -44.5t-81.5 -17.5zM282 648q42 0 63 21t21 45
t-19 43t-57 19q-43 0 -64 -21.5t-21 -46.5q0 -23 19.5 -41.5t57.5 -18.5zM253 456q48 0 72.5 25.5t24.5 55.5q0 28 -21 50t-64 22q-48 0 -72.5 -26t-24.5 -56q0 -27 21 -49t64 -22z" />
    <glyph glyph-name="uni2079" unicode="&#x2079;" horiz-adv-x="430" 
d="M418 814q70 0 103 -43t33 -103q0 -45 -16.5 -89.5t-47 -82t-75 -60.5t-101.5 -23q-32 0 -51 4.5l-19 4.5l10 44l17 -4.5t45 -4.5q65 0 111.5 40t67.5 101q-13 -18 -36.5 -33.5t-62.5 -15.5q-40 0 -67 18t-40.5 45.5t-13.5 59.5q0 34 16 66.5t48 54t79 21.5zM418 772
q-46 0 -70.5 -31.5t-24.5 -68.5q0 -32 20 -58.5t61 -26.5q32 0 53.5 15t32.5 38.5t11 47.5q0 33 -20 58.5t-63 25.5z" />
    <glyph glyph-name="uni2080" unicode="&#x2080;" horiz-adv-x="396" 
d="M104 -200q-41 0 -67.5 21.5t-39 56t-12.5 75.5q0 42 12 85.5t35 80t55.5 59t73.5 22.5t67.5 -21t39.5 -56t13 -76q0 -42 -12 -85.5t-35 -80t-56 -59t-74 -22.5zM107 -157q28 0 51 19t39.5 50t25.5 66.5t9 69.5q0 44 -17.5 76t-54.5 32q-28 0 -51 -19t-39.5 -49.5
t-25.5 -66.5t-9 -69q0 -45 17 -77t55 -32z" />
    <glyph glyph-name="uni2081" unicode="&#x2081;" horiz-adv-x="267" 
d="M149 195l-83 -390h-48l65 309h-71l7 28l14 4q31 7 49 17t35 27l4 5h28z" />
    <glyph glyph-name="uni2082" unicode="&#x2082;" horiz-adv-x="386" 
d="M-36 -195l7 35l115 87q59 45 99 82.5t40 81.5q0 29 -20.5 47.5t-52.5 18.5q-31 0 -49 -13t-26 -30t-10.5 -29.5l-2.5 -12.5h-46l2 13t8.5 32t21.5 38t40 32t64 13q56 0 88.5 -31t32.5 -76q0 -37 -21.5 -68.5t-57.5 -62t-80 -62.5l-67 -51h196l-9 -44h-272z" />
    <glyph glyph-name="uni2083" unicode="&#x2083;" horiz-adv-x="380" 
d="M114 -200q-42 0 -68.5 12t-40.5 30t-20 36t-7 30.5l-1 12.5h46l2 -12t10 -27.5t27 -27.5t53 -12q47 0 71 24.5t24 54.5q0 35 -27 50.5t-55 15.5h-47l8 39h50q39 0 64.5 18.5t25.5 51.5q0 28 -20 46t-54 18q-31 0 -49 -11.5t-26 -26t-10.5 -25.5l-2.5 -11h-44l3.5 17.5
t16 40t39.5 39.5t75 17q57 0 88.5 -29t31.5 -69q0 -31 -15.5 -51t-35 -30.5t-29.5 -13.5l-1 -2q8 -3 23.5 -13t28 -28t12.5 -47q0 -28 -16.5 -55t-49 -44.5t-80.5 -17.5z" />
    <glyph glyph-name="uni2084" unicode="&#x2084;" horiz-adv-x="393" 
d="M135 -195l19 91l-192 1l9 43l234 255h62l-55 -257h65l-8 -42h-66l-20 -91h-48zM22 -62h141l42 200z" />
    <glyph glyph-name="uni2085" unicode="&#x2085;" horiz-adv-x="415" 
d="M131 -200q-40 0 -65 12t-39 30t-19.5 36.5t-6.5 30.5l-1 12h46l1.5 -12t9 -28t25 -28t49.5 -12q35 0 58.5 15.5t35.5 40t12 48.5q0 33 -20.5 58t-62.5 25q-33 0 -53 -12.5t-29.5 -25l-9.5 -12.5h-46l63 217h223l-9 -43h-183l-36 -122h1l10 9t30 18.5t50 9.5
q40 0 66.5 -17.5t40 -44.5t13.5 -58q0 -35 -17.5 -69t-51.5 -56t-85 -22z" />
    <glyph glyph-name="uni2086" unicode="&#x2086;" horiz-adv-x="430" 
d="M142 -200q-70 0 -103 43t-33 103q0 44 16 89t47 82.5t75.5 60t100.5 22.5q33 0 52 -4l19 -4l-10 -44l-17.5 4.5t-44.5 4.5q-66 0 -112 -40t-67 -101q13 18 36.5 33t62.5 15q40 0 67 -17.5t40.5 -45.5t13.5 -59q0 -34 -16 -67t-48 -54t-79 -21zM142 -158q45 0 69.5 31.5
t24.5 68.5q0 32 -20 58t-61 26q-31 0 -53 -15t-33 -38t-11 -48q0 -32 20.5 -57.5t63.5 -25.5z" />
    <glyph glyph-name="uni2087" unicode="&#x2087;" horiz-adv-x="342" 
d="M8 -195q14 68 41 124.5t57.5 101t58.5 75.5t44 46h-208l8 43h267l-8 -36l-17 -17t-44 -48t-56.5 -75t-54.5 -98t-37 -116h-51z" />
    <glyph glyph-name="uni2088" unicode="&#x2088;" horiz-adv-x="375" 
d="M116 -200q-68 0 -100.5 32.5t-32.5 73.5q0 32 21 65t70 46v2q-26 12 -39.5 33t-13.5 45q0 25 15.5 49t45 39t72.5 15q61 0 92 -29t31 -66q0 -29 -18.5 -55t-58.5 -38v-3q33 -14 47.5 -38.5t14.5 -52.5q0 -29 -16 -56t-48.5 -44.5t-81.5 -17.5zM146 33q42 0 63 21t21 45
t-19 43t-58 19q-42 0 -63 -21.5t-21 -46.5q0 -23 19 -41.5t58 -18.5zM116 -159q48 0 72.5 25.5t24.5 55.5q0 28 -21 50t-63 22q-48 0 -72.5 -26t-24.5 -56q0 -27 21 -49t63 -22z" />
    <glyph glyph-name="uni2089" unicode="&#x2089;" horiz-adv-x="430" 
d="M288 201q70 0 103 -43t33 -103q0 -44 -16.5 -89t-47 -82.5t-75 -60t-101.5 -22.5q-32 0 -51 4l-19 4l10 44l17 -4.5t45 -4.5q65 0 111.5 40t67.5 101q-13 -18 -36.5 -33t-62.5 -15q-40 0 -67 17.5t-40.5 45.5t-13.5 59q0 34 16 67t48 54t79 21zM288 159
q-46 0 -70.5 -31.5t-24.5 -68.5q0 -32 20 -58t61 -26q32 0 53.5 15t32.5 38t11 48q0 32 -20 57.5t-63 25.5z" />
    <glyph glyph-name="dong" unicode="&#x20ab;" horiz-adv-x="601" 
d="M219 126q-50 0 -83.5 24.5t-50 63.5t-16.5 84q0 42 14 84t40.5 77t64.5 56.5t87 21.5q37 0 61.5 -12t39.5 -28.5t22 -31t9 -19.5h3l32 145h-103l9 41h102l15 68h51l-14 -68h71l-8 -41h-72l-97 -457h-52l14 65h-4l-8 -11t-24.5 -25.5t-42 -25.5t-60.5 -11zM120 299
q0 -34 11.5 -63t35.5 -47t61 -18q50 0 86 30t55 75t19 90q0 50 -26 87.5t-83 37.5q-50 0 -85.5 -29.5t-54.5 -74t-19 -88.5zM1 0l9 42h479l-9 -42h-479z" />
    <glyph glyph-name="Euro" unicode="&#x20ac;" horiz-adv-x="784" 
d="M41 290l9 44h120q0 43 9 86h-110l9 44h112q24 77 74.5 142t128 104.5t181.5 39.5q49 0 90 -7t65.5 -13.5l24.5 -6.5l-11 -53l-24.5 7t-63.5 14t-82 7q-86 0 -151 -32t-109 -85.5t-65 -116.5h296l-9 -44h-299q-10 -43 -10 -85v-1h291l-9 -44h-279q8 -67 40 -123.5
t88.5 -91t138.5 -34.5q48 0 90.5 10t69 20l26.5 10l-11 -55l-23 -9t-63.5 -18t-92.5 -9q-101 0 -169.5 41.5t-106 110t-45.5 148.5h-130z" />
    <glyph glyph-name="trademark" unicode="&#x2122;" horiz-adv-x="805" 
d="M401 390l75 350h57l68 -213l159 213h59l-74 -350h-43l61 287l-151 -199h-40l-66 202l-62 -290h-43zM178 390l66 311h-115l9 39h272l-8 -39h-115l-66 -311h-43z" />
    <glyph glyph-name="oneeighth" unicode="&#x215b;" horiz-adv-x="838" 
d="M249 710l-75 -355h-51l58 275l-66 -1l6 31l13 3q27 7 45.5 16t36.5 27l4 4h29zM183 0l377 700h55l-378 -700h-54zM678 -6q-64 0 -94 29.5t-30 66.5q0 29 18.5 58.5t63.5 42.5v3q-24 10 -35.5 29.5t-11.5 39.5q0 36 31 66t92 30q57 0 86 -27t29 -62q0 -24 -16.5 -48.5
t-53.5 -35.5v-3q30 -12 43.5 -34.5t13.5 -47.5q0 -26 -15 -50.5t-45.5 -40.5t-75.5 -16zM705 207q36 0 54.5 18.5t18.5 39.5q0 20 -16.5 36.5t-50.5 16.5q-36 0 -54 -18.5t-18 -39.5q0 -20 16 -36.5t50 -16.5zM679 36q41 0 62 22t21 48q0 24 -18 43.5t-54 19.5
q-42 0 -63.5 -22.5t-21.5 -48.5q0 -24 18.5 -43t55.5 -19z" />
    <glyph glyph-name="threeeighths" unicode="&#x215c;" horiz-adv-x="937" 
d="M210 350q-49 0 -75.5 17t-37 39t-12.5 39l-2 17h49l1.5 -10.5t8.5 -24t23 -23.5t46 -10q40 0 61 21t21 47q0 29 -23 42.5t-47 13.5h-44l9 41h47q32 0 53.5 16t21.5 43q0 23 -17 38.5t-46 15.5q-27 0 -42.5 -9.5t-22.5 -22t-9 -22l-2 -9.5h-48l3 16t15 37t37.5 37t70.5 16
q54 0 83 -27t29 -63q0 -35 -22 -56.5t-50 -29.5l-1 -3q21 -8 39.5 -27t18.5 -51q0 -26 -15.5 -50.5t-45.5 -41t-75 -16.5zM308 0l378 700h54l-378 -700h-54zM803 -6q-64 0 -94 29.5t-30 66.5q0 29 18.5 58.5t64.5 42.5v3q-25 10 -36.5 29.5t-11.5 39.5q0 36 31.5 66t91.5 30
q57 0 86.5 -27t29.5 -62q0 -24 -17 -48.5t-53 -35.5v-3q29 -12 42.5 -34.5t13.5 -47.5q0 -26 -15 -50.5t-45 -40.5t-76 -16zM830 207q36 0 54.5 18.5t18.5 39.5q0 20 -16.5 36.5t-49.5 16.5q-37 0 -55 -18.5t-18 -39.5q0 -20 16.5 -36.5t49.5 -16.5zM804 36q42 0 63 22
t21 48q0 24 -18.5 43.5t-54.5 19.5q-42 0 -63 -22.5t-21 -48.5q0 -24 18.5 -43t54.5 -19z" />
    <glyph glyph-name="fiveeighths" unicode="&#x215d;" horiz-adv-x="916" 
d="M193 350q-46 0 -71 17t-35 39.5t-12 39l-2 16.5h48l1.5 -10t8 -23.5t21.5 -24t43 -10.5q44 0 67 28.5t23 60.5q0 27 -17.5 48.5t-53.5 21.5q-28 0 -45 -10.5t-24.5 -21l-7.5 -10.5h-51l58 199h208l-10 -45h-166l-30 -104h2l8 8.5t26 16.5t45 8q55 0 82.5 -34t27.5 -76
q0 -32 -16 -63t-48 -51t-80 -20zM291 0l377 700h55l-378 -700h-54zM786 -6q-64 0 -94 29.5t-30 66.5q0 29 18.5 58.5t63.5 42.5v3q-24 10 -35.5 29.5t-11.5 39.5q0 36 31 66t92 30q57 0 86 -27t29 -62q0 -24 -16.5 -48.5t-53.5 -35.5v-3q30 -12 43.5 -34.5t13.5 -47.5
q0 -26 -15 -50.5t-45.5 -40.5t-75.5 -16zM813 207q36 0 54.5 18.5t18.5 39.5q0 20 -16.5 36.5t-50.5 16.5q-36 0 -54 -18.5t-18 -39.5q0 -20 16 -36.5t50 -16.5zM787 36q41 0 62 22t21 48q0 24 -18 43.5t-54 19.5q-42 0 -63.5 -22.5t-21.5 -48.5q0 -24 18.5 -43t55.5 -19z
" />
    <glyph glyph-name="seveneighths" unicode="&#x215e;" horiz-adv-x="842" 
d="M130 355q13 61 36.5 112t51 90.5t52 66.5t39.5 41h-186l9 45h247l-8 -38l-15.5 -15t-39.5 -42.5t-50 -67t-48 -88t-33 -104.5h-55zM250 0l377 700h55l-378 -700h-54zM745 -6q-64 0 -94 29.5t-30 66.5q0 29 18.5 58.5t63.5 42.5v3q-24 10 -35.5 29.5t-11.5 39.5
q0 36 31 66t92 30q57 0 86 -27t29 -62q0 -24 -16.5 -48.5t-53.5 -35.5v-3q30 -12 43.5 -34.5t13.5 -47.5q0 -26 -15 -50.5t-45.5 -40.5t-75.5 -16zM772 207q36 0 54.5 18.5t18.5 39.5q0 20 -16.5 36.5t-50.5 16.5q-36 0 -54 -18.5t-18 -39.5q0 -20 16 -36.5t50 -16.5z
M746 36q41 0 62 22t21 48q0 24 -18 43.5t-54 19.5q-42 0 -63.5 -22.5t-21.5 -48.5q0 -24 18.5 -43t55.5 -19z" />
    <glyph glyph-name="minus" unicode="&#x2212;" horiz-adv-x="589" 
d="M107 287l11 51h379l-11 -51h-379z" />
    <glyph glyph-name="uni2215" unicode="&#x2215;" horiz-adv-x="485" 
d="M77 0l345 700h37l-345 -700h-37z" />
    <glyph glyph-name="approxequal" unicode="&#x2248;" horiz-adv-x="517" 
d="M323 364q-23 0 -38 12t-25.5 27.5t-21.5 27t-26 11.5q-19 0 -31 -20t-17 -53h-40q9 48 30 80t60 32q24 0 39.5 -11.5t26 -27t21 -27.5t25.5 -12q17 0 28.5 19.5t17.5 53.5h39q-8 -45 -28.5 -78.5t-59.5 -33.5zM323 164q-23 0 -38 12t-25.5 27.5t-21.5 27t-26 11.5
q-19 0 -31 -20t-17 -53h-40q9 48 30 80t60 32q24 0 39.5 -11.5t26 -27t21 -27.5t25.5 -12q17 0 28.5 19.5t17.5 53.5h39q-8 -45 -28.5 -78.5t-59.5 -33.5z" />
    <glyph glyph-name="notequal" unicode="&#x2260;" horiz-adv-x="687" 
d="M83 0l135 174h-135l11 50h162l133 171h-259l11 50h287l135 174h56l-136 -174h134l-10 -50h-162l-133 -171h258l-10 -50h-287l-135 -174h-55z" />
    <glyph glyph-name="lessequal" unicode="&#x2264;" horiz-adv-x="586" 
d="M447 163l-337 171l7 36l411 171l-11 -56l-334 -137l275 -137zM36 0l9 42h411l-9 -42h-411z" />
    <glyph glyph-name="greaterequal" unicode="&#x2265;" horiz-adv-x="584" 
d="M110 163l11 56l334 137l-275 137l11 48l337 -171l-7 -36zM57 0l9 42h411l-9 -42h-411z" />
    <glyph glyph-name="i.loclTRK" horiz-adv-x="229" 
d="M197 629q-19 0 -31.5 13t-12.5 31t12.5 31t31.5 13t32 -13t13 -31t-13 -31t-32 -13zM27 0l113 530h54l-113 -530h-54z" />
    <glyph glyph-name="a.ss01" horiz-adv-x="540" 
d="M365 85l-10.5 -14t-32 -33t-54.5 -33.5t-78 -14.5q-71 0 -115 40.5t-44 102.5q0 64 48 109t142 49l196 8l9 39q5 23 3.5 49.5t-14 50t-39.5 38.5t-73 15q-52 0 -83 -17.5t-46.5 -40.5t-20.5 -40.5l-5 -17.5h-55l4.5 17t17.5 41.5t36.5 49t60.5 41t92 16.5q64 0 108 -26.5
t62 -73.5t5 -109l-70 -331h-55l19 85h-8zM85 137q0 -49 34.5 -75t82.5 -26q50 0 91 26t69 68.5t39 91.5l6 31l-183 -7q-64 -3 -101.5 -31t-37.5 -78z" />
    <glyph glyph-name="aacute.ss01" horiz-adv-x="546" 
d="M361 615l-46 1l80 161h56zM364 85l-10.5 -14t-32 -33t-54.5 -33.5t-78 -14.5q-71 0 -115 40.5t-44 102.5q0 64 48 109t143 49l196 8l8 39q5 23 4 49.5t-12.5 50t-38.5 38.5t-73 15q-51 0 -82.5 -17.5t-47.5 -40.5t-21.5 -40.5l-5.5 -17.5h-56l5 17t18.5 41.5t37.5 49
t61.5 41t91.5 16.5q64 0 107.5 -26.5t61 -73.5t3.5 -109l-70 -331h-55l19 85h-8zM84 137q0 -49 35 -75t82 -26q50 0 91.5 26t69.5 68.5t38 91.5l7 31l-184 -7q-64 -3 -101.5 -31t-37.5 -78z" />
    <glyph glyph-name="abreve.ss01" horiz-adv-x="546" 
d="M346 610q-43 0 -68 14t-37 34.5t-15.5 41t-3 34.5l0.5 14h45l-1 -14.5t4 -33.5t22 -33.5t53 -14.5t59 14.5t36 33.5t18 33.5l5 14.5h45l-3.5 -14t-13.5 -34.5t-28 -41t-47 -34.5t-71 -14zM364 85l-10.5 -14t-32 -33t-54.5 -33.5t-78 -14.5q-71 0 -115 40.5t-44 102.5
q0 64 48 109t143 49l196 8l8 39q5 23 4 49.5t-12.5 50t-38.5 38.5t-73 15q-51 0 -82.5 -17.5t-47.5 -40.5t-21.5 -40.5l-5.5 -17.5h-56l5 17t18.5 41.5t37.5 49t61.5 41t91.5 16.5q64 0 107.5 -26.5t61 -73.5t3.5 -109l-70 -331h-55l19 85h-8zM84 137q0 -49 35 -75t82 -26
q50 0 91.5 26t69.5 68.5t38 91.5l7 31l-184 -7q-64 -3 -101.5 -31t-37.5 -78z" />
    <glyph glyph-name="uni1EAF.ss01" horiz-adv-x="546" 
d="M391 756h-46l79 161h57zM345 610q-40 0 -65 12.5t-37.5 30.5t-17 36t-5 30l-0.5 12h44v-12t6.5 -28t23.5 -28t52 -12q34 0 56.5 12t35 28t18 28l5.5 12h44l-6.5 -18t-23.5 -42t-48.5 -42.5t-81.5 -18.5zM364 85l-10.5 -14t-32 -33t-54.5 -33.5t-78 -14.5q-71 0 -115 40.5
t-44 102.5q0 64 48 109t143 49l196 8l8 39q5 23 4 49.5t-12.5 50t-38.5 38.5t-73 15q-51 0 -82.5 -17.5t-47.5 -40.5t-21.5 -40.5l-5.5 -17.5h-56l5 17t18.5 41.5t37.5 49t61.5 41t91.5 16.5q64 0 107.5 -26.5t61 -73.5t3.5 -109l-70 -331h-55l19 85h-8zM84 137
q0 -49 35 -75t82 -26q50 0 91.5 26t69.5 68.5t38 91.5l7 31l-184 -7q-64 -3 -101.5 -31t-37.5 -78z" />
    <glyph glyph-name="uni1EB7.ss01" horiz-adv-x="546" 
d="M346 610q-43 0 -68 14t-37 34.5t-15.5 41t-3 34.5l0.5 14h45l-1 -14.5t4 -33.5t22 -33.5t53 -14.5t59 14.5t36 33.5t18 33.5l5 14.5h45l-3.5 -14t-13.5 -34.5t-28 -41t-47 -34.5t-71 -14zM364 85l-10.5 -14t-32 -33t-54.5 -33.5t-78 -14.5q-71 0 -115 40.5t-44 102.5
q0 64 48 109t143 49l196 8l8 39q5 23 4 49.5t-12.5 50t-38.5 38.5t-73 15q-51 0 -82.5 -17.5t-47.5 -40.5t-21.5 -40.5l-5.5 -17.5h-56l5 17t18.5 41.5t37.5 49t61.5 41t91.5 16.5q64 0 107.5 -26.5t61 -73.5t3.5 -109l-70 -331h-55l19 85h-8zM84 137q0 -49 35 -75t82 -26
q50 0 91.5 26t69.5 68.5t38 91.5l7 31l-184 -7q-64 -3 -101.5 -31t-37.5 -78zM170 -204q-20 0 -33 14t-13 33t13 33t33 14t33.5 -14t13.5 -33t-13.5 -33t-33.5 -14z" />
    <glyph glyph-name="uni1EB1.ss01" horiz-adv-x="546" 
d="M339 756l-68 161h55l57 -161h-44zM345 610q-40 0 -65 12.5t-37.5 30.5t-17 36t-5 30l-0.5 12h44v-12t6.5 -28t23.5 -28t52 -12q34 0 56.5 12t35 28t18 28l5.5 12h44l-6.5 -18t-23.5 -42t-48.5 -42.5t-81.5 -18.5zM364 85l-10.5 -14t-32 -33t-54.5 -33.5t-78 -14.5
q-71 0 -115 40.5t-44 102.5q0 64 48 109t143 49l196 8l8 39q5 23 4 49.5t-12.5 50t-38.5 38.5t-73 15q-51 0 -82.5 -17.5t-47.5 -40.5t-21.5 -40.5l-5.5 -17.5h-56l5 17t18.5 41.5t37.5 49t61.5 41t91.5 16.5q64 0 107.5 -26.5t61 -73.5t3.5 -109l-70 -331h-55l19 85h-8z
M84 137q0 -49 35 -75t82 -26q50 0 91.5 26t69.5 68.5t38 91.5l7 31l-184 -7q-64 -3 -101.5 -31t-37.5 -78z" />
    <glyph glyph-name="uni1EB3.ss01" horiz-adv-x="546" 
d="M339 742l7 32q3 18 20 25l14 7q29 12 44 27t15 34q0 14 -11 26t-34 12q-26 0 -37.5 -12t-14.5 -23.5l-3 -11.5h-38l2.5 12.5t11.5 29t28 29t53 12.5q43 0 63.5 -23t20.5 -51q0 -32 -26 -54t-69 -39l-7 -32h-39zM345 610q-40 0 -65 12.5t-37.5 30.5t-17 36t-5 30l-0.5 12
h44v-12t6.5 -28t23.5 -28t52 -12q34 0 56.5 12t35 28t18 28l5.5 12h44l-6.5 -18t-23.5 -42t-48.5 -42.5t-81.5 -18.5zM364 85l-10.5 -14t-32 -33t-54.5 -33.5t-78 -14.5q-71 0 -115 40.5t-44 102.5q0 64 48 109t143 49l196 8l8 39q5 23 4 49.5t-12.5 50t-38.5 38.5t-73 15
q-51 0 -82.5 -17.5t-47.5 -40.5t-21.5 -40.5l-5.5 -17.5h-56l5 17t18.5 41.5t37.5 49t61.5 41t91.5 16.5q64 0 107.5 -26.5t61 -73.5t3.5 -109l-70 -331h-55l19 85h-8zM84 137q0 -49 35 -75t82 -26q50 0 91.5 26t69.5 68.5t38 91.5l7 31l-184 -7q-64 -3 -101.5 -31
t-37.5 -78z" />
    <glyph glyph-name="uni1EB5.ss01" horiz-adv-x="546" 
d="M438 776q-24 0 -39 12t-26 27.5t-21.5 27t-26.5 11.5q-18 0 -30 -20t-17 -52h-42q10 50 31.5 81.5t60.5 31.5q24 0 39.5 -11.5t26 -26.5t21 -27t25.5 -12q34 0 46 72h41q-9 -48 -30 -81t-59 -33zM345 610q-40 0 -65 12.5t-37.5 30.5t-17 36t-5 30l-0.5 12h44v-12t6.5 -28
t23.5 -28t52 -12q34 0 56.5 12t35 28t18 28l5.5 12h44l-6.5 -18t-23.5 -42t-48.5 -42.5t-81.5 -18.5zM364 85l-10.5 -14t-32 -33t-54.5 -33.5t-78 -14.5q-71 0 -115 40.5t-44 102.5q0 64 48 109t143 49l196 8l8 39q5 23 4 49.5t-12.5 50t-38.5 38.5t-73 15
q-51 0 -82.5 -17.5t-47.5 -40.5t-21.5 -40.5l-5.5 -17.5h-56l5 17t18.5 41.5t37.5 49t61.5 41t91.5 16.5q64 0 107.5 -26.5t61 -73.5t3.5 -109l-70 -331h-55l19 85h-8zM84 137q0 -49 35 -75t82 -26q50 0 91.5 26t69.5 68.5t38 91.5l7 31l-184 -7q-64 -3 -101.5 -31
t-37.5 -78z" />
    <glyph glyph-name="acircumflex.ss01" horiz-adv-x="546" 
d="M197 607l147 157h52l81 -157h-50l-61 120l-110 -120h-59zM364 85l-10.5 -14t-32 -33t-54.5 -33.5t-78 -14.5q-71 0 -115 40.5t-44 102.5q0 64 48 109t143 49l196 8l8 39q5 23 4 49.5t-12.5 50t-38.5 38.5t-73 15q-51 0 -82.5 -17.5t-47.5 -40.5t-21.5 -40.5l-5.5 -17.5
h-56l5 17t18.5 41.5t37.5 49t61.5 41t91.5 16.5q64 0 107.5 -26.5t61 -73.5t3.5 -109l-70 -331h-55l19 85h-8zM84 137q0 -49 35 -75t82 -26q50 0 91.5 26t69.5 68.5t38 91.5l7 31l-184 -7q-64 -3 -101.5 -31t-37.5 -78z" />
    <glyph glyph-name="uni1EA5.ss01" horiz-adv-x="546" 
d="M525 729l-46 1l79 161h57zM197 607l144 141h52l84 -141h-50l-63 107l-107 -107h-60zM364 85l-10.5 -14t-32 -33t-54.5 -33.5t-78 -14.5q-71 0 -115 40.5t-44 102.5q0 64 48 109t143 49l196 8l8 39q5 23 4 49.5t-12.5 50t-38.5 38.5t-73 15q-51 0 -82.5 -17.5t-47.5 -40.5
t-21.5 -40.5l-5.5 -17.5h-56l5 17t18.5 41.5t37.5 49t61.5 41t91.5 16.5q64 0 107.5 -26.5t61 -73.5t3.5 -109l-70 -331h-55l19 85h-8zM84 137q0 -49 35 -75t82 -26q50 0 91.5 26t69.5 68.5t38 91.5l7 31l-184 -7q-64 -3 -101.5 -31t-37.5 -78z" />
    <glyph glyph-name="uni1EAD.ss01" horiz-adv-x="546" 
d="M197 607l147 157h52l81 -157h-50l-61 120l-110 -120h-59zM364 85l-10.5 -14t-32 -33t-54.5 -33.5t-78 -14.5q-71 0 -115 40.5t-44 102.5q0 64 48 109t143 49l196 8l8 39q5 23 4 49.5t-12.5 50t-38.5 38.5t-73 15q-51 0 -82.5 -17.5t-47.5 -40.5t-21.5 -40.5l-5.5 -17.5
h-56l5 17t18.5 41.5t37.5 49t61.5 41t91.5 16.5q64 0 107.5 -26.5t61 -73.5t3.5 -109l-70 -331h-55l19 85h-8zM84 137q0 -49 35 -75t82 -26q50 0 91.5 26t69.5 68.5t38 91.5l7 31l-184 -7q-64 -3 -101.5 -31t-37.5 -78zM170 -204q-20 0 -33 14t-13 33t13 33t33 14t33.5 -14
t13.5 -33t-13.5 -33t-33.5 -14z" />
    <glyph glyph-name="uni1EA7.ss01" horiz-adv-x="546" 
d="M481 729l-67 162h55l57 -161zM197 607l144 141h52l84 -141h-50l-63 107l-107 -107h-60zM364 85l-10.5 -14t-32 -33t-54.5 -33.5t-78 -14.5q-71 0 -115 40.5t-44 102.5q0 64 48 109t143 49l196 8l8 39q5 23 4 49.5t-12.5 50t-38.5 38.5t-73 15q-51 0 -82.5 -17.5
t-47.5 -40.5t-21.5 -40.5l-5.5 -17.5h-56l5 17t18.5 41.5t37.5 49t61.5 41t91.5 16.5q64 0 107.5 -26.5t61 -73.5t3.5 -109l-70 -331h-55l19 85h-8zM84 137q0 -49 35 -75t82 -26q50 0 91.5 26t69.5 68.5t38 91.5l7 31l-184 -7q-64 -3 -101.5 -31t-37.5 -78z" />
    <glyph glyph-name="uni1EA9.ss01" horiz-adv-x="546" 
d="M469 715l7 33q4 18 20 25l15 6q28 13 43.5 28t15.5 34q0 14 -11 25.5t-34 11.5q-26 0 -37.5 -11.5t-14.5 -23.5l-3 -12h-39l2.5 12.5t12 29t28.5 29t52 12.5q44 0 64 -23t20 -50q0 -32 -26 -54t-68 -40l-7 -32h-40zM194 607l144 141h51l85 -141h-51l-63 107l-106 -107
h-60zM364 85l-10.5 -14t-32 -33t-54.5 -33.5t-78 -14.5q-71 0 -115 40.5t-44 102.5q0 64 48 109t143 49l196 8l8 39q5 23 4 49.5t-12.5 50t-38.5 38.5t-73 15q-51 0 -82.5 -17.5t-47.5 -40.5t-21.5 -40.5l-5.5 -17.5h-56l5 17t18.5 41.5t37.5 49t61.5 41t91.5 16.5
q64 0 107.5 -26.5t61 -73.5t3.5 -109l-70 -331h-55l19 85h-8zM84 137q0 -49 35 -75t82 -26q50 0 91.5 26t69.5 68.5t38 91.5l7 31l-184 -7q-64 -3 -101.5 -31t-37.5 -78z" />
    <glyph glyph-name="uni1EAB.ss01" horiz-adv-x="546" 
d="M436 788q-23 0 -38 11.5t-26 27t-22 27t-26 11.5q-18 0 -30 -19.5t-18 -52.5h-41q9 50 30.5 82t60.5 32q25 0 40.5 -12t26 -27t21 -26.5t25.5 -11.5q34 0 46 72h41q-9 -49 -30 -81.5t-60 -32.5zM194 607l144 141h52l85 -141h-51l-63 107l-107 -107h-60zM364 85l-10.5 -14
t-32 -33t-54.5 -33.5t-78 -14.5q-71 0 -115 40.5t-44 102.5q0 64 48 109t143 49l196 8l8 39q5 23 4 49.5t-12.5 50t-38.5 38.5t-73 15q-51 0 -82.5 -17.5t-47.5 -40.5t-21.5 -40.5l-5.5 -17.5h-56l5 17t18.5 41.5t37.5 49t61.5 41t91.5 16.5q64 0 107.5 -26.5t61 -73.5
t3.5 -109l-70 -331h-55l19 85h-8zM84 137q0 -49 35 -75t82 -26q50 0 91.5 26t69.5 68.5t38 91.5l7 31l-184 -7q-64 -3 -101.5 -31t-37.5 -78z" />
    <glyph glyph-name="adieresis.ss01" horiz-adv-x="546" 
d="M427 624q-19 0 -31.5 13t-12.5 31t12.5 31t31.5 13q18 0 31 -13t13 -31t-13 -31t-31 -13zM271 624q-19 0 -31.5 13t-12.5 31t12.5 31t31.5 13q18 0 31 -13t13 -31t-13 -31t-31 -13zM364 85l-10.5 -14t-32 -33t-54.5 -33.5t-78 -14.5q-71 0 -115 40.5t-44 102.5
q0 64 48 109t143 49l196 8l8 39q5 23 4 49.5t-12.5 50t-38.5 38.5t-73 15q-51 0 -82.5 -17.5t-47.5 -40.5t-21.5 -40.5l-5.5 -17.5h-56l5 17t18.5 41.5t37.5 49t61.5 41t91.5 16.5q64 0 107.5 -26.5t61 -73.5t3.5 -109l-70 -331h-55l19 85h-8zM84 137q0 -49 35 -75t82 -26
q50 0 91.5 26t69.5 68.5t38 91.5l7 31l-184 -7q-64 -3 -101.5 -31t-37.5 -78z" />
    <glyph glyph-name="uni1EA1.ss01" horiz-adv-x="546" 
d="M364 85l-10.5 -14t-32 -33t-54.5 -33.5t-78 -14.5q-71 0 -115 40.5t-44 102.5q0 64 48 109t143 49l196 8l8 39q5 23 4 49.5t-12.5 50t-38.5 38.5t-73 15q-51 0 -82.5 -17.5t-47.5 -40.5t-21.5 -40.5l-5.5 -17.5h-56l5 17t18.5 41.5t37.5 49t61.5 41t91.5 16.5
q64 0 107.5 -26.5t61 -73.5t3.5 -109l-70 -331h-55l19 85h-8zM84 137q0 -49 35 -75t82 -26q50 0 91.5 26t69.5 68.5t38 91.5l7 31l-184 -7q-64 -3 -101.5 -31t-37.5 -78zM170 -204q-20 0 -33 14t-13 33t13 33t33 14t33.5 -14t13.5 -33t-13.5 -33t-33.5 -14z" />
    <glyph glyph-name="agrave.ss01" horiz-adv-x="546" 
d="M309 615l-68 162h55l58 -161zM364 85l-10.5 -14t-32 -33t-54.5 -33.5t-78 -14.5q-71 0 -115 40.5t-44 102.5q0 64 48 109t143 49l196 8l8 39q5 23 4 49.5t-12.5 50t-38.5 38.5t-73 15q-51 0 -82.5 -17.5t-47.5 -40.5t-21.5 -40.5l-5.5 -17.5h-56l5 17t18.5 41.5t37.5 49
t61.5 41t91.5 16.5q64 0 107.5 -26.5t61 -73.5t3.5 -109l-70 -331h-55l19 85h-8zM84 137q0 -49 35 -75t82 -26q50 0 91.5 26t69.5 68.5t38 91.5l7 31l-184 -7q-64 -3 -101.5 -31t-37.5 -78z" />
    <glyph glyph-name="uni1EA3.ss01" horiz-adv-x="546" 
d="M309 601l7 33q4 18 20 25l14 6q29 13 44 28t15 34q0 14 -10.5 25.5t-34.5 11.5q-26 0 -37.5 -11.5t-14 -23.5l-2.5 -12h-39l2.5 12.5t11.5 29t28.5 29t52.5 12.5q44 0 64 -23t20 -50q0 -32 -26 -54t-69 -40l-7 -32h-39zM364 85l-10.5 -14t-32 -33t-54.5 -33.5t-78 -14.5
q-71 0 -115 40.5t-44 102.5q0 64 48 109t143 49l196 8l8 39q5 23 4 49.5t-12.5 50t-38.5 38.5t-73 15q-51 0 -82.5 -17.5t-47.5 -40.5t-21.5 -40.5l-5.5 -17.5h-56l5 17t18.5 41.5t37.5 49t61.5 41t91.5 16.5q64 0 107.5 -26.5t61 -73.5t3.5 -109l-70 -331h-55l19 85h-8z
M84 137q0 -49 35 -75t82 -26q50 0 91.5 26t69.5 68.5t38 91.5l7 31l-184 -7q-64 -3 -101.5 -31t-37.5 -78z" />
    <glyph glyph-name="amacron.ss01" horiz-adv-x="546" 
d="M198 636l10 44h288l-10 -44h-288zM364 85l-10.5 -14t-32 -33t-54.5 -33.5t-78 -14.5q-71 0 -115 40.5t-44 102.5q0 64 48 109t143 49l196 8l8 39q5 23 4 49.5t-12.5 50t-38.5 38.5t-73 15q-51 0 -82.5 -17.5t-47.5 -40.5t-21.5 -40.5l-5.5 -17.5h-56l5 17t18.5 41.5
t37.5 49t61.5 41t91.5 16.5q64 0 107.5 -26.5t61 -73.5t3.5 -109l-70 -331h-55l19 85h-8zM84 137q0 -49 35 -75t82 -26q50 0 91.5 26t69.5 68.5t38 91.5l7 31l-184 -7q-64 -3 -101.5 -31t-37.5 -78z" />
    <glyph glyph-name="aogonek.ss01" horiz-adv-x="546" 
d="M376 -155q-41 0 -64 18.5t-23 50.5q0 34 22 55t43 32l18 84h-8l-10.5 -14t-32 -33t-54.5 -33.5t-78 -14.5q-71 0 -115 40.5t-44 102.5q0 64 48 109t143 49l196 8l8 39q5 23 4 49.5t-12.5 50t-38.5 38.5t-73 15q-51 0 -82.5 -17.5t-47.5 -40.5t-21.5 -40.5l-5.5 -17.5h-56
l5 17t18.5 41.5t37.5 49t61.5 41t91.5 16.5q64 0 107.5 -26.5t61 -73.5t3.5 -109l-70 -331l-11 -5t-25.5 -14.5t-25.5 -24t-11 -33.5q0 -39 52 -39q14 0 27 2.5l13 2.5l-8 -38l-12 -3t-31 -3zM84 137q0 -49 35 -75t82 -26q50 0 91.5 26t69.5 68.5t38 91.5l7 31l-184 -7
q-64 -3 -101.5 -31t-37.5 -78z" />
    <glyph glyph-name="aring.ss01" horiz-adv-x="546" 
d="M345 610q-43 0 -74 30.5t-31 74.5q0 43 31 74t74 31q44 0 74.5 -31t30.5 -74q0 -44 -30.5 -74.5t-74.5 -30.5zM345 653q26 0 44 18t18 44q0 25 -18 43.5t-44 18.5t-44 -18.5t-18 -43.5q0 -26 18 -44t44 -18zM364 85l-10.5 -14t-32 -33t-54.5 -33.5t-78 -14.5
q-71 0 -115 40.5t-44 102.5q0 64 48 109t143 49l196 8l8 39q5 23 4 49.5t-12.5 50t-38.5 38.5t-73 15q-51 0 -82.5 -17.5t-47.5 -40.5t-21.5 -40.5l-5.5 -17.5h-56l5 17t18.5 41.5t37.5 49t61.5 41t91.5 16.5q64 0 107.5 -26.5t61 -73.5t3.5 -109l-70 -331h-55l19 85h-8z
M84 137q0 -49 35 -75t82 -26q50 0 91.5 26t69.5 68.5t38 91.5l7 31l-184 -7q-64 -3 -101.5 -31t-37.5 -78z" />
    <glyph glyph-name="atilde.ss01" horiz-adv-x="546" 
d="M408 619q-24 0 -39 12t-25.5 27.5t-21.5 27t-26 11.5q-19 0 -31 -20t-17 -52h-41q9 50 30.5 81.5t60.5 31.5q25 0 40 -11.5t26 -26.5t21 -27t25 -12q34 0 46 72h42q-10 -48 -31 -81t-59 -33zM364 85l-10.5 -14t-32 -33t-54.5 -33.5t-78 -14.5q-71 0 -115 40.5t-44 102.5
q0 64 48 109t143 49l196 8l8 39q5 23 4 49.5t-12.5 50t-38.5 38.5t-73 15q-51 0 -82.5 -17.5t-47.5 -40.5t-21.5 -40.5l-5.5 -17.5h-56l5 17t18.5 41.5t37.5 49t61.5 41t91.5 16.5q64 0 107.5 -26.5t61 -73.5t3.5 -109l-70 -331h-55l19 85h-8zM84 137q0 -49 35 -75t82 -26
q50 0 91.5 26t69.5 68.5t38 91.5l7 31l-184 -7q-64 -3 -101.5 -31t-37.5 -78z" />
    <glyph glyph-name="zero.dnom" horiz-adv-x="290" 
d="M128 -5q-38 0 -62.5 19.5t-37 51.5t-12.5 70q0 37 11 75.5t32 71t51 52.5t68 20t63 -19.5t37 -51.5t12 -70q0 -37 -11 -75.5t-32 -71t-51 -52.5t-68 -20zM131 41q32 0 56 28t37.5 68.5t13.5 78.5t-14.5 65.5t-47.5 27.5q-32 0 -56.5 -28t-38 -68t-13.5 -79
q0 -38 15 -65.5t48 -27.5z" />
    <glyph glyph-name="one.dnom" horiz-adv-x="142" 
d="M174 354l-76 -355h-51l58 274l-65 -1l6 31l12 3q28 7 46 16.5t36 26.5l4 5h30z" />
    <glyph glyph-name="two.dnom" horiz-adv-x="211" 
d="M-79 -1l8 35l103 78q53 39 89 72t36 71q0 27 -18 42.5t-47 15.5q-27 0 -42 -11t-22.5 -25.5t-9 -25.5l-1.5 -11h-49l3 18t15 41.5t38 41.5t71 18q53 0 83 -29.5t30 -71.5q0 -33 -20 -62t-53 -56t-72 -56l-55 -41h175l-10 -44h-252z" />
    <glyph glyph-name="three.dnom" horiz-adv-x="268" 
d="M134 -6q-49 0 -75.5 16.5t-37 38.5t-12.5 39l-2 17h50l1.5 -10t8 -23.5t23 -24t45.5 -10.5q41 0 61.5 21.5t20.5 46.5q0 30 -23 43t-47 13h-43l8 41h47q33 0 54 16t21 44q0 23 -16.5 38t-46.5 15q-27 0 -42.5 -9.5t-22.5 -22t-8.5 -22l-1.5 -9.5h-49l3.5 16t15 37.5
t37 37.5t70.5 16q55 0 84 -27t29 -64q0 -34 -22.5 -55.5t-50.5 -30.5v-2q20 -9 38.5 -28t18.5 -51q0 -25 -15 -50t-45.5 -41t-75.5 -16z" />
    <glyph glyph-name="four.dnom" horiz-adv-x="187" 
d="M54 -1l17 80h-174l10 45l209 230h65l-49 -231h58l-8 -44h-59l-18 -80h-51zM-36 123h117l36 167z" />
    <glyph glyph-name="five.dnom" horiz-adv-x="250" 
d="M118 -6q-46 0 -71 17t-35.5 39t-12.5 39l-2 17h49l1 -10.5t7.5 -24t21.5 -23.5t43 -10q45 0 67.5 28t22.5 60q0 27 -17 48.5t-54 21.5q-28 0 -45 -10.5t-24.5 -21l-7.5 -10.5h-51l58 200h208l-10 -46h-165l-31 -103h2l8.5 8t26 16t44.5 8q55 0 82.5 -33.5t27.5 -75.5
q0 -33 -16 -63.5t-47.5 -50.5t-79.5 -20z" />
    <glyph glyph-name="six.dnom" horiz-adv-x="312" 
d="M155 -6q-65 0 -96 39.5t-31 92.5q0 42 15 83.5t43 75t68.5 54t90.5 20.5q33 0 50.5 -4.5l17.5 -4.5l-10 -45l-16 4t-42 4q-55 0 -95 -32.5t-59 -82.5q11 15 31 26.5t51 11.5q58 0 86 -34.5t28 -77.5q0 -32 -15 -62t-44.5 -49t-72.5 -19zM154 37q40 0 60.5 27.5t20.5 58.5
q0 27 -17 49.5t-53 22.5q-40 0 -61.5 -27.5t-21.5 -58.5q0 -27 17.5 -49.5t54.5 -22.5z" />
    <glyph glyph-name="seven.dnom" horiz-adv-x="209" 
d="M54 -1q13 60 37 111t51 90.5t51.5 66.5t39.5 41h-185l8 46h248l-8 -38l-15.5 -15t-39.5 -43t-50.5 -67t-48.5 -87.5t-33 -104.5h-55z" />
    <glyph glyph-name="eight.dnom" horiz-adv-x="219" 
d="M65 -6q-64 0 -94 29.5t-30 66.5q0 29 18.5 58.5t63.5 42.5v3q-24 10 -35.5 29.5t-11.5 39.5q0 36 31 66t92 30q57 0 86 -27t29 -62q0 -24 -16.5 -48.5t-53.5 -35.5v-3q30 -12 43.5 -34.5t13.5 -47.5q0 -26 -15 -50.5t-45.5 -40.5t-75.5 -16zM92 207q36 0 54.5 18.5
t18.5 39.5q0 20 -16.5 36.5t-50.5 16.5q-36 0 -54 -18.5t-18 -39.5q0 -20 16 -36.5t50 -16.5zM66 36q41 0 62 22t21 48q0 24 -18 43.5t-54 19.5q-42 0 -63.5 -22.5t-21.5 -48.5q0 -24 18.5 -43t55.5 -19z" />
    <glyph glyph-name="nine.dnom" horiz-adv-x="332" 
d="M140 356q65 0 96 -39.5t31 -92.5q0 -43 -15 -84t-43.5 -75t-68.5 -54t-91 -20q-33 0 -50.5 4l-17.5 4l10 46l16.5 -4t41.5 -4q56 0 96 32t59 82q-12 -14 -32 -26t-50 -12q-58 0 -86 35t-28 78q0 32 15 61.5t44.5 49t72.5 19.5zM141 313q-40 0 -61 -27.5t-21 -58.5
q0 -28 17.5 -50t52.5 -22q41 0 62.5 27.5t21.5 58.5q0 27 -18 49.5t-54 22.5z" />
    <glyph glyph-name="zero.numr" horiz-adv-x="296" 
d="M210 352q-38 0 -62.5 19.5t-37 51.5t-12.5 70q0 37 11 75.5t32 71t51 52.5t68 20t63 -19.5t37 -51.5t12 -70q0 -37 -11 -76t-32 -71.5t-51 -52t-68 -19.5zM213 397q32 0 56 28t37.5 69t13.5 79q0 37 -14.5 64.5t-47.5 27.5q-32 0 -56.5 -27.5t-38 -68t-13.5 -78.5t15 -66
t48 -28z" />
    <glyph glyph-name="one.numr" horiz-adv-x="142" 
d="M249 710l-75 -355h-51l58 275l-66 -1l6 31l13 3q27 7 45.5 16t36.5 27l4 4h29z" />
    <glyph glyph-name="two.numr" horiz-adv-x="211" 
d="M-3 355l8 36l103 77q52 40 88 73t36 71q0 26 -18 42t-46 16q-27 0 -42.5 -11t-22.5 -25.5t-9 -26l-2 -11.5h-49l3.5 18t15.5 41.5t37.5 41.5t70.5 18q54 0 84 -29t30 -71q0 -34 -20 -62.5t-53 -55.5t-73 -56l-54 -41h174l-9 -45h-252z" />
    <glyph glyph-name="three.numr" horiz-adv-x="268" 
d="M210 350q-49 0 -75.5 17t-37 39t-12.5 39l-2 17h49l1.5 -10.5t8.5 -24t23 -23.5t46 -10q40 0 61 21t21 47q0 29 -23 42.5t-47 13.5h-44l9 41h47q32 0 53.5 16t21.5 43q0 23 -17 38.5t-46 15.5q-27 0 -42.5 -9.5t-22.5 -22t-9 -22l-2 -9.5h-48l3 16t15 37t37.5 37t70.5 16
q54 0 83 -27t29 -63q0 -35 -22 -56.5t-50 -29.5l-1 -3q21 -8 39.5 -27t18.5 -51q0 -26 -15.5 -50.5t-45.5 -41t-75 -16.5z" />
    <glyph glyph-name="four.numr" horiz-adv-x="187" 
d="M130 355l17 81h-174l9 45l210 229h65l-49 -231h58l-9 -43h-59l-17 -81h-51zM39 479h117l36 168z" />
    <glyph glyph-name="five.numr" horiz-adv-x="250" 
d="M193 350q-46 0 -71 17t-35 39.5t-12 39l-2 16.5h48l1.5 -10t8 -23.5t21.5 -24t43 -10.5q44 0 67 28.5t23 60.5q0 27 -17.5 48.5t-53.5 21.5q-28 0 -45 -10.5t-24.5 -21l-7.5 -10.5h-51l58 199h208l-10 -45h-166l-30 -104h2l8 8.5t26 16.5t45 8q55 0 82.5 -34t27.5 -76
q0 -32 -16 -63t-48 -51t-80 -20z" />
    <glyph glyph-name="six.numr" horiz-adv-x="312" 
d="M230 350q-65 0 -96 39.5t-31 93.5q0 42 15 83.5t43.5 75t68.5 53.5t91 20q33 0 50.5 -4l17.5 -4l-10 -46l-16.5 4t-41.5 4q-56 0 -96 -32t-59 -82q12 15 32 26.5t50 11.5q58 0 86 -34.5t28 -78.5q0 -31 -15 -61t-44 -49.5t-73 -19.5zM229 393q40 0 61 27.5t21 58.5
q0 28 -17.5 50.5t-52.5 22.5q-41 0 -62.5 -27.5t-21.5 -58.5q0 -28 18 -50.5t54 -22.5z" />
    <glyph glyph-name="seven.numr" horiz-adv-x="209" 
d="M130 355q13 61 36.5 112t51 90.5t52 66.5t39.5 41h-186l9 45h247l-8 -38l-15.5 -15t-39.5 -42.5t-50 -67t-48 -88t-33 -104.5h-55z" />
    <glyph glyph-name="eight.numr" horiz-adv-x="219" 
d="M140 350q-63 0 -93 30t-30 67q0 28 18 58t64 43v2q-25 10 -36.5 29.5t-11.5 40.5q0 35 31.5 65t91.5 30q57 0 86.5 -27t29.5 -61q0 -24 -16.5 -48.5t-53.5 -35.5v-3q29 -13 42.5 -35.5t13.5 -46.5q0 -26 -15 -51t-45 -41t-76 -16zM167 564q37 0 55.5 18.5t18.5 39.5
q0 20 -17 36t-50 16q-36 0 -54.5 -18t-18.5 -39q0 -20 16.5 -36.5t49.5 -16.5zM141 392q42 0 63 22.5t21 47.5q0 24 -18 43.5t-55 19.5q-41 0 -62.5 -22.5t-21.5 -47.5t18.5 -44t54.5 -19z" />
    <glyph glyph-name="nine.numr" horiz-adv-x="332" 
d="M215 713q65 0 96 -39.5t31 -93.5q0 -42 -15 -83.5t-43 -75t-68.5 -53.5t-90.5 -20q-33 0 -50.5 4l-17.5 4l10 46l16 -4t42 -4q55 0 95 32t59 82q-11 -15 -31 -26.5t-51 -11.5q-58 0 -86 34.5t-28 78.5q0 31 15 61t44.5 49.5t72.5 19.5zM216 670q-40 0 -60.5 -27.5
t-20.5 -58.5q0 -28 17 -50.5t53 -22.5q40 0 61.5 27.5t21.5 58.5q0 28 -17.5 50.5t-54.5 22.5z" />
    <glyph glyph-name="colon.case" horiz-adv-x="250" 
d="M204 548q-20 0 -33 14t-13 33t13 33t33 14t33.5 -14t13.5 -33t-13.5 -33t-33.5 -14zM107 92q-20 0 -33.5 13.5t-13.5 33.5q0 19 13.5 32.5t33.5 13.5q19 0 33 -13.5t14 -32.5q0 -20 -14 -33.5t-33 -13.5z" />
    <glyph glyph-name="parenleft.case" horiz-adv-x="428" 
d="M283 -164q-63 27 -105 83.5t-62.5 132.5t-20.5 160q0 82 18 167.5t52 164.5t83 143.5t112 107t138 54.5l-11 -51q-62 -13 -114 -53t-93.5 -99.5t-70 -131.5t-43.5 -150t-15 -155q0 -71 16.5 -136t48.5 -114t78 -72z" />
    <glyph glyph-name="parenright.case" horiz-adv-x="395" 
d="M179 849q63 -27 104.5 -83.5t62 -132.5t20.5 -160q0 -83 -17.5 -168t-51.5 -164t-83 -143.5t-112 -107t-139 -54.5l11 51q62 13 114.5 53t93.5 99t69.5 131.5t43.5 150.5t15 154q0 72 -16.5 137t-48 113.5t-77.5 72.5z" />
    <glyph glyph-name="braceleft.case" horiz-adv-x="403" 
d="M180 -155q-63 0 -88 36t-14 87l62 292q6 32 -6 50.5t-48 18.5h-27l10 47h26q69 0 85 74l62 289q12 59 48.5 90t91.5 31h109l-10 -49h-99q-71 0 -86 -72l-62 -291q-7 -34 -22.5 -57.5t-51.5 -36.5v-3q30 -13 35.5 -38t-2.5 -59l-62 -291q-7 -33 7.5 -50.5t46.5 -17.5h101
l-11 -50h-95z" />
    <glyph glyph-name="braceright.case" horiz-adv-x="403" 
d="M255 860q62 0 87.5 -36t14.5 -87l-62 -292q-7 -32 5.5 -50.5t48.5 -18.5h27l-10 -47h-27q-69 0 -84 -73l-62 -290q-12 -58 -49 -89.5t-91 -31.5h-110l11 50h99q70 0 86 71l61 291q8 35 23.5 58t50.5 36l1 3q-30 13 -35.5 38.5t2.5 59.5l62 290q7 33 -7.5 51t-46.5 18
h-101l10 49h96z" />
    <glyph glyph-name="bracketleft.case" horiz-adv-x="426" 
d="M-15 -157l215 1014h267l-10 -49h-212l-195 -916h213l-11 -49h-267z" />
    <glyph glyph-name="bracketright.case" horiz-adv-x="426" 
d="M441 857l-215 -1014h-267l10 49h212l195 916h-212l10 49h267z" />
    <glyph glyph-name="uni03060301" 
d="M365 756h-46l79 161h57zM319 610q-40 0 -65 12.5t-37.5 30.5t-17 36t-5 30l-0.5 12h44v-12t6.5 -28t23.5 -28t52 -12q34 0 56.5 12t35 28t18 28l5.5 12h44l-6.5 -18t-23.5 -42t-48.5 -42.5t-81.5 -18.5z" />
    <glyph glyph-name="uni03060300" 
d="M313 756l-68 161h55l57 -161h-44zM319 610q-40 0 -65 12.5t-37.5 30.5t-17 36t-5 30l-0.5 12h44v-12t6.5 -28t23.5 -28t52 -12q34 0 56.5 12t35 28t18 28l5.5 12h44l-6.5 -18t-23.5 -42t-48.5 -42.5t-81.5 -18.5z" />
    <glyph glyph-name="uni03060309" 
d="M313 742l7 32q3 18 20 25l14 7q29 12 44 27t15 34q0 14 -11 26t-34 12q-26 0 -37.5 -12t-14.5 -23.5l-3 -11.5h-38l2.5 12.5t11.5 29t28 29t53 12.5q43 0 63.5 -23t20.5 -51q0 -32 -26 -54t-69 -39l-7 -32h-39zM319 610q-40 0 -65 12.5t-37.5 30.5t-17 36t-5 30l-0.5 12
h44v-12t6.5 -28t23.5 -28t52 -12q34 0 56.5 12t35 28t18 28l5.5 12h44l-6.5 -18t-23.5 -42t-48.5 -42.5t-81.5 -18.5z" />
    <glyph glyph-name="uni03060303" 
d="M412 776q-24 0 -39 12t-26 27.5t-21.5 27t-26.5 11.5q-18 0 -30 -20t-17 -52h-42q10 50 31.5 81.5t60.5 31.5q24 0 39.5 -11.5t26 -26.5t21 -27t25.5 -12q34 0 46 72h41q-9 -48 -30 -81t-59 -33zM319 610q-40 0 -65 12.5t-37.5 30.5t-17 36t-5 30l-0.5 12h44v-12t6.5 -28
t23.5 -28t52 -12q34 0 56.5 12t35 28t18 28l5.5 12h44l-6.5 -18t-23.5 -42t-48.5 -42.5t-81.5 -18.5z" />
    <glyph glyph-name="uni03020301" 
d="M479 729l-46 1l80 161h56zM152 607l144 141h51l85 -141h-51l-63 107l-106 -107h-60z" />
    <glyph glyph-name="uni03020300" 
d="M436 729l-68 162h55l58 -161zM152 607l144 141h51l85 -141h-51l-63 107l-106 -107h-60z" />
    <glyph glyph-name="uni03020309" 
d="M427 715l7 33q4 18 20 25l15 6q28 13 43.5 28t15.5 34q0 14 -11 25.5t-34 11.5q-26 0 -37.5 -11.5t-14.5 -23.5l-3 -12h-39l2.5 12.5t12 29t28.5 29t52 12.5q44 0 64 -23t20 -50q0 -32 -26 -54t-68 -40l-7 -32h-40zM152 607l144 141h51l85 -141h-51l-63 107l-106 -107
h-60z" />
    <glyph glyph-name="uni03020303" 
d="M394 788q-23 0 -38 11.5t-26 27t-22 27t-26 11.5q-18 0 -30 -19.5t-18 -52.5h-41q9 50 30.5 82t60.5 32q25 0 40.5 -12t26 -27t21 -26.5t25.5 -11.5q34 0 46 72h41q-9 -49 -30 -81.5t-60 -32.5zM152 607l144 141h52l85 -141h-51l-63 107l-107 -107h-60z" />
    </font>
</defs>
</svg>
