<?xml version="1.0" standalone="no"?>
<!DOCTYPE svg PUBLIC "-//W3C//DTD SVG 1.1//EN" "http://www.w3.org/Graphics/SVG/1.1/DTD/svg11.dtd" >
<svg xmlns="http://www.w3.org/2000/svg" xmlns:xlink="http://www.w3.org/1999/xlink" version="1.1">
<metadata>
Created by FontForge 20170731 at Sun Aug 15 09:04:22 2021
 By Aleksey,,,
Copyright 2021 The Be Vietnam Pro Project Authors (https://github.com/bettergui/BeVietnamPro)
</metadata>
<defs>
<font id="BeVietnamPro-BlackItalic" horiz-adv-x="0" >
  <font-face 
    font-family="Be Vietnam Pro Black"
    font-weight="900"
    font-style="italic"
    font-stretch="normal"
    units-per-em="1000"
    panose-1="0 0 0 0 0 0 0 0 0 0"
    ascent="800"
    descent="-200"
    x-height="530"
    cap-height="740"
    bbox="-185 -263 1225 1239"
    underline-thickness="50"
    underline-position="-175"
    slope="-12"
    unicode-range="U+000D-2265"
  />
<missing-glyph horiz-adv-x="500" 
 />
    <glyph glyph-name="f_f.liga" unicode="ff" horiz-adv-x="788" 
d="M32 0l80 380h-81l32 150h81l13 63q9 41 33 82t71.5 68t126.5 27q41 0 67 -6l26 -6l-28 -129l-10.5 2.5t-26.5 2.5q-59 0 -72 -59l-10 -45h184l13 63q9 41 33 82t71.5 68t126.5 27q41 0 67 -6l26 -6l-28 -129l-10.5 2.5t-26.5 2.5q-59 0 -72 -59l-10 -45h98l-32 -150h-97
l-81 -380h-190l80 380h-183l-81 -380h-190z" />
    <glyph glyph-name="f_f_i.liga" unicode="ffi" horiz-adv-x="1098" 
d="M1034 583q-47 0 -77.5 30.5t-30.5 72.5q0 44 30.5 74t77.5 30t78 -30t31 -74q0 -42 -31 -72.5t-78 -30.5zM32 0l80 380h-81l32 150h81l13 63q9 41 33 82t71.5 68t126.5 27q41 0 67 -6l26 -6l-28 -129l-10.5 2.5t-26.5 2.5q-59 0 -72 -59l-10 -45h184l13 63q9 41 33 82
t71.5 68t126.5 27q41 0 67 -6l26 -6l-28 -129l-10.5 2.5t-26.5 2.5q-59 0 -72 -59l-10 -45h388l-113 -530h-190l81 380h-197l-81 -380h-190l80 380h-183l-81 -380h-190z" />
    <glyph glyph-name="f_i.liga" unicode="fi" horiz-adv-x="724" 
d="M660 583q-47 0 -77.5 30.5t-30.5 72.5q0 44 30.5 74t77.5 30t78 -30t31 -74q0 -42 -31 -72.5t-78 -30.5zM32 0l80 380h-81l32 150h81l13 63q9 41 33 82t71.5 68t126.5 27q41 0 67 -6l26 -6l-28 -129l-10.5 2.5t-26.5 2.5q-59 0 -72 -59l-10 -45h388l-113 -530h-190
l81 380h-197l-81 -380h-190z" />
    <glyph glyph-name="colon_b_e_colon.liga" unicode="&#x3a;be&#x3a;" horiz-adv-x="798" 
d="M200 458l61 177h146q55 0 84 16.5t41 43t14 55.5q43 -13 63 -43t20 -74q0 -78 -57.5 -126.5t-154.5 -48.5h-217zM44 0l93 267h229q78 0 120 25t58 65t13 83q61 -13 97 -60t36 -114q0 -54 -23.5 -102.5t-65.5 -85t-97.5 -57.5t-119.5 -21h-340z" />
    <glyph glyph-name="colon_d_d_colon.liga" unicode="&#x3a;dd&#x3a;" horiz-adv-x="667" 
d="M228 140q-51 0 -85 23t-50.5 60.5t-16.5 81.5q0 42 13.5 83.5t40 75.5t64.5 55t87 21q43 0 66.5 -13.5t33.5 -27t11 -13.5h7l14 65h-83l20 94h82l11 55h163l-12 -55h70l-19 -94h-70l-85 -404h-161l6 37h-6l-10 -11t-32 -22t-59 -11zM240 325q0 -25 15 -42t43 -17
q26 0 44 13.5t28 34t10 39.5q0 26 -15 43.5t-44 17.5q-25 0 -43.5 -14t-28 -34.5t-9.5 -40.5zM11 0l16 75h554l-15 -75h-555z" />
    <glyph glyph-name="colon_s_t_a_r_colon.liga" unicode="&#x3a;star&#x3a;" horiz-adv-x="831" 
d="M176 51l82 223l-126 160l229 37l146 201l60 -199l216 -38l-191 -157l-13 -226l-175 104z" />
    <glyph glyph-name=".notdef" horiz-adv-x="500" 
 />
    <glyph glyph-name=".null" 
 />
    <glyph glyph-name="nonmarkingreturn" horiz-adv-x="333" 
 />
    <glyph glyph-name="CR" unicode="&#xd;" horiz-adv-x="600" 
 />
    <glyph glyph-name="space" unicode=" " horiz-adv-x="230" 
 />
    <glyph glyph-name="exclam" unicode="!" horiz-adv-x="306" 
d="M81 237l80 503h211l-138 -503h-153zM129 -9q-42 0 -68 27.5t-26 66.5t26 66.5t68 27.5q40 0 67 -27.5t27 -66.5t-27 -66.5t-67 -27.5z" />
    <glyph glyph-name="quotedbl" unicode="&#x22;" horiz-adv-x="445" 
d="M304 502l61 238h162l-112 -238h-111zM110 502l61 238h162l-112 -238h-111z" />
    <glyph glyph-name="numbersign" unicode="#" horiz-adv-x="820" 
d="M63 0l64 155h-129l64 152h128l52 125h-126l64 152h124l65 156h158l-65 -156h119l65 156h158l-65 -156h131l-64 -152h-129l-52 -125h127l-64 -152h-126l-64 -155h-158l64 155h-119l-64 -155h-158zM348 307h119l52 125h-119z" />
    <glyph glyph-name="dollar" unicode="$" horiz-adv-x="689" 
d="M232 -94l19 90q-70 11 -114 38.5t-68.5 61.5t-35 66t-12.5 53l-2 21h178l2.5 -11t10.5 -27t25.5 -31.5t46.5 -23.5l36 166l-18 5q-82 25 -134.5 73.5t-52.5 130.5q0 62 33.5 115t98.5 85t159 32h8l17 82h80l-19 -90q59 -13 97.5 -38.5t61 -56.5t33 -59.5t13.5 -47
l3 -18.5h-174l-4 14.5t-17.5 33t-43.5 29.5l-34 -162l16 -5q91 -27 143 -77t52 -129q0 -62 -35.5 -116t-104 -87t-166.5 -33l-18 -84h-80zM292 529q0 -46 58 -69l31 147q-43 -5 -66 -27t-23 -51zM455 218q0 24 -16.5 40.5t-45.5 27.5l-32 -149q44 6 69 27.5t25 53.5z" />
    <glyph glyph-name="percent" unicode="%" horiz-adv-x="900" 
d="M268 412q-54 0 -90 21.5t-53.5 56t-17.5 73.5q0 46 22.5 89t66.5 71t107 28q55 0 90 -21.5t52.5 -56t17.5 -73.5q0 -45 -22.5 -88t-65.5 -71.5t-107 -28.5zM108 0l589 740h129l-589 -740h-129zM278 515q35 0 53.5 23.5t18.5 50.5q0 23 -14.5 40.5t-43.5 17.5
q-34 0 -53 -23.5t-19 -50.5q0 -22 14.5 -40t43.5 -18zM653 -9q-54 0 -90 21.5t-53.5 56t-17.5 73.5q0 46 22.5 89t66.5 71t107 28q55 0 90 -21.5t52.5 -56t17.5 -73.5q0 -45 -22.5 -88t-65.5 -71.5t-107 -28.5zM663 94q35 0 53.5 23.5t18.5 50.5q0 23 -14.5 40.5t-43.5 17.5
q-34 0 -53 -23.5t-19 -50.5q0 -22 14.5 -40t43.5 -18z" />
    <glyph glyph-name="ampersand" unicode="&#x26;" horiz-adv-x="718" 
d="M270 -11q-66 0 -124.5 23t-95 69t-36.5 114q0 52 22.5 93t60 72t83.5 55q-19 32 -30.5 65.5t-11.5 70.5q0 62 31 106.5t82 68.5t111 24q54 0 103 -20t80 -59t31 -96q0 -51 -25 -87t-63.5 -61t-78.5 -43l82 -105q14 29 23.5 64t13.5 75h149q-8 -82 -31.5 -147t-58.5 -115
l123 -156h-220l-30 40q-45 -26 -93.5 -38.5t-96.5 -12.5zM297 564q0 -22 10.5 -42.5t25.5 -41.5q31 13 59 34.5t28 57.5q0 29 -18 43t-40 14q-24 0 -44.5 -16.5t-20.5 -48.5zM189 221q0 -43 31 -66t75 -23q40 0 80 21l-87 115q-9 12 -18 23.5t-18 23.5q-33 -20 -48 -43.5
t-15 -50.5z" />
    <glyph glyph-name="quotesingle" unicode="'" horiz-adv-x="251" 
d="M110 502l61 238h162l-112 -238h-111z" />
    <glyph glyph-name="parenleft" unicode="(" horiz-adv-x="451" 
d="M320 -241q-98 20 -161.5 82.5t-94 152.5t-30.5 192q0 89 22.5 180t65.5 173t105 146.5t142.5 102.5t177.5 39l-36 -171q-52 -4 -96.5 -34t-79 -79t-59 -109.5t-37.5 -125.5t-13 -127t14 -115t43 -89t74 -47z" />
    <glyph glyph-name="parenright" unicode=")" horiz-adv-x="439" 
d="M131 827q99 -20 162 -82.5t93.5 -152.5t30.5 -192q0 -89 -22.5 -180t-65.5 -173t-105 -146.5t-142.5 -102.5t-177.5 -39l36 171q52 4 96.5 34t79 79t59 109.5t37.5 126t13 126.5q0 62 -14 115t-42.5 89t-74.5 47z" />
    <glyph glyph-name="asterisk" unicode="*" horiz-adv-x="524" 
d="M246 317l-104 76l78 103l-123 36l39 123l122 -44l-4 129h129l-4 -129l122 44l40 -123l-124 -36l79 -103l-105 -76l-72 106z" />
    <glyph glyph-name="plus" unicode="+" horiz-adv-x="631" 
d="M206 86l32 152h-152l31 147h153l32 152h147l-32 -152h151l-31 -147h-152l-32 -152h-147z" />
    <glyph glyph-name="comma" unicode="," horiz-adv-x="306" 
d="M29 -159l89 149q-41 3 -67 31.5t-26 67.5q0 41 28 70t73 29q44 0 74 -28.5t30 -76.5q0 -25 -12 -55t-39 -72.5t-72 -103.5l-8 -11h-70z" />
    <glyph glyph-name="hyphen" unicode="-" horiz-adv-x="556" 
d="M86 238l31 147h376l-31 -147h-376z" />
    <glyph glyph-name="period" unicode="." horiz-adv-x="298" 
d="M124 -10q-43 0 -71 29.5t-28 69.5q0 41 28 70t71 29t71 -29t28 -70q0 -40 -28 -69.5t-71 -29.5z" />
    <glyph glyph-name="slash" unicode="/" horiz-adv-x="546" 
d="M-93 -201l569 1034h174l-569 -1034h-174z" />
    <glyph glyph-name="zero" unicode="0" horiz-adv-x="739" 
d="M348 -10q-75 0 -130 26.5t-91.5 72t-54 103.5t-17.5 122q0 77 25 154t73.5 141t119.5 102.5t162 38.5q75 0 130 -26.5t91.5 -72t54 -103.5t17.5 -122q0 -77 -25 -154t-73.5 -141t-119 -102.5t-162.5 -38.5zM356 158q39 0 71.5 25t55.5 66t35.5 89t12.5 94q0 41 -11 74.5
t-33.5 54t-59.5 20.5q-39 0 -71.5 -25t-55.5 -66t-35.5 -89t-12.5 -94q0 -40 11 -74t34 -54.5t59 -20.5z" />
    <glyph glyph-name="one" unicode="1" horiz-adv-x="441" 
d="M459 740l-157 -740h-192l106 500h-145l25 118l22 6q72 18 122 43t99 66l8 7h112z" />
    <glyph glyph-name="two" unicode="2" horiz-adv-x="703" 
d="M13 0l28 131l189 126q81 54 137 94.5t85.5 76.5t29.5 75q0 37 -25 59.5t-67 22.5q-38 0 -59 -15t-30.5 -34.5t-12 -34.5l-2.5 -15h-184l2 19t10.5 49t27 64t51 64t83 49t122.5 19q92 0 153.5 -31.5t93 -84.5t31.5 -116q0 -66 -32 -118.5t-82 -94.5t-107 -76t-107 -64h285
l-35 -165h-585z" />
    <glyph glyph-name="three" unicode="3" horiz-adv-x="688" 
d="M333 -10q-79 0 -132 17.5t-85.5 44.5t-49.5 58t-23 58t-6.5 44.5l-0.5 17.5h182l2.5 -12.5t13 -29t34 -29t65.5 -12.5q61 0 88 27.5t27 57.5q0 26 -24 46.5t-71 20.5h-102l31 147h107q53 0 77 24.5t24 52.5q0 27 -22.5 48.5t-70.5 21.5q-40 0 -62.5 -13.5t-33.5 -31.5
t-14 -31.5l-3 -13.5h-175l2.5 18t11.5 46t28 59.5t52 59.5t82.5 46t120.5 18q92 0 152.5 -29t90.5 -74.5t30 -95.5q0 -54 -37 -104t-111 -70l-1 -7q55 -22 84.5 -63t29.5 -89q0 -41 -19.5 -81.5t-58.5 -73.5t-97 -53t-136 -20z" />
    <glyph glyph-name="four" unicode="4" horiz-adv-x="756" 
d="M359 0l29 137l-365 1l35 164l385 438h265l-94 -443h105l-34 -160h-105l-29 -137h-192zM251 297h171l54 256z" />
    <glyph glyph-name="five" unicode="5" horiz-adv-x="672" 
d="M331 -10q-76 0 -127.5 17.5t-83.5 45t-49 59t-23.5 59t-7.5 45l-1 17.5h178l2.5 -13.5t13.5 -31.5t34 -31.5t64 -13.5q40 0 67 17.5t41 45t14 55.5q0 36 -24.5 65t-74.5 29q-40 0 -63 -13.5t-32.5 -27.5l-9.5 -14h-190l127 440h488l-36 -166h-336l-41 -140h5l13.5 15.5
t45.5 30.5t85 15q78 0 130 -32t78 -83.5t26 -109.5q0 -51 -19.5 -100.5t-58.5 -90t-98 -65t-137 -24.5z" />
    <glyph glyph-name="six" unicode="6" horiz-adv-x="713" 
d="M359 -10q-101 0 -169 39.5t-102 105.5t-34 143q0 95 33.5 180t96 150.5t150.5 103.5t197 38q84 0 124 -9.5l40 -9.5l-36 -169l-35.5 9.5t-92.5 9.5q-79 0 -146.5 -31t-104.5 -101q20 18 51 31.5t77 13.5q83 0 138 -32.5t82.5 -85t27.5 -111.5q0 -50 -18.5 -98.5
t-55 -88.5t-92.5 -64t-131 -24zM351 146q37 0 62.5 17t38.5 43t13 53q0 37 -24.5 66.5t-74.5 29.5q-37 0 -62.5 -16.5t-38.5 -42.5t-13 -53q0 -37 24.5 -67t74.5 -30z" />
    <glyph glyph-name="seven" unicode="7" horiz-adv-x="647" 
d="M115 0q25 121 67 216.5t90.5 166t94 118t76.5 73.5h-348l35 166h567l-28 -135l-29 -25t-74 -75t-94.5 -123t-90.5 -168.5t-61 -213.5h-205z" />
    <glyph glyph-name="eight" unicode="8" horiz-adv-x="696" 
d="M334 -10q-100 0 -166.5 31.5t-99 81t-32.5 101.5q0 62 45 116t136 74v5q-107 50 -107 148q0 47 24 84.5t65 64t93.5 40.5t109.5 14q75 0 139.5 -24t103.5 -68t39 -105q0 -119 -150 -171v-5q59 -25 88.5 -68t29.5 -93q0 -54 -36 -106t-106.5 -86t-175.5 -34zM396 451
q50 0 75.5 25t25.5 55q0 28 -23.5 50.5t-70.5 22.5q-50 0 -75.5 -25t-25.5 -54q0 -28 23.5 -51t70.5 -23zM339 139q58 0 87 29.5t29 63.5q0 32 -26.5 58t-80.5 26q-58 0 -87 -29t-29 -63q0 -32 26.5 -58.5t80.5 -26.5z" />
    <glyph glyph-name="nine" unicode="9" horiz-adv-x="713" 
d="M354 750q102 0 169.5 -39.5t101.5 -105t34 -143.5q0 -94 -33.5 -179.5t-96 -151t-150.5 -103.5t-197 -38q-84 0 -124 9.5l-40 9.5l36 169l35.5 -9.5t92.5 -9.5q79 0 146.5 31t104.5 101q-20 -18 -51 -31.5t-77 -13.5q-83 0 -138 32.5t-82.5 85t-27.5 111.5
q0 50 18.5 98.5t55 88.5t92.5 64t131 24zM362 594q-37 0 -62.5 -17t-38.5 -42.5t-13 -53.5q0 -37 24.5 -66.5t74.5 -29.5q38 0 63 17t38 42.5t13 52.5q0 38 -24.5 67.5t-74.5 29.5z" />
    <glyph glyph-name="colon" unicode=":" horiz-adv-x="303" 
d="M199 342q-43 0 -71 29.5t-28 69.5q0 41 28 70t71 29t71 -29t28 -70q0 -40 -28 -69.5t-71 -29.5zM129 -10q-43 0 -71 29.5t-28 69.5q0 41 28 70t71 29t71 -29t28 -70q0 -40 -28 -69.5t-71 -29.5z" />
    <glyph glyph-name="semicolon" unicode=";" horiz-adv-x="311" 
d="M199 342q-43 0 -71 29.5t-28 69.5q0 41 28 70t71 29t71 -29t28 -70q0 -40 -28 -69.5t-71 -29.5zM34 -159l89 149q-41 3 -67 31.5t-26 67.5q0 41 28 70t73 29q44 0 74 -28.5t30 -76.5q0 -25 -12 -55t-39 -72.5t-72 -103.5l-8 -11h-70z" />
    <glyph glyph-name="less" unicode="&#x3c;" horiz-adv-x="585" 
d="M476 98l-404 189l23 109l485 189l-32 -162l-261 -93l222 -90z" />
    <glyph glyph-name="equal" unicode="=" horiz-adv-x="720" 
d="M107 339l33 153h540l-33 -153h-540zM58 108l33 153h540l-33 -153h-540z" />
    <glyph glyph-name="greater" unicode="&#x3e;" horiz-adv-x="585" 
d="M43 98l32 162l261 93l-222 90l33 142l404 -189l-23 -109z" />
    <glyph glyph-name="question" unicode="?" horiz-adv-x="663" 
d="M228 233l3 22q6 46 32 75.5t60 50t67 38t55 38t22 50.5q0 35 -25 56.5t-67 21.5q-38 0 -59 -15t-30.5 -34.5t-12 -34.5l-2.5 -15h-184l2.5 19t11 49t27.5 64t52.5 64t84 49t123.5 19q88 0 148.5 -31.5t92.5 -83t32 -112.5q0 -54 -22 -90.5t-55 -61.5t-67.5 -44
t-61.5 -37.5t-36 -42.5l-5 -14h-186zM307 -10q-42 0 -68 27.5t-26 66.5t26 66.5t68 27.5q40 0 67 -27.5t27 -66.5t-27 -66.5t-67 -27.5z" />
    <glyph glyph-name="at" unicode="@" horiz-adv-x="1054" 
d="M506 -190q-120 0 -208 35.5t-145 96t-85 137t-28 159.5q0 76 22.5 151t66 141.5t107.5 118.5t147.5 81.5t185.5 29.5q123 0 211 -35t143.5 -93.5t81.5 -129.5t26 -143q0 -60 -17 -115t-49 -98.5t-77.5 -68.5t-102.5 -25q-49 0 -80.5 12.5t-49.5 28.5t-25 28.5l-7 12.5
h-10l-8.5 -12.5t-26 -28.5t-45.5 -28.5t-66 -12.5q-59 0 -97.5 26.5t-56.5 69t-18 90.5q0 45 15 90t43 82t69 59.5t93 22.5q33 0 55.5 -10t35.5 -22.5t19 -22.5l6 -10h6l12 57h151l-45 -216q-4 -21 -4 -42.5t10 -36t35 -14.5q24 0 45 26t34.5 68.5t13.5 91.5q0 47 -16 95
t-52.5 87.5t-98 63.5t-153.5 24q-91 0 -162 -34.5t-120.5 -91.5t-75 -126t-25.5 -139q0 -58 19 -112t58 -96t99.5 -66.5t143.5 -24.5q49 0 92.5 8t77.5 18t53.5 18l19.5 8l47 -121l-21 -9.5t-59.5 -21.5t-91.5 -21.5t-118 -9.5zM506 175q31 0 53.5 18.5t34.5 45.5t12 54
q0 31 -16.5 53.5t-51.5 22.5q-31 0 -53 -18t-34 -45t-12 -55q0 -30 16 -53t51 -23z" />
    <glyph glyph-name="A" unicode="A" horiz-adv-x="776" 
d="M-41 0l403 740h259l89 -740h-190l-13 124h-273l-65 -124h-210zM320 288h171l-28 273z" />
    <glyph glyph-name="B" unicode="B" horiz-adv-x="732" 
d="M2 0l157 740h338q76 0 124 -23.5t71 -61.5t23 -80q0 -36 -17 -71.5t-49 -62.5t-78 -39l-1 -9q61 -13 90 -54t29 -91q0 -42 -19.5 -86t-58 -80.5t-94.5 -59t-129 -22.5h-386zM453 581h-136l-27 -129h146q40 0 62 24.5t22 50.5q0 21 -16 37.5t-51 16.5zM410 309h-150
l-32 -150h160q47 0 73 28t26 59q0 25 -18.5 44t-58.5 19z" />
    <glyph glyph-name="C" unicode="C" horiz-adv-x="784" 
d="M381 -10q-83 0 -144.5 27t-101.5 73t-60 105t-20 123q0 77 27 153.5t79.5 139.5t129 101t176.5 38q82 0 137.5 -20t90 -51.5t53.5 -67t27 -67t9 -51.5l1 -20h-190l-2.5 16t-14.5 37.5t-40 37.5t-79 16t-90 -21.5t-65.5 -57.5t-40.5 -79.5t-14 -86.5q0 -46 16 -85.5
t49.5 -64t84.5 -24.5q48 0 79 16t49 37t25.5 37l7.5 16h190l-5.5 -20t-20 -51.5t-40.5 -67t-66.5 -67t-99 -51.5t-137.5 -20z" />
    <glyph glyph-name="D" unicode="D" horiz-adv-x="764" 
d="M2 0l157 740h245q88 0 153.5 -27t108.5 -73.5t64.5 -106t21.5 -123.5q0 -74 -28.5 -146.5t-84.5 -132t-139 -95.5t-193 -36h-305zM390 572h-75l-85 -401h94q59 0 104 20t75 53.5t45.5 74t15.5 80.5q0 45 -19 84.5t-57.5 64t-97.5 24.5z" />
    <glyph glyph-name="E" unicode="E" horiz-adv-x="637" 
d="M2 0l157 740h534l-35 -166h-342l-26 -120h298l-34 -158h-297l-28 -130h347l-35 -166h-539z" />
    <glyph glyph-name="F" unicode="F" horiz-adv-x="632" 
d="M2 0l157 740h534l-35 -166h-342l-34 -160h297l-34 -159h-297l-54 -255h-192z" />
    <glyph glyph-name="G" unicode="G" horiz-adv-x="791" 
d="M393 -10q-84 0 -147 26.5t-105.5 73t-63.5 106.5t-21 127q0 75 26.5 150.5t79.5 138t132 100.5t184 38q77 0 130.5 -20t87 -51.5t52.5 -67t27 -67t9.5 -51.5l1.5 -20h-190l-3 16t-14.5 37.5t-38.5 37.5t-75 16q-53 0 -93 -21.5t-67.5 -57.5t-41 -78.5t-13.5 -84.5
q0 -47 18 -87.5t54 -65t91 -24.5q53 0 91.5 23.5t58.5 76.5h-163l32 148h352l-7 -56q-16 -130 -71.5 -210t-137 -116.5t-175.5 -36.5z" />
    <glyph glyph-name="H" unicode="H" horiz-adv-x="757" 
d="M2 0l157 740h192l-59 -278h254l59 278h192l-157 -740h-192l63 298h-254l-63 -298h-192z" />
    <glyph glyph-name="I" unicode="I" horiz-adv-x="311" 
d="M2 0l157 740h192l-157 -740h-192z" />
    <glyph glyph-name="J" unicode="J" horiz-adv-x="516" 
d="M106 -10q-50 0 -83 5l-33 5l33 157l23.5 -2.5t54.5 -2.5q59 0 107 36t64 113l93 439h190l-96 -454q-12 -58 -38.5 -111.5t-69 -95t-103.5 -65.5t-142 -24z" />
    <glyph glyph-name="K" unicode="K" horiz-adv-x="730" 
d="M2 0l157 740h192l-67 -317l293 317h249l-369 -379l198 -361h-215l-175 334l-71 -334h-192z" />
    <glyph glyph-name="L" unicode="L" horiz-adv-x="637" 
d="M2 0l157 740h192l-122 -574h347l-35 -166h-539z" />
    <glyph glyph-name="M" unicode="M" horiz-adv-x="911" 
d="M2 0l157 740h250l66 -338l216 338h260l-157 -740h-192l93 437l-175 -275h-176l-57 275l-93 -437h-192z" />
    <glyph glyph-name="N" unicode="N" horiz-adv-x="759" 
d="M2 0l157 740h177l182 -420l89 420h192l-157 -740h-179l-184 400l-85 -400h-192z" />
    <glyph glyph-name="O" unicode="O" horiz-adv-x="825" 
d="M397 -10q-87 0 -151 27.5t-106 75t-62.5 108t-20.5 126.5q0 76 27 151t80 136.5t130.5 98.5t178.5 37q87 0 151 -27.5t106 -75t62.5 -108t20.5 -126.5q0 -76 -27 -151t-80 -136.5t-130.5 -98.5t-178.5 -37zM405 161q51 0 91 22t67 58.5t41.5 80.5t14.5 87q0 45 -16.5 84
t-50 62.5t-86.5 23.5q-51 0 -91 -22t-67 -58.5t-41.5 -80t-14.5 -87.5q0 -45 16.5 -83.5t50.5 -62.5t86 -24z" />
    <glyph glyph-name="P" unicode="P" horiz-adv-x="716" 
d="M2 0l157 740h301q89 0 147 -32.5t86 -84.5t28 -111q0 -49 -19.5 -97.5t-58 -88.5t-94.5 -63.5t-129 -23.5h-175l-51 -239h-192zM438 573h-122l-36 -168h148q48 0 74 29t26 62q0 30 -21.5 53.5t-68.5 23.5z" />
    <glyph glyph-name="Q" unicode="Q" horiz-adv-x="850" 
d="M397 -10q-87 0 -151 27.5t-106 75t-62.5 108t-20.5 126.5q0 76 27 151t80 136.5t130.5 98.5t178.5 37q87 0 151 -27.5t106 -75t62.5 -108t20.5 -126.5q0 -76 -27 -151t-78 -135l86 -127h-191l-22 30q-39 -19 -85.5 -29.5t-98.5 -10.5zM405 161q38 0 73 14l-87 121l138 94
l65 -96q25 56 25 115q0 45 -16.5 84t-50 62.5t-86.5 23.5q-51 0 -91 -22t-67 -58.5t-41.5 -80t-14.5 -87.5q0 -45 16.5 -83.5t50.5 -62.5t86 -24z" />
    <glyph glyph-name="R" unicode="R" horiz-adv-x="728" 
d="M2 0l157 740h304q91 0 150 -31.5t88.5 -82t29.5 -106.5q0 -49 -21.5 -96t-63 -84t-102.5 -56l86 -284h-196l-77 268h-106l-57 -268h-192zM455 575h-139l-33 -154h160q48 0 73 26t25 56q0 28 -21 50t-65 22z" />
    <glyph glyph-name="S" unicode="S" horiz-adv-x="698" 
d="M334 -10q-78 0 -132.5 18t-89 46t-54 60t-27.5 60t-10 46l-2 18h189l4 -14t17 -33t40 -33t73 -14q53 0 82.5 21.5t29.5 54.5q0 48 -70 67l-80 22q-85 23 -139 73t-54 133q0 63 34 116.5t100 86t163 32.5q71 0 120.5 -16.5t82.5 -43t52.5 -55.5t29 -55.5t12.5 -43l3 -16.5
h-185l-3.5 12t-14.5 28t-34.5 28t-62.5 12q-52 0 -79.5 -21.5t-27.5 -52.5q0 -26 19.5 -43t54.5 -27l73 -20q95 -26 146.5 -78t51.5 -129q0 -63 -35.5 -117.5t-105 -88t-171.5 -33.5z" />
    <glyph glyph-name="T" unicode="T" horiz-adv-x="701" 
d="M191 0l122 574h-226l35 166h640l-35 -166h-222l-122 -574h-192z" />
    <glyph glyph-name="U" unicode="U" horiz-adv-x="736" 
d="M321 -10q-56 0 -109 18t-92 57t-54 102t4 153l89 420h192l-89 -420q-15 -71 9.5 -110.5t83.5 -39.5q58 0 90.5 38.5t48.5 111.5l89 420h192l-93 -440q-25 -119 -78 -187t-125.5 -95.5t-157.5 -27.5z" />
    <glyph glyph-name="V" unicode="V" horiz-adv-x="771" 
d="M196 0l-89 740h190l57 -561l294 561h210l-403 -740h-259z" />
    <glyph glyph-name="W" unicode="W" horiz-adv-x="1083" 
d="M136 0l-19 740h182l10 -495l221 495h199l14 -496l217 496h200l-333 -740h-248l-11 416l-187 -416h-245z" />
    <glyph glyph-name="X" unicode="X" horiz-adv-x="804" 
d="M-21 0l317 390l-135 350h218l77 -226l173 226h246l-320 -390l139 -350h-218l-78 227l-173 -227h-246z" />
    <glyph glyph-name="Y" unicode="Y" horiz-adv-x="724" 
d="M221 0l52 248l-156 492h198l84 -297l209 297h223l-366 -493l-52 -247h-192z" />
    <glyph glyph-name="Z" unicode="Z" horiz-adv-x="698" 
d="M-1 0l28 133l413 441h-319l35 166h592l-28 -132l-414 -442h321l-36 -166h-592z" />
    <glyph glyph-name="bracketleft" unicode="[" horiz-adv-x="513" 
d="M-45 -221l230 1084h374l-34 -161h-179l-162 -762h179l-34 -161h-374z" />
    <glyph glyph-name="backslash" unicode="\" horiz-adv-x="531" 
d="M418 -201h-154l-129 1034h154z" />
    <glyph glyph-name="bracketright" unicode="]" horiz-adv-x="529" 
d="M595 863l-230 -1084h-374l34 161h179l162 762h-179l34 161h374z" />
    <glyph glyph-name="asciicircum" unicode="^" horiz-adv-x="596" 
d="M152 551l175 189h147l95 -189h-134l-45 102l-90 -102h-148z" />
    <glyph glyph-name="underscore" unicode="_" horiz-adv-x="725" 
d="M10 -117l43 117h528l-44 -117h-527z" />
    <glyph glyph-name="grave" unicode="`" horiz-adv-x="346" 
d="M156 599l-104 180h165l67 -179z" />
    <glyph glyph-name="a" unicode="a" horiz-adv-x="660" 
d="M305 540q44 0 72 -12.5t44.5 -28.5t23 -28.5l6.5 -12.5h8l15 72h190l-110 -530h-190l12 58h-8l-7 -10.5t-23 -23.5t-43 -23.5t-67 -10.5q-65 0 -107.5 31t-63 82t-20.5 110q0 57 18 114.5t52.5 106t84.5 77.5t113 29zM351 389q-38 0 -65.5 -23.5t-42 -58.5t-14.5 -70
q0 -39 19.5 -67.5t61.5 -28.5q38 0 65.5 23.5t42 58.5t14.5 69q0 39 -19.5 68t-61.5 29z" />
    <glyph glyph-name="b" unicode="b" horiz-adv-x="659" 
d="M364 -10q-43 0 -71.5 12.5t-45 28.5t-23 28.5l-6.5 12.5h-8l-15 -72h-190l158 760h190l-60 -288h8l7 10.5t23 23.5t43 23.5t67 10.5q66 0 108 -31t62.5 -82t20.5 -110q0 -57 -18 -114.5t-52.5 -106t-84.5 -77.5t-113 -29zM318 141q38 0 65.5 23.5t42 59t14.5 69.5
q0 39 -19.5 67.5t-61.5 28.5q-38 0 -65.5 -23.5t-42 -58t-14.5 -69.5q0 -39 19.5 -68t61.5 -29z" />
    <glyph glyph-name="c" unicode="c" horiz-adv-x="618" 
d="M298 -10q-88 0 -145.5 35t-85 91t-27.5 119q0 55 20.5 109t60.5 98.5t100 71t139 26.5q73 0 119 -21.5t71.5 -53t35.5 -63.5t12 -53.5l2 -21.5h-175l-1 10t-7 23t-20.5 23t-40.5 10q-39 0 -67 -24.5t-42.5 -61t-14.5 -72.5q0 -40 19 -69t60 -29q26 0 43.5 10t27.5 23
t14 23l4 10h175l-6.5 -21.5t-23 -53t-47.5 -63.5t-80 -53.5t-120 -21.5z" />
    <glyph glyph-name="d" unicode="d" horiz-adv-x="671" 
d="M228 -10q-65 0 -107.5 31t-63 82t-20.5 110q0 57 18 114.5t52.5 106t84.5 77.5t113 29q44 0 72 -12.5t44.5 -28.5t23 -28.5l6.5 -12.5h8l63 302h190l-158 -760h-190l12 58h-8l-7 -10.5t-23 -23.5t-43 -23.5t-67 -10.5zM310 141q38 0 65.5 23.5t42 58.5t14.5 69
q0 39 -19.5 68t-61.5 29q-38 0 -65.5 -23.5t-42 -58.5t-14.5 -70q0 -39 19.5 -67.5t61.5 -28.5z" />
    <glyph glyph-name="e" unicode="e" horiz-adv-x="626" 
d="M300 -10q-90 0 -147 35t-84.5 91.5t-27.5 119.5q0 55 19.5 109t59 98t97.5 70.5t135 26.5q75 0 125 -26.5t78 -70t36 -96.5t-1 -107l-4 -23h-358q2 -43 24 -67t61 -24q31 0 49 13t26 25.5l8 12.5h178l-7.5 -19t-25 -46.5t-49 -55.5t-78.5 -47t-114 -19zM243 322h180
q5 35 -15.5 58.5t-61.5 23.5q-39 0 -66 -23t-37 -59z" />
    <glyph glyph-name="f" unicode="f" horiz-adv-x="414" 
d="M32 0l80 380h-81l32 150h81l13 63q9 41 33 82t71.5 68t126.5 27q41 0 67 -6l26 -6l-28 -129l-10.5 2.5t-26.5 2.5q-59 0 -72 -59l-10 -45h98l-32 -150h-97l-81 -380h-190z" />
    <glyph glyph-name="g" unicode="g" horiz-adv-x="668" 
d="M249 -215q-77 0 -125.5 19t-75.5 47t-38 56t-13 47l-2 19h183l4.5 -11t21 -22t51.5 -11q48 0 79.5 27t41.5 73l11 51h-8l-8 -9.5t-25 -22.5t-42.5 -22.5t-61.5 -9.5q-68 0 -112.5 31.5t-66 82t-21.5 108.5q0 54 17.5 107t51 97.5t82.5 71t112 26.5q46 0 76 -13.5
t46.5 -32t23.5 -32l7 -13.5h8l17 81h189l-108 -513q-22 -105 -97 -168.5t-218 -63.5zM320 160q36 0 60.5 21t37.5 53t13 64q0 39 -20 68.5t-62 29.5q-35 0 -59.5 -21t-37.5 -52.5t-13 -64.5q0 -39 19.5 -68.5t61.5 -29.5z" />
    <glyph glyph-name="h" unicode="h" horiz-adv-x="623" 
d="M2 0l162 760h190l-65 -305h5l8 13t26 29.5t47 29.5t71 13q58 0 93.5 -27.5t48.5 -73t1 -100.5l-72 -339h-190l64 299q8 36 -3 62t-46 26q-36 0 -57 -26t-29 -62l-64 -299h-190z" />
    <glyph glyph-name="i" unicode="i" horiz-adv-x="310" 
d="M246 583q-47 0 -77.5 30.5t-30.5 72.5q0 44 30.5 74t77.5 30t78 -30t31 -74q0 -42 -31 -72.5t-78 -30.5zM5 0l113 530h190l-113 -530h-190z" />
    <glyph glyph-name="j" unicode="j" horiz-adv-x="330" 
d="M266 583q-47 0 -77.5 30.5t-30.5 72.5q0 44 30.5 74t77.5 30t78 -30t31 -74q0 -42 -31 -72.5t-78 -30.5zM-47 -215q-34 0 -55.5 3.5l-21.5 3.5l29 138l9.5 -1t19.5 -1q35 0 59.5 17.5t31.5 52.5l113 532h190l-114 -538q-7 -36 -23 -72.5t-45 -67t-76 -49t-117 -18.5z" />
    <glyph glyph-name="k" unicode="k" horiz-adv-x="646" 
d="M2 0l162 760h190l-92 -430l184 200h226l-247 -260l145 -270h-207l-122 229l-49 -229h-190z" />
    <glyph glyph-name="l" unicode="l" horiz-adv-x="310" 
d="M2 0l162 760h190l-162 -760h-190z" />
    <glyph glyph-name="m" unicode="m" horiz-adv-x="919" 
d="M-3 0l113 530h190l-16 -75h5l9 13t27.5 29.5t47.5 29.5t68 13q59 0 92.5 -30.5t43.5 -74.5h5l9.5 16t29.5 36.5t52.5 36.5t77.5 16q57 0 90.5 -26.5t45.5 -68t2 -86.5l-76 -359h-190l67 314q7 32 -5 52.5t-41 20.5q-28 0 -48.5 -19t-28.5 -54l-67 -314h-190l67 314
q7 32 -5 52.5t-41 20.5q-28 0 -48.5 -19t-28.5 -54l-67 -314h-190z" />
    <glyph glyph-name="n" unicode="n" horiz-adv-x="618" 
d="M-3 0l113 530h190l-16 -75h5l8 13t26 29.5t47 29.5t71 13q58 0 93.5 -27.5t48.5 -73t1 -100.5l-72 -339h-190l64 299q8 36 -3 62t-46 26q-36 0 -57 -26t-29 -62l-64 -299h-190z" />
    <glyph glyph-name="o" unicode="o" horiz-adv-x="650" 
d="M303 -10q-90 0 -148 35t-86.5 91t-28.5 119q0 55 20.5 109t60.5 98.5t99.5 71t136.5 26.5q89 0 147.5 -35t87 -90.5t28.5 -119.5q0 -55 -21 -109t-61 -98.5t-99 -71t-136 -26.5zM310 142q36 0 62 21.5t40 56t14 73.5q0 38 -19 66.5t-60 28.5q-35 0 -61.5 -21.5t-40.5 -56
t-14 -73.5q0 -38 19 -66.5t60 -28.5z" />
    <glyph glyph-name="p" unicode="p" horiz-adv-x="658" 
d="M-36 -195l150 725h190l-12 -58h8l7 10.5t23 23.5t43 23.5t67 10.5q66 0 108 -31t62.5 -82t20.5 -110q0 -57 -18 -114.5t-52.5 -106t-84.5 -77.5t-113 -29q-43 0 -71.5 12.5t-45 28.5t-23 28.5l-6.5 12.5h-8l-55 -267h-190zM236 238q0 -39 19.5 -68t61.5 -29
q38 0 65.5 23.5t42 59t14.5 69.5q0 39 -19.5 67.5t-61.5 28.5q-38 0 -65.5 -23.5t-42 -58t-14.5 -69.5z" />
    <glyph glyph-name="q" unicode="q" horiz-adv-x="673" 
d="M324 -195l52 252h-8l-7 -10.5t-23 -23.5t-43 -23.5t-67 -10.5q-65 0 -107.5 31t-63 82t-20.5 110q0 57 18 114.5t52.5 106t84.5 77.5t113 29q44 0 72 -12.5t44.5 -28.5t23 -28.5l6.5 -12.5h8l15 72h190l-150 -724h-190zM310 140q38 0 65.5 23.5t42 58.5t14.5 69
q0 39 -19.5 68t-61.5 29q-38 0 -65.5 -23.5t-42 -58.5t-14.5 -70q0 -39 19.5 -67.5t61.5 -28.5z" />
    <glyph glyph-name="r" unicode="r" horiz-adv-x="470" 
d="M-3 0l113 530h188l-18 -84h6q23 43 62.5 68.5t94.5 25.5q24 0 35 -3.5l11 -3.5l-40 -186l-12.5 2.5t-32.5 2.5q-51 0 -87 -24t-59 -65t-34 -92l-37 -171h-190z" />
    <glyph glyph-name="s" unicode="s" horiz-adv-x="566" 
d="M258 -10q-73 0 -120 19t-74.5 46.5t-40 55t-16 46.5l-3.5 19h181l6.5 -12.5t25.5 -25t56 -12.5q35 0 48.5 12.5t13.5 25.5q0 23 -36 30l-77 14q-70 13 -110.5 52.5t-40.5 98.5q0 50 29 91t82.5 65.5t128.5 24.5q65 0 108.5 -17.5t69.5 -43.5t38.5 -52t16.5 -43.5l4 -17.5
h-174l-5.5 9.5t-21 19t-46.5 9.5t-45.5 -10.5t-14.5 -25.5q0 -26 47 -34l61 -10q86 -14 123 -57t37 -96q0 -49 -29 -90t-85 -66t-137 -25z" />
    <glyph glyph-name="t" unicode="t" horiz-adv-x="457" 
d="M268 -10q-67 0 -105 21t-54.5 54.5t-17.5 70.5t6 70l37 174h-85l32 150h85l28 130h191l-28 -130h98l-32 -150h-98l-37 -174q-7 -34 7 -52.5t54 -18.5q16 0 27.5 2.5l11.5 2.5l-30 -140l-25.5 -5t-64.5 -5z" />
    <glyph glyph-name="u" unicode="u" horiz-adv-x="609" 
d="M159 -10q-75 0 -107.5 56.5t-12.5 150.5l71 333h190l-66 -311q-7 -36 4.5 -56t42.5 -20q32 0 51.5 21t26.5 55l66 311h190l-112 -530h-190l15 75h-6q-30 -40 -71.5 -62.5t-91.5 -22.5z" />
    <glyph glyph-name="v" unicode="v" horiz-adv-x="624" 
d="M152 0l-76 530h174l42 -323l168 323h198l-293 -530h-213z" />
    <glyph glyph-name="w" unicode="w" horiz-adv-x="905" 
d="M122 0l-46 530h178l10 -304l149 304h169l20 -305l139 305h198l-272 -530h-200l-18 263l-127 -263h-200z" />
    <glyph glyph-name="x" unicode="x" horiz-adv-x="620" 
d="M-44 0l224 283l-97 247h195l51 -149l110 149h219l-232 -286l105 -244h-195l-54 151l-107 -151h-219z" />
    <glyph glyph-name="y" unicode="y" horiz-adv-x="618" 
d="M15 -195q-29 0 -43 2l-14 2l32 156l10 -1t27 -1q34 0 64 7.5t60 39.5l-75 520h178l34 -320l166 320h198l-284 -495q-44 -76 -92.5 -127.5t-111.5 -77t-149 -25.5z" />
    <glyph glyph-name="z" unicode="z" horiz-adv-x="553" 
d="M-5 0l27 129l279 251h-221l33 150h467l-28 -129l-279 -251h226l-32 -150h-472z" />
    <glyph glyph-name="braceleft" unicode="{" horiz-adv-x="516" 
d="M284 -221q-86 0 -135 30.5t-64 84.5t0 125l34 162q12 60 -47 60h-46l34 160h41q33 0 53 16.5t27 53.5l40 192q20 99 78 149.5t168 50.5h137l-34 -161h-85q-60 0 -73 -60l-38 -181q-12 -57 -36 -88.5t-83 -47.5l-2 -8q50 -16 61 -52t0 -84l-38 -181q-6 -29 7 -44.5
t50 -15.5h75l-34 -161h-90z" />
    <glyph glyph-name="bar" unicode="|" horiz-adv-x="402" 
d="M13 -259l259 1219h152l-259 -1219h-152z" />
    <glyph glyph-name="braceright" unicode="}" horiz-adv-x="516" 
d="M258 863q86 0 135 -30.5t64 -84.5t0 -125l-34 -162q-12 -60 47 -60h46l-34 -160h-41q-33 0 -52.5 -16.5t-27.5 -53.5l-40 -192q-20 -99 -78 -149.5t-168 -50.5h-137l34 161h85q60 0 73 60l38 181q12 57 36.5 88.5t82.5 47.5l2 8q-50 17 -60.5 52.5t-0.5 83.5l38 181
q6 29 -7 44.5t-50 15.5h-75l34 161h90z" />
    <glyph glyph-name="asciitilde" unicode="~" horiz-adv-x="505" 
d="M341 312q-27 0 -47 9t-35 20.5t-28 20.5t-26 9q-26 0 -37 -53h-93q9 40 22 76t39 59.5t71 23.5q37 0 60.5 -14.5t41 -29.5t34.5 -15q14 0 22.5 13.5t14.5 39.5h93q-8 -39 -22 -75.5t-39.5 -60t-70.5 -23.5z" />
    <glyph glyph-name="uni00A0" unicode="&#xa0;" horiz-adv-x="230" 
 />
    <glyph glyph-name="exclamdown" unicode="&#xa1;" horiz-adv-x="306" 
d="M199 528q41 0 67.5 -28t26.5 -67t-26.5 -66.5t-67.5 -27.5q-40 0 -67 27.5t-27 66.5t27 67t67 28zM-44 -222l138 503h153l-80 -503h-211z" />
    <glyph glyph-name="cent" unicode="&#xa2;" horiz-adv-x="618" 
d="M198 -94l20 93q-61 15 -100.5 51t-58.5 84t-19 101t18.5 105t55.5 95t91.5 71t127.5 33l18 85h79l-19 -87q58 -9 94.5 -32.5t56 -53.5t27.5 -58.5t9.5 -47l1.5 -18.5h-175l-1.5 13t-11 28t-32.5 22l-53 -252q29 5 44.5 20.5t22 30l6.5 14.5h175l-6.5 -21.5t-23 -53
t-47.5 -63.5t-80 -53.5t-120 -21.5h-2l-18 -84h-80zM232 235q0 -21 5 -39.5t16 -31.5l45 211q-32 -22 -49 -61.5t-17 -78.5z" />
    <glyph glyph-name="sterling" unicode="&#xa3;" horiz-adv-x="632" 
d="M10 0l33 157q79 6 123 29.5t44 69.5q0 14 -3.5 27t-9.5 27h-139l15 70h92q-9 21 -15 46t-6 55q0 51 21 99t64 86.5t108.5 61t153.5 22.5q47 0 87 -5t64.5 -10.5l24.5 -5.5l-35 -163l-37 10t-95 10q-81 0 -125.5 -28.5t-44.5 -81.5q0 -27 9.5 -49t18.5 -47h179l-15 -70
h-150v-2q0 -41 -15 -69t-34.5 -45.5t-34.5 -26t-16 -10.5h303l-33 -157h-532z" />
    <glyph glyph-name="currency" unicode="&#xa4;" horiz-adv-x="715" 
d="M130 70l-80 79l94 95q-18 29 -28 63t-10 71t10 71t28 63l-94 94l80 79l94 -94q61 39 134 39t134 -39l94 94l79 -79l-94 -94q39 -61 39 -134q0 -75 -39 -134l94 -95l-79 -79l-94 94q-29 -18 -63 -28t-71 -10t-71 10t-63 28zM358 255q34 0 61.5 16.5t44 44.5t16.5 62
t-16.5 61.5t-44 44t-61.5 16.5t-62 -16.5t-44.5 -44t-16.5 -61.5t16.5 -62t44.5 -44.5t62 -16.5z" />
    <glyph glyph-name="yen" unicode="&#xa5;" horiz-adv-x="724" 
d="M75 201l19 88h166l-26 81h-123l19 88h76l-89 282h198l84 -297l209 297h223l-209 -282h72l-19 -88h-119l-60 -81h162l-19 -88h-184l-42 -201h-192l42 201h-188z" />
    <glyph glyph-name="brokenbar" unicode="&#xa6;" horiz-adv-x="403" 
d="M157 417l115 543h152l-115 -543h-152zM13 -259l108 509h152l-108 -509h-152z" />
    <glyph glyph-name="section" unicode="&#xa7;" horiz-adv-x="728" 
d="M286 -224q-77 0 -130.5 18t-88 46t-53.5 60t-27.5 60t-10.5 46l-2 18h189l4 -14t17 -33t40 -33t73 -14q53 0 82.5 21.5t29.5 54.5q0 47 -70 67l-100 28q-56 16 -99.5 40.5t-68.5 61t-25 87.5q0 65 39 106t96 51l2 7l-11.5 12t-22.5 37t-11 65q0 61 34 112.5t99.5 83
t161.5 31.5q71 0 121 -16.5t83.5 -43t53 -55.5t29 -55.5t12.5 -43l3 -16.5h-185l-3.5 12t-14.5 28t-34.5 28t-62.5 12q-52 0 -79.5 -21.5t-27.5 -52.5q0 -26 20 -43t54 -27l93 -26q56 -15 99.5 -40t68.5 -61.5t25 -87.5q0 -65 -39 -105.5t-96 -51.5l-2 -7l12.5 -12.5
t25 -36.5t12.5 -59q0 -63 -35.5 -117t-105.5 -87.5t-174 -33.5zM465 200q36 22 36 59q0 46 -70 67l-160 49q-35 -20 -35 -57q0 -26 20 -42.5t54 -27.5z" />
    <glyph glyph-name="dieresis" unicode="&#xa8;" horiz-adv-x="571" 
d="M384 578q-45 0 -73.5 28.5t-28.5 68.5q0 41 28.5 69.5t73.5 28.5q44 0 73 -28.5t29 -69.5q0 -40 -29 -68.5t-73 -28.5zM134 578q-45 0 -73.5 28.5t-28.5 68.5q0 41 28.5 69.5t73.5 28.5q44 0 73 -28.5t29 -69.5q0 -40 -29 -68.5t-73 -28.5z" />
    <glyph glyph-name="copyright" unicode="&#xa9;" horiz-adv-x="811" 
d="M398 -10q-87 0 -151.5 27.5t-107 75t-63.5 107t-21 123.5q0 71 25.5 139.5t75 124.5t123.5 89.5t170 33.5q87 0 151.5 -27.5t107 -74.5t63.5 -106.5t21 -123.5q0 -71 -25.5 -140t-75 -125t-123.5 -89.5t-170 -33.5zM403 96q68 0 119 24t85 64.5t51.5 89.5t17.5 100
q0 59 -24.5 111.5t-74.5 85.5t-129 33q-66 0 -117.5 -24t-87 -63.5t-53.5 -88.5t-18 -100q0 -59 25.5 -112.5t77 -86.5t128.5 -33zM419 164q-60 0 -98.5 23.5t-57.5 61.5t-19 81q0 50 24.5 97t73 78t119.5 31q50 0 81 -14.5t48 -36t24 -43t8 -36l1 -14.5h-118l-1.5 11
t-11.5 22.5t-34 11.5q-26 0 -45 -16.5t-29 -41.5t-10 -49q0 -27 13 -47t41 -20q24 0 37 11t18 22.5l5 11.5h118l-4 -14.5t-15.5 -36t-32.5 -43t-54 -36t-81 -14.5z" />
    <glyph glyph-name="ordfeminine" unicode="&#xaa;" horiz-adv-x="425" 
d="M283 444q-29 -42 -87 -42q-49 0 -77 24.5t-28 67.5q0 45 33 76.5t97 36.5l101 8l1 3q8 37 -31 37q-23 0 -29 -10.5l-6 -10.5h-125l6 17.5t23.5 40.5t51.5 40.5t90 17.5q60 0 96 -21.5t50.5 -54.5t6.5 -67l-43 -199h-134l7 36h-3zM227 511q0 -9 7 -15.5t21 -6.5
q17 0 32 10.5t19 32.5l2 9l-55 -5q-15 -1 -20.5 -9.5t-5.5 -15.5z" />
    <glyph glyph-name="guillemotleft" unicode="&#xab;" horiz-adv-x="803" 
d="M546 80l-168 225l264 225h204l-272 -234l156 -216h-184zM219 80l-168 225l264 225h204l-272 -234l156 -216h-184z" />
    <glyph glyph-name="logicalnot" unicode="&#xac;" horiz-adv-x="655" 
d="M101 383l31 147h495l-31 -147v0l-29 -135h-156l29 135h-339z" />
    <glyph glyph-name="uni00AD" unicode="&#xad;" horiz-adv-x="600" 
d="M86 238l31 147h376l-31 -147h-376z" />
    <glyph glyph-name="registered" unicode="&#xae;" horiz-adv-x="434" 
d="M268 385q-56 0 -94.5 24.5t-58 63.5t-19.5 82q0 49 23 94.5t67.5 75.5t109.5 30q56 0 94.5 -24.5t58 -63t19.5 -81.5q0 -49 -23 -95t-67.5 -76t-109.5 -30zM270 432q48 0 81 23t49.5 58t16.5 71q0 32 -13 60.5t-40 46t-69 17.5q-48 0 -81 -22.5t-50 -57.5t-17 -71
q0 -32 13.5 -60.5t41 -46.5t68.5 -18zM188 480l41 193h80q38 0 56 -19t18 -41q0 -18 -12 -35.5t-34 -26.5l20 -71h-62l-16 65h-18l-14 -65h-59zM307 622h-29l-7 -31h34q20 0 20 17q0 14 -18 14z" />
    <glyph glyph-name="macron" unicode="&#xaf;" horiz-adv-x="400" 
d="M19 653l22 102h340l-22 -102h-340z" />
    <glyph glyph-name="degree" unicode="&#xb0;" horiz-adv-x="456" 
d="M296 371q-52 0 -95 25.5t-68.5 69t-25.5 95.5t25.5 95t68.5 68.5t95 25.5q53 0 95.5 -25.5t68 -68.5t25.5 -95t-25.5 -95.5t-68 -69t-95.5 -25.5zM296 497q26 0 44.5 19t18.5 45t-18.5 44.5t-44.5 18.5t-44.5 -18.5t-18.5 -44.5t18.5 -45t44.5 -19z" />
    <glyph glyph-name="plusminus" unicode="&#xb1;" horiz-adv-x="632" 
d="M221 156l32 152h-152l32 147h152l32 152h147l-32 -152h152l-32 -147h-152l-32 -152h-147zM35 0l21 98h453l-21 -98h-453z" />
    <glyph glyph-name="uni00B2" unicode="&#xb2;" horiz-adv-x="485" 
d="M102 402l20 93l117 75q75 48 113.5 81t38.5 67q0 21 -14 33.5t-38 12.5q-28 0 -40 -13.5t-15 -27.5l-3 -14h-131l2 17.5t11.5 43t30.5 51t57.5 43t93.5 17.5q61 0 101.5 -21t61.5 -55.5t21 -75.5q0 -40 -17.5 -72.5t-46 -58t-60.5 -45t-60 -34.5h165l-25 -117h-383z" />
    <glyph glyph-name="uni00B3" unicode="&#xb3;" horiz-adv-x="480" 
d="M299 396q-63 0 -101 15.5t-58 39t-27.5 46.5t-8 38.5l-0.5 15.5h129l3.5 -11.5t17 -22.5t44.5 -11q35 0 50 15t15 31q0 11 -11.5 23.5t-41.5 12.5h-66l22 103h69q32 0 44 14t12 28t-12.5 26t-41.5 12q-30 0 -43.5 -13t-17 -25.5l-3.5 -12.5h-124l3 16.5t12.5 40.5
t30.5 47.5t57.5 40t91.5 16.5q61 0 101 -19t59.5 -48t19.5 -61q0 -34 -22.5 -65.5t-70.5 -44.5l-1 -6q35 -13 53 -38.5t18 -56.5q0 -35 -22.5 -68.5t-67.5 -55.5t-112 -22z" />
    <glyph glyph-name="acute" unicode="&#xb4;" horiz-adv-x="346" 
d="M300 599l-133 1l77 179h170z" />
    <glyph glyph-name="uni00B5" unicode="&#xb5;" horiz-adv-x="665" 
d="M-51 -195l154 725h190l-65 -306q-7 -35 2.5 -58t43.5 -23q32 0 51.5 21.5t27.5 59.5l65 306h190l-70 -332q-3 -15 -2 -29t12 -23t38 -9q10 0 18.5 1l8.5 1l-30 -142l-13 -1.5t-32.5 -3.5t-38.5 -2q-73 0 -109 26.5t-46 58.5h-9l-5.5 -13t-19 -29.5t-36 -29.5t-56.5 -13
q-27 0 -44.5 7.5t-26.5 14.5l-9 7l-6 -5q23 -41 24.5 -83t-12.5 -105l-5 -21h-190z" />
    <glyph glyph-name="paragraph" unicode="&#xb6;" horiz-adv-x="609" 
d="M333 0h-113l63 295q-68 2 -112.5 28.5t-66.5 68t-22 87.5q0 54 28 104.5t82.5 83.5t133.5 33h332l-149 -700h-113l114 535h-63z" />
    <glyph glyph-name="periodcentered" unicode="&#xb7;" horiz-adv-x="338" 
d="M109 259q-43 0 -71 29.5t-28 69.5q0 41 28 70t71 29t71 -29t28 -70q0 -40 -28 -69.5t-71 -29.5z" />
    <glyph glyph-name="cedilla" unicode="&#xb8;" horiz-adv-x="271" 
d="M31 -258q-34 0 -60.5 4l-26.5 4l14 96l13 -1.5t31 -3t31 -1.5q35 0 47 10.5t12 23.5q0 11 -9 19t-27 8q-17 0 -29.5 -6l-12.5 -6l-46 58l88 93h115l-65 -67v0q50 0 81.5 -29.5t31.5 -71.5q0 -31 -19.5 -61t-61 -49.5t-107.5 -19.5z" />
    <glyph glyph-name="uni00B9" unicode="&#xb9;" horiz-adv-x="335" 
d="M382 875l-101 -473h-135l64 308h-93l17 83l14 4q48 14 82 31t67 43l5 4h80z" />
    <glyph glyph-name="ordmasculine" unicode="&#xba;" horiz-adv-x="449" 
d="M281 405q-59 0 -98 22.5t-57.5 58t-18.5 75.5q0 47 23.5 91t69 72.5t112.5 28.5q58 0 96.5 -22.5t57.5 -58.5t19 -77q0 -46 -23.5 -89.5t-69 -72t-111.5 -28.5zM285 513q27 0 43.5 24t16.5 57q0 20 -9.5 34.5t-31.5 14.5q-26 0 -42 -23.5t-16 -56.5q0 -19 9 -34.5
t30 -15.5z" />
    <glyph glyph-name="guillemotright" unicode="&#xbb;" horiz-adv-x="802" 
d="M330 80l272 234l-156 216h184l168 -225l-264 -225h-204zM3 80l272 234l-156 216h184l168 -225l-264 -225h-204z" />
    <glyph glyph-name="onequarter" unicode="&#xbc;" horiz-adv-x="907" 
d="M317 706l-74 -355h-117l47 220l-71 1l16 72l8 2q40 10 67.5 23.5t52.5 33.5l3 3h68zM135 0l568 700h136l-569 -700h-135zM756 1l14 67h-178l21 88l172 200h159l-43 -203h46l-18 -85h-47l-14 -67h-112zM722 153h66l23 104z" />
    <glyph glyph-name="onehalf" unicode="&#xbd;" horiz-adv-x="887" 
d="M317 706l-74 -355h-117l47 220l-71 1l16 72l8 2q40 10 67.5 23.5t52.5 33.5l3 3h68zM135 0l568 700h136l-569 -700h-135zM601 1l16 75l85 52q63 38 88 62.5t25 43.5q0 14 -9 23.5t-26 9.5q-18 0 -26 -9t-10 -18.5l-2 -9.5h-106l1.5 13t8 32.5t22.5 39.5t44 33t73 13
q71 0 107 -35t36 -82q0 -37 -20 -65t-49.5 -49t-60.5 -35h116l-19 -94h-294z" />
    <glyph glyph-name="threequarters" unicode="&#xbe;" horiz-adv-x="924" 
d="M232 346q-46 0 -74.5 11.5t-43.5 29t-20.5 35t-6 29l-0.5 11.5h103l2.5 -7t12 -14t31.5 -7q25 0 35 10t10 19q0 7 -7.5 15.5t-29.5 8.5h-49l18 83h51q22 0 29.5 10t7.5 18q0 9 -8.5 17.5t-27.5 8.5q-21 0 -31 -9t-13 -18l-3 -9h-98l2.5 12.5t10 31t24 36.5t44 30.5
t70.5 12.5q47 0 77 -15t45 -37t15 -45q0 -27 -20 -50.5t-55 -32.5v-4q28 -10 43 -29t15 -43q0 -25 -17 -50t-52 -42t-90 -17zM207 0l568 700h136l-569 -700h-135zM828 1l14 67h-178l21 88l172 200h159l-43 -203h46l-18 -85h-47l-14 -67h-112zM794 153h66l23 104z" />
    <glyph glyph-name="questiondown" unicode="&#xbf;" horiz-adv-x="662" 
d="M340 539q41 0 67.5 -28t26.5 -67t-26.5 -66.5t-67.5 -27.5q-40 0 -67 27.5t-27 66.5t27 67t67 28zM259 -222q-87 0 -148 31.5t-93 83.5t-32 112q0 54 22 90.5t55 61.5t67.5 44t61.5 37.5t36 42.5l5 14h186l-3 -22q-6 -46 -32 -75.5t-60 -50t-67 -38t-55 -38t-22 -50.5
q0 -34 25 -56t67 -22q38 0 59 15t30.5 34.5t12 34.5l2.5 15h184l-2.5 -19t-11 -49t-27.5 -64t-52.5 -64t-84 -49t-123.5 -19z" />
    <glyph glyph-name="Agrave" unicode="&#xc0;" horiz-adv-x="771" 
d="M428 809l-104 180h165l67 -179zM-43 0l403 740h259l89 -740h-190l-13 124h-273l-65 -124h-210zM318 288h171l-28 273z" />
    <glyph glyph-name="Aacute" unicode="&#xc1;" horiz-adv-x="771" 
d="M578 809l-133 1l77 179h170zM-43 0l403 740h259l89 -740h-190l-13 124h-273l-65 -124h-210zM318 288h171l-28 273z" />
    <glyph glyph-name="Acircumflex" unicode="&#xc2;" horiz-adv-x="771" 
d="M285 799l169 159h147l101 -159h-133l-50 85l-85 -85h-149zM-43 0l403 740h259l89 -740h-190l-13 124h-273l-65 -124h-210zM318 288h171l-28 273z" />
    <glyph glyph-name="Atilde" unicode="&#xc3;" horiz-adv-x="771" 
d="M593 822q-27 0 -47 9t-35 20.5t-28 20.5t-26 9q-26 0 -37 -53h-93q9 40 22 76t39 59.5t71 23.5q37 0 60.5 -14.5t41 -29.5t34.5 -15q14 0 22.5 13.5t14.5 39.5h93q-8 -39 -22 -75.5t-39.5 -60t-70.5 -23.5zM-43 0l403 740h259l89 -740h-190l-13 124h-273l-65 -124h-210z
M318 288h171l-28 273z" />
    <glyph glyph-name="Adieresis" unicode="&#xc4;" horiz-adv-x="771" 
d="M643 788q-45 0 -73.5 28.5t-28.5 68.5q0 41 28.5 69.5t73.5 28.5q44 0 73 -28.5t29 -69.5q0 -40 -29 -68.5t-73 -28.5zM393 788q-45 0 -73.5 28.5t-28.5 68.5q0 41 28.5 69.5t73.5 28.5q44 0 73 -28.5t29 -69.5q0 -40 -29 -68.5t-73 -28.5zM-43 0l403 740h259l89 -740
h-190l-13 124h-273l-65 -124h-210zM318 288h171l-28 273z" />
    <glyph glyph-name="Aring" unicode="&#xc5;" horiz-adv-x="771" 
d="M527 788q-39 0 -71 19t-51 51t-19 71t19 70.5t51 50.5t71 19t71 -19t51 -50.5t19 -70.5t-19 -71t-51 -51t-71 -19zM527 878q21 0 36 14.5t15 36.5q0 21 -15 35.5t-36 14.5t-36 -14.5t-15 -35.5q0 -22 15 -36.5t36 -14.5zM-43 0l403 740h259l89 -740h-190l-13 124h-273
l-65 -124h-210zM318 288h171l-28 273z" />
    <glyph glyph-name="AE" unicode="&#xc6;" horiz-adv-x="1027" 
d="M-41 0l463 740h661l-35 -166h-332l-26 -120h288l-34 -158h-287l-28 -130h337l-35 -166h-529l26 124h-184l-77 -124h-208zM345 285h117l61 285z" />
    <glyph glyph-name="Ccedilla" unicode="&#xc7;" horiz-adv-x="784" 
d="M290 -263q-34 0 -60.5 4l-26.5 4l14 96l13 -1.5t31 -3t31 -1.5q35 0 47 10.5t12 23.5q0 11 -9 19t-27 8q-17 0 -29.5 -6l-12.5 -6l-46 58l56 60q-77 19 -127.5 66.5t-75.5 112.5t-25 137q0 77 27 153.5t79.5 139.5t129 101t176.5 38q82 0 137.5 -20t90 -51.5t53.5 -67
t27 -67t9 -51.5l1 -20h-190l-2.5 16t-14.5 37.5t-40 37.5t-79 16t-90 -21.5t-65.5 -57.5t-40.5 -79.5t-14 -86.5q0 -46 16 -85.5t49.5 -64t84.5 -24.5q48 0 79 16t49 37t25.5 37l7.5 16h190l-5.5 -20t-19.5 -51.5t-40 -67t-66 -67t-97.5 -51.5t-135.5 -20l-21 -22v0
q50 0 81.5 -29.5t31.5 -71.5q0 -31 -19.5 -61t-61 -49.5t-107.5 -19.5z" />
    <glyph glyph-name="Egrave" unicode="&#xc8;" horiz-adv-x="636" 
d="M360 809l-104 180h165l67 -179zM2 0l157 740h524l-35 -166h-332l-26 -120h288l-34 -158h-287l-28 -130h337l-35 -166h-529z" />
    <glyph glyph-name="Eacute" unicode="&#xc9;" horiz-adv-x="636" 
d="M510 809l-133 1l77 179h170zM2 0l157 740h524l-35 -166h-332l-26 -120h288l-34 -158h-287l-28 -130h337l-35 -166h-529z" />
    <glyph glyph-name="Ecircumflex" unicode="&#xca;" horiz-adv-x="636" 
d="M217 799l169 159h147l101 -159h-133l-50 85l-85 -85h-149zM2 0l157 740h524l-35 -166h-332l-26 -120h288l-34 -158h-287l-28 -130h337l-35 -166h-529z" />
    <glyph glyph-name="Edieresis" unicode="&#xcb;" horiz-adv-x="636" 
d="M575 788q-45 0 -73.5 28.5t-28.5 68.5q0 41 28.5 69.5t73.5 28.5q44 0 73 -28.5t29 -69.5q0 -40 -29 -68.5t-73 -28.5zM325 788q-45 0 -73.5 28.5t-28.5 68.5q0 41 28.5 69.5t73.5 28.5q44 0 73 -28.5t29 -69.5q0 -40 -29 -68.5t-73 -28.5zM2 0l157 740h524l-35 -166
h-332l-26 -120h288l-34 -158h-287l-28 -130h337l-35 -166h-529z" />
    <glyph glyph-name="Igrave" unicode="&#xcc;" horiz-adv-x="311" 
d="M195 805l-104 180h165l67 -179zM2 0l157 740h192l-157 -740h-192z" />
    <glyph glyph-name="Iacute" unicode="&#xcd;" horiz-adv-x="311" 
d="M345 805l-133 1l77 179h170zM2 0l157 740h192l-157 -740h-192z" />
    <glyph glyph-name="Icircumflex" unicode="&#xce;" horiz-adv-x="311" 
d="M58 795l175 189h147l95 -189h-134l-45 102l-90 -102h-148zM2 0l157 740h192l-157 -740h-192z" />
    <glyph glyph-name="Idieresis" unicode="&#xcf;" horiz-adv-x="311" 
d="M410 784q-45 0 -73.5 28.5t-28.5 68.5q0 41 28.5 69.5t73.5 28.5q44 0 73 -28.5t29 -69.5q0 -40 -29 -68.5t-73 -28.5zM160 784q-45 0 -73.5 28.5t-28.5 68.5q0 41 28.5 69.5t73.5 28.5q44 0 73 -28.5t29 -69.5q0 -40 -29 -68.5t-73 -28.5zM2 0l157 740h192l-157 -740
h-192z" />
    <glyph glyph-name="Eth" unicode="&#xd0;" horiz-adv-x="780" 
d="M18 0l63 296h-92l32 148h91l63 296h245q88 0 153.5 -27t108.5 -73.5t64.5 -106t21.5 -123.5q0 -74 -28.5 -146.5t-84.5 -132t-139 -95.5t-193 -36h-305zM379 296h-106l-27 -125h94q59 0 104 20t75 53.5t45.5 74t15.5 80.5q0 45 -19 84.5t-57.5 64t-97.5 24.5h-75
l-27 -128h107z" />
    <glyph glyph-name="Ntilde" unicode="&#xd1;" horiz-adv-x="759" 
d="M581 822q-27 0 -47 9t-35 20.5t-28 20.5t-26 9q-26 0 -37 -53h-93q9 40 22 76t39 59.5t71 23.5q37 0 60.5 -14.5t41 -29.5t34.5 -15q14 0 22.5 13.5t14.5 39.5h93q-8 -39 -22 -75.5t-39.5 -60t-70.5 -23.5zM2 0l157 740h177l182 -420l89 420h192l-157 -740h-179l-184 400
l-85 -400h-192z" />
    <glyph glyph-name="Ograve" unicode="&#xd2;" horiz-adv-x="825" 
d="M425 809l-104 180h165l67 -179zM397 -10q-87 0 -151 27.5t-106 75t-62.5 108t-20.5 126.5q0 76 27 151t80 136.5t130.5 98.5t178.5 37q87 0 151 -27.5t106 -75t62.5 -108t20.5 -126.5q0 -76 -27 -151t-80 -136.5t-130.5 -98.5t-178.5 -37zM405 161q51 0 91 22t67 58.5
t41.5 80.5t14.5 87q0 45 -16.5 84t-50 62.5t-86.5 23.5q-51 0 -91 -22t-67 -58.5t-41.5 -80t-14.5 -87.5q0 -45 16.5 -83.5t50.5 -62.5t86 -24z" />
    <glyph glyph-name="Oacute" unicode="&#xd3;" horiz-adv-x="825" 
d="M575 809l-133 1l77 179h170zM397 -10q-87 0 -151 27.5t-106 75t-62.5 108t-20.5 126.5q0 76 27 151t80 136.5t130.5 98.5t178.5 37q87 0 151 -27.5t106 -75t62.5 -108t20.5 -126.5q0 -76 -27 -151t-80 -136.5t-130.5 -98.5t-178.5 -37zM405 161q51 0 91 22t67 58.5
t41.5 80.5t14.5 87q0 45 -16.5 84t-50 62.5t-86.5 23.5q-51 0 -91 -22t-67 -58.5t-41.5 -80t-14.5 -87.5q0 -45 16.5 -83.5t50.5 -62.5t86 -24z" />
    <glyph glyph-name="Ocircumflex" unicode="&#xd4;" horiz-adv-x="825" 
d="M282 799l169 159h147l101 -159h-133l-50 85l-85 -85h-149zM397 -10q-87 0 -151 27.5t-106 75t-62.5 108t-20.5 126.5q0 76 27 151t80 136.5t130.5 98.5t178.5 37q87 0 151 -27.5t106 -75t62.5 -108t20.5 -126.5q0 -76 -27 -151t-80 -136.5t-130.5 -98.5t-178.5 -37z
M405 161q51 0 91 22t67 58.5t41.5 80.5t14.5 87q0 45 -16.5 84t-50 62.5t-86.5 23.5q-51 0 -91 -22t-67 -58.5t-41.5 -80t-14.5 -87.5q0 -45 16.5 -83.5t50.5 -62.5t86 -24z" />
    <glyph glyph-name="Otilde" unicode="&#xd5;" horiz-adv-x="825" 
d="M590 822q-27 0 -47 9t-35 20.5t-28 20.5t-26 9q-26 0 -37 -53h-93q9 40 22 76t39 59.5t71 23.5q37 0 60.5 -14.5t41 -29.5t34.5 -15q14 0 22.5 13.5t14.5 39.5h93q-8 -39 -22 -75.5t-39.5 -60t-70.5 -23.5zM397 -10q-87 0 -151 27.5t-106 75t-62.5 108t-20.5 126.5
q0 76 27 151t80 136.5t130.5 98.5t178.5 37q87 0 151 -27.5t106 -75t62.5 -108t20.5 -126.5q0 -76 -27 -151t-80 -136.5t-130.5 -98.5t-178.5 -37zM405 161q51 0 91 22t67 58.5t41.5 80.5t14.5 87q0 45 -16.5 84t-50 62.5t-86.5 23.5q-51 0 -91 -22t-67 -58.5t-41.5 -80
t-14.5 -87.5q0 -45 16.5 -83.5t50.5 -62.5t86 -24z" />
    <glyph glyph-name="Odieresis" unicode="&#xd6;" horiz-adv-x="825" 
d="M640 788q-45 0 -73.5 28.5t-28.5 68.5q0 41 28.5 69.5t73.5 28.5q44 0 73 -28.5t29 -69.5q0 -40 -29 -68.5t-73 -28.5zM390 788q-45 0 -73.5 28.5t-28.5 68.5q0 41 28.5 69.5t73.5 28.5q44 0 73 -28.5t29 -69.5q0 -40 -29 -68.5t-73 -28.5zM397 -10q-87 0 -151 27.5
t-106 75t-62.5 108t-20.5 126.5q0 76 27 151t80 136.5t130.5 98.5t178.5 37q87 0 151 -27.5t106 -75t62.5 -108t20.5 -126.5q0 -76 -27 -151t-80 -136.5t-130.5 -98.5t-178.5 -37zM405 161q51 0 91 22t67 58.5t41.5 80.5t14.5 87q0 45 -16.5 84t-50 62.5t-86.5 23.5
q-51 0 -91 -22t-67 -58.5t-41.5 -80t-14.5 -87.5q0 -45 16.5 -83.5t50.5 -62.5t86 -24z" />
    <glyph glyph-name="multiply" unicode="&#xd7;" horiz-adv-x="618" 
d="M79 210l128 106l-76 97l128 114l80 -102l124 102l99 -113l-130 -107l77 -97l-128 -114l-81 102l-122 -101z" />
    <glyph glyph-name="Oslash" unicode="&#xd8;" horiz-adv-x="825" 
d="M9 -24l115 135q-34 45 -50.5 100.5t-16.5 114.5q0 76 27 151t80 136.5t130.5 98.5t178.5 37q49 0 90 -9t76 -26l41 49h181l-116 -136q35 -45 51.5 -100.5t16.5 -114.5q0 -76 -27 -151t-80 -136.5t-130.5 -98.5t-178.5 -37q-49 0 -90.5 9t-75.5 26l-41 -48h-181zM252 330
q0 -32 8 -60l256 301q-23 7 -50 7q-51 0 -91 -22t-67 -58.5t-41.5 -80t-14.5 -87.5zM405 160q51 0 91 22t67 58.5t41.5 80.5t14.5 87q0 33 -8 61l-258 -301q24 -8 52 -8z" />
    <glyph glyph-name="Ugrave" unicode="&#xd9;" horiz-adv-x="736" 
d="M408 809l-104 180h165l67 -179zM321 -10q-56 0 -109 18t-92 57t-54 102t4 153l89 420h192l-89 -420q-15 -71 9.5 -110.5t83.5 -39.5q58 0 90.5 38.5t48.5 111.5l89 420h192l-93 -440q-25 -119 -78 -187t-125.5 -95.5t-157.5 -27.5z" />
    <glyph glyph-name="Uacute" unicode="&#xda;" horiz-adv-x="736" 
d="M558 809l-133 1l77 179h170zM321 -10q-56 0 -109 18t-92 57t-54 102t4 153l89 420h192l-89 -420q-15 -71 9.5 -110.5t83.5 -39.5q58 0 90.5 38.5t48.5 111.5l89 420h192l-93 -440q-25 -119 -78 -187t-125.5 -95.5t-157.5 -27.5z" />
    <glyph glyph-name="Ucircumflex" unicode="&#xdb;" horiz-adv-x="736" 
d="M271 799l175 189h147l95 -189h-134l-45 102l-90 -102h-148zM321 -10q-56 0 -109 18t-92 57t-54 102t4 153l89 420h192l-89 -420q-15 -71 9.5 -110.5t83.5 -39.5q58 0 90.5 38.5t48.5 111.5l89 420h192l-93 -440q-25 -119 -78 -187t-125.5 -95.5t-157.5 -27.5z" />
    <glyph glyph-name="Udieresis" unicode="&#xdc;" horiz-adv-x="736" 
d="M623 788q-45 0 -73.5 28.5t-28.5 68.5q0 41 28.5 69.5t73.5 28.5q44 0 73 -28.5t29 -69.5q0 -40 -29 -68.5t-73 -28.5zM373 788q-45 0 -73.5 28.5t-28.5 68.5q0 41 28.5 69.5t73.5 28.5q44 0 73 -28.5t29 -69.5q0 -40 -29 -68.5t-73 -28.5zM321 -10q-56 0 -109 18t-92 57
t-54 102t4 153l89 420h192l-89 -420q-15 -71 9.5 -110.5t83.5 -39.5q58 0 90.5 38.5t48.5 111.5l89 420h192l-93 -440q-25 -119 -78 -187t-125.5 -95.5t-157.5 -27.5z" />
    <glyph glyph-name="Yacute" unicode="&#xdd;" horiz-adv-x="724" 
d="M565 809l-133 1l77 179h170zM221 0l52 248l-156 492h198l84 -297l209 297h223l-366 -493l-52 -247h-192z" />
    <glyph glyph-name="Thorn" unicode="&#xde;" horiz-adv-x="721" 
d="M2 0l157 740h192l-25 -119h114q89 0 147 -32.5t86 -84.5t28 -111q0 -49 -19.5 -97.5t-58 -88.5t-94.5 -63.5t-129 -23.5h-181l-25 -120h-192zM418 454h-128l-35 -168h153q48 0 74 29t26 62q0 30 -21.5 53.5t-68.5 23.5z" />
    <glyph glyph-name="germandbls" unicode="&#xdf;" horiz-adv-x="721" 
d="M448 770q88 0 149.5 -27.5t94 -73t32.5 -100.5q0 -46 -21.5 -82t-58 -61t-80.5 -38l-1 -7l17 -7t40 -25t40 -49t17 -79q0 -67 -39 -119t-109.5 -82t-163.5 -30q-27 0 -53.5 2t-44.5 4l-18 2l33 155l21.5 -3t46.5 -3q61 0 99.5 24t38.5 67q0 29 -23 50.5t-83 21.5h-40
l31 148h46q49 0 79 22.5t30 57.5q0 33 -24 54t-68 21q-59 0 -95 -38.5t-50 -103.5l-100 -471h-189l102 480q12 54 36 106t64.5 93.5t100.5 66t143 24.5z" />
    <glyph glyph-name="agrave" unicode="&#xe0;" horiz-adv-x="646" 
d="M320 599l-104 180h165l67 -179zM295 540q44 0 72 -12.5t44.5 -28.5t23 -28.5l6.5 -12.5h8l15 72h190l-110 -530h-190l12 58h-8l-7 -10.5t-23 -23.5t-43 -23.5t-67 -10.5q-65 0 -107.5 31t-63 82t-20.5 110q0 57 18 114.5t52.5 106t84.5 77.5t113 29zM341 389
q-38 0 -65.5 -23.5t-42 -58.5t-14.5 -70q0 -39 19.5 -67.5t61.5 -28.5q38 0 65.5 23.5t42 58.5t14.5 69q0 39 -19.5 68t-61.5 29z" />
    <glyph glyph-name="aacute" unicode="&#xe1;" horiz-adv-x="646" 
d="M470 599l-133 1l77 179h170zM295 540q44 0 72 -12.5t44.5 -28.5t23 -28.5l6.5 -12.5h8l15 72h190l-110 -530h-190l12 58h-8l-7 -10.5t-23 -23.5t-43 -23.5t-67 -10.5q-65 0 -107.5 31t-63 82t-20.5 110q0 57 18 114.5t52.5 106t84.5 77.5t113 29zM341 389
q-38 0 -65.5 -23.5t-42 -58.5t-14.5 -70q0 -39 19.5 -67.5t61.5 -28.5q38 0 65.5 23.5t42 58.5t14.5 69q0 39 -19.5 68t-61.5 29z" />
    <glyph glyph-name="acircumflex" unicode="&#xe2;" horiz-adv-x="646" 
d="M183 589l175 189h147l95 -189h-134l-45 102l-90 -102h-148zM295 540q44 0 72 -12.5t44.5 -28.5t23 -28.5l6.5 -12.5h8l15 72h190l-110 -530h-190l12 58h-8l-7 -10.5t-23 -23.5t-43 -23.5t-67 -10.5q-65 0 -107.5 31t-63 82t-20.5 110q0 57 18 114.5t52.5 106t84.5 77.5
t113 29zM341 389q-38 0 -65.5 -23.5t-42 -58.5t-14.5 -70q0 -39 19.5 -67.5t61.5 -28.5q38 0 65.5 23.5t42 58.5t14.5 69q0 39 -19.5 68t-61.5 29z" />
    <glyph glyph-name="atilde" unicode="&#xe3;" horiz-adv-x="646" 
d="M485 612q-27 0 -47 9t-35 20.5t-28 20.5t-26 9q-26 0 -37 -53h-93q9 40 22 76t39 59.5t71 23.5q37 0 60.5 -14.5t41 -29.5t34.5 -15q14 0 22.5 13.5t14.5 39.5h93q-8 -39 -22 -75.5t-39.5 -60t-70.5 -23.5zM295 540q44 0 72 -12.5t44.5 -28.5t23 -28.5l6.5 -12.5h8l15 72
h190l-110 -530h-190l12 58h-8l-7 -10.5t-23 -23.5t-43 -23.5t-67 -10.5q-65 0 -107.5 31t-63 82t-20.5 110q0 57 18 114.5t52.5 106t84.5 77.5t113 29zM341 389q-38 0 -65.5 -23.5t-42 -58.5t-14.5 -70q0 -39 19.5 -67.5t61.5 -28.5q38 0 65.5 23.5t42 58.5t14.5 69
q0 39 -19.5 68t-61.5 29z" />
    <glyph glyph-name="adieresis" unicode="&#xe4;" horiz-adv-x="646" 
d="M535 578q-45 0 -73.5 28.5t-28.5 68.5q0 41 28.5 69.5t73.5 28.5q44 0 73 -28.5t29 -69.5q0 -40 -29 -68.5t-73 -28.5zM285 578q-45 0 -73.5 28.5t-28.5 68.5q0 41 28.5 69.5t73.5 28.5q44 0 73 -28.5t29 -69.5q0 -40 -29 -68.5t-73 -28.5zM295 540q44 0 72 -12.5
t44.5 -28.5t23 -28.5l6.5 -12.5h8l15 72h190l-110 -530h-190l12 58h-8l-7 -10.5t-23 -23.5t-43 -23.5t-67 -10.5q-65 0 -107.5 31t-63 82t-20.5 110q0 57 18 114.5t52.5 106t84.5 77.5t113 29zM341 389q-38 0 -65.5 -23.5t-42 -58.5t-14.5 -70q0 -39 19.5 -67.5t61.5 -28.5
q38 0 65.5 23.5t42 58.5t14.5 69q0 39 -19.5 68t-61.5 29z" />
    <glyph glyph-name="aring" unicode="&#xe5;" horiz-adv-x="646" 
d="M419 578q-39 0 -71 19t-51 51t-19 71t19 70.5t51 50.5t71 19t71 -19t51 -50.5t19 -70.5t-19 -71t-51 -51t-71 -19zM419 668q21 0 36 14.5t15 36.5q0 21 -15 35.5t-36 14.5t-36 -14.5t-15 -35.5q0 -22 15 -36.5t36 -14.5zM295 540q44 0 72 -12.5t44.5 -28.5t23 -28.5
l6.5 -12.5h8l15 72h190l-110 -530h-190l12 58h-8l-7 -10.5t-23 -23.5t-43 -23.5t-67 -10.5q-65 0 -107.5 31t-63 82t-20.5 110q0 57 18 114.5t52.5 106t84.5 77.5t113 29zM341 389q-38 0 -65.5 -23.5t-42 -58.5t-14.5 -70q0 -39 19.5 -67.5t61.5 -28.5q38 0 65.5 23.5
t42 58.5t14.5 69q0 39 -19.5 68t-61.5 29z" />
    <glyph glyph-name="ae" unicode="&#xe6;" horiz-adv-x="942" 
d="M197 -10q-83 0 -134 39t-51 109t53.5 118.5t152.5 55.5l152 12l6 19q5 29 -12.5 46.5t-51.5 17.5q-31 0 -46 -11.5t-19.5 -23l-4.5 -11.5h-176l6 18t22 44.5t44 53.5t71.5 45t105.5 18q51 0 83.5 -11.5t50.5 -27t25 -27l7 -11.5h6l11 11.5t34 27t59 27t85 11.5
q71 0 119 -26.5t76 -70t36 -96.5t-1 -107l-4 -23h-358q2 -43 24 -67t61 -24q31 0 49 13t26 25.5l8 12.5h178l-7.5 -19t-25.5 -46.5t-49 -55.5t-77.5 -47t-111.5 -19q-58 0 -98.5 14.5t-65 33.5t-35.5 33.5l-11 14.5h-5l-11.5 -14.5t-36.5 -33.5t-64 -33.5t-95 -14.5z
M559 322h180q5 35 -15.5 58.5t-61.5 23.5q-39 0 -66 -23t-37 -59zM254 113q29 0 57 22t36 66l3 16l-91 -8q-28 -2 -43 -16t-15 -35q0 -23 16.5 -34t36.5 -11z" />
    <glyph glyph-name="ccedilla" unicode="&#xe7;" horiz-adv-x="618" 
d="M203 -263q-34 0 -60.5 4l-26.5 4l14 96l13 -1.5t31 -3t31 -1.5q35 0 47 10.5t12 23.5q0 11 -9 19t-27 8q-17 0 -29.5 -6l-12.5 -6l-46 58l59 63q-54 17 -89.5 52.5t-52.5 81.5t-17 96q0 55 20.5 109t60.5 98.5t100 71t139 26.5q73 0 119 -21.5t71.5 -53t35.5 -63.5
t12 -53.5l2 -21.5h-175l-1 10t-7 23t-20.5 23t-40.5 10q-39 0 -67 -24.5t-42.5 -61t-14.5 -72.5q0 -40 19 -69t60 -29q26 0 43.5 10t27.5 23t14 23l4 10h175l-6.5 -21.5t-23 -53t-47.5 -63.5t-79.5 -53.5t-119.5 -21.5l-21 -22v0q50 0 81.5 -29.5t31.5 -71.5
q0 -31 -19.5 -61t-61 -49.5t-107.5 -19.5z" />
    <glyph glyph-name="egrave" unicode="&#xe8;" horiz-adv-x="626" 
d="M302 599l-104 180h165l67 -179zM300 -10q-90 0 -147 35t-84.5 91.5t-27.5 119.5q0 55 19.5 109t59 98t97.5 70.5t135 26.5q75 0 125 -26.5t78 -70t36 -96.5t-1 -107l-4 -23h-358q2 -43 24 -67t61 -24q31 0 49 13t26 25.5l8 12.5h178l-7.5 -19t-25 -46.5t-49 -55.5
t-78.5 -47t-114 -19zM243 322h180q5 35 -15.5 58.5t-61.5 23.5q-39 0 -66 -23t-37 -59z" />
    <glyph glyph-name="eacute" unicode="&#xe9;" horiz-adv-x="626" 
d="M452 599l-133 1l77 179h170zM300 -10q-90 0 -147 35t-84.5 91.5t-27.5 119.5q0 55 19.5 109t59 98t97.5 70.5t135 26.5q75 0 125 -26.5t78 -70t36 -96.5t-1 -107l-4 -23h-358q2 -43 24 -67t61 -24q31 0 49 13t26 25.5l8 12.5h178l-7.5 -19t-25 -46.5t-49 -55.5t-78.5 -47
t-114 -19zM243 322h180q5 35 -15.5 58.5t-61.5 23.5q-39 0 -66 -23t-37 -59z" />
    <glyph glyph-name="ecircumflex" unicode="&#xea;" horiz-adv-x="626" 
d="M165 589l175 189h147l95 -189h-134l-45 102l-90 -102h-148zM300 -10q-90 0 -147 35t-84.5 91.5t-27.5 119.5q0 55 19.5 109t59 98t97.5 70.5t135 26.5q75 0 125 -26.5t78 -70t36 -96.5t-1 -107l-4 -23h-358q2 -43 24 -67t61 -24q31 0 49 13t26 25.5l8 12.5h178l-7.5 -19
t-25 -46.5t-49 -55.5t-78.5 -47t-114 -19zM243 322h180q5 35 -15.5 58.5t-61.5 23.5q-39 0 -66 -23t-37 -59z" />
    <glyph glyph-name="edieresis" unicode="&#xeb;" horiz-adv-x="626" 
d="M517 578q-45 0 -73.5 28.5t-28.5 68.5q0 41 28.5 69.5t73.5 28.5q44 0 73 -28.5t29 -69.5q0 -40 -29 -68.5t-73 -28.5zM267 578q-45 0 -73.5 28.5t-28.5 68.5q0 41 28.5 69.5t73.5 28.5q44 0 73 -28.5t29 -69.5q0 -40 -29 -68.5t-73 -28.5zM300 -10q-90 0 -147 35
t-84.5 91.5t-27.5 119.5q0 55 19.5 109t59 98t97.5 70.5t135 26.5q75 0 125 -26.5t78 -70t36 -96.5t-1 -107l-4 -23h-358q2 -43 24 -67t61 -24q31 0 49 13t26 25.5l8 12.5h178l-7.5 -19t-25 -46.5t-49 -55.5t-78.5 -47t-114 -19zM243 322h180q5 35 -15.5 58.5t-61.5 23.5
q-39 0 -66 -23t-37 -59z" />
    <glyph glyph-name="igrave" unicode="&#xec;" horiz-adv-x="320" 
d="M154 599l-104 180h165l67 -179zM5 0l113 530h190l-113 -530h-190z" />
    <glyph glyph-name="iacute" unicode="&#xed;" horiz-adv-x="320" 
d="M304 599l-133 1l77 179h170zM5 0l113 530h190l-113 -530h-190z" />
    <glyph glyph-name="icircumflex" unicode="&#xee;" horiz-adv-x="320" 
d="M17 589l175 189h147l95 -189h-134l-45 102l-90 -102h-148zM5 0l113 530h190l-113 -530h-190z" />
    <glyph glyph-name="idieresis" unicode="&#xef;" horiz-adv-x="320" 
d="M369 578q-45 0 -73.5 28.5t-28.5 68.5q0 41 28.5 69.5t73.5 28.5q44 0 73 -28.5t29 -69.5q0 -40 -29 -68.5t-73 -28.5zM119 578q-45 0 -73.5 28.5t-28.5 68.5q0 41 28.5 69.5t73.5 28.5q44 0 73 -28.5t29 -69.5q0 -40 -29 -68.5t-73 -28.5zM5 0l113 530h190l-113 -530
h-190z" />
    <glyph glyph-name="eth" unicode="&#xf0;" horiz-adv-x="661" 
d="M314 -10q-93 0 -153 36.5t-89.5 94t-29.5 121.5q0 52 18.5 102t54.5 90.5t88.5 64.5t120.5 24q50 0 82.5 -12t50.5 -27q-19 37 -50.5 70.5t-67.5 61.5l-149 -78l-31 119l66 35q-30 17 -49 26l-19 9l76 124l21 -8t56 -24.5t76 -42.5l151 80l31 -119l-78 -41
q41 -38 75.5 -87t55 -109.5t20.5 -133.5q0 -74 -20.5 -141.5t-61.5 -120.5t-102.5 -83.5t-142.5 -30.5zM318 141q37 0 62.5 21.5t38.5 54t13 66.5q0 41 -21 73.5t-65 32.5q-36 0 -61.5 -22t-39 -55t-13.5 -67q0 -41 21 -72.5t65 -31.5z" />
    <glyph glyph-name="ntilde" unicode="&#xf1;" horiz-adv-x="618" 
d="M473 612q-27 0 -47 9t-35 20.5t-28 20.5t-26 9q-26 0 -37 -53h-93q9 40 22 76t39 59.5t71 23.5q37 0 60.5 -14.5t41 -29.5t34.5 -15q14 0 22.5 13.5t14.5 39.5h93q-8 -39 -22 -75.5t-39.5 -60t-70.5 -23.5zM-3 0l113 530h190l-16 -75h5l8 13t26 29.5t47 29.5t71 13
q58 0 93.5 -27.5t48.5 -73t1 -100.5l-72 -339h-190l64 299q8 36 -3 62t-46 26q-36 0 -57 -26t-29 -62l-64 -299h-190z" />
    <glyph glyph-name="ograve" unicode="&#xf2;" horiz-adv-x="650" 
d="M310 599l-104 180h165l67 -179zM303 -10q-90 0 -148 35t-86.5 91t-28.5 119q0 55 20.5 109t60.5 98.5t99.5 71t136.5 26.5q89 0 147.5 -35t87 -90.5t28.5 -119.5q0 -55 -21 -109t-61 -98.5t-99 -71t-136 -26.5zM310 142q36 0 62 21.5t40 56t14 73.5q0 38 -19 66.5
t-60 28.5q-35 0 -61.5 -21.5t-40.5 -56t-14 -73.5q0 -38 19 -66.5t60 -28.5z" />
    <glyph glyph-name="oacute" unicode="&#xf3;" horiz-adv-x="650" 
d="M460 599l-133 1l77 179h170zM303 -10q-90 0 -148 35t-86.5 91t-28.5 119q0 55 20.5 109t60.5 98.5t99.5 71t136.5 26.5q89 0 147.5 -35t87 -90.5t28.5 -119.5q0 -55 -21 -109t-61 -98.5t-99 -71t-136 -26.5zM310 142q36 0 62 21.5t40 56t14 73.5q0 38 -19 66.5t-60 28.5
q-35 0 -61.5 -21.5t-40.5 -56t-14 -73.5q0 -38 19 -66.5t60 -28.5z" />
    <glyph glyph-name="ocircumflex" unicode="&#xf4;" horiz-adv-x="650" 
d="M173 589l175 189h147l95 -189h-134l-45 102l-90 -102h-148zM303 -10q-90 0 -148 35t-86.5 91t-28.5 119q0 55 20.5 109t60.5 98.5t99.5 71t136.5 26.5q89 0 147.5 -35t87 -90.5t28.5 -119.5q0 -55 -21 -109t-61 -98.5t-99 -71t-136 -26.5zM310 142q36 0 62 21.5t40 56
t14 73.5q0 38 -19 66.5t-60 28.5q-35 0 -61.5 -21.5t-40.5 -56t-14 -73.5q0 -38 19 -66.5t60 -28.5z" />
    <glyph glyph-name="otilde" unicode="&#xf5;" horiz-adv-x="650" 
d="M475 612q-27 0 -47 9t-35 20.5t-28 20.5t-26 9q-26 0 -37 -53h-93q9 40 22 76t39 59.5t71 23.5q37 0 60.5 -14.5t41 -29.5t34.5 -15q14 0 22.5 13.5t14.5 39.5h93q-8 -39 -22 -75.5t-39.5 -60t-70.5 -23.5zM303 -10q-90 0 -148 35t-86.5 91t-28.5 119q0 55 20.5 109
t60.5 98.5t99.5 71t136.5 26.5q89 0 147.5 -35t87 -90.5t28.5 -119.5q0 -55 -21 -109t-61 -98.5t-99 -71t-136 -26.5zM310 142q36 0 62 21.5t40 56t14 73.5q0 38 -19 66.5t-60 28.5q-35 0 -61.5 -21.5t-40.5 -56t-14 -73.5q0 -38 19 -66.5t60 -28.5z" />
    <glyph glyph-name="odieresis" unicode="&#xf6;" horiz-adv-x="650" 
d="M525 578q-45 0 -73.5 28.5t-28.5 68.5q0 41 28.5 69.5t73.5 28.5q44 0 73 -28.5t29 -69.5q0 -40 -29 -68.5t-73 -28.5zM275 578q-45 0 -73.5 28.5t-28.5 68.5q0 41 28.5 69.5t73.5 28.5q44 0 73 -28.5t29 -69.5q0 -40 -29 -68.5t-73 -28.5zM303 -10q-90 0 -148 35
t-86.5 91t-28.5 119q0 55 20.5 109t60.5 98.5t99.5 71t136.5 26.5q89 0 147.5 -35t87 -90.5t28.5 -119.5q0 -55 -21 -109t-61 -98.5t-99 -71t-136 -26.5zM310 142q36 0 62 21.5t40 56t14 73.5q0 38 -19 66.5t-60 28.5q-35 0 -61.5 -21.5t-40.5 -56t-14 -73.5q0 -38 19 -66.5
t60 -28.5z" />
    <glyph glyph-name="divide" unicode="&#xf7;" horiz-adv-x="697" 
d="M412 472q-43 0 -71 29.5t-28 69.5q0 41 28 70t71 29t71 -29t28 -70q0 -40 -28 -69.5t-71 -29.5zM95 286l28 131h518l-28 -131h-518zM324 33q-43 0 -71 29.5t-28 69.5q0 41 28 70t71 29t71 -29t28 -70q0 -40 -28 -69.5t-71 -29.5z" />
    <glyph glyph-name="oslash" unicode="&#xf8;" horiz-adv-x="650" 
d="M87 -37l45 77q-47 35 -69.5 86.5t-22.5 108.5q0 55 20.5 109t60.5 98.5t99.5 71t136.5 26.5q32 0 61 -5l18 32h127l-42 -73q50 -34 74.5 -87t24.5 -112q0 -55 -21 -109t-61 -98.5t-99 -71t-136 -26.5q-37 0 -70 7l-19 -34h-127zM231 237q0 -12 2 -22l99 172
q-31 -5 -53.5 -27t-35 -54.5t-12.5 -68.5zM426 293q0 17 -3 31l-105 -182q33 3 57.5 24.5t37.5 55t13 71.5z" />
    <glyph glyph-name="ugrave" unicode="&#xf9;" horiz-adv-x="609" 
d="M304 599l-104 180h165l67 -179zM159 -10q-75 0 -107.5 56.5t-12.5 150.5l71 333h190l-66 -311q-7 -36 4.5 -56t42.5 -20q32 0 51.5 21t26.5 55l66 311h190l-112 -530h-190l15 75h-6q-30 -40 -71.5 -62.5t-91.5 -22.5z" />
    <glyph glyph-name="uacute" unicode="&#xfa;" horiz-adv-x="609" 
d="M454 599l-133 1l77 179h170zM159 -10q-75 0 -107.5 56.5t-12.5 150.5l71 333h190l-66 -311q-7 -36 4.5 -56t42.5 -20q32 0 51.5 21t26.5 55l66 311h190l-112 -530h-190l15 75h-6q-30 -40 -71.5 -62.5t-91.5 -22.5z" />
    <glyph glyph-name="ucircumflex" unicode="&#xfb;" horiz-adv-x="609" 
d="M167 589l175 189h147l95 -189h-134l-45 102l-90 -102h-148zM159 -10q-75 0 -107.5 56.5t-12.5 150.5l71 333h190l-66 -311q-7 -36 4.5 -56t42.5 -20q32 0 51.5 21t26.5 55l66 311h190l-112 -530h-190l15 75h-6q-30 -40 -71.5 -62.5t-91.5 -22.5z" />
    <glyph glyph-name="udieresis" unicode="&#xfc;" horiz-adv-x="609" 
d="M519 578q-45 0 -73.5 28.5t-28.5 68.5q0 41 28.5 69.5t73.5 28.5q44 0 73 -28.5t29 -69.5q0 -40 -29 -68.5t-73 -28.5zM269 578q-45 0 -73.5 28.5t-28.5 68.5q0 41 28.5 69.5t73.5 28.5q44 0 73 -28.5t29 -69.5q0 -40 -29 -68.5t-73 -28.5zM159 -10q-75 0 -107.5 56.5
t-12.5 150.5l71 333h190l-66 -311q-7 -36 4.5 -56t42.5 -20q32 0 51.5 21t26.5 55l66 311h190l-112 -530h-190l15 75h-6q-30 -40 -71.5 -62.5t-91.5 -22.5z" />
    <glyph glyph-name="yacute" unicode="&#xfd;" horiz-adv-x="618" 
d="M450 599l-133 1l77 179h170zM15 -195q-29 0 -43 2l-14 2l32 156l10 -1t27 -1q34 0 64 7.5t60 39.5l-75 520h178l34 -320l166 320h198l-284 -495q-44 -76 -92.5 -127.5t-111.5 -77t-149 -25.5z" />
    <glyph glyph-name="thorn" unicode="&#xfe;" horiz-adv-x="659" 
d="M-35 -195l40 195v0l72 345l38 185v0l48 230h190l-60 -288h8l7 10.5t23 23.5t43 23.5t67 10.5q66 0 108 -31t62.5 -82t20.5 -110q0 -57 -18 -114.5t-52.5 -106t-84.5 -77.5t-113 -29q-43 0 -71.5 12.5t-45 28.5t-23 28.5l-6.5 12.5h-8l-55 -267h-190zM237 238
q0 -39 19.5 -68t61.5 -29q38 0 65.5 23.5t42 59t14.5 69.5q0 39 -19.5 67.5t-61.5 28.5q-38 0 -65.5 -23.5t-42 -58t-14.5 -69.5z" />
    <glyph glyph-name="ydieresis" unicode="&#xff;" horiz-adv-x="618" 
d="M515 578q-45 0 -73.5 28.5t-28.5 68.5q0 41 28.5 69.5t73.5 28.5q44 0 73 -28.5t29 -69.5q0 -40 -29 -68.5t-73 -28.5zM265 578q-45 0 -73.5 28.5t-28.5 68.5q0 41 28.5 69.5t73.5 28.5q44 0 73 -28.5t29 -69.5q0 -40 -29 -68.5t-73 -28.5zM15 -195q-29 0 -43 2l-14 2
l32 156l10 -1t27 -1q34 0 64 7.5t60 39.5l-75 520h178l34 -320l166 320h198l-284 -495q-44 -76 -92.5 -127.5t-111.5 -77t-149 -25.5z" />
    <glyph glyph-name="Amacron" unicode="&#x100;" horiz-adv-x="771" 
d="M333 823l22 102h340l-22 -102h-340zM-43 0l403 740h259l89 -740h-190l-13 124h-273l-65 -124h-210zM318 288h171l-28 273z" />
    <glyph glyph-name="amacron" unicode="&#x101;" horiz-adv-x="646" 
d="M235 653l22 102h340l-22 -102h-340zM295 540q44 0 72 -12.5t44.5 -28.5t23 -28.5l6.5 -12.5h8l15 72h190l-110 -530h-190l12 58h-8l-7 -10.5t-23 -23.5t-43 -23.5t-67 -10.5q-65 0 -107.5 31t-63 82t-20.5 110q0 57 18 114.5t52.5 106t84.5 77.5t113 29zM341 389
q-38 0 -65.5 -23.5t-42 -58.5t-14.5 -70q0 -39 19.5 -67.5t61.5 -28.5q38 0 65.5 23.5t42 58.5t14.5 69q0 39 -19.5 68t-61.5 29z" />
    <glyph glyph-name="Abreve" unicode="&#x102;" horiz-adv-x="771" 
d="M520 802q-58 0 -93.5 17t-54 41.5t-25 49t-6.5 41.5v17h119l-0.5 -9.5t4 -22.5t17.5 -22.5t40 -9.5q28 0 45.5 9.5t27 22.5t13 22.5l3.5 9.5h119l-3.5 -17t-14 -41.5t-33.5 -49t-61 -41.5t-97 -17zM-43 0l403 740h259l89 -740h-190l-13 124h-273l-65 -124h-210zM318 288
h171l-28 273z" />
    <glyph glyph-name="abreve" unicode="&#x103;" horiz-adv-x="646" 
d="M407 592q-60 0 -95 19t-51 46.5t-20.5 55t-3.5 46.5l1 19h119l-1 -12t2.5 -28.5t16 -28.5t40.5 -12q27 0 45 12t28.5 28.5t14.5 28.5l4 12h119l-4 -19t-15.5 -46.5t-35.5 -55t-64 -46.5t-100 -19zM295 540q44 0 72 -12.5t44.5 -28.5t23 -28.5l6.5 -12.5h8l15 72h190
l-110 -530h-190l12 58h-8l-7 -10.5t-23 -23.5t-43 -23.5t-67 -10.5q-65 0 -107.5 31t-63 82t-20.5 110q0 57 18 114.5t52.5 106t84.5 77.5t113 29zM341 389q-38 0 -65.5 -23.5t-42 -58.5t-14.5 -70q0 -39 19.5 -67.5t61.5 -28.5q38 0 65.5 23.5t42 58.5t14.5 69
q0 39 -19.5 68t-61.5 29z" />
    <glyph glyph-name="Aogonek" unicode="&#x104;" horiz-adv-x="771" 
d="M-43 0l403 740h259l89 -740l-15.5 -7.5t-31 -21t-15.5 -31.5q0 -13 10.5 -21.5t35.5 -8.5q11 0 21.5 1.5l10.5 1.5l-21 -102l-15.5 -2.5t-41.5 -2.5q-72 0 -105.5 27t-33.5 68q0 36 21 60t47 39h-57l-13 124h-273l-65 -124h-210zM318 288h171l-28 273z" />
    <glyph glyph-name="aogonek" unicode="&#x105;" horiz-adv-x="646" 
d="M482 -194q-72 0 -105.5 27t-33.5 68q0 36 21 60t47 39h-57l12 58h-8l-7 -10.5t-23 -23.5t-43 -23.5t-67 -10.5q-65 0 -107.5 31t-63 82t-20.5 110q0 57 18 114.5t52.5 106t84.5 77.5t113 29q44 0 72 -12.5t44.5 -28.5t23 -28.5l6.5 -12.5h8l15 72h190l-110 -530
l-15.5 -7.5t-31 -21t-15.5 -31.5q0 -13 10.5 -21.5t35.5 -8.5q11 0 21.5 1.5l10.5 1.5l-21 -102l-15.5 -2.5t-41.5 -2.5zM341 389q-38 0 -65.5 -23.5t-42 -58.5t-14.5 -70q0 -39 19.5 -67.5t61.5 -28.5q38 0 65.5 23.5t42 58.5t14.5 69q0 39 -19.5 68t-61.5 29z" />
    <glyph glyph-name="Cacute" unicode="&#x106;" horiz-adv-x="784" 
d="M598 807l-133 1l77 179h170zM381 -10q-83 0 -144.5 27t-101.5 73t-60 105t-20 123q0 77 27 153.5t79.5 139.5t129 101t176.5 38q82 0 137.5 -20t90 -51.5t53.5 -67t27 -67t9 -51.5l1 -20h-190l-2.5 16t-14.5 37.5t-40 37.5t-79 16t-90 -21.5t-65.5 -57.5t-40.5 -79.5
t-14 -86.5q0 -46 16 -85.5t49.5 -64t84.5 -24.5q48 0 79 16t49 37t25.5 37l7.5 16h190l-5.5 -20t-20 -51.5t-40.5 -67t-66.5 -67t-99 -51.5t-137.5 -20z" />
    <glyph glyph-name="cacute" unicode="&#x107;" horiz-adv-x="618" 
d="M479 599l-133 1l77 179h170zM298 -10q-88 0 -145.5 35t-85 91t-27.5 119q0 55 20.5 109t60.5 98.5t100 71t139 26.5q73 0 119 -21.5t71.5 -53t35.5 -63.5t12 -53.5l2 -21.5h-175l-1 10t-7 23t-20.5 23t-40.5 10q-39 0 -67 -24.5t-42.5 -61t-14.5 -72.5q0 -40 19 -69
t60 -29q26 0 43.5 10t27.5 23t14 23l4 10h175l-6.5 -21.5t-23 -53t-47.5 -63.5t-80 -53.5t-120 -21.5z" />
    <glyph glyph-name="Cdotaccent" unicode="&#x10a;" horiz-adv-x="784" 
d="M540 791q-47 0 -77.5 30.5t-30.5 72.5q0 44 30.5 74t77.5 30t78 -30t31 -74q0 -42 -31 -72.5t-78 -30.5zM381 -10q-83 0 -144.5 27t-101.5 73t-60 105t-20 123q0 77 27 153.5t79.5 139.5t129 101t176.5 38q82 0 137.5 -20t90 -51.5t53.5 -67t27 -67t9 -51.5l1 -20h-190
l-2.5 16t-14.5 37.5t-40 37.5t-79 16t-90 -21.5t-65.5 -57.5t-40.5 -79.5t-14 -86.5q0 -46 16 -85.5t49.5 -64t84.5 -24.5q48 0 79 16t49 37t25.5 37l7.5 16h190l-5.5 -20t-20 -51.5t-40.5 -67t-66.5 -67t-99 -51.5t-137.5 -20z" />
    <glyph glyph-name="cdotaccent" unicode="&#x10b;" horiz-adv-x="618" 
d="M421 583q-47 0 -77.5 30.5t-30.5 72.5q0 44 30.5 74t77.5 30t78 -30t31 -74q0 -42 -31 -72.5t-78 -30.5zM298 -10q-88 0 -145.5 35t-85 91t-27.5 119q0 55 20.5 109t60.5 98.5t100 71t139 26.5q73 0 119 -21.5t71.5 -53t35.5 -63.5t12 -53.5l2 -21.5h-175l-1 10t-7 23
t-20.5 23t-40.5 10q-39 0 -67 -24.5t-42.5 -61t-14.5 -72.5q0 -40 19 -69t60 -29q26 0 43.5 10t27.5 23t14 23l4 10h175l-6.5 -21.5t-23 -53t-47.5 -63.5t-80 -53.5t-120 -21.5z" />
    <glyph glyph-name="Ccaron" unicode="&#x10c;" horiz-adv-x="784" 
d="M450 798l-95 189h134l45 -102l90 102h148l-175 -189h-147zM381 -10q-83 0 -144.5 27t-101.5 73t-60 105t-20 123q0 77 27 153.5t79.5 139.5t129 101t176.5 38q82 0 137.5 -20t90 -51.5t53.5 -67t27 -67t9 -51.5l1 -20h-190l-2.5 16t-14.5 37.5t-40 37.5t-79 16t-90 -21.5
t-65.5 -57.5t-40.5 -79.5t-14 -86.5q0 -46 16 -85.5t49.5 -64t84.5 -24.5q48 0 79 16t49 37t25.5 37l7.5 16h190l-5.5 -20t-20 -51.5t-40.5 -67t-66.5 -67t-99 -51.5t-137.5 -20z" />
    <glyph glyph-name="ccaron" unicode="&#x10d;" horiz-adv-x="618" 
d="M331 590l-95 189h134l45 -102l90 102h148l-175 -189h-147zM298 -10q-88 0 -145.5 35t-85 91t-27.5 119q0 55 20.5 109t60.5 98.5t100 71t139 26.5q73 0 119 -21.5t71.5 -53t35.5 -63.5t12 -53.5l2 -21.5h-175l-1 10t-7 23t-20.5 23t-40.5 10q-39 0 -67 -24.5t-42.5 -61
t-14.5 -72.5q0 -40 19 -69t60 -29q26 0 43.5 10t27.5 23t14 23l4 10h175l-6.5 -21.5t-23 -53t-47.5 -63.5t-80 -53.5t-120 -21.5z" />
    <glyph glyph-name="Dcaron" unicode="&#x10e;" horiz-adv-x="764" 
d="M387 800l-95 189h134l45 -102l90 102h148l-175 -189h-147zM2 0l157 740h245q88 0 153.5 -27t108.5 -73.5t64.5 -106t21.5 -123.5q0 -74 -28.5 -146.5t-84.5 -132t-139 -95.5t-193 -36h-305zM390 572h-75l-85 -401h94q59 0 104 20t75 53.5t45.5 74t15.5 80.5
q0 45 -19 84.5t-57.5 64t-97.5 24.5z" />
    <glyph glyph-name="dcaron" unicode="&#x10f;" horiz-adv-x="792" 
d="M228 -10q-65 0 -107.5 31t-63 82t-20.5 110q0 57 18 114.5t52.5 106t84.5 77.5t113 29q44 0 72 -12.5t44.5 -28.5t23 -28.5l6.5 -12.5h8l63 302h190l-158 -760h-190l12 58h-8l-7 -10.5t-23 -23.5t-43 -23.5t-67 -10.5zM733 522l61 238h162l-112 -238h-111zM310 141
q38 0 65.5 23.5t42 58.5t14.5 69q0 39 -19.5 68t-61.5 29q-38 0 -65.5 -23.5t-42 -58.5t-14.5 -70q0 -39 19.5 -67.5t61.5 -28.5z" />
    <glyph glyph-name="Dcroat" unicode="&#x110;" horiz-adv-x="780" 
d="M18 0l63 296h-92l32 148h91l63 296h245q88 0 153.5 -27t108.5 -73.5t64.5 -106t21.5 -123.5q0 -74 -28.5 -146.5t-84.5 -132t-139 -95.5t-193 -36h-305zM379 296h-106l-27 -125h94q59 0 104 20t75 53.5t45.5 74t15.5 80.5q0 45 -19 84.5t-57.5 64t-97.5 24.5h-75
l-27 -128h107z" />
    <glyph glyph-name="dcroat" unicode="&#x111;" horiz-adv-x="696" 
d="M228 -10q-65 0 -107.5 31t-63 82t-20.5 110q0 57 18 114.5t52.5 106t84.5 77.5t113 29q44 0 72 -12.5t44.5 -28.5t23 -28.5l6.5 -12.5h8l22 107h-118l24 115h118l17 80h190l-17 -80h82l-24 -115h-82l-117 -565h-190l12 58h-8l-7 -10.5t-23 -23.5t-43 -23.5t-67 -10.5z
M310 141q38 0 65.5 23.5t42 58.5t14.5 69q0 39 -19.5 68t-61.5 29q-38 0 -65.5 -23.5t-42 -58.5t-14.5 -70q0 -39 19.5 -67.5t61.5 -28.5z" />
    <glyph glyph-name="Emacron" unicode="&#x112;" horiz-adv-x="636" 
d="M265 823l22 102h340l-22 -102h-340zM2 0l157 740h524l-35 -166h-332l-26 -120h288l-34 -158h-287l-28 -130h337l-35 -166h-529z" />
    <glyph glyph-name="emacron" unicode="&#x113;" horiz-adv-x="626" 
d="M217 653l22 102h340l-22 -102h-340zM300 -10q-90 0 -147 35t-84.5 91.5t-27.5 119.5q0 55 19.5 109t59 98t97.5 70.5t135 26.5q75 0 125 -26.5t78 -70t36 -96.5t-1 -107l-4 -23h-358q2 -43 24 -67t61 -24q31 0 49 13t26 25.5l8 12.5h178l-7.5 -19t-25 -46.5t-49 -55.5
t-78.5 -47t-114 -19zM243 322h180q5 35 -15.5 58.5t-61.5 23.5q-39 0 -66 -23t-37 -59z" />
    <glyph glyph-name="Edotaccent" unicode="&#x116;" horiz-adv-x="636" 
d="M452 793q-47 0 -77.5 30.5t-30.5 72.5q0 44 30.5 74t77.5 30t78 -30t31 -74q0 -42 -31 -72.5t-78 -30.5zM2 0l157 740h524l-35 -166h-332l-26 -120h288l-34 -158h-287l-28 -130h337l-35 -166h-529z" />
    <glyph glyph-name="edotaccent" unicode="&#x117;" horiz-adv-x="626" 
d="M394 583q-47 0 -77.5 30.5t-30.5 72.5q0 44 30.5 74t77.5 30t78 -30t31 -74q0 -42 -31 -72.5t-78 -30.5zM300 -10q-90 0 -147 35t-84.5 91.5t-27.5 119.5q0 55 19.5 109t59 98t97.5 70.5t135 26.5q75 0 125 -26.5t78 -70t36 -96.5t-1 -107l-4 -23h-358q2 -43 24 -67
t61 -24q31 0 49 13t26 25.5l8 12.5h178l-7.5 -19t-25 -46.5t-49 -55.5t-78.5 -47t-114 -19zM243 322h180q5 35 -15.5 58.5t-61.5 23.5q-39 0 -66 -23t-37 -59z" />
    <glyph glyph-name="Eogonek" unicode="&#x118;" horiz-adv-x="636" 
d="M2 0l157 740h524l-35 -166h-332l-26 -120h288l-34 -158h-287l-28 -130h337l-35 -166l-15.5 -7.5t-31 -21t-15.5 -31.5q0 -13 10.5 -21.5t35.5 -8.5q11 0 21.5 1.5l10.5 1.5l-21 -102l-15.5 -2.5t-41.5 -2.5q-72 0 -105.5 27t-33.5 68q0 36 21 60t47 39h-396z" />
    <glyph glyph-name="eogonek" unicode="&#x119;" horiz-adv-x="626" 
d="M351 -184q-72 0 -105.5 27t-33.5 68q0 27 12 47t30 35q-74 9 -121 45t-69.5 88t-22.5 110q0 55 19.5 109t59 98t97.5 70.5t135 26.5q75 0 125 -26.5t78 -70t36 -96.5t-1 -107l-4 -23h-358q2 -43 24 -67t61 -24q31 0 49 13t26 25.5l8 12.5h178l-8 -20t-26.5 -49t-52 -57
t-83.5 -45q-9 -4 -21.5 -12t-22 -19t-9.5 -25q0 -13 10.5 -21.5t35.5 -8.5q11 0 21.5 1.5l10.5 1.5l-21 -102l-15.5 -2.5t-41.5 -2.5zM243 322h180q5 35 -15.5 58.5t-61.5 23.5q-39 0 -66 -23t-37 -59z" />
    <glyph glyph-name="Ecaron" unicode="&#x11a;" horiz-adv-x="636" 
d="M362 800l-95 189h134l45 -102l90 102h148l-175 -189h-147zM2 0l157 740h524l-35 -166h-332l-26 -120h288l-34 -158h-287l-28 -130h337l-35 -166h-529z" />
    <glyph glyph-name="ecaron" unicode="&#x11b;" horiz-adv-x="626" 
d="M304 590l-95 189h134l45 -102l90 102h148l-175 -189h-147zM300 -10q-90 0 -147 35t-84.5 91.5t-27.5 119.5q0 55 19.5 109t59 98t97.5 70.5t135 26.5q75 0 125 -26.5t78 -70t36 -96.5t-1 -107l-4 -23h-358q2 -43 24 -67t61 -24q31 0 49 13t26 25.5l8 12.5h178l-7.5 -19
t-25 -46.5t-49 -55.5t-78.5 -47t-114 -19zM243 322h180q5 35 -15.5 58.5t-61.5 23.5q-39 0 -66 -23t-37 -59z" />
    <glyph glyph-name="Gbreve" unicode="&#x11e;" horiz-adv-x="791" 
d="M515 802q-60 0 -95 19t-51.5 46.5t-20.5 55t-3 46.5l1 19h119l-1 -12t2.5 -28.5t16 -28.5t40.5 -12q27 0 45 12t28.5 28.5t14.5 28.5l4 12h119l-4 -19t-15.5 -46.5t-35.5 -55t-64 -46.5t-100 -19zM393 -10q-84 0 -147 26.5t-105.5 73t-63.5 106.5t-21 127
q0 75 26.5 150.5t79.5 138t132 100.5t184 38q77 0 130.5 -20t87 -51.5t52.5 -67t27 -67t9.5 -51.5l1.5 -20h-190l-3 16t-14.5 37.5t-38.5 37.5t-75 16q-53 0 -93 -21.5t-67.5 -57.5t-41 -78.5t-13.5 -84.5q0 -47 18 -87.5t54 -65t91 -24.5q53 0 91.5 23.5t58.5 76.5h-163
l32 148h352l-7 -56q-16 -130 -71.5 -210t-137 -116.5t-175.5 -36.5z" />
    <glyph glyph-name="gbreve" unicode="&#x11f;" horiz-adv-x="668" 
d="M424 592q-60 0 -95 19t-51.5 46.5t-20.5 55t-3 46.5l1 19h119l-1 -12t2.5 -28.5t16 -28.5t40.5 -12q27 0 45 12t28.5 28.5t14.5 28.5l4 12h119l-4 -19t-15.5 -46.5t-35.5 -55t-64 -46.5t-100 -19zM249 -215q-77 0 -125.5 19t-75.5 47t-38 56t-13 47l-2 19h183l4.5 -11
t21 -22t51.5 -11q48 0 79.5 27t41.5 73l11 51h-8l-8 -9.5t-25 -22.5t-42.5 -22.5t-61.5 -9.5q-68 0 -112.5 31.5t-66 82t-21.5 108.5q0 54 17.5 107t51 97.5t82.5 71t112 26.5q46 0 76 -13.5t46.5 -32t23.5 -32l7 -13.5h8l17 81h189l-108 -513q-22 -105 -97 -168.5
t-218 -63.5zM320 160q36 0 60.5 21t37.5 53t13 64q0 39 -20 68.5t-62 29.5q-35 0 -59.5 -21t-37.5 -52.5t-13 -64.5q0 -39 19.5 -68.5t61.5 -29.5z" />
    <glyph glyph-name="Gdotaccent" unicode="&#x120;" horiz-adv-x="791" 
d="M520 793q-47 0 -77.5 30.5t-30.5 72.5q0 44 30.5 74t77.5 30t78 -30t31 -74q0 -42 -31 -72.5t-78 -30.5zM393 -10q-84 0 -147 26.5t-105.5 73t-63.5 106.5t-21 127q0 75 26.5 150.5t79.5 138t132 100.5t184 38q77 0 130.5 -20t87 -51.5t52.5 -67t27 -67t9.5 -51.5
l1.5 -20h-190l-3 16t-14.5 37.5t-38.5 37.5t-75 16q-53 0 -93 -21.5t-67.5 -57.5t-41 -78.5t-13.5 -84.5q0 -47 18 -87.5t54 -65t91 -24.5q53 0 91.5 23.5t58.5 76.5h-163l32 148h352l-7 -56q-16 -130 -71.5 -210t-137 -116.5t-175.5 -36.5z" />
    <glyph glyph-name="gdotaccent" unicode="&#x121;" horiz-adv-x="668" 
d="M429 583q-47 0 -77.5 30.5t-30.5 72.5q0 44 30.5 74t77.5 30t78 -30t31 -74q0 -42 -31 -72.5t-78 -30.5zM249 -215q-77 0 -125.5 19t-75.5 47t-38 56t-13 47l-2 19h183l4.5 -11t21 -22t51.5 -11q48 0 79.5 27t41.5 73l11 51h-8l-8 -9.5t-25 -22.5t-42.5 -22.5t-61.5 -9.5
q-68 0 -112.5 31.5t-66 82t-21.5 108.5q0 54 17.5 107t51 97.5t82.5 71t112 26.5q46 0 76 -13.5t46.5 -32t23.5 -32l7 -13.5h8l17 81h189l-108 -513q-22 -105 -97 -168.5t-218 -63.5zM320 160q36 0 60.5 21t37.5 53t13 64q0 39 -20 68.5t-62 29.5q-35 0 -59.5 -21
t-37.5 -52.5t-13 -64.5q0 -39 19.5 -68.5t61.5 -29.5z" />
    <glyph glyph-name="Hbar" unicode="&#x126;" horiz-adv-x="790" 
d="M22 0l112 527h-70l28 131h70l17 82h192l-17 -82h254l17 82h192l-17 -82h63l-28 -131h-63l-112 -527h-192l63 298h-254l-63 -298h-192zM312 462h254l14 65h-254z" />
    <glyph glyph-name="hbar" unicode="&#x127;" horiz-adv-x="646" 
d="M25 0l120 565h-83l24 115h84l17 80h190l-17 -80h116l-24 -115h-117l-7 -35v0l-16 -75h5l8 13t26 29.5t47 29.5t71 13q58 0 93.5 -27.5t48.5 -73t1 -100.5l-72 -339h-190l64 299q8 36 -3 62t-46 26q-36 0 -57 -26t-29 -62l-64 -299h-190z" />
    <glyph glyph-name="Itilde" unicode="&#x128;" horiz-adv-x="311" 
d="M360 818q-27 0 -47 9t-35 20.5t-28 20.5t-26 9q-26 0 -37 -53h-93q9 40 22 76t39 59.5t71 23.5q37 0 60.5 -14.5t41 -29.5t34.5 -15q14 0 22.5 13.5t14.5 39.5h93q-8 -39 -22 -75.5t-39.5 -60t-70.5 -23.5zM2 0l157 740h192l-157 -740h-192z" />
    <glyph glyph-name="itilde" unicode="&#x129;" horiz-adv-x="320" 
d="M319 612q-27 0 -47 9t-35 20.5t-28 20.5t-26 9q-26 0 -37 -53h-93q9 40 22 76t39 59.5t71 23.5q37 0 60.5 -14.5t41 -29.5t34.5 -15q14 0 22.5 13.5t14.5 39.5h93q-8 -39 -22 -75.5t-39.5 -60t-70.5 -23.5zM5 0l113 530h190l-113 -530h-190z" />
    <glyph glyph-name="Imacron" unicode="&#x12a;" horiz-adv-x="311" 
d="M100 819l22 102h340l-22 -102h-340zM2 0l157 740h192l-157 -740h-192z" />
    <glyph glyph-name="imacron" unicode="&#x12b;" horiz-adv-x="320" 
d="M59 613l22 102h340l-22 -102h-340zM5 0l113 530h190l-113 -530h-190z" />
    <glyph glyph-name="Iogonek" unicode="&#x12e;" horiz-adv-x="311" 
d="M2 0l157 740h192l-157 -740l-15.5 -7.5t-31 -21t-15.5 -31.5q0 -13 10.5 -21.5t35.5 -8.5q11 0 21.5 1.5l10.5 1.5l-21 -102l-15.5 -2.5t-41.5 -2.5q-72 0 -105.5 27t-33.5 68q0 36 21 60t47 39h-59z" />
    <glyph glyph-name="iogonek" unicode="&#x12f;" horiz-adv-x="320" 
d="M246 583q-47 0 -77.5 30.5t-30.5 72.5q0 44 30.5 74t77.5 30t78 -30t31 -74q0 -42 -31 -72.5t-78 -30.5zM5 0l113 530h190l-113 -530l-15.5 -7.5t-31 -21t-15.5 -31.5q0 -13 10.5 -21.5t35.5 -8.5q11 0 21.5 1.5l10.5 1.5l-21 -102l-15.5 -2.5t-41.5 -2.5
q-72 0 -105.5 27t-33.5 68q0 36 21 60t47 39h-57z" />
    <glyph glyph-name="Idotaccent" unicode="&#x130;" horiz-adv-x="311" 
d="M287 789q-47 0 -77.5 30.5t-30.5 72.5q0 44 30.5 74t77.5 30t78 -30t31 -74q0 -42 -31 -72.5t-78 -30.5zM2 0l157 740h192l-157 -740h-192z" />
    <glyph glyph-name="dotlessi" unicode="&#x131;" horiz-adv-x="320" 
d="M5 0l113 530h190l-113 -530h-190z" />
    <glyph glyph-name="Lacute" unicode="&#x139;" horiz-adv-x="636" 
d="M345 809l-133 1l77 179h170zM2 0l157 740h192l-122 -574h337l-35 -166h-529z" />
    <glyph glyph-name="lacute" unicode="&#x13a;" horiz-adv-x="310" 
d="M350 829l-133 1l77 179h170zM2 0l162 760h190l-162 -760h-190z" />
    <glyph glyph-name="Lcaron" unicode="&#x13d;" horiz-adv-x="636" 
d="M197 800l-95 189h134l45 -102l90 102h148l-175 -189h-147zM2 0l157 740h192l-122 -574h337l-35 -166h-529z" />
    <glyph glyph-name="lcaron" unicode="&#x13e;" horiz-adv-x="426" 
d="M2 0l162 760h190l-162 -760h-190zM367 522l61 238h162l-112 -238h-111z" />
    <glyph glyph-name="Lslash" unicode="&#x141;" horiz-adv-x="642" 
d="M17 0l55 259l-93 -41l33 143l90 40l72 339h192l-52 -244l129 57l-33 -143l-126 -56l-40 -188h337l-35 -166h-529z" />
    <glyph glyph-name="lslash" unicode="&#x142;" horiz-adv-x="412" 
d="M54 0l57 268l-113 -50l33 143l110 49l75 350h190l-55 -256l111 49l-33 -143l-108 -48l-77 -362h-190z" />
    <glyph glyph-name="Nacute" unicode="&#x143;" horiz-adv-x="759" 
d="M566 809l-133 1l77 179h170zM2 0l157 740h177l182 -420l89 420h192l-157 -740h-179l-184 400l-85 -400h-192z" />
    <glyph glyph-name="nacute" unicode="&#x144;" horiz-adv-x="618" 
d="M458 599l-133 1l77 179h170zM-3 0l113 530h190l-16 -75h5l8 13t26 29.5t47 29.5t71 13q58 0 93.5 -27.5t48.5 -73t1 -100.5l-72 -339h-190l64 299q8 36 -3 62t-46 26q-36 0 -57 -26t-29 -62l-64 -299h-190z" />
    <glyph glyph-name="Ncaron" unicode="&#x147;" horiz-adv-x="759" 
d="M418 800l-95 189h134l45 -102l90 102h148l-175 -189h-147zM2 0l157 740h177l182 -420l89 420h192l-157 -740h-179l-184 400l-85 -400h-192z" />
    <glyph glyph-name="ncaron" unicode="&#x148;" horiz-adv-x="618" 
d="M310 590l-95 189h134l45 -102l90 102h148l-175 -189h-147zM-3 0l113 530h190l-16 -75h5l8 13t26 29.5t47 29.5t71 13q58 0 93.5 -27.5t48.5 -73t1 -100.5l-72 -339h-190l64 299q8 36 -3 62t-46 26q-36 0 -57 -26t-29 -62l-64 -299h-190z" />
    <glyph glyph-name="Omacron" unicode="&#x14c;" horiz-adv-x="825" 
d="M330 823l22 102h340l-22 -102h-340zM397 -10q-87 0 -151 27.5t-106 75t-62.5 108t-20.5 126.5q0 76 27 151t80 136.5t130.5 98.5t178.5 37q87 0 151 -27.5t106 -75t62.5 -108t20.5 -126.5q0 -76 -27 -151t-80 -136.5t-130.5 -98.5t-178.5 -37zM405 161q51 0 91 22
t67 58.5t41.5 80.5t14.5 87q0 45 -16.5 84t-50 62.5t-86.5 23.5q-51 0 -91 -22t-67 -58.5t-41.5 -80t-14.5 -87.5q0 -45 16.5 -83.5t50.5 -62.5t86 -24z" />
    <glyph glyph-name="omacron" unicode="&#x14d;" horiz-adv-x="650" 
d="M215 613l22 102h340l-22 -102h-340zM303 -10q-90 0 -148 35t-86.5 91t-28.5 119q0 55 20.5 109t60.5 98.5t99.5 71t136.5 26.5q89 0 147.5 -35t87 -90.5t28.5 -119.5q0 -55 -21 -109t-61 -98.5t-99 -71t-136 -26.5zM310 142q36 0 62 21.5t40 56t14 73.5q0 38 -19 66.5
t-60 28.5q-35 0 -61.5 -21.5t-40.5 -56t-14 -73.5q0 -38 19 -66.5t60 -28.5z" />
    <glyph glyph-name="Ohungarumlaut" unicode="&#x150;" horiz-adv-x="825" 
d="M455 809l-120 1l75 179h157zM659 809l-123 1l85 179h160zM397 -10q-87 0 -151 27.5t-106 75t-62.5 108t-20.5 126.5q0 76 27 151t80 136.5t130.5 98.5t178.5 37q87 0 151 -27.5t106 -75t62.5 -108t20.5 -126.5q0 -76 -27 -151t-80 -136.5t-130.5 -98.5t-178.5 -37z
M405 161q51 0 91 22t67 58.5t41.5 80.5t14.5 87q0 45 -16.5 84t-50 62.5t-86.5 23.5q-51 0 -91 -22t-67 -58.5t-41.5 -80t-14.5 -87.5q0 -45 16.5 -83.5t50.5 -62.5t86 -24z" />
    <glyph glyph-name="ohungarumlaut" unicode="&#x151;" horiz-adv-x="650" 
d="M340 599l-120 1l75 179h157zM544 599l-123 1l85 179h160zM303 -10q-90 0 -148 35t-86.5 91t-28.5 119q0 55 20.5 109t60.5 98.5t99.5 71t136.5 26.5q89 0 147.5 -35t87 -90.5t28.5 -119.5q0 -55 -21 -109t-61 -98.5t-99 -71t-136 -26.5zM310 142q36 0 62 21.5t40 56
t14 73.5q0 38 -19 66.5t-60 28.5q-35 0 -61.5 -21.5t-40.5 -56t-14 -73.5q0 -38 19 -66.5t60 -28.5z" />
    <glyph glyph-name="OE" unicode="&#x152;" horiz-adv-x="1014" 
d="M1070 740l-35 -166h-332l-26 -120h288l-34 -158h-287l-28 -130h337l-35 -166h-529q-84 3 -146.5 31t-103.5 74t-61.5 104t-20.5 121q0 74 28.5 146.5t84.5 132t139 95.5t193 36h568zM245 341q0 -45 19 -84.5t58 -64t97 -24.5h6l85 401h-25q-59 0 -104 -20t-75 -53.5
t-45.5 -73.5t-15.5 -81z" />
    <glyph glyph-name="oe" unicode="&#x153;" horiz-adv-x="1012" 
d="M294 -10q-81 0 -137.5 34t-86 90.5t-29.5 122.5q0 56 20.5 109.5t59.5 97.5t95 70t126 26q54 0 92 -14t61 -32t34 -32l11 -14l12.5 14t37.5 32t64 32t92 14q69 0 117.5 -26.5t76.5 -70t36.5 -96.5t-0.5 -107l-4 -23h-358q2 -43 24 -67t61 -24q31 0 49 13t26 25.5l8 12.5
h178l-7 -19t-23.5 -46.5t-46 -55.5t-74.5 -47t-108 -19q-55 0 -93 14t-61 32.5t-33 32.5l-10 14l-12 -14t-37.5 -32.5t-65.5 -32.5t-95 -14zM629 322h180q5 35 -15.5 58.5t-61.5 23.5q-39 0 -66 -23t-37 -59zM311 142q36 0 62 21.5t40 56t14 71.5q0 41 -19 69t-60 28
q-35 0 -61.5 -21.5t-40.5 -55.5t-14 -72q0 -40 19 -68.5t60 -28.5z" />
    <glyph glyph-name="Racute" unicode="&#x154;" horiz-adv-x="728" 
d="M518 809l-133 1l77 179h170zM2 0l157 740h304q91 0 150 -31.5t88.5 -82t29.5 -106.5q0 -49 -21.5 -96t-63 -84t-102.5 -56l86 -284h-196l-77 268h-106l-57 -268h-192zM455 575h-139l-33 -154h160q48 0 73 26t25 56q0 28 -21 50t-65 22z" />
    <glyph glyph-name="racute" unicode="&#x155;" horiz-adv-x="475" 
d="M376 599l-133 1l77 179h170zM2 0l113 530h188l-18 -84h6q23 43 62.5 68.5t94.5 25.5q24 0 35 -3.5l11 -3.5l-40 -186l-12.5 2.5t-32.5 2.5q-51 0 -87 -24t-59 -65t-34 -92l-37 -171h-190z" />
    <glyph glyph-name="Rcaron" unicode="&#x158;" horiz-adv-x="728" 
d="M370 800l-95 189h134l45 -102l90 102h148l-175 -189h-147zM2 0l157 740h304q91 0 150 -31.5t88.5 -82t29.5 -106.5q0 -49 -21.5 -96t-63 -84t-102.5 -56l86 -284h-196l-77 268h-106l-57 -268h-192zM455 575h-139l-33 -154h160q48 0 73 26t25 56q0 28 -21 50t-65 22z" />
    <glyph glyph-name="rcaron" unicode="&#x159;" horiz-adv-x="475" 
d="M228 590l-95 189h134l45 -102l90 102h148l-175 -189h-147zM2 0l113 530h188l-18 -84h6q23 43 62.5 68.5t94.5 25.5q24 0 35 -3.5l11 -3.5l-40 -186l-12.5 2.5t-32.5 2.5q-51 0 -87 -24t-59 -65t-34 -92l-37 -171h-190z" />
    <glyph glyph-name="Sacute" unicode="&#x15a;" horiz-adv-x="698" 
d="M541 809l-133 1l77 179h170zM334 -10q-78 0 -132.5 18t-89 46t-54 60t-27.5 60t-10 46l-2 18h189l4 -14t17 -33t40 -33t73 -14q53 0 82.5 21.5t29.5 54.5q0 48 -70 67l-80 22q-85 23 -139 73t-54 133q0 63 34 116.5t100 86t163 32.5q71 0 120.5 -16.5t82.5 -43
t52.5 -55.5t29 -55.5t12.5 -43l3 -16.5h-185l-3.5 12t-14.5 28t-34.5 28t-62.5 12q-52 0 -79.5 -21.5t-27.5 -52.5q0 -26 19.5 -43t54.5 -27l73 -20q95 -26 146.5 -78t51.5 -129q0 -63 -35.5 -117.5t-105 -88t-171.5 -33.5z" />
    <glyph glyph-name="sacute" unicode="&#x15b;" horiz-adv-x="566" 
d="M410 599l-133 1l77 179h170zM258 -10q-73 0 -120 19t-74.5 46.5t-40 55t-16 46.5l-3.5 19h181l6.5 -12.5t25.5 -25t56 -12.5q35 0 48.5 12.5t13.5 25.5q0 23 -36 30l-77 14q-70 13 -110.5 52.5t-40.5 98.5q0 50 29 91t82.5 65.5t128.5 24.5q65 0 108.5 -17.5t69.5 -43.5
t38.5 -52t16.5 -43.5l4 -17.5h-174l-5.5 9.5t-21 19t-46.5 9.5t-45.5 -10.5t-14.5 -25.5q0 -26 47 -34l61 -10q86 -14 123 -57t37 -96q0 -49 -29 -90t-85 -66t-137 -25z" />
    <glyph glyph-name="Scedilla" unicode="&#x15e;" horiz-adv-x="698" 
d="M276 -263q-34 0 -60.5 4l-26.5 4l14 96l13 -1.5t31 -3t31 -1.5q35 0 47 10.5t12 23.5q0 11 -9 19t-27 8q-17 0 -29.5 -6l-12.5 -6l-46 58l50 53q-73 10 -119 37.5t-72 62.5t-37 67.5t-13.5 54l-2.5 21.5h189l4 -14t17 -33t40 -33t73 -14q53 0 82.5 21.5t29.5 54.5
q0 48 -70 67l-80 22q-85 23 -139 73t-54 133q0 63 34 116.5t100 86t163 32.5q71 0 120.5 -16.5t82.5 -43t52.5 -55.5t29 -55.5t12.5 -43l3 -16.5h-185l-3.5 12t-14.5 28t-34.5 28t-62.5 12q-52 0 -79.5 -21.5t-27.5 -52.5q0 -26 19.5 -43t54.5 -27l73 -20q95 -26 146.5 -78
t51.5 -129q0 -59 -31 -110.5t-91.5 -86t-149.5 -41.5l-23 -23v0q50 0 81.5 -29.5t31.5 -71.5q0 -31 -19.5 -61t-61 -49.5t-107.5 -19.5z" />
    <glyph glyph-name="scedilla" unicode="&#x15f;" horiz-adv-x="566" 
d="M166 -263q-34 0 -60.5 4l-26.5 4l14 96l13 -1.5t31 -3t31 -1.5q35 0 47 10.5t12 23.5q0 11 -9 19t-27 8q-17 0 -29.5 -6l-12.5 -6l-46 58l57 60q-56 16 -87.5 44.5t-46 58.5t-18.5 50.5l-4 20.5h181l6.5 -12.5t25.5 -25t56 -12.5q35 0 48.5 12.5t13.5 25.5q0 23 -36 30
l-77 14q-70 13 -110.5 52.5t-40.5 98.5q0 50 29 91t82.5 65.5t128.5 24.5q65 0 108.5 -17.5t69.5 -43.5t38.5 -52t16.5 -43.5l4 -17.5h-174l-5.5 9.5t-21 19t-46.5 9.5t-45.5 -10.5t-14.5 -25.5q0 -26 47 -34l61 -10q86 -14 123 -57t37 -96q0 -49 -29 -90t-84 -66t-134 -25
l-21 -22v0q50 0 81.5 -29.5t31.5 -71.5q0 -31 -19.5 -61t-61 -49.5t-107.5 -19.5z" />
    <glyph glyph-name="Scaron" unicode="&#x160;" horiz-adv-x="698" 
d="M393 800l-95 189h134l45 -102l90 102h148l-175 -189h-147zM334 -10q-78 0 -132.5 18t-89 46t-54 60t-27.5 60t-10 46l-2 18h189l4 -14t17 -33t40 -33t73 -14q53 0 82.5 21.5t29.5 54.5q0 48 -70 67l-80 22q-85 23 -139 73t-54 133q0 63 34 116.5t100 86t163 32.5
q71 0 120.5 -16.5t82.5 -43t52.5 -55.5t29 -55.5t12.5 -43l3 -16.5h-185l-3.5 12t-14.5 28t-34.5 28t-62.5 12q-52 0 -79.5 -21.5t-27.5 -52.5q0 -26 19.5 -43t54.5 -27l73 -20q95 -26 146.5 -78t51.5 -129q0 -63 -35.5 -117.5t-105 -88t-171.5 -33.5z" />
    <glyph glyph-name="scaron" unicode="&#x161;" horiz-adv-x="566" 
d="M580 758l-169 -159h-147l-101 159h133l50 -85l85 85h149zM258 -10q-73 0 -120 19t-74.5 46.5t-40 55t-16 46.5l-3.5 19h181l6.5 -12.5t25.5 -25t56 -12.5q35 0 48.5 12.5t13.5 25.5q0 23 -36 30l-77 14q-70 13 -110.5 52.5t-40.5 98.5q0 50 29 91t82.5 65.5t128.5 24.5
q65 0 108.5 -17.5t69.5 -43.5t38.5 -52t16.5 -43.5l4 -17.5h-174l-5.5 9.5t-21 19t-46.5 9.5t-45.5 -10.5t-14.5 -25.5q0 -26 47 -34l61 -10q86 -14 123 -57t37 -96q0 -49 -29 -90t-85 -66t-137 -25z" />
    <glyph glyph-name="uni0162" unicode="&#x162;" horiz-adv-x="670" 
d="M191 0l122 574h-226l35 166h640l-35 -166h-222l-122 -574h-34l-31 -32v0q50 0 81.5 -29.5t31.5 -71.5q0 -31 -19.5 -61t-61 -49.5t-107.5 -19.5q-34 0 -60.5 4l-26.5 4l14 96l13 -1.5t31 -3t31 -1.5q35 0 47 10.5t12 23.5q0 11 -9 19t-27 8q-17 0 -29.5 -6l-12.5 -6
l-46 58l55 58h-44z" />
    <glyph glyph-name="uni0163" unicode="&#x163;" horiz-adv-x="457" 
d="M178 -263q-34 0 -60.5 4l-26.5 4l14 96l13 -1.5t31 -3t31 -1.5q35 0 47 10.5t12 23.5q0 11 -9 19t-27 8q-17 0 -29.5 -6l-12.5 -6l-46 58l60 64q-45 18 -63.5 52.5t-20 74t5.5 73.5l37 174h-85l32 150h85l28 130h191l-28 -130h98l-32 -150h-98l-37 -174q-7 -34 7 -52.5
t54 -18.5q16 0 27.5 2.5l11.5 2.5l-30 -140l-24.5 -5t-59.5 -5l-21 -22v0q50 0 81.5 -29.5t31.5 -71.5q0 -31 -19.5 -61t-61 -49.5t-107.5 -19.5z" />
    <glyph glyph-name="Tcaron" unicode="&#x164;" horiz-adv-x="670" 
d="M379 800l-95 189h134l45 -102l90 102h148l-175 -189h-147zM191 0l122 574h-226l35 166h640l-35 -166h-222l-122 -574h-192z" />
    <glyph glyph-name="tcaron" unicode="&#x165;" horiz-adv-x="481" 
d="M393 578l61 238h162l-112 -238h-111zM268 -10q-67 0 -105 21t-54.5 54.5t-17.5 70.5t6 70l37 174h-85l32 150h85l28 130h191l-28 -130h98l-32 -150h-98l-37 -174q-7 -34 7 -52.5t54 -18.5q16 0 27.5 2.5l11.5 2.5l-30 -140l-25.5 -5t-64.5 -5z" />
    <glyph glyph-name="Tbar" unicode="&#x166;" horiz-adv-x="701" 
d="M191 0l66 313h-165l24 115h166l31 146h-226l35 166h640l-35 -166h-222l-31 -146h174l-25 -115h-174l-66 -313h-192z" />
    <glyph glyph-name="tbar" unicode="&#x167;" horiz-adv-x="457" 
d="M29 212l26 123h70l9 45h-85l32 150h85l28 130h191l-28 -130h98l-32 -150h-98l-9 -45h78l-26 -123h-79l-1 -6q-7 -34 7 -52.5t54 -18.5q16 0 27.5 2.5l11.5 2.5l-30 -140l-25.5 -5t-64.5 -5q-67 0 -105 21t-54.5 54.5t-17.5 70.5t6 70l1 6h-69z" />
    <glyph glyph-name="Utilde" unicode="&#x168;" horiz-adv-x="736" 
d="M573 822q-27 0 -47 9t-35 20.5t-28 20.5t-26 9q-26 0 -37 -53h-93q9 40 22 76t39 59.5t71 23.5q37 0 60.5 -14.5t41 -29.5t34.5 -15q14 0 22.5 13.5t14.5 39.5h93q-8 -39 -22 -75.5t-39.5 -60t-70.5 -23.5zM321 -10q-56 0 -109 18t-92 57t-54 102t4 153l89 420h192
l-89 -420q-15 -71 9.5 -110.5t83.5 -39.5q58 0 90.5 38.5t48.5 111.5l89 420h192l-93 -440q-25 -119 -78 -187t-125.5 -95.5t-157.5 -27.5z" />
    <glyph glyph-name="utilde" unicode="&#x169;" horiz-adv-x="609" 
d="M469 612q-27 0 -47 9t-35 20.5t-28 20.5t-26 9q-26 0 -37 -53h-93q9 40 22 76t39 59.5t71 23.5q37 0 60.5 -14.5t41 -29.5t34.5 -15q14 0 22.5 13.5t14.5 39.5h93q-8 -39 -22 -75.5t-39.5 -60t-70.5 -23.5zM159 -10q-75 0 -107.5 56.5t-12.5 150.5l71 333h190l-66 -311
q-7 -36 4.5 -56t42.5 -20q32 0 51.5 21t26.5 55l66 311h190l-112 -530h-190l15 75h-6q-30 -40 -71.5 -62.5t-91.5 -22.5z" />
    <glyph glyph-name="Umacron" unicode="&#x16a;" horiz-adv-x="736" 
d="M313 823l22 102h340l-22 -102h-340zM321 -10q-56 0 -109 18t-92 57t-54 102t4 153l89 420h192l-89 -420q-15 -71 9.5 -110.5t83.5 -39.5q58 0 90.5 38.5t48.5 111.5l89 420h192l-93 -440q-25 -119 -78 -187t-125.5 -95.5t-157.5 -27.5z" />
    <glyph glyph-name="umacron" unicode="&#x16b;" horiz-adv-x="609" 
d="M209 613l22 102h340l-22 -102h-340zM159 -10q-75 0 -107.5 56.5t-12.5 150.5l71 333h190l-66 -311q-7 -36 4.5 -56t42.5 -20q32 0 51.5 21t26.5 55l66 311h190l-112 -530h-190l15 75h-6q-30 -40 -71.5 -62.5t-91.5 -22.5z" />
    <glyph glyph-name="Uring" unicode="&#x16e;" horiz-adv-x="736" 
d="M507 788q-39 0 -71 19t-51 51t-19 71t19 70.5t51 50.5t71 19t71 -19t51 -50.5t19 -70.5t-19 -71t-51 -51t-71 -19zM507 878q21 0 36 14.5t15 36.5q0 21 -15 35.5t-36 14.5t-36 -14.5t-15 -35.5q0 -22 15 -36.5t36 -14.5zM321 -10q-56 0 -109 18t-92 57t-54 102t4 153
l89 420h192l-89 -420q-15 -71 9.5 -110.5t83.5 -39.5q58 0 90.5 38.5t48.5 111.5l89 420h192l-93 -440q-25 -119 -78 -187t-125.5 -95.5t-157.5 -27.5z" />
    <glyph glyph-name="uring" unicode="&#x16f;" horiz-adv-x="609" 
d="M403 578q-39 0 -71 19t-51 51t-19 71t19 70.5t51 50.5t71 19t71 -19t51 -50.5t19 -70.5t-19 -71t-51 -51t-71 -19zM403 668q21 0 36 14.5t15 36.5q0 21 -15 35.5t-36 14.5t-36 -14.5t-15 -35.5q0 -22 15 -36.5t36 -14.5zM159 -10q-75 0 -107.5 56.5t-12.5 150.5l71 333
h190l-66 -311q-7 -36 4.5 -56t42.5 -20q32 0 51.5 21t26.5 55l66 311h190l-112 -530h-190l15 75h-6q-30 -40 -71.5 -62.5t-91.5 -22.5z" />
    <glyph glyph-name="Uhungarumlaut" unicode="&#x170;" horiz-adv-x="736" 
d="M438 809l-120 1l75 179h157zM642 809l-123 1l85 179h160zM321 -10q-56 0 -109 18t-92 57t-54 102t4 153l89 420h192l-89 -420q-15 -71 9.5 -110.5t83.5 -39.5q58 0 90.5 38.5t48.5 111.5l89 420h192l-93 -440q-25 -119 -78 -187t-125.5 -95.5t-157.5 -27.5z" />
    <glyph glyph-name="uhungarumlaut" unicode="&#x171;" horiz-adv-x="609" 
d="M334 599l-120 1l75 179h157zM538 599l-123 1l85 179h160zM159 -10q-75 0 -107.5 56.5t-12.5 150.5l71 333h190l-66 -311q-7 -36 4.5 -56t42.5 -20q32 0 51.5 21t26.5 55l66 311h190l-112 -530h-190l15 75h-6q-30 -40 -71.5 -62.5t-91.5 -22.5z" />
    <glyph glyph-name="Uogonek" unicode="&#x172;" horiz-adv-x="736" 
d="M316 -198q-72 0 -105.5 27t-33.5 68q0 37 22 61.5t49 39.5q-61 13 -109 50.5t-69 104.5t0 167l89 420h192l-89 -420q-15 -71 9.5 -110.5t83.5 -39.5q58 0 90.5 38.5t48.5 111.5l89 420h192l-93 -440q-23 -108 -68.5 -173.5t-108 -96.5t-136.5 -38q-9 -4 -21.5 -12
t-22 -19t-9.5 -25q0 -13 10.5 -21.5t35.5 -8.5q11 0 21.5 1.5l10.5 1.5l-21 -102l-15.5 -2.5t-41.5 -2.5z" />
    <glyph glyph-name="uogonek" unicode="&#x173;" horiz-adv-x="609" 
d="M159 -10q-75 0 -107.5 56.5t-12.5 150.5l71 333h190l-66 -311q-7 -36 4.5 -56t42.5 -20q32 0 51.5 21t26.5 55l66 311h190l-112 -530l-15.5 -7.5t-31 -21t-15.5 -31.5q0 -13 10.5 -21.5t35.5 -8.5q11 0 21.5 1.5l10.5 1.5l-21 -102l-15.5 -2.5t-41.5 -2.5
q-72 0 -105.5 27t-33.5 68q0 36 21 60t47 39h-57l15 75h-6q-30 -40 -71.5 -62.5t-91.5 -22.5z" />
    <glyph glyph-name="Wcircumflex" unicode="&#x174;" horiz-adv-x="1063" 
d="M429 799l175 189h147l95 -189h-134l-45 102l-90 -102h-148zM126 0l-19 740h182l10 -495l221 495h199l14 -496l217 496h200l-333 -740h-248l-11 416l-187 -416h-245z" />
    <glyph glyph-name="wcircumflex" unicode="&#x175;" horiz-adv-x="905" 
d="M312 589l175 189h147l95 -189h-134l-45 102l-90 -102h-148zM122 0l-46 530h178l10 -304l149 304h169l20 -305l139 305h198l-272 -530h-200l-18 263l-127 -263h-200z" />
    <glyph glyph-name="Ycircumflex" unicode="&#x176;" horiz-adv-x="724" 
d="M278 799l175 189h147l95 -189h-134l-45 102l-90 -102h-148zM221 0l52 248l-156 492h198l84 -297l209 297h223l-366 -493l-52 -247h-192z" />
    <glyph glyph-name="ycircumflex" unicode="&#x177;" horiz-adv-x="618" 
d="M163 589l175 189h147l95 -189h-134l-45 102l-90 -102h-148zM15 -195q-29 0 -43 2l-14 2l32 156l10 -1t27 -1q34 0 64 7.5t60 39.5l-75 520h178l34 -320l166 320h198l-284 -495q-44 -76 -92.5 -127.5t-111.5 -77t-149 -25.5z" />
    <glyph glyph-name="Ydieresis" unicode="&#x178;" horiz-adv-x="724" 
d="M630 788q-45 0 -73.5 28.5t-28.5 68.5q0 41 28.5 69.5t73.5 28.5q44 0 73 -28.5t29 -69.5q0 -40 -29 -68.5t-73 -28.5zM380 788q-45 0 -73.5 28.5t-28.5 68.5q0 41 28.5 69.5t73.5 28.5q44 0 73 -28.5t29 -69.5q0 -40 -29 -68.5t-73 -28.5zM221 0l52 248l-156 492h198
l84 -297l209 297h223l-366 -493l-52 -247h-192z" />
    <glyph glyph-name="Zacute" unicode="&#x179;" horiz-adv-x="698" 
d="M527 809l-133 1l77 179h170zM-1 0l28 133l413 441h-319l35 166h592l-28 -132l-414 -442h321l-36 -166h-592z" />
    <glyph glyph-name="zacute" unicode="&#x17a;" horiz-adv-x="553" 
d="M423 599l-133 1l77 179h170zM-5 0l27 129l279 251h-221l33 150h467l-28 -129l-279 -251h226l-32 -150h-472z" />
    <glyph glyph-name="Zdotaccent" unicode="&#x17b;" horiz-adv-x="698" 
d="M469 793q-47 0 -77.5 30.5t-30.5 72.5q0 44 30.5 74t77.5 30t78 -30t31 -74q0 -42 -31 -72.5t-78 -30.5zM-1 0l28 133l413 441h-319l35 166h592l-28 -132l-414 -442h321l-36 -166h-592z" />
    <glyph glyph-name="zdotaccent" unicode="&#x17c;" horiz-adv-x="553" 
d="M365 583q-47 0 -77.5 30.5t-30.5 72.5q0 44 30.5 74t77.5 30t78 -30t31 -74q0 -42 -31 -72.5t-78 -30.5zM-5 0l27 129l279 251h-221l33 150h467l-28 -129l-279 -251h226l-32 -150h-472z" />
    <glyph glyph-name="Zcaron" unicode="&#x17d;" horiz-adv-x="698" 
d="M379 800l-95 189h134l45 -102l90 102h148l-175 -189h-147zM-1 0l28 133l413 441h-319l35 166h592l-28 -132l-414 -442h321l-36 -166h-592z" />
    <glyph glyph-name="zcaron" unicode="&#x17e;" horiz-adv-x="553" 
d="M285 590l-95 189h134l45 -102l90 102h148l-175 -189h-147zM-5 0l27 129l279 251h-221l33 150h467l-28 -129l-279 -251h226l-32 -150h-472z" />
    <glyph glyph-name="Ohorn" unicode="&#x1a0;" horiz-adv-x="825" 
d="M397 -10q-87 0 -151 27.5t-106 75t-62.5 108t-20.5 126.5q0 76 27 151t80 136.5t130.5 98.5t178.5 37h14v0h178q42 0 51 40l17 78h157l-23 -107q-11 -52 -43 -80.5t-95 -28.5h-3q44 -47 65.5 -109.5t21.5 -129.5q0 -76 -27 -151t-80 -136.5t-130.5 -98.5t-178.5 -37z
M405 161q51 0 91 22t67 58.5t41.5 80.5t14.5 87q0 45 -16.5 84t-50 62.5t-86.5 23.5q-51 0 -91 -22t-67 -58.5t-41.5 -80t-14.5 -87.5q0 -45 16.5 -83.5t50.5 -62.5t86 -24z" />
    <glyph glyph-name="ohorn" unicode="&#x1a1;" horiz-adv-x="657" 
d="M303 -10q-90 0 -148 35t-86.5 91t-28.5 119q0 55 20.5 109t60.5 98.5t99.5 71t136.5 26.5h138q42 0 51 40l17 78h147l-20 -97q-10 -48 -39 -76.5t-85 -32.5q27 -32 40.5 -73t13.5 -84q0 -55 -21 -109t-61 -98.5t-99 -71t-136 -26.5zM310 142q36 0 62 21.5t40 56t14 73.5
q0 38 -19 66.5t-60 28.5q-35 0 -61.5 -21.5t-40.5 -56t-14 -73.5q0 -38 19 -66.5t60 -28.5z" />
    <glyph glyph-name="Uhorn" unicode="&#x1af;" horiz-adv-x="736" 
d="M321 -10q-56 0 -109 18t-92 57t-54 102t4 153l89 420h192l-89 -420q-15 -71 9.5 -110.5t83.5 -39.5q58 0 90.5 38.5t48.5 111.5l68 322v0l21 98h122q42 0 51 40l17 78h157l-23 -107q-11 -52 -43 -80.5t-95 -28.5h-15l-72 -342q-25 -119 -78 -187t-125.5 -95.5
t-157.5 -27.5z" />
    <glyph glyph-name="uhorn" unicode="&#x1b0;" horiz-adv-x="609" 
d="M159 -10q-75 0 -107.5 56.5t-12.5 150.5l71 333h190l-66 -311q-7 -36 4.5 -56t42.5 -20q32 0 51.5 21t26.5 55l47 223v0l19 88h108q42 0 51 40l17 78h147l-20 -97q-10 -50 -41 -78.5t-91 -30.5l-93 -442h-190l15 75h-6q-30 -40 -71.5 -62.5t-91.5 -22.5z" />
    <glyph glyph-name="Gcaron" unicode="&#x1e6;" horiz-adv-x="791" 
d="M430 800l-95 189h134l45 -102l90 102h148l-175 -189h-147zM393 -10q-84 0 -147 26.5t-105.5 73t-63.5 106.5t-21 127q0 75 26.5 150.5t79.5 138t132 100.5t184 38q77 0 130.5 -20t87 -51.5t52.5 -67t27 -67t9.5 -51.5l1.5 -20h-190l-3 16t-14.5 37.5t-38.5 37.5t-75 16
q-53 0 -93 -21.5t-67.5 -57.5t-41 -78.5t-13.5 -84.5q0 -47 18 -87.5t54 -65t91 -24.5q53 0 91.5 23.5t58.5 76.5h-163l32 148h352l-7 -56q-16 -130 -71.5 -210t-137 -116.5t-175.5 -36.5z" />
    <glyph glyph-name="gcaron" unicode="&#x1e7;" horiz-adv-x="668" 
d="M339 590l-95 189h134l45 -102l90 102h148l-175 -189h-147zM249 -215q-77 0 -125.5 19t-75.5 47t-38 56t-13 47l-2 19h183l4.5 -11t21 -22t51.5 -11q48 0 79.5 27t41.5 73l11 51h-8l-8 -9.5t-25 -22.5t-42.5 -22.5t-61.5 -9.5q-68 0 -112.5 31.5t-66 82t-21.5 108.5
q0 54 17.5 107t51 97.5t82.5 71t112 26.5q46 0 76 -13.5t46.5 -32t23.5 -32l7 -13.5h8l17 81h189l-108 -513q-22 -105 -97 -168.5t-218 -63.5zM320 160q36 0 60.5 21t37.5 53t13 64q0 39 -20 68.5t-62 29.5q-35 0 -59.5 -21t-37.5 -52.5t-13 -64.5q0 -39 19.5 -68.5
t61.5 -29.5z" />
    <glyph glyph-name="circumflex" unicode="&#x2c6;" horiz-adv-x="596" 
d="M152 551l175 189h147l95 -189h-134l-45 102l-90 -102h-148z" />
    <glyph glyph-name="caron" unicode="&#x2c7;" horiz-adv-x="500" 
d="M258 590l-95 189h134l45 -102l90 102h148l-175 -189h-147z" />
    <glyph glyph-name="breve" unicode="&#x2d8;" horiz-adv-x="463" 
d="M333 592q-60 0 -95 19t-51 46.5t-20.5 55t-3.5 46.5l1 19h119l-1 -12t2.5 -28.5t16 -28.5t40.5 -12q27 0 45 12t28.5 28.5t14.5 28.5l4 12h119l-4 -19t-15.5 -46.5t-35.5 -55t-64 -46.5t-100 -19z" />
    <glyph glyph-name="dotaccent" unicode="&#x2d9;" horiz-adv-x="260" 
d="M143 583q-47 0 -77.5 30.5t-30.5 72.5q0 44 30.5 74t77.5 30t78 -30t31 -74q0 -42 -31 -72.5t-78 -30.5z" />
    <glyph glyph-name="ring" unicode="&#x2da;" horiz-adv-x="359" 
d="M281 578q-39 0 -71 19t-51 51t-19 71t19 70.5t51 50.5t71 19t71 -19t51 -50.5t19 -70.5t-19 -71t-51 -51t-71 -19zM281 668q21 0 36 14.5t15 36.5q0 21 -15 35.5t-36 14.5t-36 -14.5t-15 -35.5q0 -22 15 -36.5t36 -14.5z" />
    <glyph glyph-name="ogonek" unicode="&#x2db;" horiz-adv-x="265" 
d="M139 -235q-72 0 -105.5 27t-33.5 68q0 31 15 53t37 36.5t44 23t37 12l15 3.5l53 -29l-15.5 -7.5t-31 -21t-15.5 -31.5q0 -13 10.5 -21.5t35.5 -8.5q11 0 21.5 1.5l10.5 1.5l-21 -102l-15.5 -2.5t-41.5 -2.5z" />
    <glyph glyph-name="tilde" unicode="&#x2dc;" horiz-adv-x="413" 
d="M425 612q-27 0 -47 9t-35 20.5t-28 20.5t-26 9q-26 0 -37 -53h-93q9 40 22 76t39 59.5t71 23.5q37 0 60.5 -14.5t41 -29.5t34.5 -15q14 0 22.5 13.5t14.5 39.5h93q-8 -39 -22 -75.5t-39.5 -60t-70.5 -23.5z" />
    <glyph glyph-name="gravecomb" unicode="&#x300;" 
d="M121 599l-104 180h165l67 -179z" />
    <glyph glyph-name="acutecomb" unicode="&#x301;" 
d="M260 599l-133 1l77 179h170z" />
    <glyph glyph-name="uni0302" unicode="&#x302;" 
d="M109 589l175 189h147l95 -189h-134l-45 102l-90 -102h-148z" />
    <glyph glyph-name="tildecomb" unicode="&#x303;" 
d="M423 612q-27 0 -47 9t-35 20.5t-28 20.5t-26 9q-26 0 -37 -53h-93q9 40 22 76t39 59.5t71 23.5q37 0 60.5 -14.5t41 -29.5t34.5 -15q14 0 22.5 13.5t14.5 39.5h93q-8 -39 -22 -75.5t-39.5 -60t-70.5 -23.5z" />
    <glyph glyph-name="uni0304" unicode="&#x304;" 
d="M109 653l22 102h340l-22 -102h-340z" />
    <glyph glyph-name="uni0306" unicode="&#x306;" 
d="M315 592q-60 0 -95 19t-51 46.5t-20.5 55t-3.5 46.5l1 19h119l-1 -12t2.5 -28.5t16 -28.5t40.5 -12q27 0 45 12t28.5 28.5t14.5 28.5l4 12h119l-4 -19t-16 -46.5t-35.5 -55t-63.5 -46.5t-100 -19z" />
    <glyph glyph-name="uni0307" unicode="&#x307;" 
d="M172 583q-47 0 -77.5 30.5t-30.5 72.5q0 44 30.5 74t77.5 30t78 -30t31 -74q0 -42 -31 -72.5t-78 -30.5z" />
    <glyph glyph-name="uni0308" unicode="&#x308;" 
d="M413 578q-45 0 -73.5 28.5t-28.5 68.5q0 41 28.5 69.5t73.5 28.5q44 0 73 -28.5t29 -69.5q0 -40 -29 -68.5t-73 -28.5zM163 578q-45 0 -73.5 28.5t-28.5 68.5q0 41 28.5 69.5t73.5 28.5q44 0 73 -28.5t29 -69.5q0 -40 -29 -68.5t-73 -28.5z" />
    <glyph glyph-name="hookabovecomb" unicode="&#x309;" 
d="M261 585l7 33q3 14 11.5 26.5t26.5 20.5l18 8q51 23 51 47q0 11 -8 19t-23 8q-19 0 -27.5 -8.5t-10.5 -17.5l-2 -9h-101l1.5 12.5t9 31t24 37t45 31t73.5 12.5q62 0 96 -31t34 -72q0 -27 -13 -47t-31.5 -33.5t-37 -22.5t-29.5 -15l-6 -3l-6 -27h-102z" />
    <glyph glyph-name="uni030A" unicode="&#x30a;" 
d="M281 578q-39 0 -71 19t-51 51t-19 71t19 70.5t51 50.5t71 19t71 -19t51 -50.5t19 -70.5t-19 -71t-51 -51t-71 -19zM281 668q21 0 36 14.5t15 36.5q0 21 -15 35.5t-36 14.5t-36 -14.5t-15 -35.5q0 -22 15 -36.5t36 -14.5z" />
    <glyph glyph-name="uni030B" unicode="&#x30b;" 
d="M278 599l-120 1l75 179h157zM482 599l-123 1l85 179h160z" />
    <glyph glyph-name="uni030C" unicode="&#x30c;" 
d="M258 590l-95 189h134l45 -102l90 102h148l-175 -189h-147z" />
    <glyph glyph-name="uni0312" unicode="&#x312;" 
d="M214 873l-64 -109q34 -2 57 -26t23 -58q0 -35 -24 -59.5t-62 -24.5q-37 0 -62.5 24t-25.5 63q0 34 22.5 74t68.5 106l7 10h60z" />
    <glyph glyph-name="uni031B" unicode="&#x31b;" 
d="M577 648l-20 -97q-10 -52 -43 -80.5t-96 -28.5h-193l19 88h118q42 0 51 40l17 78h147z" />
    <glyph glyph-name="dotbelowcomb" unicode="&#x323;" 
d="M41 -260q-40 0 -64.5 26.5t-24.5 62.5q0 37 24.5 63t64.5 26q38 0 63.5 -26t25.5 -63q0 -36 -25.5 -62.5t-63.5 -26.5z" />
    <glyph glyph-name="uni0326" unicode="&#x326;" 
d="M28 -229l64 109q-34 2 -57 26t-23 58q0 35 24 59.5t62 24.5t63 -24t25 -63q0 -34 -22 -74t-69 -106l-7 -10h-60z" />
    <glyph glyph-name="uni0327" unicode="&#x327;" 
d="M21 -238q-34 0 -60.5 4l-26.5 4l14 96l13 -1.5t31 -3t31 -1.5q35 0 47 10.5t12 23.5q0 11 -9 19t-27 8q-17 0 -29.5 -6l-12.5 -6l-46 58l88 93h115l-65 -67v0q50 0 81.5 -29.5t31.5 -71.5q0 -31 -19.5 -61t-61 -49.5t-107.5 -19.5z" />
    <glyph glyph-name="uni0328" unicode="&#x328;" 
d="M149 -235q-72 0 -105.5 27t-33.5 68q0 31 15 53t37 36.5t44 23t37 12l15 3.5l53 -29l-15.5 -7.5t-31 -21t-15.5 -31.5q0 -13 10.5 -21.5t35.5 -8.5q11 0 21.5 1.5l10.5 1.5l-21 -102l-15.5 -2.5t-41.5 -2.5z" />
    <glyph glyph-name="uni1E20" unicode="&#x1e20;" horiz-adv-x="791" 
d="M333 823l22 102h340l-22 -102h-340zM393 -10q-84 0 -147 26.5t-105.5 73t-63.5 106.5t-21 127q0 75 26.5 150.5t79.5 138t132 100.5t184 38q77 0 130.5 -20t87 -51.5t52.5 -67t27 -67t9.5 -51.5l1.5 -20h-190l-3 16t-14.5 37.5t-38.5 37.5t-75 16q-53 0 -93 -21.5
t-67.5 -57.5t-41 -78.5t-13.5 -84.5q0 -47 18 -87.5t54 -65t91 -24.5q53 0 91.5 23.5t58.5 76.5h-163l32 148h352l-7 -56q-16 -130 -71.5 -210t-137 -116.5t-175.5 -36.5z" />
    <glyph glyph-name="uni1E21" unicode="&#x1e21;" horiz-adv-x="668" 
d="M252 613l22 102h340l-22 -102h-340zM249 -215q-77 0 -125.5 19t-75.5 47t-38 56t-13 47l-2 19h183l4.5 -11t21 -22t51.5 -11q48 0 79.5 27t41.5 73l11 51h-8l-8 -9.5t-25 -22.5t-42.5 -22.5t-61.5 -9.5q-68 0 -112.5 31.5t-66 82t-21.5 108.5q0 54 17.5 107t51 97.5
t82.5 71t112 26.5q46 0 76 -13.5t46.5 -32t23.5 -32l7 -13.5h8l17 81h189l-108 -513q-22 -105 -97 -168.5t-218 -63.5zM320 160q36 0 60.5 21t37.5 53t13 64q0 39 -20 68.5t-62 29.5q-35 0 -59.5 -21t-37.5 -52.5t-13 -64.5q0 -39 19.5 -68.5t61.5 -29.5z" />
    <glyph glyph-name="Wgrave" unicode="&#x1e80;" horiz-adv-x="1063" 
d="M566 809l-104 180h165l67 -179zM126 0l-19 740h182l10 -495l221 495h199l14 -496l217 496h200l-333 -740h-248l-11 416l-187 -416h-245z" />
    <glyph glyph-name="wgrave" unicode="&#x1e81;" horiz-adv-x="905" 
d="M449 599l-104 180h165l67 -179zM122 0l-46 530h178l10 -304l149 304h169l20 -305l139 305h198l-272 -530h-200l-18 263l-127 -263h-200z" />
    <glyph glyph-name="Wacute" unicode="&#x1e82;" horiz-adv-x="1063" 
d="M716 809l-133 1l77 179h170zM126 0l-19 740h182l10 -495l221 495h199l14 -496l217 496h200l-333 -740h-248l-11 416l-187 -416h-245z" />
    <glyph glyph-name="wacute" unicode="&#x1e83;" horiz-adv-x="905" 
d="M599 599l-133 1l77 179h170zM122 0l-46 530h178l10 -304l149 304h169l20 -305l139 305h198l-272 -530h-200l-18 263l-127 -263h-200z" />
    <glyph glyph-name="Wdieresis" unicode="&#x1e84;" horiz-adv-x="1063" 
d="M781 788q-45 0 -73.5 28.5t-28.5 68.5q0 41 28.5 69.5t73.5 28.5q44 0 73 -28.5t29 -69.5q0 -40 -29 -68.5t-73 -28.5zM531 788q-45 0 -73.5 28.5t-28.5 68.5q0 41 28.5 69.5t73.5 28.5q44 0 73 -28.5t29 -69.5q0 -40 -29 -68.5t-73 -28.5zM126 0l-19 740h182l10 -495
l221 495h199l14 -496l217 496h200l-333 -740h-248l-11 416l-187 -416h-245z" />
    <glyph glyph-name="wdieresis" unicode="&#x1e85;" horiz-adv-x="905" 
d="M664 578q-45 0 -73.5 28.5t-28.5 68.5q0 41 28.5 69.5t73.5 28.5q44 0 73 -28.5t29 -69.5q0 -40 -29 -68.5t-73 -28.5zM414 578q-45 0 -73.5 28.5t-28.5 68.5q0 41 28.5 69.5t73.5 28.5q44 0 73 -28.5t29 -69.5q0 -40 -29 -68.5t-73 -28.5zM122 0l-46 530h178l10 -304
l149 304h169l20 -305l139 305h198l-272 -530h-200l-18 263l-127 -263h-200z" />
    <glyph glyph-name="uni1E9E" unicode="&#x1e9e;" horiz-adv-x="735" 
d="M368 -10q-26 0 -51 2t-41.5 4l-16.5 2l32 154l19 -2.5t43 -2.5q67 0 105.5 23t38.5 62q0 28 -23 48t-80 20h-43l20 99l161 188l-19 3.5t-42 3.5q-73 0 -123.5 -47t-67.5 -126l-89 -421h-189l93 441q12 59 40 114t75.5 99t120.5 70t175 26q75 0 130 -11.5t85 -23l30 -11.5
l-17 -90l-182 -214q30 -7 61.5 -26.5t53 -53.5t21.5 -88q0 -69 -40 -123.5t-112 -86.5t-168 -32z" />
    <glyph glyph-name="uni1EA0" unicode="&#x1ea0;" horiz-adv-x="771" 
d="M-43 0l403 740h259l89 -740h-190l-13 124h-273l-65 -124h-210zM318 288h171l-28 273zM294 -260q-40 0 -64.5 26.5t-24.5 62.5q0 37 24.5 63t64.5 26q38 0 63.5 -26t25.5 -63q0 -36 -25.5 -62.5t-63.5 -26.5z" />
    <glyph glyph-name="uni1EA1" unicode="&#x1ea1;" horiz-adv-x="646" 
d="M295 540q44 0 72 -12.5t44.5 -28.5t23 -28.5l6.5 -12.5h8l15 72h190l-110 -530h-190l12 58h-8l-7 -10.5t-23 -23.5t-43 -23.5t-67 -10.5q-65 0 -107.5 31t-63 82t-20.5 110q0 57 18 114.5t52.5 106t84.5 77.5t113 29zM341 389q-38 0 -65.5 -23.5t-42 -58.5t-14.5 -70
q0 -39 19.5 -67.5t61.5 -28.5q38 0 65.5 23.5t42 58.5t14.5 69q0 39 -19.5 68t-61.5 29zM231 -260q-40 0 -64.5 26t-24.5 63q0 38 24.5 63.5t64.5 25.5q38 0 63.5 -25.5t25.5 -63.5q0 -37 -25.5 -63t-63.5 -26z" />
    <glyph glyph-name="uni1EA2" unicode="&#x1ea2;" horiz-adv-x="771" 
d="M444 795l7 33q3 14 11.5 26.5t26.5 20.5l18 8q51 23 51 47q0 11 -8 19t-23 8q-19 0 -27.5 -8.5t-10.5 -17.5l-2 -9h-101l1.5 12.5t9 31t24 37t45 31t73.5 12.5q62 0 96 -31t34 -72q0 -27 -13 -47t-31.5 -33.5t-37 -22.5t-29.5 -15l-6 -3l-6 -27h-102zM-43 0l403 740h259
l89 -740h-190l-13 124h-273l-65 -124h-210zM318 288h171l-28 273z" />
    <glyph glyph-name="uni1EA3" unicode="&#x1ea3;" horiz-adv-x="646" 
d="M336 585l7 33q3 14 11.5 26.5t26.5 20.5l18 8q51 23 51 47q0 11 -8 19t-23 8q-19 0 -27.5 -8.5t-10.5 -17.5l-2 -9h-101l1.5 12.5t9 31t24 37t45 31t73.5 12.5q62 0 96 -31t34 -72q0 -27 -13 -47t-31.5 -33.5t-37 -22.5t-29.5 -15l-6 -3l-6 -27h-102zM295 540
q44 0 72 -12.5t44.5 -28.5t23 -28.5l6.5 -12.5h8l15 72h190l-110 -530h-190l12 58h-8l-7 -10.5t-23 -23.5t-43 -23.5t-67 -10.5q-65 0 -107.5 31t-63 82t-20.5 110q0 57 18 114.5t52.5 106t84.5 77.5t113 29zM341 389q-38 0 -65.5 -23.5t-42 -58.5t-14.5 -70
q0 -39 19.5 -67.5t61.5 -28.5q38 0 65.5 23.5t42 58.5t14.5 69q0 39 -19.5 68t-61.5 29z" />
    <glyph glyph-name="uni1EA4" unicode="&#x1ea4;" horiz-adv-x="771" 
d="M801 929l-133 1l77 179h170zM285 799l169 159h147l101 -159h-133l-50 85l-85 -85h-149zM-43 0l403 740h259l89 -740h-190l-13 124h-273l-65 -124h-210zM318 288h171l-28 273z" />
    <glyph glyph-name="uni1EA5" unicode="&#x1ea5;" horiz-adv-x="646" 
d="M693 719l-133 1l77 179h170zM177 589l169 159h147l101 -159h-133l-50 85l-85 -85h-149zM295 540q44 0 72 -12.5t44.5 -28.5t23 -28.5l6.5 -12.5h8l15 72h190l-110 -530h-190l12 58h-8l-7 -10.5t-23 -23.5t-43 -23.5t-67 -10.5q-65 0 -107.5 31t-63 82t-20.5 110
q0 57 18 114.5t52.5 106t84.5 77.5t113 29zM341 389q-38 0 -65.5 -23.5t-42 -58.5t-14.5 -70q0 -39 19.5 -67.5t61.5 -28.5q38 0 65.5 23.5t42 58.5t14.5 69q0 39 -19.5 68t-61.5 29z" />
    <glyph glyph-name="uni1EA6" unicode="&#x1ea6;" horiz-adv-x="771" 
d="M675 929l-104 180h165l67 -179zM285 799l169 159h147l101 -159h-133l-50 85l-85 -85h-149zM-43 0l403 740h259l89 -740h-190l-13 124h-273l-65 -124h-210zM318 288h171l-28 273z" />
    <glyph glyph-name="uni1EA7" unicode="&#x1ea7;" horiz-adv-x="646" 
d="M567 719l-104 180h165l67 -179zM177 589l169 159h147l101 -159h-133l-50 85l-85 -85h-149zM295 540q44 0 72 -12.5t44.5 -28.5t23 -28.5l6.5 -12.5h8l15 72h190l-110 -530h-190l12 58h-8l-7 -10.5t-23 -23.5t-43 -23.5t-67 -10.5q-65 0 -107.5 31t-63 82t-20.5 110
q0 57 18 114.5t52.5 106t84.5 77.5t113 29zM341 389q-38 0 -65.5 -23.5t-42 -58.5t-14.5 -70q0 -39 19.5 -67.5t61.5 -28.5q38 0 65.5 23.5t42 58.5t14.5 69q0 39 -19.5 68t-61.5 29z" />
    <glyph glyph-name="uni1EA8" unicode="&#x1ea8;" horiz-adv-x="771" 
d="M666 907l7 33q3 14 11.5 26.5t26.5 20.5l18 8q51 23 51 47q0 11 -8 19t-23 8q-19 0 -27.5 -8.5t-10.5 -17.5l-2 -9h-101l1.5 12.5t9 31t24 37t45 31t73.5 12.5q62 0 96 -31t34 -72q0 -27 -13 -47t-31.5 -33.5t-37 -22.5t-29.5 -15l-6 -3l-6 -27h-102zM285 799l169 159
h147l101 -159h-133l-50 85l-85 -85h-149zM-43 0l403 740h259l89 -740h-190l-13 124h-273l-65 -124h-210zM318 288h171l-28 273z" />
    <glyph glyph-name="uni1EA9" unicode="&#x1ea9;" horiz-adv-x="646" 
d="M558 697l7 33q3 14 11.5 26.5t26.5 20.5l18 8q51 23 51 47q0 11 -8 19t-23 8q-19 0 -27.5 -8.5t-10.5 -17.5l-2 -9h-101l1.5 12.5t9 31t24 37t45 31t73.5 12.5q62 0 96 -31t34 -72q0 -27 -13 -47t-31.5 -33.5t-37 -22.5t-29.5 -15l-6 -3l-6 -27h-102zM177 589l169 159
h147l101 -159h-133l-50 85l-85 -85h-149zM295 540q44 0 72 -12.5t44.5 -28.5t23 -28.5l6.5 -12.5h8l15 72h190l-110 -530h-190l12 58h-8l-7 -10.5t-23 -23.5t-43 -23.5t-67 -10.5q-65 0 -107.5 31t-63 82t-20.5 110q0 57 18 114.5t52.5 106t84.5 77.5t113 29zM341 389
q-38 0 -65.5 -23.5t-42 -58.5t-14.5 -70q0 -39 19.5 -67.5t61.5 -28.5q38 0 65.5 23.5t42 58.5t14.5 69q0 39 -19.5 68t-61.5 29z" />
    <glyph glyph-name="uni1EAA" unicode="&#x1eaa;" horiz-adv-x="771" 
d="M619 992q-27 0 -47 9t-35 20.5t-28 20.5t-26 9q-26 0 -37 -53h-93q9 40 22 76t39 59.5t71 23.5q37 0 60.5 -14.5t41 -29.5t34.5 -15q14 0 22.5 13.5t14.5 39.5h93q-8 -39 -22 -75.5t-39.5 -60t-70.5 -23.5zM285 799l169 159h147l101 -159h-133l-50 85l-85 -85h-149z
M-43 0l403 740h259l89 -740h-190l-13 124h-273l-65 -124h-210zM318 288h171l-28 273z" />
    <glyph glyph-name="uni1EAB" unicode="&#x1eab;" horiz-adv-x="646" 
d="M511 782q-27 0 -47 9t-35 20.5t-28 20.5t-26 9q-26 0 -37 -53h-93q9 40 22 76t39 59.5t71 23.5q37 0 60.5 -14.5t41 -29.5t34.5 -15q14 0 22.5 13.5t14.5 39.5h93q-8 -39 -22 -75.5t-39.5 -60t-70.5 -23.5zM177 589l169 159h147l101 -159h-133l-50 85l-85 -85h-149z
M295 540q44 0 72 -12.5t44.5 -28.5t23 -28.5l6.5 -12.5h8l15 72h190l-110 -530h-190l12 58h-8l-7 -10.5t-23 -23.5t-43 -23.5t-67 -10.5q-65 0 -107.5 31t-63 82t-20.5 110q0 57 18 114.5t52.5 106t84.5 77.5t113 29zM341 389q-38 0 -65.5 -23.5t-42 -58.5t-14.5 -70
q0 -39 19.5 -67.5t61.5 -28.5q38 0 65.5 23.5t42 58.5t14.5 69q0 39 -19.5 68t-61.5 29z" />
    <glyph glyph-name="uni1EAC" unicode="&#x1eac;" horiz-adv-x="771" 
d="M285 799l169 159h147l101 -159h-133l-50 85l-85 -85h-149zM-43 0l403 740h259l89 -740h-190l-13 124h-273l-65 -124h-210zM318 288h171l-28 273zM294 -260q-40 0 -64.5 26.5t-24.5 62.5q0 37 24.5 63t64.5 26q38 0 63.5 -26t25.5 -63q0 -36 -25.5 -62.5t-63.5 -26.5z" />
    <glyph glyph-name="uni1EAD" unicode="&#x1ead;" horiz-adv-x="646" 
d="M183 589l175 189h147l95 -189h-134l-45 102l-90 -102h-148zM295 540q44 0 72 -12.5t44.5 -28.5t23 -28.5l6.5 -12.5h8l15 72h190l-110 -530h-190l12 58h-8l-7 -10.5t-23 -23.5t-43 -23.5t-67 -10.5q-65 0 -107.5 31t-63 82t-20.5 110q0 57 18 114.5t52.5 106t84.5 77.5
t113 29zM341 389q-38 0 -65.5 -23.5t-42 -58.5t-14.5 -70q0 -39 19.5 -67.5t61.5 -28.5q38 0 65.5 23.5t42 58.5t14.5 69q0 39 -19.5 68t-61.5 29zM231 -260q-40 0 -64.5 26t-24.5 63q0 38 24.5 63.5t64.5 25.5q38 0 63.5 -25.5t25.5 -63.5q0 -37 -25.5 -63t-63.5 -26z" />
    <glyph glyph-name="uni1EAE" unicode="&#x1eae;" horiz-adv-x="771" 
d="M619 1002l-133 1l77 179h170zM520 802q-58 0 -93.5 17t-54 41.5t-25 49t-6.5 41.5v17h119l-0.5 -9.5t4 -22.5t17.5 -22.5t40 -9.5q28 0 45.5 9.5t27 22.5t13 22.5l3.5 9.5h119l-3.5 -17t-14 -41.5t-33.5 -49t-61 -41.5t-97 -17zM-43 0l403 740h259l89 -740h-190l-13 124
h-273l-65 -124h-210zM318 288h171l-28 273z" />
    <glyph glyph-name="uni1EAF" unicode="&#x1eaf;" horiz-adv-x="646" 
d="M511 792l-133 1l77 179h170zM412 592q-58 0 -93.5 17t-54 41.5t-25 49t-6.5 41.5v17h119l-0.5 -9.5t4 -22.5t17.5 -22.5t40 -9.5q28 0 45.5 9.5t27 22.5t13 22.5l3.5 9.5h119l-3.5 -17t-14 -41.5t-33.5 -49t-61 -41.5t-97 -17zM295 540q44 0 72 -12.5t44.5 -28.5
t23 -28.5l6.5 -12.5h8l15 72h190l-110 -530h-190l12 58h-8l-7 -10.5t-23 -23.5t-43 -23.5t-67 -10.5q-65 0 -107.5 31t-63 82t-20.5 110q0 57 18 114.5t52.5 106t84.5 77.5t113 29zM341 389q-38 0 -65.5 -23.5t-42 -58.5t-14.5 -70q0 -39 19.5 -67.5t61.5 -28.5
q38 0 65.5 23.5t42 58.5t14.5 69q0 39 -19.5 68t-61.5 29z" />
    <glyph glyph-name="uni1EB0" unicode="&#x1eb0;" horiz-adv-x="771" 
d="M469 1002l-104 180h165l67 -179zM520 802q-58 0 -93.5 17t-54 41.5t-25 49t-6.5 41.5v17h119l-0.5 -9.5t4 -22.5t17.5 -22.5t40 -9.5q28 0 45.5 9.5t27 22.5t13 22.5l3.5 9.5h119l-3.5 -17t-14 -41.5t-33.5 -49t-61 -41.5t-97 -17zM-43 0l403 740h259l89 -740h-190
l-13 124h-273l-65 -124h-210zM318 288h171l-28 273z" />
    <glyph glyph-name="uni1EB1" unicode="&#x1eb1;" horiz-adv-x="646" 
d="M361 792l-104 180h165l67 -179zM412 592q-58 0 -93.5 17t-54 41.5t-25 49t-6.5 41.5v17h119l-0.5 -9.5t4 -22.5t17.5 -22.5t40 -9.5q28 0 45.5 9.5t27 22.5t13 22.5l3.5 9.5h119l-3.5 -17t-14 -41.5t-33.5 -49t-61 -41.5t-97 -17zM295 540q44 0 72 -12.5t44.5 -28.5
t23 -28.5l6.5 -12.5h8l15 72h190l-110 -530h-190l12 58h-8l-7 -10.5t-23 -23.5t-43 -23.5t-67 -10.5q-65 0 -107.5 31t-63 82t-20.5 110q0 57 18 114.5t52.5 106t84.5 77.5t113 29zM341 389q-38 0 -65.5 -23.5t-42 -58.5t-14.5 -70q0 -39 19.5 -67.5t61.5 -28.5
q38 0 65.5 23.5t42 58.5t14.5 69q0 39 -19.5 68t-61.5 29z" />
    <glyph glyph-name="uni1EB2" unicode="&#x1eb2;" horiz-adv-x="771" 
d="M485 988l7 33q3 14 11.5 26.5t26.5 20.5l18 8q51 23 51 47q0 11 -8 19t-23 8q-19 0 -27.5 -8.5t-10.5 -17.5l-2 -9h-101l1.5 12.5t9 31t24 37t45 31t73.5 12.5q62 0 96 -31t34 -72q0 -27 -13 -47t-31.5 -33.5t-37 -22.5t-29.5 -15l-6 -3l-6 -27h-102zM520 802
q-58 0 -93.5 17t-54 41.5t-25 49t-6.5 41.5v17h119l-0.5 -9.5t4 -22.5t17.5 -22.5t40 -9.5q28 0 45.5 9.5t27 22.5t13 22.5l3.5 9.5h119l-3.5 -17t-14 -41.5t-33.5 -49t-61 -41.5t-97 -17zM-43 0l403 740h259l89 -740h-190l-13 124h-273l-65 -124h-210zM318 288h171l-28 273
z" />
    <glyph glyph-name="uni1EB3" unicode="&#x1eb3;" horiz-adv-x="646" 
d="M377 778l7 33q3 14 11.5 26.5t26.5 20.5l18 8q51 23 51 47q0 11 -8 19t-23 8q-19 0 -27.5 -8.5t-10.5 -17.5l-2 -9h-101l1.5 12.5t9 31t24 37t45 31t73.5 12.5q62 0 96 -31t34 -72q0 -27 -13 -47t-31.5 -33.5t-37 -22.5t-29.5 -15l-6 -3l-6 -27h-102zM412 592
q-58 0 -93.5 17t-54 41.5t-25 49t-6.5 41.5v17h119l-0.5 -9.5t4 -22.5t17.5 -22.5t40 -9.5q28 0 45.5 9.5t27 22.5t13 22.5l3.5 9.5h119l-3.5 -17t-14 -41.5t-33.5 -49t-61 -41.5t-97 -17zM295 540q44 0 72 -12.5t44.5 -28.5t23 -28.5l6.5 -12.5h8l15 72h190l-110 -530h-190
l12 58h-8l-7 -10.5t-23 -23.5t-43 -23.5t-67 -10.5q-65 0 -107.5 31t-63 82t-20.5 110q0 57 18 114.5t52.5 106t84.5 77.5t113 29zM341 389q-38 0 -65.5 -23.5t-42 -58.5t-14.5 -70q0 -39 19.5 -67.5t61.5 -28.5q38 0 65.5 23.5t42 58.5t14.5 69q0 39 -19.5 68t-61.5 29z
" />
    <glyph glyph-name="uni1EB4" unicode="&#x1eb4;" horiz-adv-x="771" 
d="M634 1015q-27 0 -47 9t-35 20.5t-28 20.5t-26 9q-26 0 -37 -53h-93q9 40 22 76t39 59.5t71 23.5q37 0 60.5 -14.5t41 -29.5t34.5 -15q14 0 22.5 13.5t14.5 39.5h93q-8 -39 -22 -75.5t-39.5 -60t-70.5 -23.5zM520 802q-58 0 -93.5 17t-54 41.5t-25 49t-6.5 41.5v17h119
l-0.5 -9.5t4 -22.5t17.5 -22.5t40 -9.5q28 0 45.5 9.5t27 22.5t13 22.5l3.5 9.5h119l-3.5 -17t-14 -41.5t-33.5 -49t-61 -41.5t-97 -17zM-43 0l403 740h259l89 -740h-190l-13 124h-273l-65 -124h-210zM318 288h171l-28 273z" />
    <glyph glyph-name="uni1EB5" unicode="&#x1eb5;" horiz-adv-x="646" 
d="M526 805q-27 0 -47 9t-35 20.5t-28 20.5t-26 9q-26 0 -37 -53h-93q9 40 22 76t39 59.5t71 23.5q37 0 60.5 -14.5t41 -29.5t34.5 -15q14 0 22.5 13.5t14.5 39.5h93q-8 -39 -22 -75.5t-39.5 -60t-70.5 -23.5zM412 592q-58 0 -93.5 17t-54 41.5t-25 49t-6.5 41.5v17h119
l-0.5 -9.5t4 -22.5t17.5 -22.5t40 -9.5q28 0 45.5 9.5t27 22.5t13 22.5l3.5 9.5h119l-3.5 -17t-14 -41.5t-33.5 -49t-61 -41.5t-97 -17zM295 540q44 0 72 -12.5t44.5 -28.5t23 -28.5l6.5 -12.5h8l15 72h190l-110 -530h-190l12 58h-8l-7 -10.5t-23 -23.5t-43 -23.5t-67 -10.5
q-65 0 -107.5 31t-63 82t-20.5 110q0 57 18 114.5t52.5 106t84.5 77.5t113 29zM341 389q-38 0 -65.5 -23.5t-42 -58.5t-14.5 -70q0 -39 19.5 -67.5t61.5 -28.5q38 0 65.5 23.5t42 58.5t14.5 69q0 39 -19.5 68t-61.5 29z" />
    <glyph glyph-name="uni1EB6" unicode="&#x1eb6;" horiz-adv-x="771" 
d="M515 802q-60 0 -95 19t-51.5 46.5t-20.5 55t-3 46.5l1 19h119l-1 -12t2.5 -28.5t16 -28.5t40.5 -12q27 0 45 12t28.5 28.5t14.5 28.5l4 12h119l-4 -19t-15.5 -46.5t-35.5 -55t-64 -46.5t-100 -19zM-43 0l403 740h259l89 -740h-190l-13 124h-273l-65 -124h-210zM318 288
h171l-28 273zM294 -260q-40 0 -64.5 26.5t-24.5 62.5q0 37 24.5 63t64.5 26q38 0 63.5 -26t25.5 -63q0 -36 -25.5 -62.5t-63.5 -26.5z" />
    <glyph glyph-name="uni1EB7" unicode="&#x1eb7;" horiz-adv-x="646" 
d="M407 592q-60 0 -95 19t-51 46.5t-20.5 55t-3.5 46.5l1 19h119l-1 -12t2.5 -28.5t16 -28.5t40.5 -12q27 0 45 12t28.5 28.5t14.5 28.5l4 12h119l-4 -19t-15.5 -46.5t-35.5 -55t-64 -46.5t-100 -19zM295 540q44 0 72 -12.5t44.5 -28.5t23 -28.5l6.5 -12.5h8l15 72h190
l-110 -530h-190l12 58h-8l-7 -10.5t-23 -23.5t-43 -23.5t-67 -10.5q-65 0 -107.5 31t-63 82t-20.5 110q0 57 18 114.5t52.5 106t84.5 77.5t113 29zM341 389q-38 0 -65.5 -23.5t-42 -58.5t-14.5 -70q0 -39 19.5 -67.5t61.5 -28.5q38 0 65.5 23.5t42 58.5t14.5 69
q0 39 -19.5 68t-61.5 29zM231 -260q-40 0 -64.5 26t-24.5 63q0 38 24.5 63.5t64.5 25.5q38 0 63.5 -25.5t25.5 -63.5q0 -37 -25.5 -63t-63.5 -26z" />
    <glyph glyph-name="uni1EB8" unicode="&#x1eb8;" horiz-adv-x="636" 
d="M2 0l157 740h524l-35 -166h-332l-26 -120h288l-34 -158h-287l-28 -130h337l-35 -166h-529zM226 -260q-40 0 -64.5 26.5t-24.5 62.5q0 37 24.5 63t64.5 26q38 0 63.5 -26t25.5 -63q0 -36 -25.5 -62.5t-63.5 -26.5z" />
    <glyph glyph-name="uni1EB9" unicode="&#x1eb9;" horiz-adv-x="626" 
d="M300 -10q-90 0 -147 35t-84.5 91.5t-27.5 119.5q0 55 19.5 109t59 98t97.5 70.5t135 26.5q75 0 125 -26.5t78 -70t36 -96.5t-1 -107l-4 -23h-358q2 -43 24 -67t61 -24q31 0 49 13t26 25.5l8 12.5h178l-7.5 -19t-25 -46.5t-49 -55.5t-78.5 -47t-114 -19zM243 322h180
q5 35 -15.5 58.5t-61.5 23.5q-39 0 -66 -23t-37 -59zM237 -260q-40 0 -64.5 26.5t-24.5 62.5q0 37 24.5 63t64.5 26q38 0 63.5 -26t25.5 -63q0 -36 -25.5 -62.5t-63.5 -26.5z" />
    <glyph glyph-name="uni1EBA" unicode="&#x1eba;" horiz-adv-x="636" 
d="M376 795l7 33q3 14 11.5 26.5t26.5 20.5l18 8q51 23 51 47q0 11 -8 19t-23 8q-19 0 -27.5 -8.5t-10.5 -17.5l-2 -9h-101l1.5 12.5t9 31t24 37t45 31t73.5 12.5q62 0 96 -31t34 -72q0 -27 -13 -47t-31.5 -33.5t-37 -22.5t-29.5 -15l-6 -3l-6 -27h-102zM2 0l157 740h524
l-35 -166h-332l-26 -120h288l-34 -158h-287l-28 -130h337l-35 -166h-529z" />
    <glyph glyph-name="uni1EBB" unicode="&#x1ebb;" horiz-adv-x="626" 
d="M318 585l7 33q3 14 11.5 26.5t26.5 20.5l18 8q51 23 51 47q0 11 -8 19t-23 8q-19 0 -27.5 -8.5t-10.5 -17.5l-2 -9h-101l1.5 12.5t9 31t24 37t45 31t73.5 12.5q62 0 96 -31t34 -72q0 -27 -13 -47t-31.5 -33.5t-37 -22.5t-29.5 -15l-6 -3l-6 -27h-102zM300 -10
q-90 0 -147 35t-84.5 91.5t-27.5 119.5q0 55 19.5 109t59 98t97.5 70.5t135 26.5q75 0 125 -26.5t78 -70t36 -96.5t-1 -107l-4 -23h-358q2 -43 24 -67t61 -24q31 0 49 13t26 25.5l8 12.5h178l-7.5 -19t-25 -46.5t-49 -55.5t-78.5 -47t-114 -19zM243 322h180q5 35 -15.5 58.5
t-61.5 23.5q-39 0 -66 -23t-37 -59z" />
    <glyph glyph-name="uni1EBC" unicode="&#x1ebc;" horiz-adv-x="636" 
d="M525 822q-27 0 -47 9t-35 20.5t-28 20.5t-26 9q-26 0 -37 -53h-93q9 40 22 76t39 59.5t71 23.5q37 0 60.5 -14.5t41 -29.5t34.5 -15q14 0 22.5 13.5t14.5 39.5h93q-8 -39 -22 -75.5t-39.5 -60t-70.5 -23.5zM2 0l157 740h524l-35 -166h-332l-26 -120h288l-34 -158h-287
l-28 -130h337l-35 -166h-529z" />
    <glyph glyph-name="uni1EBD" unicode="&#x1ebd;" horiz-adv-x="626" 
d="M467 612q-27 0 -47 9t-35 20.5t-28 20.5t-26 9q-26 0 -37 -53h-93q9 40 22 76t39 59.5t71 23.5q37 0 60.5 -14.5t41 -29.5t34.5 -15q14 0 22.5 13.5t14.5 39.5h93q-8 -39 -22 -75.5t-39.5 -60t-70.5 -23.5zM300 -10q-90 0 -147 35t-84.5 91.5t-27.5 119.5q0 55 19.5 109
t59 98t97.5 70.5t135 26.5q75 0 125 -26.5t78 -70t36 -96.5t-1 -107l-4 -23h-358q2 -43 24 -67t61 -24q31 0 49 13t26 25.5l8 12.5h178l-7.5 -19t-25 -46.5t-49 -55.5t-78.5 -47t-114 -19zM243 322h180q5 35 -15.5 58.5t-61.5 23.5q-39 0 -66 -23t-37 -59z" />
    <glyph glyph-name="uni1EBE" unicode="&#x1ebe;" horiz-adv-x="636" 
d="M733 929l-133 1l77 179h170zM217 799l169 159h147l101 -159h-133l-50 85l-85 -85h-149zM2 0l157 740h524l-35 -166h-332l-26 -120h288l-34 -158h-287l-28 -130h337l-35 -166h-529z" />
    <glyph glyph-name="uni1EBF" unicode="&#x1ebf;" horiz-adv-x="626" 
d="M675 719l-133 1l77 179h170zM159 589l169 159h147l101 -159h-133l-50 85l-85 -85h-149zM300 -10q-90 0 -147 35t-84.5 91.5t-27.5 119.5q0 55 19.5 109t59 98t97.5 70.5t135 26.5q75 0 125 -26.5t78 -70t36 -96.5t-1 -107l-4 -23h-358q2 -43 24 -67t61 -24q31 0 49 13
t26 25.5l8 12.5h178l-7.5 -19t-25 -46.5t-49 -55.5t-78.5 -47t-114 -19zM243 322h180q5 35 -15.5 58.5t-61.5 23.5q-39 0 -66 -23t-37 -59z" />
    <glyph glyph-name="uni1EC0" unicode="&#x1ec0;" horiz-adv-x="636" 
d="M607 929l-104 180h165l67 -179zM217 799l169 159h147l101 -159h-133l-50 85l-85 -85h-149zM2 0l157 740h524l-35 -166h-332l-26 -120h288l-34 -158h-287l-28 -130h337l-35 -166h-529z" />
    <glyph glyph-name="uni1EC1" unicode="&#x1ec1;" horiz-adv-x="626" 
d="M549 719l-104 180h165l67 -179zM159 589l169 159h147l101 -159h-133l-50 85l-85 -85h-149zM300 -10q-90 0 -147 35t-84.5 91.5t-27.5 119.5q0 55 19.5 109t59 98t97.5 70.5t135 26.5q75 0 125 -26.5t78 -70t36 -96.5t-1 -107l-4 -23h-358q2 -43 24 -67t61 -24q31 0 49 13
t26 25.5l8 12.5h178l-7.5 -19t-25 -46.5t-49 -55.5t-78.5 -47t-114 -19zM243 322h180q5 35 -15.5 58.5t-61.5 23.5q-39 0 -66 -23t-37 -59z" />
    <glyph glyph-name="uni1EC2" unicode="&#x1ec2;" horiz-adv-x="636" 
d="M598 907l7 33q3 14 11.5 26.5t26.5 20.5l18 8q51 23 51 47q0 11 -8 19t-23 8q-19 0 -27.5 -8.5t-10.5 -17.5l-2 -9h-101l1.5 12.5t9 31t24 37t45 31t73.5 12.5q62 0 96 -31t34 -72q0 -27 -13 -47t-31.5 -33.5t-37 -22.5t-29.5 -15l-6 -3l-6 -27h-102zM217 799l169 159
h147l101 -159h-133l-50 85l-85 -85h-149zM2 0l157 740h524l-35 -166h-332l-26 -120h288l-34 -158h-287l-28 -130h337l-35 -166h-529z" />
    <glyph glyph-name="uni1EC3" unicode="&#x1ec3;" horiz-adv-x="626" 
d="M540 697l7 33q3 14 11.5 26.5t26.5 20.5l18 8q51 23 51 47q0 11 -8 19t-23 8q-19 0 -27.5 -8.5t-10.5 -17.5l-2 -9h-101l1.5 12.5t9 31t24 37t45 31t73.5 12.5q62 0 96 -31t34 -72q0 -27 -13 -47t-31.5 -33.5t-37 -22.5t-29.5 -15l-6 -3l-6 -27h-102zM159 589l169 159
h147l101 -159h-133l-50 85l-85 -85h-149zM300 -10q-90 0 -147 35t-84.5 91.5t-27.5 119.5q0 55 19.5 109t59 98t97.5 70.5t135 26.5q75 0 125 -26.5t78 -70t36 -96.5t-1 -107l-4 -23h-358q2 -43 24 -67t61 -24q31 0 49 13t26 25.5l8 12.5h178l-7.5 -19t-25 -46.5t-49 -55.5
t-78.5 -47t-114 -19zM243 322h180q5 35 -15.5 58.5t-61.5 23.5q-39 0 -66 -23t-37 -59z" />
    <glyph glyph-name="uni1EC4" unicode="&#x1ec4;" horiz-adv-x="636" 
d="M551 992q-27 0 -47 9t-35 20.5t-28 20.5t-26 9q-26 0 -37 -53h-93q9 40 22 76t39 59.5t71 23.5q37 0 60.5 -14.5t41 -29.5t34.5 -15q14 0 22.5 13.5t14.5 39.5h93q-8 -39 -22 -75.5t-39.5 -60t-70.5 -23.5zM217 799l169 159h147l101 -159h-133l-50 85l-85 -85h-149zM2 0
l157 740h524l-35 -166h-332l-26 -120h288l-34 -158h-287l-28 -130h337l-35 -166h-529z" />
    <glyph glyph-name="uni1EC5" unicode="&#x1ec5;" horiz-adv-x="626" 
d="M493 782q-27 0 -47 9t-35 20.5t-28 20.5t-26 9q-26 0 -37 -53h-93q9 40 22 76t39 59.5t71 23.5q37 0 60.5 -14.5t41 -29.5t34.5 -15q14 0 22.5 13.5t14.5 39.5h93q-8 -39 -22 -75.5t-39.5 -60t-70.5 -23.5zM159 589l169 159h147l101 -159h-133l-50 85l-85 -85h-149z
M300 -10q-90 0 -147 35t-84.5 91.5t-27.5 119.5q0 55 19.5 109t59 98t97.5 70.5t135 26.5q75 0 125 -26.5t78 -70t36 -96.5t-1 -107l-4 -23h-358q2 -43 24 -67t61 -24q31 0 49 13t26 25.5l8 12.5h178l-7.5 -19t-25 -46.5t-49 -55.5t-78.5 -47t-114 -19zM243 322h180
q5 35 -15.5 58.5t-61.5 23.5q-39 0 -66 -23t-37 -59z" />
    <glyph glyph-name="uni1EC6" unicode="&#x1ec6;" horiz-adv-x="636" 
d="M217 799l169 159h147l101 -159h-133l-50 85l-85 -85h-149zM2 0l157 740h524l-35 -166h-332l-26 -120h288l-34 -158h-287l-28 -130h337l-35 -166h-529zM226 -260q-40 0 -64.5 26.5t-24.5 62.5q0 37 24.5 63t64.5 26q38 0 63.5 -26t25.5 -63q0 -36 -25.5 -62.5t-63.5 -26.5
z" />
    <glyph glyph-name="uni1EC7" unicode="&#x1ec7;" horiz-adv-x="626" 
d="M165 589l175 189h147l95 -189h-134l-45 102l-90 -102h-148zM300 -10q-90 0 -147 35t-84.5 91.5t-27.5 119.5q0 55 19.5 109t59 98t97.5 70.5t135 26.5q75 0 125 -26.5t78 -70t36 -96.5t-1 -107l-4 -23h-358q2 -43 24 -67t61 -24q31 0 49 13t26 25.5l8 12.5h178l-7.5 -19
t-25 -46.5t-49 -55.5t-78.5 -47t-114 -19zM243 322h180q5 35 -15.5 58.5t-61.5 23.5q-39 0 -66 -23t-37 -59zM237 -260q-40 0 -64.5 26.5t-24.5 62.5q0 37 24.5 63t64.5 26q38 0 63.5 -26t25.5 -63q0 -36 -25.5 -62.5t-63.5 -26.5z" />
    <glyph glyph-name="uni1EC8" unicode="&#x1ec8;" horiz-adv-x="311" 
d="M211 791l7 33q3 14 11.5 26.5t26.5 20.5l18 8q51 23 51 47q0 11 -8 19t-23 8q-19 0 -27.5 -8.5t-10.5 -17.5l-2 -9h-101l1.5 12.5t9 31t24 37t45 31t73.5 12.5q62 0 96 -31t34 -72q0 -27 -13 -47t-31.5 -33.5t-37 -22.5t-29.5 -15l-6 -3l-6 -27h-102zM2 0l157 740h192
l-157 -740h-192z" />
    <glyph glyph-name="uni1EC9" unicode="&#x1ec9;" horiz-adv-x="320" 
d="M170 585l7 33q3 14 11.5 26.5t26.5 20.5l18 8q51 23 51 47q0 11 -8 19t-23 8q-19 0 -27.5 -8.5t-10.5 -17.5l-2 -9h-101l1.5 12.5t9 31t24 37t45 31t73.5 12.5q62 0 96 -31t34 -72q0 -27 -13 -47t-31.5 -33.5t-37 -22.5t-29.5 -15l-6 -3l-6 -27h-102zM5 0l113 530h190
l-113 -530h-190z" />
    <glyph glyph-name="uni1ECA" unicode="&#x1eca;" horiz-adv-x="311" 
d="M2 0l157 740h192l-157 -740h-192zM62 -260q-40 0 -64.5 26.5t-24.5 62.5q0 37 24.5 63t64.5 26q38 0 63.5 -26t25.5 -63q0 -36 -25.5 -62.5t-63.5 -26.5z" />
    <glyph glyph-name="uni1ECB" unicode="&#x1ecb;" horiz-adv-x="320" 
d="M246 583q-47 0 -77.5 30.5t-30.5 72.5q0 44 30.5 74t77.5 30t78 -30t31 -74q0 -42 -31 -72.5t-78 -30.5zM5 0l113 530h190l-113 -530h-190zM64 -260q-40 0 -64.5 26.5t-24.5 62.5q0 37 24.5 63t64.5 26q38 0 63.5 -26t25.5 -63q0 -36 -25.5 -62.5t-63.5 -26.5z" />
    <glyph glyph-name="uni1ECC" unicode="&#x1ecc;" horiz-adv-x="825" 
d="M397 -10q-87 0 -151 27.5t-106 75t-62.5 108t-20.5 126.5q0 76 27 151t80 136.5t130.5 98.5t178.5 37q87 0 151 -27.5t106 -75t62.5 -108t20.5 -126.5q0 -76 -27 -151t-80 -136.5t-130.5 -98.5t-178.5 -37zM405 161q51 0 91 22t67 58.5t41.5 80.5t14.5 87q0 45 -16.5 84
t-50 62.5t-86.5 23.5q-51 0 -91 -22t-67 -58.5t-41.5 -80t-14.5 -87.5q0 -45 16.5 -83.5t50.5 -62.5t86 -24zM330 -260q-40 0 -64.5 26.5t-24.5 62.5q0 37 24.5 63t64.5 26q38 0 63.5 -26t25.5 -63q0 -36 -25.5 -62.5t-63.5 -26.5z" />
    <glyph glyph-name="uni1ECD" unicode="&#x1ecd;" horiz-adv-x="650" 
d="M303 -10q-90 0 -148 35t-86.5 91t-28.5 119q0 55 20.5 109t60.5 98.5t99.5 71t136.5 26.5q89 0 147.5 -35t87 -90.5t28.5 -119.5q0 -55 -21 -109t-61 -98.5t-99 -71t-136 -26.5zM310 142q36 0 62 21.5t40 56t14 73.5q0 38 -19 66.5t-60 28.5q-35 0 -61.5 -21.5t-40.5 -56
t-14 -73.5q0 -38 19 -66.5t60 -28.5zM241 -260q-40 0 -64.5 26.5t-24.5 62.5q0 37 24.5 63t64.5 26q38 0 63.5 -26t25.5 -63q0 -36 -25.5 -62.5t-63.5 -26.5z" />
    <glyph glyph-name="uni1ECE" unicode="&#x1ece;" horiz-adv-x="825" 
d="M441 795l7 33q3 14 11.5 26.5t26.5 20.5l18 8q51 23 51 47q0 11 -8 19t-23 8q-19 0 -27.5 -8.5t-10.5 -17.5l-2 -9h-101l1.5 12.5t9 31t24 37t45 31t73.5 12.5q62 0 96 -31t34 -72q0 -27 -13 -47t-31.5 -33.5t-37 -22.5t-29.5 -15l-6 -3l-6 -27h-102zM397 -10
q-87 0 -151 27.5t-106 75t-62.5 108t-20.5 126.5q0 76 27 151t80 136.5t130.5 98.5t178.5 37q87 0 151 -27.5t106 -75t62.5 -108t20.5 -126.5q0 -76 -27 -151t-80 -136.5t-130.5 -98.5t-178.5 -37zM405 161q51 0 91 22t67 58.5t41.5 80.5t14.5 87q0 45 -16.5 84t-50 62.5
t-86.5 23.5q-51 0 -91 -22t-67 -58.5t-41.5 -80t-14.5 -87.5q0 -45 16.5 -83.5t50.5 -62.5t86 -24z" />
    <glyph glyph-name="uni1ECF" unicode="&#x1ecf;" horiz-adv-x="650" 
d="M326 585l7 33q3 14 11.5 26.5t26.5 20.5l18 8q51 23 51 47q0 11 -8 19t-23 8q-19 0 -27.5 -8.5t-10.5 -17.5l-2 -9h-101l1.5 12.5t9 31t24 37t45 31t73.5 12.5q62 0 96 -31t34 -72q0 -27 -13 -47t-31.5 -33.5t-37 -22.5t-29.5 -15l-6 -3l-6 -27h-102zM303 -10
q-90 0 -148 35t-86.5 91t-28.5 119q0 55 20.5 109t60.5 98.5t99.5 71t136.5 26.5q89 0 147.5 -35t87 -90.5t28.5 -119.5q0 -55 -21 -109t-61 -98.5t-99 -71t-136 -26.5zM310 142q36 0 62 21.5t40 56t14 73.5q0 38 -19 66.5t-60 28.5q-35 0 -61.5 -21.5t-40.5 -56t-14 -73.5
q0 -38 19 -66.5t60 -28.5z" />
    <glyph glyph-name="uni1ED0" unicode="&#x1ed0;" horiz-adv-x="825" 
d="M798 929l-133 1l77 179h170zM282 799l169 159h147l101 -159h-133l-50 85l-85 -85h-149zM397 -10q-87 0 -151 27.5t-106 75t-62.5 108t-20.5 126.5q0 76 27 151t80 136.5t130.5 98.5t178.5 37q87 0 151 -27.5t106 -75t62.5 -108t20.5 -126.5q0 -76 -27 -151t-80 -136.5
t-130.5 -98.5t-178.5 -37zM405 161q51 0 91 22t67 58.5t41.5 80.5t14.5 87q0 45 -16.5 84t-50 62.5t-86.5 23.5q-51 0 -91 -22t-67 -58.5t-41.5 -80t-14.5 -87.5q0 -45 16.5 -83.5t50.5 -62.5t86 -24z" />
    <glyph glyph-name="uni1ED1" unicode="&#x1ed1;" horiz-adv-x="650" 
d="M683 719l-133 1l77 179h170zM167 589l169 159h147l101 -159h-133l-50 85l-85 -85h-149zM303 -10q-90 0 -148 35t-86.5 91t-28.5 119q0 55 20.5 109t60.5 98.5t99.5 71t136.5 26.5q89 0 147.5 -35t87 -90.5t28.5 -119.5q0 -55 -21 -109t-61 -98.5t-99 -71t-136 -26.5z
M310 142q36 0 62 21.5t40 56t14 73.5q0 38 -19 66.5t-60 28.5q-35 0 -61.5 -21.5t-40.5 -56t-14 -73.5q0 -38 19 -66.5t60 -28.5z" />
    <glyph glyph-name="uni1ED2" unicode="&#x1ed2;" horiz-adv-x="825" 
d="M672 929l-104 180h165l67 -179zM282 799l169 159h147l101 -159h-133l-50 85l-85 -85h-149zM397 -10q-87 0 -151 27.5t-106 75t-62.5 108t-20.5 126.5q0 76 27 151t80 136.5t130.5 98.5t178.5 37q87 0 151 -27.5t106 -75t62.5 -108t20.5 -126.5q0 -76 -27 -151t-80 -136.5
t-130.5 -98.5t-178.5 -37zM405 161q51 0 91 22t67 58.5t41.5 80.5t14.5 87q0 45 -16.5 84t-50 62.5t-86.5 23.5q-51 0 -91 -22t-67 -58.5t-41.5 -80t-14.5 -87.5q0 -45 16.5 -83.5t50.5 -62.5t86 -24z" />
    <glyph glyph-name="uni1ED3" unicode="&#x1ed3;" horiz-adv-x="650" 
d="M557 719l-104 180h165l67 -179zM167 589l169 159h147l101 -159h-133l-50 85l-85 -85h-149zM303 -10q-90 0 -148 35t-86.5 91t-28.5 119q0 55 20.5 109t60.5 98.5t99.5 71t136.5 26.5q89 0 147.5 -35t87 -90.5t28.5 -119.5q0 -55 -21 -109t-61 -98.5t-99 -71t-136 -26.5z
M310 142q36 0 62 21.5t40 56t14 73.5q0 38 -19 66.5t-60 28.5q-35 0 -61.5 -21.5t-40.5 -56t-14 -73.5q0 -38 19 -66.5t60 -28.5z" />
    <glyph glyph-name="uni1ED4" unicode="&#x1ed4;" horiz-adv-x="825" 
d="M663 907l7 33q3 14 11.5 26.5t26.5 20.5l18 8q51 23 51 47q0 11 -8 19t-23 8q-19 0 -27.5 -8.5t-10.5 -17.5l-2 -9h-101l1.5 12.5t9 31t24 37t45 31t73.5 12.5q62 0 96 -31t34 -72q0 -27 -13 -47t-31.5 -33.5t-37 -22.5t-29.5 -15l-6 -3l-6 -27h-102zM282 799l169 159
h147l101 -159h-133l-50 85l-85 -85h-149zM397 -10q-87 0 -151 27.5t-106 75t-62.5 108t-20.5 126.5q0 76 27 151t80 136.5t130.5 98.5t178.5 37q87 0 151 -27.5t106 -75t62.5 -108t20.5 -126.5q0 -76 -27 -151t-80 -136.5t-130.5 -98.5t-178.5 -37zM405 161q51 0 91 22
t67 58.5t41.5 80.5t14.5 87q0 45 -16.5 84t-50 62.5t-86.5 23.5q-51 0 -91 -22t-67 -58.5t-41.5 -80t-14.5 -87.5q0 -45 16.5 -83.5t50.5 -62.5t86 -24z" />
    <glyph glyph-name="uni1ED5" unicode="&#x1ed5;" horiz-adv-x="650" 
d="M548 697l7 33q3 14 11.5 26.5t26.5 20.5l18 8q51 23 51 47q0 11 -8 19t-23 8q-19 0 -27.5 -8.5t-10.5 -17.5l-2 -9h-101l1.5 12.5t9 31t24 37t45 31t73.5 12.5q62 0 96 -31t34 -72q0 -27 -13 -47t-31.5 -33.5t-37 -22.5t-29.5 -15l-6 -3l-6 -27h-102zM167 589l169 159
h147l101 -159h-133l-50 85l-85 -85h-149zM303 -10q-90 0 -148 35t-86.5 91t-28.5 119q0 55 20.5 109t60.5 98.5t99.5 71t136.5 26.5q89 0 147.5 -35t87 -90.5t28.5 -119.5q0 -55 -21 -109t-61 -98.5t-99 -71t-136 -26.5zM310 142q36 0 62 21.5t40 56t14 73.5q0 38 -19 66.5
t-60 28.5q-35 0 -61.5 -21.5t-40.5 -56t-14 -73.5q0 -38 19 -66.5t60 -28.5z" />
    <glyph glyph-name="uni1ED6" unicode="&#x1ed6;" horiz-adv-x="825" 
d="M616 992q-27 0 -47 9t-35 20.5t-28 20.5t-26 9q-26 0 -37 -53h-93q9 40 22 76t39 59.5t71 23.5q37 0 60.5 -14.5t41 -29.5t34.5 -15q14 0 22.5 13.5t14.5 39.5h93q-8 -39 -22 -75.5t-39.5 -60t-70.5 -23.5zM282 799l169 159h147l101 -159h-133l-50 85l-85 -85h-149z
M397 -10q-87 0 -151 27.5t-106 75t-62.5 108t-20.5 126.5q0 76 27 151t80 136.5t130.5 98.5t178.5 37q87 0 151 -27.5t106 -75t62.5 -108t20.5 -126.5q0 -76 -27 -151t-80 -136.5t-130.5 -98.5t-178.5 -37zM405 161q51 0 91 22t67 58.5t41.5 80.5t14.5 87q0 45 -16.5 84
t-50 62.5t-86.5 23.5q-51 0 -91 -22t-67 -58.5t-41.5 -80t-14.5 -87.5q0 -45 16.5 -83.5t50.5 -62.5t86 -24z" />
    <glyph glyph-name="uni1ED7" unicode="&#x1ed7;" horiz-adv-x="650" 
d="M501 782q-27 0 -47 9t-35 20.5t-28 20.5t-26 9q-26 0 -37 -53h-93q9 40 22 76t39 59.5t71 23.5q37 0 60.5 -14.5t41 -29.5t34.5 -15q14 0 22.5 13.5t14.5 39.5h93q-8 -39 -22 -75.5t-39.5 -60t-70.5 -23.5zM167 589l169 159h147l101 -159h-133l-50 85l-85 -85h-149z
M303 -10q-90 0 -148 35t-86.5 91t-28.5 119q0 55 20.5 109t60.5 98.5t99.5 71t136.5 26.5q89 0 147.5 -35t87 -90.5t28.5 -119.5q0 -55 -21 -109t-61 -98.5t-99 -71t-136 -26.5zM310 142q36 0 62 21.5t40 56t14 73.5q0 38 -19 66.5t-60 28.5q-35 0 -61.5 -21.5t-40.5 -56
t-14 -73.5q0 -38 19 -66.5t60 -28.5z" />
    <glyph glyph-name="uni1ED8" unicode="&#x1ed8;" horiz-adv-x="825" 
d="M282 799l169 159h147l101 -159h-133l-50 85l-85 -85h-149zM397 -10q-87 0 -151 27.5t-106 75t-62.5 108t-20.5 126.5q0 76 27 151t80 136.5t130.5 98.5t178.5 37q87 0 151 -27.5t106 -75t62.5 -108t20.5 -126.5q0 -76 -27 -151t-80 -136.5t-130.5 -98.5t-178.5 -37z
M405 161q51 0 91 22t67 58.5t41.5 80.5t14.5 87q0 45 -16.5 84t-50 62.5t-86.5 23.5q-51 0 -91 -22t-67 -58.5t-41.5 -80t-14.5 -87.5q0 -45 16.5 -83.5t50.5 -62.5t86 -24zM330 -260q-40 0 -64.5 26.5t-24.5 62.5q0 37 24.5 63t64.5 26q38 0 63.5 -26t25.5 -63
q0 -36 -25.5 -62.5t-63.5 -26.5z" />
    <glyph glyph-name="uni1ED9" unicode="&#x1ed9;" horiz-adv-x="650" 
d="M173 589l175 189h147l95 -189h-134l-45 102l-90 -102h-148zM303 -10q-90 0 -148 35t-86.5 91t-28.5 119q0 55 20.5 109t60.5 98.5t99.5 71t136.5 26.5q89 0 147.5 -35t87 -90.5t28.5 -119.5q0 -55 -21 -109t-61 -98.5t-99 -71t-136 -26.5zM310 142q36 0 62 21.5t40 56
t14 73.5q0 38 -19 66.5t-60 28.5q-35 0 -61.5 -21.5t-40.5 -56t-14 -73.5q0 -38 19 -66.5t60 -28.5zM241 -260q-40 0 -64.5 26.5t-24.5 62.5q0 37 24.5 63t64.5 26q38 0 63.5 -26t25.5 -63q0 -36 -25.5 -62.5t-63.5 -26.5z" />
    <glyph glyph-name="uni1EDA" unicode="&#x1eda;" horiz-adv-x="825" 
d="M575 809l-133 1l77 179h170zM397 -10q-87 0 -151 27.5t-106 75t-62.5 108t-20.5 126.5q0 76 27 151t80 136.5t130.5 98.5t178.5 37h14v0h178q42 0 51 40l17 78h157l-23 -107q-11 -52 -43 -80.5t-95 -28.5h-3q44 -47 65.5 -109.5t21.5 -129.5q0 -76 -27 -151t-80 -136.5
t-130.5 -98.5t-178.5 -37zM405 161q51 0 91 22t67 58.5t41.5 80.5t14.5 87q0 45 -16.5 84t-50 62.5t-86.5 23.5q-51 0 -91 -22t-67 -58.5t-41.5 -80t-14.5 -87.5q0 -45 16.5 -83.5t50.5 -62.5t86 -24z" />
    <glyph glyph-name="uni1EDB" unicode="&#x1edb;" horiz-adv-x="650" 
d="M460 599l-133 1l77 179h170zM303 -10q-90 0 -148 35t-86.5 91t-28.5 119q0 55 20.5 109t60.5 98.5t99.5 71t136.5 26.5h138q42 0 51 40l17 78h147l-20 -97q-10 -48 -39 -76.5t-85 -32.5q27 -32 40.5 -73t13.5 -84q0 -55 -21 -109t-61 -98.5t-99 -71t-136 -26.5zM310 142
q36 0 62 21.5t40 56t14 73.5q0 38 -19 66.5t-60 28.5q-35 0 -61.5 -21.5t-40.5 -56t-14 -73.5q0 -38 19 -66.5t60 -28.5z" />
    <glyph glyph-name="uni1EDC" unicode="&#x1edc;" horiz-adv-x="825" 
d="M425 809l-104 180h165l67 -179zM397 -10q-87 0 -151 27.5t-106 75t-62.5 108t-20.5 126.5q0 76 27 151t80 136.5t130.5 98.5t178.5 37h14v0h178q42 0 51 40l17 78h157l-23 -107q-11 -52 -43 -80.5t-95 -28.5h-3q44 -47 65.5 -109.5t21.5 -129.5q0 -76 -27 -151
t-80 -136.5t-130.5 -98.5t-178.5 -37zM405 161q51 0 91 22t67 58.5t41.5 80.5t14.5 87q0 45 -16.5 84t-50 62.5t-86.5 23.5q-51 0 -91 -22t-67 -58.5t-41.5 -80t-14.5 -87.5q0 -45 16.5 -83.5t50.5 -62.5t86 -24z" />
    <glyph glyph-name="uni1EDD" unicode="&#x1edd;" horiz-adv-x="650" 
d="M310 599l-104 180h165l67 -179zM303 -10q-90 0 -148 35t-86.5 91t-28.5 119q0 55 20.5 109t60.5 98.5t99.5 71t136.5 26.5h138q42 0 51 40l17 78h147l-20 -97q-10 -48 -39 -76.5t-85 -32.5q27 -32 40.5 -73t13.5 -84q0 -55 -21 -109t-61 -98.5t-99 -71t-136 -26.5z
M310 142q36 0 62 21.5t40 56t14 73.5q0 38 -19 66.5t-60 28.5q-35 0 -61.5 -21.5t-40.5 -56t-14 -73.5q0 -38 19 -66.5t60 -28.5z" />
    <glyph glyph-name="uni1EDE" unicode="&#x1ede;" horiz-adv-x="825" 
d="M441 795l7 33q3 14 11.5 26.5t26.5 20.5l18 8q51 23 51 47q0 11 -8 19t-23 8q-19 0 -27.5 -8.5t-10.5 -17.5l-2 -9h-101l1.5 12.5t9 31t24 37t45 31t73.5 12.5q62 0 96 -31t34 -72q0 -27 -13 -47t-31.5 -33.5t-37 -22.5t-29.5 -15l-6 -3l-6 -27h-102zM397 -10
q-87 0 -151 27.5t-106 75t-62.5 108t-20.5 126.5q0 76 27 151t80 136.5t130.5 98.5t178.5 37h14v0h178q42 0 51 40l17 78h157l-23 -107q-11 -52 -43 -80.5t-95 -28.5h-3q44 -47 65.5 -109.5t21.5 -129.5q0 -76 -27 -151t-80 -136.5t-130.5 -98.5t-178.5 -37zM405 161
q51 0 91 22t67 58.5t41.5 80.5t14.5 87q0 45 -16.5 84t-50 62.5t-86.5 23.5q-51 0 -91 -22t-67 -58.5t-41.5 -80t-14.5 -87.5q0 -45 16.5 -83.5t50.5 -62.5t86 -24z" />
    <glyph glyph-name="uni1EDF" unicode="&#x1edf;" horiz-adv-x="650" 
d="M326 585l7 33q3 14 11.5 26.5t26.5 20.5l18 8q51 23 51 47q0 11 -8 19t-23 8q-19 0 -27.5 -8.5t-10.5 -17.5l-2 -9h-101l1.5 12.5t9 31t24 37t45 31t73.5 12.5q62 0 96 -31t34 -72q0 -27 -13 -47t-31.5 -33.5t-37 -22.5t-29.5 -15l-6 -3l-6 -27h-102zM303 -10
q-90 0 -148 35t-86.5 91t-28.5 119q0 55 20.5 109t60.5 98.5t99.5 71t136.5 26.5h138q42 0 51 40l17 78h147l-20 -97q-10 -48 -39 -76.5t-85 -32.5q27 -32 40.5 -73t13.5 -84q0 -55 -21 -109t-61 -98.5t-99 -71t-136 -26.5zM310 142q36 0 62 21.5t40 56t14 73.5
q0 38 -19 66.5t-60 28.5q-35 0 -61.5 -21.5t-40.5 -56t-14 -73.5q0 -38 19 -66.5t60 -28.5z" />
    <glyph glyph-name="uni1EE0" unicode="&#x1ee0;" horiz-adv-x="825" 
d="M590 822q-27 0 -47 9t-35 20.5t-28 20.5t-26 9q-26 0 -37 -53h-93q9 40 22 76t39 59.5t71 23.5q37 0 60.5 -14.5t41 -29.5t34.5 -15q14 0 22.5 13.5t14.5 39.5h93q-8 -39 -22 -75.5t-39.5 -60t-70.5 -23.5zM397 -10q-87 0 -151 27.5t-106 75t-62.5 108t-20.5 126.5
q0 76 27 151t80 136.5t130.5 98.5t178.5 37h14v0h178q42 0 51 40l17 78h157l-23 -107q-11 -52 -43 -80.5t-95 -28.5h-3q44 -47 65.5 -109.5t21.5 -129.5q0 -76 -27 -151t-80 -136.5t-130.5 -98.5t-178.5 -37zM405 161q51 0 91 22t67 58.5t41.5 80.5t14.5 87q0 45 -16.5 84
t-50 62.5t-86.5 23.5q-51 0 -91 -22t-67 -58.5t-41.5 -80t-14.5 -87.5q0 -45 16.5 -83.5t50.5 -62.5t86 -24z" />
    <glyph glyph-name="uni1EE1" unicode="&#x1ee1;" horiz-adv-x="640" 
d="M437 612q-25 0 -43.5 9t-32.5 20.5t-25.5 20.5t-23.5 9q-13 0 -21 -13.5t-14 -39.5h-93q9 39 21.5 75.5t38 60t70.5 23.5q34 0 56 -14.5t38.5 -29.5t31.5 -15q13 0 20.5 13.5t14.5 39.5h93q-8 -39 -21.5 -75.5t-39 -60t-70.5 -23.5zM303 -10q-90 0 -148 35t-86.5 91
t-28.5 119q0 55 20.5 109t60.5 98.5t99.5 71t136.5 26.5h138q42 0 51 40l17 78h147l-20 -97q-10 -48 -39 -76.5t-85 -32.5q27 -32 40.5 -73t13.5 -84q0 -55 -21 -109t-61 -98.5t-99 -71t-136 -26.5zM310 142q36 0 62 21.5t40 56t14 73.5q0 38 -19 66.5t-60 28.5
q-35 0 -61.5 -21.5t-40.5 -56t-14 -73.5q0 -38 19 -66.5t60 -28.5z" />
    <glyph glyph-name="uni1EE2" unicode="&#x1ee2;" horiz-adv-x="825" 
d="M397 -10q-87 0 -151 27.5t-106 75t-62.5 108t-20.5 126.5q0 76 27 151t80 136.5t130.5 98.5t178.5 37h14v0h178q42 0 51 40l17 78h157l-23 -107q-11 -52 -43 -80.5t-95 -28.5h-3q44 -47 65.5 -109.5t21.5 -129.5q0 -76 -27 -151t-80 -136.5t-130.5 -98.5t-178.5 -37z
M405 161q51 0 91 22t67 58.5t41.5 80.5t14.5 87q0 45 -16.5 84t-50 62.5t-86.5 23.5q-51 0 -91 -22t-67 -58.5t-41.5 -80t-14.5 -87.5q0 -45 16.5 -83.5t50.5 -62.5t86 -24zM321 -260q-40 0 -64.5 26.5t-24.5 62.5q0 37 24.5 63t64.5 26q38 0 63.5 -26t25.5 -63
q0 -36 -25.5 -62.5t-63.5 -26.5z" />
    <glyph glyph-name="uni1EE3" unicode="&#x1ee3;" horiz-adv-x="650" 
d="M303 -10q-90 0 -148 35t-86.5 91t-28.5 119q0 55 20.5 109t60.5 98.5t99.5 71t136.5 26.5h138q42 0 51 40l17 78h147l-20 -97q-10 -48 -39 -76.5t-85 -32.5q27 -32 40.5 -73t13.5 -84q0 -55 -21 -109t-61 -98.5t-99 -71t-136 -26.5zM310 142q36 0 62 21.5t40 56t14 73.5
q0 38 -19 66.5t-60 28.5q-35 0 -61.5 -21.5t-40.5 -56t-14 -73.5q0 -38 19 -66.5t60 -28.5zM280 -260q-40 0 -64.5 26.5t-24.5 62.5q0 37 24.5 63t64.5 26q38 0 63.5 -26t25.5 -63q0 -36 -25.5 -62.5t-63.5 -26.5z" />
    <glyph glyph-name="uni1EE4" unicode="&#x1ee4;" horiz-adv-x="736" 
d="M321 -10q-56 0 -109 18t-92 57t-54 102t4 153l89 420h192l-89 -420q-15 -71 9.5 -110.5t83.5 -39.5q58 0 90.5 38.5t48.5 111.5l89 420h192l-93 -440q-25 -119 -78 -187t-125.5 -95.5t-157.5 -27.5zM263 -260q-40 0 -64.5 26.5t-24.5 62.5q0 37 24.5 63t64.5 26
q38 0 63.5 -26t25.5 -63q0 -36 -25.5 -62.5t-63.5 -26.5z" />
    <glyph glyph-name="uni1EE5" unicode="&#x1ee5;" horiz-adv-x="609" 
d="M159 -10q-75 0 -107.5 56.5t-12.5 150.5l71 333h190l-66 -311q-7 -36 4.5 -56t42.5 -20q32 0 51.5 21t26.5 55l66 311h190l-112 -530h-190l15 75h-6q-30 -40 -71.5 -62.5t-91.5 -22.5zM215 -260q-40 0 -64.5 26.5t-24.5 62.5q0 37 24.5 63t64.5 26q38 0 63.5 -26
t25.5 -63q0 -36 -25.5 -62.5t-63.5 -26.5z" />
    <glyph glyph-name="uni1EE6" unicode="&#x1ee6;" horiz-adv-x="736" 
d="M424 795l7 33q3 14 11.5 26.5t26.5 20.5l18 8q51 23 51 47q0 11 -8 19t-23 8q-19 0 -27.5 -8.5t-10.5 -17.5l-2 -9h-101l1.5 12.5t9 31t24 37t45 31t73.5 12.5q62 0 96 -31t34 -72q0 -27 -13 -47t-31.5 -33.5t-37 -22.5t-29.5 -15l-6 -3l-6 -27h-102zM321 -10
q-56 0 -109 18t-92 57t-54 102t4 153l89 420h192l-89 -420q-15 -71 9.5 -110.5t83.5 -39.5q58 0 90.5 38.5t48.5 111.5l89 420h192l-93 -440q-25 -119 -78 -187t-125.5 -95.5t-157.5 -27.5z" />
    <glyph glyph-name="uni1EE7" unicode="&#x1ee7;" horiz-adv-x="609" 
d="M320 585l7 33q3 14 11.5 26.5t26.5 20.5l18 8q51 23 51 47q0 11 -8 19t-23 8q-19 0 -27.5 -8.5t-10.5 -17.5l-2 -9h-101l1.5 12.5t9 31t24 37t45 31t73.5 12.5q62 0 96 -31t34 -72q0 -27 -13 -47t-31.5 -33.5t-37 -22.5t-29.5 -15l-6 -3l-6 -27h-102zM159 -10
q-75 0 -107.5 56.5t-12.5 150.5l71 333h190l-66 -311q-7 -36 4.5 -56t42.5 -20q32 0 51.5 21t26.5 55l66 311h190l-112 -530h-190l15 75h-6q-30 -40 -71.5 -62.5t-91.5 -22.5z" />
    <glyph glyph-name="uni1EE8" unicode="&#x1ee8;" horiz-adv-x="736" 
d="M558 809l-133 1l77 179h170zM321 -10q-56 0 -109 18t-92 57t-54 102t4 153l89 420h192l-89 -420q-15 -71 9.5 -110.5t83.5 -39.5q58 0 90.5 38.5t48.5 111.5l68 322v0l21 98h122q42 0 51 40l17 78h157l-23 -107q-11 -52 -43 -80.5t-95 -28.5h-15l-72 -342
q-25 -119 -78 -187t-125.5 -95.5t-157.5 -27.5z" />
    <glyph glyph-name="uni1EE9" unicode="&#x1ee9;" horiz-adv-x="609" 
d="M445 599l-133 1l77 179h170zM159 -10q-75 0 -107.5 56.5t-12.5 150.5l71 333h190l-66 -311q-7 -36 4.5 -56t42.5 -20q32 0 51.5 21t26.5 55l47 223v0l19 88h108q42 0 51 40l17 78h147l-20 -97q-10 -50 -41 -78.5t-91 -30.5l-93 -442h-190l15 75h-6q-30 -40 -71.5 -62.5
t-91.5 -22.5z" />
    <glyph glyph-name="uni1EEA" unicode="&#x1eea;" horiz-adv-x="736" 
d="M408 809l-104 180h165l67 -179zM321 -10q-56 0 -109 18t-92 57t-54 102t4 153l89 420h192l-89 -420q-15 -71 9.5 -110.5t83.5 -39.5q58 0 90.5 38.5t48.5 111.5l68 322v0l21 98h122q42 0 51 40l17 78h157l-23 -107q-11 -52 -43 -80.5t-95 -28.5h-15l-72 -342
q-25 -119 -78 -187t-125.5 -95.5t-157.5 -27.5z" />
    <glyph glyph-name="uni1EEB" unicode="&#x1eeb;" horiz-adv-x="609" 
d="M295 599l-104 180h165l67 -179zM159 -10q-75 0 -107.5 56.5t-12.5 150.5l71 333h190l-66 -311q-7 -36 4.5 -56t42.5 -20q32 0 51.5 21t26.5 55l47 223v0l19 88h108q42 0 51 40l17 78h147l-20 -97q-10 -50 -41 -78.5t-91 -30.5l-93 -442h-190l15 75h-6
q-30 -40 -71.5 -62.5t-91.5 -22.5z" />
    <glyph glyph-name="uni1EEC" unicode="&#x1eec;" horiz-adv-x="736" 
d="M424 795l7 33q3 14 11.5 26.5t26.5 20.5l18 8q51 23 51 47q0 11 -8 19t-23 8q-19 0 -27.5 -8.5t-10.5 -17.5l-2 -9h-101l1.5 12.5t9 31t24 37t45 31t73.5 12.5q62 0 96 -31t34 -72q0 -27 -13 -47t-31.5 -33.5t-37 -22.5t-29.5 -15l-6 -3l-6 -27h-102zM321 -10
q-56 0 -109 18t-92 57t-54 102t4 153l89 420h192l-89 -420q-15 -71 9.5 -110.5t83.5 -39.5q58 0 90.5 38.5t48.5 111.5l68 322v0l21 98h122q42 0 51 40l17 78h157l-23 -107q-11 -52 -43 -80.5t-95 -28.5h-15l-72 -342q-25 -119 -78 -187t-125.5 -95.5t-157.5 -27.5z" />
    <glyph glyph-name="uni1EED" unicode="&#x1eed;" horiz-adv-x="609" 
d="M311 585l7 33q3 14 11.5 26.5t26.5 20.5l18 8q51 23 51 47q0 11 -8 19t-23 8q-19 0 -27.5 -8.5t-10.5 -17.5l-2 -9h-101l1.5 12.5t9 31t24 37t45 31t73.5 12.5q62 0 96 -31t34 -72q0 -27 -13 -47t-31.5 -33.5t-37 -22.5t-29.5 -15l-6 -3l-6 -27h-102zM159 -10
q-75 0 -107.5 56.5t-12.5 150.5l71 333h190l-66 -311q-7 -36 4.5 -56t42.5 -20q32 0 51.5 21t26.5 55l47 223v0l19 88h108q42 0 51 40l17 78h147l-20 -97q-10 -50 -41 -78.5t-91 -30.5l-93 -442h-190l15 75h-6q-30 -40 -71.5 -62.5t-91.5 -22.5z" />
    <glyph glyph-name="uni1EEE" unicode="&#x1eee;" horiz-adv-x="736" 
d="M573 822q-27 0 -47 9t-35 20.5t-28 20.5t-26 9q-26 0 -37 -53h-93q9 40 22 76t39 59.5t71 23.5q37 0 60.5 -14.5t41 -29.5t34.5 -15q14 0 22.5 13.5t14.5 39.5h93q-8 -39 -22 -75.5t-39.5 -60t-70.5 -23.5zM321 -10q-56 0 -109 18t-92 57t-54 102t4 153l89 420h192
l-89 -420q-15 -71 9.5 -110.5t83.5 -39.5q58 0 90.5 38.5t48.5 111.5l68 322v0l21 98h122q42 0 51 40l17 78h157l-23 -107q-11 -52 -43 -80.5t-95 -28.5h-15l-72 -342q-25 -119 -78 -187t-125.5 -95.5t-157.5 -27.5z" />
    <glyph glyph-name="uni1EEF" unicode="&#x1eef;" horiz-adv-x="609" 
d="M460 612q-27 0 -47 9t-35 20.5t-28 20.5t-26 9q-26 0 -37 -53h-93q9 40 22 76t39 59.5t71 23.5q37 0 60.5 -14.5t41 -29.5t34.5 -15q14 0 22.5 13.5t14.5 39.5h93q-8 -39 -22 -75.5t-39.5 -60t-70.5 -23.5zM159 -10q-75 0 -107.5 56.5t-12.5 150.5l71 333h190l-66 -311
q-7 -36 4.5 -56t42.5 -20q32 0 51.5 21t26.5 55l47 223v0l19 88h108q42 0 51 40l17 78h147l-20 -97q-10 -50 -41 -78.5t-91 -30.5l-93 -442h-190l15 75h-6q-30 -40 -71.5 -62.5t-91.5 -22.5z" />
    <glyph glyph-name="uni1EF0" unicode="&#x1ef0;" horiz-adv-x="736" 
d="M321 -10q-56 0 -109 18t-92 57t-54 102t4 153l89 420h192l-89 -420q-15 -71 9.5 -110.5t83.5 -39.5q58 0 90.5 38.5t48.5 111.5l68 322v0l21 98h122q42 0 51 40l17 78h157l-23 -107q-11 -52 -43 -80.5t-95 -28.5h-15l-72 -342q-25 -119 -78 -187t-125.5 -95.5
t-157.5 -27.5zM263 -260q-40 0 -64.5 26.5t-24.5 62.5q0 37 24.5 63t64.5 26q38 0 63.5 -26t25.5 -63q0 -36 -25.5 -62.5t-63.5 -26.5z" />
    <glyph glyph-name="uni1EF1" unicode="&#x1ef1;" horiz-adv-x="609" 
d="M159 -10q-75 0 -107.5 56.5t-12.5 150.5l71 333h190l-66 -311q-7 -36 4.5 -56t42.5 -20q32 0 51.5 21t26.5 55l47 223v0l19 88h108q42 0 51 40l17 78h147l-20 -97q-10 -50 -41 -78.5t-91 -30.5l-93 -442h-190l15 75h-6q-30 -40 -71.5 -62.5t-91.5 -22.5zM206 -260
q-40 0 -64.5 26.5t-24.5 62.5q0 37 24.5 63t64.5 26q38 0 63.5 -26t25.5 -63q0 -36 -25.5 -62.5t-63.5 -26.5z" />
    <glyph glyph-name="Ygrave" unicode="&#x1ef2;" horiz-adv-x="724" 
d="M415 809l-104 180h165l67 -179zM221 0l52 248l-156 492h198l84 -297l209 297h223l-366 -493l-52 -247h-192z" />
    <glyph glyph-name="ygrave" unicode="&#x1ef3;" horiz-adv-x="618" 
d="M300 599l-104 180h165l67 -179zM15 -195q-29 0 -43 2l-14 2l32 156l10 -1t27 -1q34 0 64 7.5t60 39.5l-75 520h178l34 -320l166 320h198l-284 -495q-44 -76 -92.5 -127.5t-111.5 -77t-149 -25.5z" />
    <glyph glyph-name="uni1EF4" unicode="&#x1ef4;" horiz-adv-x="724" 
d="M221 0l52 248l-156 492h198l84 -297l209 297h223l-366 -493l-52 -247h-192zM281 -260q-40 0 -64.5 26.5t-24.5 62.5q0 37 24.5 63t64.5 26q38 0 63.5 -26t25.5 -63q0 -36 -25.5 -62.5t-63.5 -26.5z" />
    <glyph glyph-name="uni1EF5" unicode="&#x1ef5;" horiz-adv-x="618" 
d="M15 -195q-29 0 -43 2l-14 2l32 156l10 -1t27 -1q34 0 64 7.5t60 39.5l-75 520h178l34 -320l166 320h198l-284 -495q-44 -76 -92.5 -127.5t-111.5 -77t-149 -25.5zM406 -260q-40 0 -64.5 26.5t-24.5 62.5q0 37 24.5 63t64.5 26q38 0 63.5 -26t25.5 -63q0 -36 -25.5 -62.5
t-63.5 -26.5z" />
    <glyph glyph-name="uni1EF6" unicode="&#x1ef6;" horiz-adv-x="724" 
d="M431 795l7 33q3 14 11.5 26.5t26.5 20.5l18 8q51 23 51 47q0 11 -8 19t-23 8q-19 0 -27.5 -8.5t-10.5 -17.5l-2 -9h-101l1.5 12.5t9 31t24 37t45 31t73.5 12.5q62 0 96 -31t34 -72q0 -27 -13 -47t-31.5 -33.5t-37 -22.5t-29.5 -15l-6 -3l-6 -27h-102zM221 0l52 248
l-156 492h198l84 -297l209 297h223l-366 -493l-52 -247h-192z" />
    <glyph glyph-name="uni1EF7" unicode="&#x1ef7;" horiz-adv-x="618" 
d="M316 585l7 33q3 14 11.5 26.5t26.5 20.5l18 8q51 23 51 47q0 11 -8 19t-23 8q-19 0 -27.5 -8.5t-10.5 -17.5l-2 -9h-101l1.5 12.5t9 31t24 37t45 31t73.5 12.5q62 0 96 -31t34 -72q0 -27 -13 -47t-31.5 -33.5t-37 -22.5t-29.5 -15l-6 -3l-6 -27h-102zM15 -195
q-29 0 -43 2l-14 2l32 156l10 -1t27 -1q34 0 64 7.5t60 39.5l-75 520h178l34 -320l166 320h198l-284 -495q-44 -76 -92.5 -127.5t-111.5 -77t-149 -25.5z" />
    <glyph glyph-name="uni1EF8" unicode="&#x1ef8;" horiz-adv-x="724" 
d="M580 822q-27 0 -47 9t-35 20.5t-28 20.5t-26 9q-26 0 -37 -53h-93q9 40 22 76t39 59.5t71 23.5q37 0 60.5 -14.5t41 -29.5t34.5 -15q14 0 22.5 13.5t14.5 39.5h93q-8 -39 -22 -75.5t-39.5 -60t-70.5 -23.5zM221 0l52 248l-156 492h198l84 -297l209 297h223l-366 -493
l-52 -247h-192z" />
    <glyph glyph-name="uni1EF9" unicode="&#x1ef9;" horiz-adv-x="618" 
d="M465 612q-27 0 -47 9t-35 20.5t-28 20.5t-26 9q-26 0 -37 -53h-93q9 40 22 76t39 59.5t71 23.5q37 0 60.5 -14.5t41 -29.5t34.5 -15q14 0 22.5 13.5t14.5 39.5h93q-8 -39 -22 -75.5t-39.5 -60t-70.5 -23.5zM15 -195q-29 0 -43 2l-14 2l32 156l10 -1t27 -1q34 0 64 7.5
t60 39.5l-75 520h178l34 -320l166 320h198l-284 -495q-44 -76 -92.5 -127.5t-111.5 -77t-149 -25.5z" />
    <glyph glyph-name="endash" unicode="&#x2013;" horiz-adv-x="676" 
d="M85 238l40 147h489l-40 -147h-489z" />
    <glyph glyph-name="emdash" unicode="&#x2014;" horiz-adv-x="839" 
d="M85 238l53 147h639l-53 -147h-639z" />
    <glyph glyph-name="quoteleft" unicode="&#x2018;" horiz-adv-x="251" 
d="M273 740l-89 -149q41 -3 67 -31.5t26 -67.5q0 -41 -28 -70t-73 -29q-44 0 -74 28.5t-30 76.5q0 25 12 55.5t39.5 72.5t71.5 103l8 11h70z" />
    <glyph glyph-name="quoteright" unicode="&#x2019;" horiz-adv-x="251" 
d="M98 403l89 149q-41 3 -67 31.5t-26 67.5q0 41 28 70t73 29q44 0 74 -28.5t30 -76.5q0 -25 -12 -55t-39 -72.5t-72 -103.5l-8 -11h-70z" />
    <glyph glyph-name="quotesinglbase" unicode="&#x201a;" horiz-adv-x="310" 
d="M29 -159l89 149q-41 3 -67 31.5t-26 67.5q0 41 28 70t73 29q44 0 74 -28.5t30 -76.5q0 -25 -12 -55t-39 -72.5t-72 -103.5l-8 -11h-70z" />
    <glyph glyph-name="quotedblleft" unicode="&#x201c;" horiz-adv-x="495" 
d="M273 740l-89 -149q41 -3 67 -31.5t26 -67.5q0 -41 -28 -70t-73 -29q-44 0 -74 28.5t-30 76.5q0 25 12 55.5t39.5 72.5t71.5 103l8 11h70zM517 740l-89 -149q41 -3 67 -31.5t26 -67.5q0 -41 -28 -70t-73 -29q-44 0 -74 28.5t-30 76.5q0 25 12 55.5t39.5 72.5t71.5 103
l8 11h70z" />
    <glyph glyph-name="quotedblright" unicode="&#x201d;" horiz-adv-x="495" 
d="M342 403l89 149q-41 3 -67 31.5t-26 67.5q0 41 28 70t73 29q44 0 74 -28.5t30 -76.5q0 -25 -12 -55t-39 -72.5t-72 -103.5l-8 -11h-70zM98 403l89 149q-41 3 -67 31.5t-26 67.5q0 41 28 70t73 29q44 0 74 -28.5t30 -76.5q0 -25 -12 -55t-39 -72.5t-72 -103.5l-8 -11h-70z
" />
    <glyph glyph-name="quotedblbase" unicode="&#x201e;" horiz-adv-x="550" 
d="M273 -159l89 149q-41 3 -67 31.5t-26 67.5q0 41 28 70t73 29q44 0 74 -28.5t30 -76.5q0 -25 -12 -55t-39 -72.5t-72 -103.5l-8 -11h-70zM29 -159l89 149q-41 3 -67 31.5t-26 67.5q0 41 28 70t73 29q44 0 74 -28.5t30 -76.5q0 -25 -12 -55t-39 -72.5t-72 -103.5l-8 -11
h-70z" />
    <glyph glyph-name="dagger" unicode="&#x2020;" horiz-adv-x="697" 
d="M249 165l72 339h-179l28 131h179l33 155h160l-33 -155h179l-28 -131h-179l-72 -339h-160z" />
    <glyph glyph-name="daggerdbl" unicode="&#x2021;" horiz-adv-x="698" 
d="M249 165l25 117h-179l28 131h179l27 129h-179l28 131h179l25 117h160l-25 -117h179l-28 -131h-179l-27 -129h179l-28 -131h-179l-25 -117h-160z" />
    <glyph glyph-name="bullet" unicode="&#x2022;" horiz-adv-x="537" 
d="M288 173q-51 0 -90.5 24t-62 64t-22.5 88q0 49 22.5 88.5t62 63t90.5 23.5t90.5 -23.5t62 -63t22.5 -88.5q0 -48 -22.5 -88t-62 -64t-90.5 -24z" />
    <glyph glyph-name="ellipsis" unicode="&#x2026;" horiz-adv-x="954" 
d="M420 -10q-43 0 -71 29.5t-28 69.5q0 41 28 70t71 29t71 -29t28 -70q0 -40 -28 -69.5t-71 -29.5zM694 -10q-43 0 -71 29.5t-28 69.5q0 41 28 70t71 29t71 -29t28 -70q0 -40 -28 -69.5t-71 -29.5zM140 -10q-43 0 -71 29.5t-28 69.5q0 41 28 70t71 29t71 -29t28 -70
q0 -40 -28 -69.5t-71 -29.5z" />
    <glyph glyph-name="perthousand" unicode="&#x2030;" horiz-adv-x="1277" 
d="M268 412q-54 0 -90 21.5t-53.5 56t-17.5 73.5q0 46 22.5 89t66.5 71t107 28q55 0 90 -21.5t52.5 -56t17.5 -73.5q0 -45 -22.5 -88t-65.5 -71.5t-107 -28.5zM108 0l589 740h129l-589 -740h-129zM278 515q35 0 53.5 23.5t18.5 50.5q0 23 -14.5 40.5t-43.5 17.5
q-34 0 -53 -23.5t-19 -50.5q0 -22 14.5 -40t43.5 -18zM1030 -9q-54 0 -90 21.5t-53.5 56t-17.5 73.5q0 46 22.5 89t66.5 71t107 28q55 0 90 -21.5t52.5 -56t17.5 -73.5q0 -45 -22.5 -88t-65.5 -71.5t-107 -28.5zM653 -9q-54 0 -90 21.5t-53.5 56t-17.5 73.5q0 46 22.5 89
t66.5 71t107 28q55 0 90 -21.5t52.5 -56t17.5 -73.5q0 -45 -22.5 -88t-65.5 -71.5t-107 -28.5zM1040 94q35 0 53.5 23.5t18.5 50.5q0 23 -14.5 40.5t-43.5 17.5q-34 0 -53 -23.5t-19 -50.5q0 -22 14.5 -40t43.5 -18zM663 94q35 0 53.5 23.5t18.5 50.5q0 23 -14.5 40.5
t-43.5 17.5q-34 0 -53 -23.5t-19 -50.5q0 -22 14.5 -40t43.5 -18z" />
    <glyph glyph-name="guilsinglleft" unicode="&#x2039;" horiz-adv-x="475" 
d="M502 530l-272 -234l156 -216h-184l-168 225l264 225h204z" />
    <glyph glyph-name="guilsinglright" unicode="&#x203a;" horiz-adv-x="475" 
d="M3 80l272 234l-156 216h184l168 -225l-264 -225h-204z" />
    <glyph glyph-name="fraction" unicode="&#x2044;" horiz-adv-x="616" 
d="M-26 0l568 700h136l-569 -700h-135z" />
    <glyph glyph-name="uni2070" unicode="&#x2070;" horiz-adv-x="512" 
d="M310 396q-67 0 -110.5 30t-64.5 78t-21 102q0 49 16 98t48 89t78.5 64t106.5 24q67 0 110 -30t64 -78t21 -104q0 -49 -16 -97t-48 -88t-78 -64t-106 -24zM315 514q32 0 55 25t36 62.5t13 72.5q0 36 -15 62t-47 26q-31 0 -54.5 -25.5t-36.5 -62.5t-13 -72q0 -36 15 -62
t47 -26z" />
    <glyph glyph-name="uni2074" unicode="&#x2074;" horiz-adv-x="518" 
d="M313 402l18 82l-234 1l25 116l238 274h189l-59 -277h65l-24 -114h-65l-17 -82h-136zM258 598h97l31 147z" />
    <glyph glyph-name="uni2075" unicode="&#x2075;" horiz-adv-x="462" 
d="M300 396q-60 0 -97.5 16t-57.5 39t-28 46t-9 39l-1 16h126l4 -12t18 -24.5t45 -12.5q32 0 49.5 21t17.5 44q0 20 -14 36t-42 16q-22 0 -34.5 -7.5t-18 -15l-5.5 -7.5h-135l83 285h320l-25 -118h-213l-23 -77h4l8 9.5t27 19t52 9.5q50 0 83.5 -20.5t50 -53t16.5 -70.5
q0 -43 -22.5 -84t-67 -67.5t-111.5 -26.5z" />
    <glyph glyph-name="uni2076" unicode="&#x2076;" horiz-adv-x="501" 
d="M315 396q-90 0 -144.5 51.5t-54.5 142.5q0 53 20 104.5t60 94t99.5 67.5t137.5 25q46 0 73 -6.5l27 -6.5l-25 -119l-23 6.5t-62 6.5q-47 0 -86.5 -15.5t-61.5 -54.5q12 10 31.5 17.5t49.5 7.5q48 0 82.5 -20t53.5 -53t19 -74t-21 -81.5t-64.5 -66.5t-110.5 -26zM311 506
q32 0 48 19.5t16 41.5q0 20 -13.5 36.5t-42.5 16.5q-31 0 -47 -19.5t-16 -40.5t13.5 -37.5t41.5 -16.5z" />
    <glyph glyph-name="uni2077" unicode="&#x2077;" horiz-adv-x="466" 
d="M151 402q21 99 60 169t80 115.5t68 67.5h-225l25 121h386l-20 -98l-18.5 -15.5t-47.5 -46.5t-60.5 -76.5t-58 -104.5t-39.5 -132h-150z" />
    <glyph glyph-name="uni2078" unicode="&#x2078;" horiz-adv-x="484" 
d="M290 395q-64 0 -105.5 18.5t-62 48.5t-20.5 64q0 41 27 76t84 51v3q-33 10 -53 34.5t-20 56.5q0 34 22.5 64.5t66.5 50t108 19.5q89 0 137.5 -37t48.5 -86q0 -31 -23 -64t-74 -50v-3q41 -16 60 -45t19 -58q0 -36 -23 -68.5t-70.5 -53.5t-121.5 -21zM328 693q29 0 44 15
t15 32q0 16 -12.5 27.5t-38.5 11.5q-28 0 -43.5 -14t-15.5 -31q0 -16 13 -28.5t38 -12.5zM299 501q34 0 51 17t17 36q0 17 -14.5 31.5t-43.5 14.5q-32 0 -50 -17.5t-18 -37.5q0 -17 14.5 -30.5t43.5 -13.5z" />
    <glyph glyph-name="uni2079" unicode="&#x2079;" horiz-adv-x="501" 
d="M449 889q90 0 144.5 -51.5t54.5 -142.5q0 -53 -20 -104.5t-60 -94t-99.5 -67.5t-137.5 -25q-46 0 -73 6.5l-27 6.5l25 119l23 -6.5t62 -6.5q47 0 86.5 15.5t61.5 54.5q-12 -10 -31.5 -17.5t-49.5 -7.5q-47 0 -82 20t-54 53.5t-19 73.5q0 42 21 82t64.5 66t110.5 26z
M453 779q-31 0 -47.5 -19.5t-16.5 -41.5q0 -20 13.5 -36.5t42.5 -16.5q32 0 47.5 19.5t15.5 40.5t-13.5 37.5t-41.5 16.5z" />
    <glyph glyph-name="uni2080" unicode="&#x2080;" horiz-adv-x="512" 
d="M179 -219q-67 0 -110.5 30t-64.5 78t-21 102q0 49 16 98t48 89t78.5 64t106.5 24q67 0 110 -30t64 -78t21 -104q0 -49 -16 -97t-48 -88t-78 -64t-106 -24zM184 -101q32 0 55 25t36 62.5t13 72.5q0 36 -15 62t-47 26q-31 0 -54.5 -25.5t-36.5 -62.5t-13 -72q0 -36 15 -62
t47 -26z" />
    <glyph glyph-name="uni2081" unicode="&#x2081;" horiz-adv-x="335" 
d="M251 260l-101 -473h-135l64 308h-93l17 83l14 4q48 14 82 31t67 43l5 4h80z" />
    <glyph glyph-name="uni2082" unicode="&#x2082;" horiz-adv-x="504" 
d="M-30 -213l20 93l117 75q75 48 113.5 81t38.5 67q0 21 -14 33.5t-38 12.5q-28 0 -40 -13.5t-15 -27.5l-3 -14h-131l2 17.5t11.5 43t30.5 51t57.5 43t93.5 17.5q61 0 101.5 -21t61.5 -55.5t21 -75.5q0 -40 -17.5 -72.5t-46 -58t-60.5 -45t-60 -34.5h165l-25 -117h-383z" />
    <glyph glyph-name="uni2083" unicode="&#x2083;" horiz-adv-x="474" 
d="M168 -219q-63 0 -101 15.5t-58 38.5t-27.5 46.5t-8 39l-0.5 15.5h129l3.5 -11t17 -22.5t44.5 -11.5q35 0 50 15t15 31q0 11 -11.5 23.5t-41.5 12.5h-66l22 103h69q32 0 44 14t12 28t-12.5 26t-41.5 12q-30 0 -43.5 -12.5t-17 -25.5l-3.5 -13h-124l3 16.5t12.5 40.5
t30.5 47.5t57.5 40t91.5 16.5q61 0 101 -19t59.5 -48t19.5 -61q0 -34 -22.5 -65.5t-70.5 -44.5l-1 -6q35 -13 53 -38.5t18 -56.5q0 -35 -22.5 -68.5t-67.5 -55.5t-112 -22z" />
    <glyph glyph-name="uni2084" unicode="&#x2084;" horiz-adv-x="528" 
d="M182 -213l18 82l-234 1l25 116l238 274h189l-59 -277h65l-24 -114h-65l-17 -82h-136zM127 -17h97l31 147z" />
    <glyph glyph-name="uni2085" unicode="&#x2085;" horiz-adv-x="462" 
d="M169 -219q-60 0 -97.5 16t-57.5 39t-28 46t-9 39l-1 16h126l4 -12t18 -24.5t45 -12.5q32 0 49.5 21t17.5 44q0 20 -14 36t-42 16q-22 0 -34.5 -7.5t-18 -15l-5.5 -7.5h-135l83 285h320l-25 -118h-213l-23 -77h4l8 9.5t27 19t52 9.5q50 0 83.5 -20.5t50 -53t16.5 -70.5
q0 -43 -22.5 -84t-67 -67.5t-111.5 -26.5z" />
    <glyph glyph-name="uni2086" unicode="&#x2086;" horiz-adv-x="501" 
d="M184 -219q-90 0 -144.5 51.5t-54.5 142.5q0 53 20 104.5t60 94t99.5 67.5t137.5 25q46 0 73 -6.5l27 -6.5l-25 -119l-23 6.5t-62 6.5q-47 0 -86.5 -15.5t-61.5 -54.5q12 10 31.5 17.5t49.5 7.5q48 0 82.5 -20t53.5 -53t19 -74t-21 -81.5t-64.5 -66.5t-110.5 -26z
M180 -109q32 0 48 19.5t16 41.5q0 20 -13.5 36.5t-42.5 16.5q-31 0 -47 -19.5t-16 -40.5t13.5 -37.5t41.5 -16.5z" />
    <glyph glyph-name="uni2087" unicode="&#x2087;" horiz-adv-x="466" 
d="M20 -213q21 99 60 169t80 115.5t68 67.5h-225l25 121h386l-20 -98l-18.5 -15.5t-47.5 -46.5t-60.5 -76.5t-58 -104.5t-39.5 -132h-150z" />
    <glyph glyph-name="uni2088" unicode="&#x2088;" horiz-adv-x="489" 
d="M169 -220q-64 0 -105.5 18.5t-62 48.5t-20.5 64q0 41 27 76t84 51v3q-33 10 -53 34.5t-20 56.5q0 34 22.5 64.5t66.5 50t108 19.5q89 0 137.5 -37t48.5 -86q0 -31 -23 -64t-74 -50v-3q41 -16 60 -45t19 -58q0 -36 -23 -68.5t-70.5 -53.5t-121.5 -21zM207 78q29 0 44 15
t15 32q0 16 -12.5 27.5t-38.5 11.5q-28 0 -43.5 -14t-15.5 -31q0 -16 13 -28.5t38 -12.5zM178 -114q34 0 51 17t17 36q0 17 -14.5 31.5t-43.5 14.5q-32 0 -50 -17.5t-18 -37.5q0 -17 14.5 -30.5t43.5 -13.5z" />
    <glyph glyph-name="uni2089" unicode="&#x2089;" horiz-adv-x="501" 
d="M317 269q90 0 144.5 -51.5t54.5 -142.5q0 -53 -20 -104.5t-60 -94t-99.5 -67.5t-137.5 -25q-46 0 -73 6.5l-27 6.5l25 119l23 -6.5t62 -6.5q47 0 86.5 15.5t61.5 54.5q-12 -10 -31.5 -17.5t-49.5 -7.5q-47 0 -82 20t-54 53.5t-19 73.5q0 42 21 82t64.5 66t110.5 26z
M321 159q-31 0 -47.5 -19.5t-16.5 -41.5q0 -20 13.5 -36.5t42.5 -16.5q32 0 47.5 19.5t15.5 40.5t-13.5 37.5t-41.5 16.5z" />
    <glyph glyph-name="dong" unicode="&#x20ab;" horiz-adv-x="667" 
d="M228 140q-51 0 -85 23t-50.5 60.5t-16.5 81.5q0 42 13.5 83.5t40 75.5t64.5 55t87 21q43 0 66.5 -13.5t33.5 -27t11 -13.5h7l14 65h-83l20 94h82l11 55h163l-12 -55h70l-19 -94h-70l-85 -404h-161l6 37h-6l-10 -11t-32 -22t-59 -11zM240 325q0 -25 15 -42t43 -17
q26 0 44 13.5t28 34t10 39.5q0 26 -15 43.5t-44 17.5q-25 0 -43.5 -14t-28 -34.5t-9.5 -40.5zM11 0l16 75h554l-15 -75h-555z" />
    <glyph glyph-name="Euro" unicode="&#x20ac;" horiz-adv-x="711" 
d="M17 271l17 80h99q1 20 4 39h-95l17 80h97q25 76 79.5 139.5t138 102t194.5 38.5q77 0 118 -8l41 -8l-35 -165l-33 8t-81 8q-78 0 -132 -33t-83 -82h214l-17 -80h-226q-4 -20 -4 -39h222l-17 -80h-191q19 -49 64.5 -82.5t118.5 -33.5q32 0 62 4t49 8l19 4l-35 -166
l-38 -7.5t-103 -7.5q-103 0 -175 38.5t-114 102.5t-54 140h-121z" />
    <glyph glyph-name="trademark" unicode="&#x2122;" horiz-adv-x="861" 
d="M420 390l74 350h154l19 -130l80 130h154l-74 -350h-116l38 182l-64 -112h-94l-17 114l-39 -184h-115zM152 390l53 250h-104l21 100h324l-21 -100h-103l-53 -250h-117z" />
    <glyph glyph-name="oneeighth" unicode="&#x215b;" horiz-adv-x="946" 
d="M317 706l-74 -355h-117l47 220l-71 1l16 72l8 2q40 10 67.5 23.5t52.5 33.5l3 3h68zM135 0l568 700h136l-569 -700h-135zM813 -4q-74 0 -108.5 29.5t-34.5 67.5q0 24 17 53t66 42v3q-26 9 -40 27.5t-14 41.5q0 38 38 69.5t110 31.5q68 0 103.5 -28.5t35.5 -65.5
q0 -23 -17.5 -47t-55.5 -38v-2q31 -13 45.5 -33.5t14.5 -45.5q0 -40 -40 -72.5t-120 -32.5zM840 220q21 0 32.5 11t11.5 24q0 11 -9 20.5t-29 9.5q-22 0 -33 -11t-11 -24q0 -12 9.5 -21t28.5 -9zM818 74q26 0 38.5 13t12.5 28q0 12 -10.5 23t-32.5 11q-25 0 -38.5 -13
t-13.5 -28q0 -12 11 -23t33 -11z" />
    <glyph glyph-name="threeeighths" unicode="&#x215c;" horiz-adv-x="963" 
d="M232 346q-46 0 -74.5 11.5t-43.5 29t-20.5 35t-6 29l-0.5 11.5h103l2.5 -7t12 -14t31.5 -7q25 0 35 10t10 19q0 7 -7.5 15.5t-29.5 8.5h-49l18 83h51q22 0 29.5 10t7.5 18q0 9 -8.5 17.5t-27.5 8.5q-21 0 -31 -9t-13 -18l-3 -9h-98l2.5 12.5t10 31t24 36.5t44 30.5
t70.5 12.5q47 0 77 -15t45 -37t15 -45q0 -27 -20 -50.5t-55 -32.5v-4q28 -10 43 -29t15 -43q0 -25 -17 -50t-52 -42t-90 -17zM207 0l568 700h136l-569 -700h-135zM885 -4q-74 0 -108.5 29.5t-34.5 67.5q0 24 17 53t66 42v3q-26 9 -40 27.5t-14 41.5q0 38 38 69.5t110 31.5
q68 0 103.5 -28.5t35.5 -65.5q0 -23 -17.5 -47t-55.5 -38v-2q31 -13 45.5 -33.5t14.5 -45.5q0 -40 -40 -72.5t-120 -32.5zM912 220q21 0 32.5 11t11.5 24q0 11 -9 20.5t-29 9.5q-22 0 -33 -11t-11 -24q0 -12 9.5 -21t28.5 -9zM890 74q26 0 38.5 13t12.5 28q0 12 -10.5 23
t-32.5 11q-25 0 -38.5 -13t-13.5 -28q0 -12 11 -23t33 -11z" />
    <glyph glyph-name="fiveeighths" unicode="&#x215d;" horiz-adv-x="949" 
d="M236 346q-46 0 -75 12t-44 29.5t-21 35t-6.5 29.5l-0.5 12h98l3 -8.5t13.5 -17.5t31.5 -9q23 0 35.5 14.5t12.5 30.5q0 14 -9.5 25t-29.5 11q-22 0 -31.5 -10l-9.5 -10h-107l63 216h245l-22 -91h-159l-16 -55h3l6 7t20 14t39 7q56 0 85 -33t29 -74q0 -32 -17 -63.5
t-51 -51.5t-85 -20zM197 0l568 700h136l-569 -700h-135zM875 -4q-74 0 -108.5 29.5t-34.5 67.5q0 24 17 53t66 42v3q-26 9 -40 27.5t-14 41.5q0 38 38 69.5t110 31.5q68 0 103.5 -28.5t35.5 -65.5q0 -23 -17.5 -47t-55.5 -38v-2q31 -13 45.5 -33.5t14.5 -45.5
q0 -40 -40 -72.5t-120 -32.5zM902 220q21 0 32.5 11t11.5 24q0 11 -9 20.5t-29 9.5q-22 0 -33 -11t-11 -24q0 -12 9.5 -21t28.5 -9zM880 74q26 0 38.5 13t12.5 28q0 12 -10.5 23t-32.5 11q-25 0 -38.5 -13t-13.5 -28q0 -12 11 -23t33 -11z" />
    <glyph glyph-name="seveneighths" unicode="&#x215e;" horiz-adv-x="992" 
d="M123 351q15 77 43 130t56.5 85.5t48.5 47.5h-161l19 92h283l-16 -77l-19.5 -17t-47.5 -51t-53.5 -86.5t-36.5 -123.5h-116zM205 0l568 700h136l-569 -700h-135zM883 -4q-74 0 -108.5 29.5t-34.5 67.5q0 24 17 53t66 42v3q-26 9 -40 27.5t-14 41.5q0 38 38 69.5t110 31.5
q68 0 103.5 -28.5t35.5 -65.5q0 -23 -17.5 -47t-55.5 -38v-2q31 -13 45.5 -33.5t14.5 -45.5q0 -40 -40 -72.5t-120 -32.5zM910 220q21 0 32.5 11t11.5 24q0 11 -9 20.5t-29 9.5q-22 0 -33 -11t-11 -24q0 -12 9.5 -21t28.5 -9zM888 74q26 0 38.5 13t12.5 28q0 12 -10.5 23
t-32.5 11q-25 0 -38.5 -13t-13.5 -28q0 -12 11 -23t33 -11z" />
    <glyph glyph-name="minus" unicode="&#x2212;" horiz-adv-x="627" 
d="M84 231l34 161h448l-34 -161h-448z" />
    <glyph glyph-name="uni2215" unicode="&#x2215;" horiz-adv-x="564" 
d="M8 0l349 700h177l-349 -700h-177z" />
    <glyph glyph-name="approxequal" unicode="&#x2248;" horiz-adv-x="593" 
d="M384 388q-27 0 -47 9t-35 20.5t-28 20.5t-26 9q-26 0 -37 -53h-93q9 40 22 76t39 59.5t71 23.5q37 0 60.5 -14.5t41 -29.5t34.5 -15q14 0 22.5 13.5t14.5 39.5h93q-8 -40 -22 -76t-39.5 -59.5t-70.5 -23.5zM384 156q-27 0 -47 9t-35 20.5t-28 20.5t-26 9q-26 0 -37 -53
h-93q9 40 22 76t39 59.5t71 23.5q37 0 60.5 -14.5t41 -29.5t34.5 -15q14 0 22.5 13.5t14.5 39.5h93q-8 -39 -22 -75.5t-39.5 -60t-70.5 -23.5z" />
    <glyph glyph-name="notequal" unicode="&#x2260;" horiz-adv-x="720" 
d="M58 0l94 123h-91l33 153h176l59 78h-219l33 153h304l94 123h145l-94 -123h91l-33 -153h-176l-59 -78h219l-33 -153h-304l-94 -123h-145z" />
    <glyph glyph-name="lessequal" unicode="&#x2264;" horiz-adv-x="591" 
d="M491 148l-411 159l23 109l479 159l-30 -143l-274 -78l242 -75zM11 0l21 98h453l-21 -98h-453z" />
    <glyph glyph-name="greaterequal" unicode="&#x2265;" horiz-adv-x="591" 
d="M55 148l30 143l274 78l-242 75l29 131l411 -159l-23 -109zM20 0l21 98h453l-21 -98h-453z" />
    <glyph glyph-name="i.loclTRK" horiz-adv-x="320" 
d="M246 583q-47 0 -77.5 30.5t-30.5 72.5q0 44 30.5 74t77.5 30t78 -30t31 -74q0 -42 -31 -72.5t-78 -30.5zM5 0l113 530h190l-113 -530h-190z" />
    <glyph glyph-name="a.ss01" horiz-adv-x="596" 
d="M319 60q-19 -28 -53.5 -49t-92.5 -21q-75 0 -118.5 39t-43.5 106q0 71 52 120.5t154 56.5l164 12l3 13q7 32 -10 51t-54 19q-30 0 -45 -11.5t-19.5 -23l-4.5 -11.5h-176l5.5 18t21 44.5t44.5 53.5t75.5 45t114.5 18q91 0 146 -33t76 -84t9 -105l-68 -318h-186l13 60h-7z
M200 158q0 -22 15.5 -33.5t39.5 -11.5q35 0 63.5 22.5t37.5 65.5l3 16l-101 -8q-30 -2 -44 -16.5t-14 -34.5z" />
    <glyph glyph-name="aacute.ss01" horiz-adv-x="599" 
d="M447 599l-133 1l77 179h170zM319 60q-19 -28 -53.5 -49t-92.5 -21q-75 0 -118.5 39t-43.5 106q0 71 52 120.5t154 56.5l164 12l3 13q7 32 -10 51t-54 19q-30 0 -45 -11.5t-19.5 -23l-4.5 -11.5h-176l5.5 18t21 44.5t44.5 53.5t75.5 45t114.5 18q91 0 146 -33t76 -84
t9 -105l-68 -318h-186l13 60h-7zM200 158q0 -22 15.5 -33.5t39.5 -11.5q35 0 63.5 22.5t37.5 65.5l3 16l-101 -8q-30 -2 -44 -16.5t-14 -34.5z" />
    <glyph glyph-name="abreve.ss01" horiz-adv-x="599" 
d="M384 592q-60 0 -95 19t-51 46.5t-20.5 55t-3.5 46.5l1 19h119l-1 -12t2.5 -28.5t16 -28.5t40.5 -12q27 0 45 12t28.5 28.5t14.5 28.5l4 12h119l-4 -19t-15.5 -46.5t-35.5 -55t-64 -46.5t-100 -19zM319 60q-19 -28 -53.5 -49t-92.5 -21q-75 0 -118.5 39t-43.5 106
q0 71 52 120.5t154 56.5l164 12l3 13q7 32 -10 51t-54 19q-30 0 -45 -11.5t-19.5 -23l-4.5 -11.5h-176l5.5 18t21 44.5t44.5 53.5t75.5 45t114.5 18q91 0 146 -33t76 -84t9 -105l-68 -318h-186l13 60h-7zM200 158q0 -22 15.5 -33.5t39.5 -11.5q35 0 63.5 22.5t37.5 65.5
l3 16l-101 -8q-30 -2 -44 -16.5t-14 -34.5z" />
    <glyph glyph-name="uni1EAF.ss01" horiz-adv-x="599" 
d="M488 792l-133 1l77 179h170zM389 592q-58 0 -93.5 17t-54 41.5t-25 49t-6.5 41.5v17h119l-0.5 -9.5t4 -22.5t17.5 -22.5t40 -9.5q28 0 45.5 9.5t27 22.5t13 22.5l3.5 9.5h119l-3.5 -17t-14 -41.5t-33.5 -49t-61 -41.5t-97 -17zM319 60q-19 -28 -53.5 -49t-92.5 -21
q-75 0 -118.5 39t-43.5 106q0 71 52 120.5t154 56.5l164 12l3 13q7 32 -10 51t-54 19q-30 0 -45 -11.5t-19.5 -23l-4.5 -11.5h-176l5.5 18t21 44.5t44.5 53.5t75.5 45t114.5 18q91 0 146 -33t76 -84t9 -105l-68 -318h-186l13 60h-7zM200 158q0 -22 15.5 -33.5t39.5 -11.5
q35 0 63.5 22.5t37.5 65.5l3 16l-101 -8q-30 -2 -44 -16.5t-14 -34.5z" />
    <glyph glyph-name="uni1EB7.ss01" horiz-adv-x="599" 
d="M384 592q-60 0 -95 19t-51 46.5t-20.5 55t-3.5 46.5l1 19h119l-1 -12t2.5 -28.5t16 -28.5t40.5 -12q27 0 45 12t28.5 28.5t14.5 28.5l4 12h119l-4 -19t-15.5 -46.5t-35.5 -55t-64 -46.5t-100 -19zM319 60q-19 -28 -53.5 -49t-92.5 -21q-75 0 -118.5 39t-43.5 106
q0 71 52 120.5t154 56.5l164 12l3 13q7 32 -10 51t-54 19q-30 0 -45 -11.5t-19.5 -23l-4.5 -11.5h-176l5.5 18t21 44.5t44.5 53.5t75.5 45t114.5 18q91 0 146 -33t76 -84t9 -105l-68 -318h-186l13 60h-7zM200 158q0 -22 15.5 -33.5t39.5 -11.5q35 0 63.5 22.5t37.5 65.5
l3 16l-101 -8q-30 -2 -44 -16.5t-14 -34.5zM206 -260q-40 0 -64.5 26.5t-24.5 62.5q0 37 24.5 63t64.5 26q38 0 63.5 -26t25.5 -63q0 -36 -25.5 -62.5t-63.5 -26.5z" />
    <glyph glyph-name="uni1EB1.ss01" horiz-adv-x="599" 
d="M338 792l-104 180h165l67 -179zM389 592q-58 0 -93.5 17t-54 41.5t-25 49t-6.5 41.5v17h119l-0.5 -9.5t4 -22.5t17.5 -22.5t40 -9.5q28 0 45.5 9.5t27 22.5t13 22.5l3.5 9.5h119l-3.5 -17t-14 -41.5t-33.5 -49t-61 -41.5t-97 -17zM319 60q-19 -28 -53.5 -49t-92.5 -21
q-75 0 -118.5 39t-43.5 106q0 71 52 120.5t154 56.5l164 12l3 13q7 32 -10 51t-54 19q-30 0 -45 -11.5t-19.5 -23l-4.5 -11.5h-176l5.5 18t21 44.5t44.5 53.5t75.5 45t114.5 18q91 0 146 -33t76 -84t9 -105l-68 -318h-186l13 60h-7zM200 158q0 -22 15.5 -33.5t39.5 -11.5
q35 0 63.5 22.5t37.5 65.5l3 16l-101 -8q-30 -2 -44 -16.5t-14 -34.5z" />
    <glyph glyph-name="uni1EB3.ss01" horiz-adv-x="599" 
d="M354 778l7 33q3 14 11.5 26.5t26.5 20.5l18 8q51 23 51 47q0 11 -8 19t-23 8q-19 0 -27.5 -8.5t-10.5 -17.5l-2 -9h-101l1.5 12.5t9 31t24 37t45 31t73.5 12.5q62 0 96 -31t34 -72q0 -27 -13 -47t-31.5 -33.5t-37 -22.5t-29.5 -15l-6 -3l-6 -27h-102zM389 592
q-58 0 -93.5 17t-54 41.5t-25 49t-6.5 41.5v17h119l-0.5 -9.5t4 -22.5t17.5 -22.5t40 -9.5q28 0 45.5 9.5t27 22.5t13 22.5l3.5 9.5h119l-3.5 -17t-14 -41.5t-33.5 -49t-61 -41.5t-97 -17zM319 60q-19 -28 -53.5 -49t-92.5 -21q-75 0 -118.5 39t-43.5 106q0 71 52 120.5
t154 56.5l164 12l3 13q7 32 -10 51t-54 19q-30 0 -45 -11.5t-19.5 -23l-4.5 -11.5h-176l5.5 18t21 44.5t44.5 53.5t75.5 45t114.5 18q91 0 146 -33t76 -84t9 -105l-68 -318h-186l13 60h-7zM200 158q0 -22 15.5 -33.5t39.5 -11.5q35 0 63.5 22.5t37.5 65.5l3 16l-101 -8
q-30 -2 -44 -16.5t-14 -34.5z" />
    <glyph glyph-name="uni1EB5.ss01" horiz-adv-x="599" 
d="M503 805q-27 0 -47 9t-35 20.5t-28 20.5t-26 9q-26 0 -37 -53h-93q9 40 22 76t39 59.5t71 23.5q37 0 60.5 -14.5t41 -29.5t34.5 -15q14 0 22.5 13.5t14.5 39.5h93q-8 -39 -22 -75.5t-39.5 -60t-70.5 -23.5zM389 592q-58 0 -93.5 17t-54 41.5t-25 49t-6.5 41.5v17h119
l-0.5 -9.5t4 -22.5t17.5 -22.5t40 -9.5q28 0 45.5 9.5t27 22.5t13 22.5l3.5 9.5h119l-3.5 -17t-14 -41.5t-33.5 -49t-61 -41.5t-97 -17zM319 60q-19 -28 -53.5 -49t-92.5 -21q-75 0 -118.5 39t-43.5 106q0 71 52 120.5t154 56.5l164 12l3 13q7 32 -10 51t-54 19
q-30 0 -45 -11.5t-19.5 -23l-4.5 -11.5h-176l5.5 18t21 44.5t44.5 53.5t75.5 45t114.5 18q91 0 146 -33t76 -84t9 -105l-68 -318h-186l13 60h-7zM200 158q0 -22 15.5 -33.5t39.5 -11.5q35 0 63.5 22.5t37.5 65.5l3 16l-101 -8q-30 -2 -44 -16.5t-14 -34.5z" />
    <glyph glyph-name="acircumflex.ss01" horiz-adv-x="599" 
d="M160 589l175 189h147l95 -189h-134l-45 102l-90 -102h-148zM319 60q-19 -28 -53.5 -49t-92.5 -21q-75 0 -118.5 39t-43.5 106q0 71 52 120.5t154 56.5l164 12l3 13q7 32 -10 51t-54 19q-30 0 -45 -11.5t-19.5 -23l-4.5 -11.5h-176l5.5 18t21 44.5t44.5 53.5t75.5 45
t114.5 18q91 0 146 -33t76 -84t9 -105l-68 -318h-186l13 60h-7zM200 158q0 -22 15.5 -33.5t39.5 -11.5q35 0 63.5 22.5t37.5 65.5l3 16l-101 -8q-30 -2 -44 -16.5t-14 -34.5z" />
    <glyph glyph-name="uni1EA5.ss01" horiz-adv-x="599" 
d="M670 719l-133 1l77 179h170zM154 589l169 159h147l101 -159h-133l-50 85l-85 -85h-149zM319 60q-19 -28 -53.5 -49t-92.5 -21q-75 0 -118.5 39t-43.5 106q0 71 52 120.5t154 56.5l164 12l3 13q7 32 -10 51t-54 19q-30 0 -45 -11.5t-19.5 -23l-4.5 -11.5h-176l5.5 18
t21 44.5t44.5 53.5t75.5 45t114.5 18q91 0 146 -33t76 -84t9 -105l-68 -318h-186l13 60h-7zM200 158q0 -22 15.5 -33.5t39.5 -11.5q35 0 63.5 22.5t37.5 65.5l3 16l-101 -8q-30 -2 -44 -16.5t-14 -34.5z" />
    <glyph glyph-name="uni1EAD.ss01" horiz-adv-x="599" 
d="M160 589l175 189h147l95 -189h-134l-45 102l-90 -102h-148zM319 60q-19 -28 -53.5 -49t-92.5 -21q-75 0 -118.5 39t-43.5 106q0 71 52 120.5t154 56.5l164 12l3 13q7 32 -10 51t-54 19q-30 0 -45 -11.5t-19.5 -23l-4.5 -11.5h-176l5.5 18t21 44.5t44.5 53.5t75.5 45
t114.5 18q91 0 146 -33t76 -84t9 -105l-68 -318h-186l13 60h-7zM200 158q0 -22 15.5 -33.5t39.5 -11.5q35 0 63.5 22.5t37.5 65.5l3 16l-101 -8q-30 -2 -44 -16.5t-14 -34.5zM206 -260q-40 0 -64.5 26.5t-24.5 62.5q0 37 24.5 63t64.5 26q38 0 63.5 -26t25.5 -63
q0 -36 -25.5 -62.5t-63.5 -26.5z" />
    <glyph glyph-name="uni1EA7.ss01" horiz-adv-x="599" 
d="M544 719l-104 180h165l67 -179zM154 589l169 159h147l101 -159h-133l-50 85l-85 -85h-149zM319 60q-19 -28 -53.5 -49t-92.5 -21q-75 0 -118.5 39t-43.5 106q0 71 52 120.5t154 56.5l164 12l3 13q7 32 -10 51t-54 19q-30 0 -45 -11.5t-19.5 -23l-4.5 -11.5h-176l5.5 18
t21 44.5t44.5 53.5t75.5 45t114.5 18q91 0 146 -33t76 -84t9 -105l-68 -318h-186l13 60h-7zM200 158q0 -22 15.5 -33.5t39.5 -11.5q35 0 63.5 22.5t37.5 65.5l3 16l-101 -8q-30 -2 -44 -16.5t-14 -34.5z" />
    <glyph glyph-name="uni1EA9.ss01" horiz-adv-x="599" 
d="M535 697l7 33q3 14 11.5 26.5t26.5 20.5l18 8q51 23 51 47q0 11 -8 19t-23 8q-19 0 -27.5 -8.5t-10.5 -17.5l-2 -9h-101l1.5 12.5t9 31t24 37t45 31t73.5 12.5q62 0 96 -31t34 -72q0 -27 -13 -47t-31.5 -33.5t-37 -22.5t-29.5 -15l-6 -3l-6 -27h-102zM154 589l169 159
h147l101 -159h-133l-50 85l-85 -85h-149zM319 60q-19 -28 -53.5 -49t-92.5 -21q-75 0 -118.5 39t-43.5 106q0 71 52 120.5t154 56.5l164 12l3 13q7 32 -10 51t-54 19q-30 0 -45 -11.5t-19.5 -23l-4.5 -11.5h-176l5.5 18t21 44.5t44.5 53.5t75.5 45t114.5 18q91 0 146 -33
t76 -84t9 -105l-68 -318h-186l13 60h-7zM200 158q0 -22 15.5 -33.5t39.5 -11.5q35 0 63.5 22.5t37.5 65.5l3 16l-101 -8q-30 -2 -44 -16.5t-14 -34.5z" />
    <glyph glyph-name="uni1EAB.ss01" horiz-adv-x="599" 
d="M488 782q-27 0 -47 9t-35 20.5t-28 20.5t-26 9q-26 0 -37 -53h-93q9 40 22 76t39 59.5t71 23.5q37 0 60.5 -14.5t41 -29.5t34.5 -15q14 0 22.5 13.5t14.5 39.5h93q-8 -39 -22 -75.5t-39.5 -60t-70.5 -23.5zM154 589l169 159h147l101 -159h-133l-50 85l-85 -85h-149z
M319 60q-19 -28 -53.5 -49t-92.5 -21q-75 0 -118.5 39t-43.5 106q0 71 52 120.5t154 56.5l164 12l3 13q7 32 -10 51t-54 19q-30 0 -45 -11.5t-19.5 -23l-4.5 -11.5h-176l5.5 18t21 44.5t44.5 53.5t75.5 45t114.5 18q91 0 146 -33t76 -84t9 -105l-68 -318h-186l13 60h-7z
M200 158q0 -22 15.5 -33.5t39.5 -11.5q35 0 63.5 22.5t37.5 65.5l3 16l-101 -8q-30 -2 -44 -16.5t-14 -34.5z" />
    <glyph glyph-name="adieresis.ss01" horiz-adv-x="599" 
d="M512 578q-45 0 -73.5 28.5t-28.5 68.5q0 41 28.5 69.5t73.5 28.5q44 0 73 -28.5t29 -69.5q0 -40 -29 -68.5t-73 -28.5zM262 578q-45 0 -73.5 28.5t-28.5 68.5q0 41 28.5 69.5t73.5 28.5q44 0 73 -28.5t29 -69.5q0 -40 -29 -68.5t-73 -28.5zM319 60q-19 -28 -53.5 -49
t-92.5 -21q-75 0 -118.5 39t-43.5 106q0 71 52 120.5t154 56.5l164 12l3 13q7 32 -10 51t-54 19q-30 0 -45 -11.5t-19.5 -23l-4.5 -11.5h-176l5.5 18t21 44.5t44.5 53.5t75.5 45t114.5 18q91 0 146 -33t76 -84t9 -105l-68 -318h-186l13 60h-7zM200 158q0 -22 15.5 -33.5
t39.5 -11.5q35 0 63.5 22.5t37.5 65.5l3 16l-101 -8q-30 -2 -44 -16.5t-14 -34.5z" />
    <glyph glyph-name="uni1EA1.ss01" horiz-adv-x="599" 
d="M319 60q-19 -28 -53.5 -49t-92.5 -21q-75 0 -118.5 39t-43.5 106q0 71 52 120.5t154 56.5l164 12l3 13q7 32 -10 51t-54 19q-30 0 -45 -11.5t-19.5 -23l-4.5 -11.5h-176l5.5 18t21 44.5t44.5 53.5t75.5 45t114.5 18q91 0 146 -33t76 -84t9 -105l-68 -318h-186l13 60h-7z
M200 158q0 -22 15.5 -33.5t39.5 -11.5q35 0 63.5 22.5t37.5 65.5l3 16l-101 -8q-30 -2 -44 -16.5t-14 -34.5zM206 -260q-40 0 -64.5 26.5t-24.5 62.5q0 37 24.5 63t64.5 26q38 0 63.5 -26t25.5 -63q0 -36 -25.5 -62.5t-63.5 -26.5z" />
    <glyph glyph-name="agrave.ss01" horiz-adv-x="599" 
d="M297 599l-104 180h165l67 -179zM319 60q-19 -28 -53.5 -49t-92.5 -21q-75 0 -118.5 39t-43.5 106q0 71 52 120.5t154 56.5l164 12l3 13q7 32 -10 51t-54 19q-30 0 -45 -11.5t-19.5 -23l-4.5 -11.5h-176l5.5 18t21 44.5t44.5 53.5t75.5 45t114.5 18q91 0 146 -33t76 -84
t9 -105l-68 -318h-186l13 60h-7zM200 158q0 -22 15.5 -33.5t39.5 -11.5q35 0 63.5 22.5t37.5 65.5l3 16l-101 -8q-30 -2 -44 -16.5t-14 -34.5z" />
    <glyph glyph-name="uni1EA3.ss01" horiz-adv-x="599" 
d="M313 585l7 33q3 14 11.5 26.5t26.5 20.5l18 8q51 23 51 47q0 11 -8 19t-23 8q-19 0 -27.5 -8.5t-10.5 -17.5l-2 -9h-101l1.5 12.5t9 31t24 37t45 31t73.5 12.5q62 0 96 -31t34 -72q0 -27 -13 -47t-31.5 -33.5t-37 -22.5t-29.5 -15l-6 -3l-6 -27h-102zM319 60
q-19 -28 -53.5 -49t-92.5 -21q-75 0 -118.5 39t-43.5 106q0 71 52 120.5t154 56.5l164 12l3 13q7 32 -10 51t-54 19q-30 0 -45 -11.5t-19.5 -23l-4.5 -11.5h-176l5.5 18t21 44.5t44.5 53.5t75.5 45t114.5 18q91 0 146 -33t76 -84t9 -105l-68 -318h-186l13 60h-7zM200 158
q0 -22 15.5 -33.5t39.5 -11.5q35 0 63.5 22.5t37.5 65.5l3 16l-101 -8q-30 -2 -44 -16.5t-14 -34.5z" />
    <glyph glyph-name="amacron.ss01" horiz-adv-x="599" 
d="M202 613l22 102h340l-22 -102h-340zM319 60q-19 -28 -53.5 -49t-92.5 -21q-75 0 -118.5 39t-43.5 106q0 71 52 120.5t154 56.5l164 12l3 13q7 32 -10 51t-54 19q-30 0 -45 -11.5t-19.5 -23l-4.5 -11.5h-176l5.5 18t21 44.5t44.5 53.5t75.5 45t114.5 18q91 0 146 -33
t76 -84t9 -105l-68 -318h-186l13 60h-7zM200 158q0 -22 15.5 -33.5t39.5 -11.5q35 0 63.5 22.5t37.5 65.5l3 16l-101 -8q-30 -2 -44 -16.5t-14 -34.5z" />
    <glyph glyph-name="aogonek.ss01" horiz-adv-x="599" 
d="M437 -194q-72 0 -105.5 27t-33.5 68q0 36 21 60t47 39h-53l13 60h-7q-19 -28 -53.5 -49t-92.5 -21q-75 0 -118.5 39t-43.5 106q0 71 52 120.5t154 56.5l164 12l3 13q7 32 -10 51t-54 19q-30 0 -45 -11.5t-19.5 -23l-4.5 -11.5h-176l5.5 18t21 44.5t44.5 53.5t75.5 45
t114.5 18q91 0 146 -33t76 -84t9 -105l-68 -318l-15.5 -7.5t-31 -21t-15.5 -31.5q0 -13 10.5 -21.5t35.5 -8.5q11 0 21.5 1.5l10.5 1.5l-21 -102l-15.5 -2.5t-41.5 -2.5zM200 158q0 -22 15.5 -33.5t39.5 -11.5q35 0 63.5 22.5t37.5 65.5l3 16l-101 -8q-30 -2 -44 -16.5
t-14 -34.5z" />
    <glyph glyph-name="aring.ss01" horiz-adv-x="599" 
d="M396 578q-39 0 -71 19t-51 51t-19 71t19 70.5t51 50.5t71 19t71 -19t51 -50.5t19 -70.5t-19 -71t-51 -51t-71 -19zM396 668q21 0 36 14.5t15 36.5q0 21 -15 35.5t-36 14.5t-36 -14.5t-15 -35.5q0 -22 15 -36.5t36 -14.5zM319 60q-19 -28 -53.5 -49t-92.5 -21
q-75 0 -118.5 39t-43.5 106q0 71 52 120.5t154 56.5l164 12l3 13q7 32 -10 51t-54 19q-30 0 -45 -11.5t-19.5 -23l-4.5 -11.5h-176l5.5 18t21 44.5t44.5 53.5t75.5 45t114.5 18q91 0 146 -33t76 -84t9 -105l-68 -318h-186l13 60h-7zM200 158q0 -22 15.5 -33.5t39.5 -11.5
q35 0 63.5 22.5t37.5 65.5l3 16l-101 -8q-30 -2 -44 -16.5t-14 -34.5z" />
    <glyph glyph-name="atilde.ss01" horiz-adv-x="599" 
d="M462 612q-27 0 -47 9t-35 20.5t-28 20.5t-26 9q-26 0 -37 -53h-93q9 40 22 76t39 59.5t71 23.5q37 0 60.5 -14.5t41 -29.5t34.5 -15q14 0 22.5 13.5t14.5 39.5h93q-8 -39 -22 -75.5t-39.5 -60t-70.5 -23.5zM319 60q-19 -28 -53.5 -49t-92.5 -21q-75 0 -118.5 39
t-43.5 106q0 71 52 120.5t154 56.5l164 12l3 13q7 32 -10 51t-54 19q-30 0 -45 -11.5t-19.5 -23l-4.5 -11.5h-176l5.5 18t21 44.5t44.5 53.5t75.5 45t114.5 18q91 0 146 -33t76 -84t9 -105l-68 -318h-186l13 60h-7zM200 158q0 -22 15.5 -33.5t39.5 -11.5q35 0 63.5 22.5
t37.5 65.5l3 16l-101 -8q-30 -2 -44 -16.5t-14 -34.5z" />
    <glyph glyph-name="zero.dnom" horiz-adv-x="350" 
d="M169 -5q-53 0 -87.5 23t-51 60t-16.5 78q0 48 21.5 93.5t64 75.5t104.5 30q53 0 87 -23t50.5 -59.5t16.5 -77.5q0 -48 -22 -94t-64 -76t-103 -30zM173 94q21 0 36 16.5t23.5 41t8.5 47.5t-9.5 40t-32.5 17q-21 0 -36.5 -16.5t-24 -40.5t-8.5 -48q0 -22 10.5 -39.5
t32.5 -17.5z" />
    <glyph glyph-name="one.dnom" horiz-adv-x="161" 
d="M243 356l-74 -355h-117l47 220l-71 1l16 72l8 2q40 10 67.5 23.5t52.5 33.5l3 3h68z" />
    <glyph glyph-name="two.dnom" horiz-adv-x="153" 
d="M-176 1l16 75l85 52q63 38 88 62.5t25 43.5q0 14 -9 23.5t-26 9.5q-18 0 -26 -9t-10 -18.5l-2 -9.5h-106l1.5 13t8 32.5t22.5 39.5t44 33t73 13q71 0 107 -35t36 -82q0 -37 -20 -65t-49.5 -49t-60.5 -35h116l-19 -94h-294z" />
    <glyph glyph-name="three.dnom" horiz-adv-x="233" 
d="M158 -4q-46 0 -74.5 11.5t-43.5 29t-20.5 35t-6 29l-0.5 11.5h103l2.5 -7t12 -14t31.5 -7q25 0 35 10t10 19q0 7 -7.5 15.5t-29.5 8.5h-49l18 83h51q22 0 29.5 10t7.5 18q0 9 -8.5 17.5t-27.5 8.5q-21 0 -31 -9t-13 -18l-3 -9h-98l2.5 12.5t10 31t24 36.5t44 30.5
t70.5 12.5q47 0 77 -15t45 -37t15 -45q0 -27 -20 -50.5t-55 -32.5v-4q28 -10 43 -29t15 -43q0 -25 -17 -50t-52 -42t-90 -17z" />
    <glyph glyph-name="four.dnom" horiz-adv-x="178" 
d="M-21 1l14 67h-178l21 88l172 200h159l-43 -203h46l-18 -85h-47l-14 -67h-112zM-55 153h66l23 104z" />
    <glyph glyph-name="five.dnom" horiz-adv-x="223" 
d="M162 -4q-46 0 -75 12t-44 29.5t-21 35t-6.5 29.5l-0.5 12h98l3 -8.5t13.5 -17.5t31.5 -9q23 0 35.5 14.5t12.5 30.5q0 14 -9.5 25t-29.5 11q-22 0 -31.5 -10l-9.5 -10h-107l63 216h245l-22 -91h-159l-16 -55h3l6 7t20 14t39 7q56 0 85 -33t29 -74q0 -32 -17 -63.5
t-51 -51.5t-85 -20z" />
    <glyph glyph-name="six.dnom" horiz-adv-x="342" 
d="M171 -4q-69 0 -109.5 40t-40.5 104q0 54 27.5 105t80.5 83.5t129 32.5q36 0 57 -5l21 -5l-21 -93l-20 5.5t-49 5.5q-32 0 -60.5 -12t-44.5 -40q10 8 24.5 14t36.5 6q56 0 86.5 -33t30.5 -77q0 -31 -16 -61.5t-48.5 -50t-83.5 -19.5zM168 80q23 0 34.5 14.5t11.5 30.5
q0 14 -9.5 26t-29.5 12q-22 0 -34.5 -14.5t-12.5 -29.5q0 -14 10 -26.5t30 -12.5z" />
    <glyph glyph-name="seven.dnom" horiz-adv-x="231" 
d="M49 1q15 77 43 130t56.5 85.5t48.5 47.5h-161l19 92h283l-16 -77l-19.5 -17t-47.5 -51t-53.5 -86.5t-36.5 -123.5h-116z" />
    <glyph glyph-name="eight.dnom" horiz-adv-x="216" 
d="M36 -4q-74 0 -108.5 29.5t-34.5 67.5q0 24 17 53t66 42v3q-26 9 -40 27.5t-14 41.5q0 38 38 69.5t110 31.5q68 0 103.5 -28.5t35.5 -65.5q0 -23 -17.5 -47t-55.5 -38v-2q31 -13 45.5 -33.5t14.5 -45.5q0 -40 -40 -72.5t-120 -32.5zM63 220q21 0 32.5 11t11.5 24
q0 11 -9 20.5t-29 9.5q-22 0 -33 -11t-11 -24q0 -12 9.5 -21t28.5 -9zM41 74q26 0 38.5 13t12.5 28q0 12 -10.5 23t-32.5 11q-25 0 -38.5 -13t-13.5 -28q0 -12 11 -23t33 -11z" />
    <glyph glyph-name="nine.dnom" horiz-adv-x="342" 
d="M172 359q69 0 109.5 -39.5t40.5 -104.5q0 -54 -27.5 -104.5t-80 -83.5t-129.5 -33q-36 0 -57 5l-21 5l21 93l20.5 -5.5t48.5 -5.5q32 0 60.5 12t44.5 40q-10 -8 -24.5 -14t-36.5 -6q-55 0 -86 33t-31 77q0 32 16 62t49 49.5t83 19.5zM175 275q-22 0 -34 -14.5t-12 -30.5
q0 -13 10 -25.5t29 -12.5q23 0 35 14.5t12 29.5q0 14 -10 26.5t-30 12.5z" />
    <glyph glyph-name="zero.numr" horiz-adv-x="352" 
d="M245 345q-53 0 -87.5 23t-51 60t-16.5 78q0 48 21.5 94t64 75.5t104.5 29.5q53 0 87 -23t50.5 -59.5t16.5 -77.5q0 -49 -22 -94.5t-64 -75.5t-103 -30zM249 444q21 0 36 16.5t23.5 41t8.5 47.5t-9.5 40t-32.5 17q-21 0 -36.5 -16.5t-24 -40.5t-8.5 -48q0 -22 10.5 -39.5
t32.5 -17.5z" />
    <glyph glyph-name="one.numr" horiz-adv-x="161" 
d="M317 706l-74 -355h-117l47 220l-71 1l16 72l8 2q40 10 67.5 23.5t52.5 33.5l3 3h68z" />
    <glyph glyph-name="two.numr" horiz-adv-x="153" 
d="M-102 351l16 75l85 52q63 38 88 62.5t25 43.5q0 14 -9 23.5t-26 9.5q-18 0 -26 -9t-10 -18.5l-2 -9.5h-106l1.5 13t8 33t22.5 39.5t44 32.5t73 13q71 0 107 -35t36 -82q0 -37 -20 -65t-49.5 -49t-60.5 -35h116l-19 -94h-294z" />
    <glyph glyph-name="three.numr" horiz-adv-x="233" 
d="M232 346q-46 0 -74.5 11.5t-43.5 29t-20.5 35t-6 29l-0.5 11.5h103l2.5 -7t12 -14t31.5 -7q25 0 35 10t10 19q0 7 -7.5 15.5t-29.5 8.5h-49l18 83h51q22 0 29.5 10t7.5 18q0 9 -8.5 17.5t-27.5 8.5q-21 0 -31 -9t-13 -18l-3 -9h-98l2.5 12.5t10 31t24 36.5t44 30.5
t70.5 12.5q47 0 77 -15t45 -37t15 -45q0 -27 -20 -50.5t-55 -32.5v-4q28 -10 43 -29t15 -43q0 -25 -17 -50t-52 -42t-90 -17z" />
    <glyph glyph-name="four.numr" horiz-adv-x="178" 
d="M53 351l14 67h-178l21 88l172 200h159l-43 -203h46l-18 -85h-47l-14 -67h-112zM19 503h66l23 104z" />
    <glyph glyph-name="five.numr" horiz-adv-x="223" 
d="M236 346q-46 0 -75 12t-44 29.5t-21 35t-6.5 29.5l-0.5 12h98l3 -8.5t13.5 -17.5t31.5 -9q23 0 35.5 14.5t12.5 30.5q0 14 -9.5 25t-29.5 11q-22 0 -31.5 -10l-9.5 -10h-107l63 216h245l-22 -91h-159l-16 -55h3l6 7t20 14t39 7q56 0 85 -33t29 -74q0 -32 -17 -63.5
t-51 -51.5t-85 -20z" />
    <glyph glyph-name="six.numr" horiz-adv-x="342" 
d="M245 346q-69 0 -109.5 40t-40.5 104q0 54 27.5 105t80.5 83.5t129 32.5q36 0 57 -5l21 -5l-21 -93l-20 5.5t-49 5.5q-32 0 -60.5 -12t-44.5 -40q10 8 24.5 14t36.5 6q56 0 86.5 -33t30.5 -77q0 -31 -16 -61.5t-48.5 -50t-83.5 -19.5zM242 430q23 0 34.5 14.5t11.5 30.5
q0 14 -9.5 26t-29.5 12q-22 0 -34.5 -14.5t-12.5 -29.5q0 -14 10 -26.5t30 -12.5z" />
    <glyph glyph-name="seven.numr" horiz-adv-x="231" 
d="M123 351q15 77 43 130t56.5 85.5t48.5 47.5h-161l19 92h283l-16 -77l-19.5 -17t-47.5 -51t-53.5 -86.5t-36.5 -123.5h-116z" />
    <glyph glyph-name="eight.numr" horiz-adv-x="216" 
d="M110 346q-74 0 -108.5 29.5t-34.5 67.5q0 24 17 53t66 42v3q-26 9 -40 27.5t-14 41.5q0 38 38 69.5t110 31.5q68 0 103.5 -28.5t35.5 -65.5q0 -23 -17.5 -47t-55.5 -38v-2q31 -13 45.5 -33.5t14.5 -45.5q0 -40 -40 -72.5t-120 -32.5zM137 570q21 0 32.5 11t11.5 24
q0 11 -9 20.5t-29 9.5q-22 0 -33 -11t-11 -24q0 -12 9.5 -21t28.5 -9zM115 424q26 0 38.5 13t12.5 28q0 12 -10.5 23t-32.5 11q-25 0 -38.5 -13t-13.5 -28q0 -12 11 -23t33 -11z" />
    <glyph glyph-name="nine.numr" horiz-adv-x="342" 
d="M246 709q69 0 109.5 -39.5t40.5 -104.5q0 -54 -27.5 -104.5t-80 -83.5t-129.5 -33q-36 0 -57 5l-21 5l21 93l20.5 -5.5t48.5 -5.5q32 0 60.5 12t44.5 40q-10 -8 -24.5 -14t-36.5 -6q-55 0 -86 33t-31 77q0 32 16 62t49 49.5t83 19.5zM249 625q-22 0 -34 -14.5t-12 -30.5
q0 -13 10 -25.5t29 -12.5q23 0 35 14.5t12 29.5q0 14 -10 26.5t-30 12.5z" />
    <glyph glyph-name="colon.case" horiz-adv-x="303" 
d="M218 430q-43 0 -71 29.5t-28 69.5q0 41 28 70t71 29t71 -29t28 -70q0 -40 -28 -69.5t-71 -29.5zM148 78q-43 0 -71 29.5t-28 69.5q0 41 28 70t71 29t71 -29t28 -70q0 -40 -28 -69.5t-71 -29.5z" />
    <glyph glyph-name="parenleft.case" horiz-adv-x="487" 
d="M346 -211q-99 20 -162 82.5t-93.5 152.5t-30.5 192q0 89 22.5 180t65.5 173t105 146.5t142.5 102.5t177.5 39l-36 -171q-52 -4 -96.5 -34t-79 -79t-59 -109.5t-37.5 -125.5t-13 -127t14 -115t43 -89t74 -47z" />
    <glyph glyph-name="parenright.case" horiz-adv-x="487" 
d="M171 857q99 -20 162 -82.5t93.5 -152.5t30.5 -192q0 -89 -22.5 -180t-65.5 -173t-105 -146.5t-142.5 -102.5t-177.5 -39l36 171q52 4 96.5 34t79 79t59 109.5t37.5 126t13 126.5q0 62 -14 115t-42.5 89t-74.5 47z" />
    <glyph glyph-name="braceleft.case" horiz-adv-x="516" 
d="M284 -191q-86 0 -135 30.5t-64 84.5t0 125l34 162q12 60 -47 60h-46l34 160h41q33 0 53 16.5t27 53.5l40 192q20 99 78 149.5t168 50.5h137l-34 -161h-85q-60 0 -73 -60l-38 -181q-12 -57 -36 -88.5t-83 -47.5l-2 -8q50 -16 61 -52t0 -84l-38 -181q-6 -29 7 -44.5
t50 -15.5h75l-34 -161h-90z" />
    <glyph glyph-name="braceright.case" horiz-adv-x="516" 
d="M258 893q86 0 135 -30.5t64 -84.5t0 -125l-34 -162q-12 -60 47 -60h46l-34 -160h-41q-33 0 -52.5 -16.5t-27.5 -53.5l-40 -192q-20 -99 -78 -149.5t-168 -50.5h-137l34 161h85q60 0 73 60l38 181q12 57 36.5 88.5t82.5 47.5l2 8q-50 17 -60.5 52.5t-0.5 83.5l38 181
q6 29 -7 44.5t-50 15.5h-75l34 161h90z" />
    <glyph glyph-name="bracketleft.case" horiz-adv-x="574" 
d="M16 -191l230 1084h374l-34 -161h-179l-162 -762h179l-34 -161h-374z" />
    <glyph glyph-name="bracketright.case" horiz-adv-x="574" 
d="M595 893l-230 -1084h-374l34 161h179l162 762h-179l34 161h374z" />
    <glyph glyph-name="uni03060301" 
d="M420 792l-133 1l77 179h170zM321 592q-58 0 -93.5 17t-54 41.5t-25 49t-6.5 41.5v17h119l-0.5 -9.5t4 -22.5t17.5 -22.5t40 -9.5q28 0 45.5 9.5t27 22.5t13 22.5l3.5 9.5h119l-3.5 -17t-14 -41.5t-33.5 -49t-61 -41.5t-97 -17z" />
    <glyph glyph-name="uni03060300" 
d="M270 792l-104 180h165l67 -179zM321 592q-58 0 -93.5 17t-54 41.5t-25 49t-6.5 41.5v17h119l-0.5 -9.5t4 -22.5t17.5 -22.5t40 -9.5q28 0 45.5 9.5t27 22.5t13 22.5l3.5 9.5h119l-3.5 -17t-14 -41.5t-33.5 -49t-61 -41.5t-97 -17z" />
    <glyph glyph-name="uni03060309" 
d="M286 778l7 33q3 14 11.5 26.5t26.5 20.5l18 8q51 23 51 47q0 11 -8 19t-23 8q-19 0 -27.5 -8.5t-10.5 -17.5l-2 -9h-101l1.5 12.5t9 31t24 37t45 31t73.5 12.5q62 0 96 -31t34 -72q0 -27 -13 -47t-31.5 -33.5t-37 -22.5t-29.5 -15l-6 -3l-6 -27h-102zM321 592
q-58 0 -93.5 17t-54 41.5t-25 49t-6.5 41.5v17h119l-0.5 -9.5t4 -22.5t17.5 -22.5t40 -9.5q28 0 45.5 9.5t27 22.5t13 22.5l3.5 9.5h119l-3.5 -17t-14 -41.5t-33.5 -49t-61 -41.5t-97 -17z" />
    <glyph glyph-name="uni03060303" 
d="M435 805q-27 0 -47 9t-35 20.5t-28 20.5t-26 9q-26 0 -37 -53h-93q9 40 22 76t39 59.5t71 23.5q37 0 60.5 -14.5t41 -29.5t34.5 -15q14 0 22.5 13.5t14.5 39.5h93q-8 -39 -22 -75.5t-39.5 -60t-70.5 -23.5zM321 592q-58 0 -93.5 17t-54 41.5t-25 49t-6.5 41.5v17h119
l-0.5 -9.5t4 -22.5t17.5 -22.5t40 -9.5q28 0 45.5 9.5t27 22.5t13 22.5l3.5 9.5h119l-3.5 -17t-14 -41.5t-33.5 -49t-61 -41.5t-97 -17z" />
    <glyph glyph-name="uni03020301" 
d="M675 719l-133 1l77 179h170zM159 589l169 159h147l101 -159h-133l-50 85l-85 -85h-149z" />
    <glyph glyph-name="uni03020300" 
d="M549 719l-104 180h165l67 -179zM159 589l169 159h147l101 -159h-133l-50 85l-85 -85h-149z" />
    <glyph glyph-name="uni03020309" 
d="M540 697l7 33q3 14 11.5 26.5t26.5 20.5l18 8q51 23 51 47q0 11 -8 19t-23 8q-19 0 -27.5 -8.5t-10.5 -17.5l-2 -9h-101l1.5 12.5t9 31t24 37t45 31t73.5 12.5q62 0 96 -31t34 -72q0 -27 -13 -47t-31.5 -33.5t-37 -22.5t-29.5 -15l-6 -3l-6 -27h-102zM159 589l169 159
h147l101 -159h-133l-50 85l-85 -85h-149z" />
    <glyph glyph-name="uni03020303" 
d="M483 782q-27 0 -47 9t-35 20.5t-28 20.5t-26 9q-26 0 -37 -53h-93q9 40 22 76t39 59.5t71 23.5q37 0 60.5 -14.5t41 -29.5t34.5 -15q14 0 22.5 13.5t14.5 39.5h93q-8 -39 -22 -75.5t-39.5 -60t-70.5 -23.5zM159 589l169 159h147l101 -159h-133l-50 85l-85 -85h-149z" />
    </font>
</defs>
</svg>
