<?xml version="1.0" standalone="no"?>
<!DOCTYPE svg PUBLIC "-//W3C//DTD SVG 1.1//EN" "http://www.w3.org/Graphics/SVG/1.1/DTD/svg11.dtd" >
<svg xmlns="http://www.w3.org/2000/svg" xmlns:xlink="http://www.w3.org/1999/xlink" version="1.1">
<metadata>
Created by FontForge 20170731 at Sun Aug 15 09:03:40 2021
 By Aleksey,,,
Copyright 2021 The Be Vietnam Pro Project Authors (https://github.com/bettergui/BeVietnamPro)
</metadata>
<defs>
<font id="BeVietnamPro-ExtraLight" horiz-adv-x="637" >
  <font-face 
    font-family="Be Vietnam Pro ExtraLight"
    font-weight="200"
    font-stretch="normal"
    units-per-em="1000"
    panose-1="0 0 0 0 0 0 0 0 0 0"
    ascent="800"
    descent="-200"
    x-height="530"
    cap-height="740"
    bbox="-117 -258 1076 1155"
    underline-thickness="50"
    underline-position="-175"
    unicode-range="U+000D-2265"
  />
<missing-glyph horiz-adv-x="500" 
 />
    <glyph glyph-name="f_f.liga" unicode="ff" horiz-adv-x="732" 
d="M141 0v484h-103v46h103v86q0 40 13.5 75t44 57t81.5 22q23 0 40.5 -3l17.5 -3v-46l-17 3t-37 3q-52 0 -70.5 -31t-18.5 -77v-86h298v86q0 40 13.5 75t44.5 57t82 22q23 0 40.5 -3l17.5 -3v-46l-17 3t-37 3q-52 0 -70.5 -31t-18.5 -77v-86h134v-46h-134v-484h-55v484h-298
v-484h-54z" />
    <glyph glyph-name="f_f_i.liga" unicode="ffi" horiz-adv-x="966" 
d="M141 0v484h-103v46h103v86q0 40 13.5 75t44 57t81.5 22q23 0 40.5 -3l17.5 -3v-46l-17 3t-37 3q-52 0 -70.5 -31t-18.5 -77v-86h298v86q0 40 13.5 75t44.5 57t82 22q23 0 40.5 -3l17.5 -3v-46l-17 3t-37 3q-52 0 -70.5 -31t-18.5 -77v-86h329v-530h-54v484h-275v-484h-55
v484h-298v-484h-54zM849 634q-19 0 -31.5 13t-12.5 31t12.5 31.5t31.5 13.5t32 -13.5t13 -31.5t-13 -31t-32 -13z" />
    <glyph glyph-name="f_i.liga" unicode="fi" horiz-adv-x="613" 
d="M141 0v484h-103v46h103v86q0 40 13.5 75t44 57t81.5 22q23 0 40.5 -3l17.5 -3v-46l-17 3t-37 3q-52 0 -70.5 -31t-18.5 -77v-86h330v-530h-55v484h-275v-484h-54zM497 634q-19 0 -31.5 13t-12.5 31t12.5 31.5t31.5 13.5q18 0 31 -13.5t13 -31.5t-13 -31t-31 -13z" />
    <glyph glyph-name="colon_b_e_colon.liga" unicode="&#x3a;be&#x3a;" horiz-adv-x="878" 
d="M123 432l23 177h160q43 0 66.5 16.5t31 43t3.5 55.5q52 -14 81 -54.5t29 -96.5q0 -38 -16.5 -70t-55 -51.5t-105.5 -19.5h-217zM64 -26l36 267h229q68 0 106 25t49 65t-1 83q50 -10 89.5 -41.5t62.5 -77t23 -99.5q0 -61 -29.5 -111.5t-86.5 -80.5t-138 -30h-340z" />
    <glyph glyph-name="colon_d_d_colon.liga" unicode="&#x3a;dd&#x3a;" horiz-adv-x="599" 
d="M264 127q-64 0 -106 30t-63.5 77t-21.5 98t21.5 98t63.5 77t106 30q62 0 98 -27.5t51 -56.5h4v146h-110v40h110v61h51v-61h81v-40h-81v-464h-51v76h-4q-9 -16 -27.5 -36t-48 -34t-73.5 -14zM271 172q49 0 82 23.5t49 60t16 76.5t-16 76.5t-49 60t-82 23.5t-81.5 -23.5
t-48.5 -60t-16 -75.5q0 -41 16 -77.5t49 -60t81 -23.5zM56 0v42h476v-42h-476z" />
    <glyph glyph-name="colon_s_t_a_r_colon.liga" unicode="&#x3a;star&#x3a;" horiz-adv-x="831" 
d="M215 51l80 250l-205 134l240 5l84 232l84 -232l240 -5l-204 -134l80 -250l-199 154z" />
    <glyph glyph-name=".notdef" horiz-adv-x="500" 
 />
    <glyph glyph-name=".null" horiz-adv-x="0" 
 />
    <glyph glyph-name="nonmarkingreturn" horiz-adv-x="333" 
 />
    <glyph glyph-name="CR" unicode="&#xd;" horiz-adv-x="600" 
 />
    <glyph glyph-name="space" unicode=" " horiz-adv-x="230" 
 />
    <glyph glyph-name="exclam" unicode="!" horiz-adv-x="247" 
d="M101 156l-4 584h54l-2 -584h-48zM123 -10q-19 0 -31.5 13.5t-12.5 31.5t12.5 31t31.5 13t32 -13t13 -31q0 -19 -13 -32t-32 -13z" />
    <glyph glyph-name="quotedbl" unicode="&#x22;" horiz-adv-x="275" 
d="M186 572l3 168h52l-19 -168h-36zM73 572l4 168h52l-19 -168h-37z" />
    <glyph glyph-name="numbersign" unicode="#" horiz-adv-x="760" 
d="M154 0l44 219h-150l11 52h150l40 199h-148l11 52h148l43 218h52l-43 -218h199l44 218h52l-44 -218h149l-11 -52h-148l-41 -199h147l-11 -52h-146l-44 -219h-52l44 219h-200l-44 -219h-52zM261 271h199l41 199h-200z" />
    <glyph glyph-name="dollar" unicode="$" horiz-adv-x="625" 
d="M290 -99v90q-72 5 -117 30t-70 59t-35.5 67t-12.5 55l-2 22h57l1.5 -17t9.5 -42t27 -51.5t53.5 -46t88.5 -24.5v311l-15 4q-102 21 -152.5 67t-50.5 126q0 60 31 103.5t81 68t106 27.5v89h49v-91q63 -5 103.5 -28t63.5 -53.5t33.5 -60t13 -49l2.5 -19.5h-55l-2 14.5
t-10 36.5t-25.5 44.5t-47.5 40.5t-76 23v-296l15 -4q57 -12 105.5 -32.5t78.5 -59t30 -107.5q0 -58 -30.5 -103.5t-82 -73t-116.5 -31.5v-89h-49zM287 412h3v287q-74 -5 -118.5 -47t-44.5 -101q0 -61 42 -91.5t118 -47.5zM344 343l-5 1v-302q47 3 86 23t63 54t24 79
q0 46 -21 74t-58.5 44.5t-88.5 26.5z" />
    <glyph glyph-name="percent" unicode="%" horiz-adv-x="794" 
d="M201 471q-43 0 -73.5 19t-47.5 51t-17 70q0 57 37 98t101 41t101 -41t37 -98q0 -38 -17 -70t-47.5 -51t-73.5 -19zM171 0l397 740h55l-397 -740h-55zM201 513q44 0 68 29.5t24 68.5t-24 68t-68 29q-43 0 -67.5 -29t-24.5 -68t24.5 -68.5t67.5 -29.5zM593 -10
q-42 0 -73 19t-47.5 51t-16.5 70q0 57 36.5 98t100.5 41t101 -41t37 -98q0 -38 -16.5 -70t-47.5 -51t-74 -19zM593 32q44 0 68 29.5t24 68.5t-24 68.5t-68 29.5q-43 0 -67 -29.5t-24 -68.5t24 -68.5t67 -29.5z" />
    <glyph glyph-name="ampersand" unicode="&#x26;" horiz-adv-x="709" 
d="M299 -10q-67 0 -122 26t-87.5 73t-32.5 111q0 53 22.5 93t59 70.5t81.5 53.5q-13 15 -33 39t-35.5 57.5t-15.5 74.5q0 52 24 88.5t62.5 55t82.5 18.5q39 0 75 -17t59 -50.5t23 -81.5q0 -61 -39 -107.5t-119 -84.5l-6 -3l217 -244q29 47 45.5 114t16.5 154h50
q0 -101 -21 -177t-57 -130l109 -123h-72l-71 81q-45 -47 -101 -69t-115 -22zM266 442l2 -2l15 7q64 30 96 65.5t32 84.5q0 53 -33 80t-73 27q-48 0 -83 -30t-35 -86q0 -33 14 -60.5t33 -49t32 -36.5zM111 204q0 -52 26 -88.5t69.5 -56t95.5 -19.5q51 0 97.5 19.5t82.5 59.5
l-232 263q-32 -16 -64.5 -39.5t-53.5 -57.5t-21 -81z" />
    <glyph glyph-name="quotesingle" unicode="'" horiz-adv-x="162" 
d="M73 572l4 168h52l-19 -168h-37z" />
    <glyph glyph-name="parenleft" unicode="(" horiz-adv-x="406" 
d="M356 -191q-67 12 -121.5 57.5t-94 115.5t-61 156t-21.5 179t21.5 179t61 155.5t94 115t121.5 57.5v-50q-53 -12 -97.5 -53.5t-77.5 -104t-50.5 -139.5t-17.5 -160q0 -84 17.5 -160.5t50.5 -139.5t77.5 -104t97.5 -53v-51z" />
    <glyph glyph-name="parenright" unicode=")" horiz-adv-x="406" 
d="M50 824q67 -12 121.5 -57.5t94 -115.5t60.5 -155.5t21 -178.5t-21 -179t-60.5 -156t-94 -115.5t-121.5 -57.5v51q53 12 97.5 53t77 104t50.5 139.5t18 160.5q0 83 -18 160t-50.5 139.5t-77 104t-97.5 53.5v50z" />
    <glyph glyph-name="asterisk" unicode="*" horiz-adv-x="496" 
d="M148 358l-39 28l101 138l-163 52l15 47l163 -55l-1 172h48v-172l163 55l14 -47l-162 -52l100 -138l-39 -28l-100 138z" />
    <glyph glyph-name="plus" unicode="+" horiz-adv-x="608" 
d="M279 127v161h-161v50h161v161h50v-161h161v-50h-161v-161h-50z" />
    <glyph glyph-name="comma" unicode="," horiz-adv-x="262" 
d="M79 -90l52 84q-21 1 -32.5 15t-11.5 31q0 20 13 33.5t35 13.5q19 0 33.5 -12t14.5 -35q0 -19 -13.5 -42t-44.5 -69l-12 -19h-34z" />
    <glyph glyph-name="hyphen" unicode="-" horiz-adv-x="608" 
d="M118 288v50h372v-50h-372z" />
    <glyph glyph-name="period" unicode="." horiz-adv-x="252" 
d="M126 -7q-20 0 -33.5 14t-13.5 33t13.5 33t33.5 14q19 0 33 -14t14 -33t-14 -33t-33 -14z" />
    <glyph glyph-name="slash" unicode="/" horiz-adv-x="497" 
d="M67 -129l345 949h53l-345 -949h-53z" />
    <glyph glyph-name="zero" unicode="0" horiz-adv-x="636" 
d="M318 -10q-64 0 -112.5 30.5t-81.5 83.5t-49.5 121.5t-16.5 144.5q0 77 16.5 145.5t49.5 121.5t81.5 83t112.5 30t112.5 -30t81.5 -83t49.5 -121.5t16.5 -145.5q0 -76 -16.5 -144.5t-49.5 -121.5t-81.5 -83.5t-112.5 -30.5zM318 43q59 0 104.5 37.5t71.5 110.5t26 179
t-26 179t-71.5 110.5t-104.5 37.5q-58 0 -104 -37.5t-72 -110.5t-26 -179t26 -179t71.5 -110.5t104.5 -37.5z" />
    <glyph glyph-name="one" unicode="1" horiz-adv-x="344" 
d="M227 740v-740h-55v619h-122v33l24 5q47 9 72.5 27t43.5 46l7 10h30z" />
    <glyph glyph-name="two" unicode="2" horiz-adv-x="607" 
d="M69 0l-1 42l181 174q60 58 110 107t81 99t31 108q0 55 -25 92t-64.5 56.5t-82.5 19.5q-57 0 -96 -27.5t-58.5 -70t-19.5 -86.5h-55q0 38 14 79.5t42 77t71.5 57.5t102.5 22q58 0 110 -25t84.5 -74t32.5 -121q0 -67 -33.5 -123t-87 -108.5t-114.5 -110.5l-140 -135h393
v-53h-476z" />
    <glyph glyph-name="three" unicode="3" horiz-adv-x="633" 
d="M317 -10q-63 0 -118 25t-89.5 75t-34.5 126h55q0 -59 27 -98t69.5 -58.5t90.5 -19.5q49 0 91.5 19.5t68.5 57.5t26 93q0 70 -45.5 110.5t-122.5 40.5h-99v48h99q42 0 77 16t55.5 47t20.5 75q0 49 -24.5 83t-63.5 52t-83 18q-43 0 -83 -19t-65 -58t-25 -100h-55
q0 77 33.5 127.5t86 75t109.5 24.5t108.5 -23.5t84 -68t32.5 -107.5q0 -55 -27.5 -98t-81.5 -64v-4q58 -20 91.5 -67t33.5 -111q0 -69 -33.5 -117t-88.5 -74t-120 -26z" />
    <glyph glyph-name="four" unicode="4" horiz-adv-x="643" 
d="M409 0v185l-365 1v51l357 503h63v-505h129v-50h-129v-185h-55zM104 235h305v429z" />
    <glyph glyph-name="five" unicode="5" horiz-adv-x="653" 
d="M328 -10q-60 0 -102.5 16.5t-69.5 42t-42.5 54t-22 54.5t-8.5 42l-2 16h55l2 -17.5t11 -43.5t29.5 -52t57 -43.5t92.5 -17.5q64 0 107.5 30t65 77t21.5 98q0 50 -21.5 96.5t-64 76t-106.5 29.5q-52 0 -86 -16.5t-53.5 -38t-27.5 -37.5l-8 -16h-55l60 400h372v-51h-329
l-40 -268h2q3 3 14 15t31 26.5t51 25t73 10.5q81 0 135 -36.5t81.5 -94.5t27.5 -121q0 -48 -15.5 -93.5t-47 -82.5t-78.5 -58.5t-109 -21.5z" />
    <glyph glyph-name="six" unicode="6" horiz-adv-x="657" 
d="M339 -10q-89 0 -147 44.5t-86 119t-28 163.5q0 55 11 114.5t35.5 116t65 102.5t98 73t135.5 27q47 0 81.5 -8l34.5 -8v-52l-16.5 4t-43.5 7.5t-56 3.5q-80 0 -134.5 -33t-87.5 -85.5t-48.5 -113.5t-16.5 -116q5 14 18.5 37t38 46t61 39t89.5 16q78 0 131 -36t79.5 -92.5
t26.5 -119.5q0 -62 -27 -119t-80.5 -93.5t-133.5 -36.5zM338 41q58 0 99.5 27t64.5 72t23 98q0 55 -23 100t-64.5 71.5t-99.5 26.5t-100 -27t-64.5 -72t-22.5 -99t22.5 -99t64.5 -71.5t100 -26.5z" />
    <glyph glyph-name="seven" unicode="7" horiz-adv-x="578" 
d="M187 0q4 97 27.5 187t57 169.5t70.5 145t69.5 113t52.5 73.5h-415v52h482v-45l-19.5 -24.5t-51.5 -70.5t-67.5 -109.5t-68.5 -141t-55.5 -166t-26.5 -183.5h-55z" />
    <glyph glyph-name="eight" unicode="8" horiz-adv-x="627" 
d="M314 -10q-78 0 -132.5 30.5t-83 79.5t-28.5 104q0 53 21.5 92t53 64.5t61.5 35.5v5q-26 10 -52 32.5t-43.5 54.5t-17.5 73q0 50 25.5 93t75 69.5t120.5 26.5t120 -26.5t74.5 -69.5t25.5 -93q0 -41 -17 -73t-43 -54.5t-53 -32.5v-5q30 -10 61.5 -35.5t53 -64.5t21.5 -92
q0 -55 -28 -104t-82.5 -79.5t-132.5 -30.5zM314 421q54 0 91 20.5t55.5 52.5t18.5 67t-18.5 67.5t-55.5 52.5t-91 20q-55 0 -91.5 -20t-55.5 -52.5t-19 -67.5t19 -67t55.5 -52.5t91.5 -20.5zM314 39q62 0 104 24.5t63 63t21 81.5q0 41 -20.5 78.5t-62.5 61.5t-105 24
t-105 -24t-63 -61.5t-21 -78.5q0 -43 21 -81.5t63 -63t105 -24.5z" />
    <glyph glyph-name="nine" unicode="9" horiz-adv-x="657" 
d="M319 750q89 0 146.5 -45t86 -119t28.5 -163q0 -55 -11.5 -114.5t-36 -116t-64.5 -102.5t-98 -73t-136 -27q-47 0 -81.5 8l-34.5 8v52l17 -4t43.5 -7.5t55.5 -3.5q81 0 135.5 33t87.5 85.5t48 113.5t17 116q-6 -14 -19.5 -37t-37.5 -46t-61 -39t-89 -16q-79 0 -131.5 36
t-79 93t-26.5 119t26.5 119t80 93.5t134.5 36.5zM319 699q-57 0 -99 -27t-64.5 -71.5t-22.5 -98.5q0 -55 22.5 -100t64.5 -71.5t99 -26.5q58 0 100 27t65 72t23 99t-23 99t-65 71.5t-100 26.5z" />
    <glyph glyph-name="colon" unicode=":" horiz-adv-x="252" 
d="M126 447q-20 0 -33.5 13.5t-13.5 33.5q0 19 13.5 32.5t33.5 13.5q19 0 33 -13.5t14 -32.5q0 -20 -14 -33.5t-33 -13.5zM126 -10q-20 0 -33.5 14t-13.5 33t13.5 32.5t33.5 13.5q19 0 33 -13.5t14 -32.5t-14 -33t-33 -14z" />
    <glyph glyph-name="semicolon" unicode=";" horiz-adv-x="262" 
d="M131 447q-20 0 -33 13.5t-13 33.5q0 19 13 32.5t33 13.5t33.5 -13.5t13.5 -32.5q0 -20 -13.5 -33.5t-33.5 -13.5zM79 -88l52 84q-21 1 -32.5 15t-11.5 31q0 20 13 33.5t35 13.5q19 0 33.5 -12t14.5 -35q0 -19 -13.5 -42t-44.5 -69l-12 -19h-34z" />
    <glyph glyph-name="less" unicode="&#x3c;" horiz-adv-x="547" 
d="M461 127l-374 187v36l374 187v-53l-308 -152l308 -152v-53z" />
    <glyph glyph-name="equal" unicode="=" horiz-adv-x="713" 
d="M118 404v50h477v-50h-477zM118 183v50h477v-50h-477z" />
    <glyph glyph-name="greater" unicode="&#x3e;" horiz-adv-x="547" 
d="M87 127v53l307 152l-307 152v53l374 -187v-36z" />
    <glyph glyph-name="question" unicode="?" horiz-adv-x="578" 
d="M253 156v24q0 56 20 95.5t49.5 70t59.5 59t50 62t20 80.5q0 49 -23.5 82.5t-61 51.5t-78.5 18t-79 -18.5t-61.5 -57t-23.5 -97.5h-55q0 75 32.5 125t83 74.5t104.5 24.5q56 0 106 -23.5t81 -68.5t31 -110q0 -54 -20.5 -92.5t-50.5 -69.5t-60.5 -60t-50.5 -64t-20 -82v-24
h-53zM279 -10q-19 0 -31.5 13.5t-12.5 31.5t12.5 31t31.5 13t32 -13t13 -31q0 -19 -13 -32t-32 -13z" />
    <glyph glyph-name="at" unicode="@" horiz-adv-x="957" 
d="M494 -98q-110 0 -192 34.5t-136 93.5t-81 134t-27 156q0 82 27 158t79.5 135.5t131.5 94.5t183 35q84 0 159.5 -27.5t134 -80t92.5 -128.5t34 -173q0 -69 -17.5 -121.5t-52 -82.5t-84.5 -30q-39 0 -66 17t-43 41.5t-22 48.5h-4q-7 -19 -26.5 -44t-53 -44t-82.5 -19
q-64 0 -106 32.5t-63 83t-21 105.5t21 105t63 82t105 32q44 0 74 -15t48.5 -35.5t27.5 -36.5h4v79h51v-207q0 -16 1.5 -45t10 -60t28 -52.5t54.5 -21.5q51 0 76.5 50t25.5 137q0 88 -29.5 156t-81.5 114t-118 70t-140 24q-92 0 -161 -31t-115.5 -84t-70 -120.5t-23.5 -139.5
q0 -73 23.5 -140t71 -119.5t120 -83t169.5 -30.5q73 0 126.5 14.5t82.5 29l29 14.5l19 -43l-30 -15.5t-87.5 -31t-138.5 -15.5zM454 145q49 0 81 25.5t48 66t16 83.5q0 44 -16 84t-48 65.5t-81 25.5q-48 0 -80 -25.5t-48 -65.5t-16 -84q0 -43 16 -83.5t48 -66t80 -25.5z" />
    <glyph glyph-name="A" unicode="A" horiz-adv-x="688" 
d="M45 0l265 740h68l265 -740h-59l-74 206h-332l-74 -206h-59zM195 256h298l-149 418z" />
    <glyph glyph-name="B" unicode="B" horiz-adv-x="649" 
d="M87 0v740h273q68 0 114 -27t69.5 -70t23.5 -91q0 -65 -34.5 -110.5t-80.5 -60.5v-4q59 -16 100.5 -62t41.5 -116q0 -49 -24.5 -94.5t-76 -75t-130.5 -29.5h-276zM359 689h-216v-289h216q52 0 86 21t51 54.5t17 69.5t-17 69t-51 54t-86 21zM362 352h-219v-301h219
q60 0 99 22t58 56.5t19 72.5q0 37 -19 71.5t-58 56.5t-99 22z" />
    <glyph glyph-name="C" unicode="C" horiz-adv-x="760" 
d="M398 -10q-85 0 -148.5 32t-106 86.5t-64 122.5t-21.5 140q0 71 21.5 138.5t64 122t106 86.5t148.5 32q69 0 118.5 -18t83 -46t54 -60t31 -60t14 -46l3.5 -18h-57l-5 19.5t-18.5 49t-40.5 58.5t-71.5 48.5t-110.5 19.5q-71 0 -124 -28t-88.5 -74.5t-53.5 -105t-18 -118.5
q0 -62 18 -120t53.5 -105t88.5 -75t124 -28q66 0 110.5 19.5t71.5 49t40.5 58.5t18.5 48.5l5 19.5h57l-3.5 -18t-14 -46t-31 -60t-54 -60t-83 -46t-118.5 -18z" />
    <glyph glyph-name="D" unicode="D" horiz-adv-x="715" 
d="M87 0v740h222q87 0 152 -31.5t108.5 -84.5t65 -119t21.5 -135t-21.5 -135t-65 -119t-108.5 -84.5t-152 -31.5h-222zM307 689h-164v-638h164q73 0 128 27t91.5 73t55 102.5t18.5 116.5t-18.5 116.5t-55 102.5t-91.5 73t-128 27z" />
    <glyph glyph-name="E" unicode="E" horiz-adv-x="599" 
d="M87 0v740h434v-51h-378v-285h330v-51h-330v-302h384v-51h-440z" />
    <glyph glyph-name="F" unicode="F" horiz-adv-x="605" 
d="M87 0v740h446v-51h-390v-295h342v-51h-342v-343h-56z" />
    <glyph glyph-name="G" unicode="G" horiz-adv-x="776" 
d="M401 -10q-86 0 -150.5 32t-107 86.5t-64 122.5t-21.5 139t21.5 138.5t64.5 122t107.5 87t150.5 32.5q69 0 118.5 -17t83 -44t54 -57.5t31.5 -57.5t14.5 -44.5l3.5 -17.5h-58l-4.5 19t-18.5 46.5t-41 55t-71.5 46.5t-110.5 19q-73 0 -127 -28t-90 -75t-53.5 -105.5
t-17.5 -119.5t17.5 -120t53.5 -105.5t89.5 -74.5t125.5 -28q82 0 139.5 35t88 97t30.5 144v5h-247v49h301v-50q0 -96 -37 -171t-107 -118t-168 -43z" />
    <glyph glyph-name="H" unicode="H" horiz-adv-x="674" 
d="M87 0v740h56v-330h388v330h56v-740h-56v360h-388v-360h-56z" />
    <glyph glyph-name="I" unicode="I" horiz-adv-x="229" 
d="M87 0v740h56v-740h-56z" />
    <glyph glyph-name="J" unicode="J" horiz-adv-x="430" 
d="M116 -10q-30 0 -56.5 3l-26.5 3v51l26 -2.5t53 -2.5q84 0 129.5 43.5t45.5 135.5v519h56v-519q0 -112 -58.5 -171.5t-168.5 -59.5z" />
    <glyph glyph-name="K" unicode="K" horiz-adv-x="628" 
d="M87 0v740h56v-340l351 339h76l-372 -357l388 -382h-78l-365 361v-361h-56z" />
    <glyph glyph-name="L" unicode="L" horiz-adv-x="607" 
d="M87 0v740h56v-689h392v-51h-448z" />
    <glyph glyph-name="M" unicode="M" horiz-adv-x="851" 
d="M87 0v740h75l264 -485l263 485h75v-740h-54v664l-259 -473h-51l-259 474v-665h-54z" />
    <glyph glyph-name="N" unicode="N" horiz-adv-x="722" 
d="M87 0v740h53l439 -641v641h56v-740h-53l-439 642v-642h-56z" />
    <glyph glyph-name="O" unicode="O" horiz-adv-x="817" 
d="M408 -10q-86 0 -151.5 32.5t-109.5 87t-66.5 122t-22.5 138.5t22.5 139t66.5 122.5t109.5 86.5t151.5 32t151.5 -32t110 -86.5t66.5 -122.5t22 -139t-22 -138.5t-66.5 -122t-110 -87t-151.5 -32.5zM408 43q80 0 146.5 39.5t106.5 113t40 174.5q0 102 -40 175
t-106.5 112.5t-146.5 39.5q-79 0 -145.5 -39.5t-106.5 -112.5t-40 -175q0 -101 40 -174.5t106.5 -113t145.5 -39.5z" />
    <glyph glyph-name="P" unicode="P" horiz-adv-x="619" 
d="M87 0v740h251q79 0 132.5 -33.5t80 -86t26.5 -110.5q0 -57 -26.5 -110t-80 -86.5t-132.5 -33.5h-195v-280h-56zM338 689h-195v-358h195q61 0 102 26t61 67t20 86t-20 86t-61 67t-102 26z" />
    <glyph glyph-name="Q" unicode="Q" horiz-adv-x="799" 
d="M408 -10q-86 0 -151.5 32.5t-109.5 87t-66.5 122t-22.5 138.5t22.5 139t66.5 122.5t109.5 86.5t151.5 32t151.5 -32t110 -86.5t66.5 -122.5t22 -139q0 -76 -25.5 -148.5t-75.5 -127.5l94 -94h-68l-62 61q-41 -33 -94.5 -52t-118.5 -19zM408 43q98 0 173 57l-143 140
l38 34l141 -140q39 42 61.5 102t22.5 134q0 102 -40 175t-106.5 112.5t-146.5 39.5q-79 0 -145.5 -39.5t-106.5 -112.5t-40 -175q0 -101 40 -174.5t106.5 -113t145.5 -39.5z" />
    <glyph glyph-name="R" unicode="R" horiz-adv-x="649" 
d="M87 0v740h237q74 0 123.5 -29.5t74 -76t24.5 -97.5q0 -46 -19.5 -88t-58.5 -72.5t-97 -39.5l199 -337h-65l-195 333h-167v-333h-56zM324 689h-181v-306h181q55 0 91.5 22.5t54.5 57.5t18 73t-18 73t-54.5 57.5t-91.5 22.5z" />
    <glyph glyph-name="S" unicode="S" horiz-adv-x="616" 
d="M321 -10q-66 0 -112 16.5t-75 42t-46 54t-24 54.5t-9 42l-2 16h57l2 -17.5t12 -43t32 -51.5t62 -43.5t103 -17.5q53 0 94 19.5t64.5 54t23.5 79.5t-19.5 74t-53.5 46.5t-76 28.5l-92 22q-83 20 -133.5 63.5t-50.5 123.5q0 60 29.5 104t81 68.5t115.5 24.5q68 0 111.5 -21
t68.5 -52t37 -62t15 -52l3 -21h-55l-2.5 16t-11 39t-28 46.5t-53 39t-86.5 15.5q-56 0 -94 -19.5t-57.5 -52t-19.5 -70.5q0 -56 36.5 -87t102.5 -47l94 -22q86 -21 139.5 -69.5t53.5 -133.5q0 -56 -29 -103.5t-82.5 -75.5t-125.5 -28z" />
    <glyph glyph-name="T" unicode="T" 
d="M291 0v689h-249v51h553v-51h-248v-689h-56z" />
    <glyph glyph-name="U" unicode="U" horiz-adv-x="704" 
d="M352 -10q-90 0 -149 36.5t-87.5 99.5t-28.5 142v472h56v-472q0 -102 52 -163t157 -61t157.5 61t52.5 163v472h56v-472q0 -79 -29 -142t-87.5 -99.5t-149.5 -36.5z" />
    <glyph glyph-name="V" unicode="V" horiz-adv-x="685" 
d="M308 0l-265 740h60l239 -674l240 674h59l-265 -740h-68z" />
    <glyph glyph-name="W" unicode="W" horiz-adv-x="1009" 
d="M257 0l-204 740h59l177 -657l187 657h57l187 -657l177 657h59l-204 -740h-64l-183 648l-184 -648h-64z" />
    <glyph glyph-name="X" unicode="X" horiz-adv-x="672" 
d="M52 0l246 370l-246 370h66l218 -328l218 328h66l-247 -370l247 -370h-66l-218 327l-218 -327h-66z" />
    <glyph glyph-name="Y" unicode="Y" horiz-adv-x="662" 
d="M303 0v273l-271 467h62l237 -411l237 411h63l-272 -467v-273h-56z" />
    <glyph glyph-name="Z" unicode="Z" horiz-adv-x="633" 
d="M67 0v46l433 643h-433v51h501v-46l-433 -643h433v-51h-501z" />
    <glyph glyph-name="bracketleft" unicode="[" horiz-adv-x="434" 
d="M87 -191v1015h267v-49h-213v-916h213v-50h-267z" />
    <glyph glyph-name="backslash" unicode="\" horiz-adv-x="485" 
d="M418 -129h-53l-345 949h53z" />
    <glyph glyph-name="bracketright" unicode="]" horiz-adv-x="434" 
d="M347 824v-1015h-267v50h212v916h-212v49h267z" />
    <glyph glyph-name="asciicircum" unicode="^" horiz-adv-x="516" 
d="M118 583l114 157h52l114 -157h-53l-87 118l-87 -118h-53z" />
    <glyph glyph-name="underscore" unicode="_" horiz-adv-x="702" 
d="M118 -49v49h466v-49h-466z" />
    <glyph glyph-name="grave" unicode="`" horiz-adv-x="202" 
d="M135 615l-96 162h60l86 -161z" />
    <glyph glyph-name="a" unicode="a" horiz-adv-x="631" 
d="M302 540q59 0 97.5 -21.5t60.5 -49t32 -45.5h4v106h55v-530h-55v106h-4q-10 -18 -32 -45.5t-60.5 -49t-97.5 -21.5q-60 0 -104.5 23.5t-74.5 62.5t-45 88.5t-15 100.5t15 100t45 88.5t74.5 63t104.5 23.5zM308 490q-64 0 -106 -33t-63 -84.5t-21 -107.5t21 -107.5
t63 -84.5t106 -33q63 0 105 33t63 84.5t21 107.5t-21 107.5t-63 84.5t-105 33z" />
    <glyph glyph-name="b" unicode="b" 
d="M335 -10q-59 0 -97.5 21.5t-60.5 49t-31 45.5h-5v-106h-54v760h54v-336h5q9 18 31 45.5t60.5 49t97.5 21.5q60 0 105 -23.5t74.5 -62.5t44.5 -88t15 -101q0 -51 -15 -100t-44.5 -88.5t-74.5 -63t-105 -23.5zM329 40q65 0 107 33t62.5 84.5t20.5 107.5t-20.5 107.5
t-62.5 84.5t-107 33q-63 0 -105 -33t-63 -84.5t-21 -107.5t21 -107.5t63 -84.5t105 -33z" />
    <glyph glyph-name="c" unicode="c" horiz-adv-x="604" 
d="M317 -10q-64 0 -111.5 23.5t-79 62.5t-47.5 88.5t-16 100.5t16 100t47.5 88.5t79 63t111.5 23.5q60 0 100.5 -18t65 -45t37 -54t17 -45l4.5 -18h-54l-3.5 13t-13 32.5t-28.5 39t-49 32.5t-75 13q-67 0 -111.5 -32.5t-66.5 -84t-22 -108.5t22 -108.5t66.5 -84t111.5 -32.5
q45 0 75 13t49 32.5t28.5 39t13 32.5l3.5 13h54l-4.5 -18t-17 -45t-37 -54t-65 -45t-100.5 -18z" />
    <glyph glyph-name="d" unicode="d" 
d="M302 -10q-60 0 -104.5 23.5t-74.5 62.5t-45 88.5t-15 100.5t15 100t45 88.5t74.5 63t104.5 23.5q59 0 97.5 -21.5t60.5 -49t32 -45.5h4v336h55v-760h-55v106h-4q-10 -18 -32 -45.5t-60.5 -49t-97.5 -21.5zM308 40q63 0 105 33t63 84.5t21 107.5t-21 107.5t-63 84.5
t-105 33q-64 0 -106 -33t-63 -84.5t-21 -107.5t21 -107.5t63 -84.5t106 -33z" />
    <glyph glyph-name="e" unicode="e" horiz-adv-x="590" 
d="M306 -10q-63 0 -109 24t-75.5 64t-44 88.5t-14.5 98.5t14.5 99t44 89t74.5 63.5t106 23.5q66 0 116.5 -30.5t79 -91t28.5 -150.5v-16h-406q1 -57 23.5 -105.5t63.5 -77.5t99 -29q49 0 80.5 17t48.5 39.5t24 40l7 17.5h53l-5 -16.5t-18 -41t-37 -49t-61 -41t-92 -16.5z
M121 298h350q-3 71 -27.5 113t-61.5 60.5t-80 18.5q-79 0 -126.5 -53t-54.5 -139z" />
    <glyph glyph-name="f" unicode="f" horiz-adv-x="379" 
d="M141 0v484h-103v46h103v86q0 40 13.5 75t44 57t81.5 22q23 0 40.5 -3l17.5 -3v-46l-17 3t-37 3q-52 0 -70.5 -31t-18.5 -77v-86h134v-46h-134v-484h-54z" />
    <glyph glyph-name="g" unicode="g" horiz-adv-x="628" 
d="M320 -210q-63 0 -104.5 17t-66.5 42.5t-37 50.5t-15.5 42.5l-3.5 17.5h55l2.5 -12.5t11.5 -30t28 -35.5t50.5 -30t79.5 -12q53 0 87.5 17t54 45t27.5 60.5t8 63.5v86h-5q-9 -18 -31 -45t-61 -48t-99 -21q-59 0 -104 23t-74.5 62t-44.5 87.5t-15 98.5q0 51 15 99t44.5 87
t74.5 62t104 23q60 0 99 -21t61 -48t31 -45h5v104h54v-504q0 -112 -62.5 -174t-168.5 -62zM308 48q63 0 105 32t63 83t21 106q0 56 -21 106.5t-63 82.5t-105 32t-105.5 -32t-63.5 -82.5t-21 -106.5q0 -55 21 -106t63.5 -83t105.5 -32z" />
    <glyph glyph-name="h" unicode="h" horiz-adv-x="574" 
d="M87 0v760h54v-329h4q8 19 27 44.5t52.5 45t84.5 19.5q59 0 100.5 -27.5t63 -75t21.5 -107.5v-330h-54v328q0 70 -35.5 116.5t-104.5 46.5q-55 0 -90.5 -30t-52 -75t-16.5 -92v-294h-54z" />
    <glyph glyph-name="i" unicode="i" horiz-adv-x="232" 
d="M115 634q-19 0 -31.5 13t-12.5 31t12.5 31t31.5 13t32 -13t13 -31t-13 -31t-32 -13zM89 0v530h54v-530h-54z" />
    <glyph glyph-name="j" unicode="j" horiz-adv-x="245" 
d="M128 630q-19 0 -31.5 13t-12.5 32q0 18 12.5 31t31.5 13t32 -13t13 -31q0 -19 -13 -32t-32 -13zM8 -207q-22 0 -39 2.5l-17 2.5v48l15 -2t33 -2q59 0 79.5 29t20.5 76v583h54v-583q0 -39 -13 -74t-44.5 -57.5t-88.5 -22.5z" />
    <glyph glyph-name="k" unicode="k" horiz-adv-x="514" 
d="M87 0v760h54v-453l249 223h75l-265 -238l274 -292h-72l-261 278v-278h-54z" />
    <glyph glyph-name="l" unicode="l" horiz-adv-x="228" 
d="M87 0l1 760h54v-760h-55z" />
    <glyph glyph-name="m" unicode="m" horiz-adv-x="898" 
d="M80 0v530h54v-95h4q9 18 28 43t51.5 43.5t81.5 18.5q61 0 103.5 -32.5t60.5 -90.5h2q13 31 36 59.5t57 46t83 17.5q81 0 129 -56.5t48 -156.5v-327h-55v325q0 80 -35 122.5t-97 42.5q-54 0 -88 -30t-50.5 -77t-16.5 -99v-284h-54v325q0 80 -35.5 122.5t-97.5 42.5
q-54 0 -88 -30t-50.5 -77t-16.5 -99v-284h-54z" />
    <glyph glyph-name="n" unicode="n" horiz-adv-x="568" 
d="M80 0v530h54v-99h4q8 19 27 44.5t53 45t85 19.5q58 0 99.5 -27.5t63.5 -75t22 -107.5v-330h-55v328q0 70 -35.5 116.5t-103.5 46.5q-56 0 -91 -30t-52 -75t-17 -92v-294h-54z" />
    <glyph glyph-name="o" unicode="o" horiz-adv-x="627" 
d="M314 -10q-63 0 -109.5 23t-78 62.5t-47.5 88.5t-16 101t16 101t47.5 88.5t78 62.5t109.5 23q62 0 109 -23t78 -62.5t47 -88.5t16 -101t-16 -101t-47 -88.5t-78 -62.5t-109 -23zM314 40q64 0 107.5 32.5t65 84t21.5 108.5t-21.5 108.5t-65 84t-107.5 32.5
q-65 0 -108 -32.5t-65 -84t-22 -108.5t22 -108.5t65 -84t108 -32.5z" />
    <glyph glyph-name="p" unicode="p" 
d="M87 -195v725h54v-106h5q9 18 31 45.5t60.5 49t97.5 21.5q60 0 105 -23.5t74.5 -62.5t44.5 -88t15 -101q0 -51 -15 -100t-44.5 -88.5t-74.5 -63t-105 -23.5q-59 0 -97.5 21.5t-60.5 49t-31 45.5h-5v-301h-54zM140 265q0 -56 21 -107.5t63 -84.5t105 -33q65 0 107 33
t62.5 84.5t20.5 107.5t-20.5 107.5t-62.5 84.5t-107 33q-63 0 -105 -33t-63 -84.5t-21 -107.5z" />
    <glyph glyph-name="q" unicode="q" 
d="M496 -195v301h-4q-10 -18 -32 -45.5t-60.5 -49t-97.5 -21.5q-60 0 -104.5 23.5t-74.5 62.5t-45 88.5t-15 100.5t15 100t45 88.5t74.5 63t104.5 23.5q59 0 97.5 -21.5t60.5 -49t32 -45.5h4v106h55v-725h-55zM308 40q63 0 105 33t63 84.5t21 107.5t-21 107.5t-63 84.5
t-105 33q-64 0 -106 -33t-63 -84.5t-21 -107.5t21 -107.5t63 -84.5t106 -33z" />
    <glyph glyph-name="r" unicode="r" horiz-adv-x="377" 
d="M80 0v530h54v-71h4q17 32 50 56.5t90 24.5q20 0 35 -2l15 -2v-53l-16 2t-34 2q-38 0 -70.5 -16t-53 -57.5t-20.5 -118.5v-295h-54z" />
    <glyph glyph-name="s" unicode="s" horiz-adv-x="479" 
d="M248 -10q-59 0 -97 16.5t-59.5 41.5t-31 49.5t-11.5 41l-2 16.5h56l3 -17.5t16 -40t43 -40t84 -17.5t88 29t34 72t-28.5 65.5t-71.5 32.5l-68 16q-60 13 -100 45t-40 94q0 65 47.5 105.5t121.5 40.5q51 0 84.5 -15.5t52.5 -38t28 -45t11.5 -38l2.5 -15.5h-54l-3 15.5
t-14.5 36t-37 36t-69.5 15.5q-58 0 -87 -28.5t-29 -66.5q0 -36 25.5 -56.5t69.5 -31.5l68 -16q68 -16 107 -52.5t39 -97.5q0 -41 -22 -75.5t-62 -55.5t-94 -21z" />
    <glyph glyph-name="t" unicode="t" horiz-adv-x="398" 
d="M271 -10q-134 0 -134 131v363h-99v46h99v134h54v-134h134v-46h-134v-363q0 -38 19.5 -60.5t66.5 -22.5q22 0 43.5 4l21.5 4v-47l-22 -4.5t-49 -4.5z" />
    <glyph glyph-name="u" unicode="u" horiz-adv-x="557" 
d="M254 -10q-81 0 -127.5 53.5t-46.5 147.5v339h54v-337q0 -74 34 -114t94 -40q59 0 94 32t51 81t16 100v278h54v-530h-54v99h-5q-7 -18 -25.5 -43.5t-52 -45.5t-86.5 -20z" />
    <glyph glyph-name="v" unicode="v" horiz-adv-x="545" 
d="M242 0l-207 530h58l179 -463l180 463h58l-209 -530h-59z" />
    <glyph glyph-name="w" unicode="w" horiz-adv-x="842" 
d="M211 0l-176 530h56l150 -456l153 456h54l152 -456l151 456h56l-177 -530h-60l-149 449l-150 -449h-60z" />
    <glyph glyph-name="x" unicode="x" horiz-adv-x="542" 
d="M51 0l182 264l-184 266h63l159 -231l159 231h62l-184 -266l183 -264h-63l-157 230l-158 -230h-62z" />
    <glyph glyph-name="y" unicode="y" horiz-adv-x="553" 
d="M79 -196q-19 0 -31.5 2l-12.5 2v49l14 -1.5t31 -1.5q61 0 101.5 33t66.5 100l4 9l-209 534h58l179 -463l180 463h58l-219 -554q-68 -172 -220 -172z" />
    <glyph glyph-name="z" unicode="z" horiz-adv-x="502" 
d="M49 0v40l343 444h-322v46h390v-40l-344 -444h344v-46h-411z" />
    <glyph glyph-name="braceleft" unicode="{" horiz-adv-x="403" 
d="M250 -191q-59 0 -90 31.5t-31 89.5v294q0 69 -69 69h-27v47h27q69 0 69 69v294q0 59 31 90t90 31h103v-49h-101q-69 0 -69 -69v-294q0 -34 -10.5 -57.5t-42.5 -36.5v-3q32 -13 42.5 -36.5t10.5 -57.5v-294q0 -68 69 -68h101v-50h-103z" />
    <glyph glyph-name="bar" unicode="|" horiz-adv-x="385" 
d="M167 -222v1172h52v-1172h-52z" />
    <glyph glyph-name="braceright" unicode="}" horiz-adv-x="403" 
d="M153 824q59 0 90 -31t31 -90v-294q0 -69 69 -69h26v-47h-26q-69 0 -69 -69v-294q0 -58 -31 -89.5t-90 -31.5h-103v50h101q68 0 68 68v294q0 35 10.5 58t43.5 36v3q-33 13 -43.5 36.5t-10.5 57.5v294q0 69 -68 69h-101v49h103z" />
    <glyph glyph-name="asciitilde" unicode="~" horiz-adv-x="442" 
d="M289 320q-26 0 -44 11.5t-31.5 26.5t-27 26.5t-31.5 11.5q-21 0 -30 -19t-9 -52h-43q0 44 18.5 78t62.5 34q27 0 45.5 -11.5t32 -26.5t26.5 -26.5t30 -11.5q20 0 29 19t9 52h43q0 -44 -18.5 -78t-61.5 -34z" />
    <glyph glyph-name="uni00A0" unicode="&#xa0;" horiz-adv-x="230" 
 />
    <glyph glyph-name="exclamdown" unicode="&#xa1;" horiz-adv-x="247" 
d="M123 534q19 0 32 -13t13 -32q0 -18 -13 -31t-32 -13t-31.5 13t-12.5 31t12.5 31.5t31.5 13.5zM97 -216l4 584h48l2 -584h-54z" />
    <glyph glyph-name="cent" unicode="&#xa2;" horiz-adv-x="604" 
d="M286 -86v78q-74 7 -123.5 48t-74.5 101t-25 124t25 124t74.5 101t123.5 48v79h52v-78q55 -3 91.5 -22.5t58.5 -45.5t33.5 -51.5t15.5 -42.5l4 -17h-54l-5 18t-20 42.5t-45 44.5t-79 24v-448q49 4 79 24t45 44.5t20 42.5l5 18h54l-4 -17t-15.5 -42.5t-33.5 -51.5
t-58.5 -45.5t-91.5 -22.5v-77h-52zM118 265q0 -52 18.5 -100t56 -81.5t93.5 -41.5v446q-56 -8 -93.5 -41.5t-56 -81.5t-18.5 -100z" />
    <glyph glyph-name="sterling" unicode="&#xa3;" horiz-adv-x="586" 
d="M58 0v53q40 7 73.5 32t53 62t19.5 81q0 27 -7 51t-18 46h-119v41h96q-22 39 -42 80.5t-20 94.5q0 65 33 111.5t90.5 72t130.5 25.5q41 0 77.5 -6t59 -12.5l22.5 -6.5v-51l-22.5 6t-58 12t-74.5 6q-92 0 -148 -42.5t-56 -116.5q0 -50 23 -90.5t46 -82.5h222v-41h-202
q8 -20 13.5 -42.5t5.5 -48.5q0 -49 -18.5 -88t-44.5 -63.5t-47 -31.5h391v-51h-479z" />
    <glyph glyph-name="currency" unicode="&#xa4;" horiz-adv-x="567" 
d="M94 137l-31 29l74 74q-20 24 -31.5 55t-11.5 66q0 66 40 116l-71 70l31 31l70 -70q24 21 56 33.5t67 12.5q34 0 65.5 -11.5t55.5 -31.5l67 67l29 -31l-66 -66q20 -25 31 -56t11 -64q0 -36 -11.5 -67.5t-33.5 -57.5l69 -70l-29 -29l-71 69q-52 -38 -117 -38
q-34 0 -64.5 11t-55.5 31zM287 213q41 0 74.5 20t53.5 53t20 74t-20 74.5t-53.5 53.5t-74.5 20t-74.5 -20t-53.5 -53.5t-20 -74.5t20 -74t53.5 -53t74.5 -20z" />
    <glyph glyph-name="yen" unicode="&#xa5;" horiz-adv-x="662" 
d="M127 216v44h176v13l-28 49h-148v45h122l-217 373h62l237 -411l237 411h63l-217 -373h122v-45h-148l-29 -49v-13h177v-44h-177v-216h-56v216h-176z" />
    <glyph glyph-name="brokenbar" unicode="&#xa6;" horiz-adv-x="385" 
d="M167 425v526h52v-526h-52zM167 -222v485h52v-485h-52z" />
    <glyph glyph-name="section" unicode="&#xa7;" horiz-adv-x="667" 
d="M348 -236q-69 0 -116 16.5t-76.5 42t-46 54.5t-23.5 55t-8.5 42l-1.5 16h56l1.5 -17.5t11 -44t32.5 -52.5t64.5 -44t107.5 -18q52 0 92.5 20t64 54.5t23.5 77.5q0 47 -20.5 76.5t-54.5 47t-74 27.5l-130 32q-52 12 -97 34t-72.5 57t-27.5 87q0 60 43 101t114 50v4
q-57 28 -85.5 66.5t-28.5 95.5q0 59 29.5 103.5t81 69.5t117.5 25q70 0 114.5 -21.5t70 -53t37 -63t14.5 -53l3 -21.5h-56l-2 16.5t-11 40.5t-28.5 48t-54 40.5t-87.5 16.5q-57 0 -95.5 -20.5t-58 -53.5t-19.5 -72q0 -59 38.5 -90t106.5 -48l116 -29q53 -13 97.5 -34.5
t72 -56.5t27.5 -87q0 -60 -43 -101t-114 -50v-4q63 -22 98 -68.5t35 -109.5q0 -56 -30 -102.5t-83.5 -74t-123.5 -27.5zM378 173q86 0 131.5 34.5t45.5 88.5q0 39 -22 64t-57 40.5t-74 25.5l-117 29q-87 0 -132 -34.5t-45 -88.5q0 -39 22 -64.5t57 -40.5t74 -25z" />
    <glyph glyph-name="dieresis" unicode="&#xa8;" horiz-adv-x="265" 
d="M231 624q-19 0 -31.5 13t-12.5 31t12.5 31.5t31.5 13.5t32 -13.5t13 -31.5t-13 -31t-32 -13zM75 624q-19 0 -31.5 13t-12.5 31t12.5 31.5t31.5 13.5t32 -13.5t13 -31.5t-13 -31t-32 -13z" />
    <glyph glyph-name="copyright" unicode="&#xa9;" horiz-adv-x="826" 
d="M413 -10q-88 0 -154.5 30.5t-111 82t-67 116t-22.5 131.5q0 68 22.5 132t67 115.5t111 82t154.5 30.5q89 0 155.5 -30.5t110.5 -82t66.5 -115.5t22.5 -132q0 -67 -22.5 -131.5t-66.5 -116t-110.5 -82t-155.5 -30.5zM413 36q77 0 134.5 26.5t96 72t57.5 101.5t19 115
t-19 114.5t-57.5 100.5t-96 71.5t-134.5 26.5t-134.5 -26.5t-96 -71.5t-57.5 -100.5t-19 -114.5t19 -115t57.5 -101.5t96 -72t134.5 -26.5zM426 130q-68 0 -113.5 32.5t-68.5 83t-23 104.5t23 104.5t68 83t114 32.5q48 0 80 -14.5t52 -36.5t30 -43.5t13.5 -36l3.5 -14.5h-48
l-4.5 15t-18 35t-39.5 35.5t-69 15.5q-52 0 -86.5 -25.5t-52 -65.5t-17.5 -85t17.5 -85t52 -65.5t86.5 -25.5q43 0 69 15.5t39.5 35.5t18 35l4.5 15h48l-3.5 -14.5t-13.5 -36t-30 -43.5t-52 -36.5t-80 -14.5z" />
    <glyph glyph-name="ordfeminine" unicode="&#xaa;" horiz-adv-x="392" 
d="M266 479q0 -1 -10.5 -14.5t-32 -27t-57.5 -13.5q-43 0 -73 23.5t-30 65.5q0 44 32.5 65.5t77.5 27.5l98 13v13q0 15 -6 33t-22 31t-47 13q-27 0 -42.5 -9t-23 -21t-10 -21l-2.5 -9h-47l3.5 15.5t15.5 35t37 35t68 15.5q60 0 92.5 -33t32.5 -84v-203h-49v49h-5zM112 516
q0 -28 20 -41t45 -13q42 0 68 31t26 76v14l-92 -13q-32 -4 -49.5 -17t-17.5 -37z" />
    <glyph glyph-name="guillemotleft" unicode="&#xab;" horiz-adv-x="595" 
d="M488 115l-206 205l206 206h67l-206 -206l206 -205h-67zM247 115l-206 205l206 206h67l-206 -206l206 -205h-67z" />
    <glyph glyph-name="logicalnot" unicode="&#xac;" horiz-adv-x="655" 
d="M80 481v49h495v-250h-47v201h-448z" />
    <glyph glyph-name="uni00AD" unicode="&#xad;" horiz-adv-x="600" 
d="M118 288v50h372v-50h-372z" />
    <glyph glyph-name="registered" unicode="&#xae;" horiz-adv-x="434" 
d="M217 395q-60 0 -99.5 25.5t-59.5 66.5t-20 85q0 45 20 85.5t60 66.5t99 26q60 0 99.5 -26t59.5 -66.5t20 -85.5q0 -44 -20 -85t-59.5 -66.5t-99.5 -25.5zM217 428q48 0 80 21t48 54.5t16 68.5q0 37 -16 69.5t-48 53.5t-80 21t-80 -21t-48 -53.5t-16 -69.5q0 -35 16 -68.5
t48 -54.5t80 -21zM152 475v194h73q32 0 50.5 -17t18.5 -44q0 -43 -41 -57l46 -76h-37l-43 72h-35v-72h-32zM224 640h-40v-65h40q17 0 26.5 9.5t9.5 22.5q0 14 -9.5 23.5t-26.5 9.5z" />
    <glyph glyph-name="macron" unicode="&#xaf;" horiz-adv-x="340" 
d="M26 636v44h288v-44h-288z" />
    <glyph glyph-name="degree" unicode="&#xb0;" horiz-adv-x="464" 
d="M232 413q-47 0 -85 22.5t-61 61t-23 84.5q0 47 23 85t61 61t85 23q46 0 84.5 -23t61 -61t22.5 -85q0 -46 -22.5 -84.5t-61 -61t-84.5 -22.5zM232 460q33 0 60.5 16.5t44 44t16.5 60.5q0 34 -16.5 61.5t-44 44t-60.5 16.5q-34 0 -61.5 -16.5t-43.5 -44t-16 -61.5
q0 -33 16 -60.5t43.5 -44t61.5 -16.5z" />
    <glyph glyph-name="plusminus" unicode="&#xb1;" horiz-adv-x="647" 
d="M298 150v162h-161v49h161v161h50v-161h161v-49h-161v-162h-50zM118 0v43h411v-43h-411z" />
    <glyph glyph-name="uni00B2" unicode="&#xb2;" horiz-adv-x="385" 
d="M68 431v36l80 74q34 30 60.5 53.5t42 46.5t15.5 50q0 35 -22.5 52.5t-50.5 17.5t-52.5 -19.5t-24.5 -60.5h-47q0 42 18 70t46.5 41.5t59.5 13.5t59 -13.5t45.5 -38.5t17.5 -61q0 -33 -16 -60.5t-43.5 -53t-62.5 -56.5l-53 -48h183v-44h-255z" />
    <glyph glyph-name="uni00B3" unicode="&#xb3;" horiz-adv-x="406" 
d="M204 426q-33 0 -62.5 12.5t-48 38t-18.5 65.5h48q0 -38 25 -56t56 -18t54.5 19t23.5 51q0 29 -19.5 46t-52.5 17h-48v40h48q28 0 47 16.5t19 43.5q0 29 -22 46t-50 17t-51 -18t-23 -56h-48q0 39 18 64.5t46 38.5t59 13q30 0 57.5 -12.5t44.5 -35t17 -54.5q0 -27 -14 -48
t-42 -32v-3q28 -9 46 -30.5t18 -53.5q0 -35 -18 -60t-47.5 -38t-62.5 -13z" />
    <glyph glyph-name="acute" unicode="&#xb4;" horiz-adv-x="202" 
d="M56 615l-50 1l86 161h60z" />
    <glyph glyph-name="uni00B5" unicode="&#xb5;" horiz-adv-x="622" 
d="M63 -199l1 729h54v-337q0 -74 34 -114t95 -40q58 0 93 32t51 80.5t16 100.5v278h54v-407q0 -42 16.5 -63.5t56.5 -21.5q17 0 26 2l9 2v-47l-10.5 -2.5t-30.5 -2.5q-51 0 -81.5 24.5t-35.5 84.5h-5q-4 -10 -14 -28t-28 -36.5t-47 -31.5t-70 -13q-38 0 -64.5 10.5
t-42.5 24.5t-23.5 24.5l-7.5 10.5l-4 -1q4 -14 8.5 -57.5t4.5 -93.5v-107h-55z" />
    <glyph glyph-name="paragraph" unicode="&#xb6;" horiz-adv-x="504" 
d="M311 0h-41v354h-64q-61 0 -101.5 23.5t-60.5 62t-20 84.5q0 47 20.5 87t61 64.5t100.5 24.5h220v-700h-41v652h-74v-652z" />
    <glyph glyph-name="periodcentered" unicode="&#xb7;" horiz-adv-x="255" 
d="M140 331q-20 0 -33.5 14t-13.5 33t13.5 33t33.5 14q19 0 33 -14t14 -33t-14 -33t-33 -14z" />
    <glyph glyph-name="cedilla" unicode="&#xb8;" horiz-adv-x="234" 
d="M94 -249q-24 0 -44 3.5l-20 3.5v41l20.5 -4t42.5 -4q41 0 58 19t17 39q0 19 -15.5 35t-45.5 16q-27 0 -43.5 -10l-16.5 -10l-25 25l56 102h44l-42 -75q17 6 37 6q47 0 71 -26.5t24 -61.5q0 -23 -12 -46t-38 -38t-68 -15z" />
    <glyph glyph-name="uni00B9" unicode="&#xb9;" horiz-adv-x="277" 
d="M167 800v-369h-49v288h-68v28l12 4q29 7 45 16.5t29 27.5l3 5h28z" />
    <glyph glyph-name="ordmasculine" unicode="&#xba;" horiz-adv-x="437" 
d="M219 419q-51 0 -85.5 23.5t-52.5 61.5t-18 80q0 43 18 81t52.5 61.5t85.5 23.5q50 0 84.5 -23.5t52.5 -61.5t18 -81q0 -42 -18 -80t-52.5 -61.5t-84.5 -23.5zM219 462q34 0 57.5 18t35.5 46t12 58q0 31 -12 59t-35.5 45.5t-57.5 17.5q-35 0 -58.5 -17.5t-35.5 -45.5
t-12 -59q0 -30 12 -58t35.5 -46t58.5 -18z" />
    <glyph glyph-name="guillemotright" unicode="&#xbb;" horiz-adv-x="595" 
d="M282 115l205 205l-205 206h66l207 -206l-207 -205h-66zM41 115l205 205l-205 206h66l207 -206l-207 -205h-66z" />
    <glyph glyph-name="onequarter" unicode="&#xbc;" horiz-adv-x="718" 
d="M127 711v-356h-50v276l-65 -1v31l12 3q26 6 41 16t29 27l4 4h29zM137 0l377 700h55l-378 -700h-54zM645 -4v81h-171v37l160 232h61v-226h57v-43h-57v-81h-50zM529 120h116v167z" />
    <glyph glyph-name="onehalf" unicode="&#xbd;" horiz-adv-x="749" 
d="M127 711v-356h-50v276l-65 -1v31l12 3q26 6 41 16t29 27l4 4h29zM137 0l377 700h55l-378 -700h-54zM538 -4v36l75 68q51 46 81.5 75t30.5 66q0 31 -21.5 48t-47.5 17t-47.5 -18t-21.5 -55h-50q0 40 18 66t45.5 39t57.5 13q47 0 82.5 -28t35.5 -80q0 -47 -34 -83t-84 -78
l-44 -41h169v-45h-245z" />
    <glyph glyph-name="threequarters" unicode="&#xbe;" horiz-adv-x="778" 
d="M169 348q-49 0 -85.5 28t-36.5 82h48q0 -34 23 -51t51 -17q30 0 51.5 17t21.5 47q0 28 -18 43.5t-49 15.5h-46v40h46q26 0 44 14.5t18 39.5q0 26 -20 42.5t-48 16.5q-25 0 -46.5 -17.5t-21.5 -51.5h-47q0 54 35.5 82.5t80.5 28.5q30 0 56.5 -11.5t43 -33.5t16.5 -52
q0 -28 -15.5 -48t-38.5 -28v-3q28 -9 44.5 -29.5t16.5 -50.5q0 -33 -17.5 -56.5t-46 -35.5t-60.5 -12zM250 0l377 700h55l-379 -700h-53zM757 -4v81h-170v37l159 232h62v-226h56v-43h-56v-81h-51zM642 120h115v167z" />
    <glyph glyph-name="questiondown" unicode="&#xbf;" horiz-adv-x="578" 
d="M299 538q19 0 31.5 -13t12.5 -32q0 -18 -12.5 -31t-31.5 -13t-32 13t-13 31q0 19 13 32t32 13zM287 -222q-56 0 -105.5 23.5t-80.5 68.5t-31 110q0 54 20.5 92.5t50.5 69.5t60 60t50.5 64t20.5 82v24h53v-24q0 -56 -20 -95.5t-50 -70t-59.5 -59t-49.5 -62t-20 -80.5
q0 -49 23.5 -82.5t60.5 -51.5t78 -18q42 0 79.5 19t61.5 57t24 97h55q0 -75 -32.5 -125t-83 -74.5t-105.5 -24.5z" />
    <glyph glyph-name="Agrave" unicode="&#xc0;" horiz-adv-x="681" 
d="M315 825l-95 162h60l85 -161zM42 0l265 740h67l266 -740h-60l-73 206h-333l-73 -206h-59zM192 256h298l-149 418z" />
    <glyph glyph-name="Aacute" unicode="&#xc1;" horiz-adv-x="681" 
d="M369 825l-50 1l85 161h60zM42 0l265 740h67l266 -740h-60l-73 206h-333l-73 -206h-59zM192 256h298l-149 418z" />
    <glyph glyph-name="Acircumflex" unicode="&#xc2;" horiz-adv-x="681" 
d="M201 817l114 141h52l114 -141h-53l-87 107l-87 -107h-53zM42 0l265 740h67l266 -740h-60l-73 206h-333l-73 -206h-59zM192 256h298l-149 418z" />
    <glyph glyph-name="Atilde" unicode="&#xc3;" horiz-adv-x="681" 
d="M403 830q-24 0 -40.5 11.5t-29 26.5t-24.5 26.5t-27 11.5q-19 0 -27 -19t-8 -52h-41q0 45 16 79t58 34q25 0 42 -11.5t29.5 -26.5t24 -26.5t25.5 -11.5q18 0 26 19t8 52h41q0 -45 -16.5 -79t-56.5 -34zM42 0l265 740h67l266 -740h-60l-73 206h-333l-73 -206h-59zM192 256
h298l-149 418z" />
    <glyph glyph-name="Adieresis" unicode="&#xc4;" horiz-adv-x="681" 
d="M418 834q-19 0 -31.5 13t-12.5 31t12.5 31t31.5 13t32 -13t13 -31t-13 -31t-32 -13zM262 834q-19 0 -31.5 13t-12.5 31t12.5 31t31.5 13t32 -13t13 -31t-13 -31t-32 -13zM42 0l265 740h67l266 -740h-60l-73 206h-333l-73 -206h-59zM192 256h298l-149 418z" />
    <glyph glyph-name="Aring" unicode="&#xc5;" horiz-adv-x="681" 
d="M341 820q-44 0 -74.5 30.5t-30.5 74.5q0 43 30.5 74t74.5 31q43 0 73.5 -31t30.5 -74q0 -44 -30.5 -74.5t-73.5 -30.5zM341 863q25 0 43.5 18t18.5 44q0 25 -18.5 43.5t-43.5 18.5q-26 0 -44.5 -18.5t-18.5 -43.5q0 -26 18.5 -44t44.5 -18zM42 0l265 740h67l266 -740h-60
l-73 206h-333l-73 -206h-59zM192 256h298l-149 418z" />
    <glyph glyph-name="AE" unicode="&#xc6;" horiz-adv-x="969" 
d="M45 0l385 740h461v-51h-378v-285h330v-51h-330v-302h384v-51h-440v206h-246l-107 -206h-59zM238 256h219v421z" />
    <glyph glyph-name="Ccedilla" unicode="&#xc7;" horiz-adv-x="760" 
d="M405 -252q-25 0 -45 3.5l-20 3.5v41l21 -4t42 -4q42 0 58.5 19t16.5 38q0 20 -15 35.5t-46 15.5q-27 0 -43 -9.5l-16 -9.5l-25 25l49 88q-81 4 -141.5 37t-101 87t-61 120.5t-20.5 136.5q0 71 21.5 138.5t64 122t106 86.5t148.5 32q69 0 118.5 -18t83 -46t54 -60t31 -60
t14 -46l3.5 -18h-57l-5 19.5t-18.5 49t-40.5 58.5t-71.5 48.5t-110.5 19.5q-71 0 -124 -28t-88.5 -74.5t-53.5 -105t-18 -118.5q0 -62 18 -120t53.5 -105t88.5 -75t124 -28q66 0 110.5 19.5t71.5 49t40.5 58.5t18.5 48.5l5 19.5h57l-5 -23.5t-20.5 -58.5t-45.5 -71.5
t-80.5 -62.5t-125.5 -31l-37 -67q17 6 39 6q47 0 71 -24.5t24 -58.5q0 -23 -12 -46t-37.5 -38t-67.5 -15z" />
    <glyph glyph-name="Egrave" unicode="&#xc8;" horiz-adv-x="602" 
d="M282 825l-95 162h60l85 -161zM90 0v740h435v-51h-379v-285h331v-51h-331v-302h384v-51h-440z" />
    <glyph glyph-name="Eacute" unicode="&#xc9;" horiz-adv-x="602" 
d="M336 825l-50 1l85 161h60zM90 0v740h435v-51h-379v-285h331v-51h-331v-302h384v-51h-440z" />
    <glyph glyph-name="Ecircumflex" unicode="&#xca;" horiz-adv-x="602" 
d="M168 817l114 141h52l114 -141h-53l-87 107l-87 -107h-53zM90 0v740h435v-51h-379v-285h331v-51h-331v-302h384v-51h-440z" />
    <glyph glyph-name="Edieresis" unicode="&#xcb;" horiz-adv-x="602" 
d="M385 834q-19 0 -31.5 13t-12.5 31t12.5 31t31.5 13t32 -13t13 -31t-13 -31t-32 -13zM229 834q-19 0 -31.5 13t-12.5 31t12.5 31t31.5 13t32 -13t13 -31t-13 -31t-32 -13zM90 0v740h435v-51h-379v-285h331v-51h-331v-302h384v-51h-440z" />
    <glyph glyph-name="Igrave" unicode="&#xcc;" horiz-adv-x="236" 
d="M93 825l-96 162h60l86 -161zM90 0v740h56v-740h-56z" />
    <glyph glyph-name="Iacute" unicode="&#xcd;" horiz-adv-x="236" 
d="M146 825l-49 1l85 161h60zM90 0v740h56v-740h-56z" />
    <glyph glyph-name="Icircumflex" unicode="&#xce;" horiz-adv-x="236" 
d="M-21 817l114 157h52l114 -157h-53l-87 119l-87 -119h-53zM90 0v740h56v-740h-56z" />
    <glyph glyph-name="Idieresis" unicode="&#xcf;" horiz-adv-x="236" 
d="M196 834q-19 0 -31.5 13t-12.5 31t12.5 31t31.5 13t32 -13t13 -31t-13 -31t-32 -13zM40 834q-19 0 -31.5 13t-12.5 31t12.5 31t31.5 13t32 -13t13 -31t-13 -31t-32 -13zM90 0v740h56v-740h-56z" />
    <glyph glyph-name="Eth" unicode="&#xd0;" horiz-adv-x="765" 
d="M137 0v345h-104v50h104v345h222q87 0 152 -31.5t108.5 -84.5t65 -119t21.5 -135t-21.5 -135t-65 -119t-108.5 -84.5t-152 -31.5h-222zM360 345h-167v-294h164q73 0 128 27t91.5 73t55 102.5t18.5 116.5t-18.5 116.5t-55 102.5t-91.5 73t-128 27h-164v-294h167v-50z" />
    <glyph glyph-name="Ntilde" unicode="&#xd1;" horiz-adv-x="729" 
d="M434 830q-24 0 -40.5 11.5t-29 26.5t-24.5 26.5t-28 11.5q-18 0 -26 -19t-8 -52h-42q0 45 16.5 79t57.5 34q25 0 42 -11.5t29.5 -26.5t24.5 -26.5t26 -11.5q18 0 26 19t8 52h41q0 -45 -16.5 -79t-56.5 -34zM90 0v740h53l440 -641v641h56v-740h-54l-439 642v-642h-56z" />
    <glyph glyph-name="Ograve" unicode="&#xd2;" horiz-adv-x="817" 
d="M383 835l-96 162h60l86 -161zM408 -10q-86 0 -151.5 32.5t-109.5 87t-66.5 122t-22.5 138.5t22.5 139t66.5 122.5t109.5 86.5t151.5 32t151.5 -32t110 -86.5t66.5 -122.5t22 -139t-22 -138.5t-66.5 -122t-110 -87t-151.5 -32.5zM408 43q80 0 146.5 39.5t106.5 113
t40 174.5q0 102 -40 175t-106.5 112.5t-146.5 39.5q-79 0 -145.5 -39.5t-106.5 -112.5t-40 -175q0 -101 40 -174.5t106.5 -113t145.5 -39.5z" />
    <glyph glyph-name="Oacute" unicode="&#xd3;" horiz-adv-x="817" 
d="M436 835l-49 1l85 161h60zM408 -10q-86 0 -151.5 32.5t-109.5 87t-66.5 122t-22.5 138.5t22.5 139t66.5 122.5t109.5 86.5t151.5 32t151.5 -32t110 -86.5t66.5 -122.5t22 -139t-22 -138.5t-66.5 -122t-110 -87t-151.5 -32.5zM408 43q80 0 146.5 39.5t106.5 113t40 174.5
q0 102 -40 175t-106.5 112.5t-146.5 39.5q-79 0 -145.5 -39.5t-106.5 -112.5t-40 -175q0 -101 40 -174.5t106.5 -113t145.5 -39.5z" />
    <glyph glyph-name="Ocircumflex" unicode="&#xd4;" horiz-adv-x="817" 
d="M269 827l114 141h52l114 -141h-53l-87 107l-87 -107h-53zM408 -10q-86 0 -151.5 32.5t-109.5 87t-66.5 122t-22.5 138.5t22.5 139t66.5 122.5t109.5 86.5t151.5 32t151.5 -32t110 -86.5t66.5 -122.5t22 -139t-22 -138.5t-66.5 -122t-110 -87t-151.5 -32.5zM408 43
q80 0 146.5 39.5t106.5 113t40 174.5q0 102 -40 175t-106.5 112.5t-146.5 39.5q-79 0 -145.5 -39.5t-106.5 -112.5t-40 -175q0 -101 40 -174.5t106.5 -113t145.5 -39.5z" />
    <glyph glyph-name="Otilde" unicode="&#xd5;" horiz-adv-x="817" 
d="M471 840q-24 0 -40.5 11.5t-29 26.5t-24.5 26.5t-28 11.5q-18 0 -26 -19t-8 -52h-42q0 45 16.5 79t57.5 34q25 0 42 -11.5t29.5 -26.5t24.5 -26.5t26 -11.5q18 0 26 19t8 52h41q0 -45 -16.5 -79t-56.5 -34zM408 -10q-86 0 -151.5 32.5t-109.5 87t-66.5 122t-22.5 138.5
t22.5 139t66.5 122.5t109.5 86.5t151.5 32t151.5 -32t110 -86.5t66.5 -122.5t22 -139t-22 -138.5t-66.5 -122t-110 -87t-151.5 -32.5zM408 43q80 0 146.5 39.5t106.5 113t40 174.5q0 102 -40 175t-106.5 112.5t-146.5 39.5q-79 0 -145.5 -39.5t-106.5 -112.5t-40 -175
q0 -101 40 -174.5t106.5 -113t145.5 -39.5z" />
    <glyph glyph-name="Odieresis" unicode="&#xd6;" horiz-adv-x="817" 
d="M486 844q-19 0 -31.5 13t-12.5 31t12.5 31t31.5 13t32 -13t13 -31t-13 -31t-32 -13zM330 844q-19 0 -31.5 13t-12.5 31t12.5 31t31.5 13t32 -13t13 -31t-13 -31t-32 -13zM408 -10q-86 0 -151.5 32.5t-109.5 87t-66.5 122t-22.5 138.5t22.5 139t66.5 122.5t109.5 86.5
t151.5 32t151.5 -32t110 -86.5t66.5 -122.5t22 -139t-22 -138.5t-66.5 -122t-110 -87t-151.5 -32.5zM408 43q80 0 146.5 39.5t106.5 113t40 174.5q0 102 -40 175t-106.5 112.5t-146.5 39.5q-79 0 -145.5 -39.5t-106.5 -112.5t-40 -175q0 -101 40 -174.5t106.5 -113
t145.5 -39.5z" />
    <glyph glyph-name="multiply" unicode="&#xd7;" horiz-adv-x="540" 
d="M154 160l-36 36l117 117l-116 116l36 36l116 -116l115 115l35 -36l-115 -115l116 -116l-36 -36l-116 116z" />
    <glyph glyph-name="Oslash" unicode="&#xd8;" horiz-adv-x="817" 
d="M124 -23l60 94q-62 55 -94 135t-32 164q0 71 22.5 139t66.5 122.5t109.5 86.5t151.5 32q53 0 98 -13t83 -35l39 62h61l-59 -92q63 -55 95.5 -135.5t32.5 -166.5q0 -71 -22 -138.5t-66.5 -122t-110 -87t-151.5 -32.5q-54 0 -99.5 13.5t-83.5 36.5l-40 -63h-61zM116 370
q0 -82 27 -145.5t72 -106.5l344 537q-68 42 -151 42q-79 0 -145.5 -39.5t-106.5 -112.5t-40 -175zM408 43q80 0 146.5 39.5t106.5 113t40 174.5q0 83 -27.5 147.5t-74.5 106.5l-344 -537q69 -44 153 -44z" />
    <glyph glyph-name="Ugrave" unicode="&#xd9;" horiz-adv-x="711" 
d="M329 825l-96 162h60l85 -161zM355 -10q-90 0 -149 36.5t-87.5 99.5t-28.5 142v472h56v-472q0 -102 52 -163t157 -61q106 0 158 61t52 163v472h56v-472q0 -79 -28.5 -142t-87.5 -99.5t-150 -36.5z" />
    <glyph glyph-name="Uacute" unicode="&#xda;" horiz-adv-x="711" 
d="M382 825l-50 1l86 161h60zM355 -10q-90 0 -149 36.5t-87.5 99.5t-28.5 142v472h56v-472q0 -102 52 -163t157 -61q106 0 158 61t52 163v472h56v-472q0 -79 -28.5 -142t-87.5 -99.5t-150 -36.5z" />
    <glyph glyph-name="Ucircumflex" unicode="&#xdb;" horiz-adv-x="711" 
d="M214 817l115 157h51l115 -157h-54l-86 119l-87 -119h-54zM355 -10q-90 0 -149 36.5t-87.5 99.5t-28.5 142v472h56v-472q0 -102 52 -163t157 -61q106 0 158 61t52 163v472h56v-472q0 -79 -28.5 -142t-87.5 -99.5t-150 -36.5z" />
    <glyph glyph-name="Udieresis" unicode="&#xdc;" horiz-adv-x="711" 
d="M432 834q-19 0 -31.5 13t-12.5 31t12.5 31t31.5 13q18 0 31 -13t13 -31t-13 -31t-31 -13zM276 834q-19 0 -31.5 13t-12.5 31t12.5 31t31.5 13q18 0 31 -13t13 -31t-13 -31t-31 -13zM355 -10q-90 0 -149 36.5t-87.5 99.5t-28.5 142v472h56v-472q0 -102 52 -163t157 -61
q106 0 158 61t52 163v472h56v-472q0 -79 -28.5 -142t-87.5 -99.5t-150 -36.5z" />
    <glyph glyph-name="Yacute" unicode="&#xdd;" horiz-adv-x="662" 
d="M364 798h-50l86 161h60zM303 0v273l-271 467h62l237 -411l237 411h63l-272 -467v-273h-56z" />
    <glyph glyph-name="Thorn" unicode="&#xde;" horiz-adv-x="619" 
d="M87 0v740h56v-140h195q79 0 132.5 -33.5t80 -86t26.5 -110.5q0 -57 -26.5 -110t-80 -86.5t-132.5 -33.5h-195v-140h-56zM338 549h-195v-358h195q61 0 102 26t61 67t20 86t-20 86t-61 67t-102 26z" />
    <glyph glyph-name="germandbls" unicode="&#xdf;" horiz-adv-x="629" 
d="M308 750q57 0 107.5 -23.5t81.5 -68t31 -106.5q0 -56 -28.5 -99t-83.5 -65v-3q30 -10 62 -32.5t54 -59.5t22 -91q0 -66 -33 -113.5t-91 -73t-133 -25.5q-32 0 -57.5 3l-25.5 3v50l26 -3t54 -3q95 0 149 46.5t54 119.5q0 74 -50.5 114.5t-127.5 40.5h-94v48h93
q64 0 109 35.5t45 103.5q0 48 -23.5 82t-61 52t-79.5 18q-45 0 -83 -20t-61 -60.5t-23 -103.5v-519h-54v519q0 69 27.5 121.5t77.5 82.5t116 30z" />
    <glyph glyph-name="agrave" unicode="&#xe0;" horiz-adv-x="629" 
d="M290 615l-96 162h60l85 -161zM307 540q59 0 97.5 -21.5t60.5 -49t32 -45.5h4v106h55v-530h-55v106h-4q-10 -18 -32 -45.5t-60.5 -49t-97.5 -21.5q-60 0 -104.5 23.5t-74.5 62.5t-45 88.5t-15 100.5t15 100t45 88.5t74.5 63t104.5 23.5zM313 490q-64 0 -106 -33t-63 -84.5
t-21 -107.5t21 -107.5t63 -84.5t106 -33q63 0 105 33t63 84.5t21 107.5t-21 107.5t-63 84.5t-105 33z" />
    <glyph glyph-name="aacute" unicode="&#xe1;" horiz-adv-x="629" 
d="M343 615l-50 1l86 161h60zM307 540q59 0 97.5 -21.5t60.5 -49t32 -45.5h4v106h55v-530h-55v106h-4q-10 -18 -32 -45.5t-60.5 -49t-97.5 -21.5q-60 0 -104.5 23.5t-74.5 62.5t-45 88.5t-15 100.5t15 100t45 88.5t74.5 63t104.5 23.5zM313 490q-64 0 -106 -33t-63 -84.5
t-21 -107.5t21 -107.5t63 -84.5t106 -33q63 0 105 33t63 84.5t21 107.5t-21 107.5t-63 84.5t-105 33z" />
    <glyph glyph-name="acircumflex" unicode="&#xe2;" horiz-adv-x="629" 
d="M175 607l115 157h51l115 -157h-54l-86 119l-87 -119h-54zM307 540q59 0 97.5 -21.5t60.5 -49t32 -45.5h4v106h55v-530h-55v106h-4q-10 -18 -32 -45.5t-60.5 -49t-97.5 -21.5q-60 0 -104.5 23.5t-74.5 62.5t-45 88.5t-15 100.5t15 100t45 88.5t74.5 63t104.5 23.5z
M313 490q-64 0 -106 -33t-63 -84.5t-21 -107.5t21 -107.5t63 -84.5t106 -33q63 0 105 33t63 84.5t21 107.5t-21 107.5t-63 84.5t-105 33z" />
    <glyph glyph-name="atilde" unicode="&#xe3;" horiz-adv-x="629" 
d="M378 620q-24 0 -40.5 11.5t-29 26.5t-25 26.5t-27.5 11.5q-19 0 -27 -19t-8 -52h-41q0 45 16.5 79t57.5 34q25 0 42 -11.5t29.5 -26.5t24 -26.5t26.5 -11.5q17 0 25 19t8 52h42q0 -45 -16.5 -79t-56.5 -34zM307 540q59 0 97.5 -21.5t60.5 -49t32 -45.5h4v106h55v-530h-55
v106h-4q-10 -18 -32 -45.5t-60.5 -49t-97.5 -21.5q-60 0 -104.5 23.5t-74.5 62.5t-45 88.5t-15 100.5t15 100t45 88.5t74.5 63t104.5 23.5zM313 490q-64 0 -106 -33t-63 -84.5t-21 -107.5t21 -107.5t63 -84.5t106 -33q63 0 105 33t63 84.5t21 107.5t-21 107.5t-63 84.5
t-105 33z" />
    <glyph glyph-name="adieresis" unicode="&#xe4;" horiz-adv-x="629" 
d="M393 624q-19 0 -31.5 13t-12.5 31t12.5 31.5t31.5 13.5q18 0 31 -13.5t13 -31.5t-13 -31t-31 -13zM237 624q-19 0 -31.5 13t-12.5 31t12.5 31.5t31.5 13.5q18 0 31 -13.5t13 -31.5t-13 -31t-31 -13zM307 540q59 0 97.5 -21.5t60.5 -49t32 -45.5h4v106h55v-530h-55v106h-4
q-10 -18 -32 -45.5t-60.5 -49t-97.5 -21.5q-60 0 -104.5 23.5t-74.5 62.5t-45 88.5t-15 100.5t15 100t45 88.5t74.5 63t104.5 23.5zM313 490q-64 0 -106 -33t-63 -84.5t-21 -107.5t21 -107.5t63 -84.5t106 -33q63 0 105 33t63 84.5t21 107.5t-21 107.5t-63 84.5t-105 33z
" />
    <glyph glyph-name="aring" unicode="&#xe5;" horiz-adv-x="629" 
d="M315 610q-44 0 -74.5 30.5t-30.5 74.5q0 43 30.5 74t74.5 31t74.5 -31t30.5 -74q0 -44 -30.5 -74.5t-74.5 -30.5zM315 653q26 0 44 18t18 44q0 25 -18 43.5t-44 18.5t-44 -18.5t-18 -43.5q0 -26 18 -44t44 -18zM307 540q59 0 97.5 -21.5t60.5 -49t32 -45.5h4v106h55v-530
h-55v106h-4q-10 -18 -32 -45.5t-60.5 -49t-97.5 -21.5q-60 0 -104.5 23.5t-74.5 62.5t-45 88.5t-15 100.5t15 100t45 88.5t74.5 63t104.5 23.5zM313 490q-64 0 -106 -33t-63 -84.5t-21 -107.5t21 -107.5t63 -84.5t106 -33q63 0 105 33t63 84.5t21 107.5t-21 107.5t-63 84.5
t-105 33z" />
    <glyph glyph-name="ae" unicode="&#xe6;" horiz-adv-x="961" 
d="M238 -10q-49 0 -89 17t-64.5 51t-24.5 84t26 84t69.5 51t97.5 17h170v46q0 20 -5.5 46.5t-21 50.5t-44.5 40t-76 16q-52 0 -82.5 -18t-45 -41t-19 -41l-4.5 -18h-54l3.5 17t15 41.5t33.5 49t58.5 41t91.5 16.5q75 0 123 -34.5t64 -94.5h3q24 54 75 91.5t130 37.5
q67 0 118.5 -31t81 -92.5t29.5 -153.5v-16h-417q1 -56 24.5 -103.5t66 -76.5t101.5 -29q49 0 81 17.5t50 40.5t25.5 40.5l7.5 17.5h54l-5.5 -16.5t-19 -41t-38.5 -49t-63.5 -41t-93.5 -16.5q-61 0 -105 21.5t-72.5 55.5t-42.5 70h-4l-6 -15t-20 -36.5t-38 -43.5t-59.5 -37
t-84.5 -15zM480 293h362q-4 75 -28.5 118.5t-62.5 61.5t-82 18q-84 0 -134 -54.5t-55 -143.5zM245 36q55 0 95 28t61.5 73.5t21.5 98.5v12h-170q-70 0 -104.5 -29t-34.5 -76q0 -37 18.5 -60.5t48 -35t64.5 -11.5z" />
    <glyph glyph-name="ccedilla" unicode="&#xe7;" horiz-adv-x="614" 
d="M319 -258q-25 0 -45 4l-20 4v40l21 -4t42 -4q42 0 58.5 19t16.5 39t-15 35.5t-46 15.5q-27 0 -43 -10l-16 -10l-25 25l52 95q-77 6 -128.5 46.5t-77 101.5t-25.5 126q0 51 16 100t47.5 88.5t79 63t111.5 23.5q60 0 100.5 -18t65 -45t37 -54t17 -45l4.5 -18h-54l-3.5 13
t-13 32.5t-28.5 39t-49 32.5t-75 13q-67 0 -111.5 -32.5t-66.5 -84t-22 -108.5t22 -108.5t66.5 -84t111.5 -32.5q45 0 75 13t49 32.5t28.5 39t13 32.5l3.5 13h54l-4 -17t-15.5 -42.5t-34 -52t-59 -45.5t-91.5 -22l-37 -67q16 6 36 6q47 0 71 -27t24 -61q0 -24 -12 -46.5
t-37.5 -38t-67.5 -15.5z" />
    <glyph glyph-name="egrave" unicode="&#xe8;" horiz-adv-x="600" 
d="M282 615l-96 162h60l86 -162h-50zM311 -10q-63 0 -109 24t-75.5 64t-44 88.5t-14.5 98.5t14.5 99t44 89t74.5 63.5t106 23.5q66 0 116.5 -30.5t79 -91t28.5 -150.5v-16h-406q1 -57 23.5 -105.5t63.5 -77.5t99 -29q49 0 80.5 17t48.5 39.5t24 40l7 17.5h53l-5 -16.5
t-18 -41t-37 -49t-61 -41t-92 -16.5zM126 298h350q-3 71 -27.5 113t-61.5 60.5t-80 18.5q-79 0 -126.5 -53t-54.5 -139z" />
    <glyph glyph-name="eacute" unicode="&#xe9;" horiz-adv-x="600" 
d="M335 615h-49l85 162h60zM311 -10q-63 0 -109 24t-75.5 64t-44 88.5t-14.5 98.5t14.5 99t44 89t74.5 63.5t106 23.5q66 0 116.5 -30.5t79 -91t28.5 -150.5v-16h-406q1 -57 23.5 -105.5t63.5 -77.5t99 -29q49 0 80.5 17t48.5 39.5t24 40l7 17.5h53l-5 -16.5t-18 -41
t-37 -49t-61 -41t-92 -16.5zM126 298h350q-3 71 -27.5 113t-61.5 60.5t-80 18.5q-79 0 -126.5 -53t-54.5 -139z" />
    <glyph glyph-name="ecircumflex" unicode="&#xea;" horiz-adv-x="600" 
d="M168 607l114 157h52l114 -157h-53l-87 118l-87 -118h-53zM311 -10q-63 0 -109 24t-75.5 64t-44 88.5t-14.5 98.5t14.5 99t44 89t74.5 63.5t106 23.5q66 0 116.5 -30.5t79 -91t28.5 -150.5v-16h-406q1 -57 23.5 -105.5t63.5 -77.5t99 -29q49 0 80.5 17t48.5 39.5t24 40
l7 17.5h53l-5 -16.5t-18 -41t-37 -49t-61 -41t-92 -16.5zM126 298h350q-3 71 -27.5 113t-61.5 60.5t-80 18.5q-79 0 -126.5 -53t-54.5 -139z" />
    <glyph glyph-name="edieresis" unicode="&#xeb;" horiz-adv-x="600" 
d="M385 623q-19 0 -31.5 13.5t-12.5 31.5t12.5 31t31.5 13t32 -13t13 -31q0 -19 -13 -32t-32 -13zM229 623q-19 0 -31.5 13.5t-12.5 31.5t12.5 31t31.5 13t32 -13t13 -31q0 -19 -13 -32t-32 -13zM311 -10q-63 0 -109 24t-75.5 64t-44 88.5t-14.5 98.5t14.5 99t44 89
t74.5 63.5t106 23.5q66 0 116.5 -30.5t79 -91t28.5 -150.5v-16h-406q1 -57 23.5 -105.5t63.5 -77.5t99 -29q49 0 80.5 17t48.5 39.5t24 40l7 17.5h53l-5 -16.5t-18 -41t-37 -49t-61 -41t-92 -16.5zM126 298h350q-3 71 -27.5 113t-61.5 60.5t-80 18.5q-79 0 -126.5 -53
t-54.5 -139z" />
    <glyph glyph-name="igrave" unicode="&#xec;" horiz-adv-x="236" 
d="M93 615l-96 162h60l85 -161zM91 0v530h54v-530h-54z" />
    <glyph glyph-name="iacute" unicode="&#xed;" horiz-adv-x="236" 
d="M146 615l-50 1l86 161h60zM91 0v530h54v-530h-54z" />
    <glyph glyph-name="icircumflex" unicode="&#xee;" horiz-adv-x="236" 
d="M-22 607l115 157h51l115 -157h-54l-86 119l-87 -119h-54zM91 0v530h54v-530h-54z" />
    <glyph glyph-name="idieresis" unicode="&#xef;" horiz-adv-x="236" 
d="M196 624q-19 0 -31.5 13t-12.5 31t12.5 31t31.5 13q18 0 31 -13t13 -31t-13 -31t-31 -13zM40 624q-19 0 -31.5 13t-12.5 31t12.5 31t31.5 13q18 0 31 -13t13 -31t-13 -31t-31 -13zM91 0v530h54v-530h-54z" />
    <glyph glyph-name="eth" unicode="&#xf0;" horiz-adv-x="619" 
d="M309 -10q-62 0 -108 23.5t-76.5 63t-46 88.5t-15.5 100t15 100t45 88t74.5 62t103.5 23q50 0 86 -18.5t60 -40.5q-36 64 -89 115t-104 88l-113 -65l-23 40l92 53q-47 30 -79.5 45l-32.5 15l21 44l41.5 -18.5t99.5 -56.5l115 66l23 -41l-95 -54q45 -33 89.5 -76.5
t81.5 -98t59.5 -120.5t22.5 -144q0 -54 -15.5 -104t-46 -90t-77 -63.5t-108.5 -23.5zM309 40q65 0 107.5 33t63 85t20.5 107q0 56 -21.5 107.5t-63.5 84.5t-106 33t-106.5 -33t-63.5 -84.5t-21 -107.5t21 -107.5t63.5 -84.5t106.5 -33z" />
    <glyph glyph-name="ntilde" unicode="&#xf1;" horiz-adv-x="579" 
d="M355 620q-24 0 -40.5 11.5t-29 26.5t-24.5 26.5t-28 11.5q-18 0 -26 -19t-8 -52h-42q0 45 16.5 79t57.5 34q25 0 42 -11.5t29.5 -26.5t24.5 -26.5t26 -11.5q18 0 26 19t8 52h41q0 -45 -16.5 -79t-56.5 -34zM85 0v530h54v-99h4q8 19 27 44.5t53 45t85 19.5
q58 0 99.5 -27.5t63.5 -75t22 -107.5v-330h-55v328q0 70 -35.5 116.5t-103.5 46.5q-56 0 -91 -30t-52 -75t-17 -92v-294h-54z" />
    <glyph glyph-name="ograve" unicode="&#xf2;" 
d="M293 616l-96 161h60l86 -161h-50zM319 -10q-63 0 -109.5 23t-78 62.5t-47.5 88.5t-16 101t16 101t47.5 88.5t78 62.5t109.5 23q62 0 109 -23t78 -62.5t47 -88.5t16 -101t-16 -101t-47 -88.5t-78 -62.5t-109 -23zM319 40q64 0 107.5 32.5t65 84t21.5 108.5t-21.5 108.5
t-65 84t-107.5 32.5q-65 0 -108 -32.5t-65 -84t-22 -108.5t22 -108.5t65 -84t108 -32.5z" />
    <glyph glyph-name="oacute" unicode="&#xf3;" 
d="M346 616h-49l85 161h60zM319 -10q-63 0 -109.5 23t-78 62.5t-47.5 88.5t-16 101t16 101t47.5 88.5t78 62.5t109.5 23q62 0 109 -23t78 -62.5t47 -88.5t16 -101t-16 -101t-47 -88.5t-78 -62.5t-109 -23zM319 40q64 0 107.5 32.5t65 84t21.5 108.5t-21.5 108.5t-65 84
t-107.5 32.5q-65 0 -108 -32.5t-65 -84t-22 -108.5t22 -108.5t65 -84t108 -32.5z" />
    <glyph glyph-name="ocircumflex" unicode="&#xf4;" 
d="M179 608l114 157h52l114 -157h-53l-87 118l-87 -118h-53zM319 -10q-63 0 -109.5 23t-78 62.5t-47.5 88.5t-16 101t16 101t47.5 88.5t78 62.5t109.5 23q62 0 109 -23t78 -62.5t47 -88.5t16 -101t-16 -101t-47 -88.5t-78 -62.5t-109 -23zM319 40q64 0 107.5 32.5t65 84
t21.5 108.5t-21.5 108.5t-65 84t-107.5 32.5q-65 0 -108 -32.5t-65 -84t-22 -108.5t22 -108.5t65 -84t108 -32.5z" />
    <glyph glyph-name="otilde" unicode="&#xf5;" 
d="M381 620q-24 0 -40.5 11.5t-29 26.5t-24.5 26.5t-28 11.5q-18 0 -26 -19t-8 -52h-42q0 45 16.5 79t57.5 34q25 0 42 -11.5t29.5 -26t24.5 -26t26 -11.5q18 0 26 19t8 51h41q0 -44 -16.5 -78.5t-56.5 -34.5zM319 -10q-63 0 -109.5 23t-78 62.5t-47.5 88.5t-16 101t16 101
t47.5 88.5t78 62.5t109.5 23q62 0 109 -23t78 -62.5t47 -88.5t16 -101t-16 -101t-47 -88.5t-78 -62.5t-109 -23zM319 40q64 0 107.5 32.5t65 84t21.5 108.5t-21.5 108.5t-65 84t-107.5 32.5q-65 0 -108 -32.5t-65 -84t-22 -108.5t22 -108.5t65 -84t108 -32.5z" />
    <glyph glyph-name="odieresis" unicode="&#xf6;" 
d="M396 624q-19 0 -31.5 13t-12.5 32q0 18 12.5 31t31.5 13t32 -13t13 -31q0 -19 -13 -32t-32 -13zM240 624q-19 0 -31.5 13t-12.5 32q0 18 12.5 31t31.5 13t32 -13t13 -31q0 -19 -13 -32t-32 -13zM319 -10q-63 0 -109.5 23t-78 62.5t-47.5 88.5t-16 101t16 101t47.5 88.5
t78 62.5t109.5 23q62 0 109 -23t78 -62.5t47 -88.5t16 -101t-16 -101t-47 -88.5t-78 -62.5t-109 -23zM319 40q64 0 107.5 32.5t65 84t21.5 108.5t-21.5 108.5t-65 84t-107.5 32.5q-65 0 -108 -32.5t-65 -84t-22 -108.5t22 -108.5t65 -84t108 -32.5z" />
    <glyph glyph-name="divide" unicode="&#xf7;" horiz-adv-x="624" 
d="M315 425q-20 0 -33 13.5t-13 33.5q0 19 13 32.5t33 13.5t33.5 -13.5t13.5 -32.5q0 -20 -13.5 -33.5t-33.5 -13.5zM118 284v48h388v-48h-388zM315 99q-20 0 -33 14t-13 33t13 32.5t33 13.5t33.5 -13.5t13.5 -32.5t-13.5 -33t-33.5 -14z" />
    <glyph glyph-name="oslash" unicode="&#xf8;" horiz-adv-x="627" 
d="M116 -50l49 88q-51 39 -76.5 100t-25.5 127q0 52 16 101t47.5 88.5t78 62.5t109.5 23q32 0 60 -6.5t52 -18.5l36 66h49l-49 -89q51 -38 76.5 -99.5t25.5 -127.5q0 -52 -16 -101t-47 -88.5t-78 -62.5t-109 -23q-33 0 -61 6.5t-52 18.5l-36 -65h-49zM119 265
q0 -52 18 -99.5t54 -79.5l210 383q-39 21 -87 21q-65 0 -108 -32.5t-65 -84t-22 -108.5zM314 40q64 0 107.5 32.5t65 84t21.5 108.5q0 52 -18 100t-54 80l-210 -384q39 -21 88 -21z" />
    <glyph glyph-name="ugrave" unicode="&#xf9;" horiz-adv-x="569" 
d="M258 615l-96 162h60l86 -161zM259 -10q-81 0 -127.5 53.5t-46.5 147.5v339h54v-337q0 -74 34 -114t94 -40q59 0 94 32t51 81t16 100v278h54v-530h-54v99h-5q-7 -18 -25.5 -43.5t-52 -45.5t-86.5 -20z" />
    <glyph glyph-name="uacute" unicode="&#xfa;" horiz-adv-x="569" 
d="M311 615l-49 1l85 161h60zM259 -10q-81 0 -127.5 53.5t-46.5 147.5v339h54v-337q0 -74 34 -114t94 -40q59 0 94 32t51 81t16 100v278h54v-530h-54v99h-5q-7 -18 -25.5 -43.5t-52 -45.5t-86.5 -20z" />
    <glyph glyph-name="ucircumflex" unicode="&#xfb;" horiz-adv-x="569" 
d="M144 607l114 157h52l114 -157h-53l-87 119l-87 -119h-53zM259 -10q-81 0 -127.5 53.5t-46.5 147.5v339h54v-337q0 -74 34 -114t94 -40q59 0 94 32t51 81t16 100v278h54v-530h-54v99h-5q-7 -18 -25.5 -43.5t-52 -45.5t-86.5 -20z" />
    <glyph glyph-name="udieresis" unicode="&#xfc;" horiz-adv-x="569" 
d="M361 624q-19 0 -31.5 13t-12.5 31t12.5 31t31.5 13t32 -13t13 -31t-13 -31t-32 -13zM205 624q-19 0 -31.5 13t-12.5 31t12.5 31t31.5 13t32 -13t13 -31t-13 -31t-32 -13zM259 -10q-81 0 -127.5 53.5t-46.5 147.5v339h54v-337q0 -74 34 -114t94 -40q59 0 94 32t51 81
t16 100v278h54v-530h-54v99h-5q-7 -18 -25.5 -43.5t-52 -45.5t-86.5 -20z" />
    <glyph glyph-name="yacute" unicode="&#xfd;" horiz-adv-x="566" 
d="M305 615l-50 1l86 161h60zM86 -196q-19 0 -31.5 2l-12.5 2v49l14 -1.5t30 -1.5q61 0 102 33t67 100l4 9l-209 534h58l179 -463l180 463h58l-219 -554q-68 -172 -220 -172z" />
    <glyph glyph-name="thorn" unicode="&#xfe;" 
d="M87 -195v955h54v-336h5q9 18 31 45.5t60.5 49t97.5 21.5q60 0 105 -23.5t74.5 -62.5t44.5 -88t15 -101q0 -51 -15 -100t-44.5 -88.5t-74.5 -63t-105 -23.5q-59 0 -97.5 21.5t-60.5 49t-31 45.5h-5v-301h-54zM140 265q0 -56 21 -107.5t63 -84.5t105 -33q65 0 107 33
t62.5 84.5t20.5 107.5t-20.5 107.5t-62.5 84.5t-107 33q-63 0 -105 -33t-63 -84.5t-21 -107.5z" />
    <glyph glyph-name="ydieresis" unicode="&#xff;" horiz-adv-x="566" 
d="M355 624q-19 0 -31.5 13t-12.5 31t12.5 31t31.5 13q18 0 31 -13t13 -31t-13 -31t-31 -13zM199 624q-19 0 -31.5 13t-12.5 31t12.5 31t31.5 13q18 0 31 -13t13 -31t-13 -31t-31 -13zM86 -196q-19 0 -31.5 2l-12.5 2v49l14 -1.5t30 -1.5q61 0 102 33t67 100l4 9l-209 534
h58l179 -463l180 463h58l-219 -554q-68 -172 -220 -172z" />
    <glyph glyph-name="Amacron" unicode="&#x100;" horiz-adv-x="681" 
d="M197 844v44h288v-44h-288zM42 0l265 740h67l266 -740h-60l-73 206h-333l-73 -206h-59zM192 256h298l-149 418z" />
    <glyph glyph-name="amacron" unicode="&#x101;" horiz-adv-x="629" 
d="M171 634v44h288v-44h-288zM307 540q59 0 97.5 -21.5t60.5 -49t32 -45.5h4v106h55v-530h-55v106h-4q-10 -18 -32 -45.5t-60.5 -49t-97.5 -21.5q-60 0 -104.5 23.5t-74.5 62.5t-45 88.5t-15 100.5t15 100t45 88.5t74.5 63t104.5 23.5zM313 490q-64 0 -106 -33t-63 -84.5
t-21 -107.5t21 -107.5t63 -84.5t106 -33q63 0 105 33t63 84.5t21 107.5t-21 107.5t-63 84.5t-105 33z" />
    <glyph glyph-name="Abreve" unicode="&#x102;" horiz-adv-x="681" 
d="M341 820q-51 0 -80 18.5t-42.5 42.5t-17 42l-3.5 18h44l3 -12t12 -28t29 -28t55 -12q34 0 54 12t29.5 28t12 28l2.5 12h44l-3.5 -18t-16.5 -42t-42 -42.5t-80 -18.5zM42 0l265 740h67l266 -740h-60l-73 206h-333l-73 -206h-59zM192 256h298l-149 418z" />
    <glyph glyph-name="abreve" unicode="&#x103;" horiz-adv-x="629" 
d="M315 610q-42 0 -69 14t-42.5 34.5t-22 41t-8 34.5l-1.5 14h45l2 -14.5t11 -33.5t29 -33.5t56 -14.5t56 14.5t29 33.5t11 33.5l2 14.5h45l-1.5 -14t-8 -34.5t-22 -41t-42 -34.5t-69.5 -14zM307 540q59 0 97.5 -21.5t60.5 -49t32 -45.5h4v106h55v-530h-55v106h-4
q-10 -18 -32 -45.5t-60.5 -49t-97.5 -21.5q-60 0 -104.5 23.5t-74.5 62.5t-45 88.5t-15 100.5t15 100t45 88.5t74.5 63t104.5 23.5zM313 490q-64 0 -106 -33t-63 -84.5t-21 -107.5t21 -107.5t63 -84.5t106 -33q63 0 105 33t63 84.5t21 107.5t-21 107.5t-63 84.5t-105 33z
" />
    <glyph glyph-name="Aogonek" unicode="&#x104;" horiz-adv-x="681" 
d="M42 0l265 740h67l266 -740l-14.5 -7.5t-28.5 -22.5t-14 -38q0 -21 15 -34t45 -13q15 0 27 2.5l12 2.5v-40l-13.5 -3t-33.5 -3q-47 0 -73 22.5t-26 56.5q0 29 15.5 48t31.5 29h-3l-73 206h-333l-73 -206h-59zM192 256h298l-149 418z" />
    <glyph glyph-name="aogonek" unicode="&#x105;" horiz-adv-x="629" 
d="M551 -156q-47 0 -73 22.5t-26 56.5q0 30 16.5 49t32.5 29v105h-4q-10 -18 -32 -45.5t-60.5 -49t-97.5 -21.5q-60 0 -104.5 23.5t-74.5 62.5t-45 88.5t-15 100.5t15 100t45 88.5t74.5 63t104.5 23.5q59 0 97.5 -21.5t60.5 -49t32 -45.5h4v106h55v-530l-14.5 -7.5
t-28.5 -22.5t-14 -38q0 -21 15 -34t45 -13q15 0 27 2.5l12 2.5v-40l-13.5 -3t-33.5 -3zM313 490q-64 0 -106 -33t-63 -84.5t-21 -107.5t21 -107.5t63 -84.5t106 -33q63 0 105 33t63 84.5t21 107.5t-21 107.5t-63 84.5t-105 33z" />
    <glyph glyph-name="Cacute" unicode="&#x106;" horiz-adv-x="760" 
d="M426 825l-49 1l85 161h60zM398 -10q-85 0 -148.5 32t-106 86.5t-64 122.5t-21.5 140q0 71 21.5 138.5t64 122t106 86.5t148.5 32q69 0 118.5 -18t83 -46t54 -60t31 -60t14 -46l3.5 -18h-57l-5 19.5t-18.5 49t-40.5 58.5t-71.5 48.5t-110.5 19.5q-71 0 -124 -28
t-88.5 -74.5t-53.5 -105t-18 -118.5q0 -62 18 -120t53.5 -105t88.5 -75t124 -28q66 0 110.5 19.5t71.5 49t40.5 58.5t18.5 48.5l5 19.5h57l-3.5 -18t-14 -46t-31 -60t-54 -60t-83 -46t-118.5 -18z" />
    <glyph glyph-name="cacute" unicode="&#x107;" horiz-adv-x="614" 
d="M350 615l-50 1l86 161h60zM322 -10q-64 0 -111.5 23.5t-79 62.5t-47.5 88.5t-16 100.5t16 100t47.5 88.5t79 63t111.5 23.5q60 0 100.5 -18t65 -45t37 -54t17 -45l4.5 -18h-54l-3.5 13t-13 32.5t-28.5 39t-49 32.5t-75 13q-67 0 -111.5 -32.5t-66.5 -84t-22 -108.5
t22 -108.5t66.5 -84t111.5 -32.5q45 0 75 13t49 32.5t28.5 39t13 32.5l3.5 13h54l-4.5 -18t-17 -45t-37 -54t-65 -45t-100.5 -18z" />
    <glyph glyph-name="Cdotaccent" unicode="&#x10a;" horiz-adv-x="760" 
d="M398 844q-19 0 -31.5 13t-12.5 31t12.5 31t31.5 13q18 0 31 -13t13 -31t-13 -31t-31 -13zM398 -10q-85 0 -148.5 32t-106 86.5t-64 122.5t-21.5 140q0 71 21.5 138.5t64 122t106 86.5t148.5 32q69 0 118.5 -18t83 -46t54 -60t31 -60t14 -46l3.5 -18h-57l-5 19.5t-18.5 49
t-40.5 58.5t-71.5 48.5t-110.5 19.5q-71 0 -124 -28t-88.5 -74.5t-53.5 -105t-18 -118.5q0 -62 18 -120t53.5 -105t88.5 -75t124 -28q66 0 110.5 19.5t71.5 49t40.5 58.5t18.5 48.5l5 19.5h57l-3.5 -18t-14 -46t-31 -60t-54 -60t-83 -46t-118.5 -18z" />
    <glyph glyph-name="cdotaccent" unicode="&#x10b;" horiz-adv-x="614" 
d="M321 634q-19 0 -31.5 13t-12.5 31t12.5 31t31.5 13t32 -13t13 -31t-13 -31t-32 -13zM322 -10q-64 0 -111.5 23.5t-79 62.5t-47.5 88.5t-16 100.5t16 100t47.5 88.5t79 63t111.5 23.5q60 0 100.5 -18t65 -45t37 -54t17 -45l4.5 -18h-54l-3.5 13t-13 32.5t-28.5 39
t-49 32.5t-75 13q-67 0 -111.5 -32.5t-66.5 -84t-22 -108.5t22 -108.5t66.5 -84t111.5 -32.5q45 0 75 13t49 32.5t28.5 39t13 32.5l3.5 13h54l-4.5 -18t-17 -45t-37 -54t-65 -45t-100.5 -18z" />
    <glyph glyph-name="Ccaron" unicode="&#x10c;" horiz-adv-x="760" 
d="M372 814l-114 157h53l87 -119l87 119h53l-114 -157h-52zM398 -10q-85 0 -148.5 32t-106 86.5t-64 122.5t-21.5 140q0 71 21.5 138.5t64 122t106 86.5t148.5 32q69 0 118.5 -18t83 -46t54 -60t31 -60t14 -46l3.5 -18h-57l-5 19.5t-18.5 49t-40.5 58.5t-71.5 48.5
t-110.5 19.5q-71 0 -124 -28t-88.5 -74.5t-53.5 -105t-18 -118.5q0 -62 18 -120t53.5 -105t88.5 -75t124 -28q66 0 110.5 19.5t71.5 49t40.5 58.5t18.5 48.5l5 19.5h57l-3.5 -18t-14 -46t-31 -60t-54 -60t-83 -46t-118.5 -18z" />
    <glyph glyph-name="ccaron" unicode="&#x10d;" horiz-adv-x="614" 
d="M296 604l-114 157h53l87 -119l87 119h53l-114 -157h-52zM322 -10q-64 0 -111.5 23.5t-79 62.5t-47.5 88.5t-16 100.5t16 100t47.5 88.5t79 63t111.5 23.5q60 0 100.5 -18t65 -45t37 -54t17 -45l4.5 -18h-54l-3.5 13t-13 32.5t-28.5 39t-49 32.5t-75 13
q-67 0 -111.5 -32.5t-66.5 -84t-22 -108.5t22 -108.5t66.5 -84t111.5 -32.5q45 0 75 13t49 32.5t28.5 39t13 32.5l3.5 13h54l-4.5 -18t-17 -45t-37 -54t-65 -45t-100.5 -18z" />
    <glyph glyph-name="Dcaron" unicode="&#x10e;" horiz-adv-x="718" 
d="M286 814l-114 157h53l87 -119l87 119h53l-114 -157h-52zM90 0v740h222q87 0 152.5 -31.5t108.5 -84.5t65 -119t22 -135t-22 -135t-65 -119t-108.5 -84.5t-152.5 -31.5h-222zM311 689h-165v-638h165q73 0 127.5 27t91 73t55 102.5t18.5 116.5t-18.5 116.5t-55 102.5
t-91 73t-127.5 27z" />
    <glyph glyph-name="dcaron" unicode="&#x10f;" horiz-adv-x="651" 
d="M302 -10q-60 0 -104.5 23.5t-74.5 62.5t-45 88.5t-15 100.5t15 100t45 88.5t74.5 63t104.5 23.5q59 0 97.5 -21.5t60.5 -49t32 -45.5h4v336h55v-760h-55v106h-4q-10 -18 -32 -45.5t-60.5 -49t-97.5 -21.5zM629 592l3 168h53l-19 -168h-37zM308 40q63 0 105 33t63 84.5
t21 107.5t-21 107.5t-63 84.5t-105 33q-64 0 -106 -33t-63 -84.5t-21 -107.5t21 -107.5t63 -84.5t106 -33z" />
    <glyph glyph-name="Dcroat" unicode="&#x110;" horiz-adv-x="765" 
d="M137 0v345h-104v50h104v345h222q87 0 152 -31.5t108.5 -84.5t65 -119t21.5 -135t-21.5 -135t-65 -119t-108.5 -84.5t-152 -31.5h-222zM360 345h-167v-294h164q73 0 128 27t91.5 73t55 102.5t18.5 116.5t-18.5 116.5t-55 102.5t-91.5 73t-128 27h-164v-294h167v-50z" />
    <glyph glyph-name="dcroat" unicode="&#x111;" horiz-adv-x="647" 
d="M302 -10q-60 0 -104.5 23.5t-74.5 62.5t-45 88.5t-15 100.5t15 100t45 88.5t74.5 63t104.5 23.5q59 0 97.5 -21.5t60.5 -49t32 -45.5h4v197h-145v47h145v92h55v-92h96v-47h-96v-621h-55v106h-4q-10 -18 -32 -45.5t-60.5 -49t-97.5 -21.5zM308 40q63 0 105 33t63 84.5
t21 107.5t-21 107.5t-63 84.5t-105 33q-64 0 -106 -33t-63 -84.5t-21 -107.5t21 -107.5t63 -84.5t106 -33z" />
    <glyph glyph-name="Emacron" unicode="&#x112;" horiz-adv-x="602" 
d="M164 844v44h288v-44h-288zM90 0v740h435v-51h-379v-285h331v-51h-331v-302h384v-51h-440z" />
    <glyph glyph-name="emacron" unicode="&#x113;" horiz-adv-x="600" 
d="M163 634v44h288v-44h-288zM311 -10q-63 0 -109 24t-75.5 64t-44 88.5t-14.5 98.5t14.5 99t44 89t74.5 63.5t106 23.5q66 0 116.5 -30.5t79 -91t28.5 -150.5v-16h-406q1 -57 23.5 -105.5t63.5 -77.5t99 -29q49 0 80.5 17t48.5 39.5t24 40l7 17.5h53l-5 -16.5t-18 -41
t-37 -49t-61 -41t-92 -16.5zM126 298h350q-3 71 -27.5 113t-61.5 60.5t-80 18.5q-79 0 -126.5 -53t-54.5 -139z" />
    <glyph glyph-name="Edotaccent" unicode="&#x116;" horiz-adv-x="602" 
d="M307 844q-19 0 -31.5 13t-12.5 31t12.5 31t31.5 13t32 -13t13 -31t-13 -31t-32 -13zM90 0v740h435v-51h-379v-285h331v-51h-331v-302h384v-51h-440z" />
    <glyph glyph-name="edotaccent" unicode="&#x117;" horiz-adv-x="600" 
d="M307 633q-19 0 -31.5 13.5t-12.5 31.5t12.5 31t31.5 13q18 0 31 -13t13 -31q0 -19 -13 -32t-31 -13zM311 -10q-63 0 -109 24t-75.5 64t-44 88.5t-14.5 98.5t14.5 99t44 89t74.5 63.5t106 23.5q66 0 116.5 -30.5t79 -91t28.5 -150.5v-16h-406q1 -57 23.5 -105.5
t63.5 -77.5t99 -29q49 0 80.5 17t48.5 39.5t24 40l7 17.5h53l-5 -16.5t-18 -41t-37 -49t-61 -41t-92 -16.5zM126 298h350q-3 71 -27.5 113t-61.5 60.5t-80 18.5q-79 0 -126.5 -53t-54.5 -139z" />
    <glyph glyph-name="Eogonek" unicode="&#x118;" horiz-adv-x="602" 
d="M90 0v740h435v-51h-379v-285h331v-51h-331v-302h384v-51l-14 -7.5t-28 -22.5t-14 -38q0 -21 15 -34t45 -13q15 0 27 2.5l12 2.5v-40l-13.5 -3t-33.5 -3q-47 0 -73 22.5t-26 56.5q0 29 15.5 48t31.5 29h-384z" />
    <glyph glyph-name="eogonek" unicode="&#x119;" horiz-adv-x="600" 
d="M348 -163q-48 0 -73.5 22.5t-25.5 57.5q0 27 13.5 45t28.5 29q-57 4 -99.5 29t-69.5 64t-40.5 86t-13.5 95q0 50 14.5 99t44 89t74.5 63.5t106 23.5q66 0 116.5 -30.5t79 -91t28.5 -150.5v-16h-406q1 -57 23.5 -105.5t63.5 -77.5t99 -29q49 0 80.5 17t48.5 39.5t24 40
l7 17.5h53l-4 -14.5t-15 -36t-30.5 -44.5t-49.5 -41.5t-74 -24.5q-4 -2 -17.5 -10t-26 -22.5t-12.5 -35.5q0 -20 15.5 -33.5t45.5 -13.5q14 0 26.5 2.5l12.5 2.5v-40l-14 -3t-33 -3zM126 298h350q-3 71 -27.5 113t-61.5 60.5t-80 18.5q-79 0 -126.5 -53t-54.5 -139z" />
    <glyph glyph-name="Ecaron" unicode="&#x11a;" horiz-adv-x="602" 
d="M282 814l-115 157h54l87 -119l86 119h54l-115 -157h-51zM90 0v740h435v-51h-379v-285h331v-51h-331v-302h384v-51h-440z" />
    <glyph glyph-name="ecaron" unicode="&#x11b;" horiz-adv-x="600" 
d="M281 603l-114 157h53l87 -118l87 118h53l-114 -157h-52zM311 -10q-63 0 -109 24t-75.5 64t-44 88.5t-14.5 98.5t14.5 99t44 89t74.5 63.5t106 23.5q66 0 116.5 -30.5t79 -91t28.5 -150.5v-16h-406q1 -57 23.5 -105.5t63.5 -77.5t99 -29q49 0 80.5 17t48.5 39.5t24 40
l7 17.5h53l-5 -16.5t-18 -41t-37 -49t-61 -41t-92 -16.5zM126 298h350q-3 71 -27.5 113t-61.5 60.5t-80 18.5q-79 0 -126.5 -53t-54.5 -139z" />
    <glyph glyph-name="Gbreve" unicode="&#x11e;" horiz-adv-x="776" 
d="M402 820q-42 0 -69 14t-42 34.5t-21.5 41t-8 34.5l-1.5 14h45l1.5 -14.5t10.5 -33.5t29 -33.5t56 -14.5q37 0 57 14.5t28.5 33.5t10.5 33.5l2 14.5h45l-1.5 -14t-8 -34.5t-21.5 -41t-42 -34.5t-70 -14zM401 -10q-86 0 -150.5 32t-107 86.5t-64 122.5t-21.5 139
t21.5 138.5t64.5 122t107.5 87t150.5 32.5q69 0 118.5 -17t83 -44t54 -57.5t31.5 -57.5t14.5 -44.5l3.5 -17.5h-58l-4.5 19t-18.5 46.5t-41 55t-71.5 46.5t-110.5 19q-73 0 -127 -28t-90 -75t-53.5 -105.5t-17.5 -119.5t17.5 -120t53.5 -105.5t89.5 -74.5t125.5 -28
q82 0 139.5 35t88 97t30.5 144v5h-247v49h301v-50q0 -96 -37 -171t-107 -118t-168 -43z" />
    <glyph glyph-name="gbreve" unicode="&#x11f;" horiz-adv-x="636" 
d="M315 610q-42 0 -69 14t-42.5 34.5t-22 41t-8 34.5l-1.5 14h45l2 -14.5t11 -33.5t29 -33.5t56 -14.5t56 14.5t29 33.5t11 33.5l2 14.5h45l-1.5 -14t-8 -34.5t-22 -41t-42 -34.5t-69.5 -14zM325 -210q-63 0 -104.5 17t-66.5 42.5t-37 50.5t-15.5 42.5l-3.5 17.5h55
l2.5 -12.5t11.5 -30t28 -35.5t50.5 -30t79.5 -12q53 0 87.5 17t54 45t27.5 60.5t8 63.5v86h-5q-9 -18 -31 -45t-61 -48t-99 -21q-59 0 -104 23t-74.5 62t-44.5 87.5t-15 98.5q0 51 15 99t44.5 87t74.5 62t104 23q60 0 99 -21t61 -48t31 -45h5v104h54v-504q0 -112 -62.5 -174
t-168.5 -62zM313 48q63 0 105 32t63 83t21 106q0 56 -21 106.5t-63 82.5t-105 32t-105.5 -32t-63.5 -82.5t-21 -106.5q0 -55 21 -106t63.5 -83t105.5 -32z" />
    <glyph glyph-name="Gdotaccent" unicode="&#x120;" horiz-adv-x="776" 
d="M402 844q-19 0 -31.5 13t-12.5 31t12.5 31t31.5 13q18 0 31 -13t13 -31t-13 -31t-31 -13zM401 -10q-86 0 -150.5 32t-107 86.5t-64 122.5t-21.5 139t21.5 138.5t64.5 122t107.5 87t150.5 32.5q69 0 118.5 -17t83 -44t54 -57.5t31.5 -57.5t14.5 -44.5l3.5 -17.5h-58
l-4.5 19t-18.5 46.5t-41 55t-71.5 46.5t-110.5 19q-73 0 -127 -28t-90 -75t-53.5 -105.5t-17.5 -119.5t17.5 -120t53.5 -105.5t89.5 -74.5t125.5 -28q82 0 139.5 35t88 97t30.5 144v5h-247v49h301v-50q0 -96 -37 -171t-107 -118t-168 -43z" />
    <glyph glyph-name="gdotaccent" unicode="&#x121;" horiz-adv-x="636" 
d="M314 634q-19 0 -31.5 13t-12.5 31t12.5 31t31.5 13t32 -13t13 -31t-13 -31t-32 -13zM325 -210q-63 0 -104.5 17t-66.5 42.5t-37 50.5t-15.5 42.5l-3.5 17.5h55l2.5 -12.5t11.5 -30t28 -35.5t50.5 -30t79.5 -12q53 0 87.5 17t54 45t27.5 60.5t8 63.5v86h-5q-9 -18 -31 -45
t-61 -48t-99 -21q-59 0 -104 23t-74.5 62t-44.5 87.5t-15 98.5q0 51 15 99t44.5 87t74.5 62t104 23q60 0 99 -21t61 -48t31 -45h5v104h54v-504q0 -112 -62.5 -174t-168.5 -62zM313 48q63 0 105 32t63 83t21 106q0 56 -21 106.5t-63 82.5t-105 32t-105.5 -32t-63.5 -82.5
t-21 -106.5q0 -55 21 -106t63.5 -83t105.5 -32z" />
    <glyph glyph-name="Hbar" unicode="&#x126;" horiz-adv-x="763" 
d="M135 0v608h-98v50h98v82h56v-82h388v82h56v-82h91v-50h-91v-608h-56v360h-388v-360h-56zM191 410h388v198h-388v-198z" />
    <glyph glyph-name="hbar" unicode="&#x127;" horiz-adv-x="606" 
d="M119 0v621h-92v47h92v92h54v-92h150v-47h-150v-190h4q8 19 27 44.5t52.5 45t84.5 19.5q59 0 100.5 -27.5t63 -75t21.5 -107.5v-330h-54v328q0 70 -35.5 116.5t-104.5 46.5q-55 0 -90.5 -30t-52 -75t-16.5 -92v-294h-54z" />
    <glyph glyph-name="Itilde" unicode="&#x128;" horiz-adv-x="236" 
d="M181 830q-24 0 -40.5 11.5t-29 26.5t-24.5 26.5t-28 11.5q-18 0 -26 -19t-8 -52h-42q0 45 16.5 79t57.5 34q25 0 42 -11.5t29.5 -26.5t24.5 -26.5t26 -11.5q18 0 26 19t8 52h41q0 -45 -16.5 -79t-56.5 -34zM90 0v740h56v-740h-56z" />
    <glyph glyph-name="itilde" unicode="&#x129;" horiz-adv-x="236" 
d="M181 620q-24 0 -40.5 11.5t-29 26.5t-25 26.5t-27.5 11.5q-19 0 -27 -19t-8 -52h-41q0 45 16.5 79t57.5 34q25 0 42 -11.5t29.5 -26.5t24 -26.5t26.5 -11.5q17 0 25 19t8 52h42q0 -45 -16.5 -79t-56.5 -34zM91 0v530h54v-530h-54z" />
    <glyph glyph-name="Imacron" unicode="&#x12a;" horiz-adv-x="236" 
d="M-26 844v44h288v-44h-288zM90 0v740h56v-740h-56z" />
    <glyph glyph-name="imacron" unicode="&#x12b;" horiz-adv-x="236" 
d="M-26 634v44h288v-44h-288zM91 0v530h54v-530h-54z" />
    <glyph glyph-name="Iogonek" unicode="&#x12e;" horiz-adv-x="236" 
d="M142 -156q-48 0 -73.5 22.5t-25.5 56.5q0 29 15.5 48t31.5 29v740h56v-740l-14 -7.5t-28.5 -22.5t-14.5 -38q0 -21 15.5 -34t45.5 -13q14 0 26.5 2.5l12.5 2.5v-40l-14 -3t-33 -3z" />
    <glyph glyph-name="iogonek" unicode="&#x12f;" horiz-adv-x="236" 
d="M117 634q-19 0 -31.5 13t-12.5 31t12.5 31t31.5 13t32 -13t13 -31t-13 -31t-32 -13zM141 -156q-47 0 -73 22.5t-26 56.5q0 30 16 49t33 29v529h54v-530l-14 -7.5t-28 -22.5t-14 -38q0 -21 15 -34t45 -13q15 0 27 2.5l12 2.5v-40l-13.5 -3t-33.5 -3z" />
    <glyph glyph-name="Idotaccent" unicode="&#x130;" horiz-adv-x="236" 
d="M118 844q-19 0 -31.5 13t-12.5 31t12.5 31t31.5 13q18 0 31 -13t13 -31t-13 -31t-31 -13zM90 0v740h56v-740h-56z" />
    <glyph glyph-name="dotlessi" unicode="&#x131;" horiz-adv-x="236" 
d="M91 0v530h54v-530h-54z" />
    <glyph glyph-name="Lacute" unicode="&#x139;" horiz-adv-x="610" 
d="M149 825l-50 1l85 161h60zM90 0v740h56v-689h392v-51h-448z" />
    <glyph glyph-name="lacute" unicode="&#x13a;" horiz-adv-x="235" 
d="M146 848l-50 1l86 161h60zM90 0l1 760h54v-760h-55z" />
    <glyph glyph-name="Lcaron" unicode="&#x13d;" horiz-adv-x="610" 
d="M95 814l-115 157h54l87 -119l86 119h54l-115 -157h-51zM90 0v740h56v-689h392v-51h-448z" />
    <glyph glyph-name="lcaron" unicode="&#x13e;" horiz-adv-x="246" 
d="M87 0l1 760h54v-760h-55zM224 592l3 168h52l-19 -168h-36z" />
    <glyph glyph-name="Lslash" unicode="&#x141;" horiz-adv-x="629" 
d="M109 0v335l-91 -37v49l91 37v356h56v-333l162 65v-49l-162 -66v-306h392v-51h-448z" />
    <glyph glyph-name="lslash" unicode="&#x142;" horiz-adv-x="382" 
d="M160 0l1 354l-124 -50v50l124 50v356h54v-334l131 52v-49l-131 -53v-376h-55z" />
    <glyph glyph-name="Nacute" unicode="&#x143;" horiz-adv-x="729" 
d="M399 825l-49 1l85 161h60zM90 0v740h53l440 -641v641h56v-740h-54l-439 642v-642h-56z" />
    <glyph glyph-name="nacute" unicode="&#x144;" horiz-adv-x="579" 
d="M320 615l-49 1l85 161h60zM85 0v530h54v-99h4q8 19 27 44.5t53 45t85 19.5q58 0 99.5 -27.5t63.5 -75t22 -107.5v-330h-55v328q0 70 -35.5 116.5t-103.5 46.5q-56 0 -91 -30t-52 -75t-17 -92v-294h-54z" />
    <glyph glyph-name="Ncaron" unicode="&#x147;" horiz-adv-x="729" 
d="M345 814l-114 157h53l87 -119l87 119h53l-114 -157h-52zM90 0v740h53l440 -641v641h56v-740h-54l-439 642v-642h-56z" />
    <glyph glyph-name="ncaron" unicode="&#x148;" horiz-adv-x="579" 
d="M266 604l-114 157h53l87 -119l87 119h53l-114 -157h-52zM85 0v530h54v-99h4q8 19 27 44.5t53 45t85 19.5q58 0 99.5 -27.5t63.5 -75t22 -107.5v-330h-55v328q0 70 -35.5 116.5t-103.5 46.5q-56 0 -91 -30t-52 -75t-17 -92v-294h-54z" />
    <glyph glyph-name="Omacron" unicode="&#x14c;" horiz-adv-x="817" 
d="M264 854v44h288v-44h-288zM408 -10q-86 0 -151.5 32.5t-109.5 87t-66.5 122t-22.5 138.5t22.5 139t66.5 122.5t109.5 86.5t151.5 32t151.5 -32t110 -86.5t66.5 -122.5t22 -139t-22 -138.5t-66.5 -122t-110 -87t-151.5 -32.5zM408 43q80 0 146.5 39.5t106.5 113t40 174.5
q0 102 -40 175t-106.5 112.5t-146.5 39.5q-79 0 -145.5 -39.5t-106.5 -112.5t-40 -175q0 -101 40 -174.5t106.5 -113t145.5 -39.5z" />
    <glyph glyph-name="omacron" unicode="&#x14d;" 
d="M174 634v44h288v-44h-288zM319 -10q-63 0 -109.5 23t-78 62.5t-47.5 88.5t-16 101t16 101t47.5 88.5t78 62.5t109.5 23q62 0 109 -23t78 -62.5t47 -88.5t16 -101t-16 -101t-47 -88.5t-78 -62.5t-109 -23zM319 40q64 0 107.5 32.5t65 84t21.5 108.5t-21.5 108.5t-65 84
t-107.5 32.5q-65 0 -108 -32.5t-65 -84t-22 -108.5t22 -108.5t65 -84t108 -32.5z" />
    <glyph glyph-name="Ohungarumlaut" unicode="&#x150;" horiz-adv-x="817" 
d="M366 835l-50 1l52 161h60zM498 835l-49 1l52 161h60zM408 -10q-86 0 -151.5 32.5t-109.5 87t-66.5 122t-22.5 138.5t22.5 139t66.5 122.5t109.5 86.5t151.5 32t151.5 -32t110 -86.5t66.5 -122.5t22 -139t-22 -138.5t-66.5 -122t-110 -87t-151.5 -32.5zM408 43
q80 0 146.5 39.5t106.5 113t40 174.5q0 102 -40 175t-106.5 112.5t-146.5 39.5q-79 0 -145.5 -39.5t-106.5 -112.5t-40 -175q0 -101 40 -174.5t106.5 -113t145.5 -39.5z" />
    <glyph glyph-name="ohungarumlaut" unicode="&#x151;" 
d="M276 616h-50l52 161h60zM408 616h-49l52 161h60zM319 -10q-63 0 -109.5 23t-78 62.5t-47.5 88.5t-16 101t16 101t47.5 88.5t78 62.5t109.5 23q62 0 109 -23t78 -62.5t47 -88.5t16 -101t-16 -101t-47 -88.5t-78 -62.5t-109 -23zM319 40q64 0 107.5 32.5t65 84t21.5 108.5
t-21.5 108.5t-65 84t-107.5 32.5q-65 0 -108 -32.5t-65 -84t-22 -108.5t22 -108.5t65 -84t108 -32.5z" />
    <glyph glyph-name="OE" unicode="&#x152;" horiz-adv-x="974" 
d="M897 740v-51h-376v-285h328v-51h-328v-302h381v-51h-469q-98 0 -168.5 31.5t-116 84.5t-68 119t-22.5 135t22.5 135t68 119t116 84.5t168.5 31.5h464zM115 370q0 -60 18.5 -116.5t57.5 -102.5t99.5 -73t143.5 -27h31v638h-31q-83 0 -143.5 -27t-99.5 -73t-57.5 -102.5
t-18.5 -116.5z" />
    <glyph glyph-name="oe" unicode="&#x153;" horiz-adv-x="1035" 
d="M314 -10q-63 0 -109.5 23t-78 62.5t-47.5 88.5t-16 101t16 101t47.5 88.5t78 62.5t109.5 23q84 0 139.5 -42.5t81.5 -109.5q26 66 78.5 109t134.5 43q65 0 115.5 -30.5t79.5 -91t29 -150.5v-16h-407q1 -57 23.5 -105.5t64 -77.5t99.5 -29q49 0 80 17t48.5 39.5t24 40
l6.5 17.5h53l-5 -16.5t-18 -41t-36.5 -49t-61 -41t-91.5 -16.5q-85 0 -138 43.5t-79 108.5q-26 -67 -81.5 -109.5t-139.5 -42.5zM314 40q64 0 107.5 32.5t65 84t21.5 108.5t-21.5 108.5t-65 84t-107.5 32.5q-65 0 -108 -32.5t-65 -84t-22 -108.5t22 -108.5t65 -84t108 -32.5
zM566 298h350q-3 71 -27 113t-61.5 60.5t-79.5 18.5q-79 0 -127 -53t-55 -139z" />
    <glyph glyph-name="Racute" unicode="&#x154;" horiz-adv-x="652" 
d="M312 825l-50 1l86 161h60zM90 0v740h237q75 0 124 -29.5t73.5 -76t24.5 -97.5q0 -46 -19.5 -88t-58 -72.5t-97.5 -39.5l199 -337h-64l-196 333h-167v-333h-56zM327 689h-181v-306h181q55 0 91.5 22.5t55 57.5t18.5 73t-18.5 73t-55 57.5t-91.5 22.5z" />
    <glyph glyph-name="racute" unicode="&#x155;" horiz-adv-x="390" 
d="M231 615l-49 1l85 161h60zM90 0v530h54v-71h4q17 32 50 56.5t90 24.5q20 0 35 -2l15 -2v-53l-16 2t-34 2q-38 0 -70.5 -16t-53 -57.5t-20.5 -118.5v-295h-54z" />
    <glyph glyph-name="Rcaron" unicode="&#x158;" horiz-adv-x="652" 
d="M258 814l-114 157h53l87 -119l87 119h53l-114 -157h-52zM90 0v740h237q75 0 124 -29.5t73.5 -76t24.5 -97.5q0 -46 -19.5 -88t-58 -72.5t-97.5 -39.5l199 -337h-64l-196 333h-167v-333h-56zM327 689h-181v-306h181q55 0 91.5 22.5t55 57.5t18.5 73t-18.5 73t-55 57.5
t-91.5 22.5z" />
    <glyph glyph-name="rcaron" unicode="&#x159;" horiz-adv-x="390" 
d="M177 604l-114 157h53l87 -119l87 119h53l-114 -157h-52zM90 0v530h54v-71h4q17 32 50 56.5t90 24.5q20 0 35 -2l15 -2v-53l-16 2t-34 2q-38 0 -70.5 -16t-53 -57.5t-20.5 -118.5v-295h-54z" />
    <glyph glyph-name="Sacute" unicode="&#x15a;" horiz-adv-x="616" 
d="M336 825l-50 1l86 161h60zM321 -10q-66 0 -112 16.5t-75 42t-46 54t-24 54.5t-9 42l-2 16h57l2 -17.5t12 -43t32 -51.5t62 -43.5t103 -17.5q53 0 94 19.5t64.5 54t23.5 79.5t-19.5 74t-53.5 46.5t-76 28.5l-92 22q-83 20 -133.5 63.5t-50.5 123.5q0 60 29.5 104t81 68.5
t115.5 24.5q68 0 111.5 -21t68.5 -52t37 -62t15 -52l3 -21h-55l-2.5 16t-11 39t-28 46.5t-53 39t-86.5 15.5q-56 0 -94 -19.5t-57.5 -52t-19.5 -70.5q0 -56 36.5 -87t102.5 -47l94 -22q86 -21 139.5 -69.5t53.5 -133.5q0 -56 -29 -103.5t-82.5 -75.5t-125.5 -28z" />
    <glyph glyph-name="sacute" unicode="&#x15b;" horiz-adv-x="494" 
d="M285 615l-50 1l86 161h60zM255 -10q-59 0 -96.5 16.5t-59 41.5t-31 49.5t-12 41l-2.5 16.5h57l2.5 -17.5t16 -40t43 -40t83.5 -17.5t88 29t34 72t-28 65.5t-72 32.5l-68 16q-60 13 -100 45t-40 94q0 65 48 105.5t122 40.5q51 0 84 -15.5t52.5 -38t28.5 -45t11.5 -38
l2.5 -15.5h-54l-3 15.5t-15 36t-37 36t-70 15.5q-57 0 -86 -28.5t-29 -66.5q0 -36 25 -56.5t69 -31.5l69 -16q68 -16 106.5 -52.5t38.5 -97.5q0 -41 -22 -75.5t-61.5 -55.5t-94.5 -21z" />
    <glyph glyph-name="Scedilla" unicode="&#x15e;" horiz-adv-x="616" 
d="M321 -10h-1l-35 -61q17 6 37 6q47 0 71 -27t24 -61q0 -23 -12 -46t-38 -38t-68 -15q-24 0 -44 3.5l-20 3.5v41l20.5 -4t42.5 -4q41 0 58 19t17 38q0 20 -15.5 35.5t-45.5 15.5q-27 0 -43.5 -9.5l-16.5 -9.5l-25 25l50 90q-66 7 -108 31.5t-66 57t-34.5 63.5t-13 51
l-2.5 20h57l2 -17.5t12 -43t32 -51.5t62 -43.5t103 -17.5q53 0 94 19.5t64.5 54t23.5 79.5t-19.5 74t-53.5 46.5t-76 28.5l-92 22q-83 20 -133.5 63.5t-50.5 123.5q0 60 29.5 104t81 68.5t115.5 24.5q68 0 111.5 -21t68.5 -52t37 -62t15 -52l3 -21h-55l-2.5 16t-11 39
t-28 46.5t-53 39t-86.5 15.5q-56 0 -94 -19.5t-57.5 -52t-19.5 -70.5q0 -56 36.5 -87t102.5 -47l94 -22q86 -21 139.5 -69.5t53.5 -133.5q0 -56 -29 -103.5t-82.5 -75.5t-125.5 -28z" />
    <glyph glyph-name="scedilla" unicode="&#x15f;" horiz-adv-x="494" 
d="M250 -252q-24 0 -44 3.5l-20 3.5v41l20.5 -4t42.5 -4q41 0 58 19t17 38q0 20 -15.5 35.5t-45.5 15.5q-27 0 -43.5 -9.5l-16.5 -9.5l-25 25l50 89q-51 5 -84 22.5t-51 41.5t-26.5 47t-10.5 38l-2 15h57l2.5 -17.5t16 -40t43 -40t83.5 -17.5t88 29t34 72t-28 65.5t-72 32.5
l-68 16q-60 13 -100 45t-40 94q0 65 48 105.5t122 40.5q51 0 84 -15.5t52.5 -38t28.5 -45t11.5 -38l2.5 -15.5h-54l-3 15.5t-15 36t-37 36t-70 15.5q-57 0 -86 -28.5t-29 -66.5q0 -36 25 -56.5t69 -31.5l69 -16q68 -16 106.5 -52.5t38.5 -97.5q0 -39 -19.5 -72.5t-56 -54.5
t-86.5 -24l-35 -62q17 6 37 6q47 0 71 -27t24 -61q0 -23 -12 -46t-38 -38t-68 -15z" />
    <glyph glyph-name="Scaron" unicode="&#x160;" horiz-adv-x="616" 
d="M282 814l-114 157h53l87 -119l87 119h53l-114 -157h-52zM321 -10q-66 0 -112 16.5t-75 42t-46 54t-24 54.5t-9 42l-2 16h57l2 -17.5t12 -43t32 -51.5t62 -43.5t103 -17.5q53 0 94 19.5t64.5 54t23.5 79.5t-19.5 74t-53.5 46.5t-76 28.5l-92 22q-83 20 -133.5 63.5
t-50.5 123.5q0 60 29.5 104t81 68.5t115.5 24.5q68 0 111.5 -21t68.5 -52t37 -62t15 -52l3 -21h-55l-2.5 16t-11 39t-28 46.5t-53 39t-86.5 15.5q-56 0 -94 -19.5t-57.5 -52t-19.5 -70.5q0 -56 36.5 -87t102.5 -47l94 -22q86 -21 139.5 -69.5t53.5 -133.5q0 -56 -29 -103.5
t-82.5 -75.5t-125.5 -28z" />
    <glyph glyph-name="scaron" unicode="&#x161;" horiz-adv-x="494" 
d="M117 740h53l87 -107l87 107h53l-114 -141h-52zM255 -10q-59 0 -96.5 16.5t-59 41.5t-31 49.5t-12 41l-2.5 16.5h57l2.5 -17.5t16 -40t43 -40t83.5 -17.5t88 29t34 72t-28 65.5t-72 32.5l-68 16q-60 13 -100 45t-40 94q0 65 48 105.5t122 40.5q51 0 84 -15.5t52.5 -38
t28.5 -45t11.5 -38l2.5 -15.5h-54l-3 15.5t-15 36t-37 36t-70 15.5q-57 0 -86 -28.5t-29 -66.5q0 -36 25 -56.5t69 -31.5l69 -16q68 -16 106.5 -52.5t38.5 -97.5q0 -41 -22 -75.5t-61.5 -55.5t-94.5 -21z" />
    <glyph glyph-name="uni0162" unicode="&#x162;" 
d="M291 0v689h-249v51h553v-51h-248v-689l-40 -70q16 5 35 5q47 0 71.5 -27t24.5 -61q0 -23 -12 -46t-38.5 -38t-68.5 -15q-25 0 -45 3.5l-20 3.5l2 41l21 -4t43 -4q41 0 57.5 19t16.5 38q0 20 -15 35.5t-46 15.5q-26 0 -42.5 -9.5l-16.5 -9.5l-25 25l54 98h-12z" />
    <glyph glyph-name="uni0163" unicode="&#x163;" horiz-adv-x="398" 
d="M251 -256q-24 0 -44 3.5l-20 3.5v41l20.5 -4t42.5 -4q41 0 58 19t17 38q0 20 -15.5 35.5t-45.5 15.5q-27 0 -43.5 -9.5l-16.5 -9.5l-25 25l53 95q-95 19 -95 128v363h-99v46h99v134h54v-134h134v-46h-134v-363q0 -38 19.5 -60.5t66.5 -22.5q22 0 43.5 4l21.5 4v-47
l-21.5 -4.5t-46.5 -4.5l-37 -65q17 6 37 6q47 0 71 -27t24 -61q0 -23 -12 -46t-38 -38t-68 -15z" />
    <glyph glyph-name="Tcaron" unicode="&#x164;" 
d="M292 813l-114 157h53l87 -119l87 119h53l-114 -157h-52zM291 0v689h-249v51h553v-51h-248v-689h-56z" />
    <glyph glyph-name="tcaron" unicode="&#x165;" horiz-adv-x="346" 
d="M265 620l3 168h53l-19 -168h-37zM271 -10q-134 0 -134 131v363h-99v46h99v134h54v-134h134v-46h-134v-363q0 -38 19.5 -60.5t66.5 -22.5q22 0 43.5 4l21.5 4v-47l-22 -4.5t-49 -4.5z" />
    <glyph glyph-name="Tbar" unicode="&#x166;" 
d="M291 0v355h-205v50h205v284h-249v51h553v-51h-248v-284h203v-50h-203v-355h-56z" />
    <glyph glyph-name="tbar" unicode="&#x167;" horiz-adv-x="398" 
d="M271 -10q-134 0 -134 131v178h-90v49h90v136h-99v46h99v134h54v-134h134v-46h-134v-136h111v-49h-111v-178q0 -38 19.5 -60.5t66.5 -22.5q22 0 43.5 4l21.5 4v-47l-22 -4.5t-49 -4.5z" />
    <glyph glyph-name="Utilde" unicode="&#x168;" horiz-adv-x="711" 
d="M417 830q-24 0 -40.5 11.5t-29 26.5t-25 26.5t-27.5 11.5q-19 0 -27 -19t-8 -52h-41q0 45 16.5 79t57.5 34q25 0 42 -11.5t29.5 -26.5t24 -26.5t26.5 -11.5q17 0 25 19t8 52h42q0 -45 -16.5 -79t-56.5 -34zM355 -10q-90 0 -149 36.5t-87.5 99.5t-28.5 142v472h56v-472
q0 -102 52 -163t157 -61q106 0 158 61t52 163v472h56v-472q0 -79 -28.5 -142t-87.5 -99.5t-150 -36.5z" />
    <glyph glyph-name="utilde" unicode="&#x169;" horiz-adv-x="569" 
d="M346 620q-24 0 -40.5 11.5t-29 26.5t-24.5 26.5t-28 11.5q-18 0 -26 -19t-8 -52h-42q0 45 16.5 79t57.5 34q25 0 42 -11.5t29.5 -26.5t24.5 -26.5t26 -11.5q18 0 26 19t8 52h41q0 -45 -16.5 -79t-56.5 -34zM259 -10q-81 0 -127.5 53.5t-46.5 147.5v339h54v-337
q0 -74 34 -114t94 -40q59 0 94 32t51 81t16 100v278h54v-530h-54v99h-5q-7 -18 -25.5 -43.5t-52 -45.5t-86.5 -20z" />
    <glyph glyph-name="Umacron" unicode="&#x16a;" horiz-adv-x="711" 
d="M210 844v44h288v-44h-288zM355 -10q-90 0 -149 36.5t-87.5 99.5t-28.5 142v472h56v-472q0 -102 52 -163t157 -61q106 0 158 61t52 163v472h56v-472q0 -79 -28.5 -142t-87.5 -99.5t-150 -36.5z" />
    <glyph glyph-name="umacron" unicode="&#x16b;" horiz-adv-x="569" 
d="M139 634v44h288v-44h-288zM259 -10q-81 0 -127.5 53.5t-46.5 147.5v339h54v-337q0 -74 34 -114t94 -40q59 0 94 32t51 81t16 100v278h54v-530h-54v99h-5q-7 -18 -25.5 -43.5t-52 -45.5t-86.5 -20z" />
    <glyph glyph-name="Uring" unicode="&#x16e;" horiz-adv-x="711" 
d="M354 820q-44 0 -74.5 30.5t-30.5 74.5q0 43 30.5 74t74.5 31t74.5 -31t30.5 -74q0 -44 -30.5 -74.5t-74.5 -30.5zM354 863q26 0 44 18t18 44q0 25 -18 43.5t-44 18.5t-44 -18.5t-18 -43.5q0 -26 18 -44t44 -18zM355 -10q-90 0 -149 36.5t-87.5 99.5t-28.5 142v472h56
v-472q0 -102 52 -163t157 -61q106 0 158 61t52 163v472h56v-472q0 -79 -28.5 -142t-87.5 -99.5t-150 -36.5z" />
    <glyph glyph-name="uring" unicode="&#x16f;" horiz-adv-x="569" 
d="M283 610q-43 0 -74 30.5t-31 74.5q0 43 31 74t74 31q44 0 74.5 -31t30.5 -74q0 -44 -30.5 -74.5t-74.5 -30.5zM283 653q26 0 44 18t18 44q0 25 -18 43.5t-44 18.5t-44 -18.5t-18 -43.5q0 -26 18 -44t44 -18zM259 -10q-81 0 -127.5 53.5t-46.5 147.5v339h54v-337
q0 -74 34 -114t94 -40q59 0 94 32t51 81t16 100v278h54v-530h-54v99h-5q-7 -18 -25.5 -43.5t-52 -45.5t-86.5 -20z" />
    <glyph glyph-name="Uhungarumlaut" unicode="&#x170;" horiz-adv-x="711" 
d="M311 825l-49 1l52 161h60zM444 825l-50 1l52 161h60zM355 -10q-90 0 -149 36.5t-87.5 99.5t-28.5 142v472h56v-472q0 -102 52 -163t157 -61q106 0 158 61t52 163v472h56v-472q0 -79 -28.5 -142t-87.5 -99.5t-150 -36.5z" />
    <glyph glyph-name="uhungarumlaut" unicode="&#x171;" horiz-adv-x="569" 
d="M241 615l-50 1l52 161h60zM373 615l-49 1l52 161h60zM259 -10q-81 0 -127.5 53.5t-46.5 147.5v339h54v-337q0 -74 34 -114t94 -40q59 0 94 32t51 81t16 100v278h54v-530h-54v99h-5q-7 -18 -25.5 -43.5t-52 -45.5t-86.5 -20z" />
    <glyph glyph-name="Uogonek" unicode="&#x172;" horiz-adv-x="711" 
d="M394 -163q-48 0 -73.5 22.5t-25.5 57.5q0 27 13.5 45t28.5 28q-84 4 -139 41.5t-81.5 99t-26.5 137.5v472h56v-472q0 -102 52 -163t157 -61q106 0 158 61t52 163v472h56v-472q0 -73 -24.5 -132.5t-74.5 -97.5t-127 -46q-6 -3 -19 -11t-24 -22t-11 -34t15.5 -33.5
t45.5 -13.5q14 0 26.5 2.5l12.5 2.5v-40l-14 -3t-33 -3z" />
    <glyph glyph-name="uogonek" unicode="&#x173;" horiz-adv-x="569" 
d="M259 -10q-81 0 -127.5 53.5t-46.5 147.5v339h54v-337q0 -74 34 -114t94 -40q59 0 94 32t51 81t16 100v278h54v-530l-14 -7.5t-28 -22.5t-14 -38q0 -21 15 -34t45 -13q14 0 26.5 2.5l12.5 2.5v-40l-13.5 -3t-33.5 -3q-47 0 -73 22.5t-26 56.5q0 30 16 49t33 29v98h-5
q-7 -18 -25.5 -43.5t-52 -45.5t-86.5 -20z" />
    <glyph glyph-name="Wcircumflex" unicode="&#x174;" horiz-adv-x="946" 
d="M333 817l114 157h52l114 -157h-53l-87 119l-87 -119h-53zM225 0l-203 740h58l178 -657l187 657h56l187 -657l178 657h58l-204 -740h-64l-183 648l-184 -648h-64z" />
    <glyph glyph-name="wcircumflex" unicode="&#x175;" horiz-adv-x="855" 
d="M288 607l114 157h52l114 -157h-53l-87 119l-87 -119h-53zM218 0l-176 530h56l150 -456l153 456h54l151 -456l151 456h57l-178 -530h-59l-149 449l-150 -449h-60z" />
    <glyph glyph-name="Ycircumflex" unicode="&#x176;" horiz-adv-x="662" 
d="M196 790l115 157h51l115 -157h-54l-86 118l-87 -118h-54zM303 0v273l-271 467h62l237 -411l237 411h63l-272 -467v-273h-56z" />
    <glyph glyph-name="ycircumflex" unicode="&#x177;" horiz-adv-x="566" 
d="M137 607l115 157h51l115 -157h-54l-86 119l-87 -119h-54zM86 -196q-19 0 -31.5 2l-12.5 2v49l14 -1.5t30 -1.5q61 0 102 33t67 100l4 9l-209 534h58l179 -463l180 463h58l-219 -554q-68 -172 -220 -172z" />
    <glyph glyph-name="Ydieresis" unicode="&#x178;" horiz-adv-x="662" 
d="M414 806q-19 0 -31.5 13t-12.5 32q0 18 12.5 31t31.5 13q18 0 31 -13t13 -31q0 -19 -13 -32t-31 -13zM258 806q-19 0 -31.5 13t-12.5 32q0 18 12.5 31t31.5 13q18 0 31 -13t13 -31q0 -19 -13 -32t-31 -13zM303 0v273l-271 467h62l237 -411l237 411h63l-272 -467v-273h-56
z" />
    <glyph glyph-name="Zacute" unicode="&#x179;" horiz-adv-x="633" 
d="M342 825l-50 1l85 161h60zM67 0v46l433 643h-433v51h501v-46l-433 -643h433v-51h-501z" />
    <glyph glyph-name="zacute" unicode="&#x17a;" horiz-adv-x="502" 
d="M281 611h-50l86 162h60zM49 0v40l343 444h-322v46h390v-40l-344 -444h344v-46h-411z" />
    <glyph glyph-name="Zdotaccent" unicode="&#x17b;" horiz-adv-x="633" 
d="M313 844q-19 0 -31.5 13t-12.5 31t12.5 31t31.5 13t32 -13t13 -31t-13 -31t-32 -13zM67 0v46l433 643h-433v51h501v-46l-433 -643h433v-51h-501z" />
    <glyph glyph-name="zdotaccent" unicode="&#x17c;" horiz-adv-x="502" 
d="M252 629q-19 0 -31.5 13.5t-12.5 31.5t12.5 31t31.5 13t32 -13t13 -31q0 -19 -13 -32t-32 -13zM49 0v40l343 444h-322v46h390v-40l-344 -444h344v-46h-411z" />
    <glyph glyph-name="Zcaron" unicode="&#x17d;" horiz-adv-x="633" 
d="M288 814l-115 157h54l87 -119l86 119h54l-115 -157h-51zM67 0v46l433 643h-433v51h501v-46l-433 -643h433v-51h-501z" />
    <glyph glyph-name="zcaron" unicode="&#x17e;" horiz-adv-x="502" 
d="M227 599l-114 157h53l87 -118l87 118h53l-114 -157h-52zM49 0v40l343 444h-322v46h390v-40l-344 -444h344v-46h-411z" />
    <glyph glyph-name="Ohorn" unicode="&#x1a0;" horiz-adv-x="817" 
d="M408 -10q-86 0 -151.5 32.5t-109.5 87t-66.5 122t-22.5 138.5t22.5 139t66.5 122.5t109.5 86.5t151.5 32q12 0 23 -1h125q55 0 55 58v36h53v-36q0 -44 -21.5 -70t-63.5 -29q59 -34 99 -87.5t60 -118t20 -132.5q0 -71 -22 -138.5t-66.5 -122t-110 -87t-151.5 -32.5z
M408 43q80 0 146.5 39.5t106.5 113t40 174.5q0 102 -40 175t-106.5 112.5t-146.5 39.5q-79 0 -145.5 -39.5t-106.5 -112.5t-40 -175q0 -101 40 -174.5t106.5 -113t145.5 -39.5z" />
    <glyph glyph-name="ohorn" unicode="&#x1a1;" horiz-adv-x="627" 
d="M314 -10q-63 0 -109.5 23t-78 62.5t-47.5 88.5t-16 101t16 101t47.5 88.5t78 62.5t109.5 23h116q53 0 53 53v41h50v-41q0 -41 -20.5 -65t-61.5 -27q56 -38 84.5 -102t28.5 -134q0 -52 -16 -101t-47 -88.5t-78 -62.5t-109 -23zM314 40q64 0 107.5 32.5t65 84t21.5 108.5
t-21.5 108.5t-65 84t-107.5 32.5q-65 0 -108 -32.5t-65 -84t-22 -108.5t22 -108.5t65 -84t108 -32.5z" />
    <glyph glyph-name="Uhorn" unicode="&#x1af;" horiz-adv-x="711" 
d="M355 -10q-90 0 -149 36.5t-87.5 99.5t-28.5 142v472h56v-472q0 -102 52 -163t157 -61q106 0 158 61t52 163v472h51q53 0 53 53v41h52v-41q0 -43 -24 -68.5t-72 -25.5h-4v-431q0 -79 -28.5 -142t-87.5 -99.5t-150 -36.5z" />
    <glyph glyph-name="uhorn" unicode="&#x1b0;" horiz-adv-x="564" 
d="M254 -10q-81 0 -127.5 53.5t-46.5 147.5v339h54v-337q0 -74 34 -114t94 -40q59 0 94 32t51 81t16 100v278h52q53 0 53 53v41h50v-41q0 -44 -23.5 -68.5t-71.5 -24.5h-6v-490h-54v99h-5q-7 -18 -25.5 -43.5t-52 -45.5t-86.5 -20z" />
    <glyph glyph-name="Gcaron" unicode="&#x1e6;" horiz-adv-x="776" 
d="M376 814l-114 157h53l87 -119l87 119h53l-114 -157h-52zM401 -10q-86 0 -150.5 32t-107 86.5t-64 122.5t-21.5 139t21.5 138.5t64.5 122t107.5 87t150.5 32.5q69 0 118.5 -17t83 -44t54 -57.5t31.5 -57.5t14.5 -44.5l3.5 -17.5h-58l-4.5 19t-18.5 46.5t-41 55t-71.5 46.5
t-110.5 19q-73 0 -127 -28t-90 -75t-53.5 -105.5t-17.5 -119.5t17.5 -120t53.5 -105.5t89.5 -74.5t125.5 -28q82 0 139.5 35t88 97t30.5 144v5h-247v49h301v-50q0 -96 -37 -171t-107 -118t-168 -43z" />
    <glyph glyph-name="gcaron" unicode="&#x1e7;" horiz-adv-x="636" 
d="M289 604l-114 157h53l87 -119l87 119h53l-114 -157h-52zM325 -210q-63 0 -104.5 17t-66.5 42.5t-37 50.5t-15.5 42.5l-3.5 17.5h55l2.5 -12.5t11.5 -30t28 -35.5t50.5 -30t79.5 -12q53 0 87.5 17t54 45t27.5 60.5t8 63.5v86h-5q-9 -18 -31 -45t-61 -48t-99 -21
q-59 0 -104 23t-74.5 62t-44.5 87.5t-15 98.5q0 51 15 99t44.5 87t74.5 62t104 23q60 0 99 -21t61 -48t31 -45h5v104h54v-504q0 -112 -62.5 -174t-168.5 -62zM313 48q63 0 105 32t63 83t21 106q0 56 -21 106.5t-63 82.5t-105 32t-105.5 -32t-63.5 -82.5t-21 -106.5
q0 -55 21 -106t63.5 -83t105.5 -32z" />
    <glyph glyph-name="circumflex" unicode="&#x2c6;" horiz-adv-x="516" 
d="M118 583l114 157h52l114 -157h-53l-87 118l-87 -118h-53z" />
    <glyph glyph-name="caron" unicode="&#x2c7;" horiz-adv-x="346" 
d="M126 604l-114 157h53l87 -119l87 119h53l-114 -157h-52z" />
    <glyph glyph-name="breve" unicode="&#x2d8;" horiz-adv-x="366" 
d="M179 610q-42 0 -69 14t-42.5 34.5t-22 41t-8 34.5l-1.5 14h45l2 -14.5t11 -33.5t29 -33.5t56 -14.5t56 14.5t29 33.5t11 33.5l2 14.5h45l-1.5 -14t-8 -34.5t-22 -41t-42 -34.5t-69.5 -14z" />
    <glyph glyph-name="dotaccent" unicode="&#x2d9;" horiz-adv-x="126" 
d="M73 629q-19 0 -31.5 13t-12.5 31t12.5 31.5t31.5 13.5t32 -13.5t13 -31.5t-13 -31t-32 -13z" />
    <glyph glyph-name="ring" unicode="&#x2da;" horiz-adv-x="336" 
d="M168 608q-43 0 -74 31t-31 74q0 44 31 74.5t74 30.5q44 0 74.5 -30.5t30.5 -74.5q0 -43 -30.5 -74t-74.5 -31zM168 651q26 0 44 18t18 44t-18 44.5t-44 18.5t-44 -18.5t-18 -44.5t18 -44t44 -18z" />
    <glyph glyph-name="ogonek" unicode="&#x2db;" horiz-adv-x="189" 
d="M124 -177q-48 0 -73.5 22.5t-25.5 56.5q0 26 11.5 43.5t27 28t27 15.5l11.5 5l26 -15l-14 -7.5t-28.5 -22.5t-14.5 -38q0 -21 15.5 -34t45.5 -13q14 0 26.5 2.5l12.5 2.5v-40l-14 -3t-33 -3z" />
    <glyph glyph-name="tilde" unicode="&#x2dc;" horiz-adv-x="370" 
d="M246 620q-24 0 -40.5 11.5t-29 26.5t-24.5 26.5t-27 11.5q-19 0 -27 -19t-8 -52h-41q0 45 16 79t58 34q25 0 42 -11.5t29.5 -26.5t24 -26.5t25.5 -11.5q18 0 26 19t8 52h41q0 -45 -16.5 -79t-56.5 -34z" />
    <glyph glyph-name="gravecomb" unicode="&#x300;" horiz-adv-x="0" 
d="M128 615l-96 162h60l86 -161z" />
    <glyph glyph-name="acutecomb" unicode="&#x301;" horiz-adv-x="0" 
d="M86 615l-50 1l86 161h60z" />
    <glyph glyph-name="uni0302" unicode="&#x302;" horiz-adv-x="0" 
d="M23 607l114 157h52l114 -157h-53l-87 118l-87 -118h-53z" />
    <glyph glyph-name="tildecomb" unicode="&#x303;" horiz-adv-x="0" 
d="M224 620q-24 0 -40.5 11.5t-29 26.5t-24.5 26.5t-27 11.5q-19 0 -27 -19t-8 -52h-41q0 45 16 79t58 34q25 0 42 -11.5t29.5 -26.5t24 -26.5t25.5 -11.5q18 0 26 19t8 52h41q0 -45 -16.5 -79t-56.5 -34z" />
    <glyph glyph-name="uni0304" unicode="&#x304;" horiz-adv-x="0" 
d="M26 636v44h288v-44h-288z" />
    <glyph glyph-name="uni0306" unicode="&#x306;" horiz-adv-x="0" 
d="M181 610q-42 0 -69 14t-42.5 34.5t-22 41t-8 34.5l-1.5 14h45l2 -14.5t11 -33.5t29 -33.5t56 -14.5t56 14.5t29 33.5t11 33.5l2 14.5h45l-1.5 -14t-8 -34.5t-22 -41t-42 -34.5t-69.5 -14z" />
    <glyph glyph-name="uni0307" unicode="&#x307;" horiz-adv-x="0" 
d="M124 629q-19 0 -31.5 13t-12.5 31t12.5 31t31.5 13t32 -13t13 -31t-13 -31t-32 -13z" />
    <glyph glyph-name="uni0308" unicode="&#x308;" horiz-adv-x="0" 
d="M276 624q-19 0 -31.5 13t-12.5 31t12.5 31t31.5 13t32 -13t13 -31t-13 -31t-32 -13zM120 624q-19 0 -31.5 13t-12.5 31t12.5 31t31.5 13t32 -13t13 -31t-13 -31t-32 -13z" />
    <glyph glyph-name="hookabovecomb" unicode="&#x309;" horiz-adv-x="0" 
d="M94 604v32q0 8 3.5 15t11.5 11l13 7q22 11 34.5 24.5t12.5 31.5q0 15 -11.5 28.5t-38.5 13.5q-31 0 -40.5 -16.5t-9.5 -30.5h-41q-1 35 22.5 60t68.5 25q43 0 68 -22.5t25 -56.5q0 -24 -17 -46.5t-59 -42.5l-2 -1v-32h-40z" />
    <glyph glyph-name="uni030A" unicode="&#x30a;" horiz-adv-x="0" 
d="M168 608q-43 0 -74 31t-31 74q0 44 31 74.5t74 30.5q44 0 74.5 -30.5t30.5 -74.5q0 -43 -30.5 -74t-74.5 -31zM168 651q26 0 44 18t18 44t-18 44.5t-44 18.5t-44 -18.5t-18 -44.5t18 -44t44 -18z" />
    <glyph glyph-name="uni030B" unicode="&#x30b;" horiz-adv-x="0" 
d="M92 615l-49 1l52 161h60zM225 615l-50 1l52 161h60z" />
    <glyph glyph-name="uni030C" unicode="&#x30c;" horiz-adv-x="0" 
d="M137 604l-114 157h53l87 -119l87 119h53l-114 -157h-52z" />
    <glyph glyph-name="uni0312" unicode="&#x312;" horiz-adv-x="0" 
d="M160 780l-46 -75q21 -1 32.5 -15t11.5 -31q0 -20 -13 -33.5t-34 -13.5q-20 0 -34.5 12t-14.5 35q0 19 13 41t39 61l13 19h33z" />
    <glyph glyph-name="uni031B" unicode="&#x31b;" horiz-adv-x="0" 
d="M273 624v-41q0 -44 -23.5 -68.5t-70.5 -24.5h-125v40h116q53 0 53 53v41h50z" />
    <glyph glyph-name="dotbelowcomb" unicode="&#x323;" horiz-adv-x="0" 
d="M86 -204q-20 0 -33.5 14t-13.5 33t13.5 33t33.5 14q19 0 33 -14t14 -33t-14 -33t-33 -14z" />
    <glyph glyph-name="uni0326" unicode="&#x326;" horiz-adv-x="0" 
d="M82 -235l46 76q-21 1 -32.5 14.5t-11.5 31.5q0 19 13 32.5t34 13.5q20 0 34.5 -12t14.5 -34q0 -20 -13 -42t-39 -61l-13 -19h-33z" />
    <glyph glyph-name="uni0327" unicode="&#x327;" horiz-adv-x="0" 
d="M94 -249q-24 0 -44 3.5l-20 3.5v41l20.5 -4t42.5 -4q41 0 58 19t17 39q0 19 -15.5 35t-45.5 16q-27 0 -43.5 -10l-16.5 -10l-25 25l56 102h44l-42 -75q17 6 37 6q47 0 71 -26.5t24 -61.5q0 -23 -12 -46t-38 -38t-68 -15z" />
    <glyph glyph-name="uni0328" unicode="&#x328;" horiz-adv-x="0" 
d="M124 -177q-48 0 -73.5 22.5t-25.5 56.5q0 26 11.5 43.5t27 28t27 15.5l11.5 5l26 -15l-14 -7.5t-28.5 -22.5t-14.5 -38q0 -21 15.5 -34t45.5 -13q14 0 26.5 2.5l12.5 2.5v-40l-14 -3t-33 -3z" />
    <glyph glyph-name="uni1E20" unicode="&#x1e20;" horiz-adv-x="776" 
d="M258 844v44h288v-44h-288zM401 -10q-86 0 -150.5 32t-107 86.5t-64 122.5t-21.5 139t21.5 138.5t64.5 122t107.5 87t150.5 32.5q69 0 118.5 -17t83 -44t54 -57.5t31.5 -57.5t14.5 -44.5l3.5 -17.5h-58l-4.5 19t-18.5 46.5t-41 55t-71.5 46.5t-110.5 19q-73 0 -127 -28
t-90 -75t-53.5 -105.5t-17.5 -119.5t17.5 -120t53.5 -105.5t89.5 -74.5t125.5 -28q82 0 139.5 35t88 97t30.5 144v5h-247v49h301v-50q0 -96 -37 -171t-107 -118t-168 -43z" />
    <glyph glyph-name="uni1E21" unicode="&#x1e21;" horiz-adv-x="636" 
d="M171 634v44h288v-44h-288zM325 -210q-63 0 -104.5 17t-66.5 42.5t-37 50.5t-15.5 42.5l-3.5 17.5h55l2.5 -12.5t11.5 -30t28 -35.5t50.5 -30t79.5 -12q53 0 87.5 17t54 45t27.5 60.5t8 63.5v86h-5q-9 -18 -31 -45t-61 -48t-99 -21q-59 0 -104 23t-74.5 62t-44.5 87.5
t-15 98.5q0 51 15 99t44.5 87t74.5 62t104 23q60 0 99 -21t61 -48t31 -45h5v104h54v-504q0 -112 -62.5 -174t-168.5 -62zM313 48q63 0 105 32t63 83t21 106q0 56 -21 106.5t-63 82.5t-105 32t-105.5 -32t-63.5 -82.5t-21 -106.5q0 -55 21 -106t63.5 -83t105.5 -32z" />
    <glyph glyph-name="Wgrave" unicode="&#x1e80;" horiz-adv-x="946" 
d="M447 825l-95 162h60l85 -161zM225 0l-203 740h58l178 -657l187 657h56l187 -657l178 657h58l-204 -740h-64l-183 648l-184 -648h-64z" />
    <glyph glyph-name="wgrave" unicode="&#x1e81;" horiz-adv-x="855" 
d="M402 615l-95 162h60l85 -161zM218 0l-176 530h56l150 -456l153 456h54l151 -456l151 456h57l-178 -530h-59l-149 449l-150 -449h-60z" />
    <glyph glyph-name="Wacute" unicode="&#x1e82;" horiz-adv-x="946" 
d="M501 825l-50 1l85 161h60zM225 0l-203 740h58l178 -657l187 657h56l187 -657l178 657h58l-204 -740h-64l-183 648l-184 -648h-64z" />
    <glyph glyph-name="wacute" unicode="&#x1e83;" horiz-adv-x="855" 
d="M456 615l-50 1l85 161h60zM218 0l-176 530h56l150 -456l153 456h54l151 -456l151 456h57l-178 -530h-59l-149 449l-150 -449h-60z" />
    <glyph glyph-name="Wdieresis" unicode="&#x1e84;" horiz-adv-x="946" 
d="M550 834q-19 0 -31.5 13t-12.5 31t12.5 31t31.5 13t32 -13t13 -31t-13 -31t-32 -13zM394 834q-19 0 -31.5 13t-12.5 31t12.5 31t31.5 13t32 -13t13 -31t-13 -31t-32 -13zM225 0l-203 740h58l178 -657l187 657h56l187 -657l178 657h58l-204 -740h-64l-183 648l-184 -648
h-64z" />
    <glyph glyph-name="wdieresis" unicode="&#x1e85;" horiz-adv-x="855" 
d="M505 624q-19 0 -31.5 13t-12.5 31t12.5 31t31.5 13t32 -13t13 -31t-13 -31t-32 -13zM349 624q-19 0 -31.5 13t-12.5 31t12.5 31t31.5 13t32 -13t13 -31t-13 -31t-32 -13zM218 0l-176 530h56l150 -456l153 456h54l151 -456l151 456h57l-178 -530h-59l-149 449l-150 -449
h-60z" />
    <glyph glyph-name="uni1E9E" unicode="&#x1e9e;" 
d="M307 -10q-34 0 -62 3l-28 3v50l27.5 -3t58.5 -3q79 0 127.5 23.5t71.5 61t23 80.5q0 73 -56.5 113.5t-158.5 40.5h-10v43l197 277l-20.5 5t-51.5 10.5t-65 5.5q-103 0 -161 -60t-58 -172v-471h-54v471q0 81 29.5 145t90.5 100.5t154 36.5q54 0 98.5 -9.5t71.5 -19
l27 -9.5v-32l-196 -275q79 -6 127 -36.5t70.5 -74t22.5 -89.5q0 -53 -27.5 -102.5t-88 -81t-159.5 -31.5z" />
    <glyph glyph-name="uni1EA0" unicode="&#x1ea0;" horiz-adv-x="681" 
d="M42 0l265 740h67l266 -740h-60l-73 206h-333l-73 -206h-59zM192 256h298l-149 418zM340 -204q-20 0 -33 14t-13 33t13 33t33 14t33.5 -14t13.5 -33t-13.5 -33t-33.5 -14z" />
    <glyph glyph-name="uni1EA1" unicode="&#x1ea1;" horiz-adv-x="629" 
d="M307 540q59 0 97.5 -21.5t60.5 -49t32 -45.5h4v106h55v-530h-55v106h-4q-10 -18 -32 -45.5t-60.5 -49t-97.5 -21.5q-60 0 -104.5 23.5t-74.5 62.5t-45 88.5t-15 100.5t15 100t45 88.5t74.5 63t104.5 23.5zM313 490q-64 0 -106 -33t-63 -84.5t-21 -107.5t21 -107.5
t63 -84.5t106 -33q63 0 105 33t63 84.5t21 107.5t-21 107.5t-63 84.5t-105 33zM314 -204q-20 0 -33 14t-13 33t13 33t33 14t33.5 -14t13.5 -33t-13.5 -33t-33.5 -14z" />
    <glyph glyph-name="uni1EA2" unicode="&#x1ea2;" horiz-adv-x="681" 
d="M322 814v32q0 8 3.5 15t11.5 11l13 7q22 11 34.5 24.5t12.5 31.5q0 15 -11.5 28.5t-38.5 13.5q-31 0 -40.5 -16.5t-9.5 -30.5h-41q-1 35 22.5 60t68.5 25q43 0 68 -22.5t25 -56.5q0 -24 -17 -46.5t-59 -42.5l-2 -1v-32h-40zM42 0l265 740h67l266 -740h-60l-73 206h-333
l-73 -206h-59zM192 256h298l-149 418z" />
    <glyph glyph-name="uni1EA3" unicode="&#x1ea3;" horiz-adv-x="629" 
d="M296 604v32q0 8 3.5 15t12.5 11l12 7q22 11 34.5 24.5t12.5 31.5q0 15 -11 28.5t-38 13.5q-31 0 -41 -16.5t-10 -30.5h-41q0 35 23.5 60t67.5 25q43 0 68 -22.5t25 -56.5q0 -24 -17 -46.5t-58 -42.5l-2 -1v-32h-41zM307 540q59 0 97.5 -21.5t60.5 -49t32 -45.5h4v106h55
v-530h-55v106h-4q-10 -18 -32 -45.5t-60.5 -49t-97.5 -21.5q-60 0 -104.5 23.5t-74.5 62.5t-45 88.5t-15 100.5t15 100t45 88.5t74.5 63t104.5 23.5zM313 490q-64 0 -106 -33t-63 -84.5t-21 -107.5t21 -107.5t63 -84.5t106 -33q63 0 105 33t63 84.5t21 107.5t-21 107.5
t-63 84.5t-105 33z" />
    <glyph glyph-name="uni1EA4" unicode="&#x1ea4;" horiz-adv-x="681" 
d="M509 939l-50 1l86 161h60zM202 817l115 141h51l115 -141h-54l-86 107l-87 -107h-54zM42 0l265 740h67l266 -740h-60l-73 206h-333l-73 -206h-59zM192 256h298l-149 418z" />
    <glyph glyph-name="uni1EA5" unicode="&#x1ea5;" horiz-adv-x="629" 
d="M483 729l-49 1l85 161h60zM177 607l114 141h52l114 -141h-53l-87 107l-87 -107h-53zM307 540q59 0 97.5 -21.5t60.5 -49t32 -45.5h4v106h55v-530h-55v106h-4q-10 -18 -32 -45.5t-60.5 -49t-97.5 -21.5q-60 0 -104.5 23.5t-74.5 62.5t-45 88.5t-15 100.5t15 100t45 88.5
t74.5 63t104.5 23.5zM313 490q-64 0 -106 -33t-63 -84.5t-21 -107.5t21 -107.5t63 -84.5t106 -33q63 0 105 33t63 84.5t21 107.5t-21 107.5t-63 84.5t-105 33z" />
    <glyph glyph-name="uni1EA6" unicode="&#x1ea6;" horiz-adv-x="681" 
d="M471 939l-96 162h60l86 -161zM201 817l114 141h52l114 -141h-53l-87 107l-87 -107h-53zM42 0l265 740h67l266 -740h-60l-73 206h-333l-73 -206h-59zM192 256h298l-149 418z" />
    <glyph glyph-name="uni1EA7" unicode="&#x1ea7;" horiz-adv-x="629" 
d="M445 729l-95 162h60l85 -161zM175 607l115 141h51l115 -141h-54l-86 107l-87 -107h-54zM307 540q59 0 97.5 -21.5t60.5 -49t32 -45.5h4v106h55v-530h-55v106h-4q-10 -18 -32 -45.5t-60.5 -49t-97.5 -21.5q-60 0 -104.5 23.5t-74.5 62.5t-45 88.5t-15 100.5t15 100
t45 88.5t74.5 63t104.5 23.5zM313 490q-64 0 -106 -33t-63 -84.5t-21 -107.5t21 -107.5t63 -84.5t106 -33q63 0 105 33t63 84.5t21 107.5t-21 107.5t-63 84.5t-105 33z" />
    <glyph glyph-name="uni1EA8" unicode="&#x1ea8;" horiz-adv-x="681" 
d="M461 928v32q0 8 3.5 15t11.5 11l13 7q22 11 34.5 24.5t12.5 31.5q0 14 -11.5 28t-38.5 14q-31 0 -40.5 -16.5t-9.5 -30.5h-41q-1 35 22.5 60t68.5 25q43 0 68 -22.5t25 -56.5q0 -24 -17 -46.5t-59 -42.5l-2 -1v-32h-40zM201 817l114 141h52l114 -141h-53l-87 107
l-87 -107h-53zM42 0l265 740h67l266 -740h-60l-73 206h-333l-73 -206h-59zM192 256h298l-149 418z" />
    <glyph glyph-name="uni1EA9" unicode="&#x1ea9;" horiz-adv-x="629" 
d="M435 718v32q0 8 3.5 15t12.5 11l12 7q22 11 34.5 24.5t12.5 31.5q0 15 -11 28.5t-38 13.5q-31 0 -41 -16.5t-10 -30.5h-41q0 35 23.5 60t67.5 25q43 0 68 -22.5t25 -56.5q0 -24 -17 -46.5t-58 -42.5l-2 -1v-32h-41zM175 607l115 141h51l115 -141h-54l-86 107l-87 -107
h-54zM307 540q59 0 97.5 -21.5t60.5 -49t32 -45.5h4v106h55v-530h-55v106h-4q-10 -18 -32 -45.5t-60.5 -49t-97.5 -21.5q-60 0 -104.5 23.5t-74.5 62.5t-45 88.5t-15 100.5t15 100t45 88.5t74.5 63t104.5 23.5zM313 490q-64 0 -106 -33t-63 -84.5t-21 -107.5t21 -107.5
t63 -84.5t106 -33q63 0 105 33t63 84.5t21 107.5t-21 107.5t-63 84.5t-105 33z" />
    <glyph glyph-name="uni1EAA" unicode="&#x1eaa;" horiz-adv-x="681" 
d="M403 998q-24 0 -40.5 11.5t-29 26.5t-24.5 26.5t-27 11.5q-19 0 -27 -19t-8 -52h-41q0 45 16 79t58 34q25 0 42 -11.5t29.5 -26t24 -26t25.5 -11.5q18 0 26 19t8 51h41q0 -44 -16.5 -78.5t-56.5 -34.5zM201 817l114 141h52l114 -141h-53l-87 107l-87 -107h-53zM42 0
l265 740h67l266 -740h-60l-73 206h-333l-73 -206h-59zM192 256h298l-149 418z" />
    <glyph glyph-name="uni1EAB" unicode="&#x1eab;" horiz-adv-x="629" 
d="M378 788q-24 0 -40.5 11.5t-29 26.5t-25 26.5t-27.5 11.5q-19 0 -27 -19t-8 -52h-41q0 45 16.5 79t57.5 34q25 0 42 -11.5t29.5 -26t24 -26t26.5 -11.5q17 0 25 19t8 51h42q0 -44 -16.5 -78.5t-56.5 -34.5zM175 607l114 141h52l114 -141h-53l-87 107l-87 -107h-53z
M307 540q59 0 97.5 -21.5t60.5 -49t32 -45.5h4v106h55v-530h-55v106h-4q-10 -18 -32 -45.5t-60.5 -49t-97.5 -21.5q-60 0 -104.5 23.5t-74.5 62.5t-45 88.5t-15 100.5t15 100t45 88.5t74.5 63t104.5 23.5zM313 490q-64 0 -106 -33t-63 -84.5t-21 -107.5t21 -107.5t63 -84.5
t106 -33q63 0 105 33t63 84.5t21 107.5t-21 107.5t-63 84.5t-105 33z" />
    <glyph glyph-name="uni1EAC" unicode="&#x1eac;" horiz-adv-x="681" 
d="M201 817l114 141h52l114 -141h-53l-87 107l-87 -107h-53zM42 0l265 740h67l266 -740h-60l-73 206h-333l-73 -206h-59zM192 256h298l-149 418zM340 -204q-20 0 -33 14t-13 33t13 33t33 14t33.5 -14t13.5 -33t-13.5 -33t-33.5 -14z" />
    <glyph glyph-name="uni1EAD" unicode="&#x1ead;" horiz-adv-x="629" 
d="M175 607l115 157h51l115 -157h-54l-86 119l-87 -119h-54zM307 540q59 0 97.5 -21.5t60.5 -49t32 -45.5h4v106h55v-530h-55v106h-4q-10 -18 -32 -45.5t-60.5 -49t-97.5 -21.5q-60 0 -104.5 23.5t-74.5 62.5t-45 88.5t-15 100.5t15 100t45 88.5t74.5 63t104.5 23.5z
M313 490q-64 0 -106 -33t-63 -84.5t-21 -107.5t21 -107.5t63 -84.5t106 -33q63 0 105 33t63 84.5t21 107.5t-21 107.5t-63 84.5t-105 33zM314 -204q-20 0 -33 14t-13 33t13 33t33 14t33.5 -14t13.5 -33t-13.5 -33t-33.5 -14z" />
    <glyph glyph-name="uni1EAE" unicode="&#x1eae;" horiz-adv-x="681" 
d="M369 966h-50l85 161h60zM341 820q-51 0 -80 18.5t-42.5 42.5t-17 42l-3.5 18h44l3 -12t12 -28t29 -28t55 -12q34 0 54 12t29.5 28t12 28l2.5 12h44l-3.5 -18t-16.5 -42t-42 -42.5t-80 -18.5zM42 0l265 740h67l266 -740h-60l-73 206h-333l-73 -206h-59zM192 256h298
l-149 418z" />
    <glyph glyph-name="uni1EAF" unicode="&#x1eaf;" horiz-adv-x="629" 
d="M343 756h-50l86 161h60zM315 610q-51 0 -80 18.5t-42.5 42.5t-17 42l-3.5 18h45l2.5 -12t12 -28t29.5 -28t54 -12q35 0 54.5 12t29 28t12 28l2.5 12h45l-3.5 -18t-17 -42t-42.5 -42.5t-80 -18.5zM307 540q59 0 97.5 -21.5t60.5 -49t32 -45.5h4v106h55v-530h-55v106h-4
q-10 -18 -32 -45.5t-60.5 -49t-97.5 -21.5q-60 0 -104.5 23.5t-74.5 62.5t-45 88.5t-15 100.5t15 100t45 88.5t74.5 63t104.5 23.5zM313 490q-64 0 -106 -33t-63 -84.5t-21 -107.5t21 -107.5t63 -84.5t106 -33q63 0 105 33t63 84.5t21 107.5t-21 107.5t-63 84.5t-105 33z
" />
    <glyph glyph-name="uni1EB0" unicode="&#x1eb0;" horiz-adv-x="681" 
d="M315 966l-96 161h60l85 -161h-49zM340 820q-51 0 -80 18.5t-42.5 42.5t-17 42l-3.5 18h45l2.5 -12t12 -28t29.5 -28t54 -12q35 0 54.5 12t29 28t12 28l2.5 12h45l-3.5 -18t-17 -42t-42.5 -42.5t-80 -18.5zM42 0l265 740h67l266 -740h-60l-73 206h-333l-73 -206h-59z
M192 256h298l-149 418z" />
    <glyph glyph-name="uni1EB1" unicode="&#x1eb1;" horiz-adv-x="629" 
d="M289 756l-96 161h60l86 -161h-50zM314 610q-51 0 -80 18.5t-42 42.5t-16.5 42l-3.5 18h44l2.5 -12t12 -28t29.5 -28t54 -12q35 0 55 12t29 28t12 28l3 12h44l-3.5 -18t-17 -42t-42.5 -42.5t-80 -18.5zM307 540q59 0 97.5 -21.5t60.5 -49t32 -45.5h4v106h55v-530h-55v106
h-4q-10 -18 -32 -45.5t-60.5 -49t-97.5 -21.5q-60 0 -104.5 23.5t-74.5 62.5t-45 88.5t-15 100.5t15 100t45 88.5t74.5 63t104.5 23.5zM313 490q-64 0 -106 -33t-63 -84.5t-21 -107.5t21 -107.5t63 -84.5t106 -33q63 0 105 33t63 84.5t21 107.5t-21 107.5t-63 84.5t-105 33z
" />
    <glyph glyph-name="uni1EB2" unicode="&#x1eb2;" horiz-adv-x="681" 
d="M321 954v32q0 8 3.5 15.5t12.5 11.5l12 6q22 11 34.5 25t12.5 31q0 15 -11 28.5t-38 13.5q-31 0 -41 -16.5t-10 -30.5h-41q0 36 23.5 60.5t67.5 24.5q43 0 68 -22.5t25 -55.5q0 -25 -17 -47.5t-58 -41.5l-2 -1v-33h-41zM340 820q-51 0 -80 18.5t-42.5 42.5t-17 42
l-3.5 18h45l2.5 -12t12 -28t29.5 -28t54 -12q35 0 54.5 12t29 28t12 28l2.5 12h45l-3.5 -18t-17 -42t-42.5 -42.5t-80 -18.5zM42 0l265 740h67l266 -740h-60l-73 206h-333l-73 -206h-59zM192 256h298l-149 418z" />
    <glyph glyph-name="uni1EB3" unicode="&#x1eb3;" horiz-adv-x="629" 
d="M296 744v32q0 8 3.5 15.5t11.5 11.5l13 6q22 11 34 25t12 31q0 15 -11 28.5t-38 13.5q-31 0 -40.5 -16.5t-9.5 -30.5h-42q0 36 23.5 60.5t68.5 24.5q43 0 67.5 -22.5t24.5 -55.5q0 -25 -17 -47.5t-58 -41.5l-2 -1v-33h-40zM314 610q-51 0 -80 18.5t-42 42.5t-16.5 42
l-3.5 18h44l2.5 -12t12 -28t29.5 -28t54 -12q35 0 55 12t29 28t12 28l3 12h44l-3.5 -18t-17 -42t-42.5 -42.5t-80 -18.5zM307 540q59 0 97.5 -21.5t60.5 -49t32 -45.5h4v106h55v-530h-55v106h-4q-10 -18 -32 -45.5t-60.5 -49t-97.5 -21.5q-60 0 -104.5 23.5t-74.5 62.5
t-45 88.5t-15 100.5t15 100t45 88.5t74.5 63t104.5 23.5zM313 490q-64 0 -106 -33t-63 -84.5t-21 -107.5t21 -107.5t63 -84.5t106 -33q63 0 105 33t63 84.5t21 107.5t-21 107.5t-63 84.5t-105 33z" />
    <glyph glyph-name="uni1EB4" unicode="&#x1eb4;" horiz-adv-x="681" 
d="M403 987q-24 0 -40.5 11.5t-29 26.5t-25 26.5t-27.5 11.5q-19 0 -27 -19t-8 -52h-41q0 45 16.5 79t57.5 34q25 0 42 -11.5t29.5 -26.5t24 -26.5t26.5 -11.5q17 0 25 19t8 52h42q0 -44 -16.5 -78.5t-56.5 -34.5zM341 820q-51 0 -80 18.5t-42.5 42.5t-17 42l-3.5 18h44
l3 -12t12 -28t29 -28t55 -12q34 0 54 12t29.5 28t12 28l2.5 12h44l-3.5 -18t-16.5 -42t-42 -42.5t-80 -18.5zM42 0l265 740h67l266 -740h-60l-73 206h-333l-73 -206h-59zM192 256h298l-149 418z" />
    <glyph glyph-name="uni1EB5" unicode="&#x1eb5;" horiz-adv-x="629" 
d="M377 777q-24 0 -40.5 11.5t-29 26.5t-24.5 26.5t-28 11.5q-18 0 -26 -19t-8 -52h-42q0 45 16.5 79t57.5 34q25 0 42 -11.5t29.5 -26.5t24.5 -26.5t26 -11.5q18 0 26 19t8 52h41q0 -45 -16.5 -79t-56.5 -34zM315 610q-51 0 -80 18.5t-42.5 42.5t-17 42l-3.5 18h45l2.5 -12
t12 -28t29.5 -28t54 -12q35 0 54.5 12t29 28t12 28l2.5 12h45l-3.5 -18t-17 -42t-42.5 -42.5t-80 -18.5zM307 540q59 0 97.5 -21.5t60.5 -49t32 -45.5h4v106h55v-530h-55v106h-4q-10 -18 -32 -45.5t-60.5 -49t-97.5 -21.5q-60 0 -104.5 23.5t-74.5 62.5t-45 88.5t-15 100.5
t15 100t45 88.5t74.5 63t104.5 23.5zM313 490q-64 0 -106 -33t-63 -84.5t-21 -107.5t21 -107.5t63 -84.5t106 -33q63 0 105 33t63 84.5t21 107.5t-21 107.5t-63 84.5t-105 33z" />
    <glyph glyph-name="uni1EB6" unicode="&#x1eb6;" horiz-adv-x="681" 
d="M341 820q-51 0 -80 18.5t-42.5 42.5t-17 42l-3.5 18h44l3 -12t12 -28t29 -28t55 -12q34 0 54 12t29.5 28t12 28l2.5 12h44l-3.5 -18t-16.5 -42t-42 -42.5t-80 -18.5zM42 0l265 740h67l266 -740h-60l-73 206h-333l-73 -206h-59zM192 256h298l-149 418zM340 -204
q-20 0 -33 14t-13 33t13 33t33 14t33.5 -14t13.5 -33t-13.5 -33t-33.5 -14z" />
    <glyph glyph-name="uni1EB7" unicode="&#x1eb7;" horiz-adv-x="629" 
d="M315 610q-42 0 -69 14t-42.5 34.5t-22 41t-8 34.5l-1.5 14h45l2 -14.5t11 -33.5t29 -33.5t56 -14.5t56 14.5t29 33.5t11 33.5l2 14.5h45l-1.5 -14t-8 -34.5t-22 -41t-42 -34.5t-69.5 -14zM307 540q59 0 97.5 -21.5t60.5 -49t32 -45.5h4v106h55v-530h-55v106h-4
q-10 -18 -32 -45.5t-60.5 -49t-97.5 -21.5q-60 0 -104.5 23.5t-74.5 62.5t-45 88.5t-15 100.5t15 100t45 88.5t74.5 63t104.5 23.5zM313 490q-64 0 -106 -33t-63 -84.5t-21 -107.5t21 -107.5t63 -84.5t106 -33q63 0 105 33t63 84.5t21 107.5t-21 107.5t-63 84.5t-105 33z
M314 -204q-20 0 -33 14t-13 33t13 33t33 14t33.5 -14t13.5 -33t-13.5 -33t-33.5 -14z" />
    <glyph glyph-name="uni1EB8" unicode="&#x1eb8;" horiz-adv-x="602" 
d="M90 0v740h435v-51h-379v-285h331v-51h-331v-302h384v-51h-440zM306 -204q-20 0 -33 14t-13 33t13 33t33 14t33.5 -14t13.5 -33t-13.5 -33t-33.5 -14z" />
    <glyph glyph-name="uni1EB9" unicode="&#x1eb9;" horiz-adv-x="600" 
d="M311 -10q-63 0 -109 24t-75.5 64t-44 88.5t-14.5 98.5t14.5 99t44 89t74.5 63.5t106 23.5q66 0 116.5 -30.5t79 -91t28.5 -150.5v-16h-406q1 -57 23.5 -105.5t63.5 -77.5t99 -29q49 0 80.5 17t48.5 39.5t24 40l7 17.5h53l-5 -16.5t-18 -41t-37 -49t-61 -41t-92 -16.5z
M126 298h350q-3 71 -27.5 113t-61.5 60.5t-80 18.5q-79 0 -126.5 -53t-54.5 -139zM307 -204q-20 0 -33.5 14t-13.5 33t13.5 33t33.5 14q19 0 33 -14t14 -33t-14 -33t-33 -14z" />
    <glyph glyph-name="uni1EBA" unicode="&#x1eba;" horiz-adv-x="602" 
d="M289 814v32q0 8 3.5 15t11.5 11l13 7q22 11 34.5 24.5t12.5 31.5q0 15 -11.5 28.5t-38.5 13.5q-31 0 -40.5 -16.5t-9.5 -30.5h-41q-1 35 22.5 60t68.5 25q43 0 68 -22.5t25 -56.5q0 -24 -17 -46.5t-59 -42.5l-2 -1v-32h-40zM90 0v740h435v-51h-379v-285h331v-51h-331
v-302h384v-51h-440z" />
    <glyph glyph-name="uni1EBB" unicode="&#x1ebb;" horiz-adv-x="600" 
d="M289 603v32q0 9 3.5 16t11.5 11l13 6q22 11 34 25t12 32q0 14 -11 27.5t-38 13.5q-31 0 -40.5 -16t-9.5 -31h-42q0 36 23.5 60.5t68.5 24.5q43 0 67.5 -22.5t24.5 -55.5q0 -24 -17 -47t-58 -42l-2 -1v-33h-40zM311 -10q-63 0 -109 24t-75.5 64t-44 88.5t-14.5 98.5
t14.5 99t44 89t74.5 63.5t106 23.5q66 0 116.5 -30.5t79 -91t28.5 -150.5v-16h-406q1 -57 23.5 -105.5t63.5 -77.5t99 -29q49 0 80.5 17t48.5 39.5t24 40l7 17.5h53l-5 -16.5t-18 -41t-37 -49t-61 -41t-92 -16.5zM126 298h350q-3 71 -27.5 113t-61.5 60.5t-80 18.5
q-79 0 -126.5 -53t-54.5 -139z" />
    <glyph glyph-name="uni1EBC" unicode="&#x1ebc;" horiz-adv-x="602" 
d="M370 830q-24 0 -40.5 11.5t-29 26.5t-24.5 26.5t-27 11.5q-19 0 -27 -19t-8 -52h-41q0 45 16 79t58 34q25 0 42 -11.5t29.5 -26.5t24 -26.5t25.5 -11.5q18 0 26 19t8 52h41q0 -45 -16.5 -79t-56.5 -34zM90 0v740h435v-51h-379v-285h331v-51h-331v-302h384v-51h-440z" />
    <glyph glyph-name="uni1EBD" unicode="&#x1ebd;" horiz-adv-x="600" 
d="M370 619q-24 0 -40.5 11.5t-29 26.5t-24.5 26.5t-28 11.5q-18 0 -26 -18.5t-8 -51.5h-42q0 44 16.5 78.5t57.5 34.5q25 0 42 -11.5t29.5 -26.5t24.5 -26.5t26 -11.5q18 0 26 19t8 52h41q0 -45 -16.5 -79.5t-56.5 -34.5zM311 -10q-63 0 -109 24t-75.5 64t-44 88.5
t-14.5 98.5t14.5 99t44 89t74.5 63.5t106 23.5q66 0 116.5 -30.5t79 -91t28.5 -150.5v-16h-406q1 -57 23.5 -105.5t63.5 -77.5t99 -29q49 0 80.5 17t48.5 39.5t24 40l7 17.5h53l-5 -16.5t-18 -41t-37 -49t-61 -41t-92 -16.5zM126 298h350q-3 71 -27.5 113t-61.5 60.5
t-80 18.5q-79 0 -126.5 -53t-54.5 -139z" />
    <glyph glyph-name="uni1EBE" unicode="&#x1ebe;" horiz-adv-x="602" 
d="M476 939l-50 1l86 161h60zM169 817l115 141h51l115 -141h-54l-86 107l-87 -107h-54zM90 0v740h435v-51h-379v-285h331v-51h-331v-302h384v-51h-440z" />
    <glyph glyph-name="uni1EBF" unicode="&#x1ebf;" horiz-adv-x="600" 
d="M476 729h-50l85 162h60zM169 607l114 141h52l114 -141h-53l-87 107l-87 -107h-53zM311 -10q-63 0 -109 24t-75.5 64t-44 88.5t-14.5 98.5t14.5 99t44 89t74.5 63.5t106 23.5q66 0 116.5 -30.5t79 -91t28.5 -150.5v-16h-406q1 -57 23.5 -105.5t63.5 -77.5t99 -29
q49 0 80.5 17t48.5 39.5t24 40l7 17.5h53l-5 -16.5t-18 -41t-37 -49t-61 -41t-92 -16.5zM126 298h350q-3 71 -27.5 113t-61.5 60.5t-80 18.5q-79 0 -126.5 -53t-54.5 -139z" />
    <glyph glyph-name="uni1EC0" unicode="&#x1ec0;" horiz-adv-x="602" 
d="M438 939l-96 162h60l86 -161zM168 817l114 141h52l114 -141h-53l-87 107l-87 -107h-53zM90 0v740h435v-51h-379v-285h331v-51h-331v-302h384v-51h-440z" />
    <glyph glyph-name="uni1EC1" unicode="&#x1ec1;" horiz-adv-x="600" 
d="M438 729l-96 162h60l85 -162h-49zM168 607l114 141h52l114 -141h-53l-87 107l-87 -107h-53zM311 -10q-63 0 -109 24t-75.5 64t-44 88.5t-14.5 98.5t14.5 99t44 89t74.5 63.5t106 23.5q66 0 116.5 -30.5t79 -91t28.5 -150.5v-16h-406q1 -57 23.5 -105.5t63.5 -77.5t99 -29
q49 0 80.5 17t48.5 39.5t24 40l7 17.5h53l-5 -16.5t-18 -41t-37 -49t-61 -41t-92 -16.5zM126 298h350q-3 71 -27.5 113t-61.5 60.5t-80 18.5q-79 0 -126.5 -53t-54.5 -139z" />
    <glyph glyph-name="uni1EC2" unicode="&#x1ec2;" horiz-adv-x="602" 
d="M428 928v32q0 8 3.5 15t11.5 11l13 7q22 11 34.5 24.5t12.5 31.5q0 14 -11.5 28t-38.5 14q-31 0 -40.5 -16.5t-9.5 -30.5h-41q-1 35 22.5 60t68.5 25q43 0 68 -22.5t25 -56.5q0 -24 -17 -46.5t-59 -42.5l-2 -1v-32h-40zM168 817l114 141h52l114 -141h-53l-87 107
l-87 -107h-53zM90 0v740h435v-51h-379v-285h331v-51h-331v-302h384v-51h-440z" />
    <glyph glyph-name="uni1EC3" unicode="&#x1ec3;" horiz-adv-x="600" 
d="M428 717v32q0 9 3.5 16t11.5 11l13 6q22 11 34 25t12 32q0 14 -11 27.5t-38 13.5q-31 0 -40.5 -16t-9.5 -31h-42q0 36 23.5 60.5t68.5 24.5q43 0 67.5 -22.5t24.5 -55.5q0 -24 -16.5 -47t-58.5 -42l-2 -1v-33h-40zM168 607l114 141h52l114 -141h-53l-87 107l-87 -107h-53
zM311 -10q-63 0 -109 24t-75.5 64t-44 88.5t-14.5 98.5t14.5 99t44 89t74.5 63.5t106 23.5q66 0 116.5 -30.5t79 -91t28.5 -150.5v-16h-406q1 -57 23.5 -105.5t63.5 -77.5t99 -29q49 0 80.5 17t48.5 39.5t24 40l7 17.5h53l-5 -16.5t-18 -41t-37 -49t-61 -41t-92 -16.5z
M126 298h350q-3 71 -27.5 113t-61.5 60.5t-80 18.5q-79 0 -126.5 -53t-54.5 -139z" />
    <glyph glyph-name="uni1EC4" unicode="&#x1ec4;" horiz-adv-x="602" 
d="M370 998q-24 0 -40.5 11.5t-29 26.5t-24.5 26.5t-27 11.5q-19 0 -27 -19t-8 -52h-41q0 45 16 79t58 34q25 0 42 -11.5t29.5 -26t24 -26t25.5 -11.5q18 0 26 19t8 51h41q0 -44 -16.5 -78.5t-56.5 -34.5zM168 817l114 141h52l114 -141h-53l-87 107l-87 -107h-53zM90 0v740
h435v-51h-379v-285h331v-51h-331v-302h384v-51h-440z" />
    <glyph glyph-name="uni1EC5" unicode="&#x1ec5;" horiz-adv-x="600" 
d="M370 788q-24 0 -40.5 11.5t-29 26.5t-24.5 26.5t-28 11.5q-18 0 -26 -19t-8 -52h-42q0 45 16.5 79t57.5 34q25 0 42 -11.5t29.5 -26.5t24.5 -26.5t26 -11.5q18 0 26 19t8 52h41q0 -45 -16.5 -79t-56.5 -34zM167 607l115 141h51l115 -141h-54l-86 107l-87 -107h-54z
M311 -10q-63 0 -109 24t-75.5 64t-44 88.5t-14.5 98.5t14.5 99t44 89t74.5 63.5t106 23.5q66 0 116.5 -30.5t79 -91t28.5 -150.5v-16h-406q1 -57 23.5 -105.5t63.5 -77.5t99 -29q49 0 80.5 17t48.5 39.5t24 40l7 17.5h53l-5 -16.5t-18 -41t-37 -49t-61 -41t-92 -16.5z
M126 298h350q-3 71 -27.5 113t-61.5 60.5t-80 18.5q-79 0 -126.5 -53t-54.5 -139z" />
    <glyph glyph-name="uni1EC6" unicode="&#x1ec6;" horiz-adv-x="602" 
d="M168 817l114 141h52l114 -141h-53l-87 107l-87 -107h-53zM90 0v740h435v-51h-379v-285h331v-51h-331v-302h384v-51h-440zM306 -204q-20 0 -33 14t-13 33t13 33t33 14t33.5 -14t13.5 -33t-13.5 -33t-33.5 -14z" />
    <glyph glyph-name="uni1EC7" unicode="&#x1ec7;" horiz-adv-x="600" 
d="M168 607l114 157h52l114 -157h-53l-87 118l-87 -118h-53zM311 -10q-63 0 -109 24t-75.5 64t-44 88.5t-14.5 98.5t14.5 99t44 89t74.5 63.5t106 23.5q66 0 116.5 -30.5t79 -91t28.5 -150.5v-16h-406q1 -57 23.5 -105.5t63.5 -77.5t99 -29q49 0 80.5 17t48.5 39.5t24 40
l7 17.5h53l-5 -16.5t-18 -41t-37 -49t-61 -41t-92 -16.5zM126 298h350q-3 71 -27.5 113t-61.5 60.5t-80 18.5q-79 0 -126.5 -53t-54.5 -139zM307 -204q-20 0 -33.5 14t-13.5 33t13.5 33t33.5 14q19 0 33 -14t14 -33t-14 -33t-33 -14z" />
    <glyph glyph-name="uni1EC8" unicode="&#x1ec8;" horiz-adv-x="236" 
d="M100 814v32q0 8 3.5 15t11.5 11l13 7q22 11 34 24.5t12 31.5q0 15 -11 28.5t-38 13.5q-31 0 -40.5 -16.5t-9.5 -30.5h-42q0 35 23.5 60t68.5 25q43 0 67.5 -22.5t24.5 -56.5q0 -24 -16.5 -46.5t-58.5 -42.5l-2 -1v-32h-40zM90 0v740h56v-740h-56z" />
    <glyph glyph-name="uni1EC9" unicode="&#x1ec9;" horiz-adv-x="236" 
d="M99 604v32q0 8 3.5 15t12.5 11l12 7q22 11 34.5 24.5t12.5 31.5q0 15 -11 28.5t-38 13.5q-31 0 -41 -16.5t-10 -30.5h-41q0 35 23.5 60t67.5 25q43 0 68 -22.5t25 -56.5q0 -24 -17 -46.5t-58 -42.5l-2 -1v-32h-41zM91 0v530h54v-530h-54z" />
    <glyph glyph-name="uni1ECA" unicode="&#x1eca;" horiz-adv-x="236" 
d="M90 0v740h56v-740h-56zM118 -204q-20 0 -33.5 14t-13.5 33t13.5 33t33.5 14q19 0 33 -14t14 -33t-14 -33t-33 -14z" />
    <glyph glyph-name="uni1ECB" unicode="&#x1ecb;" horiz-adv-x="236" 
d="M117 634q-19 0 -31.5 13t-12.5 31t12.5 31.5t31.5 13.5t32 -13.5t13 -31.5t-13 -31t-32 -13zM91 0v530h54v-530h-54zM117 -204q-20 0 -33 14t-13 33t13 33t33 14t33.5 -14t13.5 -33t-13.5 -33t-33.5 -14z" />
    <glyph glyph-name="uni1ECC" unicode="&#x1ecc;" horiz-adv-x="817" 
d="M408 -10q-86 0 -151.5 32.5t-109.5 87t-66.5 122t-22.5 138.5t22.5 139t66.5 122.5t109.5 86.5t151.5 32t151.5 -32t110 -86.5t66.5 -122.5t22 -139t-22 -138.5t-66.5 -122t-110 -87t-151.5 -32.5zM408 43q80 0 146.5 39.5t106.5 113t40 174.5q0 102 -40 175
t-106.5 112.5t-146.5 39.5q-79 0 -145.5 -39.5t-106.5 -112.5t-40 -175q0 -101 40 -174.5t106.5 -113t145.5 -39.5zM408 -204q-20 0 -33.5 14t-13.5 33t13.5 33t33.5 14q19 0 33 -14t14 -33t-14 -33t-33 -14z" />
    <glyph glyph-name="uni1ECD" unicode="&#x1ecd;" 
d="M319 -10q-63 0 -109.5 23t-78 62.5t-47.5 88.5t-16 101t16 101t47.5 88.5t78 62.5t109.5 23q62 0 109 -23t78 -62.5t47 -88.5t16 -101t-16 -101t-47 -88.5t-78 -62.5t-109 -23zM319 40q64 0 107.5 32.5t65 84t21.5 108.5t-21.5 108.5t-65 84t-107.5 32.5
q-65 0 -108 -32.5t-65 -84t-22 -108.5t22 -108.5t65 -84t108 -32.5zM318 -204q-20 0 -33 14t-13 33t13 33t33 14t33.5 -14t13.5 -33t-13.5 -33t-33.5 -14z" />
    <glyph glyph-name="uni1ECE" unicode="&#x1ece;" horiz-adv-x="817" 
d="M390 824v32q0 8 3.5 15t11.5 11l13 7q22 11 34 24.5t12 31.5q0 15 -11 28.5t-38 13.5q-31 0 -40.5 -16.5t-9.5 -30.5h-42q0 35 23.5 60t68.5 25q43 0 67.5 -22.5t24.5 -56.5q0 -24 -17 -46.5t-58 -42.5l-2 -1v-32h-40zM408 -10q-86 0 -151.5 32.5t-109.5 87t-66.5 122
t-22.5 138.5t22.5 139t66.5 122.5t109.5 86.5t151.5 32t151.5 -32t110 -86.5t66.5 -122.5t22 -139t-22 -138.5t-66.5 -122t-110 -87t-151.5 -32.5zM408 43q80 0 146.5 39.5t106.5 113t40 174.5q0 102 -40 175t-106.5 112.5t-146.5 39.5q-79 0 -145.5 -39.5t-106.5 -112.5
t-40 -175q0 -101 40 -174.5t106.5 -113t145.5 -39.5z" />
    <glyph glyph-name="uni1ECF" unicode="&#x1ecf;" 
d="M300 604v32q0 8 3.5 15.5t11.5 11.5l13 6q22 11 34 25t12 31q0 15 -11 28.5t-38 13.5q-31 0 -40.5 -16.5t-9.5 -30.5h-42q0 36 23.5 60.5t68.5 24.5q43 0 67.5 -22.5t24.5 -55.5q0 -25 -17 -47.5t-58 -41.5l-2 -1v-33h-40zM319 -10q-63 0 -109.5 23t-78 62.5t-47.5 88.5
t-16 101t16 101t47.5 88.5t78 62.5t109.5 23q62 0 109 -23t78 -62.5t47 -88.5t16 -101t-16 -101t-47 -88.5t-78 -62.5t-109 -23zM319 40q64 0 107.5 32.5t65 84t21.5 108.5t-21.5 108.5t-65 84t-107.5 32.5q-65 0 -108 -32.5t-65 -84t-22 -108.5t22 -108.5t65 -84t108 -32.5
z" />
    <glyph glyph-name="uni1ED0" unicode="&#x1ed0;" horiz-adv-x="817" 
d="M577 949l-50 1l85 161h60zM270 827l114 141h52l114 -141h-53l-87 107l-87 -107h-53zM408 -10q-86 0 -151.5 32.5t-109.5 87t-66.5 122t-22.5 138.5t22.5 139t66.5 122.5t109.5 86.5t151.5 32t151.5 -32t110 -86.5t66.5 -122.5t22 -139t-22 -138.5t-66.5 -122t-110 -87
t-151.5 -32.5zM408 43q80 0 146.5 39.5t106.5 113t40 174.5q0 102 -40 175t-106.5 112.5t-146.5 39.5q-79 0 -145.5 -39.5t-106.5 -112.5t-40 -175q0 -101 40 -174.5t106.5 -113t145.5 -39.5z" />
    <glyph glyph-name="uni1ED1" unicode="&#x1ed1;" 
d="M487 730h-50l85 161h60zM180 608l114 141h52l114 -141h-53l-87 106l-87 -106h-53zM319 -10q-63 0 -109.5 23t-78 62.5t-47.5 88.5t-16 101t16 101t47.5 88.5t78 62.5t109.5 23q62 0 109 -23t78 -62.5t47 -88.5t16 -101t-16 -101t-47 -88.5t-78 -62.5t-109 -23zM319 40
q64 0 107.5 32.5t65 84t21.5 108.5t-21.5 108.5t-65 84t-107.5 32.5q-65 0 -108 -32.5t-65 -84t-22 -108.5t22 -108.5t65 -84t108 -32.5z" />
    <glyph glyph-name="uni1ED2" unicode="&#x1ed2;" horiz-adv-x="817" 
d="M539 949l-96 162h60l85 -161zM269 827l114 141h52l114 -141h-53l-87 107l-87 -107h-53zM408 -10q-86 0 -151.5 32.5t-109.5 87t-66.5 122t-22.5 138.5t22.5 139t66.5 122.5t109.5 86.5t151.5 32t151.5 -32t110 -86.5t66.5 -122.5t22 -139t-22 -138.5t-66.5 -122t-110 -87
t-151.5 -32.5zM408 43q80 0 146.5 39.5t106.5 113t40 174.5q0 102 -40 175t-106.5 112.5t-146.5 39.5q-79 0 -145.5 -39.5t-106.5 -112.5t-40 -175q0 -101 40 -174.5t106.5 -113t145.5 -39.5z" />
    <glyph glyph-name="uni1ED3" unicode="&#x1ed3;" 
d="M449 730l-96 161h60l85 -161h-49zM179 608l114 141h52l114 -141h-53l-87 106l-87 -106h-53zM319 -10q-63 0 -109.5 23t-78 62.5t-47.5 88.5t-16 101t16 101t47.5 88.5t78 62.5t109.5 23q62 0 109 -23t78 -62.5t47 -88.5t16 -101t-16 -101t-47 -88.5t-78 -62.5t-109 -23z
M319 40q64 0 107.5 32.5t65 84t21.5 108.5t-21.5 108.5t-65 84t-107.5 32.5q-65 0 -108 -32.5t-65 -84t-22 -108.5t22 -108.5t65 -84t108 -32.5z" />
    <glyph glyph-name="uni1ED4" unicode="&#x1ed4;" horiz-adv-x="817" 
d="M529 938v32q0 8 3 15t12 11l13 7q22 11 34 24.5t12 31.5q0 14 -11 28t-38 14q-31 0 -40.5 -16.5t-9.5 -30.5h-42q0 35 23.5 60t68.5 25q43 0 67.5 -22.5t24.5 -56.5q0 -24 -16.5 -46.5t-58.5 -42.5l-2 -1v-32h-40zM269 827l114 141h52l114 -141h-53l-87 107l-87 -107h-53
zM408 -10q-86 0 -151.5 32.5t-109.5 87t-66.5 122t-22.5 138.5t22.5 139t66.5 122.5t109.5 86.5t151.5 32t151.5 -32t110 -86.5t66.5 -122.5t22 -139t-22 -138.5t-66.5 -122t-110 -87t-151.5 -32.5zM408 43q80 0 146.5 39.5t106.5 113t40 174.5q0 102 -40 175t-106.5 112.5
t-146.5 39.5q-79 0 -145.5 -39.5t-106.5 -112.5t-40 -175q0 -101 40 -174.5t106.5 -113t145.5 -39.5z" />
    <glyph glyph-name="uni1ED5" unicode="&#x1ed5;" 
d="M439 718v32q0 8 3.5 15.5t11.5 11.5l13 6q22 11 34 25t12 31q0 15 -11 28.5t-38 13.5q-31 0 -40.5 -16.5t-9.5 -30.5h-42q0 36 23.5 60.5t68.5 24.5q43 0 67.5 -22.5t24.5 -55.5q0 -25 -16.5 -47.5t-58.5 -41.5l-2 -1v-33h-40zM179 608l114 141h52l114 -141h-53l-87 106
l-87 -106h-53zM319 -10q-63 0 -109.5 23t-78 62.5t-47.5 88.5t-16 101t16 101t47.5 88.5t78 62.5t109.5 23q62 0 109 -23t78 -62.5t47 -88.5t16 -101t-16 -101t-47 -88.5t-78 -62.5t-109 -23zM319 40q64 0 107.5 32.5t65 84t21.5 108.5t-21.5 108.5t-65 84t-107.5 32.5
q-65 0 -108 -32.5t-65 -84t-22 -108.5t22 -108.5t65 -84t108 -32.5z" />
    <glyph glyph-name="uni1ED6" unicode="&#x1ed6;" horiz-adv-x="817" 
d="M471 1008q-24 0 -40.5 11.5t-29 26.5t-24.5 26.5t-28 11.5q-18 0 -26 -19t-8 -52h-42q0 45 16.5 79t57.5 34q25 0 42 -11.5t29.5 -26t24.5 -26t26 -11.5q18 0 26 19t8 51h41q0 -44 -16.5 -78.5t-56.5 -34.5zM268 827l115 141h51l115 -141h-54l-86 107l-87 -107h-54z
M408 -10q-86 0 -151.5 32.5t-109.5 87t-66.5 122t-22.5 138.5t22.5 139t66.5 122.5t109.5 86.5t151.5 32t151.5 -32t110 -86.5t66.5 -122.5t22 -139t-22 -138.5t-66.5 -122t-110 -87t-151.5 -32.5zM408 43q80 0 146.5 39.5t106.5 113t40 174.5q0 102 -40 175t-106.5 112.5
t-146.5 39.5q-79 0 -145.5 -39.5t-106.5 -112.5t-40 -175q0 -101 40 -174.5t106.5 -113t145.5 -39.5z" />
    <glyph glyph-name="uni1ED7" unicode="&#x1ed7;" 
d="M381 788q-24 0 -40.5 11.5t-29 26.5t-24.5 26.5t-28 11.5q-18 0 -26 -18.5t-8 -51.5h-42q0 44 16.5 78.5t57.5 34.5q25 0 42 -11.5t29.5 -26.5t24.5 -26.5t26 -11.5q18 0 26 19t8 52h41q0 -45 -16.5 -79.5t-56.5 -34.5zM178 608l115 141h51l115 -141h-54l-86 106
l-87 -106h-54zM319 -10q-63 0 -109.5 23t-78 62.5t-47.5 88.5t-16 101t16 101t47.5 88.5t78 62.5t109.5 23q62 0 109 -23t78 -62.5t47 -88.5t16 -101t-16 -101t-47 -88.5t-78 -62.5t-109 -23zM319 40q64 0 107.5 32.5t65 84t21.5 108.5t-21.5 108.5t-65 84t-107.5 32.5
q-65 0 -108 -32.5t-65 -84t-22 -108.5t22 -108.5t65 -84t108 -32.5z" />
    <glyph glyph-name="uni1ED8" unicode="&#x1ed8;" horiz-adv-x="817" 
d="M269 827l114 141h52l114 -141h-53l-87 107l-87 -107h-53zM408 -10q-86 0 -151.5 32.5t-109.5 87t-66.5 122t-22.5 138.5t22.5 139t66.5 122.5t109.5 86.5t151.5 32t151.5 -32t110 -86.5t66.5 -122.5t22 -139t-22 -138.5t-66.5 -122t-110 -87t-151.5 -32.5zM408 43
q80 0 146.5 39.5t106.5 113t40 174.5q0 102 -40 175t-106.5 112.5t-146.5 39.5q-79 0 -145.5 -39.5t-106.5 -112.5t-40 -175q0 -101 40 -174.5t106.5 -113t145.5 -39.5zM408 -204q-20 0 -33.5 14t-13.5 33t13.5 33t33.5 14q19 0 33 -14t14 -33t-14 -33t-33 -14z" />
    <glyph glyph-name="uni1ED9" unicode="&#x1ed9;" 
d="M179 608l114 157h52l114 -157h-53l-87 118l-87 -118h-53zM319 -10q-63 0 -109.5 23t-78 62.5t-47.5 88.5t-16 101t16 101t47.5 88.5t78 62.5t109.5 23q62 0 109 -23t78 -62.5t47 -88.5t16 -101t-16 -101t-47 -88.5t-78 -62.5t-109 -23zM319 40q64 0 107.5 32.5t65 84
t21.5 108.5t-21.5 108.5t-65 84t-107.5 32.5q-65 0 -108 -32.5t-65 -84t-22 -108.5t22 -108.5t65 -84t108 -32.5zM318 -204q-20 0 -33 14t-13 33t13 33t33 14t33.5 -14t13.5 -33t-13.5 -33t-33.5 -14z" />
    <glyph glyph-name="uni1EDA" unicode="&#x1eda;" horiz-adv-x="817" 
d="M435 825l-50 1l86 161h60zM408 -10q-86 0 -151.5 32.5t-109.5 87t-66.5 122t-22.5 138.5t22.5 139t66.5 122.5t109.5 86.5t151.5 32q12 0 23 -1h125q55 0 55 58v36h53v-36q0 -44 -21.5 -70t-63.5 -29q59 -34 99 -87.5t60 -118t20 -132.5q0 -71 -22 -138.5t-66.5 -122
t-110 -87t-151.5 -32.5zM408 43q80 0 146.5 39.5t106.5 113t40 174.5q0 102 -40 175t-106.5 112.5t-146.5 39.5q-79 0 -145.5 -39.5t-106.5 -112.5t-40 -175q0 -101 40 -174.5t106.5 -113t145.5 -39.5z" />
    <glyph glyph-name="uni1EDB" unicode="&#x1edb;" 
d="M342 615l-50 1l86 161h60zM319 -10q-63 0 -109.5 23t-78 62.5t-47.5 88.5t-16 101t16 101t47.5 88.5t78 62.5t109.5 23h116q53 0 53 53v41h50v-41q0 -41 -20.5 -65t-61.5 -27q56 -38 84.5 -102t28.5 -134q0 -52 -16 -101t-47 -88.5t-78 -62.5t-109 -23zM319 40
q64 0 107.5 32.5t65 84t21.5 108.5t-21.5 108.5t-65 84t-107.5 32.5q-65 0 -108 -32.5t-65 -84t-22 -108.5t22 -108.5t65 -84t108 -32.5z" />
    <glyph glyph-name="uni1EDC" unicode="&#x1edc;" horiz-adv-x="817" 
d="M382 825l-96 162h60l85 -161zM408 -10q-86 0 -151.5 32.5t-109.5 87t-66.5 122t-22.5 138.5t22.5 139t66.5 122.5t109.5 86.5t151.5 32q12 0 23 -1h125q55 0 55 58v36h53v-36q0 -44 -21.5 -70t-63.5 -29q59 -34 99 -87.5t60 -118t20 -132.5q0 -71 -22 -138.5t-66.5 -122
t-110 -87t-151.5 -32.5zM408 43q80 0 146.5 39.5t106.5 113t40 174.5q0 102 -40 175t-106.5 112.5t-146.5 39.5q-79 0 -145.5 -39.5t-106.5 -112.5t-40 -175q0 -101 40 -174.5t106.5 -113t145.5 -39.5z" />
    <glyph glyph-name="uni1EDD" unicode="&#x1edd;" 
d="M289 615l-96 162h60l85 -161zM319 -10q-63 0 -109.5 23t-78 62.5t-47.5 88.5t-16 101t16 101t47.5 88.5t78 62.5t109.5 23h116q53 0 53 53v41h50v-41q0 -41 -20.5 -65t-61.5 -27q56 -38 84.5 -102t28.5 -134q0 -52 -16 -101t-47 -88.5t-78 -62.5t-109 -23zM319 40
q64 0 107.5 32.5t65 84t21.5 108.5t-21.5 108.5t-65 84t-107.5 32.5q-65 0 -108 -32.5t-65 -84t-22 -108.5t22 -108.5t65 -84t108 -32.5z" />
    <glyph glyph-name="uni1EDE" unicode="&#x1ede;" horiz-adv-x="817" 
d="M388 814v32q0 8 3.5 15t12.5 11l12 7q22 11 34.5 24.5t12.5 31.5q0 15 -11 28.5t-38 13.5q-31 0 -41 -16.5t-10 -30.5h-41q0 35 23.5 60t67.5 25q43 0 68 -22.5t25 -56.5q0 -24 -17 -46.5t-58 -42.5l-2 -1v-32h-41zM408 -10q-86 0 -151.5 32.5t-109.5 87t-66.5 122
t-22.5 138.5t22.5 139t66.5 122.5t109.5 86.5t151.5 32q12 0 23 -1h125q55 0 55 58v36h53v-36q0 -44 -21.5 -70t-63.5 -29q59 -34 99 -87.5t60 -118t20 -132.5q0 -71 -22 -138.5t-66.5 -122t-110 -87t-151.5 -32.5zM408 43q80 0 146.5 39.5t106.5 113t40 174.5
q0 102 -40 175t-106.5 112.5t-146.5 39.5q-79 0 -145.5 -39.5t-106.5 -112.5t-40 -175q0 -101 40 -174.5t106.5 -113t145.5 -39.5z" />
    <glyph glyph-name="uni1EDF" unicode="&#x1edf;" 
d="M295 604v32q0 8 3.5 15t12.5 11l12 7q22 11 34.5 24.5t12.5 31.5q0 15 -11 28.5t-38 13.5q-31 0 -41 -16.5t-10 -30.5h-41q0 35 23.5 60t67.5 25q43 0 68 -22.5t25 -56.5q0 -24 -17 -46.5t-58 -42.5l-2 -1v-32h-41zM319 -10q-63 0 -109.5 23t-78 62.5t-47.5 88.5t-16 101
t16 101t47.5 88.5t78 62.5t109.5 23h116q53 0 53 53v41h50v-41q0 -41 -20.5 -65t-61.5 -27q56 -38 84.5 -102t28.5 -134q0 -52 -16 -101t-47 -88.5t-78 -62.5t-109 -23zM319 40q64 0 107.5 32.5t65 84t21.5 108.5t-21.5 108.5t-65 84t-107.5 32.5q-65 0 -108 -32.5t-65 -84
t-22 -108.5t22 -108.5t65 -84t108 -32.5z" />
    <glyph glyph-name="uni1EE0" unicode="&#x1ee0;" horiz-adv-x="817" 
d="M470 830q-24 0 -40.5 11.5t-29 26.5t-25 26.5t-27.5 11.5q-19 0 -27 -19t-8 -52h-41q0 45 16.5 79t57.5 34q25 0 42 -11.5t29.5 -26.5t24 -26.5t26.5 -11.5q17 0 25 19t8 52h42q0 -45 -16.5 -79t-56.5 -34zM408 -10q-86 0 -151.5 32.5t-109.5 87t-66.5 122t-22.5 138.5
t22.5 139t66.5 122.5t109.5 86.5t151.5 32q12 0 23 -1h125q55 0 55 58v36h53v-36q0 -44 -21.5 -70t-63.5 -29q59 -34 99 -87.5t60 -118t20 -132.5q0 -71 -22 -138.5t-66.5 -122t-110 -87t-151.5 -32.5zM408 43q80 0 146.5 39.5t106.5 113t40 174.5q0 102 -40 175
t-106.5 112.5t-146.5 39.5q-79 0 -145.5 -39.5t-106.5 -112.5t-40 -175q0 -101 40 -174.5t106.5 -113t145.5 -39.5z" />
    <glyph glyph-name="uni1EE1" unicode="&#x1ee1;" 
d="M376 620q-24 0 -40 11.5t-28.5 26.5t-25 26.5t-27.5 11.5q-19 0 -27 -19t-8 -52h-40q0 45 16.5 78.5t56.5 33.5q25 0 42 -11.5t29.5 -26.5t24 -26.5t26.5 -11.5q17 0 25 19t8 52h41q0 -44 -16.5 -78t-56.5 -34zM319 -10q-63 0 -109.5 23t-78 62.5t-47.5 88.5t-16 101
t16 101t47.5 88.5t78 62.5t109.5 23h116q53 0 53 53v41h50v-41q0 -41 -20.5 -65t-61.5 -27q56 -38 84.5 -102t28.5 -134q0 -52 -16 -101t-47 -88.5t-78 -62.5t-109 -23zM319 40q64 0 107.5 32.5t65 84t21.5 108.5t-21.5 108.5t-65 84t-107.5 32.5q-65 0 -108 -32.5t-65 -84
t-22 -108.5t22 -108.5t65 -84t108 -32.5z" />
    <glyph glyph-name="uni1EE2" unicode="&#x1ee2;" horiz-adv-x="817" 
d="M408 -10q-86 0 -151.5 32.5t-109.5 87t-66.5 122t-22.5 138.5t22.5 139t66.5 122.5t109.5 86.5t151.5 32q12 0 23 -1h125q55 0 55 58v36h53v-36q0 -44 -21.5 -70t-63.5 -29q59 -34 99 -87.5t60 -118t20 -132.5q0 -71 -22 -138.5t-66.5 -122t-110 -87t-151.5 -32.5z
M408 43q80 0 146.5 39.5t106.5 113t40 174.5q0 102 -40 175t-106.5 112.5t-146.5 39.5q-79 0 -145.5 -39.5t-106.5 -112.5t-40 -175q0 -101 40 -174.5t106.5 -113t145.5 -39.5zM406 -204q-20 0 -33 14t-13 33t13 33t33 14t33.5 -14t13.5 -33t-13.5 -33t-33.5 -14z" />
    <glyph glyph-name="uni1EE3" unicode="&#x1ee3;" 
d="M319 -10q-63 0 -109.5 23t-78 62.5t-47.5 88.5t-16 101t16 101t47.5 88.5t78 62.5t109.5 23h116q53 0 53 53v41h50v-41q0 -41 -20.5 -65t-61.5 -27q56 -38 84.5 -102t28.5 -134q0 -52 -16 -101t-47 -88.5t-78 -62.5t-109 -23zM319 40q64 0 107.5 32.5t65 84t21.5 108.5
t-21.5 108.5t-65 84t-107.5 32.5q-65 0 -108 -32.5t-65 -84t-22 -108.5t22 -108.5t65 -84t108 -32.5zM313 -204q-20 0 -33 14t-13 33t13 33t33 14t33.5 -14t13.5 -33t-13.5 -33t-33.5 -14z" />
    <glyph glyph-name="uni1EE4" unicode="&#x1ee4;" horiz-adv-x="711" 
d="M355 -10q-90 0 -149 36.5t-87.5 99.5t-28.5 142v472h56v-472q0 -102 52 -163t157 -61q106 0 158 61t52 163v472h56v-472q0 -79 -28.5 -142t-87.5 -99.5t-150 -36.5zM354 -204q-20 0 -33 14t-13 33t13 33t33 14t33.5 -14t13.5 -33t-13.5 -33t-33.5 -14z" />
    <glyph glyph-name="uni1EE5" unicode="&#x1ee5;" horiz-adv-x="569" 
d="M259 -10q-81 0 -127.5 53.5t-46.5 147.5v339h54v-337q0 -74 34 -114t94 -40q59 0 94 32t51 81t16 100v278h54v-530h-54v99h-5q-7 -18 -25.5 -43.5t-52 -45.5t-86.5 -20zM283 -204q-20 0 -33.5 14t-13.5 33t13.5 33t33.5 14q19 0 33 -14t14 -33t-14 -33t-33 -14z" />
    <glyph glyph-name="uni1EE6" unicode="&#x1ee6;" horiz-adv-x="711" 
d="M335 814v32q0 8 3.5 15t12.5 11l12 7q22 11 34.5 24.5t12.5 31.5q0 15 -11 28.5t-38 13.5q-31 0 -41 -16.5t-10 -30.5h-41q0 35 23.5 60t67.5 25q43 0 68 -22.5t25 -56.5q0 -24 -17 -46.5t-58 -42.5l-2 -1v-32h-41zM355 -10q-90 0 -149 36.5t-87.5 99.5t-28.5 142v472h56
v-472q0 -102 52 -163t157 -61q106 0 158 61t52 163v472h56v-472q0 -79 -28.5 -142t-87.5 -99.5t-150 -36.5z" />
    <glyph glyph-name="uni1EE7" unicode="&#x1ee7;" horiz-adv-x="569" 
d="M265 604v32q0 8 3.5 15t11.5 11l13 7q22 11 34 24.5t12 31.5q0 15 -11 28.5t-38 13.5q-31 0 -40.5 -16.5t-9.5 -30.5h-42q0 35 23.5 60t68.5 25q43 0 67.5 -22.5t24.5 -56.5q0 -24 -17 -46.5t-58 -42.5l-2 -1v-32h-40zM259 -10q-81 0 -127.5 53.5t-46.5 147.5v339h54
v-337q0 -74 34 -114t94 -40q59 0 94 32t51 81t16 100v278h54v-530h-54v99h-5q-7 -18 -25.5 -43.5t-52 -45.5t-86.5 -20z" />
    <glyph glyph-name="uni1EE8" unicode="&#x1ee8;" horiz-adv-x="711" 
d="M387 825l-50 1l86 161h60zM355 -10q-90 0 -149 36.5t-87.5 99.5t-28.5 142v472h56v-472q0 -102 52 -163t157 -61q106 0 158 61t52 163v472h51q53 0 53 53v41h52v-41q0 -43 -24 -68.5t-72 -25.5h-4v-431q0 -79 -28.5 -142t-87.5 -99.5t-150 -36.5z" />
    <glyph glyph-name="uni1EE9" unicode="&#x1ee9;" horiz-adv-x="569" 
d="M300 615l-50 1l86 161h60zM259 -10q-81 0 -127.5 53.5t-46.5 147.5v339h54v-337q0 -74 34 -114t94 -40q59 0 94 32t51 81t16 100v278h52q53 0 53 53v41h50v-41q0 -44 -23.5 -68.5t-71.5 -24.5h-6v-490h-54v99h-5q-7 -18 -25.5 -43.5t-52 -45.5t-86.5 -20z" />
    <glyph glyph-name="uni1EEA" unicode="&#x1eea;" horiz-adv-x="711" 
d="M334 825l-96 162h60l85 -161zM355 -10q-90 0 -149 36.5t-87.5 99.5t-28.5 142v472h56v-472q0 -102 52 -163t157 -61q106 0 158 61t52 163v472h51q53 0 53 53v41h52v-41q0 -43 -24 -68.5t-72 -25.5h-4v-431q0 -79 -28.5 -142t-87.5 -99.5t-150 -36.5z" />
    <glyph glyph-name="uni1EEB" unicode="&#x1eeb;" horiz-adv-x="569" 
d="M247 615l-96 162h60l85 -161zM259 -10q-81 0 -127.5 53.5t-46.5 147.5v339h54v-337q0 -74 34 -114t94 -40q59 0 94 32t51 81t16 100v278h52q53 0 53 53v41h50v-41q0 -44 -23.5 -68.5t-71.5 -24.5h-6v-490h-54v99h-5q-7 -18 -25.5 -43.5t-52 -45.5t-86.5 -20z" />
    <glyph glyph-name="uni1EEC" unicode="&#x1eec;" horiz-adv-x="711" 
d="M340 814v32q0 8 3.5 15t12.5 11l12 7q22 11 34.5 24.5t12.5 31.5q0 15 -11 28.5t-38 13.5q-31 0 -41 -16.5t-10 -30.5h-41q0 35 23.5 60t67.5 25q43 0 68 -22.5t25 -56.5q0 -24 -17 -46.5t-58 -42.5l-2 -1v-32h-41zM355 -10q-90 0 -149 36.5t-87.5 99.5t-28.5 142v472h56
v-472q0 -102 52 -163t157 -61q106 0 158 61t52 163v472h51q53 0 53 53v41h52v-41q0 -43 -24 -68.5t-72 -25.5h-4v-431q0 -79 -28.5 -142t-87.5 -99.5t-150 -36.5z" />
    <glyph glyph-name="uni1EED" unicode="&#x1eed;" horiz-adv-x="569" 
d="M253 604v32q0 8 3.5 15t12.5 11l12 7q22 11 34.5 24.5t12.5 31.5q0 15 -11 28.5t-38 13.5q-31 0 -41 -16.5t-10 -30.5h-41q0 35 23.5 60t67.5 25q43 0 68 -22.5t25 -56.5q0 -24 -17 -46.5t-58 -42.5l-2 -1v-32h-41zM259 -10q-81 0 -127.5 53.5t-46.5 147.5v339h54v-337
q0 -74 34 -114t94 -40q59 0 94 32t51 81t16 100v278h52q53 0 53 53v41h50v-41q0 -44 -23.5 -68.5t-71.5 -24.5h-6v-490h-54v99h-5q-7 -18 -25.5 -43.5t-52 -45.5t-86.5 -20z" />
    <glyph glyph-name="uni1EEE" unicode="&#x1eee;" horiz-adv-x="711" 
d="M422 830q-24 0 -40.5 11.5t-29 26.5t-25 26.5t-27.5 11.5q-19 0 -27 -19t-8 -52h-41q0 45 16.5 79t57.5 34q25 0 42 -11.5t29.5 -26.5t24 -26.5t26.5 -11.5q17 0 25 19t8 52h42q0 -45 -16.5 -79t-56.5 -34zM355 -10q-90 0 -149 36.5t-87.5 99.5t-28.5 142v472h56v-472
q0 -102 52 -163t157 -61q106 0 158 61t52 163v472h51q53 0 53 53v41h52v-41q0 -43 -24 -68.5t-72 -25.5h-4v-431q0 -79 -28.5 -142t-87.5 -99.5t-150 -36.5z" />
    <glyph glyph-name="uni1EEF" unicode="&#x1eef;" horiz-adv-x="569" 
d="M335 620q-24 0 -40.5 11.5t-29 26.5t-25 26.5t-27.5 11.5q-19 0 -27 -19t-8 -52h-41q0 45 16.5 79t57.5 34q25 0 42 -11.5t29.5 -26.5t24 -26.5t26.5 -11.5q17 0 25 19t8 52h42q0 -45 -16.5 -79t-56.5 -34zM259 -10q-81 0 -127.5 53.5t-46.5 147.5v339h54v-337
q0 -74 34 -114t94 -40q59 0 94 32t51 81t16 100v278h52q53 0 53 53v41h50v-41q0 -44 -23.5 -68.5t-71.5 -24.5h-6v-490h-54v99h-5q-7 -18 -25.5 -43.5t-52 -45.5t-86.5 -20z" />
    <glyph glyph-name="uni1EF0" unicode="&#x1ef0;" horiz-adv-x="711" 
d="M355 -10q-90 0 -149 36.5t-87.5 99.5t-28.5 142v472h56v-472q0 -102 52 -163t157 -61q106 0 158 61t52 163v472h51q53 0 53 53v41h52v-41q0 -43 -24 -68.5t-72 -25.5h-4v-431q0 -79 -28.5 -142t-87.5 -99.5t-150 -36.5zM358 -204q-20 0 -33 14t-13 33t13 33t33 14
t33.5 -14t13.5 -33t-13.5 -33t-33.5 -14z" />
    <glyph glyph-name="uni1EF1" unicode="&#x1ef1;" horiz-adv-x="569" 
d="M259 -10q-81 0 -127.5 53.5t-46.5 147.5v339h54v-337q0 -74 34 -114t94 -40q59 0 94 32t51 81t16 100v278h52q53 0 53 53v41h50v-41q0 -44 -23.5 -68.5t-71.5 -24.5h-6v-490h-54v99h-5q-7 -18 -25.5 -43.5t-52 -45.5t-86.5 -20zM271 -204q-20 0 -33 14t-13 33t13 33
t33 14t33.5 -14t13.5 -33t-13.5 -33t-33.5 -14z" />
    <glyph glyph-name="Ygrave" unicode="&#x1ef2;" horiz-adv-x="662" 
d="M311 798l-96 161h60l85 -161h-49zM303 0v273l-271 467h62l237 -411l237 411h63l-272 -467v-273h-56z" />
    <glyph glyph-name="ygrave" unicode="&#x1ef3;" horiz-adv-x="566" 
d="M252 615l-96 162h60l85 -161zM86 -196q-19 0 -31.5 2l-12.5 2v49l14 -1.5t30 -1.5q61 0 102 33t67 100l4 9l-209 534h58l179 -463l180 463h58l-219 -554q-68 -172 -220 -172z" />
    <glyph glyph-name="uni1EF4" unicode="&#x1ef4;" horiz-adv-x="662" 
d="M303 0v273l-271 467h62l237 -411l237 411h63l-272 -467v-273h-56zM335 -204q-20 0 -33 14t-13 33t13 33t33 14t33.5 -14t13.5 -33t-13.5 -33t-33.5 -14z" />
    <glyph glyph-name="uni1EF5" unicode="&#x1ef5;" horiz-adv-x="566" 
d="M86 -196q-19 0 -31.5 2l-12.5 2v49l14 -1.5t30 -1.5q61 0 102 33t67 100l4 9l-209 534h58l179 -463l180 463h58l-219 -554q-68 -172 -220 -172zM391 -204q-20 0 -33 14t-13 33t13 33t33 14t33.5 -14t13.5 -33t-13.5 -33t-33.5 -14z" />
    <glyph glyph-name="uni1EF6" unicode="&#x1ef6;" horiz-adv-x="662" 
d="M317 786v32q0 8 3.5 15.5t12.5 11.5l12 6q22 11 34.5 25t12.5 31q0 15 -11 28.5t-38 13.5q-31 0 -41 -16.5t-10 -30.5h-41q0 36 23.5 60.5t67.5 24.5q43 0 68 -22.5t25 -55.5q0 -25 -17 -47.5t-58 -41.5l-2 -1v-33h-41zM303 0v273l-271 467h62l237 -411l237 411h63
l-272 -467v-273h-56z" />
    <glyph glyph-name="uni1EF7" unicode="&#x1ef7;" horiz-adv-x="566" 
d="M258 604v32q0 8 3.5 15t12.5 11l12 7q22 11 34.5 24.5t12.5 31.5q0 15 -11 28.5t-38 13.5q-31 0 -41 -16.5t-10 -30.5h-41q0 35 23.5 60t67.5 25q43 0 68 -22.5t25 -56.5q0 -24 -17 -46.5t-58 -42.5l-2 -1v-32h-41zM86 -196q-19 0 -31.5 2l-12.5 2v49l14 -1.5t30 -1.5
q61 0 102 33t67 100l4 9l-209 534h58l179 -463l180 463h58l-219 -554q-68 -172 -220 -172z" />
    <glyph glyph-name="uni1EF8" unicode="&#x1ef8;" horiz-adv-x="662" 
d="M399 802q-24 0 -40.5 11.5t-29 26.5t-25 26.5t-27.5 11.5q-19 0 -27 -19t-8 -52h-41q0 45 16.5 79t57.5 34q25 0 42 -11.5t29.5 -26t24 -26t26.5 -11.5q17 0 25 19t8 51h42q0 -44 -16.5 -78.5t-56.5 -34.5zM303 0v273l-271 467h62l237 -411l237 411h63l-272 -467v-273
h-56z" />
    <glyph glyph-name="uni1EF9" unicode="&#x1ef9;" horiz-adv-x="566" 
d="M340 620q-24 0 -40.5 11.5t-29 26.5t-25 26.5t-27.5 11.5q-19 0 -27 -19t-8 -52h-41q0 45 16.5 79t57.5 34q25 0 42 -11.5t29.5 -26.5t24 -26.5t26.5 -11.5q17 0 25 19t8 52h42q0 -45 -16.5 -79t-56.5 -34zM86 -196q-19 0 -31.5 2l-12.5 2v49l14 -1.5t30 -1.5
q61 0 102 33t67 100l4 9l-209 534h58l179 -463l180 463h58l-219 -554q-68 -172 -220 -172z" />
    <glyph glyph-name="endash" unicode="&#x2013;" horiz-adv-x="657" 
d="M118 288v50h421v-50h-421z" />
    <glyph glyph-name="emdash" unicode="&#x2014;" horiz-adv-x="819" 
d="M118 288v50h583v-50h-583z" />
    <glyph glyph-name="quoteleft" unicode="&#x2018;" horiz-adv-x="217" 
d="M151 740l-52 -84q21 -1 32.5 -14.5t11.5 -31.5q0 -19 -13 -32.5t-35 -13.5q-19 0 -33.5 11.5t-14.5 34.5q0 20 13.5 43t44.5 68l12 19h34z" />
    <glyph glyph-name="quoteright" unicode="&#x2019;" horiz-adv-x="187" 
d="M50 574l52 84q-21 1 -32.5 14.5t-11.5 31.5q0 19 13 32.5t34 13.5q20 0 34.5 -12t14.5 -34q0 -20 -14 -43t-44 -69l-13 -18h-33z" />
    <glyph glyph-name="quotesinglbase" unicode="&#x201a;" horiz-adv-x="294" 
d="M78 -90l52 84q-21 1 -32.5 15t-11.5 31q0 20 13 33.5t35 13.5q19 0 33.5 -12t14.5 -35q0 -19 -13.5 -42t-44.5 -69l-12 -19h-34z" />
    <glyph glyph-name="quotedblleft" unicode="&#x201c;" horiz-adv-x="329" 
d="M122 740l-52 -84q21 -1 32.5 -14.5t11.5 -31.5q0 -19 -13 -32.5t-34 -13.5q-20 0 -34.5 11.5t-14.5 34.5q0 20 14 43t44 68l13 19h33zM265 740l-51 -84q20 -1 32 -14.5t12 -31.5q0 -19 -13.5 -32.5t-34.5 -13.5q-19 0 -33.5 11.5t-14.5 34.5q0 20 13.5 43t44.5 68l12 19
h33z" />
    <glyph glyph-name="quotedblright" unicode="&#x201d;" horiz-adv-x="341" 
d="M207 574l51 84q-20 1 -32 14.5t-12 31.5q0 19 13.5 32.5t34.5 13.5q19 0 33.5 -12t14.5 -34q0 -20 -13.5 -43t-44.5 -69l-12 -18h-33zM63 574l52 84q-21 1 -32.5 14.5t-11.5 31.5q0 19 13 32.5t35 13.5q19 0 33.5 -12t14.5 -34q0 -20 -13.5 -43t-44.5 -69l-12 -18h-34z
" />
    <glyph glyph-name="quotedblbase" unicode="&#x201e;" horiz-adv-x="406" 
d="M223 -90l51 84q-20 1 -32 15t-12 31q0 20 13.5 33.5t34.5 13.5q19 0 33.5 -12t14.5 -35q0 -19 -13.5 -42t-44.5 -69l-12 -19h-33zM79 -90l52 84q-21 1 -32.5 15t-11.5 31q0 20 13 33.5t35 13.5q19 0 33.5 -12t14.5 -35q0 -19 -13.5 -42t-44.5 -69l-12 -19h-34z" />
    <glyph glyph-name="dagger" unicode="&#x2020;" horiz-adv-x="650" 
d="M300 282v289h-182v47h182v172h50v-172h182v-47h-182v-289h-50z" />
    <glyph glyph-name="daggerdbl" unicode="&#x2021;" horiz-adv-x="650" 
d="M300 282v150h-182v47h182v114h-182v47h182v150h50v-150h182v-47h-182v-114h182v-47h-182v-150h-50z" />
    <glyph glyph-name="bullet" unicode="&#x2022;" horiz-adv-x="477" 
d="M238 264q-35 0 -62 16.5t-42.5 44t-15.5 60.5t15.5 60t42.5 43.5t62 16.5q34 0 61.5 -16.5t43.5 -43.5t16 -60t-16 -61t-43.5 -44t-61.5 -16z" />
    <glyph glyph-name="ellipsis" unicode="&#x2026;" horiz-adv-x="726" 
d="M356 -7q-20 0 -33.5 14t-13.5 33t13.5 33t33.5 14q19 0 33 -14t14 -33t-14 -33t-33 -14zM601 -7q-20 0 -33.5 14t-13.5 33t13.5 33t33.5 14q19 0 33 -14t14 -33t-14 -33t-33 -14zM116 -7q-20 0 -33.5 14t-13.5 33t13.5 33t33.5 14q19 0 33 -14t14 -33t-14 -33t-33 -14z
" />
    <glyph glyph-name="perthousand" unicode="&#x2030;" horiz-adv-x="1140" 
d="M201 471q-43 0 -73.5 19t-47.5 51t-17 70q0 57 37 98t101 41t101 -41t37 -98q0 -38 -17 -70t-47.5 -51t-73.5 -19zM171 0l397 740h55l-397 -740h-55zM201 513q44 0 68 29.5t24 68.5t-24 68t-68 29q-43 0 -67.5 -29t-24.5 -68t24.5 -68.5t67.5 -29.5zM939 -10
q-43 0 -74 19t-47.5 51t-16.5 70q0 57 37 98t101 41t100.5 -41t36.5 -98q0 -38 -16.5 -70t-47 -51t-73.5 -19zM593 -10q-42 0 -73 19t-47.5 51t-16.5 70q0 57 36.5 98t100.5 41t101 -41t37 -98q0 -38 -16.5 -70t-47.5 -51t-74 -19zM939 32q43 0 67 29.5t24 68.5t-24 68.5
t-67 29.5t-67.5 -29.5t-24.5 -68.5t24.5 -68.5t67.5 -29.5zM593 32q44 0 68 29.5t24 68.5t-24 68.5t-68 29.5q-43 0 -67 -29.5t-24 -68.5t24 -68.5t67 -29.5z" />
    <glyph glyph-name="guilsinglleft" unicode="&#x2039;" horiz-adv-x="354" 
d="M313 526l-206 -205l206 -206h-67l-206 206l206 205h67z" />
    <glyph glyph-name="guilsinglright" unicode="&#x203a;" horiz-adv-x="354" 
d="M41 115l205 205l-205 206h66l207 -206l-207 -205h-66z" />
    <glyph glyph-name="fraction" unicode="&#x2044;" horiz-adv-x="497" 
d="M43 0l378 700h54l-378 -700h-54z" />
    <glyph glyph-name="uni2070" unicode="&#x2070;" horiz-adv-x="400" 
d="M200 426q-46 0 -77.5 26.5t-48 69.5t-16.5 94t16.5 94.5t48 69.5t77.5 26t77.5 -26t48 -69.5t16.5 -94.5t-16.5 -94t-48 -69.5t-77.5 -26.5zM200 471q40 0 66 37.5t26 107.5q0 71 -26 108t-66 37q-39 0 -65 -37t-26 -108t26 -108t65 -37z" />
    <glyph glyph-name="uni2074" unicode="&#x2074;" horiz-adv-x="380" 
d="M231 431v85l-184 1v38l170 245h61v-240h60v-44h-60v-85h-47zM102 560h129v186z" />
    <glyph glyph-name="uni2075" unicode="&#x2075;" horiz-adv-x="414" 
d="M208 425q-44 0 -70 15t-39 36t-17 39.5t-4 24.5h48l1.5 -11t9 -25.5t24 -25.5t47.5 -11q41 0 61.5 27t20.5 59t-20 59t-61 27q-30 0 -46 -11.5t-22.5 -23l-6.5 -11.5h-48l19 206h209v-43h-170l-10 -114q7 8 26.5 22.5t55.5 14.5q41 0 68.5 -18t41 -46t13.5 -59
q0 -33 -14.5 -63t-43.5 -49t-73 -19z" />
    <glyph glyph-name="uni2076" unicode="&#x2076;" horiz-adv-x="433" 
d="M222 424q-49 0 -81 24t-47.5 63t-15.5 84q0 35 10 72t32.5 68.5t59 51t88.5 19.5q23 0 40 -3l17 -3v-46l-18.5 3.5t-37.5 3.5q-51 0 -81 -22.5t-43.5 -55.5t-14.5 -64q4 8 15 22t31.5 25.5t53.5 11.5q41 0 69 -18.5t42 -47t14 -59.5q0 -32 -15 -61.5t-44.5 -48.5
t-73.5 -19zM221 467q40 0 62.5 25t22.5 60t-22.5 60t-62.5 25q-38 0 -61 -25t-23 -60t22.5 -60t61.5 -25z" />
    <glyph glyph-name="uni2077" unicode="&#x2077;" horiz-adv-x="366" 
d="M118 426q2 57 19 108.5t40 95t45 75t36 47.5h-209v43h263v-36l-14 -17t-35 -47.5t-42.5 -72.5t-37 -91.5t-18.5 -104.5h-47z" />
    <glyph glyph-name="uni2078" unicode="&#x2078;" horiz-adv-x="399" 
d="M199 425q-57 0 -93 30t-36 76q0 31 13 50.5t29 30t24 13.5v2q-9 4 -22 13.5t-23.5 26t-10.5 39.5q0 41 33 69.5t86 28.5q54 0 86.5 -28.5t32.5 -69.5q0 -22 -10.5 -38.5t-24 -26.5t-22.5 -14v-2q11 -4 27 -15t28.5 -30.5t12.5 -48.5q0 -46 -36 -76t-94 -30zM199 643
q35 0 53 19.5t18 42.5q0 22 -18 40.5t-53 18.5q-36 0 -54 -18t-18 -41t18 -42.5t54 -19.5zM199 464q41 0 61 22.5t20 49.5t-20.5 48.5t-60.5 21.5q-41 0 -61 -22.5t-20 -47.5q0 -27 20.5 -49.5t60.5 -22.5z" />
    <glyph glyph-name="uni2079" unicode="&#x2079;" horiz-adv-x="433" 
d="M211 814q49 0 81 -24t47.5 -63t15.5 -84q0 -36 -10 -73t-32.5 -68.5t-59 -51t-89.5 -19.5q-22 0 -39 3.5l-17 3.5v45l18 -3t38 -3q50 0 80 22.5t44 55t15 64.5q-4 -9 -15.5 -23t-32 -25t-52.5 -11q-42 0 -69.5 18t-41.5 47t-14 59q0 33 14.5 62.5t44.5 48.5t74 19z
M212 770q-40 0 -62.5 -24.5t-22.5 -59.5t22.5 -60t62.5 -25q38 0 60.5 25t22.5 60t-22.5 59.5t-60.5 24.5z" />
    <glyph glyph-name="uni2080" unicode="&#x2080;" horiz-adv-x="400" 
d="M200 -189q-46 0 -77.5 26.5t-48 69.5t-16.5 94t16.5 94.5t48 69.5t77.5 26t77.5 -26t48 -69.5t16.5 -94.5t-16.5 -94t-48 -69.5t-77.5 -26.5zM200 -144q40 0 66 37.5t26 107.5q0 71 -26 108t-66 37q-39 0 -65 -37t-26 -108t26 -108t65 -37z" />
    <glyph glyph-name="uni2081" unicode="&#x2081;" horiz-adv-x="283" 
d="M167 185v-369h-49v288h-68v28l12 4q29 7 45 16.5t29 27.5l3 5h28z" />
    <glyph glyph-name="uni2082" unicode="&#x2082;" horiz-adv-x="385" 
d="M68 -184v36l80 74q34 30 60.5 53.5t42 46.5t15.5 50q0 35 -22.5 52.5t-50.5 17.5t-52.5 -19.5t-24.5 -60.5h-47q0 42 18 70t46.5 41.5t59.5 13.5t59 -13.5t45.5 -38.5t17.5 -61q0 -34 -16 -61t-43.5 -53t-62.5 -56l-53 -48h183v-44h-255z" />
    <glyph glyph-name="uni2083" unicode="&#x2083;" horiz-adv-x="406" 
d="M204 -189q-33 0 -62.5 12.5t-48 38t-18.5 65.5h48q0 -38 25 -56t56 -18t54.5 19t23.5 51q0 29 -19.5 46t-52.5 17h-48v40h48q28 0 47 16.5t19 43.5q0 29 -22 46t-50 17t-51 -18t-23 -56h-48q0 39 18 64.5t46 38.5t59 13q30 0 57.5 -12.5t44.5 -35t17 -54.5q0 -27 -14 -48
t-42 -32v-3q28 -9 46 -30.5t18 -53.5q0 -35 -18 -60t-47.5 -38t-62.5 -13z" />
    <glyph glyph-name="uni2084" unicode="&#x2084;" horiz-adv-x="384" 
d="M227 -184v85l-183 1v38l170 245h60v-240h60v-44h-60v-85h-47zM98 -55h129v186z" />
    <glyph glyph-name="uni2085" unicode="&#x2085;" horiz-adv-x="418" 
d="M211 -190q-44 0 -70 15t-38.5 36t-17 39.5t-4.5 24.5h48l1.5 -11t9 -25.5t24.5 -25.5t47 -11q41 0 61.5 27t20.5 59t-20 59t-61 27q-30 0 -46 -11.5t-22.5 -23l-6.5 -11.5h-48l19 206h209v-43h-169l-11 -114q7 8 26.5 22.5t55.5 14.5q42 0 69 -18t40.5 -46t13.5 -59
q0 -33 -14.5 -63t-43.5 -49t-73 -19z" />
    <glyph glyph-name="uni2086" unicode="&#x2086;" horiz-adv-x="433" 
d="M222 -191q-49 0 -81 24t-47.5 63t-15.5 84q0 35 10 72t32.5 68.5t59 51t88.5 19.5q23 0 40 -3l17 -3v-46l-18.5 3.5t-37.5 3.5q-51 0 -81 -22.5t-43.5 -55.5t-14.5 -64q4 8 15 22t31.5 25.5t53.5 11.5q41 0 69 -18.5t42 -47t14 -59.5q0 -32 -15 -61.5t-44.5 -48.5
t-73.5 -19zM221 -148q40 0 62.5 25t22.5 60t-22.5 60t-62.5 25q-38 0 -61 -25t-23 -60t22.5 -60t61.5 -25z" />
    <glyph glyph-name="uni2087" unicode="&#x2087;" horiz-adv-x="359" 
d="M118 -184q2 56 19 108t40 95t45 74.5t36 48.5h-209v42h263v-35l-14 -17t-35 -48t-42.5 -72.5t-37 -91.5t-18.5 -104h-47z" />
    <glyph glyph-name="uni2088" unicode="&#x2088;" horiz-adv-x="399" 
d="M199 -190q-57 0 -93 30t-36 76q0 31 13 50.5t29 30t24 13.5v2q-9 4 -22 13.5t-23.5 26t-10.5 39.5q0 41 33 69.5t86 28.5q54 0 86.5 -28.5t32.5 -69.5q0 -22 -10.5 -38.5t-24 -26.5t-22.5 -14v-2q11 -4 27 -15t28.5 -30.5t12.5 -48.5q0 -46 -36 -76t-94 -30zM199 28
q35 0 53 19.5t18 42.5q0 22 -18 40.5t-53 18.5q-36 0 -54 -18t-18 -41t18 -42.5t54 -19.5zM199 -151q41 0 61 22.5t20 49.5t-20.5 48.5t-60.5 21.5q-41 0 -61 -22.5t-20 -47.5q0 -27 20.5 -49.5t60.5 -22.5z" />
    <glyph glyph-name="uni2089" unicode="&#x2089;" horiz-adv-x="433" 
d="M211 201q49 0 81 -24t47.5 -63t15.5 -84q0 -35 -10 -72t-32.5 -68.5t-59 -51t-89.5 -19.5q-22 0 -39 3l-17 3v46l18 -3.5t38 -3.5q50 0 80 22.5t44 55.5t15 64q-4 -8 -15.5 -22t-32 -25.5t-52.5 -11.5q-42 0 -69.5 18.5t-41.5 47t-14 59.5q0 32 14.5 61.5t44.5 48.5
t74 19zM212 158q-40 0 -62.5 -25t-22.5 -60t22.5 -60t62.5 -25q38 0 60.5 25t22.5 60t-22.5 60t-60.5 25z" />
    <glyph glyph-name="dong" unicode="&#x20ab;" horiz-adv-x="601" 
d="M264 127q-64 0 -106 30t-63.5 77t-21.5 98t21.5 98t63.5 77t106 30q62 0 98 -27.5t51 -56.5h4v146h-110v40h110v61h51v-61h81v-40h-81v-464h-51v76h-4q-9 -16 -27.5 -36t-48 -34t-73.5 -14zM271 172q49 0 82 23.5t49 60t16 76.5t-16 76.5t-49 60t-82 23.5t-81.5 -23.5
t-48.5 -60t-16 -75.5q0 -41 16 -77.5t49 -60t81 -23.5zM56 0v42h476v-42h-476z" />
    <glyph glyph-name="Euro" unicode="&#x20ac;" horiz-adv-x="742" 
d="M40 283v44h92q-2 21 -2 43t2 43h-92v44h98q16 78 61.5 145t121 107.5t182.5 40.5q47 0 88 -6.5t67 -12.5l26 -6v-53l-26.5 6.5t-67.5 13t-85 6.5q-90 0 -153.5 -33t-102 -88t-53.5 -120h343v-44h-350q-2 -21 -2 -43t2 -43h350v-44h-343q15 -66 53.5 -121t102 -88
t153.5 -33q44 0 85 6.5t67.5 13l26.5 6.5v-53l-26 -6t-67 -12t-88 -6q-107 0 -182.5 40.5t-121 107t-61.5 145.5h-98z" />
    <glyph glyph-name="trademark" unicode="&#x2122;" horiz-adv-x="810" 
d="M380 390v350h58l114 -213l114 213h57v-350h-43v287l-108 -199h-41l-108 201v-289h-43zM157 390v311h-115v39h272v-39h-114v-311h-43z" />
    <glyph glyph-name="oneeighth" unicode="&#x215b;" horiz-adv-x="749" 
d="M127 711v-356h-50v276l-65 -1v31l12 3q26 6 41 16t29 27l4 4h29zM137 0l377 700h55l-378 -700h-54zM658 -8q-54 0 -89 29t-35 73q0 30 13.5 48.5t28.5 28t21 11.5v3q-5 2 -17.5 10.5t-24 24t-11.5 40.5q0 39 32 65.5t82 26.5q51 0 83 -26.5t32 -65.5q0 -25 -11.5 -41
t-24.5 -24.5t-17 -9.5v-3q5 -2 20 -11t28.5 -28t13.5 -49q0 -44 -34.5 -73t-89.5 -29zM658 202q33 0 49.5 17t16.5 38t-16.5 39t-49.5 18q-32 0 -49 -17.5t-17 -39.5q0 -21 17 -38t49 -17zM658 32q38 0 56.5 21t18.5 46q0 24 -18.5 44t-56.5 20q-37 0 -56 -20t-19 -44
q0 -25 19 -46t56 -21z" />
    <glyph glyph-name="threeeighths" unicode="&#x215c;" horiz-adv-x="808" 
d="M169 348q-49 0 -85.5 28t-36.5 82h48q0 -34 23 -51t51 -17q30 0 51.5 17t21.5 47q0 28 -18 43.5t-49 15.5h-46v40h46q26 0 44 14.5t18 39.5q0 26 -20 42.5t-48 16.5q-25 0 -46.5 -17.5t-21.5 -51.5h-47q0 54 35.5 82.5t80.5 28.5q30 0 56.5 -11.5t43 -33.5t16.5 -52
q0 -28 -15.5 -48t-38.5 -28v-3q28 -9 44.5 -29.5t16.5 -50.5q0 -33 -17.5 -56.5t-46 -35.5t-60.5 -12zM250 0l377 700h55l-379 -700h-53zM771 -8q-54 0 -89 29t-35 73q0 30 13 48.5t28.5 28t21.5 11.5v3q-5 2 -18 10.5t-24 24t-11 40.5q0 39 31.5 65.5t82.5 26.5t82.5 -26.5
t31.5 -65.5q0 -25 -11.5 -41t-24 -24.5t-17.5 -9.5v-3q6 -2 21 -11t28.5 -28t13.5 -49q0 -44 -35 -73t-89 -29zM771 202q33 0 49.5 17t16.5 38t-16.5 39t-49.5 18q-32 0 -49 -17.5t-17 -39.5q0 -21 16.5 -38t49.5 -17zM771 32q38 0 56.5 21t18.5 46q0 24 -18.5 44t-56.5 20
q-37 0 -56 -20t-19 -44q0 -25 19 -46t56 -21z" />
    <glyph glyph-name="fiveeighths" unicode="&#x215d;" horiz-adv-x="838" 
d="M171 347q-42 0 -67 15t-37.5 35.5t-16 38t-3.5 22.5h47l1.5 -10.5t9 -23.5t23 -23.5t43.5 -10.5q37 0 56 25t19 54q0 30 -19 54.5t-56 24.5q-27 0 -42 -10.5t-21 -20.5l-6 -10h-49l18 196h201v-45h-164l-9 -105h1q6 8 24.5 22t53.5 14q39 0 65.5 -17t39.5 -44t13 -57
t-14 -58.5t-41.5 -47t-69.5 -18.5zM266 0l377 700h55l-378 -700h-54zM787 -8q-54 0 -89 29t-35 73q0 30 13.5 48.5t28.5 28t21 11.5v3q-5 2 -17.5 10.5t-24 24t-11.5 40.5q0 39 32 65.5t82 26.5q51 0 83 -26.5t32 -65.5q0 -25 -11.5 -41t-24.5 -24.5t-17 -9.5v-3
q5 -2 20 -11t28.5 -28t13.5 -49q0 -44 -34.5 -73t-89.5 -29zM787 202q33 0 49.5 17t16.5 38t-16.5 39t-49.5 18q-32 0 -49 -17.5t-17 -39.5q0 -21 17 -38t49 -17zM787 32q38 0 56.5 21t18.5 46q0 24 -18.5 44t-56.5 20q-37 0 -56 -20t-19 -44q0 -25 19 -46t56 -21z" />
    <glyph glyph-name="seveneighths" unicode="&#x215e;" horiz-adv-x="738" 
d="M91 357q2 56 16 104.5t33 88.5t38 68.5t30 43.5h-186v45h242v-37l-18 -23.5t-41.5 -65.5t-42.5 -99t-21 -125h-50zM200 0l377 700h55l-378 -700h-54zM721 -8q-54 0 -89 29t-35 73q0 30 13.5 48.5t28.5 28t21 11.5v3q-5 2 -17.5 10.5t-24 24t-11.5 40.5q0 39 32 65.5
t82 26.5q51 0 83 -26.5t32 -65.5q0 -25 -11.5 -41t-24.5 -24.5t-17 -9.5v-3q5 -2 20 -11t28.5 -28t13.5 -49q0 -44 -34.5 -73t-89.5 -29zM721 202q33 0 49.5 17t16.5 38t-16.5 39t-49.5 18q-32 0 -49 -17.5t-17 -39.5q0 -21 17 -38t49 -17zM721 32q38 0 56.5 21t18.5 46
q0 24 -18.5 44t-56.5 20q-37 0 -56 -20t-19 -44q0 -25 19 -46t56 -21z" />
    <glyph glyph-name="minus" unicode="&#x2212;" horiz-adv-x="615" 
d="M118 287v51h379v-51h-379z" />
    <glyph glyph-name="uni2215" unicode="&#x2215;" horiz-adv-x="485" 
d="M63 0l345 740h56l-346 -740h-55z" />
    <glyph glyph-name="approxequal" unicode="&#x2248;" horiz-adv-x="531" 
d="M333 364q-26 0 -43.5 11.5t-31 26.5t-27 26.5t-31.5 11.5q-21 0 -30 -19t-9 -52h-43q0 44 18 78t63 34q27 0 45.5 -11.5t32 -26.5t26.5 -26.5t30 -11.5q20 0 28.5 19t8.5 52h43q0 -44 -18 -78t-62 -34zM333 164q-26 0 -43.5 11.5t-31 26.5t-27 26.5t-31.5 11.5
q-21 0 -30 -19t-9 -52h-43q0 44 18 78t63 34q27 0 45.5 -11.5t32 -26.5t26.5 -26.5t30 -11.5q20 0 28.5 19t8.5 52h43q0 -44 -18 -78t-62 -34z" />
    <glyph glyph-name="notequal" unicode="&#x2260;" horiz-adv-x="713" 
d="M155 0l98 174h-135v50h163l96 171h-259v50h287l99 174h54l-98 -174h135v-50h-163l-97 -171h260v-50h-288l-98 -174h-54z" />
    <glyph glyph-name="lessequal" unicode="&#x2264;" horiz-adv-x="584" 
d="M479 163l-374 171v36l374 171v-52l-305 -137l305 -137v-52zM87 0v43h411v-43h-411z" />
    <glyph glyph-name="greaterequal" unicode="&#x2265;" horiz-adv-x="584" 
d="M105 163v52l305 137l-305 137v52l374 -171v-36zM87 0v43h411v-43h-411z" />
    <glyph glyph-name="i.loclTRK" horiz-adv-x="236" 
d="M117 634q-19 0 -31.5 13t-12.5 31t12.5 31t31.5 13t32 -13t13 -31t-13 -31t-32 -13zM91 0v530h54v-530h-54z" />
    <glyph glyph-name="a.ss01" horiz-adv-x="548" 
d="M407 92l-9.5 -15.5t-30.5 -35.5t-54.5 -35.5t-81.5 -15.5q-47 0 -86 17t-63 50.5t-24 80.5q0 52 26.5 83.5t66.5 47.5t83 21l181 24v27q0 22 -5.5 47.5t-20.5 49t-43.5 38.5t-74.5 15q-51 0 -80.5 -17.5t-44 -40.5t-18.5 -40.5l-4 -17.5h-54l3.5 17t14.5 41.5t33 49
t58 41t91 16.5q92 0 146 -54t54 -145v-341h-55v92h-8zM113 139q0 -35 18 -58t46.5 -34t59.5 -11q55 0 94.5 28t61.5 74t22 102v27l-175 -22q-57 -7 -92 -31.5t-35 -74.5z" />
    <glyph glyph-name="aacute.ss01" horiz-adv-x="572" 
d="M319 615l-50 1l86 161h60zM428 92l-10 -15.5t-30.5 -35.5t-54 -35.5t-81.5 -15.5q-47 0 -86.5 17t-63 50.5t-23.5 80.5q0 52 26 83.5t66.5 47.5t83.5 21l181 24v27q0 20 -5.5 45.5t-21 49.5t-43.5 39.5t-74 15.5q-51 0 -80.5 -17.5t-44 -40.5t-18.5 -40.5l-4 -17.5h-54
l3.5 17t14.5 41.5t32.5 49t58 41t90.5 16.5q93 0 147 -54t54 -145v-341h-55v92h-8zM134 139q0 -35 18 -58t46.5 -34t59.5 -11q54 0 94 28t62 74t22 102v27l-176 -22q-56 -7 -91 -31.5t-35 -74.5z" />
    <glyph glyph-name="abreve.ss01" horiz-adv-x="572" 
d="M291 610q-42 0 -69 14t-42.5 34.5t-22 41t-8 34.5l-1.5 14h45l2 -14.5t11 -33.5t29 -33.5t56 -14.5t56 14.5t29 33.5t11 33.5l2 14.5h45l-1.5 -14t-8 -34.5t-22 -41t-42 -34.5t-69.5 -14zM428 92l-10 -15.5t-30.5 -35.5t-54 -35.5t-81.5 -15.5q-47 0 -86.5 17t-63 50.5
t-23.5 80.5q0 52 26 83.5t66.5 47.5t83.5 21l181 24v27q0 20 -5.5 45.5t-21 49.5t-43.5 39.5t-74 15.5q-51 0 -80.5 -17.5t-44 -40.5t-18.5 -40.5l-4 -17.5h-54l3.5 17t14.5 41.5t32.5 49t58 41t90.5 16.5q93 0 147 -54t54 -145v-341h-55v92h-8zM134 139q0 -35 18 -58
t46.5 -34t59.5 -11q54 0 94 28t62 74t22 102v27l-176 -22q-56 -7 -91 -31.5t-35 -74.5z" />
    <glyph glyph-name="uni1EAF.ss01" horiz-adv-x="572" 
d="M319 756h-50l86 161h60zM291 610q-51 0 -80 18.5t-42.5 42.5t-17 42l-3.5 18h45l2.5 -12t12 -28t29.5 -28t54 -12q35 0 54.5 12t29 28t12 28l2.5 12h45l-3.5 -18t-17 -42t-42.5 -42.5t-80 -18.5zM428 92l-10 -15.5t-30.5 -35.5t-54 -35.5t-81.5 -15.5q-47 0 -86.5 17
t-63 50.5t-23.5 80.5q0 52 26 83.5t66.5 47.5t83.5 21l181 24v27q0 20 -5.5 45.5t-21 49.5t-43.5 39.5t-74 15.5q-51 0 -80.5 -17.5t-44 -40.5t-18.5 -40.5l-4 -17.5h-54l3.5 17t14.5 41.5t32.5 49t58 41t90.5 16.5q93 0 147 -54t54 -145v-341h-55v92h-8zM134 139
q0 -35 18 -58t46.5 -34t59.5 -11q54 0 94 28t62 74t22 102v27l-176 -22q-56 -7 -91 -31.5t-35 -74.5z" />
    <glyph glyph-name="uni1EB7.ss01" horiz-adv-x="572" 
d="M291 610q-42 0 -69 14t-42.5 34.5t-22 41t-8 34.5l-1.5 14h45l2 -14.5t11 -33.5t29 -33.5t56 -14.5t56 14.5t29 33.5t11 33.5l2 14.5h45l-1.5 -14t-8 -34.5t-22 -41t-42 -34.5t-69.5 -14zM428 92l-10 -15.5t-30.5 -35.5t-54 -35.5t-81.5 -15.5q-47 0 -86.5 17t-63 50.5
t-23.5 80.5q0 52 26 83.5t66.5 47.5t83.5 21l181 24v27q0 20 -5.5 45.5t-21 49.5t-43.5 39.5t-74 15.5q-51 0 -80.5 -17.5t-44 -40.5t-18.5 -40.5l-4 -17.5h-54l3.5 17t14.5 41.5t32.5 49t58 41t90.5 16.5q93 0 147 -54t54 -145v-341h-55v92h-8zM134 139q0 -35 18 -58
t46.5 -34t59.5 -11q54 0 94 28t62 74t22 102v27l-176 -22q-56 -7 -91 -31.5t-35 -74.5zM285 -204q-20 0 -33 14t-13 33t13 33t33 14t33.5 -14t13.5 -33t-13.5 -33t-33.5 -14z" />
    <glyph glyph-name="uni1EB1.ss01" horiz-adv-x="572" 
d="M265 756l-96 161h60l86 -161h-50zM290 610q-51 0 -80 18.5t-42 42.5t-16.5 42l-3.5 18h44l2.5 -12t12 -28t29.5 -28t54 -12q35 0 55 12t29 28t12 28l3 12h44l-3.5 -18t-17 -42t-42.5 -42.5t-80 -18.5zM428 92l-10 -15.5t-30.5 -35.5t-54 -35.5t-81.5 -15.5
q-47 0 -86.5 17t-63 50.5t-23.5 80.5q0 52 26 83.5t66.5 47.5t83.5 21l181 24v27q0 20 -5.5 45.5t-21 49.5t-43.5 39.5t-74 15.5q-51 0 -80.5 -17.5t-44 -40.5t-18.5 -40.5l-4 -17.5h-54l3.5 17t14.5 41.5t32.5 49t58 41t90.5 16.5q93 0 147 -54t54 -145v-341h-55v92h-8z
M134 139q0 -35 18 -58t46.5 -34t59.5 -11q54 0 94 28t62 74t22 102v27l-176 -22q-56 -7 -91 -31.5t-35 -74.5z" />
    <glyph glyph-name="uni1EB3.ss01" horiz-adv-x="572" 
d="M272 744v32q0 8 3.5 15.5t11.5 11.5l13 6q22 11 34 25t12 31q0 15 -11 28.5t-38 13.5q-31 0 -40.5 -16.5t-9.5 -30.5h-42q0 36 23.5 60.5t68.5 24.5q43 0 67.5 -22.5t24.5 -55.5q0 -25 -17 -47.5t-58 -41.5l-2 -1v-33h-40zM290 610q-51 0 -80 18.5t-42 42.5t-16.5 42
l-3.5 18h44l2.5 -12t12 -28t29.5 -28t54 -12q35 0 55 12t29 28t12 28l3 12h44l-3.5 -18t-17 -42t-42.5 -42.5t-80 -18.5zM428 92l-10 -15.5t-30.5 -35.5t-54 -35.5t-81.5 -15.5q-47 0 -86.5 17t-63 50.5t-23.5 80.5q0 52 26 83.5t66.5 47.5t83.5 21l181 24v27
q0 20 -5.5 45.5t-21 49.5t-43.5 39.5t-74 15.5q-51 0 -80.5 -17.5t-44 -40.5t-18.5 -40.5l-4 -17.5h-54l3.5 17t14.5 41.5t32.5 49t58 41t90.5 16.5q93 0 147 -54t54 -145v-341h-55v92h-8zM134 139q0 -35 18 -58t46.5 -34t59.5 -11q54 0 94 28t62 74t22 102v27l-176 -22
q-56 -7 -91 -31.5t-35 -74.5z" />
    <glyph glyph-name="uni1EB5.ss01" horiz-adv-x="572" 
d="M353 777q-24 0 -40.5 11.5t-29 26.5t-24.5 26.5t-28 11.5q-18 0 -26 -19t-8 -52h-42q0 45 16.5 79t57.5 34q25 0 42 -11.5t29.5 -26.5t24.5 -26.5t26 -11.5q18 0 26 19t8 52h41q0 -45 -16.5 -79t-56.5 -34zM291 610q-51 0 -80 18.5t-42.5 42.5t-17 42l-3.5 18h45l2.5 -12
t12 -28t29.5 -28t54 -12q35 0 54.5 12t29 28t12 28l2.5 12h45l-3.5 -18t-17 -42t-42.5 -42.5t-80 -18.5zM428 92l-10 -15.5t-30.5 -35.5t-54 -35.5t-81.5 -15.5q-47 0 -86.5 17t-63 50.5t-23.5 80.5q0 52 26 83.5t66.5 47.5t83.5 21l181 24v27q0 20 -5.5 45.5t-21 49.5
t-43.5 39.5t-74 15.5q-51 0 -80.5 -17.5t-44 -40.5t-18.5 -40.5l-4 -17.5h-54l3.5 17t14.5 41.5t32.5 49t58 41t90.5 16.5q93 0 147 -54t54 -145v-341h-55v92h-8zM134 139q0 -35 18 -58t46.5 -34t59.5 -11q54 0 94 28t62 74t22 102v27l-176 -22q-56 -7 -91 -31.5t-35 -74.5z
" />
    <glyph glyph-name="acircumflex.ss01" horiz-adv-x="572" 
d="M151 607l115 157h51l115 -157h-54l-86 119l-87 -119h-54zM428 92l-10 -15.5t-30.5 -35.5t-54 -35.5t-81.5 -15.5q-47 0 -86.5 17t-63 50.5t-23.5 80.5q0 52 26 83.5t66.5 47.5t83.5 21l181 24v27q0 20 -5.5 45.5t-21 49.5t-43.5 39.5t-74 15.5q-51 0 -80.5 -17.5
t-44 -40.5t-18.5 -40.5l-4 -17.5h-54l3.5 17t14.5 41.5t32.5 49t58 41t90.5 16.5q93 0 147 -54t54 -145v-341h-55v92h-8zM134 139q0 -35 18 -58t46.5 -34t59.5 -11q54 0 94 28t62 74t22 102v27l-176 -22q-56 -7 -91 -31.5t-35 -74.5z" />
    <glyph glyph-name="uni1EA5.ss01" horiz-adv-x="572" 
d="M459 729l-49 1l85 161h60zM153 607l114 141h52l114 -141h-53l-87 107l-87 -107h-53zM428 92l-10 -15.5t-30.5 -35.5t-54 -35.5t-81.5 -15.5q-47 0 -86.5 17t-63 50.5t-23.5 80.5q0 52 26 83.5t66.5 47.5t83.5 21l181 24v27q0 20 -5.5 45.5t-21 49.5t-43.5 39.5t-74 15.5
q-51 0 -80.5 -17.5t-44 -40.5t-18.5 -40.5l-4 -17.5h-54l3.5 17t14.5 41.5t32.5 49t58 41t90.5 16.5q93 0 147 -54t54 -145v-341h-55v92h-8zM134 139q0 -35 18 -58t46.5 -34t59.5 -11q54 0 94 28t62 74t22 102v27l-176 -22q-56 -7 -91 -31.5t-35 -74.5z" />
    <glyph glyph-name="uni1EAD.ss01" horiz-adv-x="572" 
d="M151 607l115 157h51l115 -157h-54l-86 119l-87 -119h-54zM428 92l-10 -15.5t-30.5 -35.5t-54 -35.5t-81.5 -15.5q-47 0 -86.5 17t-63 50.5t-23.5 80.5q0 52 26 83.5t66.5 47.5t83.5 21l181 24v27q0 20 -5.5 45.5t-21 49.5t-43.5 39.5t-74 15.5q-51 0 -80.5 -17.5
t-44 -40.5t-18.5 -40.5l-4 -17.5h-54l3.5 17t14.5 41.5t32.5 49t58 41t90.5 16.5q93 0 147 -54t54 -145v-341h-55v92h-8zM134 139q0 -35 18 -58t46.5 -34t59.5 -11q54 0 94 28t62 74t22 102v27l-176 -22q-56 -7 -91 -31.5t-35 -74.5zM285 -204q-20 0 -33 14t-13 33t13 33
t33 14t33.5 -14t13.5 -33t-13.5 -33t-33.5 -14z" />
    <glyph glyph-name="uni1EA7.ss01" horiz-adv-x="572" 
d="M421 729l-95 162h60l85 -161zM151 607l115 141h51l115 -141h-54l-86 107l-87 -107h-54zM428 92l-10 -15.5t-30.5 -35.5t-54 -35.5t-81.5 -15.5q-47 0 -86.5 17t-63 50.5t-23.5 80.5q0 52 26 83.5t66.5 47.5t83.5 21l181 24v27q0 20 -5.5 45.5t-21 49.5t-43.5 39.5
t-74 15.5q-51 0 -80.5 -17.5t-44 -40.5t-18.5 -40.5l-4 -17.5h-54l3.5 17t14.5 41.5t32.5 49t58 41t90.5 16.5q93 0 147 -54t54 -145v-341h-55v92h-8zM134 139q0 -35 18 -58t46.5 -34t59.5 -11q54 0 94 28t62 74t22 102v27l-176 -22q-56 -7 -91 -31.5t-35 -74.5z" />
    <glyph glyph-name="uni1EA9.ss01" horiz-adv-x="572" 
d="M411 718v32q0 8 3.5 15t12.5 11l12 7q22 11 34.5 24.5t12.5 31.5q0 15 -11 28.5t-38 13.5q-31 0 -41 -16.5t-10 -30.5h-41q0 35 23.5 60t67.5 25q43 0 68 -22.5t25 -56.5q0 -24 -17 -46.5t-58 -42.5l-2 -1v-32h-41zM151 607l115 141h51l115 -141h-54l-86 107l-87 -107
h-54zM428 92l-10 -15.5t-30.5 -35.5t-54 -35.5t-81.5 -15.5q-47 0 -86.5 17t-63 50.5t-23.5 80.5q0 52 26 83.5t66.5 47.5t83.5 21l181 24v27q0 20 -5.5 45.5t-21 49.5t-43.5 39.5t-74 15.5q-51 0 -80.5 -17.5t-44 -40.5t-18.5 -40.5l-4 -17.5h-54l3.5 17t14.5 41.5t32.5 49
t58 41t90.5 16.5q93 0 147 -54t54 -145v-341h-55v92h-8zM134 139q0 -35 18 -58t46.5 -34t59.5 -11q54 0 94 28t62 74t22 102v27l-176 -22q-56 -7 -91 -31.5t-35 -74.5z" />
    <glyph glyph-name="uni1EAB.ss01" horiz-adv-x="572" 
d="M354 788q-24 0 -40.5 11.5t-29 26.5t-25 26.5t-27.5 11.5q-19 0 -27 -19t-8 -52h-41q0 45 16.5 79t57.5 34q25 0 42 -11.5t29.5 -26t24 -26t26.5 -11.5q17 0 25 19t8 51h42q0 -44 -16.5 -78.5t-56.5 -34.5zM151 607l114 141h52l114 -141h-53l-87 107l-87 -107h-53z
M428 92l-10 -15.5t-30.5 -35.5t-54 -35.5t-81.5 -15.5q-47 0 -86.5 17t-63 50.5t-23.5 80.5q0 52 26 83.5t66.5 47.5t83.5 21l181 24v27q0 20 -5.5 45.5t-21 49.5t-43.5 39.5t-74 15.5q-51 0 -80.5 -17.5t-44 -40.5t-18.5 -40.5l-4 -17.5h-54l3.5 17t14.5 41.5t32.5 49
t58 41t90.5 16.5q93 0 147 -54t54 -145v-341h-55v92h-8zM134 139q0 -35 18 -58t46.5 -34t59.5 -11q54 0 94 28t62 74t22 102v27l-176 -22q-56 -7 -91 -31.5t-35 -74.5z" />
    <glyph glyph-name="adieresis.ss01" horiz-adv-x="572" 
d="M369 624q-19 0 -31.5 13t-12.5 31t12.5 31t31.5 13q18 0 31 -13t13 -31t-13 -31t-31 -13zM213 624q-19 0 -31.5 13t-12.5 31t12.5 31t31.5 13q18 0 31 -13t13 -31t-13 -31t-31 -13zM428 92l-10 -15.5t-30.5 -35.5t-54 -35.5t-81.5 -15.5q-47 0 -86.5 17t-63 50.5
t-23.5 80.5q0 52 26 83.5t66.5 47.5t83.5 21l181 24v27q0 20 -5.5 45.5t-21 49.5t-43.5 39.5t-74 15.5q-51 0 -80.5 -17.5t-44 -40.5t-18.5 -40.5l-4 -17.5h-54l3.5 17t14.5 41.5t32.5 49t58 41t90.5 16.5q93 0 147 -54t54 -145v-341h-55v92h-8zM134 139q0 -35 18 -58
t46.5 -34t59.5 -11q54 0 94 28t62 74t22 102v27l-176 -22q-56 -7 -91 -31.5t-35 -74.5z" />
    <glyph glyph-name="uni1EA1.ss01" horiz-adv-x="572" 
d="M428 92l-10 -15.5t-30.5 -35.5t-54 -35.5t-81.5 -15.5q-47 0 -86.5 17t-63 50.5t-23.5 80.5q0 52 26 83.5t66.5 47.5t83.5 21l181 24v27q0 20 -5.5 45.5t-21 49.5t-43.5 39.5t-74 15.5q-51 0 -80.5 -17.5t-44 -40.5t-18.5 -40.5l-4 -17.5h-54l3.5 17t14.5 41.5t32.5 49
t58 41t90.5 16.5q93 0 147 -54t54 -145v-341h-55v92h-8zM134 139q0 -35 18 -58t46.5 -34t59.5 -11q54 0 94 28t62 74t22 102v27l-176 -22q-56 -7 -91 -31.5t-35 -74.5zM285 -204q-20 0 -33 14t-13 33t13 33t33 14t33.5 -14t13.5 -33t-13.5 -33t-33.5 -14z" />
    <glyph glyph-name="agrave.ss01" horiz-adv-x="572" 
d="M266 615l-96 162h60l85 -161zM428 92l-10 -15.5t-30.5 -35.5t-54 -35.5t-81.5 -15.5q-47 0 -86.5 17t-63 50.5t-23.5 80.5q0 52 26 83.5t66.5 47.5t83.5 21l181 24v27q0 20 -5.5 45.5t-21 49.5t-43.5 39.5t-74 15.5q-51 0 -80.5 -17.5t-44 -40.5t-18.5 -40.5l-4 -17.5
h-54l3.5 17t14.5 41.5t32.5 49t58 41t90.5 16.5q93 0 147 -54t54 -145v-341h-55v92h-8zM134 139q0 -35 18 -58t46.5 -34t59.5 -11q54 0 94 28t62 74t22 102v27l-176 -22q-56 -7 -91 -31.5t-35 -74.5z" />
    <glyph glyph-name="uni1EA3.ss01" horiz-adv-x="572" 
d="M272 604v32q0 8 3.5 15t12.5 11l12 7q22 11 34.5 24.5t12.5 31.5q0 15 -11 28.5t-38 13.5q-31 0 -41 -16.5t-10 -30.5h-41q0 35 23.5 60t67.5 25q43 0 68 -22.5t25 -56.5q0 -24 -17 -46.5t-58 -42.5l-2 -1v-32h-41zM428 92l-10 -15.5t-30.5 -35.5t-54 -35.5t-81.5 -15.5
q-47 0 -86.5 17t-63 50.5t-23.5 80.5q0 52 26 83.5t66.5 47.5t83.5 21l181 24v27q0 20 -5.5 45.5t-21 49.5t-43.5 39.5t-74 15.5q-51 0 -80.5 -17.5t-44 -40.5t-18.5 -40.5l-4 -17.5h-54l3.5 17t14.5 41.5t32.5 49t58 41t90.5 16.5q93 0 147 -54t54 -145v-341h-55v92h-8z
M134 139q0 -35 18 -58t46.5 -34t59.5 -11q54 0 94 28t62 74t22 102v27l-176 -22q-56 -7 -91 -31.5t-35 -74.5z" />
    <glyph glyph-name="amacron.ss01" horiz-adv-x="572" 
d="M147 634v44h288v-44h-288zM428 92l-10 -15.5t-30.5 -35.5t-54 -35.5t-81.5 -15.5q-47 0 -86.5 17t-63 50.5t-23.5 80.5q0 52 26 83.5t66.5 47.5t83.5 21l181 24v27q0 20 -5.5 45.5t-21 49.5t-43.5 39.5t-74 15.5q-51 0 -80.5 -17.5t-44 -40.5t-18.5 -40.5l-4 -17.5h-54
l3.5 17t14.5 41.5t32.5 49t58 41t90.5 16.5q93 0 147 -54t54 -145v-341h-55v92h-8zM134 139q0 -35 18 -58t46.5 -34t59.5 -11q54 0 94 28t62 74t22 102v27l-176 -22q-56 -7 -91 -31.5t-35 -74.5z" />
    <glyph glyph-name="aogonek.ss01" horiz-adv-x="572" 
d="M486 -156q-47 0 -73 22.5t-26 56.5q0 30 16 49t33 29v91h-8l-10 -15.5t-30.5 -35.5t-54 -35.5t-81.5 -15.5q-47 0 -86.5 17t-63 50.5t-23.5 80.5q0 52 26 83.5t66.5 47.5t83.5 21l181 24v27q0 20 -5.5 45.5t-21 49.5t-43.5 39.5t-74 15.5q-51 0 -80.5 -17.5t-44 -40.5
t-18.5 -40.5l-4 -17.5h-54l3.5 17t14.5 41.5t32.5 49t58 41t90.5 16.5q93 0 147 -54t54 -145v-341l-14.5 -7.5t-28.5 -22.5t-14 -38q0 -21 15 -34t45 -13q15 0 27 2.5l12 2.5v-40l-13.5 -3t-33.5 -3zM134 139q0 -35 18 -58t46.5 -34t59.5 -11q54 0 94 28t62 74t22 102v27
l-176 -22q-56 -7 -91 -31.5t-35 -74.5z" />
    <glyph glyph-name="aring.ss01" horiz-adv-x="572" 
d="M291 610q-44 0 -74.5 30.5t-30.5 74.5q0 43 30.5 74t74.5 31t74.5 -31t30.5 -74q0 -44 -30.5 -74.5t-74.5 -30.5zM291 653q26 0 44 18t18 44q0 25 -18 43.5t-44 18.5t-44 -18.5t-18 -43.5q0 -26 18 -44t44 -18zM428 92l-10 -15.5t-30.5 -35.5t-54 -35.5t-81.5 -15.5
q-47 0 -86.5 17t-63 50.5t-23.5 80.5q0 52 26 83.5t66.5 47.5t83.5 21l181 24v27q0 20 -5.5 45.5t-21 49.5t-43.5 39.5t-74 15.5q-51 0 -80.5 -17.5t-44 -40.5t-18.5 -40.5l-4 -17.5h-54l3.5 17t14.5 41.5t32.5 49t58 41t90.5 16.5q93 0 147 -54t54 -145v-341h-55v92h-8z
M134 139q0 -35 18 -58t46.5 -34t59.5 -11q54 0 94 28t62 74t22 102v27l-176 -22q-56 -7 -91 -31.5t-35 -74.5z" />
    <glyph glyph-name="atilde.ss01" horiz-adv-x="572" 
d="M354 620q-24 0 -40.5 11.5t-29 26.5t-25 26.5t-27.5 11.5q-19 0 -27 -19t-8 -52h-41q0 45 16.5 79t57.5 34q25 0 42 -11.5t29.5 -26.5t24 -26.5t26.5 -11.5q17 0 25 19t8 52h42q0 -45 -16.5 -79t-56.5 -34zM428 92l-10 -15.5t-30.5 -35.5t-54 -35.5t-81.5 -15.5
q-47 0 -86.5 17t-63 50.5t-23.5 80.5q0 52 26 83.5t66.5 47.5t83.5 21l181 24v27q0 20 -5.5 45.5t-21 49.5t-43.5 39.5t-74 15.5q-51 0 -80.5 -17.5t-44 -40.5t-18.5 -40.5l-4 -17.5h-54l3.5 17t14.5 41.5t32.5 49t58 41t90.5 16.5q93 0 147 -54t54 -145v-341h-55v92h-8z
M134 139q0 -35 18 -58t46.5 -34t59.5 -11q54 0 94 28t62 74t22 102v27l-176 -22q-56 -7 -91 -31.5t-35 -74.5z" />
    <glyph glyph-name="zero.dnom" horiz-adv-x="367" 
d="M184 -9q-44 0 -75 25t-46.5 66t-15.5 90q0 48 15.5 89t46.5 65.5t75 24.5t74.5 -24.5t46.5 -65.5t16 -89q0 -49 -16 -90.5t-46.5 -66t-74.5 -24.5zM184 38q36 0 60 33.5t24 100.5q0 65 -24 99t-60 34q-37 0 -61 -34t-24 -99q0 -67 24 -100.5t61 -33.5z" />
    <glyph glyph-name="one.dnom" horiz-adv-x="94" 
d="M127 355v-356h-50v275l-65 -1v31l12 3q26 7 41 16.5t29 26.5l4 5h29z" />
    <glyph glyph-name="two.dnom" horiz-adv-x="239" 
d="M-53 -4v36l75 68q51 46 81.5 75t30.5 66q0 31 -21.5 48t-46.5 17q-27 0 -48 -18t-21 -55h-50q0 40 17.5 66t45 39t57.5 13q47 0 83 -28t36 -80q0 -47 -34.5 -83t-83.5 -78l-45 -41h169v-45h-245z" />
    <glyph glyph-name="three.dnom" horiz-adv-x="206" 
d="M169 -9q-49 0 -85.5 28t-36.5 82h48q0 -34 23 -50.5t51 -16.5q30 0 51.5 16.5t21.5 47.5q0 27 -18 43t-49 16h-46v39h46q26 0 44 14.5t18 39.5q0 27 -20 43t-48 16q-25 0 -46.5 -17t-21.5 -52h-47q0 54 35.5 82.5t80.5 28.5q30 0 56.5 -11.5t43 -33t16.5 -52.5
q0 -28 -15.5 -47.5t-38.5 -28.5v-2q28 -10 44.5 -30.5t16.5 -50.5q0 -33 -17.5 -56.5t-46 -35.5t-60.5 -12z" />
    <glyph glyph-name="four.dnom" horiz-adv-x="208" 
d="M54 -4v81h-171v37l160 232h61v-226h57v-43h-57v-81h-50zM-62 120h116v167z" />
    <glyph glyph-name="five.dnom" horiz-adv-x="223" 
d="M171 -9q-42 0 -67 14.5t-37.5 35t-16 38t-3.5 22.5h47l1.5 -10t9 -23.5t23 -24t43.5 -10.5q37 0 56 25.5t19 54.5t-19 53.5t-56 24.5q-27 0 -42 -10t-21 -20.5l-6 -10.5h-49l18 196h201v-45h-164l-9 -104h1q6 7 24.5 21t53.5 14q39 0 65.5 -17t39.5 -44t13 -56
q0 -31 -14 -59.5t-41.5 -46.5t-69.5 -18z" />
    <glyph glyph-name="six.dnom" horiz-adv-x="341" 
d="M176 -9q-45 0 -74 21.5t-43.5 57.5t-14.5 77q0 33 10 68t31 65t55 48.5t82 18.5q20 0 35.5 -3l15.5 -3v-45l-16.5 3t-34.5 3q-46 0 -73 -21t-40 -51.5t-14 -57.5q3 7 13 19t28.5 21.5t46.5 9.5q38 0 63 -16.5t37.5 -42.5t12.5 -54q0 -29 -13.5 -56.5t-40 -44.5t-66.5 -17
zM176 32q32 0 52.5 21t20.5 54t-20.5 54t-52.5 21q-33 0 -54 -20.5t-21 -54.5q0 -33 21 -54t54 -21z" />
    <glyph glyph-name="seven.dnom" horiz-adv-x="157" 
d="M91 0q2 56 16 105t33 88.5t38 68t30 43.5h-186v45h242v-37l-18 -23t-41.5 -65t-42.5 -99.5t-21 -125.5h-50z" />
    <glyph glyph-name="eight.dnom" horiz-adv-x="238" 
d="M68 -8q-55 0 -90 29t-35 73q0 30 13.5 48.5t28.5 28t21 11.5v3q-5 2 -17.5 10.5t-23.5 24t-11 40.5q0 39 31.5 65.5t82.5 26.5t82.5 -26.5t31.5 -65.5q0 -25 -11.5 -41t-24.5 -24.5t-17 -9.5v-3q5 -2 20 -11t28.5 -28t13.5 -49q0 -44 -34.5 -73t-88.5 -29zM68 202
q33 0 49.5 17t16.5 38t-17 39t-49 18q-33 0 -50 -17.5t-17 -39.5q0 -21 17 -38t50 -17zM68 32q37 0 56 21t19 46q0 24 -19 44t-56 20q-38 0 -56.5 -20t-18.5 -44q0 -25 19 -46t56 -21z" />
    <glyph glyph-name="nine.dnom" horiz-adv-x="341" 
d="M166 347q45 0 74 -22t43 -57.5t14 -77.5q0 -32 -9.5 -67t-31 -65t-55 -48.5t-81.5 -18.5q-21 0 -36.5 3l-15.5 3v45l16.5 -3.5t35.5 -3.5q45 0 72.5 21.5t40 51.5t14.5 58q-4 -8 -14 -20t-28 -21.5t-47 -9.5q-37 0 -62.5 17t-38 43t-12.5 54q0 29 13.5 56t40.5 44.5
t67 17.5zM166 306q-32 0 -52.5 -21.5t-20.5 -54.5t20.5 -54t52.5 -21t53 21t21 54t-21 54.5t-53 21.5z" />
    <glyph glyph-name="zero.numr" horiz-adv-x="379" 
d="M196 348q-45 0 -75.5 24.5t-46.5 66t-16 89.5q0 49 16 89.5t46.5 65.5t75.5 25q44 0 74.5 -24.5t46 -65.5t15.5 -90t-15.5 -90t-46 -65.5t-74.5 -24.5zM196 395q36 0 60 33.5t24 99.5t-24 99.5t-60 33.5q-37 0 -61 -34t-24 -99q0 -66 24 -99.5t61 -33.5z" />
    <glyph glyph-name="one.numr" horiz-adv-x="94" 
d="M127 711v-356h-50v276l-65 -1v31l12 3q26 6 41 16t29 27l4 4h29z" />
    <glyph glyph-name="two.numr" horiz-adv-x="239" 
d="M-53 353v36l75 68q51 45 81.5 74.5t30.5 65.5q0 32 -21.5 48.5t-46.5 16.5q-27 0 -48 -18t-21 -54h-50q0 39 17.5 65.5t45 39.5t57.5 13q47 0 83 -28.5t36 -79.5q0 -48 -34.5 -83.5t-83.5 -78.5l-45 -40h169v-45h-245z" />
    <glyph glyph-name="three.numr" horiz-adv-x="206" 
d="M169 348q-49 0 -85.5 28t-36.5 82h48q0 -34 23 -51t51 -17q30 0 51.5 17t21.5 47q0 28 -18 43.5t-49 15.5h-46v40h46q26 0 44 14.5t18 39.5q0 26 -20 42.5t-48 16.5q-25 0 -46.5 -17.5t-21.5 -51.5h-47q0 54 35.5 82.5t80.5 28.5q30 0 56.5 -11.5t43 -33.5t16.5 -52
q0 -28 -15.5 -48t-38.5 -28v-3q28 -9 44.5 -29.5t16.5 -50.5q0 -33 -17.5 -56.5t-46 -35.5t-60.5 -12z" />
    <glyph glyph-name="four.numr" horiz-adv-x="208" 
d="M54 353v80h-171v38l160 232h61v-226h57v-44h-57v-80h-50zM-62 477h116v167z" />
    <glyph glyph-name="five.numr" horiz-adv-x="223" 
d="M171 347q-42 0 -67 15t-37.5 35.5t-16 38t-3.5 22.5h47l1.5 -10.5t9 -23.5t23 -23.5t43.5 -10.5q37 0 56 25t19 54q0 30 -19 54.5t-56 24.5q-27 0 -42 -10.5t-21 -20.5l-6 -10h-49l18 196h201v-45h-164l-9 -105h1q6 8 24.5 22t53.5 14q39 0 65.5 -17t39.5 -44t13 -57
t-14 -58.5t-41.5 -47t-69.5 -18.5z" />
    <glyph glyph-name="six.numr" horiz-adv-x="341" 
d="M176 347q-45 0 -74 22t-43.5 57.5t-14.5 77.5q0 33 10 67.5t31 64.5t55 49t82 19q20 0 35.5 -3.5l15.5 -3.5v-44l-16.5 3t-34.5 3q-46 0 -73 -21t-40 -51.5t-14 -57.5q3 7 13 19t28.5 21.5t46.5 9.5q38 0 63 -16.5t37.5 -42.5t12.5 -54q0 -30 -13.5 -57t-40 -44.5
t-66.5 -17.5zM176 389q32 0 52.5 21t20.5 54t-20.5 54t-52.5 21q-33 0 -54 -21t-21 -54t21 -54t54 -21z" />
    <glyph glyph-name="seven.numr" horiz-adv-x="157" 
d="M91 357q2 56 16 104.5t33 88.5t38 68.5t30 43.5h-186v45h242v-37l-18 -23.5t-41.5 -65.5t-42.5 -99t-21 -125h-50z" />
    <glyph glyph-name="eight.numr" horiz-adv-x="238" 
d="M68 349q-55 0 -90 28.5t-35 73.5q0 29 13.5 48t28.5 28.5t21 11.5v2q-5 2 -17.5 10.5t-23.5 24.5t-11 40q0 40 31.5 66.5t82.5 26.5t82.5 -26.5t31.5 -66.5q0 -24 -11.5 -40t-24.5 -24.5t-17 -10.5v-2q5 -2 20 -11.5t28.5 -28t13.5 -48.5q0 -45 -34.5 -73.5t-88.5 -28.5z
M68 558q33 0 49.5 17.5t16.5 38.5t-17 38.5t-49 17.5q-33 0 -50 -17.5t-17 -38.5t17 -38.5t50 -17.5zM68 389q37 0 56 21t19 45q0 25 -19 45t-56 20q-38 0 -56.5 -20t-18.5 -45q0 -24 19 -45t56 -21z" />
    <glyph glyph-name="nine.numr" horiz-adv-x="341" 
d="M166 704q45 0 74 -22t43 -57.5t14 -77.5q0 -33 -9.5 -67.5t-31 -64.5t-55 -49t-81.5 -19q-21 0 -36.5 3.5l-15.5 3.5v44l16.5 -3t35.5 -3q45 0 72.5 21t40 51.5t14.5 57.5q-4 -7 -14 -19t-28 -21.5t-47 -9.5q-37 0 -62.5 16.5t-38 42.5t-12.5 54q0 30 13.5 57t40.5 44.5
t67 17.5zM166 662q-32 0 -52.5 -21t-20.5 -54t20.5 -54t52.5 -21t53 21t21 54t-21 54t-53 21z" />
    <glyph glyph-name="colon.case" horiz-adv-x="252" 
d="M126 557q-20 0 -33.5 14t-13.5 33t13.5 32.5t33.5 13.5q19 0 33 -13.5t14 -32.5t-14 -33t-33 -14zM126 100q-20 0 -33.5 14t-13.5 33t13.5 33t33.5 14q19 0 33 -14t14 -33t-14 -33t-33 -14z" />
    <glyph glyph-name="parenleft.case" horiz-adv-x="395" 
d="M345 -151q-67 12 -121.5 57.5t-94 115.5t-61 156t-21.5 179t21.5 179t61 155.5t94 115t121.5 57.5v-50q-53 -12 -97.5 -53.5t-77.5 -104t-50.5 -139.5t-17.5 -160q0 -84 17.5 -160.5t50.5 -139.5t77.5 -104t97.5 -53v-51z" />
    <glyph glyph-name="parenright.case" horiz-adv-x="395" 
d="M50 864q67 -12 121.5 -57.5t94 -115.5t60.5 -155.5t21 -178.5t-21 -179t-60.5 -156t-94 -115.5t-121.5 -57.5v51q53 12 97.5 53t77 104t50.5 139.5t18 160.5q0 83 -18 160t-50.5 139.5t-77 104t-97.5 53.5v50z" />
    <glyph glyph-name="braceleft.case" horiz-adv-x="403" 
d="M250 -151q-59 0 -90 31.5t-31 89.5v294q0 69 -69 69h-27v47h27q69 0 69 69v294q0 59 31 90t90 31h103v-49h-101q-69 0 -69 -69v-294q0 -34 -10.5 -57.5t-42.5 -36.5v-3q32 -13 42.5 -36.5t10.5 -57.5v-294q0 -68 69 -68h101v-50h-103z" />
    <glyph glyph-name="braceright.case" horiz-adv-x="403" 
d="M153 864q59 0 90 -31t31 -90v-294q0 -69 69 -69h26v-47h-26q-69 0 -69 -69v-294q0 -58 -31 -89.5t-90 -31.5h-103v50h101q68 0 68 68v294q0 35 10.5 58t43.5 36v3q-33 13 -43.5 36.5t-10.5 57.5v294q0 69 -68 69h-101v49h103z" />
    <glyph glyph-name="bracketleft.case" horiz-adv-x="426" 
d="M79 -151v1015h267v-49h-213v-916h213v-50h-267z" />
    <glyph glyph-name="bracketright.case" horiz-adv-x="426" 
d="M347 864v-1015h-267v50h212v916h-212v49h267z" />
    <glyph glyph-name="uni03060301" horiz-adv-x="0" 
d="M209 756h-50l86 161h60zM181 610q-51 0 -80 18.5t-42.5 42.5t-17 42l-3.5 18h45l2.5 -12t12 -28t29.5 -28t54 -12q35 0 54.5 12t29 28t12 28l2.5 12h45l-3.5 -18t-17 -42t-42.5 -42.5t-80 -18.5z" />
    <glyph glyph-name="uni03060300" horiz-adv-x="0" 
d="M156 756l-96 161h60l85 -161h-49zM181 610q-51 0 -80 18.5t-42.5 42.5t-17 42l-3.5 18h45l2.5 -12t12 -28t29.5 -28t54 -12q35 0 54.5 12t29 28t12 28l2.5 12h45l-3.5 -18t-17 -42t-42.5 -42.5t-80 -18.5z" />
    <glyph glyph-name="uni03060309" horiz-adv-x="0" 
d="M162 744v32q0 8 3.5 15.5t12.5 11.5l12 6q22 11 34.5 25t12.5 31q0 15 -11 28.5t-38 13.5q-31 0 -41 -16.5t-10 -30.5h-41q0 36 23.5 60.5t67.5 24.5q43 0 68 -22.5t25 -55.5q0 -25 -17 -47.5t-58 -41.5l-2 -1v-33h-41zM181 610q-51 0 -80 18.5t-42.5 42.5t-17 42
l-3.5 18h45l2.5 -12t12 -28t29.5 -28t54 -12q35 0 54.5 12t29 28t12 28l2.5 12h45l-3.5 -18t-17 -42t-42.5 -42.5t-80 -18.5z" />
    <glyph glyph-name="uni03060303" horiz-adv-x="0" 
d="M243 777q-24 0 -40.5 11.5t-29 26.5t-24.5 26.5t-28 11.5q-18 0 -26 -19t-8 -52h-42q0 45 16.5 79t57.5 34q25 0 42 -11.5t29.5 -26.5t24.5 -26.5t26 -11.5q18 0 26 19t8 52h41q0 -45 -16.5 -79t-56.5 -34zM181 610q-51 0 -80 18.5t-42.5 42.5t-17 42l-3.5 18h45l2.5 -12
t12 -28t29.5 -28t54 -12q35 0 54.5 12t29 28t12 28l2.5 12h45l-3.5 -18t-17 -42t-42.5 -42.5t-80 -18.5z" />
    <glyph glyph-name="uni03020301" horiz-adv-x="0" 
d="M329 729l-49 1l85 161h60zM23 607l114 141h52l114 -141h-53l-87 107l-87 -107h-53z" />
    <glyph glyph-name="uni03020300" horiz-adv-x="0" 
d="M293 729l-96 162h60l85 -161zM23 607l114 141h52l114 -141h-53l-87 107l-87 -107h-53z" />
    <glyph glyph-name="uni03020309" horiz-adv-x="0" 
d="M283 718v32q0 8 3.5 15t11.5 11l13 7q22 11 34 24.5t12 31.5q0 15 -11 28.5t-38 13.5q-31 0 -40.5 -16.5t-9.5 -30.5h-42q0 35 23.5 60t68.5 25q43 0 67.5 -22.5t24.5 -56.5q0 -24 -17 -46.5t-58 -42.5l-2 -1v-32h-40zM23 607l114 141h52l114 -141h-53l-87 107l-87 -107
h-53z" />
    <glyph glyph-name="uni03020303" horiz-adv-x="0" 
d="M226 788q-24 0 -40.5 11.5t-29 26.5t-24.5 26.5t-28 11.5q-18 0 -26 -19t-8 -52h-42q0 45 16.5 79t57.5 34q25 0 42 -11.5t29.5 -26t24.5 -26t26 -11.5q18 0 26 19t8 51h41q0 -44 -16.5 -78.5t-56.5 -34.5zM23 607l115 141h51l115 -141h-54l-86 107l-87 -107h-54z" />
    </font>
</defs>
</svg>
