<?xml version="1.0" standalone="no"?>
<!DOCTYPE svg PUBLIC "-//W3C//DTD SVG 1.1//EN" "http://www.w3.org/Graphics/SVG/1.1/DTD/svg11.dtd" >
<svg xmlns="http://www.w3.org/2000/svg" xmlns:xlink="http://www.w3.org/1999/xlink" version="1.1">
<metadata>
Created by FontForge 20170731 at Sun Aug 15 09:04:23 2021
 By Aleksey,,,
Copyright 2021 The Be Vietnam Pro Project Authors (https://github.com/bettergui/BeVietnamPro)
</metadata>
<defs>
<font id="BeVietnamPro-MediumItalic" horiz-adv-x="0" >
  <font-face 
    font-family="Be Vietnam Pro Medium"
    font-weight="500"
    font-style="italic"
    font-stretch="normal"
    units-per-em="1000"
    panose-1="0 0 0 0 0 0 0 0 0 0"
    ascent="800"
    descent="-200"
    x-height="530"
    cap-height="740"
    bbox="-148 -261 1129 1211"
    underline-thickness="50"
    underline-position="-175"
    slope="-12"
    unicode-range="U+000D-2265"
  />
<missing-glyph horiz-adv-x="500" 
 />
    <glyph glyph-name="f_f.liga" unicode="ff" horiz-adv-x="743" 
d="M63 0l93 438h-91l20 92h90l17 81q10 45 33 81t64.5 57t104.5 21q25 0 43 -4l18 -4l-19 -86l-13 2.5t-26 2.5q-41 0 -62 -20t-29 -54l-16 -77h237l17 81q9 45 32.5 81t65 57t104.5 21q24 0 42 -4l18 -4l-18 -86l-13.5 2.5t-26.5 2.5q-41 0 -62 -20t-28 -54l-16 -77h112
l-20 -92h-112l-92 -438h-115l92 438h-236l-93 -438h-115z" />
    <glyph glyph-name="f_f_i.liga" unicode="ffi" horiz-adv-x="1010" 
d="M63 0l93 438h-91l20 92h90l17 81q10 45 33 81t64.5 57t104.5 21q25 0 43 -4l18 -4l-19 -86l-13 2.5t-26 2.5q-41 0 -62 -20t-29 -54l-16 -77h237l17 81q9 45 32.5 81t65 57t104.5 21q24 0 42 -4l18 -4l-18 -86l-13.5 2.5t-26.5 2.5q-41 0 -62 -20t-28 -54l-16 -77h341
l-113 -530h-115l94 438h-227l-92 -438h-115l92 438h-236l-93 -438h-115zM959 617q-31 0 -51 21t-20 49q0 29 20 49.5t51 20.5q30 0 50.5 -20.5t20.5 -49.5t-20.5 -49.5t-50.5 -20.5z" />
    <glyph glyph-name="f_i.liga" unicode="fi" horiz-adv-x="658" 
d="M63 0l93 438h-91l20 92h90l17 81q10 45 33 81t64.5 57t104.5 21q25 0 43 -4l18 -4l-19 -86l-13 2.5t-26 2.5q-41 0 -62 -20t-29 -54l-16 -77h342l-113 -530h-115l93 438h-226l-93 -438h-115zM607 617q-31 0 -51 21t-20 49q0 29 20 49.5t51 20.5t51.5 -20.5t20.5 -49.5
t-20.5 -49.5t-51.5 -20.5z" />
    <glyph glyph-name="colon_b_e_colon.liga" unicode="&#x3a;be&#x3a;" horiz-adv-x="796" 
d="M200 458l61 177h146q55 0 84 16.5t41 43t14 55.5q43 -13 63 -43t20 -74q0 -78 -57.5 -126.5t-154.5 -48.5h-217zM44 0l93 267h229q78 0 120 25t58 65t13 83q61 -13 97 -60t36 -114q0 -54 -23.5 -102.5t-65.5 -85t-97.5 -57.5t-119.5 -21h-340z" />
    <glyph glyph-name="colon_d_d_colon.liga" unicode="&#x3a;dd&#x3a;" horiz-adv-x="613" 
d="M213 136q-51 0 -85 23.5t-51 62.5t-17 84q0 41 13.5 82t40 75t65 54.5t88.5 20.5q41 0 66 -12.5t38.5 -28.5t17.5 -26h5l21 94h-97l14 70h98l13 65h102l-14 -65h68l-14 -70h-68l-90 -422h-102l10 49h-5l-12 -14t-37.5 -28t-67.5 -14zM162 313q0 -38 20.5 -66.5
t63.5 -28.5q38 0 65.5 22.5t42 55.5t14.5 65q0 38 -20.5 66.5t-64.5 28.5q-38 0 -65 -22t-41.5 -55t-14.5 -66zM-4 0l14 68h504l-14 -68h-504z" />
    <glyph glyph-name="colon_s_t_a_r_colon.liga" unicode="&#x3a;star&#x3a;" horiz-adv-x="831" 
d="M173 51l111 238l-154 146l235 18l139 219l46 -217l229 -20l-214 -144l8 -240l-167 132z" />
    <glyph glyph-name=".notdef" horiz-adv-x="500" 
 />
    <glyph glyph-name=".null" 
 />
    <glyph glyph-name="nonmarkingreturn" horiz-adv-x="333" 
 />
    <glyph glyph-name="CR" unicode="&#xd;" horiz-adv-x="600" 
 />
    <glyph glyph-name="space" unicode=" " horiz-adv-x="230" 
 />
    <glyph glyph-name="exclam" unicode="!" horiz-adv-x="260" 
d="M70 201l105 539h119l-126 -539h-98zM89 -9q-30 0 -49 20t-19 48t19 48t49 20q29 0 48.5 -20t19.5 -48q0 -29 -19.5 -48.5t-48.5 -19.5z" />
    <glyph glyph-name="quotedbl" unicode="&#x22;" horiz-adv-x="343" 
d="M253 528l55 212h106l-87 -212h-74zM103 528l55 212h106l-87 -212h-74z" />
    <glyph glyph-name="numbersign" unicode="#" horiz-adv-x="796" 
d="M80 0l80 193h-148l44 101h145l63 151h-145l43 101h143l81 194h107l-80 -194h144l80 194h108l-81 -194h148l-43 -101h-146l-63 -151h146l-44 -101h-143l-80 -193h-108l80 193h-144l-80 -193h-107zM309 294h144l62 151h-144z" />
    <glyph glyph-name="dollar" unicode="$" horiz-adv-x="661" 
d="M224 -99l20 95q-65 10 -105 36.5t-61.5 59t-30 62.5t-9.5 50l-1 20h114l2 -16.5t11.5 -39.5t33 -44.5t67.5 -30.5l51 243l-23 9q-42 17 -77 41.5t-56 61t-21 89.5q0 55 30.5 104t89 79t142.5 30h3l19 87h79l-20 -95q53 -12 87 -36.5t52 -53.5t26 -56t9 -44l1 -17h-111
l-2 13t-10 32t-25 37t-48 29l-49 -233l7 -3q44 -18 84 -42.5t65 -62.5t25 -97q0 -60 -35 -109.5t-96 -79t-140 -29.5l-19 -89h-79zM254 544q0 -37 23.5 -61t61.5 -40l45 212q-61 -5 -95.5 -36t-34.5 -75zM478 205q0 37 -25 60.5t-64 40.5l-46 -218q57 6 96 37t39 80z" />
    <glyph glyph-name="percent" unicode="%" horiz-adv-x="858" 
d="M256 446q-46 0 -76.5 19.5t-45.5 50t-15 65.5q0 41 19.5 79.5t57.5 64t93 25.5q47 0 77.5 -19t45 -49.5t14.5 -65.5q0 -41 -19.5 -80t-57.5 -64.5t-93 -25.5zM124 0l555 740h95l-555 -740h-95zM261 513q30 0 50 15t30.5 37.5t10.5 45.5q0 28 -17 50.5t-52 22.5
q-29 0 -49.5 -15t-31 -37.5t-10.5 -45.5q0 -28 17 -50.5t52 -22.5zM616 -10q-46 0 -76.5 19.5t-45.5 50t-15 65.5q0 41 19.5 80t57.5 64.5t93 25.5q46 0 76.5 -19t45.5 -50t15 -65q0 -41 -19.5 -80t-57.5 -65t-93 -26zM621 57q29 0 49.5 15t31.5 37.5t11 45.5q0 28 -17 50.5
t-53 22.5q-29 0 -49.5 -15t-31 -37.5t-10.5 -45.5q0 -28 17 -50.5t52 -22.5z" />
    <glyph glyph-name="ampersand" unicode="&#x26;" horiz-adv-x="680" 
d="M246 -10q-67 0 -121 24.5t-85.5 70t-31.5 106.5q0 58 27 101t71.5 74t94.5 54q-22 37 -35.5 73.5t-13.5 75.5q0 58 27 98.5t71 61.5t94 21q46 0 87.5 -18.5t68 -54t26.5 -86.5q0 -54 -28 -92t-70.5 -64t-83.5 -43l123 -168q22 39 38.5 89t27.5 111h97q-14 -89 -41 -158.5
t-63 -121.5l106 -144h-134l-46 64q-46 -38 -98.5 -56t-107.5 -18zM251 574q0 -28 12.5 -56.5t32.5 -59.5h1q17 7 39.5 17.5t44 26t35.5 37t14 49.5q0 39 -27 59t-59 20q-34 0 -63.5 -23t-29.5 -70zM116 206q0 -56 40.5 -90t104.5 -34q77 0 139 56l-116 163q-10 13 -19 26
t-18 25q-35 -15 -65 -34.5t-48 -46.5t-18 -65z" />
    <glyph glyph-name="quotesingle" unicode="'" horiz-adv-x="193" 
d="M103 528l55 212h106l-87 -212h-74z" />
    <glyph glyph-name="parenleft" unicode="(" horiz-adv-x="416" 
d="M268 -215q-76 23 -127.5 83t-78 143t-26.5 173q0 86 20 173.5t58 168t93 145t125.5 105t156.5 47.5l-23 -105q-58 -8 -106.5 -43.5t-87 -90t-65 -121.5t-41 -139.5t-14.5 -143.5q0 -67 18.5 -127.5t49.5 -104t71 -58.5z" />
    <glyph glyph-name="parenright" unicode=")" horiz-adv-x="409" 
d="M148 823q76 -23 127.5 -83t77.5 -142.5t26 -173.5q0 -85 -19.5 -172.5t-57.5 -168t-93 -145.5t-126 -105.5t-156 -47.5l23 105q57 9 106 44.5t87.5 90t65 121.5t40.5 139.5t14 142.5q0 67 -18 127.5t-49 104t-71 58.5z" />
    <glyph glyph-name="asterisk" unicode="*" horiz-adv-x="502" 
d="M226 339l-70 50l90 121l-144 45l26 83l144 -49l-3 151h87l-2 -151l144 49l26 -83l-144 -45l90 -121l-70 -50l-87 122z" />
    <glyph glyph-name="plus" unicode="+" horiz-adv-x="599" 
d="M214 119l31 147h-147l20 93h147l31 148h94l-31 -148h147l-20 -93h-147l-32 -147h-93z" />
    <glyph glyph-name="comma" unicode="," horiz-adv-x="267" 
d="M8 -130l76 123q-28 2 -46.5 21.5t-18.5 48.5q0 32 21.5 51.5t51.5 19.5q31 0 52.5 -19.5t21.5 -53.5q0 -31 -22.5 -70t-74.5 -111l-7 -10h-54z" />
    <glyph glyph-name="hyphen" unicode="-" horiz-adv-x="598" 
d="M112 266l6 93h373l-7 -93h-372z" />
    <glyph glyph-name="period" unicode="." horiz-adv-x="264" 
d="M91 -10q-31 0 -51.5 21.5t-20.5 50.5q0 30 20.5 51t51.5 21t51.5 -21t20.5 -51t-20.5 -51t-51.5 -21z" />
    <glyph glyph-name="slash" unicode="/" horiz-adv-x="528" 
d="M-36 -161l557 987h114l-557 -987h-114z" />
    <glyph glyph-name="zero" unicode="0" horiz-adv-x="661" 
d="M295 -10q-81 0 -134.5 41.5t-80 109.5t-26.5 150q0 63 15.5 128t44.5 124t71 106t96.5 74t119.5 27q82 0 135.5 -41.5t79.5 -109.5t26 -150q0 -63 -15 -128t-44 -124t-71 -106t-96.5 -74t-120.5 -27zM301 94q50 0 91 33.5t70.5 87t45.5 116.5t16 123q0 52 -13.5 95.5
t-41.5 69.5t-72 26q-51 0 -92 -33.5t-70.5 -87t-45 -116.5t-15.5 -123q0 -52 13 -95.5t41 -69.5t73 -26z" />
    <glyph glyph-name="one" unicode="1" horiz-adv-x="388" 
d="M385 740l-157 -740h-116l119 559l-140 -1l15 69l26 7q58 17 98 38t78 58l10 10h67z" />
    <glyph glyph-name="two" unicode="2" horiz-adv-x="645" 
d="M19 0l18 81l213 160q72 54 130 100t91.5 91.5t33.5 96.5q0 53 -35 85t-95 32q-43 0 -71 -15t-44.5 -36.5t-24 -43.5t-9.5 -36.5l-2 -14.5h-112l2.5 18t11 46.5t25.5 60.5t46.5 60.5t74.5 46.5t108 18q79 0 133 -29t82 -77.5t28 -107.5q0 -65 -36.5 -122t-104 -114
t-160.5 -124l-100 -72h349l-23 -104h-529z" />
    <glyph glyph-name="three" unicode="3" horiz-adv-x="642" 
d="M313 -10q-70 0 -117 17t-76.5 43t-45 56t-22 56t-7 43l-0.5 17h111l1 -13.5t8.5 -33.5t24 -40t46 -33.5t77.5 -13.5q55 0 91.5 19.5t55 50.5t18.5 65q0 38 -21 62.5t-53 36t-66 11.5h-92l20 93h97q67 0 109.5 32.5t42.5 86.5q0 46 -33.5 76.5t-94.5 30.5q-43 0 -71 -12.5
t-44.5 -31.5t-24 -38t-9.5 -32l-2 -13h-108l2 16.5t10 42t25 54t46 54.5t73.5 42t107.5 16q78 0 131 -26.5t80 -69.5t27 -94q0 -42 -16 -73t-40.5 -52.5t-50 -34.5t-43.5 -18l-1 -6q19 -7 47 -26.5t49.5 -52.5t21.5 -82q0 -54 -32 -106t-95 -85.5t-157 -33.5z" />
    <glyph glyph-name="four" unicode="4" horiz-adv-x="703" 
d="M357 0l36 165l-363 1l22 104l431 470h149l-101 -475h124l-21 -100h-125l-35 -165h-117zM171 265h243l73 345z" />
    <glyph glyph-name="five" unicode="5" horiz-adv-x="670" 
d="M309 -10q-65 0 -110 17t-73 43.5t-43 56.5t-21.5 56.5t-7.5 43l-1 16.5h110l1 -13.5t8 -34t22.5 -40.5t44 -34t72.5 -14q60 0 100.5 26.5t61 67.5t20.5 84q0 36 -15.5 68.5t-47.5 52.5t-81 20q-44 0 -73.5 -12.5t-47.5 -29.5t-26 -29.5l-8 -12.5h-113l117 418h442
l-22 -102h-346l-57 -202h4l16.5 15t52 30.5t92.5 15.5q76 0 127 -32.5t76.5 -84.5t25.5 -111q0 -50 -19 -100t-56.5 -90.5t-93.5 -64.5t-131 -24z" />
    <glyph glyph-name="six" unicode="6" horiz-adv-x="679" 
d="M333 -10q-91 0 -150.5 38t-88.5 101.5t-29 138.5q0 88 31.5 174t91 155.5t143.5 111t190 41.5q72 0 108 -8.5l36 -8.5l-22 -105l-33.5 9t-88.5 9q-108 0 -189 -61t-123 -162q25 28 64.5 49t97.5 21q82 0 135.5 -33t79.5 -86t26 -112q0 -49 -17.5 -97.5t-53 -88t-87.5 -63
t-121 -23.5zM332 88q53 0 89 25t55 64.5t19 81.5q0 37 -15.5 70t-46.5 53.5t-78 20.5q-55 0 -92 -25.5t-56 -64.5t-19 -80q0 -38 15.5 -71t47.5 -53.5t81 -20.5z" />
    <glyph glyph-name="seven" unicode="7" horiz-adv-x="589" 
d="M123 0q21 99 56.5 185.5t78.5 159t86 130t81 98.5t63 64h-380l21 103h520l-17 -85l-23 -22t-60 -63t-81.5 -99t-88 -131t-78.5 -158.5t-54 -181.5h-124z" />
    <glyph glyph-name="eight" unicode="8" horiz-adv-x="632" 
d="M301 -10q-90 0 -149 30t-88 78t-29 100q0 43 19.5 83.5t59 72t97.5 46.5v5q-49 24 -75 62.5t-26 85.5q0 54 33.5 99t93 71.5t135.5 26.5q73 0 128.5 -24.5t87 -67t31.5 -95.5q0 -56 -37 -103t-110 -71v-5q58 -25 86.5 -71t28.5 -97q0 -55 -32.5 -107t-96 -85.5
t-157.5 -33.5zM361 436q48 0 80 16.5t48 43t16 54.5q0 41 -33 73.5t-100 32.5q-49 0 -81 -16.5t-48 -43t-16 -53.5q0 -41 33.5 -74t100.5 -33zM302 85q55 0 92 20.5t55.5 52.5t18.5 66q0 31 -16.5 59.5t-49.5 46.5t-83 18q-55 0 -91.5 -20.5t-55 -52t-18.5 -65.5
q0 -32 16 -60.5t49 -46.5t83 -18z" />
    <glyph glyph-name="nine" unicode="9" horiz-adv-x="679" 
d="M381 750q92 0 151.5 -38t88 -101t28.5 -139q0 -88 -31 -174t-90.5 -155.5t-144 -111t-190.5 -41.5q-71 0 -107 8.5l-36 8.5l22 105l33.5 -9t87.5 -9q109 0 190 61t122 162q-24 -28 -63.5 -49t-98.5 -21q-81 0 -134.5 33t-79.5 86t-26 112q0 49 17.5 97.5t52.5 88t87.5 63
t120.5 23.5zM383 652q-53 0 -89.5 -25t-55 -64.5t-18.5 -81.5q0 -37 15 -70t46 -53.5t79 -20.5q55 0 92 25.5t56 64.5t19 80q0 38 -16 71t-47.5 53.5t-80.5 20.5z" />
    <glyph glyph-name="colon" unicode=":" horiz-adv-x="268" 
d="M181 396q-32 0 -52 21.5t-20 50.5q0 30 20 51t52 21q30 0 50.5 -21t20.5 -51q0 -29 -20.5 -50.5t-50.5 -21.5zM92 -10q-31 0 -51.5 21.5t-20.5 50.5q0 30 20.5 51t51.5 21t51.5 -21t20.5 -51t-20.5 -51t-51.5 -21z" />
    <glyph glyph-name="semicolon" unicode=";" horiz-adv-x="269" 
d="M181 396q-32 0 -52 21.5t-20 50.5q0 30 20 51t52 21q30 0 50.5 -21t20.5 -51q0 -29 -20.5 -50.5t-50.5 -21.5zM9 -130l76 123q-28 2 -46.5 21.5t-18.5 48.5q0 32 21.5 51.5t51.5 19.5q31 0 52.5 -19.5t21.5 -53.5q0 -31 -22.5 -70t-74.5 -111l-7 -10h-54z" />
    <glyph glyph-name="less" unicode="&#x3c;" horiz-adv-x="562" 
d="M452 114l-365 188l14 68l446 189l-21 -104l-307 -126l254 -125z" />
    <glyph glyph-name="equal" unicode="=" horiz-adv-x="711" 
d="M121 373l20 96h500l-20 -96h-500zM73 150l20 96h500l-20 -96h-500z" />
    <glyph glyph-name="greater" unicode="&#x3e;" horiz-adv-x="562" 
d="M62 114l21 104l308 126l-255 125l21 90l365 -189l-14 -68z" />
    <glyph glyph-name="question" unicode="?" horiz-adv-x="607" 
d="M224 198l3 20q6 38 27.5 67t51 52.5t61.5 44.5t59.5 43.5t45 49t17.5 60.5q0 51 -36 82t-91 31q-43 0 -70.5 -14.5t-44 -36.5t-24 -44t-9.5 -37l-2 -15h-112l2.5 18t10.5 46.5t25.5 60t47.5 60t75 46.5t109 18q72 0 125.5 -27.5t82.5 -74t29 -104.5q0 -49 -18 -85.5
t-46 -64t-60.5 -49.5t-63 -42t-52 -41.5t-27.5 -47.5l-4 -16h-112zM266 -10q-30 0 -49 20.5t-19 48.5t19 48t49 20q29 0 48.5 -20t19.5 -48q0 -29 -19.5 -49t-48.5 -20z" />
    <glyph glyph-name="at" unicode="@" horiz-adv-x="988" 
d="M483 -139q-111 0 -193 34t-135.5 92.5t-79.5 132t-26 152.5q0 88 31.5 174t93 156t152.5 112t210 42q110 0 189.5 -34t130.5 -90.5t75 -125t24 -137.5q0 -56 -15 -108t-44 -92.5t-70 -64t-93 -23.5q-44 0 -70.5 13.5t-40 30.5t-18.5 30.5l-5 13.5h-7l-8.5 -13.5
t-27 -30.5t-47.5 -30.5t-69 -13.5q-56 0 -92.5 26t-54 68.5t-17.5 90.5q0 45 14.5 90t42 82.5t67.5 60t90 22.5q37 0 61.5 -11.5t39 -26.5t20.5 -26.5l6 -11.5h6l14 68h101l-44 -206q-8 -36 -9 -69t11 -53t43 -20q34 0 61 28.5t43 74.5t16 100q0 53 -18 105.5t-56 96
t-99.5 70t-148.5 26.5q-97 0 -170.5 -34.5t-122 -91.5t-73 -126.5t-24.5 -139.5q0 -63 20 -121t61 -103.5t104.5 -72t149.5 -26.5q50 0 94.5 8.5t78 19.5t52.5 19.5l19 8.5l32 -84l-20 -9.5t-56.5 -21.5t-87 -21.5t-111.5 -9.5zM464 164q40 0 69.5 25t45 63t15.5 77
q0 43 -21.5 75.5t-68.5 32.5q-41 0 -70.5 -25t-45 -63t-15.5 -76q0 -44 22 -76.5t69 -32.5z" />
    <glyph glyph-name="A" unicode="A" horiz-adv-x="718" 
d="M-29 0l416 740h144l101 -740h-114l-22 166h-304l-92 -166h-129zM250 270h233l-44 341z" />
    <glyph glyph-name="B" unicode="B" horiz-adv-x="680" 
d="M24 0l157 740h278q67 0 109.5 -24t63.5 -61.5t21 -80.5q0 -56 -34.5 -108t-98.5 -74l-1 -6q53 -17 78.5 -57t25.5 -88q0 -42 -18 -84.5t-53 -78t-86 -57t-116 -21.5h-326zM441 640h-165l-45 -214h167q45 0 76.5 19t47.5 48t16 59q0 35 -23.5 61.5t-73.5 26.5zM385 334
h-174l-49 -234h192q47 0 81 20.5t52 52.5t18 64q0 38 -28.5 67.5t-91.5 29.5z" />
    <glyph glyph-name="C" unicode="C" horiz-adv-x="757" 
d="M367 -10q-80 0 -138.5 26.5t-96.5 72t-56.5 104t-18.5 123.5q0 77 26 153.5t76.5 140t126 102t174.5 38.5q72 0 121.5 -19t80.5 -48.5t48 -63t23.5 -63t8 -48.5l1.5 -19h-117l-1 16t-8.5 39t-25.5 46.5t-51 39.5t-86 16q-68 0 -120 -28.5t-87.5 -75.5t-53.5 -104
t-18 -113q0 -61 21.5 -113t65.5 -84.5t114 -32.5q50 0 87 16t61.5 39t39 46.5t20.5 39l6 15.5h118l-6 -19t-20.5 -48.5t-39 -63t-62.5 -63t-90.5 -48.5t-122.5 -19z" />
    <glyph glyph-name="D" unicode="D" horiz-adv-x="713" 
d="M24 0l157 740h193q82 0 142 -25.5t99 -69.5t58 -100.5t19 -118.5q0 -76 -27.5 -151t-81.5 -137.5t-133 -100t-181 -37.5h-245zM362 638h-86l-114 -535h114q71 0 126.5 28t94 74.5t58.5 102.5t20 112q0 57 -22.5 107t-70 80.5t-120.5 30.5z" />
    <glyph glyph-name="E" unicode="E" horiz-adv-x="616" 
d="M24 0l157 740h467l-21 -102h-351l-45 -211h305l-21 -101h-305l-48 -224h356l-22 -102h-472z" />
    <glyph glyph-name="F" unicode="F" horiz-adv-x="618" 
d="M24 0l157 740h474l-22 -102h-357l-48 -227h311l-21 -101h-312l-66 -310h-116z" />
    <glyph glyph-name="G" unicode="G" horiz-adv-x="761" 
d="M371 -10q-79 0 -138 26.5t-98 72t-58 104.5t-19 124q0 77 25.5 153.5t76.5 140t126.5 101.5t175.5 38q71 0 120 -19t80 -48.5t47.5 -63t23.5 -63t8.5 -48.5l1.5 -19h-117l-1 16t-8.5 39t-25.5 46.5t-51 39.5t-85 16q-69 0 -121 -28.5t-87.5 -75.5t-53 -103.5
t-17.5 -112.5q0 -61 22 -113.5t67.5 -85t116.5 -32.5q90 0 147 56.5t76 143.5h-202l20 93h313l-7 -53q-14 -105 -61.5 -182.5t-123 -120t-173.5 -42.5z" />
    <glyph glyph-name="H" unicode="H" horiz-adv-x="716" 
d="M24 0l157 740h116l-66 -312h325l67 312h116l-157 -740h-116l68 324h-325l-69 -324h-116z" />
    <glyph glyph-name="I" unicode="I" horiz-adv-x="274" 
d="M24 0l157 740h116l-157 -740h-116z" />
    <glyph glyph-name="J" unicode="J" horiz-adv-x="484" 
d="M89 -10q-40 0 -68.5 6l-28.5 6l21 101l26 -4.5t54 -4.5q85 0 132 45.5t63 119.5l103 481h116l-103 -484q-17 -78 -54.5 -138t-101.5 -94t-159 -34z" />
    <glyph glyph-name="K" unicode="K" horiz-adv-x="660" 
d="M24 0l157 740h116l-67 -318l349 317h159l-414 -369l264 -370h-137l-239 339l-72 -339h-116z" />
    <glyph glyph-name="L" unicode="L" horiz-adv-x="611" 
d="M24 0l157 740h116l-135 -638h351l-22 -102h-467z" />
    <glyph glyph-name="M" unicode="M" horiz-adv-x="870" 
d="M24 0l157 740h153l112 -421l292 421h155l-157 -740h-116l116 550l-257 -366h-111l-106 388l-122 -572h-116z" />
    <glyph glyph-name="N" unicode="N" horiz-adv-x="743" 
d="M24 0l157 740h105l250 -535l113 535h117l-157 -740h-106l-250 529l-113 -529h-116z" />
    <glyph glyph-name="O" unicode="O" horiz-adv-x="795" 
d="M371 -10q-80 0 -139 26.5t-97.5 72.5t-57.5 104.5t-19 123.5q0 77 26.5 153.5t78 140t126 101.5t170.5 38q81 0 140 -26.5t97.5 -72.5t57 -105t18.5 -123q0 -77 -26.5 -153.5t-77.5 -140t-125.5 -101.5t-171.5 -38zM375 95q67 0 119 29t87.5 77t54 105.5t18.5 114.5
q0 59 -21 110t-65 82.5t-112 31.5q-67 0 -118.5 -29t-87.5 -77t-54.5 -105.5t-18.5 -114.5q0 -59 21 -110t65 -82.5t112 -31.5z" />
    <glyph glyph-name="P" unicode="P" horiz-adv-x="648" 
d="M24 0l157 740h240q82 0 136 -31t80.5 -81t26.5 -106q0 -49 -19 -96.5t-56.5 -87t-92 -62.5t-126.5 -23h-176l-54 -253h-116zM410 638h-134l-60 -283h162q54 0 91.5 23.5t57 60t19.5 74.5q0 32 -14.5 60.5t-44.5 46.5t-77 18z" />
    <glyph glyph-name="Q" unicode="Q" horiz-adv-x="812" 
d="M371 -10q-80 0 -139 26.5t-97.5 72.5t-57.5 104.5t-19 123.5q0 77 26.5 153.5t78 140t126 101.5t170.5 38q81 0 140 -26.5t97.5 -72.5t57 -105t18.5 -123q0 -81 -29.5 -163t-86.5 -145l88 -115h-135l-36 46q-42 -26 -92.5 -41t-109.5 -15zM375 95q38 0 70.5 10t60.5 27
l-105 135l87 67l98 -127q33 46 50.5 102.5t17.5 111.5q0 59 -21 110t-65 82.5t-112 31.5q-67 0 -118.5 -29t-87.5 -77t-54.5 -105.5t-18.5 -114.5q0 -59 21 -110t65 -82.5t112 -31.5z" />
    <glyph glyph-name="R" unicode="R" horiz-adv-x="663" 
d="M24 0l157 740h227q79 0 130.5 -28.5t77 -74.5t25.5 -97q0 -50 -23.5 -98.5t-69 -84.5t-112.5 -49l111 -308h-121l-106 302h-115l-65 -302h-116zM405 638h-129l-51 -238h150q48 0 81 20.5t50 51t17 62.5q0 41 -28.5 72.5t-89.5 31.5z" />
    <glyph glyph-name="S" unicode="S" horiz-adv-x="663" 
d="M319 -10q-73 0 -122.5 17t-80.5 43.5t-47.5 56.5t-23.5 57t-7.5 43.5l-0.5 16.5h117l1 -13.5t8.5 -33.5t25 -40.5t49 -34t82.5 -13.5q44 0 79.5 14.5t57 40.5t21.5 62q0 39 -28.5 63t-71.5 41l-84 34q-42 17 -77.5 41.5t-56.5 61.5t-21 90q0 55 30.5 103.5t89 79
t143.5 30.5q65 0 110 -15.5t73 -40t43.5 -52t22 -52t7.5 -40.5l1 -16h-113l-3 18t-16.5 42t-43 42t-81.5 18q-69 0 -108 -32t-39 -78q0 -37 24 -61t62 -40l79 -32q45 -18 85 -43t65 -63t25 -96q0 -61 -35 -110.5t-97.5 -79t-143.5 -29.5z" />
    <glyph glyph-name="T" unicode="T" horiz-adv-x="684" 
d="M216 0l135 638h-237l22 102h592l-22 -102h-238l-135 -638h-117z" />
    <glyph glyph-name="U" unicode="U" horiz-adv-x="733" 
d="M318 -10q-82 0 -142 34t-86 101t-5 168l96 447h116l-97 -457q-17 -82 15.5 -132.5t118.5 -50.5q81 0 135.5 50.5t72.5 132.5l97 457h117l-98 -461q-30 -143 -121 -216t-219 -73z" />
    <glyph glyph-name="V" unicode="V" horiz-adv-x="692" 
d="M210 0l-101 740h114l79 -610l339 610h129l-416 -740h-144z" />
    <glyph glyph-name="W" unicode="W" horiz-adv-x="994" 
d="M154 0l-35 740h112l25 -579l272 579h116l30 -578l264 578h124l-347 -740h-138l-29 546l-257 -546h-137z" />
    <glyph glyph-name="X" unicode="X" horiz-adv-x="702" 
d="M-13 0l328 388l-149 352h128l113 -278l232 278h150l-325 -382l153 -358h-128l-116 283l-235 -283h-151z" />
    <glyph glyph-name="Y" unicode="Y" horiz-adv-x="646" 
d="M199 0l55 262l-157 478h119l114 -358l264 358h138l-362 -481l-55 -259h-116z" />
    <glyph glyph-name="Z" unicode="Z" horiz-adv-x="644" 
d="M-9 0l18 87l494 551h-377l22 102h534l-18 -86l-495 -552h379l-23 -102h-534z" />
    <glyph glyph-name="bracketleft" unicode="[" horiz-adv-x="471" 
d="M-20 -204l222 1045h314l-21 -99h-199l-179 -847h198l-21 -99h-314z" />
    <glyph glyph-name="backslash" unicode="\" horiz-adv-x="494" 
d="M374 -161h-100l-138 987h100z" />
    <glyph glyph-name="bracketright" unicode="]" horiz-adv-x="454" 
d="M498 841l-222 -1045h-314l21 99h199l179 847h-198l21 99h314z" />
    <glyph glyph-name="asciicircum" unicode="^" horiz-adv-x="553" 
d="M162 569l159 171h95l87 -171h-90l-52 106l-96 -106h-103z" />
    <glyph glyph-name="underscore" unicode="_" horiz-adv-x="707" 
d="M36 -87l9 87h479l-9 -87h-479z" />
    <glyph glyph-name="grave" unicode="`" horiz-adv-x="231" 
d="M130 608l-87 181h108l66 -180z" />
    <glyph glyph-name="a" unicode="a" horiz-adv-x="643" 
d="M325 540q54 0 88 -17t52.5 -40t25.5 -41h6l19 88h115l-113 -530h-115l15 72h-5l-9.5 -12.5t-29 -28.5t-50.5 -28.5t-74 -12.5q-68 0 -113 32.5t-67.5 85.5t-22.5 114q0 56 18 112.5t54 103t87.5 74.5t118.5 28zM338 445q-42 0 -75 -19.5t-56 -52t-35.5 -71t-12.5 -75.5
q0 -38 13 -70.5t40 -52t69 -19.5t75 19.5t56 51.5t35 70.5t12 76.5t-12.5 70.5t-39.5 52t-69 19.5z" />
    <glyph glyph-name="b" unicode="b" horiz-adv-x="653" 
d="M330 -10q-54 0 -88 17t-52.5 40t-25.5 41h-6l-19 -88h-115l163 760h115l-65 -302h6l9 12.5t28.5 28.5t50.5 28.5t75 12.5q68 0 113 -32.5t67.5 -85.5t22.5 -114q0 -56 -18.5 -112.5t-54 -103t-87.5 -74.5t-119 -28zM317 85q42 0 75 19.5t56.5 52t35.5 71t12 75.5
q0 38 -13 70.5t-39.5 52t-69.5 19.5q-41 0 -74 -19.5t-56.5 -51.5t-35.5 -70.5t-12 -76.5t13 -70.5t39.5 -52t68.5 -19.5z" />
    <glyph glyph-name="c" unicode="c" horiz-adv-x="593" 
d="M276 -10q-78 0 -128.5 32.5t-75.5 86.5t-25 118q0 59 20 115t58.5 100.5t95 71t128.5 26.5q64 0 104.5 -19.5t62.5 -48.5t30.5 -58t10 -49l1.5 -20h-108l-1.5 15t-11 35t-32 35t-63.5 15q-57 0 -97.5 -30.5t-62 -79t-21.5 -102.5q0 -62 30.5 -105t94.5 -43q40 0 66.5 15
t41.5 35t21 35l6 15h109l-6.5 -20t-22.5 -49t-44.5 -58t-73 -48.5t-107.5 -19.5z" />
    <glyph glyph-name="d" unicode="d" horiz-adv-x="654" 
d="M250 -10q-68 0 -113 32.5t-67.5 85.5t-22.5 114q0 56 18 112.5t54 103t87.5 74.5t118.5 28q54 0 88 -17t52.5 -40t25.5 -41h6l69 318h115l-163 -760h-115l15 72h-5l-9.5 -12.5t-29 -28.5t-50.5 -28.5t-74 -12.5zM281 85q42 0 75 19.5t56 51.5t35 70.5t12 76.5t-12.5 70.5
t-39.5 52t-69 19.5t-75 -19.5t-56 -52t-35.5 -71t-12.5 -75.5q0 -38 13 -70.5t40 -52t69 -19.5z" />
    <glyph glyph-name="e" unicode="e" horiz-adv-x="597" 
d="M278 -10q-80 0 -130.5 33.5t-75.5 87.5t-25 115q0 56 19.5 111.5t57 101.5t92.5 73.5t126 27.5q69 0 114 -27t68.5 -70.5t29 -94.5t-5.5 -98l-4 -18h-385q1 -64 31.5 -107t95.5 -43q38 0 63 12.5t39.5 28.5t20.5 28.5l6 12.5h108l-7 -17.5t-23.5 -43.5t-44.5 -52
t-70 -43.5t-100 -17.5zM173 312h276q5 34 -5.5 65t-37.5 51t-70 20q-61 0 -103 -40t-60 -96z" />
    <glyph glyph-name="f" unicode="f" horiz-adv-x="392" 
d="M63 0l93 438h-91l20 92h90l17 81q10 45 33 81t64.5 57t104.5 21q25 0 43 -4l18 -4l-19 -86l-13 2.5t-26 2.5q-41 0 -62 -20t-29 -54l-16 -77h112l-20 -92h-111l-93 -438h-115z" />
    <glyph glyph-name="g" unicode="g" horiz-adv-x="637" 
d="M228 -211q-70 0 -114 18t-67.5 44.5t-33 53t-11 44.5l-1.5 18h113l2 -12.5t12 -29t34 -29t67 -12.5q53 0 89 20.5t57 53.5t29 72l9 40h-6l-9.5 -10t-28.5 -23.5t-48 -23.5t-69 -10q-70 0 -115 31.5t-67 82.5t-22 110q0 55 18 110.5t54 101.5t87.5 73.5t117.5 27.5
q45 0 76 -14t50 -33t27.5 -33l8.5 -14h5l18 84h115l-107 -502q-25 -120 -100 -179.5t-190 -59.5zM289 97q54 0 92.5 31t58.5 78.5t20 95.5q0 38 -13.5 71t-41 53t-70.5 20q-55 0 -93.5 -31t-59 -78.5t-20.5 -95.5q0 -38 13.5 -71t41.5 -53t72 -20z" />
    <glyph glyph-name="h" unicode="h" horiz-adv-x="599" 
d="M24 0l162 760h114l-65 -307h5l9 13.5t28 30.5t49 30t71 13q59 0 96 -29.5t50.5 -78t0.5 -106.5l-69 -326h-115l69 323q10 50 -9 85.5t-71 35.5q-60 0 -97 -42.5t-50 -103.5l-64 -298h-114z" />
    <glyph glyph-name="i" unicode="i" horiz-adv-x="267" 
d="M216 617q-32 0 -52 21t-20 49q0 29 20 49.5t52 20.5q30 0 50.5 -20.5t20.5 -49.5t-20.5 -49.5t-50.5 -20.5zM12 0l113 530h115l-113 -530h-115z" />
    <glyph glyph-name="j" unicode="j" horiz-adv-x="311" 
d="M260 617q-31 0 -51.5 21t-20.5 49q0 29 20.5 49.5t51.5 20.5q30 0 50.5 -20.5t20.5 -49.5t-20.5 -49.5t-50.5 -20.5zM-49 -195q-30 0 -48.5 3l-18.5 3l20 95l12 -2t29 -2q44 0 73 25.5t41 82.5l111 520h114l-112 -529q-10 -47 -35 -92t-70 -74.5t-116 -29.5z" />
    <glyph glyph-name="k" unicode="k" horiz-adv-x="593" 
d="M24 0l162 760h114l-95 -448l243 218h154l-288 -254l183 -276h-133l-170 260l-56 -260h-114z" />
    <glyph glyph-name="l" unicode="l" horiz-adv-x="274" 
d="M24 0l162 760h115l-163 -760h-114z" />
    <glyph glyph-name="m" unicode="m" horiz-adv-x="909" 
d="M19 0l112 530h115l-17 -77h4l9.5 13.5t28.5 30.5t48.5 30t69.5 13q55 0 91.5 -28.5t49.5 -76.5h5l11 16t33 36.5t55.5 36.5t78.5 16q55 0 91.5 -27t50.5 -73t2 -103l-71 -337h-115l69 324q11 53 -7.5 86.5t-67.5 33.5q-40 0 -69 -21.5t-47.5 -56t-27.5 -74.5l-62 -292
h-115l69 324q11 50 -6 85t-68 35q-40 0 -69.5 -22.5t-48 -57t-26.5 -72.5l-62 -292h-114z" />
    <glyph glyph-name="n" unicode="n" horiz-adv-x="594" 
d="M19 0l113 530h114l-16 -77h5l9 13.5t28 30.5t49 30t71 13q59 0 96 -29.5t50.5 -78t0.5 -106.5l-69 -326h-115l69 323q10 50 -9 85.5t-71 35.5q-60 0 -97 -42.5t-50 -103.5l-64 -298h-114z" />
    <glyph glyph-name="o" unicode="o" horiz-adv-x="616" 
d="M273 -10q-77 0 -127.5 33t-75 86t-24.5 114q0 56 20 112t58 102.5t93.5 74.5t126.5 28q78 0 128 -33t74.5 -86t24.5 -114q0 -56 -19.5 -112t-58 -102.5t-94 -74.5t-126.5 -28zM280 87q42 0 75 19t56 51t35 70t12 76t-13 70t-39.5 51t-68.5 19t-75 -19t-56 -51t-35 -70
t-12 -76t13 -70t39.5 -51t68.5 -19z" />
    <glyph glyph-name="p" unicode="p" horiz-adv-x="653" 
d="M-18 -195l155 725h115l-15 -72h5l9.5 12.5t29 28.5t50.5 28.5t75 12.5q67 0 112.5 -32.5t68 -85.5t22.5 -114q0 -56 -18.5 -112.5t-54.5 -103t-87.5 -74.5t-118.5 -28q-54 0 -88 17t-52.5 40t-25.5 41h-6l-61 -283h-115zM196 227q0 -38 12.5 -70.5t39.5 -52t69 -19.5
t75 19.5t56.5 52t35.5 71t12 75.5q0 38 -13 70.5t-40 52t-69 19.5t-75 -19.5t-56 -51.5t-35 -70.5t-12 -76.5z" />
    <glyph glyph-name="q" unicode="q" horiz-adv-x="654" 
d="M361 -195l57 266h-6l-9 -12t-28.5 -28.5t-50.5 -28.5t-74 -12q-68 0 -113 32.5t-67.5 85.5t-22.5 114q0 56 18 112.5t54 103t87.5 74.5t118.5 28q54 0 88 -17.5t52.5 -40.5t25.5 -40h6l19 88h115l-155 -725h-115zM281 85q42 0 75 19.5t56 51.5t35 70.5t12 76.5
t-12.5 70.5t-39.5 52t-69 19.5t-75 -19.5t-56 -52t-35.5 -71t-12.5 -76.5q0 -37 13 -69.5t40 -52t69 -19.5z" />
    <glyph glyph-name="r" unicode="r" horiz-adv-x="413" 
d="M19 0l113 530h114l-15 -70h5q22 33 60.5 56.5t95.5 23.5q18 0 30.5 -2l12.5 -2l-23 -110l-11 2t-27 2q-71 0 -120.5 -50t-71.5 -154l-49 -226h-114z" />
    <glyph glyph-name="s" unicode="s" horiz-adv-x="513" 
d="M232 -10q-63 0 -103.5 17.5t-63 43.5t-32.5 51.5t-12.5 43l-2.5 17.5h113l2.5 -12t12.5 -28t31.5 -28.5t61.5 -12.5q46 0 72 19t26 48q0 26 -20.5 39.5t-46.5 23.5l-58 20q-58 21 -90.5 54.5t-32.5 86.5q0 44 22.5 82t67.5 61.5t111 23.5q57 0 94 -16t58.5 -39.5
t31.5 -47t13 -39.5l3 -16h-109l-3 10t-12.5 23.5t-29.5 24t-53 10.5q-41 0 -63 -20t-22 -46q0 -22 15.5 -36t40.5 -24l59 -22q31 -10 62 -28t51.5 -47t20.5 -72q0 -45 -25 -82.5t-73 -60t-117 -22.5z" />
    <glyph glyph-name="t" unicode="t" horiz-adv-x="425" 
d="M252 -10q-64 0 -99 25.5t-45 67.5t0 91l56 264h-94l20 92h94l28 132h115l-28 -132h122l-20 -92h-121l-58 -269q-9 -44 8 -64t58 -20q21 0 40 2.5l19 2.5l-20 -92l-22 -4t-53 -4z" />
    <glyph glyph-name="u" unicode="u" horiz-adv-x="586" 
d="M194 -10q-51 0 -86 24t-49 68t-1 105l73 343h115l-73 -342q-10 -49 10.5 -75.5t63.5 -26.5t73.5 22t50 56.5t26.5 72.5l62 293h115l-112 -530h-115l16 76h-6q-11 -15 -31.5 -35.5t-52.5 -35.5t-79 -15z" />
    <glyph glyph-name="v" unicode="v" horiz-adv-x="578" 
d="M166 0l-87 530h113l61 -395l226 395h129l-312 -530h-130z" />
    <glyph glyph-name="w" unicode="w" horiz-adv-x="862" 
d="M135 0l-56 530h113l33 -372l198 372h113l39 -370l192 370h125l-283 -530h-121l-38 366l-193 -366h-122z" />
    <glyph glyph-name="x" unicode="x" horiz-adv-x="579" 
d="M-30 0l237 279l-108 251h121l77 -182l153 182h142l-241 -278l114 -252h-122l-79 185l-154 -185h-140z" />
    <glyph glyph-name="y" unicode="y" horiz-adv-x="575" 
d="M-2 -195q-23 0 -38 2l-15 2l20 98l13.5 -1.5t29.5 -1.5q93 0 159 94l-88 532h113l60 -397l225 397h128l-311 -524q-62 -103 -135 -152t-161 -49z" />
    <glyph glyph-name="z" unicode="z" horiz-adv-x="512" 
d="M-17 0l17 79l361 359h-271l20 92h422l-18 -79l-361 -359h286l-20 -92h-436z" />
    <glyph glyph-name="braceleft" unicode="{" horiz-adv-x="444" 
d="M220 -204q-91 0 -125.5 50.5t-19.5 126.5l50 232q14 65 -51 65h-41l21 97h40q66 0 80 67l52 244q16 79 64 121t127 42h120l-21 -99h-96q-36 0 -54 -17.5t-26 -53.5l-50 -237q-10 -45 -29.5 -71.5t-64.5 -41.5l-1 -5q40 -15 47 -47t-2 -74l-51 -235q-7 -33 8 -49t45 -16
h93l-20 -99h-95z" />
    <glyph glyph-name="bar" unicode="|" horiz-adv-x="415" 
d="M53 -229l251 1181h101l-251 -1181h-101z" />
    <glyph glyph-name="braceright" unicode="}" horiz-adv-x="444" 
d="M229 841q91 0 126 -50.5t19 -125.5l-50 -233q-14 -65 51 -65h41l-20 -97h-41q-65 0 -80 -67l-52 -244q-16 -79 -63.5 -121t-126.5 -42h-121l22 99h95q36 0 54 17.5t26 53.5l50 237q10 45 29.5 72t64.5 41l2 5q-40 15 -47.5 47t2.5 74l50 235q8 34 -7 49.5t-46 15.5h-93
l20 99h95z" />
    <glyph glyph-name="asciitilde" unicode="~" horiz-adv-x="475" 
d="M327 317q-25 0 -43 10.5t-31.5 24.5t-25.5 24.5t-27 10.5q-16 0 -26 -17t-15 -47h-63q7 35 18.5 65t32 48.5t54.5 18.5q27 0 45 -10.5t31.5 -24t25.5 -24t26 -10.5q16 0 25 17t15 47h63q-7 -34 -18.5 -64.5t-32 -49.5t-54.5 -19z" />
    <glyph glyph-name="uni00A0" unicode="&#xa0;" horiz-adv-x="230" 
 />
    <glyph glyph-name="exclamdown" unicode="&#xa1;" horiz-adv-x="260" 
d="M174 532q30 0 49.5 -20t19.5 -48t-19.5 -48t-49.5 -20q-29 0 -48.5 20t-19.5 48t19.5 48t48.5 20zM-30 -217l125 539h98l-105 -539h-118z" />
    <glyph glyph-name="cent" unicode="&#xa2;" horiz-adv-x="593" 
d="M187 -88l18 87q-80 21 -119 84.5t-39 143.5q0 56 18 109.5t53 97t85.5 71.5t116.5 34l17 79h79l-18 -82q50 -8 80.5 -29.5t47.5 -49t23.5 -53t7.5 -42.5l1 -17h-108l-1 12t-7 29t-21 32.5t-43 22.5l-75 -355q35 3 58 18.5t36 34t18.5 32.5l5.5 14h109l-6.5 -20t-22 -49
t-43.5 -58t-71 -48.5t-105 -19.5l-16 -78h-79zM161 233q0 -45 16 -81t49 -53l73 341q-44 -12 -75 -43t-47 -74.5t-16 -89.5z" />
    <glyph glyph-name="sterling" unicode="&#xa3;" horiz-adv-x="579" 
d="M-10 0l21 99q78 11 128 51.5t50 103.5q0 17 -3.5 33.5t-9.5 32.5h-128l15 65h89q-8 25 -15 52.5t-7 58.5q0 67 35.5 125t104.5 93.5t170 35.5q46 0 84 -6t61 -12l23 -6l-22 -101l-19.5 6t-52.5 11.5t-72 5.5q-96 0 -147 -43t-51 -111q0 -30 8 -56t17 -53h210l-14 -65
h-178q3 -20 3 -39q0 -52 -17.5 -87t-40.5 -56t-41 -30.5l-18 -9.5h340l-21 -98h-502z" />
    <glyph glyph-name="currency" unicode="&#xa4;" horiz-adv-x="618" 
d="M103 107l-53 52l83 83q-41 55 -41 126q0 70 39 125l-81 80l53 53l80 -81q56 43 129 43q70 0 126 -41l79 79l51 -53l-78 -79q41 -55 41 -126q0 -37 -11 -69t-31 -59l79 -81l-51 -52l-81 80q-56 -38 -124 -38q-71 0 -127 41zM312 232q37 0 68 18.5t49.5 49t18.5 68.5
q0 37 -18.5 68t-49.5 49.5t-68 18.5q-38 0 -69.5 -18.5t-50 -49.5t-18.5 -68q0 -38 18.5 -68.5t50 -49t69.5 -18.5z" />
    <glyph glyph-name="yen" unicode="&#xa5;" horiz-adv-x="646" 
d="M45 183l16 76h192l1 3l-21 64h-157l16 75h116l-111 339h119l114 -358l264 358h138l-255 -339h115l-16 -75h-156l-50 -67v0h191l-16 -76h-191l-39 -183h-116l38 183h-192z" />
    <glyph glyph-name="brokenbar" unicode="&#xa6;" horiz-adv-x="415" 
d="M191 419l113 534h101l-114 -534h-100zM53 -229l103 484h101l-103 -484h-101z" />
    <glyph glyph-name="section" unicode="&#xa7;" horiz-adv-x="689" 
d="M271 -230q-69 0 -117 17t-79 44t-48.5 57t-25 57t-9.5 44l-2 17h115l2.5 -14t11 -34.5t27.5 -41.5t50.5 -35t79.5 -14q71 0 115 32.5t44 87.5q0 41 -26 68t-69 41l-111 36q-71 23 -116 64t-45 104q0 39 15 66t37.5 44t47 26t44.5 13l1 5q-10 8 -24.5 24t-25 41.5
t-10.5 61.5q0 58 31.5 105.5t90 75.5t140.5 28q75 0 124 -22t77.5 -55t41.5 -65.5t16.5 -54.5l3.5 -22h-113l-2 12.5t-9 31t-23 37t-44 31t-71 12.5q-66 0 -106.5 -30.5t-40.5 -79.5q0 -75 95 -107l107 -36q74 -24 119 -64.5t45 -103.5q0 -39 -15 -65.5t-38.5 -44t-48 -26.5
t-44.5 -12l-2 -6q20 -13 43 -44.5t23 -83.5q0 -62 -33.5 -112.5t-96.5 -80t-152 -29.5zM420 173q5 3 21 6.5t34.5 11.5t32 24t13.5 42q0 30 -21.5 53.5t-70.5 39.5l-148 51q-4 -3 -19.5 -6.5t-34 -11.5t-32 -23.5t-13.5 -42.5q0 -31 22.5 -54t70.5 -40z" />
    <glyph glyph-name="dieresis" unicode="&#xa8;" horiz-adv-x="326" 
d="M259 604q-30 0 -50 20.5t-20 48.5t20 48.5t50 20.5t50 -20.5t20 -48.5q0 -29 -20 -49t-50 -20zM57 604q-30 0 -50 20.5t-20 48.5t20 48.5t50 20.5t50 -20.5t20 -48.5q0 -29 -20 -49t-50 -20z" />
    <glyph glyph-name="copyright" unicode="&#xa9;" horiz-adv-x="798" 
d="M382 -7q-83 0 -144 27.5t-101 74t-60 105t-20 121.5q0 71 25 140.5t74 126.5t121 91t166 34q83 0 144.5 -27t101.5 -73t60 -104.5t20 -121.5q0 -72 -25 -141.5t-74 -127t-121.5 -91.5t-166.5 -34zM384 65q75 0 132.5 27.5t96 74t58 103t19.5 114.5q0 66 -26.5 124.5
t-81.5 95.5t-140 37q-74 0 -131.5 -28t-96.5 -74t-59 -102.5t-20 -114.5q0 -66 27.5 -125t82.5 -95.5t139 -36.5zM395 140q-61 0 -100 25.5t-58 66.5t-19 88q0 44 15.5 87.5t45.5 79.5t73.5 57.5t100.5 21.5q49 0 80 -15t47.5 -37.5t23 -45t8 -37.5l1.5 -15h-83l-1 12t-8 27
t-24 27t-49 12q-46 0 -78 -26t-49 -65t-17 -78q0 -45 23.5 -78.5t74.5 -33.5q32 0 52 11.5t32 27t16.5 27l4.5 11.5h84l-5 -15t-17.5 -37.5t-34.5 -45t-56.5 -37.5t-82.5 -15z" />
    <glyph glyph-name="ordfeminine" unicode="&#xaa;" horiz-adv-x="422" 
d="M296 450q-7 -9 -29 -26.5t-65 -17.5q-47 0 -74.5 25t-27.5 65q0 44 32.5 74.5t99.5 34.5l103 6l2 10q4 21 -6 40t-44 19q-26 0 -39 -10.5t-17 -20.5l-4 -10h-88l5.5 16.5t21.5 38.5t46.5 39t80.5 17q52 0 84.5 -20t45 -52t4.5 -67l-42 -199h-92l7 38h-4zM193 506
q0 -18 13.5 -27t32.5 -9q27 0 51 18.5t30 52.5l3 12l-76 -5q-27 -1 -40.5 -13t-13.5 -29z" />
    <glyph glyph-name="guillemotleft" unicode="&#xab;" horiz-adv-x="676" 
d="M476 99l-164 215l255 214h133l-264 -224l152 -205h-112zM217 99l-163 215l255 214h132l-264 -224l153 -205h-113z" />
    <glyph glyph-name="logicalnot" unicode="&#xac;" horiz-adv-x="655" 
d="M117 437l20 93h495l-20 -93v0l-37 -171h-105l37 171h-390z" />
    <glyph glyph-name="uni00AD" unicode="&#xad;" horiz-adv-x="600" 
d="M112 266l6 93h373l-7 -93h-372z" />
    <glyph glyph-name="registered" unicode="&#xae;" horiz-adv-x="419" 
d="M260 393q-56 0 -92.5 23.5t-54.5 61t-18 79.5q0 49 22.5 94.5t66 75t106.5 29.5q56 0 92.5 -23.5t54.5 -61t18 -79.5q0 -49 -22 -94.5t-65.5 -75t-107.5 -29.5zM261 428q51 0 86.5 24.5t53.5 62t18 75.5q0 34 -14 64t-42.5 48.5t-72.5 18.5q-51 0 -86.5 -24.5t-53.5 -62
t-18 -75.5q0 -34 14 -64t42.5 -48.5t72.5 -18.5zM186 479l41 193h73q34 0 50.5 -17.5t16.5 -38.5q0 -19 -12.5 -36.5t-37.5 -24.5l25 -76h-46l-23 72h-27l-16 -72h-44zM298 633h-35l-10 -45h41q14 0 21.5 8t7.5 17q0 8 -6.5 14t-18.5 6z" />
    <glyph glyph-name="macron" unicode="&#xaf;" horiz-adv-x="352" 
d="M12 643l17 78h311l-17 -78h-311z" />
    <glyph glyph-name="degree" unicode="&#xb0;" horiz-adv-x="462" 
d="M296 390q-50 0 -90.5 24.5t-64.5 65t-24 90.5q0 49 24 90t64.5 65.5t90.5 24.5t91 -24.5t65 -65.5t24 -90q0 -50 -24 -90.5t-65 -65t-91 -24.5zM296 473q40 0 68.5 28.5t28.5 68.5t-28.5 68.5t-68.5 28.5t-68.5 -28.5t-28.5 -68.5t28.5 -68.5t68.5 -28.5z" />
    <glyph glyph-name="plusminus" unicode="&#xb1;" horiz-adv-x="630" 
d="M237 157l31 147h-147l20 93h147l31 148h94l-31 -148h147l-20 -93h-147l-32 -147h-93zM41 0l15 69h419l-14 -69h-420z" />
    <glyph glyph-name="uni00B2" unicode="&#xb2;" horiz-adv-x="453" 
d="M117 405l14 65l117 82q63 43 102.5 79t39.5 75q0 25 -16.5 40.5t-45.5 15.5q-26 0 -40.5 -10.5t-21 -24.5t-8.5 -24.5l-2 -10.5h-91l2 15.5t10.5 38t26 45t49 37.5t79.5 15q75 0 115 -38.5t40 -91.5q0 -45 -26.5 -81t-68 -67t-87.5 -60l-25 -18h184l-18 -82h-329z" />
    <glyph glyph-name="uni00B3" unicode="&#xb3;" horiz-adv-x="455" 
d="M277 400q-51 0 -83 14t-49 34.5t-23.5 41t-7.5 34.5l-1 14h90l1.5 -9t8 -21t22.5 -21.5t45 -9.5q40 0 59.5 19.5t19.5 42.5q0 22 -19 36t-48 14h-57l16 72h60q34 0 52.5 16.5t18.5 38.5q0 21 -16 36t-47 15q-26 0 -41 -9.5t-22.5 -21.5t-9.5 -21.5l-2 -9.5h-85l2 14
t10.5 34.5t26 41t48.5 34.5t78 14q74 0 112.5 -34.5t38.5 -78.5q0 -37 -24.5 -65t-62.5 -38l-1 -4q27 -11 47.5 -34.5t20.5 -56.5q0 -32 -19.5 -62t-59 -50t-99.5 -20z" />
    <glyph glyph-name="acute" unicode="&#xb4;" horiz-adv-x="231" 
d="M195 608l-89 1l90 180h110z" />
    <glyph glyph-name="uni00B5" unicode="&#xb5;" horiz-adv-x="663" 
d="M-38 -198l155 728h114l-73 -341q-10 -49 10 -76t64 -27q42 0 73 22t50.5 57t27.5 73l61 292h114l-77 -362q-9 -45 6.5 -63.5t52.5 -18.5q16 0 26.5 2l10.5 2l-20 -93l-16.5 -3.5t-43.5 -3.5q-61 0 -94 23t-41 63h-6l-7.5 -13t-24 -30t-43.5 -30t-67 -13q-42 0 -66.5 12
t-35 23.5l-10.5 11.5l-4 -2q6 -44 4 -81.5t-12 -82.5l-14 -69h-114z" />
    <glyph glyph-name="paragraph" unicode="&#xb6;" horiz-adv-x="525" 
d="M279 0h-73l70 328h-3q-65 0 -108 24t-64 63t-21 82q0 50 25.5 96.5t75 76.5t121.5 30h269l-149 -700h-73l127 600h-69z" />
    <glyph glyph-name="periodcentered" unicode="&#xb7;" horiz-adv-x="272" 
d="M99 314q-31 0 -51 21.5t-20 50.5q0 30 20 51t51 21t51.5 -21t20.5 -51t-20.5 -51t-51.5 -21z" />
    <glyph glyph-name="cedilla" unicode="&#xb8;" horiz-adv-x="241" 
d="M37 -251q-32 0 -56 5.5l-24 5.5l11 64l11.5 -2.5t28 -4.5t31.5 -2q39 0 53.5 15t14.5 32q0 16 -12.5 28t-38.5 12q-21 0 -34 -7l-13 -7l-31 40l83 96h81l-60 -68h5q50 0 76.5 -28t26.5 -66q0 -27 -15.5 -53t-49.5 -43t-88 -17z" />
    <glyph glyph-name="uni00B9" unicode="&#xb9;" horiz-adv-x="312" 
d="M329 838l-93 -433h-93l65 307h-84l12 56l14 4q38 11 64.5 25t53.5 36l6 5h55z" />
    <glyph glyph-name="ordmasculine" unicode="&#xba;" horiz-adv-x="438" 
d="M267 407q-53 0 -86.5 21t-50 54.5t-16.5 72.5q0 46 22 91t65 75t105 30q51 0 85 -21.5t51 -55.5t17 -73q0 -46 -22.5 -91t-65.5 -74t-104 -29zM271 483q28 0 49 17.5t32 44t11 55.5q0 28 -15 50.5t-47 22.5q-29 0 -50 -17t-32 -43.5t-11 -55.5t15 -51.5t48 -22.5z" />
    <glyph glyph-name="guillemotright" unicode="&#xbb;" horiz-adv-x="676" 
d="M267 99l264 224l-153 205h113l163 -215l-254 -214h-133zM9 99l264 224l-153 205h113l163 -215l-255 -214h-132z" />
    <glyph glyph-name="onequarter" unicode="&#xbc;" horiz-adv-x="896" 
d="M289 713l-75 -355h-88l51 243h-69l12 54l10 3q34 9 58 20.5t46 30.5l4 4h51zM169 0l451 700h101l-453 -700h-99zM714 0l15 70h-175l16 73l188 212h120l-46 -214h52l-15 -71h-53l-14 -70h-88zM662 141h82l26 122z" />
    <glyph glyph-name="onehalf" unicode="&#xbd;" horiz-adv-x="894" 
d="M289 713l-75 -355h-88l51 243h-69l12 54l10 3q34 9 58 20.5t46 30.5l4 4h51zM169 0l451 700h101l-453 -700h-99zM575 0l13 60l92 62q57 38 87 65.5t30 55.5q0 19 -12.5 30.5t-34.5 11.5q-25 0 -36 -12.5t-13.5 -25.5l-2.5 -13h-84l1.5 12.5t8.5 31.5t22 38t41.5 31.5
t67.5 12.5q64 0 97.5 -32.5t33.5 -77.5q0 -40 -24 -70t-59 -54t-69 -45l-9 -6h143l-15 -75h-278z" />
    <glyph glyph-name="threequarters" unicode="&#xbe;" horiz-adv-x="982" 
d="M222 353q-44 0 -70.5 11.5t-41 28.5t-20 34t-6 29l-0.5 12h83l2.5 -11t14.5 -22t41 -11q31 0 44.5 14.5t13.5 30.5q0 15 -13 25.5t-36 10.5h-48l14 67h51q26 0 39 12t13 28q0 13 -11.5 24t-35.5 11q-26 0 -38.5 -11.5t-15.5 -22.5l-3 -11h-80l3.5 17.5t17 40.5t42 40.5
t79.5 17.5q63 0 95.5 -29.5t32.5 -64.5q0 -30 -21 -53t-52 -31l-1 -3q25 -10 41 -29t16 -46q0 -26 -16.5 -51t-50 -41.5t-83.5 -16.5zM281 0l451 700h101l-453 -700h-99zM826 0l15 70h-175l16 73l188 212h120l-46 -214h52l-15 -71h-53l-14 -70h-88zM774 141h82l26 122z" />
    <glyph glyph-name="questiondown" unicode="&#xbf;" horiz-adv-x="606" 
d="M333 538q30 0 49 -20.5t19 -47.5q0 -29 -19 -49t-49 -20q-29 0 -49 20t-20 49q0 28 20 48t49 20zM229 -222q-72 0 -125.5 27.5t-82.5 74.5t-29 104q0 49 18 85.5t46 64t60.5 49.5t63 42t52 41.5t27.5 47.5l4 16h112l-3 -20q-6 -38 -27.5 -67t-51 -52.5t-61.5 -44.5
t-59.5 -43.5t-45 -49t-17.5 -60.5q0 -51 36 -82t91 -31q43 0 70.5 14.5t44 36.5t24 44t9.5 37l2 15h112l-2.5 -18t-10.5 -46.5t-25.5 -60t-47.5 -60t-75 -46.5t-109 -18z" />
    <glyph glyph-name="Agrave" unicode="&#xc0;" horiz-adv-x="717" 
d="M423 818l-87 181h107l67 -180zM-29 0l415 740h145l101 -740h-115l-22 166h-303l-92 -166h-129zM249 270h234l-44 341z" />
    <glyph glyph-name="Aacute" unicode="&#xc1;" horiz-adv-x="717" 
d="M528 818l-89 1l90 180h110zM-29 0l415 740h145l101 -740h-115l-22 166h-303l-92 -166h-129zM249 270h234l-44 341z" />
    <glyph glyph-name="Acircumflex" unicode="&#xc2;" horiz-adv-x="717" 
d="M295 813l156 149h94l92 -149h-90l-56 92l-92 -92h-104zM-29 0l415 740h145l101 -740h-115l-22 166h-303l-92 -166h-129zM249 270h234l-44 341z" />
    <glyph glyph-name="Atilde" unicode="&#xc3;" horiz-adv-x="717" 
d="M559 825q-26 0 -44 10.5t-32 24t-26 24t-26 10.5q-16 0 -25.5 -16.5t-15.5 -46.5h-68q12 59 35.5 98t74.5 39q27 0 45.5 -10t32 -23.5t25.5 -23.5t26 -10q16 0 25 16t14 46h68q-11 -59 -34.5 -98.5t-74.5 -39.5zM-29 0l415 740h145l101 -740h-115l-22 166h-303l-92 -166
h-129zM249 270h234l-44 341z" />
    <glyph glyph-name="Adieresis" unicode="&#xc4;" horiz-adv-x="717" 
d="M591 814q-31 0 -50.5 20.5t-19.5 48.5q0 29 19.5 49t50.5 20q30 0 50 -20t20 -49t-20 -49t-50 -20zM389 814q-31 0 -50.5 20.5t-19.5 48.5q0 29 19.5 49t50.5 20q30 0 50 -20t20 -49t-20 -49t-50 -20zM-29 0l415 740h145l101 -740h-115l-22 166h-303l-92 -166h-129z
M249 270h234l-44 341z" />
    <glyph glyph-name="Aring" unicode="&#xc5;" horiz-adv-x="717" 
d="M468 807q-36 0 -66 17.5t-48 47.5t-18 66t18 65.5t48 47t66 17.5t65.5 -17.5t47 -47t17.5 -65.5t-17.5 -66t-47 -47.5t-65.5 -17.5zM468 880q24 0 41 17t17 41t-17 41t-41 17q-25 0 -42 -17t-17 -41t17 -41t42 -17zM-29 0l415 740h145l101 -740h-115l-22 166h-303
l-92 -166h-129zM249 270h234l-44 341z" />
    <glyph glyph-name="AE" unicode="&#xc6;" horiz-adv-x="1009" 
d="M-29 0l523 740h547l-21 -102h-349l-45 -211h303l-21 -101h-303l-48 -224h354l-22 -102h-470l35 166h-231l-118 -166h-134zM295 269h181l77 363z" />
    <glyph glyph-name="Ccedilla" unicode="&#xc7;" horiz-adv-x="757" 
d="M288 -261q-32 0 -56.5 5.5l-24.5 5.5l11 64l11.5 -2t28.5 -4.5t31 -2.5q39 0 53.5 15t14.5 32q0 16 -12.5 28t-38.5 12q-21 0 -34 -7l-13 -7l-31 40l68 78q-82 16 -135 63t-78.5 114t-25.5 143q0 77 26 153.5t76.5 140t126 102t174.5 38.5q72 0 121.5 -19t80.5 -48.5
t48 -63t23.5 -63t8 -48.5l1.5 -19h-117l-1 16t-8.5 39t-25.5 46.5t-51 39.5t-86 16q-68 0 -120 -28.5t-87.5 -75.5t-53.5 -104t-18 -113q0 -61 21.5 -113t65.5 -84.5t114 -32.5q50 0 87 16t61.5 39t39 46.5t20.5 39l6 15.5h118l-6 -19t-20 -48.5t-39 -63t-62 -63t-89 -48.5
t-121 -19l-39 -44h5q50 0 76.5 -28t26.5 -65q0 -28 -15.5 -54t-49 -43t-87.5 -17z" />
    <glyph glyph-name="Egrave" unicode="&#xc8;" horiz-adv-x="616" 
d="M373 818l-87 181h107l66 -180zM24 0l157 740h465l-21 -102h-349l-45 -211h303l-21 -101h-303l-48 -224h354l-22 -102h-470z" />
    <glyph glyph-name="Eacute" unicode="&#xc9;" horiz-adv-x="616" 
d="M478 818l-89 1l90 180h110zM24 0l157 740h465l-21 -102h-349l-45 -211h303l-21 -101h-303l-48 -224h354l-22 -102h-470z" />
    <glyph glyph-name="Ecircumflex" unicode="&#xca;" horiz-adv-x="616" 
d="M245 813l155 149h95l92 -149h-91l-55 92l-93 -92h-103zM24 0l157 740h465l-21 -102h-349l-45 -211h303l-21 -101h-303l-48 -224h354l-22 -102h-470z" />
    <glyph glyph-name="Edieresis" unicode="&#xcb;" horiz-adv-x="616" 
d="M540 814q-30 0 -49.5 20.5t-19.5 48.5q0 29 19.5 49t49.5 20t50 -20t20 -49t-20 -49t-50 -20zM338 814q-30 0 -49.5 20.5t-19.5 48.5q0 29 19.5 49t49.5 20t50 -20t20 -49t-20 -49t-50 -20zM24 0l157 740h465l-21 -102h-349l-45 -211h303l-21 -101h-303l-48 -224h354
l-22 -102h-470z" />
    <glyph glyph-name="Igrave" unicode="&#xcc;" horiz-adv-x="274" 
d="M196 785l-87 181h107l66 -180zM24 0l157 740h116l-157 -740h-116z" />
    <glyph glyph-name="Iacute" unicode="&#xcd;" horiz-adv-x="274" 
d="M301 785l-89 1l90 180h110zM24 0l157 740h116l-157 -740h-116z" />
    <glyph glyph-name="Icircumflex" unicode="&#xce;" horiz-adv-x="274" 
d="M77 780l160 171h94l88 -171h-91l-51 106l-97 -106h-103zM24 0l157 740h116l-157 -740h-116z" />
    <glyph glyph-name="Idieresis" unicode="&#xcf;" horiz-adv-x="274" 
d="M363 781q-30 0 -49.5 20.5t-19.5 48.5q0 29 19.5 49t49.5 20t50 -20t20 -49q0 -28 -20 -48.5t-50 -20.5zM161 781q-30 0 -49.5 20.5t-19.5 48.5q0 29 19.5 49t49.5 20t50 -20t20 -49q0 -28 -20 -48.5t-50 -20.5zM24 0l157 740h116l-157 -740h-116z" />
    <glyph glyph-name="Eth" unicode="&#xd0;" horiz-adv-x="756" 
d="M67 0l68 322h-104l20 98h105l68 320h194q81 0 141 -25.5t99 -69.5t58 -100.5t19 -118.5q0 -76 -27.5 -151t-81.5 -137.5t-132.5 -100t-180.5 -37.5h-246zM392 322h-140l-47 -219h114q71 0 127 28t94 74.5t58 102.5t20 112q0 57 -22.5 107t-70 80.5t-120.5 30.5h-86
l-46 -218h140z" />
    <glyph glyph-name="Ntilde" unicode="&#xd1;" horiz-adv-x="743" 
d="M571 825q-27 0 -45 10.5t-32 24t-26 24t-26 10.5q-16 0 -25.5 -16.5t-14.5 -46.5h-69q12 59 35.5 98t74.5 39q27 0 45.5 -10t32 -23.5t25.5 -23.5t26 -10q16 0 25 16t14 46h68q-11 -59 -34.5 -98.5t-73.5 -39.5zM24 0l157 740h105l250 -535l113 535h117l-157 -740h-106
l-250 529l-113 -529h-116z" />
    <glyph glyph-name="Ograve" unicode="&#xd2;" horiz-adv-x="795" 
d="M432 818l-87 181h107l67 -180zM371 -10q-80 0 -139 26.5t-97.5 72.5t-57.5 104.5t-19 123.5q0 77 26.5 153.5t78 140t126 101.5t170.5 38q81 0 140 -26.5t97.5 -72.5t57 -105t18.5 -123q0 -77 -26.5 -153.5t-77.5 -140t-125.5 -101.5t-171.5 -38zM375 95q67 0 119 29
t87.5 77t54 105.5t18.5 114.5q0 59 -21 110t-65 82.5t-112 31.5q-67 0 -118.5 -29t-87.5 -77t-54.5 -105.5t-18.5 -114.5q0 -59 21 -110t65 -82.5t112 -31.5z" />
    <glyph glyph-name="Oacute" unicode="&#xd3;" horiz-adv-x="795" 
d="M537 818l-89 1l90 180h110zM371 -10q-80 0 -139 26.5t-97.5 72.5t-57.5 104.5t-19 123.5q0 77 26.5 153.5t78 140t126 101.5t170.5 38q81 0 140 -26.5t97.5 -72.5t57 -105t18.5 -123q0 -77 -26.5 -153.5t-77.5 -140t-125.5 -101.5t-171.5 -38zM375 95q67 0 119 29
t87.5 77t54 105.5t18.5 114.5q0 59 -21 110t-65 82.5t-112 31.5q-67 0 -118.5 -29t-87.5 -77t-54.5 -105.5t-18.5 -114.5q0 -59 21 -110t65 -82.5t112 -31.5z" />
    <glyph glyph-name="Ocircumflex" unicode="&#xd4;" horiz-adv-x="795" 
d="M304 813l156 149h94l92 -149h-90l-56 92l-92 -92h-104zM371 -10q-80 0 -139 26.5t-97.5 72.5t-57.5 104.5t-19 123.5q0 77 26.5 153.5t78 140t126 101.5t170.5 38q81 0 140 -26.5t97.5 -72.5t57 -105t18.5 -123q0 -77 -26.5 -153.5t-77.5 -140t-125.5 -101.5t-171.5 -38z
M375 95q67 0 119 29t87.5 77t54 105.5t18.5 114.5q0 59 -21 110t-65 82.5t-112 31.5q-67 0 -118.5 -29t-87.5 -77t-54.5 -105.5t-18.5 -114.5q0 -59 21 -110t65 -82.5t112 -31.5z" />
    <glyph glyph-name="Otilde" unicode="&#xd5;" horiz-adv-x="795" 
d="M568 825q-26 0 -44 10.5t-32 24t-26 24t-26 10.5q-16 0 -25.5 -16.5t-15.5 -46.5h-68q12 59 35.5 98t74.5 39q27 0 45.5 -10t32 -23.5t25.5 -23.5t26 -10q16 0 25 16t14 46h68q-11 -59 -34.5 -98.5t-74.5 -39.5zM371 -10q-80 0 -139 26.5t-97.5 72.5t-57.5 104.5
t-19 123.5q0 77 26.5 153.5t78 140t126 101.5t170.5 38q81 0 140 -26.5t97.5 -72.5t57 -105t18.5 -123q0 -77 -26.5 -153.5t-77.5 -140t-125.5 -101.5t-171.5 -38zM375 95q67 0 119 29t87.5 77t54 105.5t18.5 114.5q0 59 -21 110t-65 82.5t-112 31.5q-67 0 -118.5 -29
t-87.5 -77t-54.5 -105.5t-18.5 -114.5q0 -59 21 -110t65 -82.5t112 -31.5z" />
    <glyph glyph-name="Odieresis" unicode="&#xd6;" horiz-adv-x="795" 
d="M600 814q-31 0 -50.5 20.5t-19.5 48.5q0 29 19.5 49t50.5 20q30 0 50 -20t20 -49t-20 -49t-50 -20zM398 814q-31 0 -50.5 20.5t-19.5 48.5q0 29 19.5 49t50.5 20q30 0 50 -20t20 -49t-20 -49t-50 -20zM371 -10q-80 0 -139 26.5t-97.5 72.5t-57.5 104.5t-19 123.5
q0 77 26.5 153.5t78 140t126 101.5t170.5 38q81 0 140 -26.5t97.5 -72.5t57 -105t18.5 -123q0 -77 -26.5 -153.5t-77.5 -140t-125.5 -101.5t-171.5 -38zM375 95q67 0 119 29t87.5 77t54 105.5t18.5 114.5q0 59 -21 110t-65 82.5t-112 31.5q-67 0 -118.5 -29t-87.5 -77
t-54.5 -105.5t-18.5 -114.5q0 -59 21 -110t65 -82.5t112 -31.5z" />
    <glyph glyph-name="multiply" unicode="&#xd7;" horiz-adv-x="574" 
d="M85 205l137 114l-84 106l75 68l86 -111l137 113l58 -73l-137 -113l84 -106l-74 -68l-87 110l-137 -113z" />
    <glyph glyph-name="Oslash" unicode="&#xd8;" horiz-adv-x="795" 
d="M15 -24l108 127q-33 44 -49 99t-16 114q0 78 26.5 154.5t78 140t126 101.5t170.5 38q54 0 98 -12.5t78 -34.5l51 60h129l-108 -126q33 -44 49 -99.5t16 -114.5q0 -77 -26.5 -154t-77.5 -140t-125.5 -101t-171.5 -38q-53 0 -97 12t-79 34l-51 -60h-129zM177 319
q0 -70 26 -122l359 420q-22 13 -48.5 20t-57.5 7q-67 0 -118.5 -29t-87.5 -76.5t-54.5 -105t-18.5 -114.5zM375 95q67 0 119 29t87.5 77t54 105.5t18.5 114.5q0 33 -6.5 64.5t-20.5 57.5l-358 -420q21 -13 47.5 -20.5t58.5 -7.5z" />
    <glyph glyph-name="Ugrave" unicode="&#xd9;" horiz-adv-x="733" 
d="M428 818l-87 181h107l66 -180zM318 -10q-82 0 -142 34t-86 101t-5 168l96 447h116l-97 -457q-17 -82 15.5 -132.5t118.5 -50.5q81 0 135.5 50.5t72.5 132.5l97 457h117l-98 -461q-30 -143 -121 -216t-219 -73z" />
    <glyph glyph-name="Uacute" unicode="&#xda;" horiz-adv-x="733" 
d="M533 818l-89 1l90 180h110zM318 -10q-82 0 -142 34t-86 101t-5 168l96 447h116l-97 -457q-17 -82 15.5 -132.5t118.5 -50.5q81 0 135.5 50.5t72.5 132.5l97 457h117l-98 -461q-30 -143 -121 -216t-219 -73z" />
    <glyph glyph-name="Ucircumflex" unicode="&#xdb;" horiz-adv-x="733" 
d="M309 813l160 171h94l88 -171h-91l-51 106l-96 -106h-104zM318 -10q-82 0 -142 34t-86 101t-5 168l96 447h116l-97 -457q-17 -82 15.5 -132.5t118.5 -50.5q81 0 135.5 50.5t72.5 132.5l97 457h117l-98 -461q-30 -143 -121 -216t-219 -73z" />
    <glyph glyph-name="Udieresis" unicode="&#xdc;" horiz-adv-x="733" 
d="M596 814q-31 0 -50.5 20.5t-19.5 48.5q0 29 19.5 49t50.5 20q30 0 50 -20t20 -49t-20 -49t-50 -20zM394 814q-31 0 -50.5 20.5t-19.5 48.5q0 29 19.5 49t50.5 20q30 0 50 -20t20 -49t-20 -49t-50 -20zM318 -10q-82 0 -142 34t-86 101t-5 168l96 447h116l-97 -457
q-17 -82 15.5 -132.5t118.5 -50.5q81 0 135.5 50.5t72.5 132.5l97 457h117l-98 -461q-30 -143 -121 -216t-219 -73z" />
    <glyph glyph-name="Yacute" unicode="&#xdd;" horiz-adv-x="629" 
d="M479 818l-89 1l89 180h110zM199 0l55 262l-157 478h119l114 -358l264 358h138l-362 -481l-55 -259h-116z" />
    <glyph glyph-name="Thorn" unicode="&#xde;" horiz-adv-x="654" 
d="M24 0l157 740h116l-26 -126h129q83 0 137 -31t80 -81t26 -107q0 -48 -19 -96t-56.5 -87t-92 -62.5t-125.5 -23.5h-183l-27 -126h-116zM389 512h-140l-60 -284h169q54 0 91.5 24t57 60.5t19.5 74.5q0 32 -15 60.5t-45 46.5t-77 18z" />
    <glyph glyph-name="germandbls" unicode="&#xdf;" horiz-adv-x="654" 
d="M427 760q71 0 122.5 -23.5t79.5 -65t28 -94.5q0 -67 -45 -118t-118 -72l-1 -4q13 -3 32 -15t38.5 -32.5t33 -49.5t13.5 -67q0 -64 -37 -116t-103.5 -82.5t-154.5 -30.5q-24 0 -49.5 2t-42.5 3.5l-17 1.5l19 97l13.5 -1.5t32.5 -3t37 -1.5q84 0 135 39.5t51 100.5
q0 47 -33 79t-98 32h-68l20 93h70q45 0 79 17t54 46.5t20 64.5q0 49 -33.5 76t-83.5 27q-64 0 -112 -39.5t-66 -126.5l-106 -499h-114l107 504q16 75 53.5 133.5t98 91.5t145.5 33z" />
    <glyph glyph-name="agrave" unicode="&#xe0;" horiz-adv-x="627" 
d="M333 608l-87 181h107l66 -180zM323 540q54 0 88 -17t52.5 -40t25.5 -41h6l19 88h115l-113 -530h-115l15 72h-5l-9.5 -12.5t-29 -28.5t-50.5 -28.5t-74 -12.5q-68 0 -113 32.5t-67.5 85.5t-22.5 114q0 56 18 112.5t54 103t87.5 74.5t118.5 28zM336 445q-42 0 -75 -19.5
t-56 -52t-35.5 -71t-12.5 -75.5q0 -38 13 -70.5t40 -52t69 -19.5t75 19.5t56 51.5t35 70.5t12 76.5t-12.5 70.5t-39.5 52t-69 19.5z" />
    <glyph glyph-name="aacute" unicode="&#xe1;" horiz-adv-x="627" 
d="M438 608l-89 1l90 180h110zM323 540q54 0 88 -17t52.5 -40t25.5 -41h6l19 88h115l-113 -530h-115l15 72h-5l-9.5 -12.5t-29 -28.5t-50.5 -28.5t-74 -12.5q-68 0 -113 32.5t-67.5 85.5t-22.5 114q0 56 18 112.5t54 103t87.5 74.5t118.5 28zM336 445q-42 0 -75 -19.5
t-56 -52t-35.5 -71t-12.5 -75.5q0 -38 13 -70.5t40 -52t69 -19.5t75 19.5t56 51.5t35 70.5t12 76.5t-12.5 70.5t-39.5 52t-69 19.5z" />
    <glyph glyph-name="acircumflex" unicode="&#xe2;" horiz-adv-x="627" 
d="M214 603l160 171h94l88 -171h-91l-51 106l-97 -106h-103zM323 540q54 0 88 -17t52.5 -40t25.5 -41h6l19 88h115l-113 -530h-115l15 72h-5l-9.5 -12.5t-29 -28.5t-50.5 -28.5t-74 -12.5q-68 0 -113 32.5t-67.5 85.5t-22.5 114q0 56 18 112.5t54 103t87.5 74.5t118.5 28z
M336 445q-42 0 -75 -19.5t-56 -52t-35.5 -71t-12.5 -75.5q0 -38 13 -70.5t40 -52t69 -19.5t75 19.5t56 51.5t35 70.5t12 76.5t-12.5 70.5t-39.5 52t-69 19.5z" />
    <glyph glyph-name="atilde" unicode="&#xe3;" horiz-adv-x="627" 
d="M469 615q-26 0 -44.5 10.5t-32 24t-26 24t-26.5 10.5q-15 0 -25 -16.5t-15 -46.5h-68q11 59 35 98t74 39q27 0 45.5 -10t32.5 -23.5t26 -23.5t25 -10q16 0 25 16t15 46h68q-12 -59 -35.5 -98.5t-73.5 -39.5zM323 540q54 0 88 -17t52.5 -40t25.5 -41h6l19 88h115
l-113 -530h-115l15 72h-5l-9.5 -12.5t-29 -28.5t-50.5 -28.5t-74 -12.5q-68 0 -113 32.5t-67.5 85.5t-22.5 114q0 56 18 112.5t54 103t87.5 74.5t118.5 28zM336 445q-42 0 -75 -19.5t-56 -52t-35.5 -71t-12.5 -75.5q0 -38 13 -70.5t40 -52t69 -19.5t75 19.5t56 51.5t35 70.5
t12 76.5t-12.5 70.5t-39.5 52t-69 19.5z" />
    <glyph glyph-name="adieresis" unicode="&#xe4;" horiz-adv-x="627" 
d="M501 604q-31 0 -50.5 20.5t-19.5 48.5t19.5 48.5t50.5 20.5q29 0 49.5 -20.5t20.5 -48.5q0 -29 -20.5 -49t-49.5 -20zM299 604q-31 0 -50.5 20.5t-19.5 48.5t19.5 48.5t50.5 20.5q29 0 49.5 -20.5t20.5 -48.5q0 -29 -20.5 -49t-49.5 -20zM323 540q54 0 88 -17t52.5 -40
t25.5 -41h6l19 88h115l-113 -530h-115l15 72h-5l-9.5 -12.5t-29 -28.5t-50.5 -28.5t-74 -12.5q-68 0 -113 32.5t-67.5 85.5t-22.5 114q0 56 18 112.5t54 103t87.5 74.5t118.5 28zM336 445q-42 0 -75 -19.5t-56 -52t-35.5 -71t-12.5 -75.5q0 -38 13 -70.5t40 -52t69 -19.5
t75 19.5t56 51.5t35 70.5t12 76.5t-12.5 70.5t-39.5 52t-69 19.5z" />
    <glyph glyph-name="aring" unicode="&#xe5;" horiz-adv-x="627" 
d="M377 597q-36 0 -65.5 17.5t-47.5 47.5t-18 66t18 65.5t47.5 47t65.5 17.5t66 -17.5t47.5 -47t17.5 -65.5t-17.5 -66t-47.5 -47.5t-66 -17.5zM377 670q24 0 41.5 17t17.5 41t-17.5 41t-41.5 17t-41.5 -17t-17.5 -41t17.5 -41t41.5 -17zM323 540q54 0 88 -17t52.5 -40
t25.5 -41h6l19 88h115l-113 -530h-115l15 72h-5l-9.5 -12.5t-29 -28.5t-50.5 -28.5t-74 -12.5q-68 0 -113 32.5t-67.5 85.5t-22.5 114q0 56 18 112.5t54 103t87.5 74.5t118.5 28zM336 445q-42 0 -75 -19.5t-56 -52t-35.5 -71t-12.5 -75.5q0 -38 13 -70.5t40 -52t69 -19.5
t75 19.5t56 51.5t35 70.5t12 76.5t-12.5 70.5t-39.5 52t-69 19.5z" />
    <glyph glyph-name="ae" unicode="&#xe6;" horiz-adv-x="944" 
d="M203 -10q-84 0 -130 41.5t-46 105.5q0 44 23 81t70.5 61.5t123.5 27.5l162 7l4 21q6 30 -0.5 56t-29.5 42t-65 16q-39 0 -62.5 -12.5t-35.5 -28.5t-16.5 -28.5l-4.5 -12.5h-108l5 17.5t19.5 43t40 51.5t66 43.5t99.5 17.5q70 0 111 -27.5t58 -63.5h6q30 36 79.5 63.5
t117.5 27.5t112.5 -27t68.5 -70.5t29 -94.5t-6 -98l-4 -18h-384q0 -63 30.5 -106.5t97.5 -43.5q37 0 61.5 12.5t39 28.5t21 28.5l6.5 12.5h107l-7 -17.5t-23 -43.5t-44 -52t-70 -43.5t-100 -17.5t-99.5 18t-67 45.5t-37.5 56.5h-6l-11 -18t-35.5 -42t-65 -42t-100.5 -18z
M520 312h275q5 34 -5.5 65t-37 51t-69.5 20q-61 0 -103.5 -40t-59.5 -96zM229 75q57 0 100 38.5t56 98.5l5 22l-137 -7q-56 -3 -84.5 -25t-28.5 -57q0 -37 27.5 -53.5t61.5 -16.5z" />
    <glyph glyph-name="ccedilla" unicode="&#xe7;" horiz-adv-x="585" 
d="M203 -261q-32 0 -56.5 5.5l-24.5 5.5l11 64l12 -2t28.5 -4.5t30.5 -2.5q40 0 54.5 15t14.5 32q0 16 -13 28t-38 12q-21 0 -34.5 -7t-12.5 -7l-32 40l67 78q-58 11 -96 45t-56.5 82t-18.5 104q0 59 20 115t58.5 100.5t95 71t128.5 26.5q64 0 104.5 -19.5t62.5 -48.5
t30.5 -58t10 -49l1.5 -20h-108l-1.5 15t-11 35t-32 35t-63.5 15q-57 0 -97.5 -30.5t-62 -79t-21.5 -102.5q0 -62 30.5 -105t94.5 -43q40 0 66.5 15t41.5 35t21 35l6 15h109l-6 -19t-21 -46.5t-41.5 -56t-67.5 -49t-99 -23.5l-39 -45h4q51 0 77.5 -28t26.5 -65q0 -28 -16 -54
t-49.5 -43t-87.5 -17z" />
    <glyph glyph-name="egrave" unicode="&#xe8;" horiz-adv-x="589" 
d="M308 608l-87 181h108l66 -180zM270 -10q-80 0 -130.5 33.5t-75.5 87.5t-25 115q0 56 19.5 111.5t57 101.5t92.5 73.5t126 27.5q69 0 114 -27t68.5 -70.5t29 -94.5t-5.5 -98l-4 -18h-385q1 -64 31.5 -107t95.5 -43q38 0 63 12.5t39.5 28.5t20.5 28.5l6 12.5h108l-7 -17.5
t-23.5 -43.5t-44.5 -52t-70 -43.5t-100 -17.5zM165 312h276q5 34 -5.5 65t-37.5 51t-70 20q-61 0 -103 -40t-60 -96z" />
    <glyph glyph-name="eacute" unicode="&#xe9;" horiz-adv-x="589" 
d="M414 608l-89 1l89 180h110zM270 -10q-80 0 -130.5 33.5t-75.5 87.5t-25 115q0 56 19.5 111.5t57 101.5t92.5 73.5t126 27.5q69 0 114 -27t68.5 -70.5t29 -94.5t-5.5 -98l-4 -18h-385q1 -64 31.5 -107t95.5 -43q38 0 63 12.5t39.5 28.5t20.5 28.5l6 12.5h108l-7 -17.5
t-23.5 -43.5t-44.5 -52t-70 -43.5t-100 -17.5zM165 312h276q5 34 -5.5 65t-37.5 51t-70 20q-61 0 -103 -40t-60 -96z" />
    <glyph glyph-name="ecircumflex" unicode="&#xea;" horiz-adv-x="589" 
d="M190 603l160 171h94l88 -171h-91l-52 106l-96 -106h-103zM270 -10q-80 0 -130.5 33.5t-75.5 87.5t-25 115q0 56 19.5 111.5t57 101.5t92.5 73.5t126 27.5q69 0 114 -27t68.5 -70.5t29 -94.5t-5.5 -98l-4 -18h-385q1 -64 31.5 -107t95.5 -43q38 0 63 12.5t39.5 28.5
t20.5 28.5l6 12.5h108l-7 -17.5t-23.5 -43.5t-44.5 -52t-70 -43.5t-100 -17.5zM165 312h276q5 34 -5.5 65t-37.5 51t-70 20q-61 0 -103 -40t-60 -96z" />
    <glyph glyph-name="edieresis" unicode="&#xeb;" horiz-adv-x="589" 
d="M476 604q-31 0 -50.5 20.5t-19.5 48.5q0 29 19.5 49t50.5 20q30 0 50 -20t20 -49t-20 -49t-50 -20zM274 604q-31 0 -50.5 20.5t-19.5 48.5q0 29 19.5 49t50.5 20q30 0 50 -20t20 -49t-20 -49t-50 -20zM270 -10q-80 0 -130.5 33.5t-75.5 87.5t-25 115q0 56 19.5 111.5
t57 101.5t92.5 73.5t126 27.5q69 0 114 -27t68.5 -70.5t29 -94.5t-5.5 -98l-4 -18h-385q1 -64 31.5 -107t95.5 -43q38 0 63 12.5t39.5 28.5t20.5 28.5l6 12.5h108l-7 -17.5t-23.5 -43.5t-44.5 -52t-70 -43.5t-100 -17.5zM165 312h276q5 34 -5.5 65t-37.5 51t-70 20
q-61 0 -103 -40t-60 -96z" />
    <glyph glyph-name="igrave" unicode="&#xec;" horiz-adv-x="269" 
d="M145 608l-87 181h107l67 -180zM12 0l113 530h115l-113 -530h-115z" />
    <glyph glyph-name="iacute" unicode="&#xed;" horiz-adv-x="269" 
d="M250 608l-89 1l90 180h110zM12 0l113 530h115l-113 -530h-115z" />
    <glyph glyph-name="icircumflex" unicode="&#xee;" horiz-adv-x="269" 
d="M27 603l159 171h95l87 -171h-90l-52 106l-96 -106h-103zM12 0l113 530h115l-113 -530h-115z" />
    <glyph glyph-name="idieresis" unicode="&#xef;" horiz-adv-x="269" 
d="M313 604q-31 0 -50.5 20.5t-19.5 48.5q0 29 19.5 49t50.5 20q30 0 50 -20t20 -49t-20 -49t-50 -20zM111 604q-31 0 -50.5 20.5t-19.5 48.5q0 29 19.5 49t50.5 20q30 0 50 -20t20 -49t-20 -49t-50 -20zM12 0l113 530h115l-113 -530h-115z" />
    <glyph glyph-name="eth" unicode="&#xf0;" horiz-adv-x="637" 
d="M286 -10q-81 0 -134 34t-78.5 89t-25.5 117q0 54 18.5 107.5t54.5 97t87.5 70t117.5 26.5q68 0 105.5 -25.5t56.5 -53.5q-20 66 -62.5 117t-88.5 87l-137 -71l-20 75l85 45q-40 23 -67 35l-27 12l44 78l21 -7.5t54.5 -24t73.5 -42.5l144 75l21 -75l-97 -50
q44 -37 82.5 -87.5t62.5 -114.5t24 -144q0 -72 -21.5 -138.5t-62 -119t-99 -82.5t-132.5 -30zM291 85q42 0 75 19t55.5 50t34 68.5t11.5 74.5q0 39 -13.5 72.5t-42 54.5t-71.5 21q-42 0 -75 -19t-55.5 -50.5t-34.5 -69t-12 -74.5q0 -39 13.5 -72.5t42 -54t72.5 -20.5z" />
    <glyph glyph-name="ntilde" unicode="&#xf1;" horiz-adv-x="594" 
d="M458 615q-26 0 -44.5 10.5t-32.5 24t-26 24t-26 10.5q-15 0 -25 -16.5t-15 -46.5h-68q11 59 34.5 98t74.5 39q27 0 45.5 -10t32 -23.5t25.5 -23.5t26 -10q16 0 25 16t14 46h69q-12 -59 -35.5 -98.5t-73.5 -39.5zM19 0l113 530h114l-16 -77h5l9 13.5t28 30.5t49 30t71 13
q59 0 96 -29.5t50.5 -78t0.5 -106.5l-69 -326h-115l69 323q10 50 -9 85.5t-71 35.5q-60 0 -97 -42.5t-50 -103.5l-64 -298h-114z" />
    <glyph glyph-name="ograve" unicode="&#xf2;" horiz-adv-x="608" 
d="M308 608l-87 181h108l66 -180zM265 -10q-77 0 -127.5 33t-75 86t-24.5 114q0 56 20 112t58 102.5t93.5 74.5t126.5 28q78 0 128 -33t74.5 -86t24.5 -114q0 -56 -19.5 -112t-58 -102.5t-94 -74.5t-126.5 -28zM272 87q42 0 75 19t56 51t35 70t12 76t-13 70t-39.5 51
t-68.5 19t-75 -19t-56 -51t-35 -70t-12 -76t13 -70t39.5 -51t68.5 -19z" />
    <glyph glyph-name="oacute" unicode="&#xf3;" horiz-adv-x="608" 
d="M414 608l-89 1l89 180h110zM265 -10q-77 0 -127.5 33t-75 86t-24.5 114q0 56 20 112t58 102.5t93.5 74.5t126.5 28q78 0 128 -33t74.5 -86t24.5 -114q0 -56 -19.5 -112t-58 -102.5t-94 -74.5t-126.5 -28zM272 87q42 0 75 19t56 51t35 70t12 76t-13 70t-39.5 51t-68.5 19
t-75 -19t-56 -51t-35 -70t-12 -76t13 -70t39.5 -51t68.5 -19z" />
    <glyph glyph-name="ocircumflex" unicode="&#xf4;" horiz-adv-x="608" 
d="M190 603l160 171h94l88 -171h-91l-52 106l-96 -106h-103zM265 -10q-77 0 -127.5 33t-75 86t-24.5 114q0 56 20 112t58 102.5t93.5 74.5t126.5 28q78 0 128 -33t74.5 -86t24.5 -114q0 -56 -19.5 -112t-58 -102.5t-94 -74.5t-126.5 -28zM272 87q42 0 75 19t56 51t35 70
t12 76t-13 70t-39.5 51t-68.5 19t-75 -19t-56 -51t-35 -70t-12 -76t13 -70t39.5 -51t68.5 -19z" />
    <glyph glyph-name="otilde" unicode="&#xf5;" horiz-adv-x="608" 
d="M445 615q-27 0 -45 10.5t-32 24t-26 24t-26 10.5q-16 0 -25.5 -16.5t-14.5 -46.5h-69q12 59 35.5 98t74.5 39q27 0 45.5 -10t32 -23.5t25.5 -23.5t26 -10q16 0 25 16t14 46h68q-11 -59 -34.5 -98.5t-73.5 -39.5zM265 -10q-77 0 -127.5 33t-75 86t-24.5 114q0 56 20 112
t58 102.5t93.5 74.5t126.5 28q78 0 128 -33t74.5 -86t24.5 -114q0 -56 -19.5 -112t-58 -102.5t-94 -74.5t-126.5 -28zM272 87q42 0 75 19t56 51t35 70t12 76t-13 70t-39.5 51t-68.5 19t-75 -19t-56 -51t-35 -70t-12 -76t13 -70t39.5 -51t68.5 -19z" />
    <glyph glyph-name="odieresis" unicode="&#xf6;" horiz-adv-x="608" 
d="M476 604q-31 0 -50.5 20.5t-19.5 48.5q0 29 19.5 49t50.5 20q30 0 50 -20t20 -49t-20 -49t-50 -20zM274 604q-31 0 -50.5 20.5t-19.5 48.5q0 29 19.5 49t50.5 20q30 0 50 -20t20 -49t-20 -49t-50 -20zM265 -10q-77 0 -127.5 33t-75 86t-24.5 114q0 56 20 112t58 102.5
t93.5 74.5t126.5 28q78 0 128 -33t74.5 -86t24.5 -114q0 -56 -19.5 -112t-58 -102.5t-94 -74.5t-126.5 -28zM272 87q42 0 75 19t56 51t35 70t12 76t-13 70t-39.5 51t-68.5 19t-75 -19t-56 -51t-35 -70t-12 -76t13 -70t39.5 -51t68.5 -19z" />
    <glyph glyph-name="divide" unicode="&#xf7;" horiz-adv-x="657" 
d="M367 411q-31 0 -51.5 21.5t-20.5 50.5q0 30 20.5 51t51.5 21t51.5 -21t20.5 -51t-20.5 -51t-51.5 -21zM96 257l18 87h446l-18 -87h-446zM289 46q-32 0 -52 21t-20 51q0 29 20 50t52 21q31 0 51.5 -21t20.5 -50q0 -30 -20.5 -51t-51.5 -21z" />
    <glyph glyph-name="oslash" unicode="&#xf8;" horiz-adv-x="616" 
d="M94 -45l42 75q-46 32 -68 83.5t-22 109.5q0 56 20 112t58 102.5t93.5 74.5t126.5 28q39 0 73 -9l25 43h83l-42 -75q45 -32 66.5 -83t21.5 -109q0 -56 -19.5 -112t-58 -102.5t-94 -74.5t-126.5 -28q-38 0 -70 9l-25 -44h-84zM159 227q0 -29 7.5 -55.5t23.5 -45.5l176 314
q-13 3 -29 3q-42 0 -75 -19t-56 -51t-35 -70t-12 -76zM280 87q42 0 75 19t56 51t35 70t12 76q0 29 -7 54.5t-22 44.5l-176 -313q13 -2 27 -2z" />
    <glyph glyph-name="ugrave" unicode="&#xf9;" horiz-adv-x="586" 
d="M314 608l-87 181h108l66 -180zM194 -10q-51 0 -86 24t-49 68t-1 105l73 343h115l-73 -342q-10 -49 10.5 -75.5t63.5 -26.5t73.5 22t50 56.5t26.5 72.5l62 293h115l-112 -530h-115l16 76h-6q-11 -15 -31.5 -35.5t-52.5 -35.5t-79 -15z" />
    <glyph glyph-name="uacute" unicode="&#xfa;" horiz-adv-x="586" 
d="M420 608l-89 1l89 180h110zM194 -10q-51 0 -86 24t-49 68t-1 105l73 343h115l-73 -342q-10 -49 10.5 -75.5t63.5 -26.5t73.5 22t50 56.5t26.5 72.5l62 293h115l-112 -530h-115l16 76h-6q-11 -15 -31.5 -35.5t-52.5 -35.5t-79 -15z" />
    <glyph glyph-name="ucircumflex" unicode="&#xfb;" horiz-adv-x="586" 
d="M196 603l160 171h94l88 -171h-91l-52 106l-96 -106h-103zM194 -10q-51 0 -86 24t-49 68t-1 105l73 343h115l-73 -342q-10 -49 10.5 -75.5t63.5 -26.5t73.5 22t50 56.5t26.5 72.5l62 293h115l-112 -530h-115l16 76h-6q-11 -15 -31.5 -35.5t-52.5 -35.5t-79 -15z" />
    <glyph glyph-name="udieresis" unicode="&#xfc;" horiz-adv-x="586" 
d="M482 604q-31 0 -50.5 20.5t-19.5 48.5q0 29 19.5 49t50.5 20q30 0 50 -20t20 -49t-20 -49t-50 -20zM280 604q-31 0 -50.5 20.5t-19.5 48.5q0 29 19.5 49t50.5 20q30 0 50 -20t20 -49t-20 -49t-50 -20zM194 -10q-51 0 -86 24t-49 68t-1 105l73 343h115l-73 -342
q-10 -49 10.5 -75.5t63.5 -26.5t73.5 22t50 56.5t26.5 72.5l62 293h115l-112 -530h-115l16 76h-6q-11 -15 -31.5 -35.5t-52.5 -35.5t-79 -15z" />
    <glyph glyph-name="yacute" unicode="&#xfd;" horiz-adv-x="575" 
d="M396 608l-89 1l90 180h110zM-2 -195q-23 0 -38 2l-15 2l20 98l13.5 -1.5t29.5 -1.5q93 0 159 94l-88 532h113l60 -397l225 397h128l-311 -524q-62 -103 -135 -152t-161 -49z" />
    <glyph glyph-name="thorn" unicode="&#xfe;" horiz-adv-x="653" 
d="M-17 -195l41 195v0l11 52l102 478h1l49 230h115l-65 -302h6l9 12.5t28.5 28.5t50.5 28.5t75 12.5q68 0 113 -32.5t67.5 -85.5t22.5 -114q0 -56 -18.5 -112.5t-54 -103t-87.5 -74.5t-119 -28q-54 0 -88 17t-52.5 40t-25.5 41h-6l-61 -283h-114zM196 227q0 -38 13 -70.5
t39.5 -52t68.5 -19.5t75 19.5t56.5 52t35.5 71t12 75.5q0 38 -13 70.5t-39.5 52t-69.5 19.5q-41 0 -74 -19.5t-56.5 -51.5t-35.5 -70.5t-12 -76.5z" />
    <glyph glyph-name="ydieresis" unicode="&#xff;" horiz-adv-x="575" 
d="M459 604q-31 0 -50.5 20.5t-19.5 48.5q0 29 19.5 49t50.5 20q30 0 50 -20t20 -49t-20 -49t-50 -20zM257 604q-31 0 -50.5 20.5t-19.5 48.5q0 29 19.5 49t50.5 20q30 0 50 -20t20 -49t-20 -49t-50 -20zM-2 -195q-23 0 -38 2l-15 2l20 98l13.5 -1.5t29.5 -1.5q93 0 159 94
l-88 532h113l60 -397l225 397h128l-311 -524q-62 -103 -135 -152t-161 -49z" />
    <glyph glyph-name="Amacron" unicode="&#x100;" horiz-adv-x="717" 
d="M326 845l17 78h311l-17 -78h-311zM-29 0l415 740h145l101 -740h-115l-22 166h-303l-92 -166h-129zM249 270h234l-44 341z" />
    <glyph glyph-name="amacron" unicode="&#x101;" horiz-adv-x="627" 
d="M237 643l18 78h311l-17 -78h-312zM323 540q54 0 88 -17t52.5 -40t25.5 -41h6l19 88h115l-113 -530h-115l15 72h-5l-9.5 -12.5t-29 -28.5t-50.5 -28.5t-74 -12.5q-68 0 -113 32.5t-67.5 85.5t-22.5 114q0 56 18 112.5t54 103t87.5 74.5t118.5 28zM336 445q-42 0 -75 -19.5
t-56 -52t-35.5 -71t-12.5 -75.5q0 -38 13 -70.5t40 -52t69 -19.5t75 19.5t56 51.5t35 70.5t12 76.5t-12.5 70.5t-39.5 52t-69 19.5z" />
    <glyph glyph-name="Abreve" unicode="&#x102;" horiz-adv-x="717" 
d="M489 812q-49 0 -78.5 15t-44.5 37t-20.5 44t-6 36.5l-0.5 14.5h81l-0.5 -11.5t4.5 -26.5t20 -26.5t46 -11.5t51 11.5t31 26.5t15.5 26.5l4.5 11.5h81l-4 -14.5t-15 -36.5t-31.5 -44t-53 -37t-80.5 -15zM-29 0l415 740h145l101 -740h-115l-22 166h-303l-92 -166h-129z
M249 270h234l-44 341z" />
    <glyph glyph-name="abreve" unicode="&#x103;" horiz-adv-x="627" 
d="M398 602q-50 0 -80 16t-44.5 40t-19 47.5t-3.5 39.5l1 16h80l-0.5 -13t3.5 -30t19 -30t46 -13q32 0 52.5 13t32 30t16 30l4.5 13h80l-3.5 -16t-14 -39.5t-31 -47.5t-54 -40t-84.5 -16zM323 540q54 0 88 -17t52.5 -40t25.5 -41h6l19 88h115l-113 -530h-115l15 72h-5
l-9.5 -12.5t-29 -28.5t-50.5 -28.5t-74 -12.5q-68 0 -113 32.5t-67.5 85.5t-22.5 114q0 56 18 112.5t54 103t87.5 74.5t118.5 28zM336 445q-42 0 -75 -19.5t-56 -52t-35.5 -71t-12.5 -75.5q0 -38 13 -70.5t40 -52t69 -19.5t75 19.5t56 51.5t35 70.5t12 76.5t-12.5 70.5
t-39.5 52t-69 19.5z" />
    <glyph glyph-name="Aogonek" unicode="&#x104;" horiz-adv-x="717" 
d="M-29 0l415 740h145l101 -740h-46l-10 -4.5t-23.5 -13.5t-24 -22t-10.5 -30q0 -15 12 -24.5t37 -9.5q13 0 24.5 2l11.5 2l-14 -67l-13.5 -2.5t-35.5 -2.5q-53 0 -80.5 22t-27.5 58q0 28 13.5 48t33 33t37.5 20l-21 157h-303l-92 -166h-129zM249 270h234l-44 341z" />
    <glyph glyph-name="aogonek" unicode="&#x105;" horiz-adv-x="627" 
d="M470 -172q-53 0 -81 22t-28 58q0 34 21 56.5t44 35.5h-25l15 72h-5l-9.5 -12.5t-29 -28.5t-50.5 -28.5t-74 -12.5q-68 0 -113 32.5t-67.5 85.5t-22.5 114q0 56 18 112.5t54 103t87.5 74.5t118.5 28q54 0 88 -17t52.5 -40t25.5 -41h6l19 88h115l-113 -530l-10.5 -4.5
t-24 -13.5t-23.5 -22t-10 -30q0 -15 11.5 -24.5t37.5 -9.5q13 0 24.5 2l11.5 2l-14 -67l-13.5 -2.5t-35.5 -2.5zM336 445q-42 0 -75 -19.5t-56 -52t-35.5 -71t-12.5 -75.5q0 -38 13 -70.5t40 -52t69 -19.5t75 19.5t56 51.5t35 70.5t12 76.5t-12.5 70.5t-39.5 52t-69 19.5z
" />
    <glyph glyph-name="Cacute" unicode="&#x106;" horiz-adv-x="757" 
d="M551 817l-89 1l90 180h110zM367 -10q-80 0 -138.5 26.5t-96.5 72t-56.5 104t-18.5 123.5q0 77 26 153.5t76.5 140t126 102t174.5 38.5q72 0 121.5 -19t80.5 -48.5t48 -63t23.5 -63t8 -48.5l1.5 -19h-117l-1 16t-8.5 39t-25.5 46.5t-51 39.5t-86 16q-68 0 -120 -28.5
t-87.5 -75.5t-53.5 -104t-18 -113q0 -61 21.5 -113t65.5 -84.5t114 -32.5q50 0 87 16t61.5 39t39 46.5t20.5 39l6 15.5h118l-6 -19t-20.5 -48.5t-39 -63t-62.5 -63t-90.5 -48.5t-122.5 -19z" />
    <glyph glyph-name="cacute" unicode="&#x107;" horiz-adv-x="585" 
d="M421 608l-89 1l90 180h110zM268 -10q-78 0 -128.5 32.5t-75.5 86.5t-25 118q0 59 20 115t58.5 100.5t95 71t128.5 26.5q64 0 104.5 -19.5t62.5 -48.5t30.5 -58t10 -49l1.5 -20h-108l-1.5 15t-11 35t-32 35t-63.5 15q-57 0 -97.5 -30.5t-62 -79t-21.5 -102.5
q0 -62 30.5 -105t94.5 -43q40 0 66.5 15t41.5 35t21 35l6 15h109l-6.5 -20t-22.5 -49t-44.5 -58t-73 -48.5t-107.5 -19.5z" />
    <glyph glyph-name="Cdotaccent" unicode="&#x10a;" horiz-adv-x="757" 
d="M516 827q-31 0 -51 20.5t-20 49.5t20 49.5t51 20.5q30 0 50.5 -20.5t20.5 -49.5t-20.5 -49.5t-50.5 -20.5zM367 -10q-80 0 -138.5 26.5t-96.5 72t-56.5 104t-18.5 123.5q0 77 26 153.5t76.5 140t126 102t174.5 38.5q72 0 121.5 -19t80.5 -48.5t48 -63t23.5 -63t8 -48.5
l1.5 -19h-117l-1 16t-8.5 39t-25.5 46.5t-51 39.5t-86 16q-68 0 -120 -28.5t-87.5 -75.5t-53.5 -104t-18 -113q0 -61 21.5 -113t65.5 -84.5t114 -32.5q50 0 87 16t61.5 39t39 46.5t20.5 39l6 15.5h118l-6 -19t-20.5 -48.5t-39 -63t-62.5 -63t-90.5 -48.5t-122.5 -19z" />
    <glyph glyph-name="cdotaccent" unicode="&#x10b;" horiz-adv-x="585" 
d="M387 617q-32 0 -52 21t-20 49q0 29 20 49.5t52 20.5q30 0 50.5 -20.5t20.5 -49.5t-20.5 -49.5t-50.5 -20.5zM268 -10q-78 0 -128.5 32.5t-75.5 86.5t-25 118q0 59 20 115t58.5 100.5t95 71t128.5 26.5q64 0 104.5 -19.5t62.5 -48.5t30.5 -58t10 -49l1.5 -20h-108l-1.5 15
t-11 35t-32 35t-63.5 15q-57 0 -97.5 -30.5t-62 -79t-21.5 -102.5q0 -62 30.5 -105t94.5 -43q40 0 66.5 15t41.5 35t21 35l6 15h109l-6.5 -20t-22.5 -49t-44.5 -58t-73 -48.5t-107.5 -19.5z" />
    <glyph glyph-name="Ccaron" unicode="&#x10c;" horiz-adv-x="757" 
d="M448 812l-88 171h91l51 -106l96 106h104l-160 -171h-94zM367 -10q-80 0 -138.5 26.5t-96.5 72t-56.5 104t-18.5 123.5q0 77 26 153.5t76.5 140t126 102t174.5 38.5q72 0 121.5 -19t80.5 -48.5t48 -63t23.5 -63t8 -48.5l1.5 -19h-117l-1 16t-8.5 39t-25.5 46.5t-51 39.5
t-86 16q-68 0 -120 -28.5t-87.5 -75.5t-53.5 -104t-18 -113q0 -61 21.5 -113t65.5 -84.5t114 -32.5q50 0 87 16t61.5 39t39 46.5t20.5 39l6 15.5h118l-6 -19t-20.5 -48.5t-39 -63t-62.5 -63t-90.5 -48.5t-122.5 -19z" />
    <glyph glyph-name="ccaron" unicode="&#x10d;" horiz-adv-x="585" 
d="M318 602l-88 171h91l52 -106l96 106h103l-160 -171h-94zM268 -10q-78 0 -128.5 32.5t-75.5 86.5t-25 118q0 59 20 115t58.5 100.5t95 71t128.5 26.5q64 0 104.5 -19.5t62.5 -48.5t30.5 -58t10 -49l1.5 -20h-108l-1.5 15t-11 35t-32 35t-63.5 15q-57 0 -97.5 -30.5
t-62 -79t-21.5 -102.5q0 -62 30.5 -105t94.5 -43q40 0 66.5 15t41.5 35t21 35l6 15h109l-6.5 -20t-22.5 -49t-44.5 -58t-73 -48.5t-107.5 -19.5z" />
    <glyph glyph-name="Dcaron" unicode="&#x10e;" horiz-adv-x="713" 
d="M380 812l-88 171h91l51 -106l97 106h103l-160 -171h-94zM24 0l157 740h193q82 0 142 -25.5t99 -69.5t58 -100.5t19 -118.5q0 -76 -27.5 -151t-81.5 -137.5t-133 -100t-181 -37.5h-245zM362 638h-86l-114 -535h114q71 0 126.5 28t94 74.5t58.5 102.5t20 112
q0 57 -22.5 107t-70 80.5t-120.5 30.5z" />
    <glyph glyph-name="dcaron" unicode="&#x10f;" horiz-adv-x="720" 
d="M250 -10q-68 0 -113 32.5t-67.5 85.5t-22.5 114q0 56 18 112.5t54 103t87.5 74.5t118.5 28q54 0 88 -17t52.5 -40t25.5 -41h6l69 318h115l-163 -760h-115l15 72h-5l-9.5 -12.5t-29 -28.5t-50.5 -28.5t-74 -12.5zM706 548l55 212h106l-87 -212h-74zM281 85q42 0 75 19.5
t56 51.5t35 70.5t12 76.5t-12.5 70.5t-39.5 52t-69 19.5t-75 -19.5t-56 -52t-35.5 -71t-12.5 -75.5q0 -38 13 -70.5t40 -52t69 -19.5z" />
    <glyph glyph-name="Dcroat" unicode="&#x110;" horiz-adv-x="756" 
d="M67 0l68 322h-104l20 98h105l68 320h194q81 0 141 -25.5t99 -69.5t58 -100.5t19 -118.5q0 -76 -27.5 -151t-81.5 -137.5t-132.5 -100t-180.5 -37.5h-246zM392 322h-140l-47 -219h114q71 0 127 28t94 74.5t58 102.5t20 112q0 57 -22.5 107t-70 80.5t-120.5 30.5h-86
l-46 -218h140z" />
    <glyph glyph-name="dcroat" unicode="&#x111;" horiz-adv-x="666" 
d="M250 -10q-68 0 -113 32.5t-67.5 85.5t-22.5 114q0 56 18 112.5t54 103t87.5 74.5t118.5 28q54 0 88 -17t52.5 -40t25.5 -41h6l31 141h-136l17 84h137l20 93h115l-20 -93h86l-17 -84h-87l-125 -583h-115l15 72h-5l-9.5 -12.5t-29 -28.5t-50.5 -28.5t-74 -12.5zM281 85
q42 0 75 19.5t56 51.5t35 70.5t12 76.5t-12.5 70.5t-39.5 52t-69 19.5t-75 -19.5t-56 -52t-35.5 -71t-12.5 -75.5q0 -38 13 -70.5t40 -52t69 -19.5z" />
    <glyph glyph-name="Emacron" unicode="&#x112;" horiz-adv-x="616" 
d="M275 845l18 78h311l-17 -78h-312zM24 0l157 740h465l-21 -102h-349l-45 -211h303l-21 -101h-303l-48 -224h354l-22 -102h-470z" />
    <glyph glyph-name="emacron" unicode="&#x113;" horiz-adv-x="589" 
d="M213 643l17 78h311l-17 -78h-311zM270 -10q-80 0 -130.5 33.5t-75.5 87.5t-25 115q0 56 19.5 111.5t57 101.5t92.5 73.5t126 27.5q69 0 114 -27t68.5 -70.5t29 -94.5t-5.5 -98l-4 -18h-385q1 -64 31.5 -107t95.5 -43q38 0 63 12.5t39.5 28.5t20.5 28.5l6 12.5h108
l-7 -17.5t-23.5 -43.5t-44.5 -52t-70 -43.5t-100 -17.5zM165 312h276q5 34 -5.5 65t-37.5 51t-70 20q-61 0 -103 -40t-60 -96z" />
    <glyph glyph-name="Edotaccent" unicode="&#x116;" horiz-adv-x="616" 
d="M443 827q-31 0 -51 21t-20 49q0 29 20 49.5t51 20.5t51 -20.5t20 -49.5t-20 -49.5t-51 -20.5zM24 0l157 740h465l-21 -102h-349l-45 -211h303l-21 -101h-303l-48 -224h354l-22 -102h-470z" />
    <glyph glyph-name="edotaccent" unicode="&#x117;" horiz-adv-x="589" 
d="M379 617q-31 0 -51 21t-20 49q0 29 20 49.5t51 20.5q30 0 50.5 -20.5t20.5 -49.5t-20.5 -49.5t-50.5 -20.5zM270 -10q-80 0 -130.5 33.5t-75.5 87.5t-25 115q0 56 19.5 111.5t57 101.5t92.5 73.5t126 27.5q69 0 114 -27t68.5 -70.5t29 -94.5t-5.5 -98l-4 -18h-385
q1 -64 31.5 -107t95.5 -43q38 0 63 12.5t39.5 28.5t20.5 28.5l6 12.5h108l-7 -17.5t-23.5 -43.5t-44.5 -52t-70 -43.5t-100 -17.5zM165 312h276q5 34 -5.5 65t-37.5 51t-70 20q-61 0 -103 -40t-60 -96z" />
    <glyph glyph-name="Eogonek" unicode="&#x118;" horiz-adv-x="616" 
d="M24 0l157 740h465l-21 -102h-349l-45 -211h303l-21 -101h-303l-48 -224h354l-22 -102l-10 -4.5t-24 -13.5t-24 -22t-10 -30q0 -15 12 -24.5t37 -9.5q13 0 24.5 2l11.5 2l-14 -67l-13.5 -2.5t-35.5 -2.5q-53 0 -80.5 22t-27.5 58q0 34 20.5 56.5t43.5 35.5h-380z" />
    <glyph glyph-name="eogonek" unicode="&#x119;" horiz-adv-x="589" 
d="M270 -177q-53 0 -80.5 22.5t-27.5 58.5q0 33 19 55t42 35q-63 10 -103.5 44t-60.5 83.5t-20 104.5q0 56 19.5 111.5t57 101.5t92.5 73.5t126 27.5q69 0 114 -27t68.5 -70.5t29 -94.5t-5.5 -98l-4 -18h-385q1 -64 31.5 -107t95.5 -43q38 0 63 12.5t39.5 28.5t20.5 28.5
l6 12.5h108l-6 -15.5t-20 -38.5t-37.5 -48t-58.5 -44t-84 -26q-9 -3 -23.5 -12t-26 -22.5t-11.5 -31.5q0 -16 12 -25.5t37 -9.5q13 0 24.5 2.5l11.5 2.5l-14 -67l-13.5 -3t-35.5 -3zM165 312h276q5 34 -5.5 65t-37.5 51t-70 20q-61 0 -103 -40t-60 -96z" />
    <glyph glyph-name="Ecaron" unicode="&#x11a;" horiz-adv-x="616" 
d="M375 812l-88 171h91l51 -106l97 106h103l-160 -171h-94zM24 0l157 740h465l-21 -102h-349l-45 -211h303l-21 -101h-303l-48 -224h354l-22 -102h-470z" />
    <glyph glyph-name="ecaron" unicode="&#x11b;" horiz-adv-x="589" 
d="M310 602l-87 171h90l52 -106l96 106h103l-159 -171h-95zM270 -10q-80 0 -130.5 33.5t-75.5 87.5t-25 115q0 56 19.5 111.5t57 101.5t92.5 73.5t126 27.5q69 0 114 -27t68.5 -70.5t29 -94.5t-5.5 -98l-4 -18h-385q1 -64 31.5 -107t95.5 -43q38 0 63 12.5t39.5 28.5
t20.5 28.5l6 12.5h108l-7 -17.5t-23.5 -43.5t-44.5 -52t-70 -43.5t-100 -17.5zM165 312h276q5 34 -5.5 65t-37.5 51t-70 20q-61 0 -103 -40t-60 -96z" />
    <glyph glyph-name="Gbreve" unicode="&#x11e;" horiz-adv-x="761" 
d="M501 812q-51 0 -81 16t-44.5 40t-18.5 47.5t-3.5 39.5l0.5 16h81l-1 -13t3.5 -30t19 -30t45.5 -13q32 0 52.5 13t32 30t16 30l4.5 13h81l-3.5 -16t-14 -39.5t-31 -47.5t-54.5 -40t-84 -16zM371 -10q-79 0 -138 26.5t-98 72t-58 104.5t-19 124q0 77 25.5 153.5t76.5 140
t126.5 101.5t175.5 38q71 0 120 -19t80 -48.5t47.5 -63t23.5 -63t8.5 -48.5l1.5 -19h-117l-1 16t-8.5 39t-25.5 46.5t-51 39.5t-85 16q-69 0 -121 -28.5t-87.5 -75.5t-53 -103.5t-17.5 -112.5q0 -61 22 -113.5t67.5 -85t116.5 -32.5q90 0 147 56.5t76 143.5h-202l20 93h313
l-7 -53q-14 -105 -61.5 -182.5t-123 -120t-173.5 -42.5z" />
    <glyph glyph-name="gbreve" unicode="&#x11f;" horiz-adv-x="629" 
d="M402 602q-51 0 -81 16t-44.5 40t-18.5 47.5t-3.5 39.5l0.5 16h81l-1 -13t3.5 -30t19 -30t45.5 -13q32 0 52.5 13t32 30t16 30l4.5 13h81l-3.5 -16t-14 -39.5t-31 -47.5t-54.5 -40t-84 -16zM220 -211q-70 0 -114 18t-67.5 44.5t-33 53t-11 44.5l-1.5 18h113l2 -12.5
t12 -29t34 -29t67 -12.5q53 0 89 20.5t57 53.5t29 72l9 40h-6l-9.5 -10t-28.5 -23.5t-48 -23.5t-69 -10q-70 0 -115 31.5t-67 82.5t-22 110q0 55 18 110.5t54 101.5t87.5 73.5t117.5 27.5q45 0 76 -14t50 -33t27.5 -33l8.5 -14h5l18 84h115l-107 -502q-25 -120 -100 -179.5
t-190 -59.5zM281 97q54 0 92.5 31t58.5 78.5t20 95.5q0 38 -13.5 71t-41 53t-70.5 20q-55 0 -93.5 -31t-59 -78.5t-20.5 -95.5q0 -38 13.5 -71t41.5 -53t72 -20z" />
    <glyph glyph-name="Gdotaccent" unicode="&#x120;" horiz-adv-x="761" 
d="M506 827q-32 0 -52 21t-20 49q0 29 20 49.5t52 20.5q30 0 50.5 -20.5t20.5 -49.5t-20.5 -49.5t-50.5 -20.5zM371 -10q-79 0 -138 26.5t-98 72t-58 104.5t-19 124q0 77 25.5 153.5t76.5 140t126.5 101.5t175.5 38q71 0 120 -19t80 -48.5t47.5 -63t23.5 -63t8.5 -48.5
l1.5 -19h-117l-1 16t-8.5 39t-25.5 46.5t-51 39.5t-85 16q-69 0 -121 -28.5t-87.5 -75.5t-53 -103.5t-17.5 -112.5q0 -61 22 -113.5t67.5 -85t116.5 -32.5q90 0 147 56.5t76 143.5h-202l20 93h313l-7 -53q-14 -105 -61.5 -182.5t-123 -120t-173.5 -42.5z" />
    <glyph glyph-name="gdotaccent" unicode="&#x121;" horiz-adv-x="629" 
d="M407 617q-32 0 -52 21t-20 49q0 29 20 49.5t52 20.5q30 0 50.5 -20.5t20.5 -49.5t-20.5 -49.5t-50.5 -20.5zM220 -211q-70 0 -114 18t-67.5 44.5t-33 53t-11 44.5l-1.5 18h113l2 -12.5t12 -29t34 -29t67 -12.5q53 0 89 20.5t57 53.5t29 72l9 40h-6l-9.5 -10t-28.5 -23.5
t-48 -23.5t-69 -10q-70 0 -115 31.5t-67 82.5t-22 110q0 55 18 110.5t54 101.5t87.5 73.5t117.5 27.5q45 0 76 -14t50 -33t27.5 -33l8.5 -14h5l18 84h115l-107 -502q-25 -120 -100 -179.5t-190 -59.5zM281 97q54 0 92.5 31t58.5 78.5t20 95.5q0 38 -13.5 71t-41 53t-70.5 20
q-55 0 -93.5 -31t-59 -78.5t-20.5 -95.5q0 -38 13.5 -71t41.5 -53t72 -20z" />
    <glyph glyph-name="Hbar" unicode="&#x126;" horiz-adv-x="784" 
d="M49 0l121 569h-76l20 96h76l16 75h117l-16 -75h325l16 75h117l-16 -75h92l-21 -96h-91l-121 -569h-117l69 324h-325l-69 -324h-117zM257 428h325l30 141h-325z" />
    <glyph glyph-name="hbar" unicode="&#x127;" horiz-adv-x="642" 
d="M67 0l124 583h-103l17 84h104l20 93h114l-19 -93h119l-17 -84h-120l-12 -53v0l-1 -4l-15 -73h5l9 13.5t28 30.5t49 30t71 13q59 0 96 -29.5t50 -78.5t1 -106l-69 -326h-115l69 323q10 50 -9 85.5t-71 35.5q-60 0 -97 -42.5t-50 -103.5l-64 -298h-114z" />
    <glyph glyph-name="Itilde" unicode="&#x128;" horiz-adv-x="274" 
d="M332 792q-26 0 -44.5 10.5t-32 24t-26 24t-26.5 10.5q-15 0 -25 -16.5t-15 -46.5h-68q11 59 35 98t74 39q27 0 45.5 -10t32.5 -23.5t26 -23.5t25 -10q16 0 25 16t15 46h68q-12 -59 -35.5 -98.5t-73.5 -39.5zM24 0l157 740h116l-157 -740h-116z" />
    <glyph glyph-name="itilde" unicode="&#x129;" horiz-adv-x="269" 
d="M281 615q-26 0 -44 10.5t-32 24t-26 24t-26 10.5q-16 0 -25.5 -16.5t-15.5 -46.5h-68q12 59 35.5 98t74.5 39q27 0 45.5 -10t32 -23.5t25.5 -23.5t26 -10q16 0 25 16t14 46h68q-11 -59 -35 -98.5t-74 -39.5zM12 0l113 530h115l-113 -530h-115z" />
    <glyph glyph-name="Imacron" unicode="&#x12a;" horiz-adv-x="274" 
d="M98 813l18 78h311l-17 -78h-312zM24 0l157 740h116l-157 -740h-116z" />
    <glyph glyph-name="imacron" unicode="&#x12b;" horiz-adv-x="269" 
d="M48 635l17 78h311l-17 -78h-311zM12 0l113 530h115l-113 -530h-115z" />
    <glyph glyph-name="Iogonek" unicode="&#x12e;" horiz-adv-x="274" 
d="M24 0l157 740h116l-157 -740l-10 -4.5t-23.5 -13.5t-24 -22t-10.5 -30q0 -15 12 -24.5t37 -9.5q13 0 24.5 2l11.5 2l-14 -67l-13.5 -2.5t-35.5 -2.5q-53 0 -80.5 22t-27.5 58q0 34 20.5 56.5t44.5 35.5h-27z" />
    <glyph glyph-name="iogonek" unicode="&#x12f;" horiz-adv-x="269" 
d="M216 617q-32 0 -52 21t-20 49q0 29 20 49.5t52 20.5q30 0 50.5 -20.5t20.5 -49.5t-20.5 -49.5t-50.5 -20.5zM12 0l113 530h115l-113 -530l-10.5 -4.5t-24 -13.5t-23.5 -22t-10 -30q0 -15 11.5 -24.5t37.5 -9.5q13 0 24.5 2l11.5 2l-14 -67l-13.5 -2.5t-35.5 -2.5
q-53 0 -81 22t-28 58q0 34 21 56.5t44 35.5h-25z" />
    <glyph glyph-name="Idotaccent" unicode="&#x130;" horiz-adv-x="274" 
d="M266 794q-31 0 -51 21t-20 49q0 29 20 49.5t51 20.5t51 -20.5t20 -49.5t-20 -49.5t-51 -20.5zM24 0l157 740h116l-157 -740h-116z" />
    <glyph glyph-name="dotlessi" unicode="&#x131;" horiz-adv-x="269" 
d="M12 0l113 530h115l-113 -530h-115z" />
    <glyph glyph-name="Lacute" unicode="&#x139;" horiz-adv-x="611" 
d="M309 818l-89 1l90 180h110zM24 0l157 740h116l-135 -638h349l-22 -102h-465z" />
    <glyph glyph-name="lacute" unicode="&#x13a;" horiz-adv-x="274" 
d="M356 1030l-89 1l89 180h110zM24 0l162 760h115l-163 -760h-114z" />
    <glyph glyph-name="Lcaron" unicode="&#x13d;" horiz-adv-x="611" 
d="M206 812l-88 171h91l51 -106l97 106h103l-160 -171h-94zM24 0l157 740h116l-135 -638h349l-22 -102h-465z" />
    <glyph glyph-name="lcaron" unicode="&#x13e;" horiz-adv-x="334" 
d="M24 0l162 760h115l-163 -760h-114zM320 548l55 212h106l-87 -212h-74z" />
    <glyph glyph-name="Lslash" unicode="&#x141;" horiz-adv-x="656" 
d="M70 0l67 318l-122 -38l20 98l123 38l69 324h117l-61 -285l146 46l-21 -98l-146 -46l-54 -255h349l-21 -102h-466z" />
    <glyph glyph-name="lslash" unicode="&#x142;" horiz-adv-x="426" 
d="M110 0l70 325l-146 -45l20 98l147 46l72 336h115l-64 -298l124 39l-21 -98l-124 -39l-78 -364h-115z" />
    <glyph glyph-name="Nacute" unicode="&#x143;" horiz-adv-x="743" 
d="M540 818l-89 1l89 180h110zM24 0l157 740h105l250 -535l113 535h117l-157 -740h-106l-250 529l-113 -529h-116z" />
    <glyph glyph-name="nacute" unicode="&#x144;" horiz-adv-x="594" 
d="M427 608l-89 1l90 180h110zM19 0l113 530h114l-16 -77h5l9 13.5t28 30.5t49 30t71 13q59 0 96 -29.5t50.5 -78t0.5 -106.5l-69 -326h-115l69 323q10 50 -9 85.5t-71 35.5q-60 0 -97 -42.5t-50 -103.5l-64 -298h-114z" />
    <glyph glyph-name="Ncaron" unicode="&#x147;" horiz-adv-x="743" 
d="M436 812l-87 171h90l52 -106l96 106h103l-159 -171h-95zM24 0l157 740h105l250 -535l113 535h117l-157 -740h-106l-250 529l-113 -529h-116z" />
    <glyph glyph-name="ncaron" unicode="&#x148;" horiz-adv-x="594" 
d="M324 602l-88 171h91l51 -106l96 106h104l-160 -171h-94zM19 0l113 530h114l-16 -77h5l9 13.5t28 30.5t49 30t71 13q59 0 96 -29.5t50.5 -78t0.5 -106.5l-69 -326h-115l69 323q10 50 -9 85.5t-71 35.5q-60 0 -97 -42.5t-50 -103.5l-64 -298h-114z" />
    <glyph glyph-name="Omacron" unicode="&#x14c;" horiz-adv-x="795" 
d="M335 845l17 78h311l-17 -78h-311zM371 -10q-80 0 -139 26.5t-97.5 72.5t-57.5 104.5t-19 123.5q0 77 26.5 153.5t78 140t126 101.5t170.5 38q81 0 140 -26.5t97.5 -72.5t57 -105t18.5 -123q0 -77 -26.5 -153.5t-77.5 -140t-125.5 -101.5t-171.5 -38zM375 95q67 0 119 29
t87.5 77t54 105.5t18.5 114.5q0 59 -21 110t-65 82.5t-112 31.5q-67 0 -118.5 -29t-87.5 -77t-54.5 -105.5t-18.5 -114.5q0 -59 21 -110t65 -82.5t112 -31.5z" />
    <glyph glyph-name="omacron" unicode="&#x14d;" horiz-adv-x="608" 
d="M211 635l17 78h311l-17 -78h-311zM265 -10q-77 0 -127.5 33t-75 86t-24.5 114q0 56 20 112t58 102.5t93.5 74.5t126.5 28q78 0 128 -33t74.5 -86t24.5 -114q0 -56 -19.5 -112t-58 -102.5t-94 -74.5t-126.5 -28zM272 87q42 0 75 19t56 51t35 70t12 76t-13 70t-39.5 51
t-68.5 19t-75 -19t-56 -51t-35 -70t-12 -76t13 -70t39.5 -51t68.5 -19z" />
    <glyph glyph-name="Ohungarumlaut" unicode="&#x150;" horiz-adv-x="795" 
d="M444 818l-92 1l96 180h113zM616 818l-94 1l106 180h115zM371 -10q-80 0 -139 26.5t-97.5 72.5t-57.5 104.5t-19 123.5q0 77 26.5 153.5t78 140t126 101.5t170.5 38q81 0 140 -26.5t97.5 -72.5t57 -105t18.5 -123q0 -77 -26.5 -153.5t-77.5 -140t-125.5 -101.5t-171.5 -38
zM375 95q67 0 119 29t87.5 77t54 105.5t18.5 114.5q0 59 -21 110t-65 82.5t-112 31.5q-67 0 -118.5 -29t-87.5 -77t-54.5 -105.5t-18.5 -114.5q0 -59 21 -110t65 -82.5t112 -31.5z" />
    <glyph glyph-name="ohungarumlaut" unicode="&#x151;" horiz-adv-x="608" 
d="M320 608l-92 1l97 180h113zM492 608l-94 1l106 180h116zM265 -10q-77 0 -127.5 33t-75 86t-24.5 114q0 56 20 112t58 102.5t93.5 74.5t126.5 28q78 0 128 -33t74.5 -86t24.5 -114q0 -56 -19.5 -112t-58 -102.5t-94 -74.5t-126.5 -28zM272 87q42 0 75 19t56 51t35 70
t12 76t-13 70t-39.5 51t-68.5 19t-75 -19t-56 -51t-35 -70t-12 -76t13 -70t39.5 -51t68.5 -19z" />
    <glyph glyph-name="OE" unicode="&#x152;" horiz-adv-x="967" 
d="M999 740l-22 -102h-357l-44 -211h311l-22 -101h-311l-47 -224h361l-21 -102h-479q-80 1 -138.5 27t-97 70t-57.5 100t-19 117q0 76 28 151t81.5 137.5t132.5 100t181 37.5h520zM173 320q0 -57 23 -107t70 -80.5t120 -30.5h4l113 535h-31q-71 0 -126.5 -28t-94 -74.5
t-58.5 -102.5t-20 -112z" />
    <glyph glyph-name="oe" unicode="&#x153;" horiz-adv-x="1003" 
d="M272 -10q-76 0 -126 32.5t-74.5 86t-24.5 114.5q0 57 19.5 113t57.5 102t92.5 74t124.5 28q79 0 125 -34t66 -79q30 45 84.5 79t133.5 34q67 0 111.5 -27t68.5 -70.5t29.5 -94.5t-5.5 -98l-4 -18h-385q1 -63 31.5 -106.5t96.5 -43.5q37 0 62 12.5t39.5 28.5t20.5 28.5
l6 12.5h108l-7 -17.5t-23 -43.5t-43.5 -52t-69 -43.5t-99.5 -17.5q-81 0 -128 35t-67 80q-30 -45 -85.5 -80t-134.5 -35zM579 312h276q5 34 -5.5 65t-37.5 51t-70 20q-61 0 -103 -40t-60 -96zM280 87q43 0 76.5 20.5t56 53.5t34 71t11.5 73q0 37 -13 68.5t-39.5 50.5
t-67.5 19q-42 0 -75 -19t-56.5 -51t-35.5 -70t-12 -76t13 -70t39.5 -51t68.5 -19z" />
    <glyph glyph-name="Racute" unicode="&#x154;" horiz-adv-x="655" 
d="M459 818l-89 1l90 180h110zM24 0l157 740h227q79 0 130.5 -28.5t77 -74.5t25.5 -97q0 -50 -23.5 -98.5t-69 -84.5t-112.5 -49l111 -308h-121l-106 302h-115l-65 -302h-116zM405 638h-129l-51 -238h150q48 0 81 20.5t50 51t17 62.5q0 41 -28.5 72.5t-89.5 31.5z" />
    <glyph glyph-name="racute" unicode="&#x155;" horiz-adv-x="418" 
d="M342 608l-89 1l90 180h110zM24 0l113 530h114l-15 -70h5q22 33 60.5 56.5t95.5 23.5q18 0 30.5 -2l12.5 -2l-23 -110l-11 2t-27 2q-71 0 -120.5 -50t-71.5 -154l-49 -226h-114z" />
    <glyph glyph-name="Rcaron" unicode="&#x158;" horiz-adv-x="655" 
d="M356 812l-88 171h91l51 -106l96 106h104l-160 -171h-94zM24 0l157 740h227q79 0 130.5 -28.5t77 -74.5t25.5 -97q0 -50 -23.5 -98.5t-69 -84.5t-112.5 -49l111 -308h-121l-106 302h-115l-65 -302h-116zM405 638h-129l-51 -238h150q48 0 81 20.5t50 51t17 62.5
q0 41 -28.5 72.5t-89.5 31.5z" />
    <glyph glyph-name="rcaron" unicode="&#x159;" horiz-adv-x="418" 
d="M239 602l-88 171h91l52 -106l96 106h103l-160 -171h-94zM24 0l113 530h114l-15 -70h5q22 33 60.5 56.5t95.5 23.5q18 0 30.5 -2l12.5 -2l-23 -110l-11 2t-27 2q-71 0 -120.5 -50t-71.5 -154l-49 -226h-114z" />
    <glyph glyph-name="Sacute" unicode="&#x15a;" horiz-adv-x="654" 
d="M497 818l-89 1l90 180h110zM318 -10q-73 0 -122.5 17t-80.5 43.5t-47.5 56.5t-23 57t-7.5 43.5l-1 16.5h117l1 -13.5t8.5 -33.5t25 -40.5t49.5 -34t83 -13.5q43 0 79 14.5t57 40.5t21 62q0 39 -28.5 63t-71.5 41l-84 34q-42 17 -77.5 41.5t-56.5 61.5t-21 90
q0 55 30.5 103.5t89.5 79t143 30.5q65 0 110 -15.5t73 -40t43.5 -52t22 -52t7.5 -40.5l1 -16h-113l-3 18t-16.5 42t-43 42t-81.5 18q-69 0 -107.5 -32t-38.5 -78q0 -37 23.5 -61t62.5 -40l78 -32q45 -18 85 -43t65 -63t25 -96q0 -61 -35 -110.5t-97 -79t-144 -29.5z" />
    <glyph glyph-name="sacute" unicode="&#x15b;" horiz-adv-x="520" 
d="M365 608l-89 1l90 180h110zM232 -10q-63 0 -103.5 17.5t-63 43.5t-32.5 51.5t-12.5 43l-2.5 17.5h113l2.5 -12t12.5 -28t31.5 -28.5t61.5 -12.5q46 0 72 19t26 48q0 26 -20.5 39.5t-46.5 23.5l-58 20q-58 21 -90.5 54.5t-32.5 86.5q0 44 22.5 82t67.5 61.5t111 23.5
q57 0 94 -16t58.5 -39.5t31.5 -47t13 -39.5l3 -16h-109l-3 10t-12.5 23.5t-29.5 24t-53 10.5q-41 0 -63 -20t-22 -46q0 -22 15.5 -36t40.5 -24l59 -22q31 -10 62 -28t51.5 -47t20.5 -72q0 -45 -25 -82.5t-73 -60t-117 -22.5z" />
    <glyph glyph-name="Scedilla" unicode="&#x15e;" horiz-adv-x="654" 
d="M235 -261q-32 0 -56 5.5l-24 5.5l10 64l12 -2t28.5 -4.5t30.5 -2.5q40 0 54.5 15t14.5 32q0 16 -12.5 28t-38.5 12q-21 0 -34.5 -7t-12.5 -7l-32 40l68 78q-65 11 -104.5 37t-61 58.5t-30.5 63t-10 50l-1 19.5h117l1 -13.5t8.5 -33.5t25 -40.5t49.5 -34t83 -13.5
q43 0 79 14.5t57 40.5t21 62q0 39 -28.5 63t-71.5 41l-84 34q-42 17 -77.5 41.5t-56.5 61.5t-21 90q0 55 30.5 103.5t89.5 79t143 30.5q65 0 110 -15.5t73 -40t43.5 -52t22 -52t7.5 -40.5l1 -16h-113l-3 18t-16.5 42t-43 42t-81.5 18q-69 0 -107.5 -32t-38.5 -78
q0 -37 23.5 -61t62.5 -40l78 -32q45 -18 85 -43t65 -63t25 -96q0 -61 -35 -110.5t-97 -79t-143 -29.5l-39 -44h5q50 0 76.5 -28t26.5 -65q0 -28 -15.5 -54t-49.5 -43t-88 -17z" />
    <glyph glyph-name="scedilla" unicode="&#x15f;" horiz-adv-x="520" 
d="M164 -261q-32 0 -56 5.5l-24 5.5l11 64l11.5 -2t28 -4.5t31.5 -2.5q39 0 53.5 15t14.5 32q0 16 -12.5 28t-38.5 12q-21 0 -34 -7l-13 -7l-31 40l67 78q-46 8 -75 27.5t-45 43.5t-23 46t-9 36l-2 14h113l2.5 -12t12.5 -28t31.5 -28.5t61.5 -12.5q46 0 72 19t26 48
q0 26 -20.5 39.5t-46.5 23.5l-58 20q-58 21 -90.5 54.5t-32.5 86.5q0 44 22.5 82t67.5 61.5t111 23.5q57 0 94 -16t58.5 -39.5t31.5 -47t13 -39.5l3 -16h-109l-3 10t-12.5 23.5t-29.5 24t-53 10.5q-41 0 -63 -20t-22 -46q0 -22 15.5 -36t40.5 -24l59 -22q31 -10 62 -28
t51.5 -47t20.5 -72q0 -65 -51.5 -113t-147.5 -52l-39 -44h5q50 0 76.5 -28t26.5 -65q0 -28 -15.5 -54t-49.5 -43t-88 -17z" />
    <glyph glyph-name="Scaron" unicode="&#x160;" horiz-adv-x="654" 
d="M394 812l-88 171h91l51 -106l97 106h103l-160 -171h-94zM318 -10q-73 0 -122.5 17t-80.5 43.5t-47.5 56.5t-23 57t-7.5 43.5l-1 16.5h117l1 -13.5t8.5 -33.5t25 -40.5t49.5 -34t83 -13.5q43 0 79 14.5t57 40.5t21 62q0 39 -28.5 63t-71.5 41l-84 34q-42 17 -77.5 41.5
t-56.5 61.5t-21 90q0 55 30.5 103.5t89.5 79t143 30.5q65 0 110 -15.5t73 -40t43.5 -52t22 -52t7.5 -40.5l1 -16h-113l-3 18t-16.5 42t-43 42t-81.5 18q-69 0 -107.5 -32t-38.5 -78q0 -37 23.5 -61t62.5 -40l78 -32q45 -18 85 -43t65 -63t25 -96q0 -61 -35 -110.5t-97 -79
t-144 -29.5z" />
    <glyph glyph-name="scaron" unicode="&#x161;" horiz-adv-x="520" 
d="M518 744l-156 -149h-94l-92 149h90l56 -92l92 92h104zM232 -10q-63 0 -103.5 17.5t-63 43.5t-32.5 51.5t-12.5 43l-2.5 17.5h113l2.5 -12t12.5 -28t31.5 -28.5t61.5 -12.5q46 0 72 19t26 48q0 26 -20.5 39.5t-46.5 23.5l-58 20q-58 21 -90.5 54.5t-32.5 86.5
q0 44 22.5 82t67.5 61.5t111 23.5q57 0 94 -16t58.5 -39.5t31.5 -47t13 -39.5l3 -16h-109l-3 10t-12.5 23.5t-29.5 24t-53 10.5q-41 0 -63 -20t-22 -46q0 -22 15.5 -36t40.5 -24l59 -22q31 -10 62 -28t51.5 -47t20.5 -72q0 -45 -25 -82.5t-73 -60t-117 -22.5z" />
    <glyph glyph-name="uni0162" unicode="&#x162;" horiz-adv-x="638" 
d="M208 0l135 638h-229l22 102h576l-22 -102h-230l-135 -638h-7l-47 -54h5q50 0 76.5 -28t26.5 -65q0 -28 -15.5 -54t-49.5 -43t-88 -17q-32 0 -56 5.5l-24 5.5l10 64l12 -2t28.5 -4.5t30.5 -2.5q40 0 54.5 15t14.5 32q0 16 -12.5 28t-38.5 12q-21 0 -34.5 -7t-12.5 -7
l-32 40l71 82h-29z" />
    <glyph glyph-name="uni0163" unicode="&#x163;" horiz-adv-x="425" 
d="M175 -261q-32 0 -56.5 5.5l-24.5 5.5l11 64l12 -2t28.5 -4.5t30.5 -2.5q39 0 54 15t15 32q0 16 -13 28t-39 12q-20 0 -33.5 -7t-12.5 -7l-32 40l71 82q-56 19 -73 67.5t-5 106.5l56 264h-94l20 92h94l28 132h115l-28 -132h122l-20 -92h-121l-58 -269q-9 -44 8 -64t58 -20
q21 0 40 2.5l19 2.5l-20 -92l-21 -4t-48 -4l-38 -44h4q50 0 77 -28t27 -65q0 -28 -16 -54t-49.5 -43t-87.5 -17z" />
    <glyph glyph-name="Tcaron" unicode="&#x164;" horiz-adv-x="638" 
d="M385 812l-87 171h90l52 -106l96 106h103l-159 -171h-95zM208 0l135 638h-229l22 102h576l-22 -102h-230l-135 -638h-117z" />
    <glyph glyph-name="tcaron" unicode="&#x165;" horiz-adv-x="390" 
d="M365 604l55 212h106l-87 -212h-74zM252 -10q-64 0 -99 25.5t-45 67.5t0 91l56 264h-94l20 92h94l28 132h115l-28 -132h122l-20 -92h-121l-58 -269q-9 -44 8 -64t58 -20q21 0 40 2.5l19 2.5l-20 -92l-22 -4t-53 -4z" />
    <glyph glyph-name="Tbar" unicode="&#x166;" horiz-adv-x="668" 
d="M208 0l68 323h-166l20 94h166l47 221h-229l22 102h576l-22 -102h-230l-47 -221h185l-21 -94h-184l-68 -323h-117z" />
    <glyph glyph-name="tbar" unicode="&#x167;" horiz-adv-x="425" 
d="M252 -10q-64 0 -99 25.5t-45 67.5t0 91l19 86h-84l19 92h84l18 86h-94l20 92h94l28 132h115l-28 -132h122l-20 -92h-121l-19 -86h88l-19 -92h-88l-20 -91q-9 -44 8 -64t58 -20q21 0 40 2.5l19 2.5l-20 -92l-22 -4t-53 -4z" />
    <glyph glyph-name="Utilde" unicode="&#x168;" horiz-adv-x="733" 
d="M564 825q-26 0 -44.5 10.5t-32 24t-26 24t-26.5 10.5q-15 0 -25 -16.5t-15 -46.5h-68q12 59 35.5 98t74.5 39q26 0 44.5 -10t32.5 -23.5t26 -23.5t25 -10q16 0 25 16t15 46h68q-12 -59 -35.5 -98.5t-73.5 -39.5zM318 -10q-82 0 -142 34t-86 101t-5 168l96 447h116
l-97 -457q-17 -82 15.5 -132.5t118.5 -50.5q81 0 135.5 50.5t72.5 132.5l97 457h117l-98 -461q-30 -143 -121 -216t-219 -73z" />
    <glyph glyph-name="utilde" unicode="&#x169;" horiz-adv-x="586" 
d="M451 615q-27 0 -45 10.5t-32 24t-26 24t-26 10.5q-16 0 -25.5 -16.5t-14.5 -46.5h-69q12 59 35.5 98t74.5 39q27 0 45.5 -10t32 -23.5t25.5 -23.5t26 -10q16 0 25 16t14 46h68q-11 -59 -34.5 -98.5t-73.5 -39.5zM194 -10q-51 0 -86 24t-49 68t-1 105l73 343h115l-73 -342
q-10 -49 10.5 -75.5t63.5 -26.5t73.5 22t50 56.5t26.5 72.5l62 293h115l-112 -530h-115l16 76h-6q-11 -15 -31.5 -35.5t-52.5 -35.5t-79 -15z" />
    <glyph glyph-name="Umacron" unicode="&#x16a;" horiz-adv-x="733" 
d="M331 845l17 78h311l-17 -78h-311zM318 -10q-82 0 -142 34t-86 101t-5 168l96 447h116l-97 -457q-17 -82 15.5 -132.5t118.5 -50.5q81 0 135.5 50.5t72.5 132.5l97 457h117l-98 -461q-30 -143 -121 -216t-219 -73z" />
    <glyph glyph-name="umacron" unicode="&#x16b;" horiz-adv-x="586" 
d="M217 635l17 78h311l-17 -78h-311zM194 -10q-51 0 -86 24t-49 68t-1 105l73 343h115l-73 -342q-10 -49 10.5 -75.5t63.5 -26.5t73.5 22t50 56.5t26.5 72.5l62 293h115l-112 -530h-115l16 76h-6q-11 -15 -31.5 -35.5t-52.5 -35.5t-79 -15z" />
    <glyph glyph-name="Uring" unicode="&#x16e;" horiz-adv-x="733" 
d="M473 807q-37 0 -66.5 17.5t-47.5 47.5t-18 66t18 65.5t47.5 47t66.5 17.5q35 0 65 -17.5t47.5 -47t17.5 -65.5t-17.5 -66t-47.5 -47.5t-65 -17.5zM473 880q24 0 41 17t17 41t-17 41t-41 17q-25 0 -42 -17t-17 -41t17 -41t42 -17zM318 -10q-82 0 -142 34t-86 101t-5 168
l96 447h116l-97 -457q-17 -82 15.5 -132.5t118.5 -50.5q81 0 135.5 50.5t72.5 132.5l97 457h117l-98 -461q-30 -143 -121 -216t-219 -73z" />
    <glyph glyph-name="uring" unicode="&#x16f;" horiz-adv-x="586" 
d="M359 597q-36 0 -66 17.5t-47.5 47.5t-17.5 66t17.5 65.5t47.5 47t66 17.5t65.5 -17.5t47.5 -47t18 -65.5t-18 -66t-47.5 -47.5t-65.5 -17.5zM359 670q24 0 41 17t17 41t-17 41t-41 17q-25 0 -42 -17t-17 -41t17 -41t42 -17zM194 -10q-51 0 -86 24t-49 68t-1 105l73 343
h115l-73 -342q-10 -49 10.5 -75.5t63.5 -26.5t73.5 22t50 56.5t26.5 72.5l62 293h115l-112 -530h-115l16 76h-6q-11 -15 -31.5 -35.5t-52.5 -35.5t-79 -15z" />
    <glyph glyph-name="Uhungarumlaut" unicode="&#x170;" horiz-adv-x="733" 
d="M440 818l-92 1l96 180h113zM612 818l-95 1l107 180h115zM318 -10q-82 0 -142 34t-86 101t-5 168l96 447h116l-97 -457q-17 -82 15.5 -132.5t118.5 -50.5q81 0 135.5 50.5t72.5 132.5l97 457h117l-98 -461q-30 -143 -121 -216t-219 -73z" />
    <glyph glyph-name="uhungarumlaut" unicode="&#x171;" horiz-adv-x="586" 
d="M326 608l-92 1l97 180h113zM498 608l-94 1l106 180h116zM194 -10q-51 0 -86 24t-49 68t-1 105l73 343h115l-73 -342q-10 -49 10.5 -75.5t63.5 -26.5t73.5 22t50 56.5t26.5 72.5l62 293h115l-112 -530h-115l16 76h-6q-11 -15 -31.5 -35.5t-52.5 -35.5t-79 -15z" />
    <glyph glyph-name="Uogonek" unicode="&#x172;" horiz-adv-x="733" 
d="M316 -178q-53 0 -81 22.5t-28 58.5q0 33 20 55t43 35q-68 9 -116.5 46t-68 100.5t-0.5 153.5l96 447h116l-97 -457q-17 -82 15.5 -132.5t118.5 -50.5q81 0 135.5 50.5t72.5 132.5l97 457h117l-98 -461q-28 -132 -108.5 -204.5t-194.5 -82.5q-8 -4 -23 -13t-26.5 -22.5
t-11.5 -31.5q0 -16 11.5 -25.5t37.5 -9.5q13 0 24.5 2.5l11.5 2.5l-14 -67l-13.5 -3t-35.5 -3z" />
    <glyph glyph-name="uogonek" unicode="&#x173;" horiz-adv-x="586" 
d="M194 -10q-51 0 -86 24t-49 68t-1 105l73 343h115l-73 -342q-10 -49 10.5 -75.5t63.5 -26.5t73.5 22t50 56.5t26.5 72.5l62 293h115l-112 -530h-1l-10 -4.5t-23.5 -13.5t-24 -22t-10.5 -30q0 -15 12 -24.5t37 -9.5q13 0 24.5 2l11.5 2l-14 -67l-13.5 -2.5t-35.5 -2.5
q-53 0 -80.5 22t-27.5 58q0 34 20.5 56.5t44.5 35.5h-25l16 76h-6q-11 -15 -31.5 -35.5t-52.5 -35.5t-79 -15z" />
    <glyph glyph-name="Wcircumflex" unicode="&#x174;" horiz-adv-x="974" 
d="M425 813l160 171h94l88 -171h-91l-51 106l-97 -106h-103zM144 0l-35 740h112l25 -579l272 579h116l30 -578l264 578h124l-347 -740h-138l-29 546l-257 -546h-137z" />
    <glyph glyph-name="wcircumflex" unicode="&#x175;" horiz-adv-x="862" 
d="M330 603l160 171h94l88 -171h-91l-51 106l-96 -106h-104zM135 0l-56 530h113l33 -372l198 372h113l39 -370l192 370h125l-283 -530h-121l-38 366l-193 -366h-122z" />
    <glyph glyph-name="Ycircumflex" unicode="&#x176;" horiz-adv-x="629" 
d="M255 813l160 171h94l88 -171h-91l-52 106l-96 -106h-103zM199 0l55 262l-157 478h119l114 -358l264 358h138l-362 -481l-55 -259h-116z" />
    <glyph glyph-name="ycircumflex" unicode="&#x177;" horiz-adv-x="575" 
d="M173 603l159 171h95l87 -171h-90l-52 106l-96 -106h-103zM-2 -195q-23 0 -38 2l-15 2l20 98l13.5 -1.5t29.5 -1.5q93 0 159 94l-88 532h113l60 -397l225 397h128l-311 -524q-62 -103 -135 -152t-161 -49z" />
    <glyph glyph-name="Ydieresis" unicode="&#x178;" horiz-adv-x="629" 
d="M541 814q-31 0 -50.5 20.5t-19.5 48.5q0 29 19.5 49t50.5 20q30 0 50 -20t20 -49t-20 -49t-50 -20zM339 814q-31 0 -50.5 20.5t-19.5 48.5q0 29 19.5 49t50.5 20q30 0 50 -20t20 -49t-20 -49t-50 -20zM199 0l55 262l-157 478h119l114 -358l264 358h138l-362 -481
l-55 -259h-116z" />
    <glyph glyph-name="Zacute" unicode="&#x179;" horiz-adv-x="644" 
d="M478 818l-89 1l90 180h110zM-9 0l18 87l494 551h-377l22 102h534l-18 -86l-495 -552h379l-23 -102h-534z" />
    <glyph glyph-name="zacute" unicode="&#x17a;" horiz-adv-x="512" 
d="M372 605l-89 1l90 180h110zM-17 0l17 79l361 359h-271l20 92h422l-18 -79l-361 -359h286l-20 -92h-436z" />
    <glyph glyph-name="Zdotaccent" unicode="&#x17b;" horiz-adv-x="644" 
d="M443 827q-31 0 -51 21t-20 49q0 29 20 49.5t51 20.5t51.5 -20.5t20.5 -49.5t-20.5 -49.5t-51.5 -20.5zM-9 0l18 87l494 551h-377l22 102h534l-18 -86l-495 -552h379l-23 -102h-534z" />
    <glyph glyph-name="zdotaccent" unicode="&#x17c;" horiz-adv-x="512" 
d="M337 615q-31 0 -51 20.5t-20 49.5t20 49.5t51 20.5q30 0 50.5 -20.5t20.5 -49.5t-20.5 -49.5t-50.5 -20.5zM-17 0l17 79l361 359h-271l20 92h422l-18 -79l-361 -359h286l-20 -92h-436z" />
    <glyph glyph-name="Zcaron" unicode="&#x17d;" horiz-adv-x="644" 
d="M375 812l-88 171h91l52 -106l96 106h103l-160 -171h-94zM-9 0l18 87l494 551h-377l22 102h534l-18 -86l-495 -552h379l-23 -102h-534z" />
    <glyph glyph-name="zcaron" unicode="&#x17e;" horiz-adv-x="512" 
d="M287 600l-88 171h91l51 -106l96 106h104l-160 -171h-94zM-17 0l17 79l361 359h-271l20 92h422l-18 -79l-361 -359h286l-20 -92h-436z" />
    <glyph glyph-name="Ohorn" unicode="&#x1a0;" horiz-adv-x="795" 
d="M371 -10q-80 0 -139 26.5t-97.5 72.5t-57.5 104.5t-19 123.5q0 77 26.5 153.5t78 140t126 101.5t170.5 38h5v0h176q24 0 36 9.5t16 31.5l13 63h103l-19 -83q-9 -44 -35.5 -67.5t-74.5 -23.5h-12q53 -46 79 -114t26 -143q0 -77 -26.5 -153.5t-77.5 -140t-125.5 -101.5
t-171.5 -38zM375 95q67 0 119 29t87.5 77t54 105.5t18.5 114.5q0 59 -21 110t-65 82.5t-112 31.5q-67 0 -118.5 -29t-87.5 -77t-54.5 -105.5t-18.5 -114.5q0 -59 21 -110t65 -82.5t112 -31.5z" />
    <glyph glyph-name="ohorn" unicode="&#x1a1;" horiz-adv-x="617" 
d="M273 -10q-77 0 -127.5 33t-75 86t-24.5 114q0 56 20 112t58 102.5t93.5 74.5t126.5 28h121q51 0 61 49l11 55h93l-15 -73q-10 -44 -37 -67.5t-72 -23.5q33 -33 49 -78t16 -95q0 -56 -19.5 -112t-58 -102.5t-94 -74.5t-126.5 -28zM280 87q42 0 75 19t56 51t35 70t12 76
t-13 70t-39.5 51t-68.5 19t-75 -19t-56 -51t-35 -70t-12 -76t13 -70t39.5 -51t68.5 -19z" />
    <glyph glyph-name="Uhorn" unicode="&#x1af;" horiz-adv-x="733" 
d="M318 -10q-82 0 -142 34t-86 101t-5 168l96 447h116l-97 -457q-17 -82 15.5 -132.5t118.5 -50.5q81 0 135.5 50.5t72.5 132.5l97 457h83q23 0 35 9.5t17 31.5l13 63h102l-18 -83q-9 -44 -36 -67.5t-75 -23.5h-19l-83 -391q-30 -143 -121 -216t-219 -73z" />
    <glyph glyph-name="uhorn" unicode="&#x1b0;" horiz-adv-x="586" 
d="M194 -10q-51 0 -86 24t-49 68t-1 105l73 343h115l-73 -342q-10 -49 10.5 -75.5t63.5 -26.5t73.5 22t50 56.5t26.5 72.5l62 293h64q52 0 62 49l11 55h93l-15 -73q-10 -44 -37.5 -67.5t-74.5 -23.5l-100 -470h-115l16 76h-6q-11 -15 -31.5 -35.5t-52.5 -35.5t-79 -15z" />
    <glyph glyph-name="Gcaron" unicode="&#x1e6;" horiz-adv-x="761" 
d="M437 812l-88 171h91l52 -106l96 106h103l-160 -171h-94zM371 -10q-79 0 -138 26.5t-98 72t-58 104.5t-19 124q0 77 25.5 153.5t76.5 140t126.5 101.5t175.5 38q71 0 120 -19t80 -48.5t47.5 -63t23.5 -63t8.5 -48.5l1.5 -19h-117l-1 16t-8.5 39t-25.5 46.5t-51 39.5
t-85 16q-69 0 -121 -28.5t-87.5 -75.5t-53 -103.5t-17.5 -112.5q0 -61 22 -113.5t67.5 -85t116.5 -32.5q90 0 147 56.5t76 143.5h-202l20 93h313l-7 -53q-14 -105 -61.5 -182.5t-123 -120t-173.5 -42.5z" />
    <glyph glyph-name="gcaron" unicode="&#x1e7;" horiz-adv-x="629" 
d="M338 602l-88 171h91l52 -106l96 106h103l-160 -171h-94zM220 -211q-70 0 -114 18t-67.5 44.5t-33 53t-11 44.5l-1.5 18h113l2 -12.5t12 -29t34 -29t67 -12.5q53 0 89 20.5t57 53.5t29 72l9 40h-6l-9.5 -10t-28.5 -23.5t-48 -23.5t-69 -10q-70 0 -115 31.5t-67 82.5
t-22 110q0 55 18 110.5t54 101.5t87.5 73.5t117.5 27.5q45 0 76 -14t50 -33t27.5 -33l8.5 -14h5l18 84h115l-107 -502q-25 -120 -100 -179.5t-190 -59.5zM281 97q54 0 92.5 31t58.5 78.5t20 95.5q0 38 -13.5 71t-41 53t-70.5 20q-55 0 -93.5 -31t-59 -78.5t-20.5 -95.5
q0 -38 13.5 -71t41.5 -53t72 -20z" />
    <glyph glyph-name="circumflex" unicode="&#x2c6;" horiz-adv-x="553" 
d="M162 569l159 171h95l87 -171h-90l-52 106l-96 -106h-103z" />
    <glyph glyph-name="caron" unicode="&#x2c7;" horiz-adv-x="377" 
d="M219 594l-88 171h91l51 -106l97 106h103l-160 -171h-94z" />
    <glyph glyph-name="breve" unicode="&#x2d8;" horiz-adv-x="385" 
d="M317 602q-51 0 -80.5 16t-44 40t-19 47.5t-4 39.5l0.5 16h81l-1 -13t3.5 -30t19.5 -30t46 -13t51.5 13t32 30t16 30l4.5 13h81l-3.5 -16t-14 -39.5t-31 -47.5t-54.5 -40t-84 -16z" />
    <glyph glyph-name="dotaccent" unicode="&#x2d9;" horiz-adv-x="153" 
d="M54 617q-31 0 -51 21t-20 49q0 29 20 49.5t51 20.5t51.5 -20.5t20.5 -49.5t-20.5 -49.5t-51.5 -20.5z" />
    <glyph glyph-name="ring" unicode="&#x2da;" horiz-adv-x="362" 
d="M280 593q-36 0 -66 17.5t-47.5 47.5t-17.5 66t17.5 65.5t47.5 47t66 17.5t65.5 -17.5t47.5 -47t18 -65.5t-18 -66t-47.5 -47.5t-65.5 -17.5zM280 666q24 0 41 17t17 41t-17 41t-41 17t-41.5 -17t-17.5 -41t17.5 -41t41.5 -17z" />
    <glyph glyph-name="ogonek" unicode="&#x2db;" horiz-adv-x="204" 
d="M103 -202q-53 0 -81 22.5t-28 57.5q0 33 18 54.5t41.5 34.5t41.5 18.5l18 5.5l36 -21l-10.5 -4.5t-24 -13.5t-23.5 -22t-10 -29t11.5 -25.5t37.5 -9.5q13 0 24.5 2l11.5 2l-14 -66l-13.5 -3t-35.5 -3z" />
    <glyph glyph-name="tilde" unicode="&#x2dc;" horiz-adv-x="379" 
d="M367 615q-26 0 -44 10.5t-32 24t-26 24t-26 10.5q-16 0 -25.5 -16.5t-15.5 -46.5h-68q12 59 35.5 98t74.5 39q27 0 45.5 -10t32 -23.5t25.5 -23.5t26 -10q16 0 25 16t14 46h68q-11 -59 -35 -98.5t-74 -39.5z" />
    <glyph glyph-name="gravecomb" unicode="&#x300;" 
d="M118 608l-87 181h107l66 -180z" />
    <glyph glyph-name="acutecomb" unicode="&#x301;" 
d="M211 608l-89 1l90 180h110z" />
    <glyph glyph-name="uni0302" unicode="&#x302;" 
d="M91 603l160 171h94l88 -171h-91l-51 106l-96 -106h-104z" />
    <glyph glyph-name="tildecomb" unicode="&#x303;" 
d="M349 615q-26 0 -44 10.5t-32 24t-26 24t-26 10.5q-16 0 -25.5 -16.5t-15.5 -46.5h-68q12 59 35.5 98t74.5 39q27 0 45.5 -10t32 -23.5t25.5 -23.5t26 -10q16 0 25 16t14 46h68q-11 -59 -35 -98.5t-74 -39.5z" />
    <glyph glyph-name="uni0304" unicode="&#x304;" 
d="M30 643l17 78h311l-17 -78h-311z" />
    <glyph glyph-name="uni0306" unicode="&#x306;" 
d="M315 602q-51 0 -80.5 16t-44 40t-19 47.5t-4 39.5l0.5 16h81l-1 -13t3.5 -30t19.5 -30t46 -13t51.5 13t32 30t16 30l4.5 13h81l-3.5 -16t-14 -39.5t-31 -47.5t-54.5 -40t-84 -16z" />
    <glyph glyph-name="uni0307" unicode="&#x307;" 
d="M101 617q-31 0 -51 21t-20 49q0 29 20 49.5t51 20.5q30 0 50.5 -20.5t20.5 -49.5t-20.5 -49.5t-50.5 -20.5z" />
    <glyph glyph-name="uni0308" unicode="&#x308;" 
d="M301 604q-31 0 -50.5 20.5t-19.5 48.5q0 29 19.5 49t50.5 20q30 0 50 -20t20 -49t-20 -49t-50 -20zM99 604q-31 0 -50.5 20.5t-19.5 48.5q0 29 19.5 49t50.5 20q30 0 50 -20t20 -49t-20 -49t-50 -20z" />
    <glyph glyph-name="hookabovecomb" unicode="&#x309;" 
d="M223 594l7 33q4 24 28 35l16 7q27 13 41 26t14 29q0 12 -9.5 22.5t-29.5 10.5q-23 0 -33 -10.5t-12.5 -21l-2.5 -10.5h-66l3 15.5t14 35.5t34.5 35t66.5 15q55 0 81 -28t26 -61q0 -40 -31.5 -63.5t-70.5 -39.5l-6 -30h-70z" />
    <glyph glyph-name="uni030A" unicode="&#x30a;" 
d="M280 593q-36 0 -66 17.5t-47.5 47.5t-17.5 66t17.5 65.5t47.5 47t66 17.5t65.5 -17.5t47.5 -47t18 -65.5t-18 -66t-47.5 -47.5t-65.5 -17.5zM280 666q24 0 41 17t17 41t-17 41t-41 17t-41.5 -17t-17.5 -41t17.5 -41t41.5 -17z" />
    <glyph glyph-name="uni030B" unicode="&#x30b;" 
d="M364 608l-92 1l96 180h113zM536 608l-95 1l107 180h115z" />
    <glyph glyph-name="uni030C" unicode="&#x30c;" 
d="M228 602l-88 171h91l51 -106l96 106h104l-160 -171h-94z" />
    <glyph glyph-name="uni0312" unicode="&#x312;" 
d="M168 829l-57 -94q27 -2 44.5 -21t17.5 -47q0 -30 -20.5 -48.5t-48.5 -18.5q-30 0 -50.5 18.5t-20.5 50.5q0 30 19.5 64t56.5 86l7 10h52z" />
    <glyph glyph-name="uni031B" unicode="&#x31b;" 
d="M475 634l-15 -73q-9 -44 -37 -67.5t-77 -23.5h-165l13 60h116q51 0 61 49l12 55h92z" />
    <glyph glyph-name="dotbelowcomb" unicode="&#x323;" 
d="M43 -234q-31 0 -50.5 21t-19.5 49q0 29 19.5 49.5t50.5 20.5q29 0 49 -20.5t20 -49.5t-20 -49.5t-49 -20.5z" />
    <glyph glyph-name="uni0326" unicode="&#x326;" 
d="M74 -241l57 94q-27 2 -44.5 21t-17.5 47q0 30 20.5 48.5t48.5 18.5q30 0 50.5 -18.5t20.5 -50.5q0 -30 -19.5 -64t-56.5 -86l-7 -10h-52z" />
    <glyph glyph-name="uni0327" unicode="&#x327;" 
d="M27 -247q-32 0 -56 5.5l-24 5.5l11 64l11.5 -2.5t28 -4.5t31.5 -2q39 0 53.5 15t14.5 32q0 16 -12.5 28t-38.5 12q-21 0 -34 -7l-13 -7l-31 40l83 96h81l-60 -68h5q50 0 76.5 -28t26.5 -66q0 -27 -15.5 -53t-49.5 -43t-88 -17z" />
    <glyph glyph-name="uni0328" unicode="&#x328;" 
d="M105 -202q-53 0 -81 22.5t-28 57.5q0 33 18 54.5t41.5 34.5t41.5 18.5l18 5.5l36 -21l-10.5 -4.5t-24 -13.5t-23.5 -22t-10 -29t11.5 -25.5t37.5 -9.5q13 0 24.5 2l11.5 2l-14 -66l-13.5 -3t-35.5 -3z" />
    <glyph glyph-name="uni1E20" unicode="&#x1e20;" horiz-adv-x="761" 
d="M338 845l17 78h311l-17 -78h-311zM371 -10q-79 0 -138 26.5t-98 72t-58 104.5t-19 124q0 77 25.5 153.5t76.5 140t126.5 101.5t175.5 38q71 0 120 -19t80 -48.5t47.5 -63t23.5 -63t8.5 -48.5l1.5 -19h-117l-1 16t-8.5 39t-25.5 46.5t-51 39.5t-85 16q-69 0 -121 -28.5
t-87.5 -75.5t-53 -103.5t-17.5 -112.5q0 -61 22 -113.5t67.5 -85t116.5 -32.5q90 0 147 56.5t76 143.5h-202l20 93h313l-7 -53q-14 -105 -61.5 -182.5t-123 -120t-173.5 -42.5z" />
    <glyph glyph-name="uni1E21" unicode="&#x1e21;" horiz-adv-x="629" 
d="M241 635l17 78h311l-17 -78h-311zM220 -211q-70 0 -114 18t-67.5 44.5t-33 53t-11 44.5l-1.5 18h113l2 -12.5t12 -29t34 -29t67 -12.5q53 0 89 20.5t57 53.5t29 72l9 40h-6l-9.5 -10t-28.5 -23.5t-48 -23.5t-69 -10q-70 0 -115 31.5t-67 82.5t-22 110q0 55 18 110.5
t54 101.5t87.5 73.5t117.5 27.5q45 0 76 -14t50 -33t27.5 -33l8.5 -14h5l18 84h115l-107 -502q-25 -120 -100 -179.5t-190 -59.5zM281 97q54 0 92.5 31t58.5 78.5t20 95.5q0 38 -13.5 71t-41 53t-70.5 20q-55 0 -93.5 -31t-59 -78.5t-20.5 -95.5q0 -38 13.5 -71t41.5 -53
t72 -20z" />
    <glyph glyph-name="Wgrave" unicode="&#x1e80;" horiz-adv-x="974" 
d="M544 818l-88 181h108l66 -180zM144 0l-35 740h112l25 -579l272 579h116l30 -578l264 578h124l-347 -740h-138l-29 546l-257 -546h-137z" />
    <glyph glyph-name="wgrave" unicode="&#x1e81;" horiz-adv-x="862" 
d="M449 608l-87 181h107l66 -180zM135 0l-56 530h113l33 -372l198 372h113l39 -370l192 370h125l-283 -530h-121l-38 366l-193 -366h-122z" />
    <glyph glyph-name="Wacute" unicode="&#x1e82;" horiz-adv-x="974" 
d="M649 818l-89 1l90 180h110zM144 0l-35 740h112l25 -579l272 579h116l30 -578l264 578h124l-347 -740h-138l-29 546l-257 -546h-137z" />
    <glyph glyph-name="wacute" unicode="&#x1e83;" horiz-adv-x="862" 
d="M554 608l-89 1l90 180h110zM135 0l-56 530h113l33 -372l198 372h113l39 -370l192 370h125l-283 -530h-121l-38 366l-193 -366h-122z" />
    <glyph glyph-name="Wdieresis" unicode="&#x1e84;" horiz-adv-x="974" 
d="M711 814q-30 0 -50 20.5t-20 48.5q0 29 20 49t50 20t50 -20t20 -49t-20 -49t-50 -20zM509 814q-30 0 -50 20.5t-20 48.5q0 29 20 49t50 20t50 -20t20 -49t-20 -49t-50 -20zM144 0l-35 740h112l25 -579l272 579h116l30 -578l264 578h124l-347 -740h-138l-29 546l-257 -546
h-137z" />
    <glyph glyph-name="wdieresis" unicode="&#x1e85;" horiz-adv-x="862" 
d="M617 604q-31 0 -50.5 20.5t-19.5 48.5q0 29 19.5 49t50.5 20q30 0 50 -20t20 -49t-20 -49t-50 -20zM415 604q-31 0 -50.5 20.5t-19.5 48.5q0 29 19.5 49t50.5 20q30 0 50 -20t20 -49t-20 -49t-50 -20zM135 0l-56 530h113l33 -372l198 372h113l39 -370l192 370h125
l-283 -530h-121l-38 366l-193 -366h-122z" />
    <glyph glyph-name="uni1E9E" unicode="&#x1e9e;" horiz-adv-x="690" 
d="M316 -10q-25 0 -49.5 2t-40.5 3.5l-16 1.5l19 97l26 -3t56 -3q92 0 147.5 38.5t55.5 99.5q0 49 -37 78t-113 29h-25l14 68l217 241l-27.5 5t-64.5 5q-89 0 -156 -53t-90 -157l-95 -444h-114l97 457q18 84 63 150.5t121.5 105.5t186.5 39q64 0 113.5 -10t78 -20l28.5 -10
l-11 -59l-225 -251q68 -9 111.5 -55.5t43.5 -118.5q0 -67 -37 -120.5t-107 -84.5t-170 -31z" />
    <glyph glyph-name="uni1EA0" unicode="&#x1ea0;" horiz-adv-x="717" 
d="M-29 0l415 740h145l101 -740h-115l-22 166h-303l-92 -166h-129zM249 270h234l-44 341zM268 -234q-30 0 -49.5 21t-19.5 49q0 29 19.5 49.5t49.5 20.5t50 -20.5t20 -49.5t-20 -49.5t-50 -20.5z" />
    <glyph glyph-name="uni1EA1" unicode="&#x1ea1;" horiz-adv-x="627" 
d="M323 540q54 0 88 -17t52.5 -40t25.5 -41h6l19 88h115l-113 -530h-115l15 72h-5l-9.5 -12.5t-29 -28.5t-50.5 -28.5t-74 -12.5q-68 0 -113 32.5t-67.5 85.5t-22.5 114q0 56 18 112.5t54 103t87.5 74.5t118.5 28zM336 445q-42 0 -75 -19.5t-56 -52t-35.5 -71t-12.5 -75.5
q0 -38 13 -70.5t40 -52t69 -19.5t75 19.5t56 51.5t35 70.5t12 76.5t-12.5 70.5t-39.5 52t-69 19.5zM223 -234q-31 0 -50.5 21t-19.5 49q0 29 19.5 49.5t50.5 20.5q30 0 50 -20.5t20 -49.5t-20 -49.5t-50 -20.5z" />
    <glyph glyph-name="uni1EA2" unicode="&#x1ea2;" horiz-adv-x="717" 
d="M434 804l7 33q5 24 29 35l15 7q28 13 42 26t14 29q0 12 -9.5 22.5t-29.5 10.5q-23 0 -33 -10.5t-12.5 -21l-2.5 -10.5h-66l2.5 15.5t13.5 35.5t35 35t66 15q55 0 81.5 -28t26.5 -61q0 -40 -31.5 -63.5t-70.5 -39.5l-7 -30h-70zM-29 0l415 740h145l101 -740h-115l-22 166
h-303l-92 -166h-129zM249 270h234l-44 341z" />
    <glyph glyph-name="uni1EA3" unicode="&#x1ea3;" horiz-adv-x="627" 
d="M344 594l7 33q5 24 28 35l16 7q28 13 42 26t14 29q0 12 -9.5 22.5t-29.5 10.5q-23 0 -33 -10.5t-12.5 -21l-2.5 -10.5h-67l3 15.5t14 35.5t35 35t66 15q55 0 81.5 -28t26.5 -61q0 -40 -31.5 -63.5t-70.5 -39.5l-7 -30h-70zM323 540q54 0 88 -17t52.5 -40t25.5 -41h6
l19 88h115l-113 -530h-115l15 72h-5l-9.5 -12.5t-29 -28.5t-50.5 -28.5t-74 -12.5q-68 0 -113 32.5t-67.5 85.5t-22.5 114q0 56 18 112.5t54 103t87.5 74.5t118.5 28zM336 445q-42 0 -75 -19.5t-56 -52t-35.5 -71t-12.5 -75.5q0 -38 13 -70.5t40 -52t69 -19.5t75 19.5
t56 51.5t35 70.5t12 76.5t-12.5 70.5t-39.5 52t-69 19.5z" />
    <glyph glyph-name="uni1EA4" unicode="&#x1ea4;" horiz-adv-x="717" 
d="M716 941l-89 1l90 180h110zM303 813l156 149h94l92 -149h-90l-56 92l-92 -92h-104zM-29 0l415 740h145l101 -740h-115l-22 166h-303l-92 -166h-129zM249 270h234l-44 341z" />
    <glyph glyph-name="uni1EA5" unicode="&#x1ea5;" horiz-adv-x="627" 
d="M626 731l-89 1l90 180h110zM213 603l155 149h95l92 -149h-91l-55 92l-93 -92h-103zM323 540q54 0 88 -17t52.5 -40t25.5 -41h6l19 88h115l-113 -530h-115l15 72h-5l-9.5 -12.5t-29 -28.5t-50.5 -28.5t-74 -12.5q-68 0 -113 32.5t-67.5 85.5t-22.5 114q0 56 18 112.5
t54 103t87.5 74.5t118.5 28zM336 445q-42 0 -75 -19.5t-56 -52t-35.5 -71t-12.5 -75.5q0 -38 13 -70.5t40 -52t69 -19.5t75 19.5t56 51.5t35 70.5t12 76.5t-12.5 70.5t-39.5 52t-69 19.5z" />
    <glyph glyph-name="uni1EA6" unicode="&#x1ea6;" horiz-adv-x="717" 
d="M633 941l-87 181h108l66 -180zM303 813l156 149h94l92 -149h-90l-56 92l-92 -92h-104zM-29 0l415 740h145l101 -740h-115l-22 166h-303l-92 -166h-129zM249 270h234l-44 341z" />
    <glyph glyph-name="uni1EA7" unicode="&#x1ea7;" horiz-adv-x="627" 
d="M543 731l-87 181h107l66 -180zM213 603l155 149h95l92 -149h-91l-55 92l-93 -92h-103zM323 540q54 0 88 -17t52.5 -40t25.5 -41h6l19 88h115l-113 -530h-115l15 72h-5l-9.5 -12.5t-29 -28.5t-50.5 -28.5t-74 -12.5q-68 0 -113 32.5t-67.5 85.5t-22.5 114q0 56 18 112.5
t54 103t87.5 74.5t118.5 28zM336 445q-42 0 -75 -19.5t-56 -52t-35.5 -71t-12.5 -75.5q0 -38 13 -70.5t40 -52t69 -19.5t75 19.5t56 51.5t35 70.5t12 76.5t-12.5 70.5t-39.5 52t-69 19.5z" />
    <glyph glyph-name="uni1EA8" unicode="&#x1ea8;" horiz-adv-x="717" 
d="M614 925l7 33q5 25 28 35l16 8q28 12 42 25t14 30q0 12 -9.5 22t-29.5 10q-23 0 -33 -10t-12.5 -20.5l-2.5 -10.5h-67l3 15t14 35t35 35.5t66 15.5q55 0 81.5 -28t26.5 -62q0 -39 -31.5 -62.5t-70.5 -40.5l-7 -30h-70zM295 813l156 149h94l92 -149h-90l-56 92l-92 -92
h-104zM-29 0l415 740h145l101 -740h-115l-22 166h-303l-92 -166h-129zM249 270h234l-44 341z" />
    <glyph glyph-name="uni1EA9" unicode="&#x1ea9;" horiz-adv-x="627" 
d="M524 715l7 33q4 25 28 35l16 8q27 12 41 25t14 30q0 12 -9.5 22t-29.5 10q-23 0 -33 -10t-12.5 -20.5l-2.5 -10.5h-66l3 15t14 35t34.5 35.5t66.5 15.5q55 0 81 -28t26 -62q0 -39 -31.5 -62.5t-70.5 -40.5l-6 -30h-70zM205 603l155 149h95l92 -149h-91l-55 92l-93 -92
h-103zM323 540q54 0 88 -17t52.5 -40t25.5 -41h6l19 88h115l-113 -530h-115l15 72h-5l-9.5 -12.5t-29 -28.5t-50.5 -28.5t-74 -12.5q-68 0 -113 32.5t-67.5 85.5t-22.5 114q0 56 18 112.5t54 103t87.5 74.5t118.5 28zM336 445q-42 0 -75 -19.5t-56 -52t-35.5 -71
t-12.5 -75.5q0 -38 13 -70.5t40 -52t69 -19.5t75 19.5t56 51.5t35 70.5t12 76.5t-12.5 70.5t-39.5 52t-69 19.5z" />
    <glyph glyph-name="uni1EAA" unicode="&#x1eaa;" horiz-adv-x="717" 
d="M583 999q-26 0 -44.5 10.5t-32 24t-26 24t-26.5 10.5q-15 0 -25 -16.5t-15 -46.5h-68q11 59 35 98t74 39q27 0 45.5 -10t32.5 -23.5t26 -23.5t25 -10q16 0 25 16t15 46h68q-12 -59 -35.5 -98.5t-73.5 -39.5zM295 813l156 149h94l92 -149h-90l-56 92l-92 -92h-104zM-29 0
l415 740h145l101 -740h-115l-22 166h-303l-92 -166h-129zM249 270h234l-44 341z" />
    <glyph glyph-name="uni1EAB" unicode="&#x1eab;" horiz-adv-x="627" 
d="M493 789q-27 0 -45 10.5t-32 24t-26 24t-26 10.5q-16 0 -25.5 -16.5t-14.5 -46.5h-69q12 59 35.5 98t74.5 39q27 0 45.5 -10t32 -23.5t25.5 -23.5t26 -10q16 0 25 16t14 46h68q-11 -59 -34.5 -98.5t-73.5 -39.5zM205 603l155 149h95l92 -149h-91l-55 92l-93 -92h-103z
M323 540q54 0 88 -17t52.5 -40t25.5 -41h6l19 88h115l-113 -530h-115l15 72h-5l-9.5 -12.5t-29 -28.5t-50.5 -28.5t-74 -12.5q-68 0 -113 32.5t-67.5 85.5t-22.5 114q0 56 18 112.5t54 103t87.5 74.5t118.5 28zM336 445q-42 0 -75 -19.5t-56 -52t-35.5 -71t-12.5 -75.5
q0 -38 13 -70.5t40 -52t69 -19.5t75 19.5t56 51.5t35 70.5t12 76.5t-12.5 70.5t-39.5 52t-69 19.5z" />
    <glyph glyph-name="uni1EAC" unicode="&#x1eac;" horiz-adv-x="717" 
d="M295 813l156 149h94l92 -149h-90l-56 92l-92 -92h-104zM-29 0l415 740h145l101 -740h-115l-22 166h-303l-92 -166h-129zM249 270h234l-44 341zM268 -234q-30 0 -49.5 21t-19.5 49q0 29 19.5 49.5t49.5 20.5t50 -20.5t20 -49.5t-20 -49.5t-50 -20.5z" />
    <glyph glyph-name="uni1EAD" unicode="&#x1ead;" horiz-adv-x="627" 
d="M214 603l160 171h94l88 -171h-91l-51 106l-97 -106h-103zM323 540q54 0 88 -17t52.5 -40t25.5 -41h6l19 88h115l-113 -530h-115l15 72h-5l-9.5 -12.5t-29 -28.5t-50.5 -28.5t-74 -12.5q-68 0 -113 32.5t-67.5 85.5t-22.5 114q0 56 18 112.5t54 103t87.5 74.5t118.5 28z
M336 445q-42 0 -75 -19.5t-56 -52t-35.5 -71t-12.5 -75.5q0 -38 13 -70.5t40 -52t69 -19.5t75 19.5t56 51.5t35 70.5t12 76.5t-12.5 70.5t-39.5 52t-69 19.5zM223 -234q-31 0 -50.5 21t-19.5 49q0 29 19.5 49.5t50.5 20.5q30 0 50 -20.5t20 -49.5t-20 -49.5t-50 -20.5z" />
    <glyph glyph-name="uni1EAE" unicode="&#x1eae;" horiz-adv-x="717" 
d="M565 988l-89 1l89 180h110zM489 812q-49 0 -78.5 15t-44.5 37t-20.5 44t-6 36.5l-0.5 14.5h81l-0.5 -11.5t4.5 -26.5t20 -26.5t46 -11.5t51 11.5t31 26.5t15.5 26.5l4.5 11.5h81l-4 -14.5t-15 -36.5t-31.5 -44t-53 -37t-80.5 -15zM-29 0l415 740h145l101 -740h-115
l-22 166h-303l-92 -166h-129zM249 270h234l-44 341z" />
    <glyph glyph-name="uni1EAF" unicode="&#x1eaf;" horiz-adv-x="627" 
d="M474 778l-89 1l90 180h110zM398 602q-48 0 -77.5 15t-45 37t-21 44t-5.5 36.5v14.5h81l-0.5 -11.5t4.5 -26.5t20 -26.5t45 -11.5q31 0 51 11.5t31.5 26.5t16 26.5l4.5 11.5h81l-4 -14.5t-15 -36.5t-31.5 -44t-53.5 -37t-81 -15zM323 540q54 0 88 -17t52.5 -40t25.5 -41h6
l19 88h115l-113 -530h-115l15 72h-5l-9.5 -12.5t-29 -28.5t-50.5 -28.5t-74 -12.5q-68 0 -113 32.5t-67.5 85.5t-22.5 114q0 56 18 112.5t54 103t87.5 74.5t118.5 28zM336 445q-42 0 -75 -19.5t-56 -52t-35.5 -71t-12.5 -75.5q0 -38 13 -70.5t40 -52t69 -19.5t75 19.5
t56 51.5t35 70.5t12 76.5t-12.5 70.5t-39.5 52t-69 19.5z" />
    <glyph glyph-name="uni1EB0" unicode="&#x1eb0;" horiz-adv-x="717" 
d="M459 988l-87 181h108l66 -180zM489 812q-49 0 -78.5 15t-44.5 37t-20.5 44t-6 36.5l-0.5 14.5h81l-0.5 -11.5t4.5 -26.5t20 -26.5t46 -11.5t51 11.5t31 26.5t15.5 26.5l4.5 11.5h81l-4 -14.5t-15 -36.5t-31.5 -44t-53 -37t-80.5 -15zM-29 0l415 740h145l101 -740h-115
l-22 166h-303l-92 -166h-129zM249 270h234l-44 341z" />
    <glyph glyph-name="uni1EB1" unicode="&#x1eb1;" horiz-adv-x="627" 
d="M369 778l-87 181h107l66 -180zM398 602q-48 0 -77.5 15t-45 37t-21 44t-5.5 36.5v14.5h81l-0.5 -11.5t4.5 -26.5t20 -26.5t45 -11.5q31 0 51 11.5t31.5 26.5t16 26.5l4.5 11.5h81l-4 -14.5t-15 -36.5t-31.5 -44t-53.5 -37t-81 -15zM323 540q54 0 88 -17t52.5 -40
t25.5 -41h6l19 88h115l-113 -530h-115l15 72h-5l-9.5 -12.5t-29 -28.5t-50.5 -28.5t-74 -12.5q-68 0 -113 32.5t-67.5 85.5t-22.5 114q0 56 18 112.5t54 103t87.5 74.5t118.5 28zM336 445q-42 0 -75 -19.5t-56 -52t-35.5 -71t-12.5 -75.5q0 -38 13 -70.5t40 -52t69 -19.5
t75 19.5t56 51.5t35 70.5t12 76.5t-12.5 70.5t-39.5 52t-69 19.5z" />
    <glyph glyph-name="uni1EB2" unicode="&#x1eb2;" horiz-adv-x="717" 
d="M471 974l7 33q4 25 28 35l16 8q27 12 41 25t14 30q0 12 -9.5 22t-29.5 10q-23 0 -33 -10t-12.5 -20.5l-2.5 -10.5h-66l3 15t14 35t34.5 35.5t66.5 15.5q55 0 81 -28t26 -62q0 -39 -31.5 -62.5t-70.5 -40.5l-6 -30h-70zM489 812q-49 0 -78.5 15t-44.5 37t-20.5 44t-6 36.5
l-0.5 14.5h81l-0.5 -11.5t4.5 -26.5t20 -26.5t46 -11.5t51 11.5t31 26.5t15.5 26.5l4.5 11.5h81l-4 -14.5t-15 -36.5t-31.5 -44t-53 -37t-80.5 -15zM-29 0l415 740h145l101 -740h-115l-22 166h-303l-92 -166h-129zM249 270h234l-44 341z" />
    <glyph glyph-name="uni1EB3" unicode="&#x1eb3;" horiz-adv-x="627" 
d="M380 764l7 33q5 25 29 35l15 8q28 12 42 25t14 30q0 12 -9.5 22t-29.5 10q-23 0 -33 -10t-12.5 -20.5l-2.5 -10.5h-67l3 15t14 35t35 35.5t66 15.5q55 0 81.5 -28t26.5 -62q0 -39 -31.5 -62.5t-70.5 -40.5l-7 -30h-70zM398 602q-48 0 -77.5 15t-45 37t-21 44t-5.5 36.5
v14.5h81l-0.5 -11.5t4.5 -26.5t20 -26.5t45 -11.5q31 0 51 11.5t31.5 26.5t16 26.5l4.5 11.5h81l-4 -14.5t-15 -36.5t-31.5 -44t-53.5 -37t-81 -15zM323 540q54 0 88 -17t52.5 -40t25.5 -41h6l19 88h115l-113 -530h-115l15 72h-5l-9.5 -12.5t-29 -28.5t-50.5 -28.5
t-74 -12.5q-68 0 -113 32.5t-67.5 85.5t-22.5 114q0 56 18 112.5t54 103t87.5 74.5t118.5 28zM336 445q-42 0 -75 -19.5t-56 -52t-35.5 -71t-12.5 -75.5q0 -38 13 -70.5t40 -52t69 -19.5t75 19.5t56 51.5t35 70.5t12 76.5t-12.5 70.5t-39.5 52t-69 19.5z" />
    <glyph glyph-name="uni1EB4" unicode="&#x1eb4;" horiz-adv-x="717" 
d="M594 1004q-26 0 -44.5 10.5t-32 24t-26 23.5t-26.5 10q-15 0 -25 -16t-15 -46h-68q11 58 35 97t74 39q27 0 45.5 -10t32.5 -23t26 -23.5t25 -10.5q16 0 25 16t15 46h68q-12 -58 -35.5 -97.5t-73.5 -39.5zM489 812q-49 0 -78.5 15t-44.5 37t-20.5 44t-6 36.5l-0.5 14.5h81
l-0.5 -11.5t4.5 -26.5t20 -26.5t46 -11.5t51 11.5t31 26.5t15.5 26.5l4.5 11.5h81l-4 -14.5t-15 -36.5t-31.5 -44t-53 -37t-80.5 -15zM-29 0l415 740h145l101 -740h-115l-22 166h-303l-92 -166h-129zM249 270h234l-44 341z" />
    <glyph glyph-name="uni1EB5" unicode="&#x1eb5;" horiz-adv-x="627" 
d="M504 794q-27 0 -45 10.5t-32 24t-26 23.5t-26 10q-16 0 -25.5 -16.5t-14.5 -45.5h-69q12 58 35.5 97t74.5 39q27 0 45.5 -10t32 -23t25.5 -23.5t26 -10.5q16 0 25 16t14 46h68q-11 -58 -34.5 -97.5t-73.5 -39.5zM398 602q-48 0 -77.5 15t-45 37t-21 44t-5.5 36.5v14.5h81
l-0.5 -11.5t4.5 -26.5t20 -26.5t45 -11.5q31 0 51 11.5t31.5 26.5t16 26.5l4.5 11.5h81l-4 -14.5t-15 -36.5t-31.5 -44t-53.5 -37t-81 -15zM323 540q54 0 88 -17t52.5 -40t25.5 -41h6l19 88h115l-113 -530h-115l15 72h-5l-9.5 -12.5t-29 -28.5t-50.5 -28.5t-74 -12.5
q-68 0 -113 32.5t-67.5 85.5t-22.5 114q0 56 18 112.5t54 103t87.5 74.5t118.5 28zM336 445q-42 0 -75 -19.5t-56 -52t-35.5 -71t-12.5 -75.5q0 -38 13 -70.5t40 -52t69 -19.5t75 19.5t56 51.5t35 70.5t12 76.5t-12.5 70.5t-39.5 52t-69 19.5z" />
    <glyph glyph-name="uni1EB6" unicode="&#x1eb6;" horiz-adv-x="717" 
d="M489 812q-51 0 -81 16t-44.5 40t-18.5 47.5t-3.5 39.5l0.5 16h81l-1 -13t3.5 -30t19 -30t45.5 -13q32 0 52.5 13t32 30t16 30l4.5 13h81l-3.5 -16t-14 -39.5t-31 -47.5t-54.5 -40t-84 -16zM-29 0l415 740h145l101 -740h-115l-22 166h-303l-92 -166h-129zM249 270h234
l-44 341zM268 -234q-30 0 -49.5 21t-19.5 49q0 29 19.5 49.5t49.5 20.5t50 -20.5t20 -49.5t-20 -49.5t-50 -20.5z" />
    <glyph glyph-name="uni1EB7" unicode="&#x1eb7;" horiz-adv-x="627" 
d="M398 602q-50 0 -80 16t-44.5 40t-19 47.5t-3.5 39.5l1 16h80l-0.5 -13t3.5 -30t19 -30t46 -13q32 0 52.5 13t32 30t16 30l4.5 13h80l-3.5 -16t-14 -39.5t-31 -47.5t-54 -40t-84.5 -16zM323 540q54 0 88 -17t52.5 -40t25.5 -41h6l19 88h115l-113 -530h-115l15 72h-5
l-9.5 -12.5t-29 -28.5t-50.5 -28.5t-74 -12.5q-68 0 -113 32.5t-67.5 85.5t-22.5 114q0 56 18 112.5t54 103t87.5 74.5t118.5 28zM336 445q-42 0 -75 -19.5t-56 -52t-35.5 -71t-12.5 -75.5q0 -38 13 -70.5t40 -52t69 -19.5t75 19.5t56 51.5t35 70.5t12 76.5t-12.5 70.5
t-39.5 52t-69 19.5zM223 -234q-31 0 -50.5 21t-19.5 49q0 29 19.5 49.5t50.5 20.5q30 0 50 -20.5t20 -49.5t-20 -49.5t-50 -20.5z" />
    <glyph glyph-name="uni1EB8" unicode="&#x1eb8;" horiz-adv-x="616" 
d="M24 0l157 740h465l-21 -102h-349l-45 -211h303l-21 -101h-303l-48 -224h354l-22 -102h-470zM259 -234q-31 0 -50.5 21t-19.5 49q0 29 19.5 49.5t50.5 20.5q30 0 50 -20.5t20 -49.5t-20 -49.5t-50 -20.5z" />
    <glyph glyph-name="uni1EB9" unicode="&#x1eb9;" horiz-adv-x="589" 
d="M270 -10q-80 0 -130.5 33.5t-75.5 87.5t-25 115q0 56 19.5 111.5t57 101.5t92.5 73.5t126 27.5q69 0 114 -27t68.5 -70.5t29 -94.5t-5.5 -98l-4 -18h-385q1 -64 31.5 -107t95.5 -43q38 0 63 12.5t39.5 28.5t20.5 28.5l6 12.5h108l-7 -17.5t-23.5 -43.5t-44.5 -52
t-70 -43.5t-100 -17.5zM165 312h276q5 34 -5.5 65t-37.5 51t-70 20q-61 0 -103 -40t-60 -96zM223 -234q-31 0 -50.5 21t-19.5 49q0 29 19.5 49.5t50.5 20.5q29 0 49 -20.5t20 -49.5t-20 -49.5t-49 -20.5z" />
    <glyph glyph-name="uni1EBA" unicode="&#x1eba;" horiz-adv-x="616" 
d="M384 804l7 33q5 24 28 35l16 7q28 13 42 26t14 29q0 12 -9.5 22.5t-29.5 10.5q-23 0 -33 -10.5t-12.5 -21l-2.5 -10.5h-67l3 15.5t14 35.5t35 35t66 15q55 0 81.5 -28t26.5 -61q0 -40 -31.5 -63.5t-70.5 -39.5l-7 -30h-70zM24 0l157 740h465l-21 -102h-349l-45 -211h303
l-21 -101h-303l-48 -224h354l-22 -102h-470z" />
    <glyph glyph-name="uni1EBB" unicode="&#x1ebb;" horiz-adv-x="589" 
d="M320 594l7 33q4 24 28 35l16 7q27 13 41 26t14 29q0 12 -9.5 22.5t-29.5 10.5q-23 0 -33 -10.5t-12.5 -21l-2.5 -10.5h-66l3 15.5t14 35.5t34.5 35t66.5 15q55 0 81 -28t26 -61q0 -40 -31.5 -63.5t-70.5 -39.5l-6 -30h-70zM270 -10q-80 0 -130.5 33.5t-75.5 87.5t-25 115
q0 56 19.5 111.5t57 101.5t92.5 73.5t126 27.5q69 0 114 -27t68.5 -70.5t29 -94.5t-5.5 -98l-4 -18h-385q1 -64 31.5 -107t95.5 -43q38 0 63 12.5t39.5 28.5t20.5 28.5l6 12.5h108l-7 -17.5t-23.5 -43.5t-44.5 -52t-70 -43.5t-100 -17.5zM165 312h276q5 34 -5.5 65t-37.5 51
t-70 20q-61 0 -103 -40t-60 -96z" />
    <glyph glyph-name="uni1EBC" unicode="&#x1ebc;" horiz-adv-x="616" 
d="M509 825q-26 0 -44.5 10.5t-32 24t-26 24t-26.5 10.5q-15 0 -25 -16.5t-15 -46.5h-68q11 59 35 98t74 39q27 0 45.5 -10t32.5 -23.5t26 -23.5t25 -10q16 0 25 16t15 46h68q-12 -59 -35.5 -98.5t-73.5 -39.5zM24 0l157 740h465l-21 -102h-349l-45 -211h303l-21 -101h-303
l-48 -224h354l-22 -102h-470z" />
    <glyph glyph-name="uni1EBD" unicode="&#x1ebd;" horiz-adv-x="589" 
d="M445 615q-27 0 -45 10.5t-32 24t-26 24t-26 10.5q-16 0 -25.5 -16.5t-14.5 -46.5h-69q12 59 35.5 98t74.5 39q27 0 45.5 -10t32 -23.5t25.5 -23.5t26 -10q16 0 25 16t14 46h68q-11 -59 -34.5 -98.5t-73.5 -39.5zM270 -10q-80 0 -130.5 33.5t-75.5 87.5t-25 115
q0 56 19.5 111.5t57 101.5t92.5 73.5t126 27.5q69 0 114 -27t68.5 -70.5t29 -94.5t-5.5 -98l-4 -18h-385q1 -64 31.5 -107t95.5 -43q38 0 63 12.5t39.5 28.5t20.5 28.5l6 12.5h108l-7 -17.5t-23.5 -43.5t-44.5 -52t-70 -43.5t-100 -17.5zM165 312h276q5 34 -5.5 65t-37.5 51
t-70 20q-61 0 -103 -40t-60 -96z" />
    <glyph glyph-name="uni1EBE" unicode="&#x1ebe;" horiz-adv-x="616" 
d="M666 941l-89 1l90 180h110zM253 813l155 149h95l92 -149h-91l-55 92l-93 -92h-103zM24 0l157 740h465l-21 -102h-349l-45 -211h303l-21 -101h-303l-48 -224h354l-22 -102h-470z" />
    <glyph glyph-name="uni1EBF" unicode="&#x1ebf;" horiz-adv-x="589" 
d="M601 731l-89 1l90 180h110zM189 603l155 149h94l92 -149h-90l-56 92l-92 -92h-103zM270 -10q-80 0 -130.5 33.5t-75.5 87.5t-25 115q0 56 19.5 111.5t57 101.5t92.5 73.5t126 27.5q69 0 114 -27t68.5 -70.5t29 -94.5t-5.5 -98l-4 -18h-385q1 -64 31.5 -107t95.5 -43
q38 0 63 12.5t39.5 28.5t20.5 28.5l6 12.5h108l-7 -17.5t-23.5 -43.5t-44.5 -52t-70 -43.5t-100 -17.5zM165 312h276q5 34 -5.5 65t-37.5 51t-70 20q-61 0 -103 -40t-60 -96z" />
    <glyph glyph-name="uni1EC0" unicode="&#x1ec0;" horiz-adv-x="616" 
d="M583 941l-87 181h107l66 -180zM253 813l155 149h95l92 -149h-91l-55 92l-93 -92h-103zM24 0l157 740h465l-21 -102h-349l-45 -211h303l-21 -101h-303l-48 -224h354l-22 -102h-470z" />
    <glyph glyph-name="uni1EC1" unicode="&#x1ec1;" horiz-adv-x="589" 
d="M519 731l-88 181h108l66 -180zM189 603l155 149h94l92 -149h-90l-56 92l-92 -92h-103zM270 -10q-80 0 -130.5 33.5t-75.5 87.5t-25 115q0 56 19.5 111.5t57 101.5t92.5 73.5t126 27.5q69 0 114 -27t68.5 -70.5t29 -94.5t-5.5 -98l-4 -18h-385q1 -64 31.5 -107t95.5 -43
q38 0 63 12.5t39.5 28.5t20.5 28.5l6 12.5h108l-7 -17.5t-23.5 -43.5t-44.5 -52t-70 -43.5t-100 -17.5zM165 312h276q5 34 -5.5 65t-37.5 51t-70 20q-61 0 -103 -40t-60 -96z" />
    <glyph glyph-name="uni1EC2" unicode="&#x1ec2;" horiz-adv-x="616" 
d="M564 925l7 33q4 25 28 35l16 8q27 12 41 25t14 30q0 12 -9.5 22t-29.5 10q-23 0 -33 -10t-12.5 -20.5l-2.5 -10.5h-66l3 15t14 35t34.5 35.5t66.5 15.5q55 0 81 -28t26 -62q0 -39 -31.5 -62.5t-70.5 -40.5l-6 -30h-70zM245 813l155 149h95l92 -149h-91l-55 92l-93 -92
h-103zM24 0l157 740h465l-21 -102h-349l-45 -211h303l-21 -101h-303l-48 -224h354l-22 -102h-470z" />
    <glyph glyph-name="uni1EC3" unicode="&#x1ec3;" horiz-adv-x="589" 
d="M499 715l7 33q5 25 29 35l15 8q28 12 42 25t14 30q0 12 -9.5 22t-29.5 10q-23 0 -33 -10t-12.5 -20.5l-2.5 -10.5h-67l3 15t14 35t35 35.5t66 15.5q55 0 81.5 -28t26.5 -62q0 -39 -31.5 -62.5t-70.5 -40.5l-7 -30h-70zM181 603l155 149h94l92 -149h-90l-56 92l-92 -92
h-103zM270 -10q-80 0 -130.5 33.5t-75.5 87.5t-25 115q0 56 19.5 111.5t57 101.5t92.5 73.5t126 27.5q69 0 114 -27t68.5 -70.5t29 -94.5t-5.5 -98l-4 -18h-385q1 -64 31.5 -107t95.5 -43q38 0 63 12.5t39.5 28.5t20.5 28.5l6 12.5h108l-7 -17.5t-23.5 -43.5t-44.5 -52
t-70 -43.5t-100 -17.5zM165 312h276q5 34 -5.5 65t-37.5 51t-70 20q-61 0 -103 -40t-60 -96z" />
    <glyph glyph-name="uni1EC4" unicode="&#x1ec4;" horiz-adv-x="616" 
d="M533 999q-27 0 -45 10.5t-32 24t-26 24t-26 10.5q-16 0 -25.5 -16.5t-14.5 -46.5h-69q12 59 35.5 98t74.5 39q27 0 45.5 -10t32 -23.5t25.5 -23.5t26 -10q16 0 25 16t14 46h68q-11 -59 -34.5 -98.5t-73.5 -39.5zM245 813l155 149h95l92 -149h-91l-55 92l-93 -92h-103z
M24 0l157 740h465l-21 -102h-349l-45 -211h303l-21 -101h-303l-48 -224h354l-22 -102h-470z" />
    <glyph glyph-name="uni1EC5" unicode="&#x1ec5;" horiz-adv-x="589" 
d="M468 789q-26 0 -44.5 10.5t-32 24t-26 24t-26.5 10.5q-15 0 -25 -16.5t-15 -46.5h-68q12 59 35.5 98t74.5 39q26 0 44.5 -10t32.5 -23.5t26 -23.5t25 -10q16 0 25 16t15 46h68q-12 -59 -35.5 -98.5t-73.5 -39.5zM181 603l155 149h94l92 -149h-90l-56 92l-92 -92h-103z
M270 -10q-80 0 -130.5 33.5t-75.5 87.5t-25 115q0 56 19.5 111.5t57 101.5t92.5 73.5t126 27.5q69 0 114 -27t68.5 -70.5t29 -94.5t-5.5 -98l-4 -18h-385q1 -64 31.5 -107t95.5 -43q38 0 63 12.5t39.5 28.5t20.5 28.5l6 12.5h108l-7 -17.5t-23.5 -43.5t-44.5 -52t-70 -43.5
t-100 -17.5zM165 312h276q5 34 -5.5 65t-37.5 51t-70 20q-61 0 -103 -40t-60 -96z" />
    <glyph glyph-name="uni1EC6" unicode="&#x1ec6;" horiz-adv-x="616" 
d="M245 813l155 149h95l92 -149h-91l-55 92l-93 -92h-103zM24 0l157 740h465l-21 -102h-349l-45 -211h303l-21 -101h-303l-48 -224h354l-22 -102h-470zM259 -234q-31 0 -50.5 21t-19.5 49q0 29 19.5 49.5t50.5 20.5q30 0 50 -20.5t20 -49.5t-20 -49.5t-50 -20.5z" />
    <glyph glyph-name="uni1EC7" unicode="&#x1ec7;" horiz-adv-x="589" 
d="M190 603l160 171h94l88 -171h-91l-52 106l-96 -106h-103zM270 -10q-80 0 -130.5 33.5t-75.5 87.5t-25 115q0 56 19.5 111.5t57 101.5t92.5 73.5t126 27.5q69 0 114 -27t68.5 -70.5t29 -94.5t-5.5 -98l-4 -18h-385q1 -64 31.5 -107t95.5 -43q38 0 63 12.5t39.5 28.5
t20.5 28.5l6 12.5h108l-7 -17.5t-23.5 -43.5t-44.5 -52t-70 -43.5t-100 -17.5zM165 312h276q5 34 -5.5 65t-37.5 51t-70 20q-61 0 -103 -40t-60 -96zM223 -234q-31 0 -50.5 21t-19.5 49q0 29 19.5 49.5t50.5 20.5q29 0 49 -20.5t20 -49.5t-20 -49.5t-49 -20.5z" />
    <glyph glyph-name="uni1EC8" unicode="&#x1ec8;" horiz-adv-x="274" 
d="M207 771l7 33q5 24 28 35l16 7q28 13 42 26t14 29q0 13 -9.5 23t-29.5 10q-23 0 -33 -10.5t-12.5 -21l-2.5 -10.5h-67l3 15.5t14 35.5t35 35t66 15q55 0 81.5 -28t26.5 -61q0 -40 -31.5 -63.5t-70.5 -39.5l-7 -30h-70zM24 0l157 740h116l-157 -740h-116z" />
    <glyph glyph-name="uni1EC9" unicode="&#x1ec9;" horiz-adv-x="269" 
d="M156 594l7 33q5 24 29 35l15 7q28 13 42 26t14 29q0 12 -9.5 22.5t-29.5 10.5q-23 0 -33 -10.5t-12.5 -21l-2.5 -10.5h-66l2.5 15.5t13.5 35.5t35 35t66 15q55 0 81.5 -28t26.5 -61q0 -40 -31.5 -63.5t-70.5 -39.5l-7 -30h-70zM12 0l113 530h115l-113 -530h-115z" />
    <glyph glyph-name="uni1ECA" unicode="&#x1eca;" horiz-adv-x="274" 
d="M24 0l157 740h116l-157 -740h-116zM48 -234q-31 0 -50.5 21t-19.5 49q0 29 19.5 49.5t50.5 20.5q29 0 49 -20.5t20 -49.5t-20 -49.5t-49 -20.5z" />
    <glyph glyph-name="uni1ECB" unicode="&#x1ecb;" horiz-adv-x="269" 
d="M216 617q-31 0 -51.5 21t-20.5 49q0 29 20.5 49.5t51.5 20.5q30 0 50.5 -20.5t20.5 -49.5t-20.5 -49.5t-50.5 -20.5zM12 0l113 530h115l-113 -530h-115zM35 -234q-31 0 -50.5 21t-19.5 49q0 29 19.5 49.5t50.5 20.5q30 0 50 -20.5t20 -49.5t-20 -49.5t-50 -20.5z" />
    <glyph glyph-name="uni1ECC" unicode="&#x1ecc;" horiz-adv-x="795" 
d="M371 -10q-80 0 -139 26.5t-97.5 72.5t-57.5 104.5t-19 123.5q0 77 26.5 153.5t78 140t126 101.5t170.5 38q81 0 140 -26.5t97.5 -72.5t57 -105t18.5 -123q0 -77 -26.5 -153.5t-77.5 -140t-125.5 -101.5t-171.5 -38zM375 95q67 0 119 29t87.5 77t54 105.5t18.5 114.5
q0 59 -21 110t-65 82.5t-112 31.5q-67 0 -118.5 -29t-87.5 -77t-54.5 -105.5t-18.5 -114.5q0 -59 21 -110t65 -82.5t112 -31.5zM309 -234q-31 0 -50.5 21t-19.5 49q0 29 19.5 49.5t50.5 20.5q30 0 50 -20.5t20 -49.5t-20 -49.5t-50 -20.5z" />
    <glyph glyph-name="uni1ECD" unicode="&#x1ecd;" horiz-adv-x="608" 
d="M265 -10q-77 0 -127.5 33t-75 86t-24.5 114q0 56 20 112t58 102.5t93.5 74.5t126.5 28q78 0 128 -33t74.5 -86t24.5 -114q0 -56 -19.5 -112t-58 -102.5t-94 -74.5t-126.5 -28zM272 87q42 0 75 19t56 51t35 70t12 76t-13 70t-39.5 51t-68.5 19t-75 -19t-56 -51t-35 -70
t-12 -76t13 -70t39.5 -51t68.5 -19zM219 -234q-31 0 -50.5 21t-19.5 49q0 29 19.5 49.5t50.5 20.5q29 0 49 -20.5t20 -49.5t-20 -49.5t-49 -20.5z" />
    <glyph glyph-name="uni1ECE" unicode="&#x1ece;" horiz-adv-x="795" 
d="M443 804l7 33q5 24 29 35l15 7q28 13 42 26t14 29q0 12 -9.5 22.5t-29.5 10.5q-23 0 -33 -10.5t-12.5 -21l-2.5 -10.5h-66l2.5 15.5t13.5 35.5t35 35t66 15q55 0 81.5 -28t26.5 -61q0 -40 -31.5 -63.5t-70.5 -39.5l-7 -30h-70zM371 -10q-80 0 -139 26.5t-97.5 72.5
t-57.5 104.5t-19 123.5q0 77 26.5 153.5t78 140t126 101.5t170.5 38q81 0 140 -26.5t97.5 -72.5t57 -105t18.5 -123q0 -77 -26.5 -153.5t-77.5 -140t-125.5 -101.5t-171.5 -38zM375 95q67 0 119 29t87.5 77t54 105.5t18.5 114.5q0 59 -21 110t-65 82.5t-112 31.5
q-67 0 -118.5 -29t-87.5 -77t-54.5 -105.5t-18.5 -114.5q0 -59 21 -110t65 -82.5t112 -31.5z" />
    <glyph glyph-name="uni1ECF" unicode="&#x1ecf;" horiz-adv-x="608" 
d="M320 594l7 33q4 24 28 35l16 7q27 13 41 26t14 29q0 12 -9.5 22.5t-29.5 10.5q-23 0 -33 -10.5t-12.5 -21l-2.5 -10.5h-66l3 15.5t14 35.5t34.5 35t66.5 15q55 0 81 -28t26 -61q0 -40 -31.5 -63.5t-70.5 -39.5l-6 -30h-70zM265 -10q-77 0 -127.5 33t-75 86t-24.5 114
q0 56 20 112t58 102.5t93.5 74.5t126.5 28q78 0 128 -33t74.5 -86t24.5 -114q0 -56 -19.5 -112t-58 -102.5t-94 -74.5t-126.5 -28zM272 87q42 0 75 19t56 51t35 70t12 76t-13 70t-39.5 51t-68.5 19t-75 -19t-56 -51t-35 -70t-12 -76t13 -70t39.5 -51t68.5 -19z" />
    <glyph glyph-name="uni1ED0" unicode="&#x1ed0;" horiz-adv-x="795" 
d="M725 941l-89 1l90 180h110zM312 813l156 149h94l92 -149h-90l-56 92l-92 -92h-104zM371 -10q-80 0 -139 26.5t-97.5 72.5t-57.5 104.5t-19 123.5q0 77 26.5 153.5t78 140t126 101.5t170.5 38q81 0 140 -26.5t97.5 -72.5t57 -105t18.5 -123q0 -77 -26.5 -153.5t-77.5 -140
t-125.5 -101.5t-171.5 -38zM375 95q67 0 119 29t87.5 77t54 105.5t18.5 114.5q0 59 -21 110t-65 82.5t-112 31.5q-67 0 -118.5 -29t-87.5 -77t-54.5 -105.5t-18.5 -114.5q0 -59 21 -110t65 -82.5t112 -31.5z" />
    <glyph glyph-name="uni1ED1" unicode="&#x1ed1;" horiz-adv-x="608" 
d="M601 731l-89 1l90 180h110zM189 603l155 149h94l92 -149h-90l-56 92l-92 -92h-103zM265 -10q-77 0 -127.5 33t-75 86t-24.5 114q0 56 20 112t58 102.5t93.5 74.5t126.5 28q78 0 128 -33t74.5 -86t24.5 -114q0 -56 -19.5 -112t-58 -102.5t-94 -74.5t-126.5 -28zM272 87
q42 0 75 19t56 51t35 70t12 76t-13 70t-39.5 51t-68.5 19t-75 -19t-56 -51t-35 -70t-12 -76t13 -70t39.5 -51t68.5 -19z" />
    <glyph glyph-name="uni1ED2" unicode="&#x1ed2;" horiz-adv-x="795" 
d="M642 941l-87 181h108l66 -180zM312 813l156 149h94l92 -149h-90l-56 92l-92 -92h-104zM371 -10q-80 0 -139 26.5t-97.5 72.5t-57.5 104.5t-19 123.5q0 77 26.5 153.5t78 140t126 101.5t170.5 38q81 0 140 -26.5t97.5 -72.5t57 -105t18.5 -123q0 -77 -26.5 -153.5
t-77.5 -140t-125.5 -101.5t-171.5 -38zM375 95q67 0 119 29t87.5 77t54 105.5t18.5 114.5q0 59 -21 110t-65 82.5t-112 31.5q-67 0 -118.5 -29t-87.5 -77t-54.5 -105.5t-18.5 -114.5q0 -59 21 -110t65 -82.5t112 -31.5z" />
    <glyph glyph-name="uni1ED3" unicode="&#x1ed3;" horiz-adv-x="608" 
d="M519 731l-88 181h108l66 -180zM189 603l155 149h94l92 -149h-90l-56 92l-92 -92h-103zM265 -10q-77 0 -127.5 33t-75 86t-24.5 114q0 56 20 112t58 102.5t93.5 74.5t126.5 28q78 0 128 -33t74.5 -86t24.5 -114q0 -56 -19.5 -112t-58 -102.5t-94 -74.5t-126.5 -28zM272 87
q42 0 75 19t56 51t35 70t12 76t-13 70t-39.5 51t-68.5 19t-75 -19t-56 -51t-35 -70t-12 -76t13 -70t39.5 -51t68.5 -19z" />
    <glyph glyph-name="uni1ED4" unicode="&#x1ed4;" horiz-adv-x="795" 
d="M623 925l7 33q5 25 28 35l16 8q28 12 42 25t14 30q0 12 -9.5 22t-29.5 10q-23 0 -33 -10t-12.5 -20.5l-2.5 -10.5h-67l3 15t14 35t35 35.5t66 15.5q55 0 81.5 -28t26.5 -62q0 -39 -31.5 -62.5t-70.5 -40.5l-7 -30h-70zM304 813l156 149h94l92 -149h-90l-56 92l-92 -92
h-104zM371 -10q-80 0 -139 26.5t-97.5 72.5t-57.5 104.5t-19 123.5q0 77 26.5 153.5t78 140t126 101.5t170.5 38q81 0 140 -26.5t97.5 -72.5t57 -105t18.5 -123q0 -77 -26.5 -153.5t-77.5 -140t-125.5 -101.5t-171.5 -38zM375 95q67 0 119 29t87.5 77t54 105.5t18.5 114.5
q0 59 -21 110t-65 82.5t-112 31.5q-67 0 -118.5 -29t-87.5 -77t-54.5 -105.5t-18.5 -114.5q0 -59 21 -110t65 -82.5t112 -31.5z" />
    <glyph glyph-name="uni1ED5" unicode="&#x1ed5;" horiz-adv-x="608" 
d="M499 715l7 33q5 25 29 35l15 8q28 12 42 25t14 30q0 12 -9.5 22t-29.5 10q-23 0 -33 -10t-12.5 -20.5l-2.5 -10.5h-67l3 15t14 35t35 35.5t66 15.5q55 0 81.5 -28t26.5 -62q0 -39 -31.5 -62.5t-70.5 -40.5l-7 -30h-70zM181 603l155 149h94l92 -149h-90l-56 92l-92 -92
h-103zM265 -10q-77 0 -127.5 33t-75 86t-24.5 114q0 56 20 112t58 102.5t93.5 74.5t126.5 28q78 0 128 -33t74.5 -86t24.5 -114q0 -56 -19.5 -112t-58 -102.5t-94 -74.5t-126.5 -28zM272 87q42 0 75 19t56 51t35 70t12 76t-13 70t-39.5 51t-68.5 19t-75 -19t-56 -51t-35 -70
t-12 -76t13 -70t39.5 -51t68.5 -19z" />
    <glyph glyph-name="uni1ED6" unicode="&#x1ed6;" horiz-adv-x="795" 
d="M592 999q-26 0 -44.5 10.5t-32 24t-26 24t-26.5 10.5q-15 0 -25 -16.5t-15 -46.5h-68q11 59 35 98t74 39q27 0 45.5 -10t32.5 -23.5t26 -23.5t25 -10q16 0 25 16t15 46h68q-12 -59 -35.5 -98.5t-73.5 -39.5zM304 813l156 149h94l92 -149h-90l-56 92l-92 -92h-104z
M371 -10q-80 0 -139 26.5t-97.5 72.5t-57.5 104.5t-19 123.5q0 77 26.5 153.5t78 140t126 101.5t170.5 38q81 0 140 -26.5t97.5 -72.5t57 -105t18.5 -123q0 -77 -26.5 -153.5t-77.5 -140t-125.5 -101.5t-171.5 -38zM375 95q67 0 119 29t87.5 77t54 105.5t18.5 114.5
q0 59 -21 110t-65 82.5t-112 31.5q-67 0 -118.5 -29t-87.5 -77t-54.5 -105.5t-18.5 -114.5q0 -59 21 -110t65 -82.5t112 -31.5z" />
    <glyph glyph-name="uni1ED7" unicode="&#x1ed7;" horiz-adv-x="608" 
d="M468 789q-26 0 -44.5 10.5t-32 24t-26 24t-26.5 10.5q-15 0 -25 -16.5t-15 -46.5h-68q12 59 35.5 98t74.5 39q26 0 44.5 -10t32.5 -23.5t26 -23.5t25 -10q16 0 25 16t15 46h68q-12 -59 -35.5 -98.5t-73.5 -39.5zM181 603l155 149h94l92 -149h-90l-56 92l-92 -92h-103z
M265 -10q-77 0 -127.5 33t-75 86t-24.5 114q0 56 20 112t58 102.5t93.5 74.5t126.5 28q78 0 128 -33t74.5 -86t24.5 -114q0 -56 -19.5 -112t-58 -102.5t-94 -74.5t-126.5 -28zM272 87q42 0 75 19t56 51t35 70t12 76t-13 70t-39.5 51t-68.5 19t-75 -19t-56 -51t-35 -70
t-12 -76t13 -70t39.5 -51t68.5 -19z" />
    <glyph glyph-name="uni1ED8" unicode="&#x1ed8;" horiz-adv-x="795" 
d="M304 813l156 149h94l92 -149h-90l-56 92l-92 -92h-104zM371 -10q-80 0 -139 26.5t-97.5 72.5t-57.5 104.5t-19 123.5q0 77 26.5 153.5t78 140t126 101.5t170.5 38q81 0 140 -26.5t97.5 -72.5t57 -105t18.5 -123q0 -77 -26.5 -153.5t-77.5 -140t-125.5 -101.5t-171.5 -38z
M375 95q67 0 119 29t87.5 77t54 105.5t18.5 114.5q0 59 -21 110t-65 82.5t-112 31.5q-67 0 -118.5 -29t-87.5 -77t-54.5 -105.5t-18.5 -114.5q0 -59 21 -110t65 -82.5t112 -31.5zM309 -234q-31 0 -50.5 21t-19.5 49q0 29 19.5 49.5t50.5 20.5q30 0 50 -20.5t20 -49.5
t-20 -49.5t-50 -20.5z" />
    <glyph glyph-name="uni1ED9" unicode="&#x1ed9;" horiz-adv-x="608" 
d="M190 603l160 171h94l88 -171h-91l-52 106l-96 -106h-103zM265 -10q-77 0 -127.5 33t-75 86t-24.5 114q0 56 20 112t58 102.5t93.5 74.5t126.5 28q78 0 128 -33t74.5 -86t24.5 -114q0 -56 -19.5 -112t-58 -102.5t-94 -74.5t-126.5 -28zM272 87q42 0 75 19t56 51t35 70
t12 76t-13 70t-39.5 51t-68.5 19t-75 -19t-56 -51t-35 -70t-12 -76t13 -70t39.5 -51t68.5 -19zM219 -234q-31 0 -50.5 21t-19.5 49q0 29 19.5 49.5t50.5 20.5q29 0 49 -20.5t20 -49.5t-20 -49.5t-49 -20.5z" />
    <glyph glyph-name="uni1EDA" unicode="&#x1eda;" horiz-adv-x="795" 
d="M545 818l-89 1l90 180h110zM371 -10q-80 0 -139 26.5t-97.5 72.5t-57.5 104.5t-19 123.5q0 77 26.5 153.5t78 140t126 101.5t170.5 38h5v0h176q24 0 36 9.5t16 31.5l13 63h103l-19 -83q-9 -44 -35.5 -67.5t-74.5 -23.5h-12q53 -46 79 -114t26 -143q0 -77 -26.5 -153.5
t-77.5 -140t-125.5 -101.5t-171.5 -38zM375 95q67 0 119 29t87.5 77t54 105.5t18.5 114.5q0 59 -21 110t-65 82.5t-112 31.5q-67 0 -118.5 -29t-87.5 -77t-54.5 -105.5t-18.5 -114.5q0 -59 21 -110t65 -82.5t112 -31.5z" />
    <glyph glyph-name="uni1EDB" unicode="&#x1edb;" horiz-adv-x="608" 
d="M405 608l-89 1l90 180h110zM265 -10q-77 0 -127.5 33t-75 86t-24.5 114q0 56 20 112t58 102.5t93.5 74.5t126.5 28h121q51 0 61 49l11 55h93l-15 -73q-10 -44 -37 -67.5t-72 -23.5q33 -33 49 -78t16 -95q0 -56 -19.5 -112t-58 -102.5t-94 -74.5t-126.5 -28zM272 87
q42 0 75 19t56 51t35 70t12 76t-13 70t-39.5 51t-68.5 19t-75 -19t-56 -51t-35 -70t-12 -76t13 -70t39.5 -51t68.5 -19z" />
    <glyph glyph-name="uni1EDC" unicode="&#x1edc;" horiz-adv-x="795" 
d="M440 818l-87 181h107l67 -180zM371 -10q-80 0 -139 26.5t-97.5 72.5t-57.5 104.5t-19 123.5q0 77 26.5 153.5t78 140t126 101.5t170.5 38h5v0h176q24 0 36 9.5t16 31.5l13 63h103l-19 -83q-9 -44 -35.5 -67.5t-74.5 -23.5h-12q53 -46 79 -114t26 -143q0 -77 -26.5 -153.5
t-77.5 -140t-125.5 -101.5t-171.5 -38zM375 95q67 0 119 29t87.5 77t54 105.5t18.5 114.5q0 59 -21 110t-65 82.5t-112 31.5q-67 0 -118.5 -29t-87.5 -77t-54.5 -105.5t-18.5 -114.5q0 -59 21 -110t65 -82.5t112 -31.5z" />
    <glyph glyph-name="uni1EDD" unicode="&#x1edd;" horiz-adv-x="608" 
d="M300 608l-88 181h108l66 -180zM265 -10q-77 0 -127.5 33t-75 86t-24.5 114q0 56 20 112t58 102.5t93.5 74.5t126.5 28h121q51 0 61 49l11 55h93l-15 -73q-10 -44 -37 -67.5t-72 -23.5q33 -33 49 -78t16 -95q0 -56 -19.5 -112t-58 -102.5t-94 -74.5t-126.5 -28zM272 87
q42 0 75 19t56 51t35 70t12 76t-13 70t-39.5 51t-68.5 19t-75 -19t-56 -51t-35 -70t-12 -76t13 -70t39.5 -51t68.5 -19z" />
    <glyph glyph-name="uni1EDE" unicode="&#x1ede;" horiz-adv-x="795" 
d="M451 804l7 33q5 24 29 35l15 7q28 13 42 26t14 29q0 12 -9.5 22.5t-29.5 10.5q-23 0 -33 -10.5t-12.5 -21l-2.5 -10.5h-66l2.5 15.5t13.5 35.5t35 35t66 15q55 0 81.5 -28t26.5 -61q0 -40 -31.5 -63.5t-70.5 -39.5l-7 -30h-70zM371 -10q-80 0 -139 26.5t-97.5 72.5
t-57.5 104.5t-19 123.5q0 77 26.5 153.5t78 140t126 101.5t170.5 38h5v0h176q24 0 36 9.5t16 31.5l13 63h103l-19 -83q-9 -44 -35.5 -67.5t-74.5 -23.5h-12q53 -46 79 -114t26 -143q0 -77 -26.5 -153.5t-77.5 -140t-125.5 -101.5t-171.5 -38zM375 95q67 0 119 29t87.5 77
t54 105.5t18.5 114.5q0 59 -21 110t-65 82.5t-112 31.5q-67 0 -118.5 -29t-87.5 -77t-54.5 -105.5t-18.5 -114.5q0 -59 21 -110t65 -82.5t112 -31.5z" />
    <glyph glyph-name="uni1EDF" unicode="&#x1edf;" horiz-adv-x="608" 
d="M311 594l7 33q5 24 28 35l16 7q27 13 41.5 26t14.5 29q0 12 -10 22.5t-29 10.5q-23 0 -33.5 -10.5t-12.5 -21l-2 -10.5h-67l3 15.5t14 35.5t35 35t66 15q55 0 81 -28t26 -61q0 -40 -31.5 -63.5t-70.5 -39.5l-6 -30h-70zM265 -10q-77 0 -127.5 33t-75 86t-24.5 114
q0 56 20 112t58 102.5t93.5 74.5t126.5 28h121q51 0 61 49l11 55h93l-15 -73q-10 -44 -37 -67.5t-72 -23.5q33 -33 49 -78t16 -95q0 -56 -19.5 -112t-58 -102.5t-94 -74.5t-126.5 -28zM272 87q42 0 75 19t56 51t35 70t12 76t-13 70t-39.5 51t-68.5 19t-75 -19t-56 -51
t-35 -70t-12 -76t13 -70t39.5 -51t68.5 -19z" />
    <glyph glyph-name="uni1EE0" unicode="&#x1ee0;" horiz-adv-x="795" 
d="M576 825q-26 0 -44 10.5t-32 24t-26 24t-26 10.5q-16 0 -25.5 -16.5t-15.5 -46.5h-68q12 59 35.5 98t74.5 39q27 0 45.5 -10t32 -23.5t25.5 -23.5t26 -10q16 0 25 16t14 46h68q-11 -59 -34.5 -98.5t-74.5 -39.5zM371 -10q-80 0 -139 26.5t-97.5 72.5t-57.5 104.5
t-19 123.5q0 77 26.5 153.5t78 140t126 101.5t170.5 38h5v0h176q24 0 36 9.5t16 31.5l13 63h103l-19 -83q-9 -44 -35.5 -67.5t-74.5 -23.5h-12q53 -46 79 -114t26 -143q0 -77 -26.5 -153.5t-77.5 -140t-125.5 -101.5t-171.5 -38zM375 95q67 0 119 29t87.5 77t54 105.5
t18.5 114.5q0 59 -21 110t-65 82.5t-112 31.5q-67 0 -118.5 -29t-87.5 -77t-54.5 -105.5t-18.5 -114.5q0 -59 21 -110t65 -82.5t112 -31.5z" />
    <glyph glyph-name="uni1EE1" unicode="&#x1ee1;" horiz-adv-x="606" 
d="M426 615q-24 0 -41.5 10.5t-31 24t-25.5 24t-25 10.5q-28 0 -36 -63h-67q10 59 32.5 98t71.5 39q25 0 43 -10t31.5 -23.5t25 -23.5t24.5 -10q27 0 35 62h67q-9 -59 -32 -98.5t-72 -39.5zM265 -10q-77 0 -127.5 33t-75 86t-24.5 114q0 56 20 112t58 102.5t93.5 74.5
t126.5 28h121q51 0 61 49l11 55h93l-15 -73q-10 -44 -37 -67.5t-72 -23.5q33 -33 49 -78t16 -95q0 -56 -19.5 -112t-58 -102.5t-94 -74.5t-126.5 -28zM272 87q42 0 75 19t56 51t35 70t12 76t-13 70t-39.5 51t-68.5 19t-75 -19t-56 -51t-35 -70t-12 -76t13 -70t39.5 -51
t68.5 -19z" />
    <glyph glyph-name="uni1EE2" unicode="&#x1ee2;" horiz-adv-x="795" 
d="M371 -10q-80 0 -139 26.5t-97.5 72.5t-57.5 104.5t-19 123.5q0 77 26.5 153.5t78 140t126 101.5t170.5 38h5v0h176q24 0 36 9.5t16 31.5l13 63h103l-19 -83q-9 -44 -35.5 -67.5t-74.5 -23.5h-12q53 -46 79 -114t26 -143q0 -77 -26.5 -153.5t-77.5 -140t-125.5 -101.5
t-171.5 -38zM375 95q67 0 119 29t87.5 77t54 105.5t18.5 114.5q0 59 -21 110t-65 82.5t-112 31.5q-67 0 -118.5 -29t-87.5 -77t-54.5 -105.5t-18.5 -114.5q0 -59 21 -110t65 -82.5t112 -31.5zM307 -234q-30 0 -49.5 21t-19.5 49q0 29 19.5 49.5t49.5 20.5t50 -20.5t20 -49.5
t-20 -49.5t-50 -20.5z" />
    <glyph glyph-name="uni1EE3" unicode="&#x1ee3;" horiz-adv-x="608" 
d="M265 -10q-77 0 -127.5 33t-75 86t-24.5 114q0 56 20 112t58 102.5t93.5 74.5t126.5 28h121q51 0 61 49l11 55h93l-15 -73q-10 -44 -37 -67.5t-72 -23.5q33 -33 49 -78t16 -95q0 -56 -19.5 -112t-58 -102.5t-94 -74.5t-126.5 -28zM272 87q42 0 75 19t56 51t35 70t12 76
t-13 70t-39.5 51t-68.5 19t-75 -19t-56 -51t-35 -70t-12 -76t13 -70t39.5 -51t68.5 -19zM223 -234q-31 0 -50.5 21t-19.5 49q0 29 19.5 49.5t50.5 20.5q30 0 50 -20.5t20 -49.5t-20 -49.5t-50 -20.5z" />
    <glyph glyph-name="uni1EE4" unicode="&#x1ee4;" horiz-adv-x="733" 
d="M318 -10q-82 0 -142 34t-86 101t-5 168l96 447h116l-97 -457q-17 -82 15.5 -132.5t118.5 -50.5q81 0 135.5 50.5t72.5 132.5l97 457h117l-98 -461q-30 -143 -121 -216t-219 -73zM272 -234q-31 0 -50.5 21t-19.5 49q0 29 19.5 49.5t50.5 20.5q30 0 50 -20.5t20 -49.5
t-20 -49.5t-50 -20.5z" />
    <glyph glyph-name="uni1EE5" unicode="&#x1ee5;" horiz-adv-x="586" 
d="M194 -10q-51 0 -86 24t-49 68t-1 105l73 343h115l-73 -342q-10 -49 10.5 -75.5t63.5 -26.5t73.5 22t50 56.5t26.5 72.5l62 293h115l-112 -530h-115l16 76h-6q-11 -15 -31.5 -35.5t-52.5 -35.5t-79 -15zM205 -234q-31 0 -50.5 21t-19.5 49q0 29 19.5 49.5t50.5 20.5
q29 0 49 -20.5t20 -49.5t-20 -49.5t-49 -20.5z" />
    <glyph glyph-name="uni1EE6" unicode="&#x1ee6;" horiz-adv-x="733" 
d="M439 804l7 33q5 24 29 35l15 7q28 13 42 26t14 29q0 12 -9.5 22.5t-29.5 10.5q-23 0 -33 -10.5t-12.5 -21l-2.5 -10.5h-67l3 15.5t14 35.5t35 35t66 15q55 0 81.5 -28t26.5 -61q0 -40 -31.5 -63.5t-70.5 -39.5l-7 -30h-70zM318 -10q-82 0 -142 34t-86 101t-5 168l96 447
h116l-97 -457q-17 -82 15.5 -132.5t118.5 -50.5q81 0 135.5 50.5t72.5 132.5l97 457h117l-98 -461q-30 -143 -121 -216t-219 -73z" />
    <glyph glyph-name="uni1EE7" unicode="&#x1ee7;" horiz-adv-x="586" 
d="M326 594l7 33q4 24 28 35l16 7q27 13 41 26t14 29q0 12 -9.5 22.5t-29.5 10.5q-23 0 -33 -10.5t-12.5 -21l-2.5 -10.5h-66l3 15.5t14 35.5t34.5 35t66.5 15q55 0 81 -28t26 -61q0 -40 -31.5 -63.5t-70.5 -39.5l-6 -30h-70zM194 -10q-51 0 -86 24t-49 68t-1 105l73 343
h115l-73 -342q-10 -49 10.5 -75.5t63.5 -26.5t73.5 22t50 56.5t26.5 72.5l62 293h115l-112 -530h-115l16 76h-6q-11 -15 -31.5 -35.5t-52.5 -35.5t-79 -15z" />
    <glyph glyph-name="uni1EE8" unicode="&#x1ee8;" horiz-adv-x="733" 
d="M525 818l-89 1l90 180h110zM318 -10q-82 0 -142 34t-86 101t-5 168l96 447h116l-97 -457q-17 -82 15.5 -132.5t118.5 -50.5q81 0 135.5 50.5t72.5 132.5l97 457h83q23 0 35 9.5t17 31.5l13 63h102l-18 -83q-9 -44 -36 -67.5t-75 -23.5h-19l-83 -391q-30 -143 -121 -216
t-219 -73z" />
    <glyph glyph-name="uni1EE9" unicode="&#x1ee9;" horiz-adv-x="586" 
d="M414 608l-89 1l90 180h110zM194 -10q-51 0 -86 24t-49 68t-1 105l73 343h115l-73 -342q-10 -49 10.5 -75.5t63.5 -26.5t73.5 22t50 56.5t26.5 72.5l62 293h64q52 0 62 49l11 55h93l-15 -73q-10 -44 -37.5 -67.5t-74.5 -23.5l-100 -470h-115l16 76h-6q-11 -15 -31.5 -35.5
t-52.5 -35.5t-79 -15z" />
    <glyph glyph-name="uni1EEA" unicode="&#x1eea;" horiz-adv-x="733" 
d="M420 818l-87 181h107l66 -180zM318 -10q-82 0 -142 34t-86 101t-5 168l96 447h116l-97 -457q-17 -82 15.5 -132.5t118.5 -50.5q81 0 135.5 50.5t72.5 132.5l97 457h83q23 0 35 9.5t17 31.5l13 63h102l-18 -83q-9 -44 -36 -67.5t-75 -23.5h-19l-83 -391
q-30 -143 -121 -216t-219 -73z" />
    <glyph glyph-name="uni1EEB" unicode="&#x1eeb;" horiz-adv-x="586" 
d="M309 608l-88 181h108l66 -180zM194 -10q-51 0 -86 24t-49 68t-1 105l73 343h115l-73 -342q-10 -49 10.5 -75.5t63.5 -26.5t73.5 22t50 56.5t26.5 72.5l62 293h64q52 0 62 49l11 55h93l-15 -73q-10 -44 -37.5 -67.5t-74.5 -23.5l-100 -470h-115l16 76h-6
q-11 -15 -31.5 -35.5t-52.5 -35.5t-79 -15z" />
    <glyph glyph-name="uni1EEC" unicode="&#x1eec;" horiz-adv-x="733" 
d="M431 804l7 33q5 24 29 35l15 7q28 13 42 26t14 29q0 12 -9.5 22.5t-29.5 10.5q-23 0 -33 -10.5t-12.5 -21l-2.5 -10.5h-67l3 15.5t14 35.5t35 35t66 15q55 0 81.5 -28t26.5 -61q0 -40 -31.5 -63.5t-70.5 -39.5l-7 -30h-70zM318 -10q-82 0 -142 34t-86 101t-5 168l96 447
h116l-97 -457q-17 -82 15.5 -132.5t118.5 -50.5q81 0 135.5 50.5t72.5 132.5l97 457h83q23 0 35 9.5t17 31.5l13 63h102l-18 -83q-9 -44 -36 -67.5t-75 -23.5h-19l-83 -391q-30 -143 -121 -216t-219 -73z" />
    <glyph glyph-name="uni1EED" unicode="&#x1eed;" horiz-adv-x="586" 
d="M320 594l7 33q5 24 28 35l16 7q27 13 41.5 26t14.5 29q0 12 -10 22.5t-29 10.5q-23 0 -33.5 -10.5t-12.5 -21l-2 -10.5h-67l3 15.5t14 35.5t35 35t66 15q55 0 81 -28t26 -61q0 -40 -31.5 -63.5t-70.5 -39.5l-6 -30h-70zM194 -10q-51 0 -86 24t-49 68t-1 105l73 343h115
l-73 -342q-10 -49 10.5 -75.5t63.5 -26.5t73.5 22t50 56.5t26.5 72.5l62 293h64q52 0 62 49l11 55h93l-15 -73q-10 -44 -37.5 -67.5t-74.5 -23.5l-100 -470h-115l16 76h-6q-11 -15 -31.5 -35.5t-52.5 -35.5t-79 -15z" />
    <glyph glyph-name="uni1EEE" unicode="&#x1eee;" horiz-adv-x="733" 
d="M556 825q-26 0 -44.5 10.5t-32 24t-26 24t-26.5 10.5q-15 0 -25 -16.5t-15 -46.5h-68q12 59 35.5 98t74.5 39q26 0 44.5 -10t32.5 -23.5t26 -23.5t25 -10q16 0 25 16t15 46h68q-12 -59 -35.5 -98.5t-73.5 -39.5zM318 -10q-82 0 -142 34t-86 101t-5 168l96 447h116
l-97 -457q-17 -82 15.5 -132.5t118.5 -50.5q81 0 135.5 50.5t72.5 132.5l97 457h83q23 0 35 9.5t17 31.5l13 63h102l-18 -83q-9 -44 -36 -67.5t-75 -23.5h-19l-83 -391q-30 -143 -121 -216t-219 -73z" />
    <glyph glyph-name="uni1EEF" unicode="&#x1eef;" horiz-adv-x="586" 
d="M445 615q-26 0 -44.5 10.5t-32.5 24t-26 24t-26 10.5q-15 0 -25 -16.5t-15 -46.5h-68q11 59 34.5 98t74.5 39q27 0 45.5 -10t32 -23.5t25.5 -23.5t26 -10q16 0 25 16t14 46h69q-12 -59 -35.5 -98.5t-73.5 -39.5zM194 -10q-51 0 -86 24t-49 68t-1 105l73 343h115l-73 -342
q-10 -49 10.5 -75.5t63.5 -26.5t73.5 22t50 56.5t26.5 72.5l62 293h64q52 0 62 49l11 55h93l-15 -73q-10 -44 -37.5 -67.5t-74.5 -23.5l-100 -470h-115l16 76h-6q-11 -15 -31.5 -35.5t-52.5 -35.5t-79 -15z" />
    <glyph glyph-name="uni1EF0" unicode="&#x1ef0;" horiz-adv-x="733" 
d="M318 -10q-82 0 -142 34t-86 101t-5 168l96 447h116l-97 -457q-17 -82 15.5 -132.5t118.5 -50.5q81 0 135.5 50.5t72.5 132.5l97 457h83q23 0 35 9.5t17 31.5l13 63h102l-18 -83q-9 -44 -36 -67.5t-75 -23.5h-19l-83 -391q-30 -143 -121 -216t-219 -73zM264 -234
q-31 0 -50.5 21t-19.5 49q0 29 19.5 49.5t50.5 20.5q30 0 50 -20.5t20 -49.5t-20 -49.5t-50 -20.5z" />
    <glyph glyph-name="uni1EF1" unicode="&#x1ef1;" horiz-adv-x="586" 
d="M194 -10q-51 0 -86 24t-49 68t-1 105l73 343h115l-73 -342q-10 -49 10.5 -75.5t63.5 -26.5t73.5 22t50 56.5t26.5 72.5l62 293h64q52 0 62 49l11 55h93l-15 -73q-10 -44 -37.5 -67.5t-74.5 -23.5l-100 -470h-115l16 76h-6q-11 -15 -31.5 -35.5t-52.5 -35.5t-79 -15z
M199 -234q-31 0 -50.5 21t-19.5 49q0 29 19.5 49.5t50.5 20.5q30 0 50 -20.5t20 -49.5t-20 -49.5t-50 -20.5z" />
    <glyph glyph-name="Ygrave" unicode="&#x1ef2;" horiz-adv-x="629" 
d="M373 818l-87 181h108l66 -180zM199 0l55 262l-157 478h119l114 -358l264 358h138l-362 -481l-55 -259h-116z" />
    <glyph glyph-name="ygrave" unicode="&#x1ef3;" horiz-adv-x="575" 
d="M291 608l-87 181h107l67 -180zM-2 -195q-23 0 -38 2l-15 2l20 98l13.5 -1.5t29.5 -1.5q93 0 159 94l-88 532h113l60 -397l225 397h128l-311 -524q-62 -103 -135 -152t-161 -49z" />
    <glyph glyph-name="uni1EF4" unicode="&#x1ef4;" horiz-adv-x="629" 
d="M199 0l55 262l-157 478h119l114 -358l264 358h138l-362 -481l-55 -259h-116zM226 -234q-31 0 -50.5 21t-19.5 49q0 29 19.5 49.5t50.5 20.5q30 0 50 -20.5t20 -49.5t-20 -49.5t-50 -20.5z" />
    <glyph glyph-name="uni1EF5" unicode="&#x1ef5;" horiz-adv-x="575" 
d="M-2 -195q-23 0 -38 2l-15 2l20 98l13.5 -1.5t29.5 -1.5q93 0 159 94l-88 532h113l60 -397l225 397h128l-311 -524q-62 -103 -135 -152t-161 -49zM335 -234q-31 0 -50.5 21t-19.5 49q0 29 19.5 49.5t50.5 20.5q30 0 50 -20.5t20 -49.5t-20 -49.5t-50 -20.5z" />
    <glyph glyph-name="uni1EF6" unicode="&#x1ef6;" horiz-adv-x="629" 
d="M385 804l7 33q4 24 28 35l16 7q27 13 41 26t14 29q0 12 -9.5 22.5t-29.5 10.5q-23 0 -33 -10.5t-12.5 -21l-2.5 -10.5h-66l3 15.5t14 35.5t34.5 35t66.5 15q55 0 81 -28t26 -61q0 -40 -31.5 -63.5t-70.5 -39.5l-6 -30h-70zM199 0l55 262l-157 478h119l114 -358l264 358
h138l-362 -481l-55 -259h-116z" />
    <glyph glyph-name="uni1EF7" unicode="&#x1ef7;" horiz-adv-x="575" 
d="M302 594l7 33q5 24 29 35l15 7q28 13 42 26t14 29q0 12 -9.5 22.5t-29.5 10.5q-23 0 -33 -10.5t-12.5 -21l-2.5 -10.5h-66l2.5 15.5t13.5 35.5t35 35t66 15q55 0 81.5 -28t26.5 -61q0 -40 -31.5 -63.5t-70.5 -39.5l-7 -30h-70zM-2 -195q-23 0 -38 2l-15 2l20 98
l13.5 -1.5t29.5 -1.5q93 0 159 94l-88 532h113l60 -397l225 397h128l-311 -524q-62 -103 -135 -152t-161 -49z" />
    <glyph glyph-name="uni1EF8" unicode="&#x1ef8;" horiz-adv-x="629" 
d="M510 825q-27 0 -45 10.5t-32 24t-26 24t-26 10.5q-16 0 -25.5 -16.5t-14.5 -46.5h-69q12 59 35.5 98t74.5 39q27 0 45.5 -10t32 -23.5t25.5 -23.5t26 -10q16 0 25 16t14 46h68q-11 -59 -34.5 -98.5t-73.5 -39.5zM199 0l55 262l-157 478h119l114 -358l264 358h138
l-362 -481l-55 -259h-116z" />
    <glyph glyph-name="uni1EF9" unicode="&#x1ef9;" horiz-adv-x="575" 
d="M427 615q-26 0 -44 10.5t-32 24t-26 24t-26 10.5q-16 0 -25.5 -16.5t-15.5 -46.5h-68q12 59 35.5 98t74.5 39q27 0 45.5 -10t32 -23.5t25.5 -23.5t26 -10q16 0 25 16t14 46h68q-11 -59 -35 -98.5t-74 -39.5zM-2 -195q-23 0 -38 2l-15 2l20 98l13.5 -1.5t29.5 -1.5
q93 0 159 94l-88 532h113l60 -397l225 397h128l-311 -524q-62 -103 -135 -152t-161 -49z" />
    <glyph glyph-name="endash" unicode="&#x2013;" horiz-adv-x="681" 
d="M111 266l8 93h455l-8 -93h-455z" />
    <glyph glyph-name="emdash" unicode="&#x2014;" horiz-adv-x="862" 
d="M111 266l11 93h633l-10 -93h-634z" />
    <glyph glyph-name="quoteleft" unicode="&#x2018;" horiz-adv-x="231" 
d="M248 740l-75 -123q27 -2 45.5 -22t18.5 -49q0 -31 -21.5 -50.5t-50.5 -19.5q-31 0 -53 19.5t-22 53.5q0 31 23 70t74 111l7 10h54z" />
    <glyph glyph-name="quoteright" unicode="&#x2019;" horiz-adv-x="207" 
d="M96 486l76 123q-28 2 -46 22t-18 49q0 31 21 50.5t51 19.5q31 0 52.5 -19.5t21.5 -53.5q0 -30 -22.5 -69t-73.5 -112l-8 -10h-54z" />
    <glyph glyph-name="quotesinglbase" unicode="&#x201a;" horiz-adv-x="297" 
d="M7 -130l76 123q-28 2 -46 21.5t-18 48.5q0 32 21 51.5t51 19.5q31 0 52.5 -19.5t21.5 -53.5q0 -31 -22.5 -70t-73.5 -111l-8 -10h-54z" />
    <glyph glyph-name="quotedblleft" unicode="&#x201c;" horiz-adv-x="422" 
d="M248 740l-75 -123q27 -2 45.5 -22t18.5 -49q0 -31 -21.5 -50.5t-50.5 -19.5q-31 0 -53 19.5t-22 53.5q0 31 23 70t74 111l7 10h54zM439 740l-75 -123q28 -2 46 -22t18 -49q0 -31 -21.5 -50.5t-50.5 -19.5q-31 0 -52.5 19.5t-21.5 53.5q0 31 22.5 70t73.5 111l7 10h54z
" />
    <glyph glyph-name="quotedblright" unicode="&#x201d;" horiz-adv-x="398" 
d="M288 486l75 123q-28 2 -46 22t-18 49q0 31 21.5 50.5t50.5 19.5q31 0 52.5 -19.5t21.5 -53.5q0 -30 -22.5 -69t-73.5 -112l-7 -10h-54zM96 486l76 123q-28 2 -46 22t-18 49q0 31 21 50.5t51 19.5q31 0 52.5 -19.5t21.5 -53.5q0 -30 -22.5 -69t-73.5 -112l-8 -10h-54z" />
    <glyph glyph-name="quotedblbase" unicode="&#x201e;" horiz-adv-x="458" 
d="M199 -130l76 123q-28 2 -46 21.5t-18 48.5q0 32 21 51.5t51 19.5q31 0 52.5 -19.5t21.5 -53.5q0 -31 -22.5 -70t-73.5 -111l-8 -10h-54zM8 -130l76 123q-28 2 -46.5 21.5t-18.5 48.5q0 32 21.5 51.5t51.5 19.5q31 0 52.5 -19.5t21.5 -53.5q0 -31 -22.5 -70t-74.5 -111
l-7 -10h-54z" />
    <glyph glyph-name="dagger" unicode="&#x2020;" horiz-adv-x="672" 
d="M271 230l66 311h-181l19 84h180l35 165h99l-35 -165h181l-18 -84h-181l-66 -311h-99z" />
    <glyph glyph-name="daggerdbl" unicode="&#x2021;" horiz-adv-x="672" 
d="M271 230l29 135h-181l18 85h181l25 120h-180l17 85h181l29 135h99l-29 -135h181l-18 -85h-180l-26 -120h181l-19 -85h-180l-29 -135h-99z" />
    <glyph glyph-name="bullet" unicode="&#x2022;" horiz-adv-x="542" 
d="M290 227q-48 0 -84.5 22.5t-57.5 59.5t-21 81t21 81t57.5 58.5t84.5 21.5q46 0 82.5 -21.5t57.5 -58.5t21 -81q0 -45 -21 -82t-57.5 -59t-82.5 -22z" />
    <glyph glyph-name="ellipsis" unicode="&#x2026;" horiz-adv-x="772" 
d="M334 -10q-31 0 -51 21.5t-20 50.5q0 30 20 51t51 21t51.5 -21t20.5 -51t-20.5 -51t-51.5 -21zM585 -10q-31 0 -51.5 21.5t-20.5 50.5q0 30 20.5 51t51.5 21t51.5 -21t20.5 -51t-20.5 -51t-51.5 -21zM86 -10q-31 0 -51 21.5t-20 50.5q0 30 20 51t51 21t51.5 -21t20.5 -51
t-20.5 -51t-51.5 -21z" />
    <glyph glyph-name="perthousand" unicode="&#x2030;" horiz-adv-x="1201" 
d="M256 446q-46 0 -76.5 19.5t-45.5 50t-15 65.5q0 41 19.5 79.5t57.5 64t93 25.5q47 0 77.5 -19t45 -49.5t14.5 -65.5q0 -41 -19.5 -80t-57.5 -64.5t-93 -25.5zM124 0l555 740h95l-555 -740h-95zM261 513q30 0 50 15t30.5 37.5t10.5 45.5q0 28 -17 50.5t-52 22.5
q-29 0 -49.5 -15t-31 -37.5t-10.5 -45.5q0 -28 17 -50.5t52 -22.5zM960 -10q-47 0 -77.5 19.5t-45 50t-14.5 65.5q0 41 19 80t57 64.5t93 25.5q47 0 77 -19t45 -50t15 -65q0 -41 -19.5 -80t-57 -65t-92.5 -26zM616 -10q-46 0 -76.5 19.5t-45.5 50t-15 65.5q0 41 19.5 80
t57.5 64.5t93 25.5q46 0 76.5 -19t45.5 -50t15 -65q0 -41 -19.5 -80t-57.5 -65t-93 -26zM965 57q29 0 49.5 15t31 37.5t10.5 45.5q0 28 -17 50.5t-52 22.5q-30 0 -50 -15t-30.5 -37.5t-10.5 -45.5q0 -28 17 -50.5t52 -22.5zM621 57q29 0 49.5 15t31.5 37.5t11 45.5
q0 28 -17 50.5t-53 22.5q-29 0 -49.5 -15t-31 -37.5t-10.5 -45.5q0 -28 17 -50.5t52 -22.5z" />
    <glyph glyph-name="guilsinglleft" unicode="&#x2039;" horiz-adv-x="417" 
d="M431 528l-264 -224l153 -205h-113l-163 215l254 214h133z" />
    <glyph glyph-name="guilsinglright" unicode="&#x203a;" horiz-adv-x="417" 
d="M9 99l264 224l-153 205h113l163 -215l-255 -214h-132z" />
    <glyph glyph-name="fraction" unicode="&#x2044;" horiz-adv-x="522" 
d="M-12 0l452 700h100l-452 -700h-100z" />
    <glyph glyph-name="uni2070" unicode="&#x2070;" horiz-adv-x="452" 
d="M269 400q-54 0 -89 25.5t-52 67t-17 90.5q0 45 14 91t41.5 84.5t67.5 61.5t91 23q54 0 89 -25.5t52.5 -67.5t17.5 -91q0 -45 -14.5 -91t-42 -84t-67.5 -61t-91 -23zM273 482q35 0 60.5 28.5t40 70.5t14.5 82q0 39 -16 68t-51 29q-34 0 -59.5 -28.5t-40 -70.5t-14.5 -81
q0 -41 16 -69.5t50 -28.5z" />
    <glyph glyph-name="uni2074" unicode="&#x2074;" horiz-adv-x="463" 
d="M295 405l18 87l-213 1l18 82l236 263h127l-57 -266h66l-17 -80h-66l-19 -87h-93zM213 572h117l36 170z" />
    <glyph glyph-name="uni2075" unicode="&#x2075;" horiz-adv-x="458" 
d="M283 400q-50 0 -81.5 14t-48.5 35t-23.5 41.5t-7.5 34.5l-1 14h87l2 -9.5t8.5 -22t22 -22t42.5 -9.5q41 0 63.5 26.5t22.5 56.5q0 25 -17 46t-52 21q-28 0 -44 -10t-22.5 -20l-6.5 -10h-93l72 252h274l-17 -82h-199l-28 -97h2l9 9t28.5 18t50.5 9q45 0 75.5 -19t45.5 -49
t15 -64q0 -40 -20 -77t-59.5 -61.5t-99.5 -24.5z" />
    <glyph glyph-name="uni2076" unicode="&#x2076;" horiz-adv-x="464" 
d="M292 400q-82 0 -124.5 49t-42.5 123q0 48 18 96t53.5 88t88 63.5t121.5 23.5q37 0 60.5 -5l23.5 -5l-18 -83l-20.5 5t-51.5 5q-55 0 -97.5 -25t-65.5 -73q14 12 35 22t54 10q44 0 75 -19t47 -50t16 -67q0 -38 -19 -74.5t-57 -60t-96 -23.5zM291 477q38 0 58 25.5t20 54.5
q0 26 -16.5 47t-51.5 21q-38 0 -58.5 -25.5t-20.5 -54.5q0 -27 17.5 -47.5t51.5 -20.5z" />
    <glyph glyph-name="uni2077" unicode="&#x2077;" horiz-adv-x="416" 
d="M169 408q15 71 41 128.5t56.5 101t58 73.5t46.5 46h-214l17 84h324l-14 -68l-17.5 -16.5t-45 -47.5t-58 -76t-55.5 -101.5t-37 -123.5h-102z" />
    <glyph glyph-name="uni2078" unicode="&#x2078;" horiz-adv-x="457" 
d="M279 399q-83 0 -122.5 36.5t-39.5 82.5q0 34 23 69t79 50v3q-31 11 -47 34t-16 51q0 29 19 56.5t56 44.5t91 17q75 0 115 -33t40 -77q0 -31 -21.5 -60t-65.5 -43v-3q37 -15 54 -42t17 -55q0 -32 -20 -62t-60 -49.5t-102 -19.5zM313 666q35 0 53 17.5t18 38.5
q0 19 -16 34.5t-47 15.5q-35 0 -53 -18t-18 -38q0 -19 15.5 -34.5t47.5 -15.5zM284 475q40 0 60.5 20.5t20.5 44.5q0 22 -17 40t-53 18q-40 0 -60.5 -21t-20.5 -46q0 -22 17 -39t53 -17z" />
    <glyph glyph-name="uni2079" unicode="&#x2079;" horiz-adv-x="464" 
d="M435 852q83 0 125 -48.5t42 -122.5q0 -49 -18 -97t-53.5 -87.5t-88 -63.5t-121.5 -24q-37 0 -60.5 5l-23.5 5l18 83l20.5 -5t51.5 -5q55 0 97.5 25t65.5 74q-13 -13 -34.5 -23t-53.5 -10q-45 0 -75.5 19.5t-47 50.5t-16.5 66q0 38 19 74.5t57.5 60t95.5 23.5zM436 775
q-38 0 -58 -25t-20 -54q0 -27 16.5 -48t51.5 -21q39 0 59 26t20 54q0 27 -17 47.5t-52 20.5z" />
    <glyph glyph-name="uni2080" unicode="&#x2080;" horiz-adv-x="452" 
d="M138 -215q-54 0 -89 25.5t-52 67t-17 90.5q0 45 14 91t41.5 84.5t67.5 61.5t91 23q54 0 89 -25.5t52.5 -67.5t17.5 -91q0 -45 -14.5 -91t-42 -84t-67.5 -61t-91 -23zM142 -133q35 0 60.5 28.5t40 70.5t14.5 82q0 39 -16 68t-51 29q-34 0 -59.5 -28.5t-40 -70.5t-14.5 -81
q0 -41 16 -69.5t50 -28.5z" />
    <glyph glyph-name="uni2081" unicode="&#x2081;" horiz-adv-x="312" 
d="M198 223l-93 -433h-93l65 307h-84l12 56l14 4q38 11 64.5 25t53.5 36l6 5h55z" />
    <glyph glyph-name="uni2082" unicode="&#x2082;" horiz-adv-x="445" 
d="M-26 -210l14 65l117 82q63 43 102.5 79t39.5 75q0 25 -17 40.5t-45 15.5q-26 0 -40.5 -10.5t-21.5 -24.5t-8.5 -24.5l-1.5 -10.5h-91l2 15.5t10.5 38t26 45t49 37.5t79.5 15q75 0 114.5 -38.5t39.5 -91.5q0 -45 -26 -81t-68 -67t-87 -60l-26 -18h184l-17 -82h-329z" />
    <glyph glyph-name="uni2083" unicode="&#x2083;" horiz-adv-x="430" 
d="M146 -215q-51 0 -83 14t-49 34.5t-23.5 41t-7.5 34.5l-1 14h90l1.5 -9t8 -21t22.5 -21.5t45 -9.5q40 0 59.5 19.5t19.5 42.5q0 22 -19 36t-48 14h-57l16 72h60q34 0 52.5 16.5t18.5 38.5q0 21 -16 36t-47 15q-26 0 -41 -9.5t-22.5 -21.5t-9.5 -21.5l-2 -9.5h-85l2 14
t10.5 34.5t26 41t48.5 34.5t78 14q74 0 112.5 -34.5t38.5 -78.5q0 -36 -24.5 -64.5t-62.5 -38.5l-1 -4q27 -11 47.5 -34.5t20.5 -56.5q0 -32 -19.5 -62t-59 -50t-99.5 -20z" />
    <glyph glyph-name="uni2084" unicode="&#x2084;" horiz-adv-x="473" 
d="M164 -210l18 87l-213 1l18 82l236 263h127l-57 -266h66l-17 -80h-66l-19 -87h-93zM82 -43h117l36 170z" />
    <glyph glyph-name="uni2085" unicode="&#x2085;" horiz-adv-x="458" 
d="M152 -215q-50 0 -81.5 14t-48.5 35t-23.5 41.5t-7.5 34.5l-1 14h87l2 -9.5t8.5 -22t22 -22t42.5 -9.5q41 0 63.5 26.5t22.5 56.5q0 25 -17 46t-52 21q-28 0 -44 -10t-22.5 -20l-6.5 -10h-93l72 252h274l-17 -82h-199l-28 -97h2l9 9t28.5 18t50.5 9q45 0 75.5 -19
t45.5 -49t15 -64q0 -40 -20 -77t-59.5 -61.5t-99.5 -24.5z" />
    <glyph glyph-name="uni2086" unicode="&#x2086;" horiz-adv-x="464" 
d="M161 -215q-82 0 -124.5 49t-42.5 123q0 48 18 96t53.5 88t88 63.5t121.5 23.5q37 0 60.5 -5l23.5 -5l-18 -83l-20.5 5t-51.5 5q-55 0 -97.5 -25t-65.5 -73q14 12 35 22t54 10q44 0 75 -19t47 -50t16 -67q0 -38 -19 -74.5t-57 -60t-96 -23.5zM160 -138q38 0 58 25.5
t20 54.5q0 26 -16.5 47t-51.5 21q-38 0 -58.5 -25.5t-20.5 -54.5q0 -27 17.5 -47.5t51.5 -20.5z" />
    <glyph glyph-name="uni2087" unicode="&#x2087;" horiz-adv-x="392" 
d="M14 -210q15 72 41 129t56.5 101t58 74t46.5 46h-214l17 83h324l-14 -67l-17.5 -16.5t-45 -48t-58 -76t-55.5 -101t-37 -124.5h-102z" />
    <glyph glyph-name="uni2088" unicode="&#x2088;" horiz-adv-x="426" 
d="M137 -216q-83 0 -122.5 36.5t-39.5 82.5q0 34 23.5 69t78.5 50v3q-31 11 -47 34t-16 51q0 29 19 56.5t56 44.5t91 17q75 0 115 -33t40 -77q0 -31 -21 -60t-66 -43v-3q37 -15 54 -42t17 -55q0 -32 -19.5 -62t-60 -49.5t-102.5 -19.5zM171 51q35 0 53 17.5t18 38.5
q0 19 -15.5 34.5t-47.5 15.5q-35 0 -53 -18t-18 -38q0 -19 15.5 -34.5t47.5 -15.5zM142 -140q40 0 61 20.5t21 44.5q0 22 -17.5 40t-52.5 18q-40 0 -61 -21t-21 -46q0 -22 17 -39t53 -17z" />
    <glyph glyph-name="uni2089" unicode="&#x2089;" horiz-adv-x="464" 
d="M303 231q83 0 125 -49t42 -123q0 -48 -18 -96.5t-53.5 -88t-88 -63.5t-121.5 -24q-37 0 -60.5 5.5l-23.5 5.5l18 83l20.5 -5.5t51.5 -5.5q55 0 97.5 25.5t65.5 73.5q-13 -13 -34.5 -22.5t-53.5 -9.5q-45 0 -75.5 19t-47 50t-16.5 67q0 38 19 74t57.5 60t95.5 24zM304 153
q-38 0 -58 -25t-20 -54q0 -26 16.5 -47t51.5 -21q39 0 59 25.5t20 54.5q0 26 -17 46.5t-52 20.5z" />
    <glyph glyph-name="dong" unicode="&#x20ab;" horiz-adv-x="606" 
d="M213 136q-51 0 -85 23.5t-51 62.5t-17 84q0 41 13.5 82t40 75t65 54.5t88.5 20.5q41 0 66 -12.5t38.5 -28.5t17.5 -26h5l21 94h-97l14 70h98l13 65h102l-14 -65h68l-14 -70h-68l-90 -422h-102l10 49h-5l-12 -14t-37.5 -28t-67.5 -14zM162 313q0 -38 20.5 -66.5
t63.5 -28.5q38 0 65.5 22.5t42 55.5t14.5 65q0 38 -20.5 66.5t-64.5 28.5q-38 0 -65 -22t-41.5 -55t-14.5 -66zM-4 0l14 68h504l-14 -68h-504z" />
    <glyph glyph-name="Euro" unicode="&#x20ac;" horiz-adv-x="744" 
d="M27 264l16 73h112q1 34 6 67h-104l16 73h107q27 74 79.5 136t132 99.5t183.5 37.5q48 0 86 -5.5t60 -11l22 -5.5l-22 -103l-20.5 5.5t-53.5 11t-71 5.5q-68 0 -121.5 -22.5t-91.5 -61t-60 -86.5h248l-15 -73h-257q-6 -32 -6 -64v-3h249l-16 -73h-223q12 -48 41.5 -87
t76 -62t110.5 -23q38 0 73.5 6.5t59 12.5l23.5 6l-23 -104l-19 -5.5t-53 -11.5t-79 -6q-99 0 -168.5 37.5t-110.5 99.5t-53 137h-134z" />
    <glyph glyph-name="trademark" unicode="&#x2122;" horiz-adv-x="835" 
d="M414 390l74 350h103l41 -174l118 174h109l-74 -350h-80l49 231l-103 -151h-71l-38 153l-49 -233h-79zM170 390l59 280h-108l15 70h295l-15 -70h-107l-59 -280h-80z" />
    <glyph glyph-name="oneeighth" unicode="&#x215b;" horiz-adv-x="916" 
d="M289 713l-75 -355h-88l51 243h-69l12 54l10 3q34 9 58 20.5t46 30.5l4 4h51zM169 0l451 700h101l-453 -700h-99zM741 -5q-71 0 -104 29.5t-33 68.5q0 26 18 54.5t65 42.5v3q-26 9 -38.5 28t-12.5 41q0 37 35.5 67.5t103.5 30.5q64 0 97.5 -28t33.5 -63q0 -24 -17.5 -48
t-54.5 -37v-2q31 -13 45 -35t14 -46q0 -26 -16.5 -50.5t-50.5 -40t-85 -15.5zM768 216q26 0 40 13.5t14 29.5q0 14 -12 25.5t-36 11.5q-27 0 -40.5 -13.5t-13.5 -28.5q0 -14 12 -26t36 -12zM744 62q31 0 47 15.5t16 34.5q0 17 -13.5 30.5t-40.5 13.5q-30 0 -46 -16.5
t-16 -34.5q0 -16 13 -29.5t40 -13.5z" />
    <glyph glyph-name="threeeighths" unicode="&#x215c;" horiz-adv-x="1002" 
d="M222 353q-44 0 -70.5 11.5t-41 28.5t-20 34t-6 29l-0.5 12h83l2.5 -11t14.5 -22t41 -11q31 0 44.5 14.5t13.5 30.5q0 15 -13 25.5t-36 10.5h-48l14 67h51q26 0 39 12t13 28q0 13 -11.5 24t-35.5 11q-26 0 -38.5 -11.5t-15.5 -22.5l-3 -11h-80l3.5 17.5t17 40.5t42 40.5
t79.5 17.5q63 0 95.5 -29.5t32.5 -64.5q0 -30 -21 -53t-52 -31l-1 -3q25 -10 41 -29t16 -46q0 -26 -16.5 -51t-50 -41.5t-83.5 -16.5zM281 0l451 700h101l-453 -700h-99zM853 -5q-71 0 -104 29.5t-33 68.5q0 26 18 54.5t65 42.5v3q-26 9 -38.5 28t-12.5 41q0 37 35.5 67.5
t103.5 30.5q64 0 97.5 -28t33.5 -63q0 -24 -17.5 -48t-54.5 -37v-2q31 -13 45 -35t14 -46q0 -26 -16.5 -50.5t-50.5 -40t-85 -15.5zM880 216q26 0 40 13.5t14 29.5q0 14 -12 25.5t-36 11.5q-27 0 -40.5 -13.5t-13.5 -28.5q0 -14 12 -26t36 -12zM856 62q31 0 47 15.5t16 34.5
q0 17 -13.5 30.5t-40.5 13.5q-30 0 -46 -16.5t-16 -34.5q0 -16 13 -29.5t40 -13.5z" />
    <glyph glyph-name="fiveeighths" unicode="&#x215d;" horiz-adv-x="926" 
d="M169 353q-41 0 -67 12t-40 29t-19.5 34.5t-6.5 29.5l-1 12h79l3 -12t15.5 -23.5t39.5 -11.5q31 0 47 19.5t16 41.5q0 18 -12.5 33t-38.5 15q-20 0 -32 -7t-17 -14l-5 -7h-86l61 209h231l-17 -74h-162l-21 -73h3l6.5 7.5t22 15t41.5 7.5q56 0 84 -33.5t28 -75.5
q0 -32 -16.5 -62.5t-50.5 -51t-85 -20.5zM215 0l451 700h101l-453 -700h-99zM787 -5q-71 0 -104 29.5t-33 68.5q0 26 18 54.5t65 42.5v3q-26 9 -38.5 28t-12.5 41q0 37 35.5 67.5t103.5 30.5q64 0 97.5 -28t33.5 -63q0 -24 -17.5 -48t-54.5 -37v-2q31 -13 45 -35t14 -46
q0 -26 -16.5 -50.5t-50.5 -40t-85 -15.5zM814 216q26 0 40 13.5t14 29.5q0 14 -12 25.5t-36 11.5q-27 0 -40.5 -13.5t-13.5 -28.5q0 -14 12 -26t36 -12zM790 62q31 0 47 15.5t16 34.5q0 17 -13.5 30.5t-40.5 13.5q-30 0 -46 -16.5t-16 -34.5q0 -16 13 -29.5t40 -13.5z" />
    <glyph glyph-name="seveneighths" unicode="&#x215e;" horiz-adv-x="894" 
d="M121 358q16 79 46.5 135.5t62 92.5t51.5 53h-171l15 74h269l-12 -62l-21.5 -19t-51 -56.5t-56.5 -92.5t-40 -125h-92zM211 0l451 700h101l-453 -700h-99zM783 -5q-71 0 -104 29.5t-33 68.5q0 26 18 54.5t65 42.5v3q-26 9 -38.5 28t-12.5 41q0 37 35.5 67.5t103.5 30.5
q64 0 97.5 -28t33.5 -63q0 -24 -17.5 -48t-54.5 -37v-2q31 -13 45 -35t14 -46q0 -26 -16.5 -50.5t-50.5 -40t-85 -15.5zM810 216q26 0 40 13.5t14 29.5q0 14 -12 25.5t-36 11.5q-27 0 -40.5 -13.5t-13.5 -28.5q0 -14 12 -26t36 -12zM786 62q31 0 47 15.5t16 34.5
q0 17 -13.5 30.5t-40.5 13.5q-30 0 -46 -16.5t-16 -34.5q0 -16 13 -29.5t40 -13.5z" />
    <glyph glyph-name="minus" unicode="&#x2212;" horiz-adv-x="621" 
d="M97 262l21 100h410l-22 -100h-409z" />
    <glyph glyph-name="uni2215" unicode="&#x2215;" horiz-adv-x="501" 
d="M63 0l346 700h65l-346 -700h-65z" />
    <glyph glyph-name="approxequal" unicode="&#x2248;" horiz-adv-x="566" 
d="M354 375q-26 0 -44 10.5t-31.5 24.5t-25.5 24.5t-27 10.5q-16 0 -25.5 -16.5t-15.5 -47.5h-63q7 35 18.5 65.5t32.5 49t55 18.5q26 0 44 -10.5t31.5 -24.5t25.5 -24.5t26 -10.5q16 0 25.5 17.5t14.5 47.5h63q-6 -35 -18 -65.5t-32.5 -49.5t-53.5 -19zM354 161
q-26 0 -44 10.5t-31.5 24.5t-25.5 24.5t-27 10.5q-16 0 -25.5 -17t-15.5 -47h-63q7 35 18.5 65t32.5 48.5t55 18.5q26 0 44 -10.5t31.5 -24t25.5 -24t26 -10.5q16 0 25.5 17t14.5 47h63q-6 -34 -18 -64.5t-32.5 -49.5t-53.5 -19z" />
    <glyph glyph-name="notequal" unicode="&#x2260;" horiz-adv-x="712" 
d="M68 0l115 148h-110l20 96h165l99 127h-237l21 96h291l115 149h101l-116 -149h109l-21 -96h-163l-99 -127h235l-20 -96h-290l-115 -148h-100z" />
    <glyph glyph-name="lessequal" unicode="&#x2264;" horiz-adv-x="578" 
d="M465 164l-373 158l15 68l439 159l-20 -99l-300 -100l258 -99zM27 0l15 69h419l-15 -69h-419z" />
    <glyph glyph-name="greaterequal" unicode="&#x2265;" horiz-adv-x="574" 
d="M79 164l20 99l300 100l-258 99l19 87l373 -159l-15 -68zM37 0l14 69h420l-15 -69h-419z" />
    <glyph glyph-name="i.loclTRK" horiz-adv-x="269" 
d="M216 617q-32 0 -52 21t-20 49q0 29 20 49.5t52 20.5q30 0 50.5 -20.5t20.5 -49.5t-20.5 -49.5t-50.5 -20.5zM12 0l113 530h115l-113 -530h-115z" />
    <glyph glyph-name="a.ss01" horiz-adv-x="578" 
d="M347 63q-3 -4 -19.5 -21.5t-50 -34.5t-86.5 -17q-77 0 -120.5 41.5t-43.5 104.5q0 44 22.5 81.5t70.5 62t123 27.5l165 8l4 19q6 27 0.5 53.5t-28 44t-67.5 17.5q-39 0 -62.5 -12.5t-36 -28.5t-16.5 -28.5l-4 -12.5h-109l5.5 17.5t19.5 43t40 51.5t67 43.5t101 17.5
q77 0 126 -31t67.5 -81.5t6.5 -107.5l-68 -320h-113l14 63h-8zM140 145q0 -37 27.5 -53.5t61.5 -16.5q57 0 101.5 37.5t56.5 99.5l5 22l-140 -7q-56 -3 -84 -25t-28 -57z" />
    <glyph glyph-name="aacute.ss01" horiz-adv-x="578" 
d="M405 608l-89 1l90 180h110zM345 63q-2 -4 -19 -21.5t-50.5 -34.5t-85.5 -17q-78 0 -121.5 41.5t-43.5 104.5q0 44 23 81.5t70.5 62t123.5 27.5l164 8l4 19q6 27 0.5 53.5t-27.5 44t-68 17.5q-39 0 -62.5 -12.5t-35.5 -28.5t-16 -28.5l-4 -12.5h-109l5 17.5t19 43t40 51.5
t67.5 43.5t101.5 17.5q77 0 125.5 -31t67.5 -81.5t7 -107.5l-68 -320h-114l14 63h-8zM138 145q0 -37 27.5 -53.5t62.5 -16.5q56 0 100.5 37.5t57.5 99.5l4 22l-139 -7q-57 -3 -85 -25t-28 -57z" />
    <glyph glyph-name="abreve.ss01" horiz-adv-x="578" 
d="M366 602q-51 0 -81 16t-44.5 40t-18.5 47.5t-3.5 39.5l0.5 16h81l-1 -13t3.5 -30t19 -30t45.5 -13q32 0 52.5 13t32 30t16 30l4.5 13h81l-3.5 -16t-14 -39.5t-31 -47.5t-54.5 -40t-84 -16zM345 63q-2 -4 -19 -21.5t-50.5 -34.5t-85.5 -17q-78 0 -121.5 41.5t-43.5 104.5
q0 44 23 81.5t70.5 62t123.5 27.5l164 8l4 19q6 27 0.5 53.5t-27.5 44t-68 17.5q-39 0 -62.5 -12.5t-35.5 -28.5t-16 -28.5l-4 -12.5h-109l5 17.5t19 43t40 51.5t67.5 43.5t101.5 17.5q77 0 125.5 -31t67.5 -81.5t7 -107.5l-68 -320h-114l14 63h-8zM138 145
q0 -37 27.5 -53.5t62.5 -16.5q56 0 100.5 37.5t57.5 99.5l4 22l-139 -7q-57 -3 -85 -25t-28 -57z" />
    <glyph glyph-name="uni1EAF.ss01" horiz-adv-x="578" 
d="M442 778l-89 1l89 180h110zM366 602q-49 0 -78.5 15t-44.5 37t-20.5 44t-6 36.5l-0.5 14.5h81l-0.5 -11.5t4.5 -26.5t20 -26.5t46 -11.5t51 11.5t31 26.5t15.5 26.5l4.5 11.5h81l-4 -14.5t-15 -36.5t-31.5 -44t-53 -37t-80.5 -15zM345 63q-2 -4 -19 -21.5t-50.5 -34.5
t-85.5 -17q-78 0 -121.5 41.5t-43.5 104.5q0 44 23 81.5t70.5 62t123.5 27.5l164 8l4 19q6 27 0.5 53.5t-27.5 44t-68 17.5q-39 0 -62.5 -12.5t-35.5 -28.5t-16 -28.5l-4 -12.5h-109l5 17.5t19 43t40 51.5t67.5 43.5t101.5 17.5q77 0 125.5 -31t67.5 -81.5t7 -107.5
l-68 -320h-114l14 63h-8zM138 145q0 -37 27.5 -53.5t62.5 -16.5q56 0 100.5 37.5t57.5 99.5l4 22l-139 -7q-57 -3 -85 -25t-28 -57z" />
    <glyph glyph-name="uni1EB7.ss01" horiz-adv-x="578" 
d="M366 602q-51 0 -81 16t-44.5 40t-18.5 47.5t-3.5 39.5l0.5 16h81l-1 -13t3.5 -30t19 -30t45.5 -13q32 0 52.5 13t32 30t16 30l4.5 13h81l-3.5 -16t-14 -39.5t-31 -47.5t-54.5 -40t-84 -16zM345 63q-2 -4 -19 -21.5t-50.5 -34.5t-85.5 -17q-78 0 -121.5 41.5t-43.5 104.5
q0 44 23 81.5t70.5 62t123.5 27.5l164 8l4 19q6 27 0.5 53.5t-27.5 44t-68 17.5q-39 0 -62.5 -12.5t-35.5 -28.5t-16 -28.5l-4 -12.5h-109l5 17.5t19 43t40 51.5t67.5 43.5t101.5 17.5q77 0 125.5 -31t67.5 -81.5t7 -107.5l-68 -320h-114l14 63h-8zM138 145
q0 -37 27.5 -53.5t62.5 -16.5q56 0 100.5 37.5t57.5 99.5l4 22l-139 -7q-57 -3 -85 -25t-28 -57zM193 -234q-31 0 -50.5 21t-19.5 49q0 29 19.5 49.5t50.5 20.5q30 0 50 -20.5t20 -49.5t-20 -49.5t-50 -20.5z" />
    <glyph glyph-name="uni1EB1.ss01" horiz-adv-x="578" 
d="M336 778l-87 181h108l66 -180zM366 602q-49 0 -78.5 15t-44.5 37t-20.5 44t-6 36.5l-0.5 14.5h81l-0.5 -11.5t4.5 -26.5t20 -26.5t46 -11.5t51 11.5t31 26.5t15.5 26.5l4.5 11.5h81l-4 -14.5t-15 -36.5t-31.5 -44t-53 -37t-80.5 -15zM345 63q-2 -4 -19 -21.5t-50.5 -34.5
t-85.5 -17q-78 0 -121.5 41.5t-43.5 104.5q0 44 23 81.5t70.5 62t123.5 27.5l164 8l4 19q6 27 0.5 53.5t-27.5 44t-68 17.5q-39 0 -62.5 -12.5t-35.5 -28.5t-16 -28.5l-4 -12.5h-109l5 17.5t19 43t40 51.5t67.5 43.5t101.5 17.5q77 0 125.5 -31t67.5 -81.5t7 -107.5
l-68 -320h-114l14 63h-8zM138 145q0 -37 27.5 -53.5t62.5 -16.5q56 0 100.5 37.5t57.5 99.5l4 22l-139 -7q-57 -3 -85 -25t-28 -57z" />
    <glyph glyph-name="uni1EB3.ss01" horiz-adv-x="578" 
d="M348 764l7 33q4 25 28 35l16 8q27 12 41 25t14 30q0 12 -9.5 22t-29.5 10q-23 0 -33 -10t-12.5 -20.5l-2.5 -10.5h-66l3 15t14 35t34.5 35.5t66.5 15.5q55 0 81 -28t26 -62q0 -39 -31.5 -62.5t-70.5 -40.5l-6 -30h-70zM366 602q-49 0 -78.5 15t-44.5 37t-20.5 44t-6 36.5
l-0.5 14.5h81l-0.5 -11.5t4.5 -26.5t20 -26.5t46 -11.5t51 11.5t31 26.5t15.5 26.5l4.5 11.5h81l-4 -14.5t-15 -36.5t-31.5 -44t-53 -37t-80.5 -15zM345 63q-2 -4 -19 -21.5t-50.5 -34.5t-85.5 -17q-78 0 -121.5 41.5t-43.5 104.5q0 44 23 81.5t70.5 62t123.5 27.5l164 8
l4 19q6 27 0.5 53.5t-27.5 44t-68 17.5q-39 0 -62.5 -12.5t-35.5 -28.5t-16 -28.5l-4 -12.5h-109l5 17.5t19 43t40 51.5t67.5 43.5t101.5 17.5q77 0 125.5 -31t67.5 -81.5t7 -107.5l-68 -320h-114l14 63h-8zM138 145q0 -37 27.5 -53.5t62.5 -16.5q56 0 100.5 37.5t57.5 99.5
l4 22l-139 -7q-57 -3 -85 -25t-28 -57z" />
    <glyph glyph-name="uni1EB5.ss01" horiz-adv-x="578" 
d="M471 794q-26 0 -44.5 10.5t-32 24t-26 23.5t-26.5 10q-15 0 -25 -16.5t-15 -45.5h-68q11 58 35 97t74 39q27 0 45.5 -10t32.5 -23t26 -23.5t25 -10.5q16 0 25 16t15 46h68q-12 -58 -35.5 -97.5t-73.5 -39.5zM366 602q-49 0 -78.5 15t-44.5 37t-20.5 44t-6 36.5l-0.5 14.5
h81l-0.5 -11.5t4.5 -26.5t20 -26.5t46 -11.5t51 11.5t31 26.5t15.5 26.5l4.5 11.5h81l-4 -14.5t-15 -36.5t-31.5 -44t-53 -37t-80.5 -15zM345 63q-2 -4 -19 -21.5t-50.5 -34.5t-85.5 -17q-78 0 -121.5 41.5t-43.5 104.5q0 44 23 81.5t70.5 62t123.5 27.5l164 8l4 19
q6 27 0.5 53.5t-27.5 44t-68 17.5q-39 0 -62.5 -12.5t-35.5 -28.5t-16 -28.5l-4 -12.5h-109l5 17.5t19 43t40 51.5t67.5 43.5t101.5 17.5q77 0 125.5 -31t67.5 -81.5t7 -107.5l-68 -320h-114l14 63h-8zM138 145q0 -37 27.5 -53.5t62.5 -16.5q56 0 100.5 37.5t57.5 99.5l4 22
l-139 -7q-57 -3 -85 -25t-28 -57z" />
    <glyph glyph-name="acircumflex.ss01" horiz-adv-x="578" 
d="M182 603l159 171h95l87 -171h-90l-52 106l-96 -106h-103zM345 63q-2 -4 -19 -21.5t-50.5 -34.5t-85.5 -17q-78 0 -121.5 41.5t-43.5 104.5q0 44 23 81.5t70.5 62t123.5 27.5l164 8l4 19q6 27 0.5 53.5t-27.5 44t-68 17.5q-39 0 -62.5 -12.5t-35.5 -28.5t-16 -28.5
l-4 -12.5h-109l5 17.5t19 43t40 51.5t67.5 43.5t101.5 17.5q77 0 125.5 -31t67.5 -81.5t7 -107.5l-68 -320h-114l14 63h-8zM138 145q0 -37 27.5 -53.5t62.5 -16.5q56 0 100.5 37.5t57.5 99.5l4 22l-139 -7q-57 -3 -85 -25t-28 -57z" />
    <glyph glyph-name="uni1EA5.ss01" horiz-adv-x="578" 
d="M593 731l-89 1l90 180h110zM180 603l156 149h94l92 -149h-90l-56 92l-92 -92h-104zM345 63q-2 -4 -19 -21.5t-50.5 -34.5t-85.5 -17q-78 0 -121.5 41.5t-43.5 104.5q0 44 23 81.5t70.5 62t123.5 27.5l164 8l4 19q6 27 0.5 53.5t-27.5 44t-68 17.5q-39 0 -62.5 -12.5
t-35.5 -28.5t-16 -28.5l-4 -12.5h-109l5 17.5t19 43t40 51.5t67.5 43.5t101.5 17.5q77 0 125.5 -31t67.5 -81.5t7 -107.5l-68 -320h-114l14 63h-8zM138 145q0 -37 27.5 -53.5t62.5 -16.5q56 0 100.5 37.5t57.5 99.5l4 22l-139 -7q-57 -3 -85 -25t-28 -57z" />
    <glyph glyph-name="uni1EAD.ss01" horiz-adv-x="578" 
d="M182 603l159 171h95l87 -171h-90l-52 106l-96 -106h-103zM345 63q-2 -4 -19 -21.5t-50.5 -34.5t-85.5 -17q-78 0 -121.5 41.5t-43.5 104.5q0 44 23 81.5t70.5 62t123.5 27.5l164 8l4 19q6 27 0.5 53.5t-27.5 44t-68 17.5q-39 0 -62.5 -12.5t-35.5 -28.5t-16 -28.5
l-4 -12.5h-109l5 17.5t19 43t40 51.5t67.5 43.5t101.5 17.5q77 0 125.5 -31t67.5 -81.5t7 -107.5l-68 -320h-114l14 63h-8zM138 145q0 -37 27.5 -53.5t62.5 -16.5q56 0 100.5 37.5t57.5 99.5l4 22l-139 -7q-57 -3 -85 -25t-28 -57zM193 -234q-31 0 -50.5 21t-19.5 49
q0 29 19.5 49.5t50.5 20.5q30 0 50 -20.5t20 -49.5t-20 -49.5t-50 -20.5z" />
    <glyph glyph-name="uni1EA7.ss01" horiz-adv-x="578" 
d="M510 731l-87 181h108l66 -180zM180 603l156 149h94l92 -149h-90l-56 92l-92 -92h-104zM345 63q-2 -4 -19 -21.5t-50.5 -34.5t-85.5 -17q-78 0 -121.5 41.5t-43.5 104.5q0 44 23 81.5t70.5 62t123.5 27.5l164 8l4 19q6 27 0.5 53.5t-27.5 44t-68 17.5q-39 0 -62.5 -12.5
t-35.5 -28.5t-16 -28.5l-4 -12.5h-109l5 17.5t19 43t40 51.5t67.5 43.5t101.5 17.5q77 0 125.5 -31t67.5 -81.5t7 -107.5l-68 -320h-114l14 63h-8zM138 145q0 -37 27.5 -53.5t62.5 -16.5q56 0 100.5 37.5t57.5 99.5l4 22l-139 -7q-57 -3 -85 -25t-28 -57z" />
    <glyph glyph-name="uni1EA9.ss01" horiz-adv-x="578" 
d="M491 715l7 33q5 25 28 35l16 8q28 12 42 25t14 30q0 12 -9.5 22t-29.5 10q-23 0 -33 -10t-12.5 -20.5l-2.5 -10.5h-67l3 15t14 35t35 35.5t66 15.5q55 0 81.5 -28t26.5 -62q0 -39 -31.5 -62.5t-70.5 -40.5l-7 -30h-70zM172 603l156 149h94l92 -149h-90l-56 92l-92 -92
h-104zM345 63q-2 -4 -19 -21.5t-50.5 -34.5t-85.5 -17q-78 0 -121.5 41.5t-43.5 104.5q0 44 23 81.5t70.5 62t123.5 27.5l164 8l4 19q6 27 0.5 53.5t-27.5 44t-68 17.5q-39 0 -62.5 -12.5t-35.5 -28.5t-16 -28.5l-4 -12.5h-109l5 17.5t19 43t40 51.5t67.5 43.5t101.5 17.5
q77 0 125.5 -31t67.5 -81.5t7 -107.5l-68 -320h-114l14 63h-8zM138 145q0 -37 27.5 -53.5t62.5 -16.5q56 0 100.5 37.5t57.5 99.5l4 22l-139 -7q-57 -3 -85 -25t-28 -57z" />
    <glyph glyph-name="uni1EAB.ss01" horiz-adv-x="578" 
d="M460 789q-26 0 -44.5 10.5t-32 24t-26 24t-26.5 10.5q-15 0 -25 -16.5t-15 -46.5h-68q11 59 35 98t74 39q27 0 45.5 -10t32.5 -23.5t26 -23.5t25 -10q16 0 25 16t15 46h68q-12 -59 -35.5 -98.5t-73.5 -39.5zM172 603l156 149h94l92 -149h-90l-56 92l-92 -92h-104zM345 63
q-2 -4 -19 -21.5t-50.5 -34.5t-85.5 -17q-78 0 -121.5 41.5t-43.5 104.5q0 44 23 81.5t70.5 62t123.5 27.5l164 8l4 19q6 27 0.5 53.5t-27.5 44t-68 17.5q-39 0 -62.5 -12.5t-35.5 -28.5t-16 -28.5l-4 -12.5h-109l5 17.5t19 43t40 51.5t67.5 43.5t101.5 17.5q77 0 125.5 -31
t67.5 -81.5t7 -107.5l-68 -320h-114l14 63h-8zM138 145q0 -37 27.5 -53.5t62.5 -16.5q56 0 100.5 37.5t57.5 99.5l4 22l-139 -7q-57 -3 -85 -25t-28 -57z" />
    <glyph glyph-name="adieresis.ss01" horiz-adv-x="578" 
d="M468 604q-31 0 -50.5 20.5t-19.5 48.5q0 29 19.5 49t50.5 20q30 0 50 -20t20 -49t-20 -49t-50 -20zM266 604q-31 0 -50.5 20.5t-19.5 48.5q0 29 19.5 49t50.5 20q30 0 50 -20t20 -49t-20 -49t-50 -20zM345 63q-2 -4 -19 -21.5t-50.5 -34.5t-85.5 -17q-78 0 -121.5 41.5
t-43.5 104.5q0 44 23 81.5t70.5 62t123.5 27.5l164 8l4 19q6 27 0.5 53.5t-27.5 44t-68 17.5q-39 0 -62.5 -12.5t-35.5 -28.5t-16 -28.5l-4 -12.5h-109l5 17.5t19 43t40 51.5t67.5 43.5t101.5 17.5q77 0 125.5 -31t67.5 -81.5t7 -107.5l-68 -320h-114l14 63h-8zM138 145
q0 -37 27.5 -53.5t62.5 -16.5q56 0 100.5 37.5t57.5 99.5l4 22l-139 -7q-57 -3 -85 -25t-28 -57z" />
    <glyph glyph-name="uni1EA1.ss01" horiz-adv-x="578" 
d="M345 63q-2 -4 -19 -21.5t-50.5 -34.5t-85.5 -17q-78 0 -121.5 41.5t-43.5 104.5q0 44 23 81.5t70.5 62t123.5 27.5l164 8l4 19q6 27 0.5 53.5t-27.5 44t-68 17.5q-39 0 -62.5 -12.5t-35.5 -28.5t-16 -28.5l-4 -12.5h-109l5 17.5t19 43t40 51.5t67.5 43.5t101.5 17.5
q77 0 125.5 -31t67.5 -81.5t7 -107.5l-68 -320h-114l14 63h-8zM138 145q0 -37 27.5 -53.5t62.5 -16.5q56 0 100.5 37.5t57.5 99.5l4 22l-139 -7q-57 -3 -85 -25t-28 -57zM193 -234q-31 0 -50.5 21t-19.5 49q0 29 19.5 49.5t50.5 20.5q30 0 50 -20.5t20 -49.5t-20 -49.5
t-50 -20.5z" />
    <glyph glyph-name="agrave.ss01" horiz-adv-x="578" 
d="M300 608l-87 181h107l67 -180zM345 63q-2 -4 -19 -21.5t-50.5 -34.5t-85.5 -17q-78 0 -121.5 41.5t-43.5 104.5q0 44 23 81.5t70.5 62t123.5 27.5l164 8l4 19q6 27 0.5 53.5t-27.5 44t-68 17.5q-39 0 -62.5 -12.5t-35.5 -28.5t-16 -28.5l-4 -12.5h-109l5 17.5t19 43
t40 51.5t67.5 43.5t101.5 17.5q77 0 125.5 -31t67.5 -81.5t7 -107.5l-68 -320h-114l14 63h-8zM138 145q0 -37 27.5 -53.5t62.5 -16.5q56 0 100.5 37.5t57.5 99.5l4 22l-139 -7q-57 -3 -85 -25t-28 -57z" />
    <glyph glyph-name="uni1EA3.ss01" horiz-adv-x="578" 
d="M311 594l7 33q5 24 29 35l15 7q28 13 42 26t14 29q0 12 -9.5 22.5t-29.5 10.5q-23 0 -33 -10.5t-12.5 -21l-2.5 -10.5h-66l2.5 15.5t13.5 35.5t35 35t66 15q55 0 81.5 -28t26.5 -61q0 -40 -31.5 -63.5t-70.5 -39.5l-7 -30h-70zM345 63q-2 -4 -19 -21.5t-50.5 -34.5
t-85.5 -17q-78 0 -121.5 41.5t-43.5 104.5q0 44 23 81.5t70.5 62t123.5 27.5l164 8l4 19q6 27 0.5 53.5t-27.5 44t-68 17.5q-39 0 -62.5 -12.5t-35.5 -28.5t-16 -28.5l-4 -12.5h-109l5 17.5t19 43t40 51.5t67.5 43.5t101.5 17.5q77 0 125.5 -31t67.5 -81.5t7 -107.5
l-68 -320h-114l14 63h-8zM138 145q0 -37 27.5 -53.5t62.5 -16.5q56 0 100.5 37.5t57.5 99.5l4 22l-139 -7q-57 -3 -85 -25t-28 -57z" />
    <glyph glyph-name="amacron.ss01" horiz-adv-x="578" 
d="M203 635l17 78h311l-17 -78h-311zM345 63q-2 -4 -19 -21.5t-50.5 -34.5t-85.5 -17q-78 0 -121.5 41.5t-43.5 104.5q0 44 23 81.5t70.5 62t123.5 27.5l164 8l4 19q6 27 0.5 53.5t-27.5 44t-68 17.5q-39 0 -62.5 -12.5t-35.5 -28.5t-16 -28.5l-4 -12.5h-109l5 17.5t19 43
t40 51.5t67.5 43.5t101.5 17.5q77 0 125.5 -31t67.5 -81.5t7 -107.5l-68 -320h-114l14 63h-8zM138 145q0 -37 27.5 -53.5t62.5 -16.5q56 0 100.5 37.5t57.5 99.5l4 22l-139 -7q-57 -3 -85 -25t-28 -57z" />
    <glyph glyph-name="aogonek.ss01" horiz-adv-x="578" 
d="M407 -172q-54 0 -81.5 22t-27.5 58q0 34 20.5 56.5t44.5 35.5h-24l14 63h-8q-2 -4 -19 -21.5t-50.5 -34.5t-85.5 -17q-78 0 -121.5 41.5t-43.5 104.5q0 44 23 81.5t70.5 62t123.5 27.5l164 8l4 19q6 27 0.5 53.5t-27.5 44t-68 17.5q-39 0 -62.5 -12.5t-35.5 -28.5
t-16 -28.5l-4 -12.5h-109l5 17.5t19 43t40 51.5t67.5 43.5t101.5 17.5q77 0 125.5 -31t67.5 -81.5t7 -107.5l-68 -320l-10.5 -4.5t-24 -13.5t-24 -22t-10.5 -30q0 -15 12 -24.5t37 -9.5q13 0 24.5 2l11.5 2l-13 -67l-13.5 -2.5t-35.5 -2.5zM138 145q0 -37 27.5 -53.5
t62.5 -16.5q56 0 100.5 37.5t57.5 99.5l4 22l-139 -7q-57 -3 -85 -25t-28 -57z" />
    <glyph glyph-name="aring.ss01" horiz-adv-x="578" 
d="M345 597q-36 0 -66 17.5t-48 47.5t-18 66t18 65.5t48 47t66 17.5t65.5 -17.5t47 -47t17.5 -65.5t-17.5 -66t-47 -47.5t-65.5 -17.5zM345 670q24 0 41 17t17 41t-17 41t-41 17q-25 0 -42 -17t-17 -41t17 -41t42 -17zM345 63q-2 -4 -19 -21.5t-50.5 -34.5t-85.5 -17
q-78 0 -121.5 41.5t-43.5 104.5q0 44 23 81.5t70.5 62t123.5 27.5l164 8l4 19q6 27 0.5 53.5t-27.5 44t-68 17.5q-39 0 -62.5 -12.5t-35.5 -28.5t-16 -28.5l-4 -12.5h-109l5 17.5t19 43t40 51.5t67.5 43.5t101.5 17.5q77 0 125.5 -31t67.5 -81.5t7 -107.5l-68 -320h-114
l14 63h-8zM138 145q0 -37 27.5 -53.5t62.5 -16.5q56 0 100.5 37.5t57.5 99.5l4 22l-139 -7q-57 -3 -85 -25t-28 -57z" />
    <glyph glyph-name="atilde.ss01" horiz-adv-x="578" 
d="M436 615q-26 0 -44 10.5t-32 24t-26 24t-26 10.5q-16 0 -25.5 -16.5t-15.5 -46.5h-68q12 59 35.5 98t74.5 39q27 0 45.5 -10t32 -23.5t25.5 -23.5t26 -10q16 0 25 16t14 46h68q-11 -59 -35 -98.5t-74 -39.5zM345 63q-2 -4 -19 -21.5t-50.5 -34.5t-85.5 -17
q-78 0 -121.5 41.5t-43.5 104.5q0 44 23 81.5t70.5 62t123.5 27.5l164 8l4 19q6 27 0.5 53.5t-27.5 44t-68 17.5q-39 0 -62.5 -12.5t-35.5 -28.5t-16 -28.5l-4 -12.5h-109l5 17.5t19 43t40 51.5t67.5 43.5t101.5 17.5q77 0 125.5 -31t67.5 -81.5t7 -107.5l-68 -320h-114
l14 63h-8zM138 145q0 -37 27.5 -53.5t62.5 -16.5q56 0 100.5 37.5t57.5 99.5l4 22l-139 -7q-57 -3 -85 -25t-28 -57z" />
    <glyph glyph-name="zero.dnom" horiz-adv-x="313" 
d="M146 -5q-46 0 -76.5 21.5t-45 56.5t-14.5 75q0 48 20.5 96t60.5 79.5t97 31.5q47 0 77 -21.5t44.5 -56t14.5 -74.5q0 -49 -20.5 -97t-60.5 -79.5t-97 -31.5zM150 72q25 0 44 21t30 52t11 61q0 29 -12 50.5t-38 21.5t-45.5 -21t-30 -52t-10.5 -60q0 -30 12 -51.5t39 -21.5
z" />
    <glyph glyph-name="one.dnom" horiz-adv-x="180" 
d="M213 355l-75 -355h-88l51 243h-69l11 54l11 3q33 9 57 20.5t47 30.5l3 4h52z" />
    <glyph glyph-name="two.dnom" horiz-adv-x="184" 
d="M-126 0l12 60l93 62q56 38 86.5 65.5t30.5 55.5q0 19 -13 30.5t-34 11.5q-26 0 -37 -12.5t-13.5 -25.5l-2.5 -13h-84l1.5 12.5t8.5 31.5t22 38t41.5 31.5t67.5 12.5q64 0 97.5 -32.5t33.5 -77.5q0 -40 -24 -70t-59 -54t-69 -45l-9 -6h144l-16 -75h-277z" />
    <glyph glyph-name="three.dnom" horiz-adv-x="292" 
d="M145 -5q-43 0 -70 11.5t-41 28.5t-19.5 34t-6.5 29l-1 12h83l2.5 -11t15 -22t40.5 -11q31 0 45 14.5t14 30.5q0 15 -13.5 25.5t-35.5 10.5h-48l14 67h51q26 0 38.5 12t12.5 28q0 13 -11.5 24t-34.5 11q-27 0 -39 -11.5t-15.5 -22.5l-3.5 -11h-79l3.5 17.5t17 40.5
t42 40.5t78.5 17.5q64 0 96 -29.5t32 -64.5q0 -30 -21 -53t-51 -31l-1 -3q24 -10 40 -29t16 -46q0 -26 -16 -51t-49.5 -41.5t-84.5 -16.5z" />
    <glyph glyph-name="four.dnom" horiz-adv-x="184" 
d="M12 0l15 70h-175l16 73l188 212h120l-46 -214h52l-15 -71h-52l-15 -70h-88zM-39 141h81l26 122z" />
    <glyph glyph-name="five.dnom" horiz-adv-x="226" 
d="M92 -5q-41 0 -66.5 12t-39.5 29t-20 34.5t-7 29.5l-1 12h80l3 -12t15 -23.5t39 -11.5q31 0 47.5 19.5t16.5 41.5q0 18 -12.5 33t-38.5 15q-21 0 -32.5 -7t-16.5 -14l-5 -7h-86l60 209h232l-18 -74h-161l-22 -73h3l7 7.5t22.5 15t41.5 7.5q56 0 84 -33.5t28 -75.5
q0 -32 -17 -62.5t-50.5 -51t-85.5 -20.5z" />
    <glyph glyph-name="six.dnom" horiz-adv-x="314" 
d="M157 -5q-70 0 -106 40.5t-36 98.5t27.5 109.5t78.5 84t122 32.5q38 0 57 -4.5l19 -4.5l-17 -75l-17.5 4t-44.5 4q-41 0 -74 -18t-50 -53q10 9 26 16.5t39 7.5q59 0 88.5 -34t29.5 -76q0 -32 -15.5 -62t-47 -50t-79.5 -20zM154 66q29 0 44 18.5t15 39.5q0 19 -12 34.5
t-38 15.5q-29 0 -44.5 -18.5t-15.5 -39.5q0 -19 13 -34.5t38 -15.5z" />
    <glyph glyph-name="seven.dnom" horiz-adv-x="222" 
d="M44 0q16 79 46.5 135.5t62 92.5t51.5 53h-170l15 74h269l-13 -62l-21 -19t-50.5 -56.5t-57 -92.5t-39.5 -125h-93z" />
    <glyph glyph-name="eight.dnom" horiz-adv-x="206" 
d="M39 -5q-70 0 -103 29.5t-33 68.5q0 26 17.5 54.5t65.5 42.5v3q-27 9 -39.5 28t-12.5 41q0 37 35.5 67.5t103.5 30.5q64 0 97.5 -28t33.5 -63q0 -24 -17 -48t-55 -37v-2q31 -13 45 -35t14 -46q0 -26 -16.5 -50.5t-50.5 -40t-85 -15.5zM66 216q27 0 40.5 13.5t13.5 29.5
q0 14 -11.5 25.5t-36.5 11.5q-26 0 -39.5 -13.5t-13.5 -28.5q0 -14 11.5 -26t35.5 -12zM43 62q31 0 46.5 15.5t15.5 34.5q0 17 -13.5 30.5t-40.5 13.5q-30 0 -46 -16.5t-16 -34.5q0 -16 13 -29.5t41 -13.5z" />
    <glyph glyph-name="nine.dnom" horiz-adv-x="362" 
d="M179 360q70 0 106.5 -40.5t36.5 -98.5t-27.5 -109.5t-79 -84t-121.5 -32.5q-38 0 -57.5 4.5l-19.5 4.5l17 75l17.5 -4t44.5 -4q41 0 74 18t51 53q-10 -9 -26 -16.5t-40 -7.5q-59 0 -88 34t-29 76q0 32 15.5 62t47 50t78.5 20zM182 289q-28 0 -43.5 -18.5t-15.5 -39.5
q0 -19 12.5 -34.5t38.5 -15.5q29 0 44 18.5t15 39.5q0 19 -12.5 34.5t-38.5 15.5z" />
    <glyph glyph-name="zero.numr" horiz-adv-x="319" 
d="M228 353q-46 0 -76 21.5t-45 56.5t-15 75q0 48 21 96t60.5 79.5t96.5 31.5q47 0 77 -21.5t45 -56t15 -74.5q0 -49 -21 -97t-61 -79.5t-97 -31.5zM232 430q26 0 45 21t29.5 52t10.5 61q0 29 -11.5 50.5t-38.5 21.5q-26 0 -45 -21t-30 -52t-11 -60q0 -30 12 -51.5t39 -21.5
z" />
    <glyph glyph-name="one.numr" horiz-adv-x="180" 
d="M289 713l-75 -355h-88l51 243h-69l12 54l10 3q34 9 58 20.5t46 30.5l4 4h51z" />
    <glyph glyph-name="two.numr" horiz-adv-x="184" 
d="M-50 358l13 60l92 62q56 38 86.5 65.5t30.5 55.5q0 19 -13 30.5t-34 11.5q-25 0 -36 -12.5t-13.5 -25.5l-2.5 -13h-85l2 12.5t8.5 31.5t21.5 38t41.5 31.5t67.5 12.5q65 0 98 -32.5t33 -77.5q0 -40 -24 -70t-59 -54t-69 -45l-9 -6h144l-16 -75h-277z" />
    <glyph glyph-name="three.numr" horiz-adv-x="292" 
d="M222 353q-44 0 -70.5 11.5t-41 28.5t-20 34t-6 29l-0.5 12h83l2.5 -11t14.5 -22t41 -11q31 0 44.5 14.5t13.5 30.5q0 15 -13 25.5t-36 10.5h-48l14 67h51q26 0 39 12t13 28q0 13 -11.5 24t-35.5 11q-26 0 -38.5 -11.5t-15.5 -22.5l-3 -11h-80l3.5 17.5t17 40.5t42 40.5
t79.5 17.5q63 0 95.5 -29.5t32.5 -64.5q0 -30 -21 -53t-52 -31l-1 -3q25 -10 41 -29t16 -46q0 -26 -16.5 -51t-50 -41.5t-83.5 -16.5z" />
    <glyph glyph-name="four.numr" horiz-adv-x="184" 
d="M88 358l15 70h-175l16 73l188 212h120l-46 -214h52l-14 -71h-53l-15 -70h-88zM37 499h81l27 122z" />
    <glyph glyph-name="five.numr" horiz-adv-x="226" 
d="M169 353q-41 0 -67 12t-40 29t-19.5 34.5t-6.5 29.5l-1 12h79l3 -12t15.5 -23.5t39.5 -11.5q31 0 47 19.5t16 41.5q0 18 -12.5 33t-38.5 15q-20 0 -32 -7t-17 -14l-5 -7h-86l61 209h231l-17 -74h-162l-21 -73h3l6.5 7.5t22 15t41.5 7.5q56 0 84 -33.5t28 -75.5
q0 -32 -16.5 -62.5t-50.5 -51t-85 -20.5z" />
    <glyph glyph-name="six.numr" horiz-adv-x="314" 
d="M234 353q-70 0 -106.5 40.5t-36.5 98.5t27.5 109.5t79 84t121.5 32.5q38 0 57.5 -4.5l19.5 -4.5l-17 -75l-17.5 4t-44.5 4q-41 0 -74 -18t-51 -53q10 9 26 16.5t40 7.5q59 0 88 -34t29 -76q0 -32 -15.5 -62t-47 -50t-78.5 -20zM231 424q28 0 43.5 18.5t15.5 39.5
q0 19 -12.5 34.5t-38.5 15.5q-29 0 -44 -18.5t-15 -39.5q0 -19 12.5 -34.5t38.5 -15.5z" />
    <glyph glyph-name="seven.numr" horiz-adv-x="222" 
d="M121 358q16 79 46.5 135.5t62 92.5t51.5 53h-171l15 74h269l-12 -62l-21.5 -19t-51 -56.5t-56.5 -92.5t-40 -125h-92z" />
    <glyph glyph-name="eight.numr" horiz-adv-x="206" 
d="M116 353q-71 0 -104 29.5t-33 68.5q0 26 17.5 54.5t65.5 42.5v3q-26 9 -39 28t-13 41q0 37 36 67.5t104 30.5q64 0 97.5 -28t33.5 -63q0 -24 -17.5 -48t-55.5 -37v-2q31 -13 45.5 -35t14.5 -46q0 -26 -17 -50.5t-50.5 -40t-84.5 -15.5zM143 574q26 0 39.5 13.5t13.5 29.5
q0 14 -11.5 25.5t-35.5 11.5q-27 0 -40.5 -13.5t-13.5 -28.5q0 -14 11.5 -26t36.5 -12zM119 420q31 0 46.5 15.5t15.5 34.5q0 17 -13.5 30.5t-39.5 13.5q-30 0 -46.5 -16.5t-16.5 -34.5q0 -16 13.5 -29.5t40.5 -13.5z" />
    <glyph glyph-name="nine.numr" horiz-adv-x="362" 
d="M256 718q70 0 106 -40.5t36 -98.5t-27.5 -109.5t-78.5 -84t-122 -32.5q-38 0 -57 4.5l-19 4.5l17 75l17.5 -4t44.5 -4q41 0 74 18t50 53q-10 -9 -26 -16.5t-39 -7.5q-59 0 -88.5 34t-29.5 76q0 32 15.5 62t47 50t79.5 20zM259 647q-29 0 -44 -18.5t-15 -39.5
q0 -19 12.5 -34.5t37.5 -15.5q29 0 44.5 18.5t15.5 39.5q0 19 -13 34.5t-38 15.5z" />
    <glyph glyph-name="colon.case" horiz-adv-x="268" 
d="M203 500q-32 0 -52 21t-20 50q0 30 20 51t52 21q31 0 51.5 -21t20.5 -51q0 -29 -20.5 -50t-51.5 -21zM114 93q-31 0 -51 21.5t-20 50.5q0 30 20 51t51 21t51.5 -21t20.5 -51t-20.5 -51t-51.5 -21z" />
    <glyph glyph-name="parenleft.case" horiz-adv-x="437" 
d="M287 -193q-76 23 -127.5 83t-78 143t-26.5 173q0 86 20 173.5t58 168t93 145t125.5 105t155.5 47.5l-22 -105q-58 -8 -106.5 -43.5t-87 -90t-65.5 -121.5t-41 -139.5t-14 -143.5q0 -67 18 -127.5t49.5 -104t70.5 -58.5z" />
    <glyph glyph-name="parenright.case" horiz-adv-x="437" 
d="M156 845q76 -23 127.5 -83t77.5 -142.5t26 -173.5q0 -85 -19.5 -172.5t-57.5 -168t-93 -145.5t-126 -105.5t-156 -47.5l23 105q57 9 106 44.5t87.5 90t65 121.5t40.5 139.5t14 142.5q0 67 -18 127.5t-49 104t-71 58.5z" />
    <glyph glyph-name="braceleft.case" horiz-adv-x="444" 
d="M220 -182q-91 0 -125.5 50.5t-19.5 126.5l50 232q14 65 -51 65h-41l21 97h40q66 0 80 67l52 244q16 79 64 121t127 42h120l-21 -99h-96q-36 0 -54 -17.5t-26 -53.5l-50 -237q-10 -45 -29.5 -71.5t-64.5 -41.5l-1 -5q40 -15 47 -47t-2 -74l-51 -235q-7 -33 8 -49t45 -16
h93l-20 -99h-95z" />
    <glyph glyph-name="braceright.case" horiz-adv-x="444" 
d="M229 863q91 0 126 -50.5t19 -125.5l-50 -233q-14 -65 51 -65h41l-20 -97h-41q-65 0 -80 -67l-52 -244q-16 -79 -63.5 -121t-126.5 -42h-121l22 99h95q36 0 54 17.5t26 53.5l50 237q10 45 29.5 72t64.5 41l2 5q-40 15 -47.5 47t2.5 74l50 235q8 34 -7 49.5t-46 15.5h-93
l20 99h95z" />
    <glyph glyph-name="bracketleft.case" horiz-adv-x="482" 
d="M-9 -182l222 1045h314l-21 -99h-198l-180 -847h198l-21 -99h-314z" />
    <glyph glyph-name="bracketright.case" horiz-adv-x="482" 
d="M498 863l-222 -1045h-314l21 99h199l179 847h-198l21 99h314z" />
    <glyph glyph-name="uni03060301" 
d="M391 778l-89 1l90 180h110zM315 602q-48 0 -77.5 15t-45 37t-21 44t-5.5 36.5v14.5h81l-0.5 -11.5t4.5 -26.5t20 -26.5t45 -11.5q31 0 51 11.5t31.5 26.5t16 26.5l4.5 11.5h81l-4 -14.5t-15 -36.5t-31.5 -44t-53.5 -37t-81 -15z" />
    <glyph glyph-name="uni03060300" 
d="M286 778l-87 181h107l66 -180zM315 602q-48 0 -77.5 15t-45 37t-21 44t-5.5 36.5v14.5h81l-0.5 -11.5t4.5 -26.5t20 -26.5t45 -11.5q31 0 51 11.5t31.5 26.5t16 26.5l4.5 11.5h81l-4 -14.5t-15 -36.5t-31.5 -44t-53.5 -37t-81 -15z" />
    <glyph glyph-name="uni03060309" 
d="M297 764l7 33q5 25 29 35l15 8q28 12 42 25t14 30q0 12 -9.5 22t-29.5 10q-23 0 -33 -10t-12.5 -20.5l-2.5 -10.5h-67l3 15t14 35t35 35.5t66 15.5q55 0 81.5 -28t26.5 -62q0 -39 -31.5 -62.5t-70.5 -40.5l-7 -30h-70zM315 602q-48 0 -77.5 15t-45 37t-21 44t-5.5 36.5
v14.5h81l-0.5 -11.5t4.5 -26.5t20 -26.5t45 -11.5q31 0 51 11.5t31.5 26.5t16 26.5l4.5 11.5h81l-4 -14.5t-15 -36.5t-31.5 -44t-53.5 -37t-81 -15z" />
    <glyph glyph-name="uni03060303" 
d="M421 794q-27 0 -45 10.5t-32 24t-26 23.5t-26 10q-16 0 -25.5 -16.5t-14.5 -45.5h-69q12 58 35.5 97t74.5 39q27 0 45.5 -10t32 -23t25.5 -23.5t26 -10.5q16 0 25 16t14 46h68q-11 -58 -34.5 -97.5t-73.5 -39.5zM315 602q-48 0 -77.5 15t-45 37t-21 44t-5.5 36.5v14.5h81
l-0.5 -11.5t4.5 -26.5t20 -26.5t45 -11.5q31 0 51 11.5t31.5 26.5t16 26.5l4.5 11.5h81l-4 -14.5t-15 -36.5t-31.5 -44t-53.5 -37t-81 -15z" />
    <glyph glyph-name="uni03020301" 
d="M554 731l-89 1l90 180h110zM141 603l156 149h94l92 -149h-90l-56 92l-92 -92h-104z" />
    <glyph glyph-name="uni03020300" 
d="M471 731l-87 181h108l66 -180zM141 603l156 149h94l92 -149h-90l-56 92l-92 -92h-104z" />
    <glyph glyph-name="uni03020309" 
d="M460 715l7 33q5 25 28 35l16 8q28 12 42 25t14 30q0 12 -9.5 22t-29.5 10q-23 0 -33 -10t-12.5 -20.5l-2.5 -10.5h-67l3 15t14 35t35 35.5t66 15.5q55 0 81.5 -28t26.5 -62q0 -39 -31.5 -62.5t-70.5 -40.5l-7 -30h-70zM141 603l156 149h94l92 -149h-90l-56 92l-92 -92
h-104z" />
    <glyph glyph-name="uni03020303" 
d="M427 789q-26 0 -44.5 10.5t-32 24t-26 24t-26.5 10.5q-15 0 -25 -16.5t-15 -46.5h-68q11 59 35 98t74 39q27 0 45.5 -10t32.5 -23.5t26 -23.5t25 -10q16 0 25 16t15 46h68q-12 -59 -35.5 -98.5t-73.5 -39.5zM141 603l156 149h94l92 -149h-90l-56 92l-92 -92h-104z" />
    </font>
</defs>
</svg>
